<svg width="42" height="42" viewBox="0 0 42 42" fill="none" xmlns="http://www.w3.org/2000/svg">
<g clip-path="url(#clip0_21523_3951)">
<path d="M21 42C32.598 42 42 32.598 42 21C42 9.40202 32.598 0 21 0C9.40202 0 0 9.40202 0 21C0 32.598 9.40202 42 21 42Z" fill="#F0F0F0"/>
<path d="M20.0867 21.0003H41.9997C41.9997 19.1049 41.747 17.2687 41.2762 15.522H20.0867V21.0003Z" fill="#D80027"/>
<path d="M20.0867 10.0437H38.9174C37.6319 7.94602 35.9883 6.09187 34.0718 4.56543H20.0867V10.0437Z" fill="#D80027"/>
<path d="M20.9997 42.0003C25.942 42.0003 30.4846 40.292 34.0718 37.4351H7.92749C11.5147 40.292 16.0574 42.0003 20.9997 42.0003Z" fill="#D80027"/>
<path d="M3.0822 31.9568H38.9177C39.9498 30.2728 40.7501 28.432 41.2765 26.4785H0.723389C1.24978 28.432 2.05016 30.2728 3.0822 31.9568Z" fill="#D80027"/>
<path d="M9.72759 3.27945H11.6413L9.86122 4.57267L10.5412 6.6652L8.76118 5.37198L6.98119 6.6652L7.56853 4.85748C6.00124 6.16301 4.62755 7.69256 3.49552 9.39684H4.1087L2.9756 10.22C2.79907 10.5145 2.62976 10.8137 2.4675 11.1173L3.00858 12.7826L1.9991 12.0492C1.74817 12.5808 1.51864 13.1244 1.31234 13.6794L1.90846 15.5142H4.1087L2.32862 16.8075L3.00858 18.9L1.22858 17.6068L0.16234 18.3815C0.0556172 19.2394 0 20.1132 0 21H21C21 9.40209 21 8.0348 21 0C16.8515 0 12.9843 1.2034 9.72759 3.27945ZM10.5412 18.9L8.76118 17.6068L6.98119 18.9L7.66114 16.8075L5.88107 15.5142H8.08131L8.76118 13.4217L9.44106 15.5142H11.6413L9.86122 16.8075L10.5412 18.9ZM9.86122 10.6901L10.5412 12.7826L8.76118 11.4894L6.98119 12.7826L7.66114 10.6901L5.88107 9.39684H8.08131L8.76118 7.30431L9.44106 9.39684H11.6413L9.86122 10.6901ZM18.0738 18.9L16.2938 17.6068L14.5138 18.9L15.1937 16.8075L13.4137 15.5142H15.6139L16.2938 13.4217L16.9737 15.5142H19.1739L17.3938 16.8075L18.0738 18.9ZM17.3938 10.6901L18.0738 12.7826L16.2938 11.4894L14.5138 12.7826L15.1937 10.6901L13.4137 9.39684H15.6139L16.2938 7.30431L16.9737 9.39684H19.1739L17.3938 10.6901ZM17.3938 4.57267L18.0738 6.6652L16.2938 5.37198L14.5138 6.6652L15.1937 4.57267L13.4137 3.27945H15.6139L16.2938 1.18691L16.9737 3.27945H19.1739L17.3938 4.57267Z" fill="#0052B4"/>
</g>
<defs>
<clipPath id="clip0_21523_3951">
<rect width="42" height="42" fill="white"/>
</clipPath>
</defs>
</svg>
