<svg width="205" height="193" viewBox="0 0 205 193" fill="none" xmlns="http://www.w3.org/2000/svg">
<g id="Group">
<g id="Group_2">
<g id="Group_3">
<path id="Vector" d="M94.3074 2.22856C94.5676 6.19015 94.5098 10.1806 94.1338 14.1133C94.076 14.6049 94.0471 15.0965 93.9603 15.5591C93.9314 15.7905 93.9025 16.0218 93.8736 16.2532C93.8447 16.6002 93.9604 15.7037 93.8736 16.2242C93.8447 16.3688 93.8446 16.5423 93.8157 16.6869C93.6711 17.6701 93.4977 18.6532 93.3242 19.6364C92.9483 21.6027 92.4567 23.5691 91.8784 25.4776C91.5892 26.374 91.3 27.2704 90.9819 28.1668C90.8084 28.6006 90.6638 29.0343 90.4614 29.4681C90.4324 29.5548 90.3168 29.6994 90.3168 29.8151C90.3168 29.5259 90.4903 29.4392 90.3747 29.6416C90.259 29.8729 90.1722 30.1042 90.0566 30.3356C89.3626 31.8682 88.524 33.3429 87.5986 34.7309C87.3962 35.049 87.1649 35.3671 86.9336 35.6852C86.8179 35.8587 86.6733 36.0322 86.5576 36.2057C86.4998 36.2635 86.4419 36.3502 86.413 36.4081C86.7022 35.8876 86.5287 36.2635 86.442 36.3792C85.9215 37.0442 85.3432 37.7093 84.7649 38.3455C84.1865 38.9528 83.6081 39.5311 82.972 40.1094C82.6828 40.3697 82.3648 40.6299 82.0467 40.8902C81.9021 41.0058 81.7576 41.1215 81.613 41.2372C81.3816 41.4107 82.0467 40.8902 81.6997 41.1793C81.584 41.2661 81.4972 41.3239 81.3816 41.4107C80.6297 41.9601 79.8489 42.4806 79.0393 42.9433C78.2296 43.4059 77.3911 43.7529 76.5526 44.1867C76.5815 44.1577 77.044 43.9843 76.7259 44.0999C76.6103 44.1578 76.4947 44.1867 76.379 44.2445C76.1477 44.3313 75.9164 44.418 75.6561 44.5047C75.2224 44.6493 74.7886 44.7939 74.3259 44.9096C73.4295 45.1698 72.5042 45.3433 71.5788 45.459C71.0872 45.5168 70.5089 46.0373 70.2776 46.4422C70.0462 46.8759 69.9595 47.3386 70.0174 47.8302C70.1619 48.8712 71.0583 49.7097 72.1572 49.7097C74.2681 49.6808 76.379 49.6808 78.4899 49.8254C78.9815 49.8543 79.4441 49.9122 79.9357 49.97C79.9646 49.97 80.4852 50.0567 80.1382 49.9989C79.7623 49.9411 80.2827 50.0279 80.3405 50.0279C80.6008 50.0568 80.8611 50.1146 81.1213 50.1724C82.1623 50.3749 83.1744 50.6351 84.1576 50.9532C84.3311 51.011 84.5335 51.0977 84.707 51.1556C84.7937 51.1845 84.9094 51.2423 84.9961 51.2713C85.1696 51.3291 85.3432 51.5026 84.8805 51.2134C85.2275 51.4448 85.6612 51.5604 86.0372 51.7629C86.7601 52.1388 87.4541 52.5436 88.0903 53.0063C88.2638 53.1219 88.4372 53.2376 88.6107 53.3822C88.6686 53.44 88.7554 53.4979 88.8132 53.5268C89.1024 53.7292 88.6975 53.44 88.6686 53.4111C88.9578 53.7003 89.3337 53.9605 89.6518 54.2208C90.2879 54.7991 90.8951 55.3774 91.4734 56.0136C91.7337 56.3028 91.994 56.5919 92.2253 56.8811C92.341 57.0257 92.4567 57.1703 92.6013 57.3438C92.7748 57.5751 92.2832 56.91 92.5434 57.257C92.6302 57.3727 92.6879 57.4594 92.7747 57.5751C93.2663 58.2402 93.7001 58.9342 94.1338 59.6282C94.5676 60.3511 94.9725 61.1029 95.3484 61.8548C95.5219 62.2307 95.6953 62.6066 95.8688 62.9825C95.8978 63.0693 95.9266 63.156 95.9845 63.2139C95.7531 62.6644 95.8977 62.9825 95.9555 63.1271C96.0423 63.3584 96.1291 63.5609 96.2159 63.7922C96.881 65.5272 97.3725 67.2911 97.7484 69.0839C97.8641 69.6044 97.9508 70.096 98.0376 70.6165C98.0665 70.8189 98.0954 71.0503 98.1532 71.2527C98.1821 71.4262 98.2111 71.5708 98.2111 71.7443C98.2111 71.6575 98.1822 71.5708 98.1822 71.484C98.1822 71.5997 98.2111 71.6864 98.2111 71.8021C98.3268 72.8431 98.4425 73.8552 98.5003 74.8962C98.8184 79.6675 98.5292 84.4676 98.2111 89.21C98.1533 90.2799 99.0786 91.2052 100.091 91.3498C101.161 91.4944 102.144 90.8293 102.462 89.7883C104.746 82.5302 105.035 74.8673 106.742 67.4935C107.117 65.8453 107.551 64.197 108.129 62.5777C108.245 62.2307 108.39 61.8837 108.505 61.5656C108.563 61.3921 108.679 61.2186 108.737 61.0162C108.737 61.0451 108.534 61.5078 108.679 61.1897C108.708 61.1029 108.766 60.9873 108.795 60.9005C109.113 60.2065 109.431 59.5414 109.778 58.8764C110.472 57.5462 111.281 56.2739 112.178 55.0883C112.236 55.0304 112.293 54.9437 112.322 54.8858C112.033 55.3196 112.12 55.1461 112.207 55.0304C112.322 54.8858 112.438 54.7413 112.554 54.5967C112.785 54.3075 113.045 54.0183 113.306 53.7292C113.797 53.1798 114.318 52.6593 114.838 52.1966C115.156 51.9074 115.445 51.6472 115.792 51.3869C115.85 51.3291 115.908 51.3002 115.995 51.2423C115.474 51.6472 115.85 51.358 115.937 51.2713C116.11 51.1556 116.255 51.0399 116.429 50.9243C117.065 50.4905 117.73 50.0857 118.424 49.7387C118.597 49.6519 118.8 49.5652 118.973 49.4784C119.06 49.4495 119.118 49.4206 119.205 49.3917C119.609 49.2182 118.771 49.5652 119.147 49.4206C119.523 49.276 119.899 49.1314 120.303 49.0158C120.708 48.9001 121.084 48.7844 121.489 48.6977C121.663 48.6687 121.865 48.6109 122.038 48.582C122.212 48.5531 123.022 48.4374 122.27 48.5242C122.848 48.4374 123.398 48.3507 123.802 47.888C124.12 47.541 124.323 47.1362 124.41 46.6446C124.554 45.6614 123.918 44.4758 122.848 44.2734C122.009 44.0999 121.171 43.8975 120.332 43.6372C119.956 43.5216 119.609 43.377 119.233 43.2613C119.031 43.1746 118.829 43.0878 118.626 43.03C119.291 43.2902 118.539 42.9722 118.366 42.9143C116.833 42.1914 115.359 41.3239 114 40.3118C113.942 40.254 113.855 40.1962 113.797 40.1672C113.508 39.9359 113.913 40.254 113.942 40.2829C113.797 40.1383 113.595 40.0227 113.421 39.8781C113.074 39.5889 112.756 39.3287 112.438 39.0395C111.802 38.4612 111.166 37.8539 110.587 37.1888C110.009 36.5527 109.46 35.9165 108.91 35.2514C108.852 35.1647 108.795 35.0779 108.708 34.9912C108.737 35.0201 109.026 35.396 108.795 35.1068C108.65 34.9333 108.534 34.7598 108.39 34.5863C108.129 34.2393 107.869 33.8634 107.638 33.5164C106.684 32.0995 105.845 30.5958 105.093 29.0633C104.92 28.6873 104.746 28.3403 104.573 27.9644C104.515 27.8777 104.486 27.762 104.457 27.6752C104.313 27.3572 104.515 27.7909 104.515 27.8198C104.428 27.5596 104.312 27.3282 104.226 27.0969C103.908 26.3162 103.618 25.5065 103.329 24.6968C102.115 21.1401 101.218 17.4677 100.496 13.7663C100.091 11.7132 99.7148 9.63124 99.3967 7.54924C99.2521 6.56607 99.1076 5.61183 98.963 4.62866C98.9051 4.13708 98.8183 3.67441 98.7605 3.18283C98.7316 3.00933 98.6159 2.19966 98.7316 2.92257C98.7026 2.66232 98.6738 2.431 98.6449 2.17075C98.5581 1.56349 98.4424 1.0719 98.0086 0.638147C97.6327 0.26223 97.0255 -0.0269227 96.4761 0.00199396C95.9267 0.0309106 95.3194 0.204397 94.9434 0.638147C94.5675 1.10081 94.2206 1.67915 94.3074 2.22856C95.3195 9.83365 96.4761 17.5255 98.8184 24.8414C101.074 31.8103 104.746 38.4612 110.501 43.1168C113.768 45.7482 117.527 47.7723 121.663 48.5531C121.865 47.1362 122.038 45.7193 122.241 44.3023C120.448 44.5337 118.8 44.9963 117.123 45.7193C115.648 46.3554 114.289 47.2229 113.016 48.235C110.53 50.1724 108.477 52.6882 106.857 55.3774C105.151 58.1824 103.908 61.2764 103.069 64.4573C102.057 68.2164 101.479 72.0913 100.9 75.9372C100.264 80.2747 99.599 84.6122 98.2689 88.8051C99.6858 89.0075 101.103 89.181 102.52 89.3835C103.069 80.8241 103.561 71.86 100.669 63.6187C98.269 56.7365 93.5554 50.2881 86.7022 47.3964C82.1044 45.459 77.073 45.4012 72.1572 45.459C72.3596 46.8759 72.5331 48.2928 72.7355 49.7097C80.0225 48.6977 86.2396 43.9843 90.4903 38.2009C95.2037 31.7814 97.2569 23.7137 98.2401 15.9062C98.8184 11.3663 98.934 6.79739 98.6159 2.25747C98.5292 1.12972 97.6617 0.0308895 96.4472 0.0887228C95.3483 0.11764 94.2206 1.01406 94.3074 2.22856Z" fill="#B8E451"/>
</g>
</g>
<g id="Group_4">
<g id="Group_5">
<path id="Vector_2" d="M14.0038 61.0177C14.4954 63.1864 14.9292 65.3841 15.3051 67.5818C15.5075 68.6517 15.6811 69.7216 15.8257 70.7915C15.9124 71.3409 15.9991 71.8614 16.0569 72.4108C16.0859 72.6422 16.1147 72.9024 16.1436 73.1338C16.2015 73.5386 16.1436 73.1627 16.1436 73.1048C16.1725 73.2783 16.2015 73.4518 16.2015 73.6543C16.7799 78.0207 17.1268 82.3871 17.3003 86.7824C17.387 88.662 17.3872 90.5127 17.2715 92.3923C17.2426 92.826 17.2135 93.2598 17.1557 93.6935C17.1268 93.9249 17.0979 94.1562 17.069 94.3875C17.0401 94.6188 17.1269 94.7924 17.069 94.3297C17.0979 94.4743 17.0111 94.6478 17.0111 94.7924C16.8665 95.6888 16.693 96.5563 16.4328 97.4238C16.3171 97.8575 16.1726 98.2623 16.028 98.6961C15.9702 98.8696 15.8546 99.072 15.8257 99.2455C15.9413 98.8118 15.9412 99.0142 15.8834 99.1298C15.8256 99.2744 15.7677 99.3901 15.7099 99.5347C15.305 100.373 14.8424 101.154 14.293 101.906C14.1484 102.079 14.0328 102.282 13.8882 102.455C13.9171 102.397 14.1774 102.079 13.9461 102.369C13.8882 102.455 13.8304 102.542 13.7436 102.6C13.4544 102.976 13.1363 103.352 12.8182 103.728C12.211 104.422 11.546 105.116 10.8809 105.781C10.158 106.504 9.40604 107.169 8.62529 107.834C8.22046 108.181 7.81568 108.528 7.38193 108.846C7.29518 108.933 7.17951 109.019 7.09276 109.077C7.03493 109.106 6.68793 109.395 6.94818 109.193C7.23735 108.99 6.83251 109.28 6.8036 109.309C6.68793 109.395 6.5434 109.482 6.42774 109.598C4.69273 110.87 2.8999 112.056 1.07815 113.183C0.297399 113.675 -0.223214 114.716 0.0948693 115.641C0.384036 116.509 1.22268 117.29 2.17693 117.232C3.99868 117.116 5.82043 117.029 7.6711 117.116C8.8856 117.174 10.1001 117.29 11.2857 117.434C11.9508 117.492 12.5869 117.55 13.252 117.608C13.4544 117.608 13.6568 117.637 13.8592 117.665C13.9171 117.665 13.946 117.665 14.0038 117.694C14.2352 117.723 14.1773 117.723 13.8303 117.665C13.8881 117.694 14.0328 117.694 14.0907 117.694C14.5533 117.781 15.0159 117.868 15.4786 118.012C15.8834 118.128 16.2883 118.273 16.6642 118.417C16.7799 118.446 16.8667 118.504 16.9823 118.533C17.2715 118.649 16.4617 118.302 16.8955 118.504C17.1268 118.62 17.3293 118.706 17.5607 118.822C18.3703 119.227 19.1221 119.69 19.845 120.21C19.9318 120.268 20.0185 120.355 20.1053 120.413C20.4234 120.644 20.0185 120.355 19.9896 120.326C20.0764 120.47 20.3944 120.644 20.5101 120.76C20.886 121.078 21.233 121.396 21.58 121.714C22.2451 122.35 22.9102 123.044 23.4886 123.738C23.7777 124.085 24.0669 124.432 24.3271 124.779C24.038 124.374 24.6452 125.184 24.3271 124.779C24.385 124.866 24.4428 124.924 24.5007 125.01C24.6742 125.242 24.8476 125.473 24.9922 125.704C25.5416 126.485 26.0621 127.266 26.5536 128.075C27.6236 129.839 28.6068 131.69 29.5032 133.541C29.9948 134.553 30.4864 135.594 30.949 136.606C31.0647 136.837 31.1515 137.069 31.2671 137.3C31.325 137.416 31.3828 137.56 31.4407 137.676C31.5853 138.052 31.4406 137.705 31.4117 137.618C31.672 138.196 31.8744 138.775 32.1057 139.353C33.9853 144.095 35.4311 148.982 36.4432 153.985C36.6456 155.055 37.8313 155.662 38.8144 155.546C39.9711 155.402 40.5783 154.505 40.694 153.406C41.7061 144.703 39.5083 136.056 40.0288 127.324C40.0578 126.63 40.1445 125.936 40.2024 125.271C40.2313 125.097 40.2603 124.924 40.2603 124.75C40.2892 124.461 40.1735 125.357 40.2313 124.924C40.2313 124.837 40.2603 124.779 40.2603 124.692C40.3181 124.316 40.3758 123.94 40.4336 123.564C40.6939 122.09 41.0409 120.615 41.4457 119.198C41.6771 118.446 41.9084 117.694 42.1686 116.943C42.2843 116.596 42.4001 116.277 42.5446 115.959C42.6025 115.786 42.6891 115.612 42.747 115.439C42.8916 115.121 42.6892 115.583 42.6603 115.612C42.7181 115.497 42.747 115.381 42.8049 115.265C43.4121 113.906 44.1061 112.576 44.9447 111.333C45.1471 111.015 45.3785 110.697 45.6098 110.378C45.6388 110.321 45.8989 110.003 45.6386 110.321C45.4073 110.639 45.6676 110.292 45.7255 110.234C45.8411 110.089 45.9568 109.945 46.1013 109.8C46.5929 109.222 47.1424 108.672 47.7207 108.181C47.8653 108.036 48.0388 107.921 48.1834 107.805C48.3858 107.631 47.7785 108.094 48.0099 107.949C48.0966 107.892 48.1833 107.834 48.2701 107.747C48.5882 107.545 48.8774 107.342 49.2244 107.14C49.5425 106.966 49.8605 106.793 50.1786 106.648C50.2365 106.619 50.5835 106.475 50.2076 106.619C49.8606 106.764 50.1498 106.648 50.2365 106.619C50.4389 106.533 50.6412 106.475 50.8437 106.417C51.7112 106.128 52.4919 105.289 52.4341 104.335C52.3762 103.352 51.7979 102.571 50.8437 102.253C47.1423 101.009 43.2676 100.489 39.5373 99.3033C39.1036 99.1588 38.6698 99.0142 38.2361 98.8407C38.1493 98.8118 38.0625 98.7829 37.9757 98.754C37.9179 98.725 37.542 98.5226 37.8601 98.6961C38.1782 98.8696 37.8023 98.6672 37.7444 98.6383C37.6288 98.5804 37.4843 98.5226 37.3686 98.4648C36.53 98.0889 35.7492 97.6262 34.9974 97.1057C34.8817 97.0189 34.766 96.9322 34.6503 96.8744C34.3901 96.7009 34.7083 96.9611 34.7661 96.9611C34.6793 96.99 34.3033 96.5852 34.2166 96.4984C33.8406 96.1514 33.4648 95.8045 33.1178 95.4285C32.8286 95.1105 32.5394 94.7635 32.2503 94.4165C32.1057 94.243 31.9611 94.0694 31.8165 93.8959C32.1924 94.3297 31.9612 94.0694 31.8744 93.9538C31.7877 93.8381 31.7009 93.6935 31.5853 93.5779C30.5443 92.1609 29.6767 90.6573 28.8959 89.0958C28.6935 88.6909 28.52 88.315 28.3465 87.9102C28.2598 87.7367 28.1731 87.5632 28.1152 87.3608C28.0574 87.274 28.0285 87.1584 27.9707 87.0716C27.7972 86.6668 28.1442 87.4764 27.9707 87.1005C27.6237 86.2619 27.3055 85.3944 26.9874 84.5558C25.6861 80.9702 24.6741 77.2689 23.5463 73.6254C21.9848 68.7095 20.1631 63.8804 17.7919 59.3116C17.2714 58.2995 15.7678 57.9236 14.8136 58.5308C13.7726 59.1959 13.4834 60.4104 14.0328 61.5093C14.6111 62.6081 15.1606 63.7358 15.6811 64.8636C15.9124 65.3841 16.1726 65.9046 16.375 66.4251C16.3461 66.3673 16.2015 65.9914 16.3461 66.3673C16.4039 66.4829 16.4618 66.6275 16.5196 66.7432C16.6353 67.0323 16.7509 67.3215 16.8665 67.5818C17.6762 69.6059 18.3992 71.659 19.0642 73.741C20.2787 77.4713 21.3198 81.2593 22.5921 84.9607C23.8066 88.4885 25.2814 91.9874 27.3923 95.0815C28.5201 96.7298 29.7923 98.4069 31.3538 99.6793C33.031 101.096 34.8818 102.108 36.9348 102.889C41.041 104.479 45.4942 104.942 49.6582 106.33C49.6582 104.942 49.6582 103.554 49.6582 102.137C43.3543 104.161 39.7397 110.436 37.7444 116.335C36.7034 119.372 36.0673 122.552 35.7492 125.733C35.3444 129.839 35.6335 134.003 35.9805 138.11C36.3853 143.17 36.8769 148.23 36.2986 153.291C37.7155 153.088 39.1325 152.915 40.5494 152.712C39.6241 148.173 38.3228 143.69 36.7034 139.353C35.0552 134.987 33.1178 130.678 30.7755 126.63C28.7802 123.217 26.3802 119.892 23.3151 117.376C21.6379 116.017 19.9028 114.918 17.8786 114.138C16.0858 113.415 14.2063 113.212 12.2978 113.039C10.9098 112.923 9.55074 112.75 8.16274 112.663C6.10965 112.547 4.08543 112.634 2.03234 112.75C2.40826 114.109 2.7552 115.439 3.13112 116.798C6.54329 114.687 9.86874 112.374 12.8472 109.627C15.7967 106.88 18.5438 103.728 20.0186 99.9395C21.4355 96.296 21.6668 92.2188 21.58 88.315C21.4933 83.8908 21.1462 79.4665 20.6257 75.1001C20.0185 69.9529 19.151 64.8058 18.0232 59.7454C17.763 58.6465 16.4329 57.8947 15.363 58.2417C14.3509 58.7332 13.7147 59.8321 14.0038 61.0177Z" fill="#B8E451"/>
</g>
</g>
<g id="Group_6">
<g id="Group_7">
<path id="Vector_3" d="M127.763 119.25C128.168 120.841 128.486 122.431 128.717 124.08C128.688 123.877 128.659 123.704 128.63 123.501C129.064 126.711 129.122 130.007 128.688 133.217C128.717 133.015 128.746 132.841 128.775 132.639C128.428 135.241 127.763 137.786 126.751 140.186C126.837 140.013 126.895 139.839 126.982 139.666C126.491 140.822 125.941 141.95 125.276 143.02C124.958 143.569 124.582 144.119 124.206 144.639C124.033 144.871 123.859 145.102 123.686 145.333C124.148 144.726 123.772 145.218 123.657 145.362C123.541 145.507 123.425 145.651 123.31 145.767C122.5 146.75 121.575 147.647 120.62 148.485C120.389 148.688 120.129 148.89 119.898 149.093C119.753 149.208 119.261 149.584 119.869 149.121C119.724 149.208 119.608 149.324 119.464 149.439C118.914 149.844 118.336 150.22 117.758 150.596C116.659 151.261 115.56 151.84 114.374 152.331C114.548 152.244 114.721 152.187 114.895 152.1C114.056 152.447 113.218 152.794 112.379 153.17C111.801 153.43 111.251 153.661 110.818 154.095C109.835 155.02 110.008 156.611 111.02 157.392C111.541 157.796 112.235 157.912 112.842 158.086C113.883 158.404 114.924 158.78 115.936 159.213C115.762 159.127 115.589 159.069 115.415 158.982C118.163 160.168 120.823 161.642 123.194 163.435C123.252 163.493 123.31 163.522 123.368 163.58C122.876 163.204 123.078 163.377 123.194 163.435C123.339 163.551 123.454 163.638 123.599 163.753C123.859 163.956 124.119 164.187 124.351 164.389C124.784 164.794 125.218 165.199 125.623 165.662C125.825 165.864 125.999 166.096 126.201 166.327C126.288 166.443 126.375 166.558 126.462 166.674C126.548 166.789 126.693 166.992 126.288 166.471C126.346 166.558 126.404 166.616 126.462 166.703C126.809 167.165 127.156 167.657 127.445 168.178C128.197 169.363 128.804 170.635 129.382 171.937C129.295 171.763 129.238 171.59 129.151 171.416C131.233 176.39 132.187 181.739 133.112 187.031C133.344 188.448 133.604 189.865 133.864 191.282C133.951 191.774 134.443 192.352 134.847 192.583C135.281 192.815 135.744 192.901 136.235 192.843C137.305 192.699 138.086 191.802 138.115 190.704C138.202 188.304 138.289 185.903 138.375 183.474C138.462 181.161 138.462 178.819 138.78 176.505C138.751 176.708 138.722 176.881 138.693 177.084C138.983 175.089 139.416 173.093 139.937 171.156C140.197 170.202 140.486 169.247 140.775 168.293C141.036 167.512 141.267 166.703 141.585 165.922C141.498 166.095 141.44 166.269 141.354 166.443C141.758 165.517 142.279 164.65 142.886 163.84C142.973 163.724 143.06 163.609 143.147 163.464C143.349 163.204 142.771 163.927 143.089 163.522C143.291 163.262 143.493 163.03 143.696 162.77C144.072 162.307 144.477 161.874 144.882 161.44C145.749 160.543 146.674 159.676 147.629 158.837C147.86 158.635 148.091 158.461 148.323 158.259C148.438 158.172 148.554 158.086 148.67 157.97C148.727 157.912 148.785 157.854 148.872 157.825C148.785 157.883 148.438 158.172 148.699 157.941C149.161 157.594 149.653 157.247 150.115 156.9C151.07 156.264 152.053 155.657 153.123 155.223C152.949 155.31 152.776 155.367 152.602 155.454C152.689 155.425 152.776 155.396 152.863 155.338C153.383 155.136 153.875 154.847 154.164 154.355C154.395 153.922 154.482 153.459 154.424 152.967C154.279 151.897 153.383 151.088 152.284 151.088C151.793 151.088 151.301 151.059 150.838 151.001C151.041 151.03 151.214 151.059 151.417 151.088C150.462 150.943 149.508 150.683 148.612 150.307C148.785 150.394 148.959 150.452 149.132 150.538C148.583 150.307 148.062 150.047 147.571 149.729C147.31 149.584 147.079 149.411 146.819 149.266C146.703 149.179 146.559 149.092 146.443 149.006C146.385 148.977 146.327 148.919 146.269 148.89C146.241 148.861 146.212 148.832 146.183 148.832C145.98 148.659 146.472 149.064 146.443 149.035C145.46 148.225 144.534 147.357 143.667 146.403C143.465 146.143 143.233 145.912 143.031 145.651C142.944 145.536 142.828 145.391 142.742 145.275C142.51 144.986 142.973 145.565 142.886 145.449C142.828 145.362 142.771 145.304 142.713 145.218C142.279 144.668 141.903 144.09 141.498 143.512C140.689 142.297 139.966 141.025 139.301 139.723C138.52 138.22 137.797 136.658 137.132 135.097C137.219 135.27 137.276 135.444 137.363 135.617C135.426 131.02 133.922 126.219 132.679 121.361C132.389 120.234 132.129 119.135 131.869 118.007C131.609 116.908 130.279 116.156 129.209 116.503C128.11 116.966 127.474 118.065 127.763 119.25C128.37 121.882 129.035 124.513 129.816 127.116C130.712 130.152 131.753 133.188 132.939 136.138C134.211 139.232 135.628 142.297 137.421 145.131C139.011 147.676 140.92 150.162 143.262 152.042C144.39 152.938 145.576 153.777 146.906 154.355C148.38 154.991 149.826 155.396 151.446 155.541C151.764 155.57 152.082 155.57 152.371 155.57C152.168 154.153 151.995 152.736 151.793 151.319C149.421 152.244 147.368 153.69 145.402 155.281C143.436 156.871 141.585 158.664 140.024 160.659C139.243 161.642 138.52 162.625 137.942 163.753C137.276 165.083 136.843 166.529 136.409 167.946C135.368 171.387 134.529 174.886 134.269 178.472C134.124 180.496 134.096 182.549 134.038 184.573C133.98 186.655 133.893 188.708 133.835 190.79C135.252 190.588 136.669 190.414 138.086 190.212C137.045 184.458 136.264 178.616 134.414 173.064C133.459 170.26 132.274 167.455 130.539 165.026C129.671 163.782 128.688 162.625 127.589 161.584C126.317 160.428 124.9 159.387 123.454 158.462C121.864 157.421 120.187 156.495 118.452 155.714C117.469 155.252 116.456 154.847 115.415 154.471C114.577 154.182 113.738 153.951 112.9 153.69C113.073 153.777 113.247 153.835 113.42 153.922C113.68 154.182 113.912 154.413 114.172 154.673C114.259 154.847 114.317 155.02 114.403 155.194C114.432 155.396 114.461 155.57 114.49 155.772C114.461 155.975 114.432 156.148 114.403 156.351C114.317 156.524 114.259 156.698 114.172 156.871C113.998 157.131 113.767 157.449 113.507 157.565C113.565 157.536 113.594 157.507 113.651 157.478C113.796 157.392 113.941 157.334 114.085 157.247C114.49 157.045 114.924 156.871 115.358 156.698C115.184 156.784 115.011 156.842 114.837 156.929C116.023 156.437 117.237 155.946 118.394 155.338C119.724 154.644 120.967 153.835 122.153 152.938C124.669 151.001 126.838 148.717 128.544 146.056C131.84 140.996 133.286 134.865 133.315 128.88C133.315 125.294 132.823 121.679 131.956 118.209C131.667 117.111 130.394 116.33 129.295 116.706C128.139 116.966 127.445 118.065 127.763 119.25Z" fill="#B8E451"/>
</g>
</g>
<g id="Group_8">
<g id="Group_9">
<path id="Vector_4" d="M157.053 42.5374C157.285 43.6073 157.487 44.6772 157.661 45.7471C157.747 46.2676 157.834 46.817 157.921 47.3665C157.95 47.54 158.094 48.3496 157.979 47.7135C158.037 48.0316 158.066 48.3496 158.094 48.6388C158.355 50.8365 158.557 53.0631 158.673 55.2896C158.904 59.7717 158.875 64.2827 158.557 68.7359C158.47 69.8347 158.384 70.9336 158.297 72.0613C158.239 72.5529 158.21 73.0734 158.152 73.565C158.123 73.7963 158.094 74.0276 158.066 74.2879C158.066 74.4035 158.037 74.5192 158.037 74.606C158.008 74.7795 158.037 74.6927 158.066 74.3457C158.066 74.4325 158.037 74.5192 158.037 74.606C157.776 76.4567 157.371 78.2784 156.88 80.0712C156.62 80.9676 156.33 81.8641 156.012 82.7316C155.839 83.1653 155.694 83.5991 155.521 84.0328C155.492 84.1485 155.434 84.2352 155.405 84.3509C155.579 83.8015 155.492 84.1196 155.434 84.2641C155.318 84.4955 155.232 84.7557 155.116 84.9871C154.335 86.6931 153.439 88.3125 152.369 89.874C152.08 90.3077 151.762 90.7415 151.444 91.1463C151.357 91.262 151.183 91.4066 151.53 91.0306C151.444 91.1463 151.328 91.262 151.241 91.3777C151.068 91.5801 150.923 91.7825 150.75 91.9849C150.084 92.7657 149.39 93.4886 148.639 94.2115C148.263 94.5585 147.887 94.9055 147.482 95.2525C147.28 95.426 147.048 95.5706 146.875 95.7441C147.251 95.3682 147.106 95.5706 146.962 95.6862C146.846 95.773 146.73 95.8597 146.586 95.9465C145.747 96.5537 144.851 97.1321 143.925 97.6237C143.116 98.0574 142.653 99.1852 142.942 100.082C143.058 100.429 143.231 100.776 143.492 101.036C143.81 101.383 144.532 101.73 145.024 101.672C146.961 101.441 148.899 101.325 150.836 101.383C151.791 101.412 152.716 101.47 153.67 101.556C153.901 101.585 154.162 101.614 154.393 101.643C154.567 101.672 155.434 101.788 154.682 101.672C155.174 101.759 155.665 101.817 156.157 101.903C158.037 102.221 159.916 102.684 161.738 103.262C162.663 103.552 163.589 103.87 164.485 104.246C164.687 104.332 164.861 104.39 165.063 104.477C165.179 104.535 165.295 104.564 165.41 104.621C164.803 104.39 165.208 104.535 165.352 104.593C165.815 104.795 166.249 104.997 166.712 105.2C168.475 106.038 170.182 106.964 171.801 108.005C172.611 108.525 173.391 109.046 174.143 109.624C174.346 109.769 174.548 109.913 174.75 110.058C174.837 110.145 174.953 110.202 175.04 110.289C174.577 109.942 174.779 110.087 174.895 110.174C175.329 110.521 175.734 110.839 176.138 111.186C177.584 112.4 178.972 113.73 180.245 115.118C180.91 115.841 181.546 116.593 182.182 117.374C182.298 117.547 182.442 117.692 182.558 117.865C182.095 117.316 182.645 117.981 182.731 118.126C183.021 118.53 183.31 118.935 183.599 119.34C184.813 121.104 185.912 122.955 186.838 124.863C187.069 125.355 187.3 125.846 187.503 126.309C187.676 126.714 187.3 125.817 187.474 126.251C187.532 126.396 187.589 126.569 187.647 126.714C187.734 126.945 187.821 127.177 187.907 127.408C188.312 128.449 188.659 129.519 188.948 130.589C189.267 131.688 190.51 132.468 191.609 132.092C192.129 131.919 192.65 131.601 192.91 131.109C193.199 130.56 193.228 130.039 193.141 129.432C193.141 129.403 193.055 128.854 193.112 129.201C193.17 129.548 193.084 129.027 193.084 128.998C193.055 128.796 193.026 128.593 192.997 128.391C192.939 127.928 192.881 127.466 192.852 127.003C192.794 126.28 192.737 125.557 192.708 124.834C192.679 123.706 192.708 122.55 192.679 121.422C192.679 120.005 192.592 118.617 192.447 117.2C192.332 116.13 192.187 115.06 192.043 113.99C191.956 113.354 191.869 112.718 191.782 112.053C191.753 111.937 191.753 111.822 191.725 111.706C191.638 111.157 191.782 112.053 191.725 111.706C191.696 111.388 191.638 111.099 191.609 110.781C191.349 108.728 191.117 106.646 191.059 104.564C191.031 103.494 191.03 102.453 191.117 101.383C191.146 100.891 191.175 100.371 191.262 99.8791C191.146 100.486 191.32 99.59 191.32 99.4743C191.378 99.1852 191.406 98.9249 191.464 98.6357C191.638 97.7393 191.898 96.8718 192.187 96.0332C192.303 95.6573 192.447 95.2814 192.592 94.9055C192.65 94.732 192.708 94.5585 192.794 94.4139C192.823 94.2983 192.881 94.2115 192.91 94.0958C193.113 93.6331 192.823 94.3272 192.91 94.1248C193.604 92.5922 194.385 91.1174 195.31 89.7294C195.57 89.3535 195.946 88.9487 196.178 88.5438C196.149 88.5727 195.86 88.9487 196.091 88.6595C196.178 88.5438 196.264 88.4571 196.351 88.3414C196.496 88.1679 196.64 87.9944 196.785 87.8209C197.392 87.1269 198.028 86.4618 198.722 85.8256C199.069 85.5076 199.445 85.1895 199.821 84.8714C200.11 84.6401 199.734 84.9581 199.706 84.9581C199.821 84.9003 199.908 84.7847 200.024 84.7268C200.226 84.5822 200.428 84.4377 200.602 84.2931C201.383 83.7437 202.192 83.281 203.06 82.8472C203.87 82.4424 204.332 81.2568 204.043 80.3893C203.725 79.4351 202.944 78.8567 201.961 78.7989C200.949 78.7411 199.937 78.6543 198.925 78.5387C198.693 78.5097 198.462 78.4808 198.231 78.4519C198.115 78.4519 197.999 78.3941 197.884 78.3941C198.462 78.3652 198.086 78.423 197.913 78.3941C197.392 78.3073 196.872 78.2495 196.38 78.1627C194.414 77.8157 192.476 77.382 190.597 76.8326C189.643 76.5434 188.717 76.2542 187.792 75.9072C187.358 75.7337 186.924 75.5891 186.462 75.4156C186.404 75.3867 185.797 75.1554 185.797 75.1554C185.883 75.1843 185.97 75.2421 186.057 75.2711C185.97 75.2421 185.883 75.1843 185.797 75.1554C185.681 75.0975 185.536 75.0397 185.421 74.9819C183.599 74.1722 181.864 73.2469 180.187 72.177C179.348 71.6276 178.51 71.0781 177.729 70.4709C177.642 70.4131 177.584 70.3552 177.497 70.2974C177.584 70.3841 177.989 70.6444 177.497 70.2974C177.324 70.1528 177.122 70.0082 176.948 69.8636C176.543 69.5456 176.167 69.1986 175.791 68.8516C175.068 68.1865 174.346 67.4925 173.681 66.7695C172.987 66.0177 172.379 65.208 171.714 64.4562C172.119 64.9189 171.627 64.3406 171.541 64.196C171.396 63.9936 171.252 63.8201 171.107 63.6177C170.789 63.1839 170.5 62.7502 170.211 62.3164C169.632 61.4489 169.112 60.5525 168.591 59.656C167.579 57.8632 166.683 56.0126 165.844 54.1041C165.815 54.0173 165.757 53.9306 165.728 53.8438C165.7 53.7571 165.642 53.6703 165.613 53.5835C165.728 53.8727 165.757 53.9016 165.671 53.6992C165.555 53.439 165.439 53.1498 165.324 52.8895C165.121 52.369 164.919 51.8486 164.716 51.3281C164.312 50.2581 163.907 49.1593 163.531 48.0894C162.75 45.8628 162.027 43.6362 161.304 41.4096C160.957 40.3397 159.772 39.5301 158.644 39.906C157.487 40.2241 156.678 41.3807 157.053 42.5374C159.656 50.663 162.374 59.0488 167.434 66.0177C170.008 69.5745 173.102 72.6396 176.746 75.1554C180.187 77.5266 184.033 79.3194 187.994 80.6206C192.505 82.0954 197.219 82.9051 201.961 83.1653C201.585 81.8062 201.238 80.4761 200.862 79.117C194.298 82.3846 189.729 88.8908 187.734 95.8598C186.52 100.111 186.577 104.535 187.069 108.872C187.213 110.087 187.358 111.272 187.532 112.487C187.56 112.776 187.618 113.036 187.647 113.325C187.676 113.441 187.676 113.557 187.705 113.672C187.792 114.222 187.647 113.325 187.705 113.701C187.792 114.251 187.85 114.829 187.936 115.379C188.139 117.085 188.341 118.791 188.37 120.497C188.399 121.798 188.37 123.099 188.399 124.4C188.457 126.454 188.688 128.507 188.977 130.56C190.365 130.184 191.753 129.779 193.17 129.403C190.944 121.538 186.317 114.424 180.245 109.017C174.172 103.581 166.654 99.6189 158.673 97.9706C154.22 97.0453 149.593 96.7562 145.082 97.3345C145.458 98.6936 145.805 100.024 146.181 101.383C153.294 97.4791 158.094 90.4523 160.61 82.8762C161.911 78.9435 162.49 74.8662 162.808 70.7311C163.184 66.1623 163.299 61.5935 163.126 57.0246C162.924 51.7907 162.374 46.5568 161.304 41.4385C161.073 40.3397 159.714 39.5879 158.644 39.9349C157.4 40.253 156.822 41.3518 157.053 42.5374Z" fill="#B8E451"/>
</g>
</g>
</g>
</svg>
