<svg width="268" height="293" viewBox="0 0 268 293" fill="none" xmlns="http://www.w3.org/2000/svg">
<path d="M85.2208 45.2422C83.916 48.3308 84.5516 51.1469 84.8045 54.4727C85.1462 58.9684 85.5299 63.4613 85.9359 67.9521C86.6633 75.9934 86.5624 85.1242 89.002 92.844C89.3009 93.7899 90.9443 93.7344 91.0222 92.6783C91.6208 84.5452 89.6167 75.8195 88.811 67.703C88.3655 63.2159 87.9539 58.726 87.5512 54.235C87.2548 50.9295 87.4408 48.0407 85.7012 45.2059C85.5939 45.031 85.3009 45.0535 85.2208 45.2422Z" fill="url(#paint0_linear_21618_2314)"/>
<path d="M106.629 58.332C103.655 63.7958 101.366 69.6658 98.5837 75.2384C95.8115 80.7915 92.3619 86.1405 89.9607 91.8511C89.4918 92.9664 91.0248 94.1504 91.825 93.0772C95.5824 88.0378 98.2811 82.0605 101.077 76.4483C103.889 70.8027 106.877 65.0623 108.828 59.0544C109.251 57.7509 107.226 57.2349 106.629 58.332Z" fill="url(#paint1_linear_21618_2314)"/>
<path d="M90.2165 94.0312C97.3309 92.6576 104.248 89.0762 110.856 86.179C117.579 83.2318 124.59 80.3946 130.877 76.5894C131.992 75.9147 131.045 74.0933 129.838 74.5667C122.738 77.3521 115.941 81.0385 108.939 84.0839C102.589 86.8455 95.6064 88.9458 89.6771 92.5298C88.9985 92.9401 89.4035 94.1886 90.2165 94.0312Z" fill="url(#paint2_linear_21618_2314)"/>
<path d="M235.247 35.5187C230.303 36.9001 226.391 40.3917 222.684 43.8077C217.446 48.6354 212.094 53.1876 206.44 57.5244C194.778 66.4704 183.095 75.3878 171.422 84.319C168.725 86.3829 166.027 88.4467 163.33 90.5101C159.808 93.2046 158.727 95.2896 155.104 92.1196C150.439 88.0389 145.444 84.3545 140.375 80.7947C129.597 73.2246 119.107 65.9066 109.136 57.2653C108.327 56.5647 106.94 57.7111 107.696 58.5562C121.649 74.1608 141.723 83.166 156.918 97.4938C157.34 97.8912 158.127 97.9403 158.591 97.5848C172.077 87.2661 185.564 76.9473 199.049 66.6284C205.438 61.7399 211.982 56.9927 218.07 51.7277C223.968 46.6267 229.033 41.3507 236.054 37.7559C237.393 37.0706 236.758 35.0965 235.247 35.5187Z" fill="url(#paint3_linear_21618_2314)"/>
<path d="M109.079 59.3742C129.672 54.717 150.234 51.179 171.119 48.1063C181.504 46.5784 191.891 45.0702 202.272 43.5197C212.204 42.036 222.643 41.0521 232.229 37.9475C232.303 37.9233 232.271 37.8241 232.202 37.8229C221.091 37.6053 209.688 39.9901 198.726 41.6034C188.342 43.1322 177.959 44.6732 167.575 46.2081C147.832 49.1263 127.46 51.3565 108.367 57.3987C107.046 57.8163 107.798 59.6637 109.079 59.3742Z" fill="url(#paint4_linear_21618_2314)"/>
<path d="M43.5561 28.3075C43.3298 28.0549 43.1041 27.8024 42.8779 27.5498C42.1203 26.7035 41.0487 27.9784 42.0007 28.5705C48.4665 32.5919 56.5259 34.7307 63.6146 37.4623C70.9002 40.2699 78.1704 43.1157 85.4261 45.9986C87.0593 46.6476 88.2649 44.1827 86.6236 43.5308C79.0223 40.5106 71.4069 37.5248 63.7699 34.5966C56.9136 31.9678 49.7102 28.3996 42.4313 27.2601C42.4089 27.7196 42.3871 28.1787 42.3648 28.6377C42.7381 28.578 43.1115 28.5179 43.4853 28.4583C43.5479 28.4479 43.6091 28.3662 43.5561 28.3075Z" fill="url(#paint5_linear_21618_2314)"/>
<path d="M84.5891 45.9179C96.7053 46.7017 109.349 45.07 121.469 44.4286C134.442 43.7423 147.416 43.056 160.39 42.3697C172.982 41.7037 185.574 41.0349 198.166 40.3574C210.686 39.6835 223.163 39.3897 235.661 38.9489C236.109 38.9332 236.137 38.2362 235.698 38.1642C224.538 36.3295 212.639 37.3006 201.401 37.8741C188.425 38.5368 175.45 39.2069 162.475 39.8816C149.882 40.5364 137.289 41.1917 124.696 41.8466C111.535 42.5313 97.6529 42.1412 84.6645 44.369C83.866 44.5066 83.6448 45.857 84.5891 45.9179Z" fill="url(#paint6_linear_21618_2314)"/>
<path d="M42.262 27.879C73.9758 30.5546 106.03 30.9664 137.823 32.4415C169.889 33.9297 201.955 35.6059 234.024 36.9179C233.779 36.2342 233.534 35.551 233.288 34.8672C232.688 35.3048 232.088 35.7429 231.488 36.1806C230.79 36.69 231.353 37.7509 232.167 37.5039C232.881 37.2877 233.595 37.0714 234.309 36.8551C235.323 36.5478 235.265 34.746 234.131 34.6872C202.745 33.0587 171.329 31.7845 139.928 30.3272C107.472 28.8213 74.8452 26.2046 42.3562 25.9269C41.2571 25.9183 41.1527 27.7854 42.262 27.879Z" fill="url(#paint7_linear_21618_2314)"/>
<path d="M76.6836 96.1209C76.0769 96.0088 75.5289 95.6206 75.2367 95.024C74.7462 94.0235 75.1598 92.8149 76.1607 92.3245L76.6878 92.0674C77.6921 91.5812 78.8986 92.0008 79.3831 93.0039C79.8685 94.0075 79.4493 95.2142 78.4467 95.6992L77.9357 95.948C77.5326 96.1468 77.0944 96.1968 76.6836 96.1209Z" fill="url(#paint8_linear_21618_2314)"/>
<path d="M217.793 283.054C216.936 282.895 216.249 282.189 216.154 281.278L216.036 280.11C215.926 279.001 216.736 278.013 217.845 277.904C218.95 277.793 219.941 278.603 220.051 279.713L220.168 280.86C220.283 281.969 219.478 282.961 218.37 283.076C218.173 283.097 217.979 283.088 217.793 283.054ZM217.003 273.783C216.119 273.619 215.424 272.876 215.358 271.938L215.279 270.771C215.206 269.659 216.048 268.698 217.16 268.625C218.27 268.553 219.232 269.394 219.306 270.505L219.385 271.658C219.462 272.77 218.623 273.734 217.511 273.811C217.337 273.823 217.167 273.813 217.003 273.783ZM216.393 264.495C215.512 264.333 214.817 263.593 214.749 262.658L214.661 261.509C214.574 260.398 215.403 259.427 216.515 259.34C217.624 259.25 218.597 260.082 218.684 261.193L218.773 262.363C218.855 263.475 218.02 264.441 216.909 264.523C216.732 264.536 216.559 264.526 216.393 264.495ZM215.528 255.229C214.678 255.072 213.994 254.377 213.891 253.474L213.755 252.333C213.62 251.226 214.406 250.22 215.512 250.084C216.62 249.949 217.625 250.735 217.761 251.841L217.9 253.014C218.027 254.121 217.233 255.121 216.126 255.249C215.921 255.272 215.72 255.264 215.528 255.229ZM66.6177 221.109C65.5393 220.909 64.8141 219.882 64.9943 218.796C65.1756 217.696 66.2142 216.952 67.3136 217.134C67.6825 217.195 68.0517 217.252 68.4216 217.304C69.5235 217.465 70.2917 218.484 70.1335 219.587C69.9752 220.691 68.9534 221.458 67.8505 221.299C67.4518 221.242 67.0537 221.181 66.6552 221.115C66.6428 221.113 66.6296 221.111 66.6177 221.109ZM58.7369 219.107C58.6354 219.089 58.5341 219.061 58.4334 219.026C58.0507 218.892 57.6703 218.753 57.2926 218.609C56.2513 218.211 55.7294 217.045 56.1266 216.004C56.5237 214.963 57.6938 214.444 58.7311 214.838C59.0747 214.969 59.4205 215.096 59.7688 215.218C60.8204 215.588 61.3739 216.738 61.0049 217.79C60.6718 218.741 59.6979 219.285 58.7369 219.107ZM75.8812 221.805C74.9501 221.633 74.2414 220.821 74.2325 219.839C74.2226 218.725 75.1174 217.813 76.2318 217.803C76.6057 217.8 76.9802 217.793 77.3537 217.782C78.4668 217.746 79.396 218.627 79.4279 219.741C79.4598 220.855 78.5823 221.784 77.4686 221.816C77.0686 221.827 76.6688 221.835 76.2684 221.838C76.1358 221.839 76.0065 221.828 75.8812 221.805ZM214.202 246.015C213.397 245.866 212.732 245.233 212.581 244.381C212.515 244.006 212.446 243.632 212.377 243.259C212.172 242.164 212.893 241.109 213.988 240.904C215.084 240.697 216.137 241.421 216.343 242.516C216.416 242.903 216.486 243.29 216.555 243.679C216.749 244.776 216.017 245.823 214.919 246.017C214.674 246.06 214.432 246.057 214.202 246.015ZM50.362 215.107C50.1229 215.063 49.8886 214.975 49.6691 214.84C49.3254 214.627 48.9844 214.411 48.6464 214.19C47.7136 213.581 47.4514 212.33 48.0604 211.398C48.6695 210.465 49.9211 210.203 50.8532 210.812C51.1625 211.014 51.4747 211.212 51.7897 211.406C52.7378 211.992 53.032 213.235 52.4462 214.183C51.9961 214.912 51.1572 215.254 50.362 215.107ZM85.1453 221.049C84.3215 220.896 83.6471 220.237 83.5162 219.362C83.3516 218.26 84.1117 217.233 85.214 217.069C85.587 217.013 85.9598 216.954 86.3324 216.893C87.4333 216.714 88.4697 217.459 88.6488 218.559C88.8285 219.659 88.0829 220.696 86.9833 220.876C86.5931 220.94 86.2018 221.001 85.8105 221.059C85.5828 221.093 85.3589 221.088 85.1453 221.049ZM94.254 219.187C93.5043 219.049 92.8657 218.49 92.6648 217.702C92.3884 216.622 93.04 215.523 94.1194 215.248C94.4872 215.154 94.854 215.058 95.2211 214.96C96.2963 214.673 97.404 215.312 97.6908 216.39C97.9783 217.466 97.3387 218.572 96.2617 218.859C95.881 218.961 95.4999 219.06 95.1187 219.158C94.8271 219.232 94.5333 219.239 94.254 219.187ZM42.9922 209.461C42.6259 209.394 42.2739 209.225 41.9818 208.951C41.6868 208.675 41.3956 208.397 41.1074 208.114C40.3114 207.334 40.2984 206.057 41.0779 205.261C41.8575 204.464 43.1356 204.449 43.9311 205.231C44.1974 205.492 44.4669 205.749 44.7391 206.005C45.5526 206.766 45.5951 208.043 44.8332 208.857C44.3455 209.378 43.6461 209.582 42.9922 209.461ZM212.215 236.93C211.472 236.793 210.837 236.242 210.631 235.463C210.533 235.096 210.433 234.73 210.332 234.365C210.033 233.291 210.66 232.178 211.733 231.879C212.809 231.581 213.919 232.207 214.219 233.281C214.325 233.662 214.429 234.044 214.531 234.427C214.817 235.505 214.176 236.609 213.099 236.895C212.8 236.975 212.5 236.983 212.215 236.93ZM103.175 216.553C102.474 216.423 101.864 215.926 101.624 215.201C101.275 214.143 101.849 213.002 102.907 212.652L103.992 212.288C105.045 211.93 106.193 212.493 106.552 213.548C106.912 214.603 106.348 215.749 105.293 216.108L104.174 216.484C103.84 216.593 103.498 216.612 103.175 216.553ZM36.8149 202.517C36.3309 202.428 35.8785 202.162 35.5616 201.736C35.3215 201.413 35.0853 201.086 34.8517 200.757C34.2073 199.849 34.4209 198.589 35.3304 197.944C36.2384 197.3 37.4984 197.514 38.1436 198.423C38.3597 198.728 38.5798 199.031 38.8027 199.331C39.4669 200.226 39.28 201.49 38.3852 202.154C37.9162 202.501 37.3466 202.615 36.8149 202.517ZM111.936 213.419C111.266 213.296 110.675 212.835 110.415 212.152C110.019 211.11 110.542 209.944 111.584 209.548L112.668 209.135C113.708 208.736 114.875 209.257 115.274 210.298C115.671 211.339 115.151 212.505 114.11 212.904L113.019 213.321C112.661 213.456 112.288 213.484 111.936 213.419ZM209.334 228.087C208.673 227.965 208.088 227.515 207.823 226.844C207.685 226.494 207.544 226.145 207.4 225.799C206.971 224.771 207.459 223.589 208.487 223.161C209.514 222.732 210.698 223.219 211.126 224.249C211.278 224.617 211.429 224.988 211.576 225.36C211.986 226.396 211.478 227.569 210.441 227.978C210.076 228.123 209.694 228.153 209.334 228.087ZM31.9138 194.613C31.3203 194.504 30.7821 194.13 30.4844 193.552C30.3005 193.194 30.1201 192.835 29.9438 192.473C29.4543 191.472 29.8688 190.263 30.87 189.774C31.8705 189.286 33.0799 189.7 33.5691 190.7C33.7341 191.037 33.9016 191.372 34.0733 191.705C34.5829 192.696 34.1934 193.913 33.2025 194.423C32.7891 194.635 32.3374 194.692 31.9138 194.613ZM120.602 210.019C119.944 209.897 119.361 209.452 119.094 208.785C118.68 207.751 119.181 206.576 120.216 206.161L121.298 205.728C122.332 205.313 123.508 205.814 123.922 206.848C124.338 207.883 123.835 209.058 122.801 209.472L121.718 209.907C121.35 210.055 120.965 210.086 120.602 210.019ZM129.254 206.585C128.584 206.462 127.994 206.002 127.733 205.32C127.336 204.278 127.858 203.113 128.899 202.715L129.996 202.301C131.039 201.911 132.201 202.438 132.593 203.483C132.985 204.526 132.455 205.689 131.412 206.08L130.338 206.486C129.979 206.622 129.606 206.651 129.254 206.585ZM205.284 219.721C204.729 219.619 204.22 219.286 203.911 218.76C203.722 218.439 203.529 218.121 203.334 217.805C202.746 216.858 203.037 215.615 203.984 215.027C204.931 214.439 206.175 214.73 206.762 215.677C206.975 216.02 207.183 216.366 207.388 216.713C207.953 217.674 207.634 218.911 206.673 219.476C206.237 219.733 205.745 219.806 205.284 219.721ZM28.3129 186.037C27.6144 185.907 27.0046 185.412 26.7639 184.69C26.637 184.31 26.5136 183.928 26.3936 183.545C26.0612 182.482 26.6537 181.349 27.7176 181.017C28.7817 180.686 29.9131 181.278 30.2451 182.341C30.3573 182.699 30.4728 183.057 30.5915 183.413C30.9442 184.47 30.3731 185.612 29.3159 185.965C28.9807 186.078 28.6373 186.096 28.3129 186.037ZM138.025 203.488C137.319 203.358 136.705 202.854 136.47 202.123C136.128 201.062 136.71 199.925 137.77 199.583L138.895 199.226C139.958 198.89 141.091 199.483 141.423 200.547C141.757 201.611 141.165 202.743 140.101 203.076L139.01 203.423C138.68 203.529 138.343 203.547 138.025 203.488ZM199.824 212.211C199.401 212.133 198.999 211.92 198.69 211.575C198.443 211.3 198.193 211.028 197.938 210.759C197.171 209.95 197.207 208.673 198.016 207.907C198.824 207.14 200.102 207.175 200.868 207.985C201.147 208.279 201.422 208.578 201.694 208.88C202.438 209.709 202.369 210.985 201.539 211.729C201.055 212.164 200.418 212.321 199.824 212.211ZM146.973 200.934C146.216 200.794 145.575 200.226 145.379 199.432C145.112 198.35 145.774 197.256 146.856 196.99C147.24 196.895 147.625 196.803 148.01 196.712C149.096 196.458 150.181 197.131 150.436 198.216C150.69 199.301 150.017 200.387 148.932 200.642C148.561 200.728 148.191 200.817 147.821 200.908C147.534 200.979 147.246 200.984 146.973 200.934ZM26.0359 177.019C25.2293 176.87 24.5625 176.234 24.4144 175.378C24.3462 174.984 24.2815 174.591 24.2197 174.197C24.0481 173.096 24.8013 172.064 25.9026 171.893C27.0022 171.718 28.0348 172.474 28.2068 173.576C28.2644 173.948 28.3262 174.32 28.3904 174.691C28.5803 175.789 27.844 176.833 26.7458 177.023C26.504 177.064 26.2645 177.062 26.0359 177.019ZM192.895 206.041C192.617 205.99 192.345 205.879 192.099 205.706C191.801 205.495 191.497 205.288 191.19 205.084C190.26 204.47 190.005 203.218 190.62 202.288C191.234 201.359 192.484 201.103 193.416 201.718C193.757 201.944 194.094 202.174 194.426 202.408C195.336 203.051 195.554 204.31 194.911 205.22C194.443 205.885 193.645 206.18 192.895 206.041ZM156.101 199.126C155.275 198.973 154.6 198.311 154.471 197.434C154.31 196.331 155.073 195.306 156.175 195.145C156.569 195.087 156.963 195.032 157.356 194.98C158.461 194.834 159.477 195.609 159.623 196.713C159.771 197.817 158.995 198.832 157.89 198.98C157.514 199.031 157.138 199.083 156.761 199.138C156.535 199.17 156.313 199.165 156.101 199.126ZM165.371 198.334C164.447 198.163 163.74 197.362 163.723 196.386C163.702 195.272 164.59 194.352 165.703 194.332C166.104 194.325 166.504 194.321 166.903 194.321C168.025 194.321 168.923 195.222 168.923 196.335C168.925 197.45 168.023 198.354 166.909 198.356C166.532 198.357 166.154 198.36 165.776 198.367C165.638 198.37 165.502 198.358 165.371 198.334ZM184.744 201.607C184.613 201.583 184.483 201.545 184.354 201.493C184.012 201.356 183.668 201.222 183.322 201.094C182.277 200.707 181.744 199.546 182.131 198.501C182.518 197.455 183.68 196.925 184.725 197.31C185.105 197.452 185.485 197.598 185.862 197.75C186.896 198.166 187.396 199.342 186.98 200.376C186.615 201.281 185.668 201.778 184.744 201.607ZM174.654 198.902C173.59 198.706 172.865 197.7 173.025 196.621C173.189 195.519 174.216 194.758 175.318 194.922C175.718 194.982 176.116 195.046 176.513 195.114C177.575 195.267 178.348 196.348 178.158 197.446C177.968 198.544 176.924 199.281 175.826 199.091C175.46 199.027 175.092 198.969 174.724 198.914C174.7 198.91 174.676 198.906 174.654 198.902ZM25.1282 167.766C24.2073 167.596 23.5012 166.799 23.4799 165.825C23.4711 165.423 23.4662 165.022 23.4658 164.622C23.4641 163.507 24.3655 162.603 25.48 162.601C26.5953 162.596 27.4991 163.501 27.5008 164.616C27.5015 164.989 27.506 165.363 27.5139 165.737C27.538 166.852 26.6548 167.774 25.541 167.799C25.3995 167.802 25.2619 167.79 25.1282 167.766ZM25.6638 158.487C24.6092 158.293 23.8845 157.3 24.0334 156.227C24.0884 155.829 24.1486 155.431 24.2119 155.034C24.3887 153.934 25.4241 153.186 26.5244 153.362C27.5733 153.543 28.3735 154.574 28.1962 155.675C28.1368 156.043 28.082 156.411 28.0303 156.78C27.8779 157.884 26.8589 158.655 25.7555 158.502C25.7252 158.498 25.6947 158.493 25.6638 158.487ZM27.6785 149.415C27.6075 149.402 27.5363 149.385 27.4653 149.364C26.3977 149.045 25.7904 147.92 26.1099 146.853C26.224 146.47 26.3418 146.089 26.4626 145.71C26.8006 144.648 27.9293 144.059 28.9977 144.399C30.0595 144.737 30.6461 145.872 30.308 146.934C30.1941 147.291 30.0838 147.649 29.9762 148.009C29.6781 149.005 28.6789 149.6 27.6785 149.415ZM30.9329 140.712C30.7763 140.683 30.6209 140.634 30.4687 140.567C29.4531 140.109 29.0004 138.914 29.4583 137.898C29.622 137.535 29.7892 137.173 29.9591 136.812C30.4322 135.805 31.6374 135.367 32.6437 135.845C33.6517 136.32 34.085 137.521 33.6107 138.53C33.4505 138.871 33.2929 139.213 33.1382 139.556C32.7481 140.42 31.8251 140.876 30.9329 140.712ZM35.2773 132.493C35.0421 132.45 34.8107 132.364 34.5937 132.231C33.6423 131.651 33.3414 130.41 33.9215 129.458C34.1284 129.119 34.3383 128.78 34.5501 128.444C35.1432 127.501 36.3875 127.215 37.3327 127.812C38.2753 128.405 38.5585 129.651 37.9648 130.594C37.7637 130.915 37.5638 131.236 37.3668 131.559C36.919 132.294 36.0764 132.641 35.2773 132.493ZM40.5681 124.842C40.261 124.785 39.9623 124.656 39.6986 124.451C38.8183 123.767 38.6592 122.499 39.3432 121.62C39.587 121.306 39.8327 120.993 40.0814 120.682C40.7787 119.812 42.049 119.672 42.918 120.367C43.7877 121.064 43.9286 122.334 43.2326 123.204C42.9959 123.5 42.7616 123.797 42.529 124.095C42.051 124.712 41.2855 124.975 40.5681 124.842ZM46.6556 117.806C46.281 117.737 45.9211 117.561 45.6263 117.277C44.8225 116.505 44.797 115.228 45.5692 114.425C45.8427 114.14 46.1179 113.856 46.3951 113.573C47.1766 112.778 48.453 112.768 49.2486 113.547C50.0439 114.328 50.0552 115.605 49.2744 116.401C49.007 116.672 48.7421 116.946 48.4783 117.22C47.9909 117.729 47.3002 117.925 46.6556 117.806ZM53.4104 111.407C52.9748 111.327 52.5622 111.102 52.2503 110.741C51.5223 109.897 51.6163 108.623 52.4598 107.895C52.7594 107.637 53.0606 107.38 53.3637 107.125C54.2165 106.406 55.4888 106.517 56.2064 107.367C56.9251 108.22 56.8163 109.492 55.9641 110.21C55.6733 110.456 55.3831 110.702 55.0959 110.95C54.6138 111.366 53.991 111.514 53.4104 111.407ZM60.7233 105.654C60.2291 105.563 59.7678 105.288 59.4513 104.848C58.8008 103.943 59.0077 102.682 59.9119 102.031C60.2333 101.801 60.5557 101.572 60.8793 101.344C61.7924 100.705 63.0501 100.926 63.6905 101.837C64.3301 102.749 64.1099 104.008 63.198 104.648C62.8861 104.867 62.5759 105.086 62.2679 105.309C61.8028 105.642 61.2444 105.751 60.7233 105.654ZM68.5042 100.554C67.9527 100.452 67.446 100.122 67.1365 99.6021C66.5663 98.6448 66.8806 97.406 67.8382 96.8364L68.8558 96.2359C69.8183 95.6745 71.0547 96.0015 71.6149 96.9633C72.1762 97.9263 71.8504 99.1611 70.8874 99.7224L69.9017 100.304C69.4647 100.564 68.9684 100.64 68.5042 100.554Z" fill="url(#paint9_linear_21618_2314)"/>
<path d="M218.915 291.771C218.096 291.62 217.424 290.967 217.288 290.097L217.199 289.519C217.029 288.418 217.785 287.388 218.886 287.218C219.986 287.048 221.017 287.804 221.187 288.905L221.275 289.475C221.447 290.577 220.693 291.608 219.592 291.779C219.361 291.817 219.132 291.811 218.915 291.771Z" fill="url(#paint10_linear_21618_2314)"/>
<defs>
<linearGradient id="paint0_linear_21618_2314" x1="102.969" y1="72.121" x2="80.7752" y2="68.0415" gradientUnits="userSpaceOnUse">
<stop stop-color="#9708CC"/>
<stop offset="1" stop-color="#43CBFF"/>
</linearGradient>
<linearGradient id="paint1_linear_21618_2314" x1="112.4" y1="78.0188" x2="93.1434" y2="74.4803" gradientUnits="userSpaceOnUse">
<stop stop-color="#9708CC"/>
<stop offset="1" stop-color="#43CBFF"/>
</linearGradient>
<linearGradient id="paint2_linear_21618_2314" x1="149.826" y1="91.5937" x2="91.5543" y2="81.0815" gradientUnits="userSpaceOnUse">
<stop stop-color="#9708CC"/>
<stop offset="1" stop-color="#43CBFF"/>
</linearGradient>
<linearGradient id="paint3_linear_21618_2314" x1="296.807" y1="85.1324" x2="108.71" y2="51.3106" gradientUnits="userSpaceOnUse">
<stop stop-color="#9708CC"/>
<stop offset="1" stop-color="#43CBFF"/>
</linearGradient>
<linearGradient id="paint4_linear_21618_2314" x1="292.59" y1="71.1785" x2="111.2" y2="39.16" gradientUnits="userSpaceOnUse">
<stop stop-color="#9708CC"/>
<stop offset="1" stop-color="#43CBFF"/>
</linearGradient>
<linearGradient id="paint5_linear_21618_2314" x1="114.079" y1="45.9037" x2="40.6371" y2="33.3365" gradientUnits="userSpaceOnUse">
<stop stop-color="#9708CC"/>
<stop offset="1" stop-color="#43CBFF"/>
</linearGradient>
<linearGradient id="paint6_linear_21618_2314" x1="313.11" y1="70.3058" x2="86.5606" y2="31.3457" gradientUnits="userSpaceOnUse">
<stop stop-color="#9708CC"/>
<stop offset="1" stop-color="#43CBFF"/>
</linearGradient>
<linearGradient id="paint7_linear_21618_2314" x1="336.484" y1="67.9157" x2="42.9114" y2="19.7169" gradientUnits="userSpaceOnUse">
<stop stop-color="#9708CC"/>
<stop offset="1" stop-color="#43CBFF"/>
</linearGradient>
<linearGradient id="paint8_linear_21618_2314" x1="81.9539" y1="94.868" x2="75.0916" y2="93.6215" gradientUnits="userSpaceOnUse">
<stop stop-color="#9708CC"/>
<stop offset="1" stop-color="#43CBFF"/>
</linearGradient>
<linearGradient id="paint9_linear_21618_2314" x1="350.68" y1="227.707" x2="21.7649" y2="168.305" gradientUnits="userSpaceOnUse">
<stop stop-color="#9708CC"/>
<stop offset="1" stop-color="#43CBFF"/>
</linearGradient>
<linearGradient id="paint10_linear_21618_2314" x1="223.603" y1="290.306" x2="217.156" y2="289.133" gradientUnits="userSpaceOnUse">
<stop stop-color="#9708CC"/>
<stop offset="1" stop-color="#43CBFF"/>
</linearGradient>
</defs>
</svg>
