<svg width="160" height="252" viewBox="0 0 160 252" fill="none" xmlns="http://www.w3.org/2000/svg">
<path d="M22.1794 228.057C21.9215 227.542 21.6636 227.156 21.4057 226.641C21.0189 225.997 20.761 225.354 20.3741 224.839C19.8583 224.066 19.3425 223.809 18.5688 223.809C15.0872 223.809 11.6055 223.809 8.25281 223.809C7.47911 223.809 6.96331 223.938 6.44751 224.839C5.80276 225.869 5.15801 227.027 4.51325 228.057C3.8685 229.344 3.0948 230.503 2.45005 231.79C2.3211 232.047 2.0632 232.305 1.93425 232.691C1.5474 233.335 1.16055 233.978 0.902651 234.622C0.902651 234.751 0.902651 234.751 0.902651 234.879C0.902651 235.008 0.902651 235.008 0.902651 235.137C1.5474 236.295 2.19215 237.583 2.8369 238.612C3.22375 239.256 3.6106 240.028 4.1264 240.801C4.51325 241.444 4.77115 241.959 5.15801 242.603C5.54486 243.247 5.93171 243.89 6.31856 244.663C6.83436 245.564 7.47911 245.95 8.38176 245.95L9.54231 245.049C9.28441 245.049 8.89756 245.049 8.63966 245.049C7.99491 245.049 7.47911 244.92 7.22121 244.148C6.83436 243.504 6.44751 242.732 6.06066 242.088C5.67381 241.444 5.41591 240.93 5.02906 240.286C4.6422 239.514 4.25535 238.87 3.73955 238.098C3.0948 237.068 2.45005 235.909 1.93425 234.751C2.19215 234.107 2.579 233.592 2.8369 233.077C2.96585 232.82 3.22375 232.562 3.3527 232.176C3.99745 230.889 4.77115 229.73 5.41591 228.443C6.06066 227.413 6.70541 226.255 7.35016 225.225C7.60806 224.71 7.86596 224.71 8.38176 224.71C10.0581 224.71 11.8634 224.71 13.5398 224.71C15.2161 224.71 17.0214 224.71 18.6978 224.71C19.2136 224.71 19.4715 224.839 19.7294 225.225C20.1162 225.869 20.5031 226.383 20.761 227.027C21.0189 227.542 21.2768 228.057 21.5347 228.443C22.0505 229.344 22.5663 230.245 23.0821 231.146C23.4689 231.79 23.8558 232.434 24.2426 233.077L24.8874 232.562C24.5005 231.919 24.1137 231.404 23.8558 230.76C23.211 229.859 22.6952 228.958 22.1794 228.057ZM77.1122 128.552C78.7885 128.552 80.4649 128.423 81.8833 128.423C83.3018 128.423 84.5913 128.423 86.0097 128.552C87.1703 128.68 87.815 128.165 88.4598 127.136C89.8782 124.561 91.2967 122.115 92.8441 119.669L93.4888 118.64C94.0046 117.867 94.0046 117.095 93.4888 116.194L92.8441 115.164C91.4256 112.718 89.8782 110.272 88.4598 107.698C87.944 106.668 87.2992 106.282 86.2676 106.282H86.1387C84.3334 106.282 82.3991 106.411 80.078 106.411C79.0464 106.411 77.8859 106.411 76.3385 106.282C75.4358 106.282 74.6621 106.539 74.2753 107.44C73.1147 109.5 71.9542 111.56 70.7936 113.491L69.762 115.293L70.4068 115.808L71.4384 114.005C72.5989 111.946 73.7595 109.886 74.92 107.955C75.1779 107.44 75.5648 107.312 76.2095 107.312C77.7569 107.44 78.9175 107.44 79.9491 107.44C82.2702 107.44 84.2044 107.44 86.0097 107.312C86.7834 107.312 87.1703 107.569 87.5571 108.213C88.9756 110.787 90.523 113.233 91.9414 115.679L92.5862 116.709C92.973 117.224 92.973 117.61 92.5862 118.253L91.9414 119.283C90.523 121.729 88.9756 124.304 87.5571 126.749C87.1703 127.393 86.7834 127.65 86.1387 127.65H86.0097C84.7202 127.522 83.3018 127.522 81.8833 127.522C80.7228 127.522 79.4333 127.522 78.2727 127.522L77.1122 128.552ZM0.12895 252L0.773701 251.485C0.515801 251.099 0.2579 250.713 0 250.198L0.12895 252ZM11.2187 196.519C11.6055 198.064 12.895 197.806 13.6687 197.806H13.9266C14.7003 197.678 14.9582 197.034 15.2161 196.648C15.2161 196.519 15.3451 196.39 15.3451 196.262C15.474 196.133 15.603 195.747 15.3451 195.232C15.0872 194.588 14.1845 193.816 13.6687 193.687C13.5398 193.687 13.4108 193.687 13.2819 193.687C11.6055 193.687 11.2187 195.103 10.9608 195.618C10.9608 195.747 10.9608 195.747 10.9608 195.875C10.9608 196.133 11.0897 196.39 11.2187 196.519ZM11.8634 195.618C12.2503 194.588 12.7661 194.331 13.6687 194.459C14.0556 194.459 14.8293 195.36 14.8293 195.618C14.7003 195.747 14.7003 196.004 14.5714 196.133C14.4424 196.519 14.3135 196.776 14.0556 196.776H13.7977C13.5398 196.776 13.2819 196.776 13.1529 196.776C12.7661 196.776 12.5082 196.648 12.3792 196.133C12.3792 196.004 12.2503 195.875 12.2503 195.747C11.8634 195.875 11.8634 195.747 11.8634 195.618C11.8634 195.747 11.8634 195.747 11.8634 195.618ZM48.2273 178.111C49.13 177.854 49.3879 176.953 49.5168 176.309V176.18C49.7747 175.408 48.6142 174.121 48.0984 173.863C47.9694 173.734 47.7115 173.734 47.4536 173.734C46.6799 173.734 45.9062 174.121 45.5194 174.764C45.5194 174.893 45.3904 174.893 45.3904 175.022C45.2615 175.279 45.0036 175.537 45.0036 175.923V176.052C44.8746 176.438 45.1325 176.695 45.2615 176.824C45.9062 178.111 46.9378 178.497 48.2273 178.111ZM45.9062 176.18C45.9062 176.052 46.0352 175.794 46.1641 175.665C46.1641 175.537 46.2931 175.537 46.2931 175.408C46.551 175.022 47.3247 174.764 47.8405 174.893C48.0984 175.022 48.7431 175.923 48.7431 176.052V176.18C48.6142 176.824 48.3563 177.21 47.9694 177.339C47.7115 177.468 47.5826 177.468 47.3247 177.468C46.8089 177.468 46.422 177.21 46.0352 176.566C46.0352 176.309 45.9062 176.309 45.9062 176.18ZM36.4929 172.576C36.3639 172.833 36.106 173.091 35.9771 173.477C35.5902 174.249 35.0744 175.022 34.6876 175.794C34.6876 175.923 34.6876 175.923 34.6876 176.052C34.6876 176.052 34.6876 176.052 34.6876 176.18C34.8165 176.953 35.2034 177.596 35.5902 178.111C35.7192 178.369 35.8481 178.626 36.106 178.755C36.6218 179.656 37.1376 180.428 37.5245 181.329C38.2982 182.617 39.0719 183.904 39.7166 185.191C40.6193 187.122 42.1667 187.251 43.7141 187.122C46.0352 186.993 48.4852 186.993 50.9353 187.122C51.5801 187.122 52.0958 187.122 52.7406 187.122H53.2564C53.7722 187.122 53.9012 186.736 54.0301 186.607V186.478C54.8038 185.32 55.4486 184.033 56.0933 182.874C56.7381 181.844 57.2539 180.686 57.8986 179.656C58.1565 179.398 58.2855 179.012 58.4144 178.626C58.6723 178.24 58.9302 177.725 59.1881 177.339C59.8329 176.438 59.8329 175.665 59.3171 174.764C58.1565 172.962 57.1249 171.031 55.9644 169.229L55.5775 168.457C55.1907 167.684 54.5459 166.783 54.1591 165.882C53.7722 165.11 52.9985 164.981 52.4827 164.981C48.8721 164.981 45.5194 164.981 42.1667 164.981C42.1667 164.981 42.1667 164.981 42.0377 164.981C41.0061 164.981 40.3614 165.367 39.9745 166.268C38.814 168.328 37.6534 170.388 36.4929 172.447V172.576ZM37.2666 173.091L37.3955 172.962C38.5561 170.902 39.7166 168.843 40.8772 166.783C41.264 166.14 41.5219 166.011 42.2956 166.011C43.843 166.011 45.5194 166.011 47.0668 166.011C48.8721 166.011 50.6774 166.011 52.4827 166.011C52.9985 166.011 53.1275 166.14 53.3854 166.526C53.9012 167.427 54.417 168.457 54.8038 169.229L55.1907 170.001C56.2223 171.932 57.3828 173.734 58.5434 175.665C58.9302 176.309 58.9302 176.695 58.4144 177.21C58.1565 177.596 57.8986 178.111 57.6407 178.497C57.5118 178.755 57.2539 179.141 57.1249 179.398C56.4802 180.428 55.8354 181.587 55.1907 182.617C54.5459 183.775 53.7722 185.062 53.1274 186.221L52.9985 186.35L52.8696 186.478H52.3538C51.709 186.478 51.1932 186.607 50.6774 186.478C48.2273 186.35 45.7773 186.35 43.4562 186.478C42.0377 186.607 41.0061 186.478 40.3614 185.062C39.7166 183.646 38.9429 182.359 38.1692 181.072C37.6534 180.299 37.1376 179.398 36.7508 178.626C36.6218 178.369 36.3639 178.111 36.235 177.854C35.8481 177.339 35.5902 176.953 35.4613 176.309C35.8481 175.537 36.235 174.893 36.6218 174.121C37.0087 173.606 37.1376 173.348 37.2666 173.091ZM81.7544 119.412H82.0123C82.786 119.283 83.0439 118.64 83.3018 118.253C83.3018 118.125 83.4307 117.996 83.4307 117.867C83.5597 117.739 83.6886 117.352 83.4307 116.837C83.1728 116.194 82.2702 115.421 81.7544 115.293C81.6254 115.293 81.4965 115.293 81.3675 115.293C79.6912 115.293 79.3043 116.709 79.0464 117.224C79.0464 117.352 79.0464 117.352 79.0464 117.481C79.0464 117.739 79.1754 117.996 79.3043 118.125L79.4333 118.253C79.6912 119.798 80.9807 119.541 81.7544 119.412ZM79.9491 117.352C80.3359 116.323 80.8517 116.065 81.7544 116.194C82.1412 116.194 82.9149 117.095 82.9149 117.352C82.786 117.481 82.786 117.739 82.657 117.867C82.5281 118.253 82.3991 118.511 82.1412 118.511H81.8833C81.6254 118.511 81.3675 118.511 81.2386 118.511C80.8517 118.511 80.5938 118.382 80.4649 117.867C80.4649 117.739 80.3359 117.61 80.3359 117.481C79.9491 117.61 79.8201 117.481 79.9491 117.352C79.9491 117.481 79.9491 117.481 79.9491 117.352ZM54.417 146.831C54.5459 146.573 54.6749 146.316 54.8038 146.058L52.2248 147.989C53.2564 147.989 53.9011 147.732 54.417 146.831ZM57.7697 100.103C57.6407 100.36 57.3828 100.747 57.2539 101.004C56.6091 102.034 56.0933 103.064 55.4486 104.094L56.0933 104.608C56.7381 103.579 57.2539 102.549 57.8986 101.519C58.1565 101.262 58.2855 100.875 58.4144 100.489C58.6723 100.103 58.9302 99.5881 59.1881 99.2019C59.8329 98.3008 59.8329 97.5285 59.3171 96.6274C58.1565 94.8252 57.1249 92.8943 56.0933 91.0922L55.5775 90.3198C55.1907 89.5475 54.5459 88.6464 54.1591 87.7453C53.7722 86.9729 52.9985 86.8442 52.4827 86.8442C49.2589 86.8442 45.7773 86.8442 42.1667 86.8442C42.1667 86.8442 42.1667 86.8442 42.0377 86.8442C41.0061 86.8442 40.3614 87.2304 39.9745 88.1315C39.4587 89.0326 38.9429 89.9336 38.4271 90.8347L39.0719 91.3496C39.5877 90.4485 40.1035 89.4187 40.6193 88.5177C41.0061 87.874 41.264 87.7453 42.0377 87.7453C43.7141 87.7453 45.2615 87.7453 46.9378 87.7453C48.8721 87.7453 50.6774 87.7453 52.3538 87.7453C52.8696 87.7453 52.9985 87.874 53.2564 88.2602C53.7722 89.1613 54.288 90.1911 54.6749 90.9635L55.1907 91.7358C56.2223 93.538 57.3828 95.4689 58.4144 97.271C58.8013 97.9147 58.8013 98.3008 58.2855 98.8158C58.2855 99.2019 58.0276 99.5881 57.7697 100.103ZM24.3716 79.5068L25.0163 80.0217L25.4032 79.2494C25.79 78.6057 25.79 77.8334 25.4032 77.1897C24.7584 76.1599 24.2426 75.2589 23.7268 74.229C23.211 73.328 22.6952 72.4269 22.0505 71.397C21.7926 70.8821 21.5347 70.496 21.2768 69.9811C20.8899 69.3374 20.632 68.6938 20.2452 68.1789C19.7294 67.4065 19.2136 67.1491 18.4399 67.1491C15.2161 67.1491 11.9924 67.1491 8.89756 67.1491L10.0581 68.0502C11.2187 68.0502 12.2503 68.0502 13.4108 68.0502C15.0872 68.0502 16.8925 68.0502 18.5688 68.0502C19.0846 68.0502 19.3425 68.1789 19.6004 68.5651C19.9873 69.2087 20.3741 69.7236 20.632 70.3673C20.8899 70.8822 21.1478 71.3971 21.4057 71.7832C21.9215 72.6843 22.4373 73.5854 22.9531 74.4865C23.4689 75.5163 24.1137 76.4174 24.6295 77.4472C24.8874 77.8334 24.8874 78.2196 24.6295 78.6057L24.3716 79.5068ZM0.773701 0.983782C1.2895 1.11251 1.5474 1.49869 1.8053 2.14232C1.93425 2.27105 1.93425 2.5285 2.0632 2.65723C2.579 3.55831 3.0948 4.45939 3.6106 5.4892C4.3843 6.77646 5.15801 8.19246 5.93171 9.60845C6.44751 10.6383 7.22121 11.0244 8.25281 11.0244C11.0897 10.8957 14.0556 11.0244 16.8925 11.0244H17.1504L15.9898 10.1234C13.4108 10.1234 10.8318 10.1234 8.12386 10.1234C7.35016 10.1234 6.96331 9.8659 6.57646 9.22227C5.80276 7.80628 5.02906 6.39029 4.25535 5.10303C3.73955 4.20194 3.22375 3.30085 2.70795 2.27104C2.8369 2.14232 2.70795 2.0136 2.70795 1.88487C2.45005 1.24124 2.0632 0.468878 1.0316 0.211426C0.773701 0.211426 0.515801 0.340156 0.515801 0.597609C0.38685 0.726335 0.515801 0.983782 0.773701 0.983782ZM79.5622 157.772L79.6912 157.901C80.207 158.545 81.4965 158.931 82.1412 158.673C82.9149 158.287 83.5597 157.515 83.5597 156.614C83.5597 155.842 83.0439 154.94 82.1412 154.554C81.8833 154.426 81.7544 154.426 81.4965 154.426C80.7228 154.426 79.9491 154.812 79.5622 155.455C79.4333 155.713 79.3043 155.841 79.1754 156.099L79.0464 156.356C79.0464 156.485 79.0464 156.485 79.0464 156.614V156.743C79.0464 157.129 79.3043 157.386 79.5622 157.772ZM79.9491 156.356C80.078 156.228 80.207 155.97 80.3359 155.842C80.5938 155.455 81.3675 155.198 81.8833 155.327C82.3991 155.584 82.786 156.099 82.786 156.614C82.786 157 82.5281 157.644 81.8833 157.901C81.7544 157.901 81.7544 157.901 81.6254 157.901C81.2386 157.901 80.7228 157.644 80.4649 157.386L80.3359 157.257C80.207 157 80.078 156.871 79.9491 156.614V156.356ZM1.8053 41.4038C2.45005 42.5624 3.0948 43.5922 3.6106 44.622C4.3843 46.038 5.28695 47.454 6.06066 48.9987C6.44751 49.8998 7.22121 50.2859 8.38176 50.2859C10.1871 50.1572 11.9924 50.1572 14.1845 50.1572C15.474 50.1572 16.7635 50.1572 17.9241 50.2859C19.0846 50.4147 19.7294 49.8998 20.3741 48.87C21.7926 46.2954 23.211 43.8496 24.7584 41.4038L25.4032 40.374C25.919 39.6017 25.919 38.8293 25.4032 37.9282L24.7584 36.8984C23.34 34.4526 21.7926 32.0068 20.3741 29.4323C19.8583 28.4025 19.2136 28.0163 18.182 28.0163H18.053C16.2477 28.0163 14.4424 28.145 11.9924 28.145C10.9608 28.145 9.80021 28.145 8.25281 28.0163C7.35016 28.0163 6.57646 28.2738 6.18961 29.1748C5.02905 31.2345 3.8685 33.1654 2.70795 35.225L0.902651 38.3144C0.773701 38.4431 0.773701 38.5719 0.773701 38.7006V38.8293C0.773701 38.958 0.773701 38.958 0.773701 39.0868V39.2155C0.902651 39.8591 1.16055 40.374 1.5474 40.7602C1.5474 41.0177 1.67635 41.2751 1.8053 41.4038ZM1.67635 39.0868C1.67635 38.958 1.67635 38.958 1.8053 38.8293L3.6106 35.7399C4.77115 33.6803 5.93171 31.7494 7.09226 29.6897C7.35016 29.1748 7.73701 29.0461 8.38176 29.0461C9.92916 29.1748 11.0897 29.1748 12.1213 29.1748C14.5714 29.1748 16.3767 29.1748 18.182 29.0461C18.9557 29.0461 19.3425 29.3036 19.7294 29.9472C21.1478 32.5217 22.5663 34.9675 24.1137 37.4133L24.7584 38.4431C25.1453 38.958 25.1453 39.3442 24.7584 39.9878L24.1137 41.0177C22.6952 43.4635 21.1478 46.038 19.7294 48.4838C19.3425 49.1274 18.9557 49.3849 18.3109 49.3849H18.182C16.8925 49.2561 15.603 49.2561 14.3135 49.2561C12.1213 49.2561 10.316 49.2561 8.38176 49.3849C7.60806 49.3849 7.22121 49.2561 6.96331 48.6125C6.18961 47.0678 5.28696 45.6518 4.51325 44.2358C3.8685 43.206 3.22375 42.0475 2.70795 41.0177C2.579 40.7602 2.45005 40.5028 2.3211 40.374C1.93425 39.9879 1.67635 39.6017 1.67635 39.0868ZM72.47 163.436L72.9858 164.337C73.3726 165.11 73.8884 165.882 74.2753 166.654C74.7911 167.427 75.3069 167.684 76.0806 167.684C79.5622 167.684 83.0439 167.684 86.3966 167.684C87.1703 167.684 87.6861 167.556 88.2019 166.654C89.1045 164.981 90.1361 163.308 91.0388 161.634C91.4256 160.991 91.8125 160.476 92.0704 159.832L93.3599 157.644C93.7467 157 93.7467 156.228 93.3599 155.584C92.7151 154.554 92.1993 153.653 91.6835 152.623C91.1677 151.722 90.6519 150.821 90.0072 149.791C89.7493 149.276 89.4914 148.89 89.2335 148.375C88.8466 147.732 88.5887 147.088 88.2019 146.573C87.6861 145.801 87.1703 145.672 86.3966 145.543C82.9149 145.543 79.4333 145.543 76.0806 145.543C75.3069 145.543 74.7911 145.672 74.2753 146.573C73.6305 147.603 72.9858 148.762 72.341 149.791C71.5673 151.079 70.9226 152.237 70.2778 153.524C70.1489 153.782 69.891 154.039 69.762 154.426C69.3752 155.069 68.9883 155.713 68.7304 156.356C68.7304 156.485 68.7304 156.485 68.7304 156.614C68.7304 156.743 68.7304 156.743 68.7304 156.871C69.5041 158.545 70.4068 160.089 71.3094 161.505C71.6963 162.02 72.0831 162.664 72.47 163.436ZM70.6647 154.812C70.7936 154.554 71.0515 154.297 71.1805 153.911C71.8252 152.623 72.5989 151.465 73.2437 150.178C73.8884 149.148 74.5332 147.989 75.1779 146.959C75.4358 146.444 75.6937 146.444 76.2095 146.444C77.8859 146.444 79.6912 146.444 81.3675 146.444C83.0439 146.444 84.8492 146.444 86.5255 146.444C87.0413 146.444 87.2992 146.573 87.5571 146.959C87.944 147.603 88.3308 148.118 88.5887 148.762C88.8466 149.276 89.1045 149.791 89.3624 150.178C89.8782 151.079 90.394 151.98 90.9098 152.881C91.4256 153.911 92.0704 154.812 92.5862 155.842C92.8441 156.228 92.8441 156.614 92.5862 157L91.2967 159.188C90.9098 159.832 90.523 160.347 90.2651 160.991C89.2335 162.664 88.3308 164.337 87.2992 166.011C87.0413 166.526 86.7834 166.526 86.2676 166.526C82.786 166.526 79.3043 166.526 75.9516 166.526C75.4358 166.526 75.1779 166.397 74.92 166.011C74.5332 165.238 74.0174 164.466 73.6305 163.694L73.1147 162.793C72.7279 162.149 72.341 161.377 71.9542 160.733C71.0515 159.317 70.2778 157.901 69.5041 156.356C69.891 155.97 70.2778 155.327 70.6647 154.812ZM2.19215 215.699C9.54231 215.828 17.0214 215.828 24.3716 215.699C24.3716 215.828 24.5005 215.957 24.5005 216.085C26.6927 219.947 29.0138 223.809 31.2059 227.671L31.8507 227.156C29.6585 223.294 27.4664 219.432 25.1453 215.699C25.0163 215.442 25.0163 215.184 25.1453 214.927C27.2085 211.451 29.2717 207.976 31.2059 204.5C32.1086 202.955 33.0112 201.411 33.9139 199.737C34.4297 198.836 34.9455 198.064 35.4613 197.163L36.106 196.133H58.2855L58.9302 197.163C59.446 198.064 59.9618 198.836 60.3487 199.737C60.9934 200.896 61.6382 201.926 62.2829 203.084L62.9277 202.569C62.2829 201.539 61.6382 200.381 61.1224 199.351C60.6066 198.45 60.0908 197.678 59.575 196.776L58.9302 195.747L61.1224 191.885C63.3145 188.023 65.6356 184.033 67.9567 180.171C68.0857 179.913 68.3436 179.527 68.4725 179.141C68.8594 178.369 69.2462 177.725 69.762 177.081C69.891 176.953 69.891 176.824 70.0199 176.695C77.3701 176.566 84.8492 176.566 92.1993 176.695C92.1993 176.824 92.3283 176.953 92.4572 177.081C92.8441 177.596 93.102 178.111 93.4888 178.626L94.1336 178.111C93.8757 177.596 93.4888 177.081 93.102 176.566C92.973 176.438 92.973 176.18 93.102 175.923C96.3257 170.516 99.8074 164.466 103.676 157.644C103.934 157.257 104.192 157.129 104.708 157.129C109.994 157.129 115.41 157.129 120.697 157.129L121.858 156.228C116.184 156.228 110.51 156.228 104.708 156.228C104.45 156.228 104.192 156.228 103.934 156.356L101.871 152.752C98.9047 147.603 95.9389 142.583 92.973 137.434C92.8441 137.176 92.8441 136.919 92.973 136.661C95.0362 133.186 97.0994 129.71 99.0337 126.234C99.9363 124.69 100.839 123.016 101.742 121.472C102.257 120.571 102.773 119.669 103.289 118.768L103.805 117.867H125.984L127.532 120.442C128.305 121.858 129.079 123.145 129.853 124.561C132.045 128.294 134.237 132.156 136.429 135.889C137.074 136.919 136.816 137.434 136.3 138.335C134.237 141.81 132.045 145.543 129.595 149.92L131.4 148.504C133.463 145.029 135.269 141.81 136.945 138.85C137.203 138.463 137.461 137.949 137.461 137.434C140.04 137.434 142.619 137.434 145.198 137.434L146.358 136.533C143.393 136.533 140.427 136.533 137.59 136.533C137.461 136.146 137.332 135.889 137.203 135.503C135.011 131.77 132.819 127.908 130.626 124.175C129.853 122.759 129.079 121.472 128.305 120.056L126.758 117.481L128.95 113.619C130.755 110.401 132.69 107.054 134.624 103.836L133.979 103.321C132.045 106.668 130.111 110.015 128.305 113.233L126.113 117.095H104.192L102 113.233C99.8074 109.371 97.4863 105.381 95.1652 101.519C95.0362 101.262 94.7784 100.875 94.6494 100.618C94.2626 99.8456 93.8757 99.2019 93.3599 98.4296C93.2309 98.3008 93.102 98.0434 93.3599 97.7859C96.5836 92.3794 99.9363 86.5868 103.934 79.5068C103.934 79.5068 103.934 79.3781 104.063 79.3781L103.418 78.8632C103.418 78.9919 103.289 78.9919 103.289 79.1206C99.2916 86.0718 95.9389 91.8645 92.7151 97.3998C92.5862 97.5285 92.5862 97.6572 92.5862 97.7859C88.8466 97.7859 85.236 97.6572 81.4965 97.6572C77.7569 97.6572 74.1463 97.6572 70.4068 97.7859C70.4068 97.6572 70.2778 97.5285 70.2778 97.3998C67.4409 92.6369 64.733 87.874 62.025 83.1112L60.0908 79.893C59.8329 79.5068 59.7039 79.2494 59.446 78.8632L59.3171 78.6057C59.446 78.477 59.7039 78.2196 59.8329 77.9621C63.7014 71.1396 66.7962 65.8618 69.762 60.8415C70.0199 60.4553 70.2778 59.9404 70.2778 59.4255C73.1147 59.4255 75.9516 59.4255 78.7885 59.4255L77.628 58.5244C75.1779 58.5244 72.7279 58.5244 70.2778 58.5244C70.1489 58.1382 70.0199 57.8808 69.891 57.4946C68.0857 54.4052 66.2804 51.3158 64.4751 48.2263L62.6698 46.8103C64.733 50.5434 66.9251 54.2765 69.2462 58.0095C69.891 59.0393 69.6331 59.5542 69.1173 60.4553C66.1514 65.4756 63.1856 70.7534 59.1881 77.5759C58.8013 78.0908 58.5434 78.3483 57.8986 78.3483C51.0642 78.3483 44.1009 78.3483 37.2666 78.3483C37.0087 78.3483 36.7508 78.3483 36.4929 78.477L34.3007 74.7439C31.3349 69.7236 28.498 64.7033 25.5321 59.683C25.4032 59.4255 25.4032 59.1681 25.5321 58.9106C27.5953 55.435 29.6585 51.9594 31.5928 48.4838C32.4954 46.9391 33.3981 45.3943 34.3007 43.7209C34.8165 42.8198 35.3323 42.0475 35.8481 41.1464L36.4929 40.1166H53.9012L52.7406 39.2155H36.106L33.9139 35.3537C31.7217 31.4919 29.4006 27.5014 27.0795 23.5109C26.9506 23.2534 26.6927 22.8673 26.5637 22.6098C26.1769 21.8374 25.79 21.1938 25.2742 20.4215C25.1453 20.2927 25.1453 20.164 25.2742 19.7778C25.5321 19.2629 25.79 18.8767 26.0479 18.3618L25.4032 17.8469C25.1453 18.3618 24.7584 18.8767 24.5005 19.3916C24.5005 19.5204 24.3716 19.5204 24.3716 19.6491C20.632 19.6491 17.0214 19.5204 13.2819 19.5204C9.54231 19.5204 5.93171 19.5204 2.19215 19.6491C2.19215 19.5204 2.0632 19.5204 2.0632 19.3916C1.41845 18.3618 0.773701 17.2033 0.12895 16.0448V17.8469C0.515801 18.4906 0.902651 19.1342 1.2895 19.7778C1.41845 20.0353 1.41845 20.164 1.2895 20.4215C0.902651 20.9364 0.515801 21.58 0.12895 22.2236V24.0258C0.12895 24.0258 0.12895 24.0258 0.12895 23.8971C0.2579 23.5109 0.515801 23.2534 0.644751 22.8672C1.0316 22.0949 1.41845 21.4513 1.93425 20.8076C2.0632 20.6789 2.0632 20.5502 2.19215 20.4215C9.54231 20.2927 17.0214 20.2927 24.3716 20.4215C24.3716 20.5502 24.5005 20.6789 24.6295 20.8076C25.1453 21.4513 25.5321 22.0949 25.919 22.8672C26.0479 23.2534 26.3058 23.5109 26.4348 23.8971C28.7559 27.7589 31.077 31.8781 33.2691 35.7399L35.4613 39.6017L34.8165 40.6315C34.3007 41.5326 33.7849 42.3049 33.2691 43.206C32.3665 44.7507 31.4638 46.2954 30.5612 47.9689C28.6269 51.4445 26.5637 54.9201 24.5005 58.3957C24.5005 58.5244 24.3716 58.6532 24.3716 58.7819C17.0214 58.9106 9.41336 58.9106 2.0632 58.7819C1.93425 58.3957 1.8053 58.1383 1.67635 57.7521C1.16055 56.9797 0.773701 56.0786 0.2579 55.3063V56.9797C0.515801 57.3659 0.644751 57.7521 0.902651 58.1383C1.5474 59.1681 1.2895 59.683 0.773701 60.5841C0.644751 60.8415 0.515801 60.9702 0.38685 61.2277L1.0316 61.7426C1.16055 61.4851 1.2895 61.2277 1.41845 61.0989C1.67635 60.7128 1.93425 60.1979 1.93425 59.683C9.28441 59.8117 16.8925 59.8117 24.2426 59.683C24.2426 59.8117 24.3716 59.9404 24.3716 60.0692C27.3374 65.0895 30.1743 70.1098 33.1402 75.1301L35.3323 78.8632C35.2034 78.9919 35.0744 79.1206 34.9455 79.3781C33.656 81.5664 32.4954 83.6261 31.3349 85.6857L31.9796 86.2006C33.1402 84.141 34.3007 82.0813 35.5902 79.893C35.8481 79.5068 36.106 79.3781 36.6218 79.3781C43.4562 79.3781 50.4195 79.3781 57.2539 79.3781C57.5118 79.3781 57.7697 79.3781 58.0276 79.2494L58.1565 79.5068C58.4144 79.893 58.5434 80.1504 58.8013 80.5366L60.7355 83.7548C63.4435 88.5177 66.2804 93.2805 68.9883 98.0434C69.1173 98.4296 69.1173 98.5583 68.9883 98.687C68.4725 99.3307 68.0857 100.103 67.6988 100.875C67.5699 101.133 67.312 101.519 67.183 101.776C65.5067 104.48 63.9593 107.312 62.4119 110.144H63.3145C64.9909 107.312 66.5383 104.48 68.2146 101.648C68.3436 101.39 68.6015 101.004 68.7304 100.618C69.1173 99.8456 69.5041 99.2019 70.0199 98.5583C70.1489 98.4296 70.1489 98.3008 70.2778 98.1721C77.628 98.0434 85.1071 98.0434 92.4572 98.1721C92.4572 98.3008 92.5862 98.4296 92.7151 98.5583C93.2309 99.2019 93.6178 99.8456 94.0046 100.618C94.1336 101.004 94.3915 101.262 94.5204 101.648C96.8415 105.51 99.1627 109.5 101.355 113.362L103.676 117.352L103.16 118.253C102.644 119.155 102.128 120.056 101.613 120.957C100.71 122.501 99.8074 124.175 98.9047 125.72C96.9705 129.195 94.9073 132.671 92.8441 136.146C92.8441 136.275 92.7151 136.404 92.7151 136.533C85.365 136.661 77.7569 136.661 70.4068 136.533C70.2778 136.146 70.1489 135.889 70.0199 135.503C69.891 135.245 69.762 135.117 69.6331 134.859L68.9883 135.374C69.1173 135.503 69.2462 135.76 69.3752 135.889C70.0199 136.919 69.762 137.434 69.2462 138.335C66.2804 143.355 63.3145 148.504 59.3171 155.455C58.9302 155.97 58.6723 156.228 58.0276 156.228C52.8696 156.228 47.7115 156.228 42.5535 156.228L41.393 157.129C46.9378 157.129 52.4827 157.129 58.0276 157.129C58.2855 157.129 58.5434 157.129 58.8013 157L58.9302 157.386C59.0592 157.772 59.3171 158.03 59.446 158.416L61.2513 161.634C63.9593 166.397 66.7962 171.16 69.6331 175.923C69.762 176.309 69.762 176.438 69.6331 176.566C69.1173 177.21 68.7304 177.982 68.3436 178.755C68.2146 179.012 67.9567 179.398 67.8278 179.656C65.5067 183.518 63.1856 187.508 60.9934 191.37L58.8013 195.232H36.106L33.9139 191.37C31.7217 187.508 29.4006 183.518 27.0795 179.527C26.9506 179.27 26.6927 178.884 26.5637 178.626C26.1769 177.854 25.79 177.21 25.2742 176.438C25.1453 176.309 25.1453 176.052 25.2742 175.794C27.4664 172.061 29.6585 168.199 32.2375 163.951L30.3033 165.367C28.2401 168.843 26.3058 172.19 24.5005 175.279C24.3716 175.408 24.3716 175.537 24.3716 175.665C22.0505 175.665 19.6004 175.665 17.2793 175.665L16.1188 176.566C18.8267 176.566 21.6636 176.566 24.3716 176.695C24.3716 176.824 24.5005 176.953 24.6295 177.081C25.1453 177.725 25.5321 178.369 25.919 179.141C26.0479 179.527 26.3058 179.785 26.4348 180.171C28.7559 184.161 31.077 188.152 33.2691 192.014L35.4613 195.875L34.8165 196.905C34.3007 197.806 33.7849 198.579 33.2691 199.48C32.3665 201.024 31.4638 202.569 30.5612 204.243C28.6269 207.718 26.5637 211.194 24.5005 214.669C24.5005 214.798 24.3716 214.927 24.3716 215.056C17.0214 215.184 9.54231 215.184 2.19215 215.056C2.19215 214.927 2.0632 214.798 2.0632 214.669C1.41845 213.64 0.773701 212.61 0.12895 211.451V213.125C0.515801 213.768 0.902651 214.412 1.2895 215.056C1.41845 215.313 1.5474 215.442 1.2895 215.828C0.902651 216.472 0.515801 217.115 0.12895 217.759V219.561C0.773701 218.402 1.41845 217.373 2.0632 216.343C2.0632 215.828 2.19215 215.828 2.19215 215.699ZM61.7671 160.991L59.9618 157.772C59.7039 157.386 59.575 157.129 59.446 156.743L59.1881 156.356C59.3171 156.228 59.575 155.97 59.7039 155.713C63.5724 148.89 66.6672 143.613 69.6331 138.592C69.891 138.206 70.1489 137.691 70.1489 137.176C77.499 137.305 85.1071 137.305 92.4572 137.176C92.4572 137.305 92.5862 137.434 92.5862 137.562C95.552 142.711 98.5179 147.732 101.484 152.881L103.547 156.485C103.418 156.614 103.289 156.743 103.16 157C99.2916 163.823 95.8099 169.744 92.5862 175.279C92.4572 175.408 92.4572 175.537 92.4572 175.665C88.7177 175.665 85.1071 175.537 81.3675 175.537C77.628 175.537 74.0174 175.537 70.2778 175.665C70.2778 175.537 70.1489 175.408 70.1489 175.279C67.312 170.645 64.4751 165.753 61.7671 160.991ZM11.2187 39.9878C11.6055 41.5326 12.895 41.2751 13.6687 41.2751H13.9266C14.7003 41.1464 14.9582 40.5028 15.2161 40.1166C15.2161 39.9879 15.3451 39.8591 15.3451 39.7304C15.474 39.6017 15.603 39.2155 15.3451 38.7006C15.0872 38.057 14.1845 37.2846 13.6687 37.1559C13.5398 37.1559 13.4108 37.1559 13.2819 37.1559C11.6055 37.1559 11.2187 38.5719 10.9608 39.0868C10.9608 39.2155 10.9608 39.2155 10.9608 39.3442C10.9608 39.6017 11.0897 39.8591 11.2187 39.9878ZM11.8634 39.0868C12.2503 38.057 12.7661 37.7995 13.6687 37.9282C14.0556 37.9282 14.8293 38.8293 14.8293 39.0868C14.7003 39.2155 14.7003 39.4729 14.5714 39.6017C14.4424 39.9878 14.3135 40.2453 14.0556 40.2453H13.7977C13.5398 40.2453 13.2819 40.2453 13.1529 40.2453C12.7661 40.2453 12.5082 40.1166 12.3792 39.6017C12.3792 39.4729 12.2503 39.3442 12.2503 39.2155C11.8634 39.3442 11.8634 39.2155 11.8634 39.0868C11.8634 39.2155 11.8634 39.2155 11.8634 39.0868ZM102.773 97.7859C102.902 98.687 103.289 99.3307 103.676 99.8456C103.805 100.103 103.934 100.36 104.192 100.618C104.707 101.519 105.223 102.291 105.61 103.192C106.384 104.48 107.158 105.767 107.802 107.054C108.705 108.985 110.252 109.114 111.8 108.985C114.121 108.856 116.571 108.856 119.021 108.985C119.666 108.985 120.182 108.985 120.826 108.985H121.342C121.858 108.985 121.987 108.599 122.116 108.47V108.342C122.889 107.183 123.534 105.896 124.308 104.737C124.953 103.707 125.468 102.549 126.113 101.519C126.371 101.262 126.5 100.875 126.629 100.489C126.887 100.103 127.145 99.5881 127.403 99.2019C127.661 98.8158 127.919 98.3008 127.919 97.9147L126.758 97.0136C126.758 97.0136 126.758 97.1423 126.887 97.1423C127.274 97.7859 127.274 98.1721 126.758 98.687C126.5 99.0732 126.242 99.5881 125.984 99.9743C125.855 100.232 125.597 100.618 125.468 100.875C124.824 101.905 124.179 103.064 123.534 104.094C122.889 105.252 122.116 106.539 121.471 107.698L121.342 107.827L121.213 107.955H120.697C120.053 107.955 119.537 108.084 119.021 107.955C116.571 107.827 114.121 107.827 111.8 107.955C110.381 108.084 109.35 107.955 108.705 106.539C108.06 105.123 107.287 103.836 106.513 102.549C105.997 101.776 105.481 100.875 105.094 100.103C104.965 99.8456 104.708 99.5881 104.579 99.3307C104.192 98.8158 103.934 98.4296 103.805 97.7859C104.192 97.0136 104.579 96.37 104.965 95.7263C105.094 95.4689 105.352 95.0827 105.481 94.8252V94.6965C106.642 92.6369 107.931 90.5773 109.092 88.5177C109.479 87.874 109.737 87.7453 110.51 87.7453C112.058 87.7453 113.476 87.7453 115.024 87.7453L113.863 86.8442C112.702 86.8442 111.671 86.8442 110.51 86.8442C110.51 86.8442 110.51 86.8442 110.381 86.8442C109.35 86.8442 108.705 87.2304 108.318 88.1315C107.158 90.1911 105.997 92.3794 104.836 94.3103V94.4391C104.707 94.6965 104.45 95.0827 104.321 95.3401C103.934 96.1125 103.418 96.8849 103.031 97.6572C102.773 97.6572 102.773 97.6572 102.773 97.7859ZM147.39 118.253C147.777 119.798 149.066 119.541 149.84 119.541H150.098C150.872 119.412 151.13 118.768 151.387 118.382C151.387 118.253 151.516 118.125 151.516 117.996C151.645 117.867 151.774 117.481 151.516 116.966C151.516 116.837 151.387 116.709 151.258 116.58L149.84 115.55H149.711C149.582 115.55 149.453 115.55 149.324 115.55C147.648 115.55 147.261 116.966 147.003 117.481C147.003 117.61 147.003 117.61 147.003 117.739C147.003 117.996 147.132 118.253 147.261 118.382C147.261 118.125 147.39 118.253 147.39 118.253ZM147.906 117.352C148.293 116.323 148.808 116.065 149.711 116.194C150.098 116.194 150.872 117.095 150.872 117.352C150.743 117.481 150.743 117.739 150.614 117.867C150.485 118.253 150.356 118.511 150.098 118.511H149.84C149.582 118.511 149.324 118.511 149.195 118.511C148.808 118.511 148.551 118.382 148.422 117.867C148.422 117.739 148.293 117.61 148.293 117.481C148.035 117.61 147.906 117.481 147.906 117.352C147.906 117.481 147.906 117.481 147.906 117.352ZM76.0806 67.2778C75.3069 67.2778 74.7911 67.4065 74.2753 68.3076C73.6305 69.3374 72.9858 70.496 72.47 71.5258C71.6963 72.813 71.0515 73.9716 70.2778 75.2588C70.1489 75.5163 69.891 75.7738 69.762 76.1599C69.3752 76.8036 68.9883 77.4472 68.7304 78.0908C68.7304 78.2196 68.7304 78.2196 68.7304 78.3483C68.7304 78.477 68.7304 78.477 68.7304 78.6057C69.5041 80.2792 70.4068 81.8239 71.3094 83.2399C71.6963 83.8835 72.0831 84.5271 72.47 85.2995L72.9858 86.2006C73.3726 86.9729 73.8884 87.7453 74.2753 88.5177C74.7911 89.29 75.3069 89.5475 76.0806 89.5475C79.5622 89.5475 83.0439 89.5475 86.3966 89.5475C87.1703 89.5475 87.6861 89.4187 88.2019 88.5177C89.1045 86.8442 90.1361 85.1708 91.0388 83.4973C91.4256 82.8537 91.8125 82.2101 92.0704 81.6952L93.3599 79.5068C93.7467 78.8632 93.7467 78.0908 93.3599 77.4472C92.7151 76.4174 92.1993 75.5163 91.6835 74.4865C91.1677 73.5854 90.6519 72.6843 90.0072 71.6545C89.7493 71.1396 89.4914 70.7534 89.2335 70.2385C88.8466 69.5949 88.5887 68.9513 88.2019 68.4364C87.6861 67.664 87.1703 67.4065 86.3966 67.4065C83.0439 67.2778 79.5622 67.2778 76.0806 67.2778ZM86.5255 68.1789C87.0413 68.1789 87.2992 68.3076 87.5571 68.6938C87.944 69.3374 88.3308 69.8523 88.5887 70.496C88.8466 71.0109 89.1045 71.5258 89.3624 71.912C89.8782 72.8131 90.394 73.7141 90.9098 74.6152C91.4256 75.645 92.0704 76.5461 92.5862 77.5759C92.8441 77.9621 92.8441 78.3483 92.5862 78.7345L91.2967 80.9228C90.9098 81.5664 90.523 82.2101 90.2651 82.725C89.2335 84.3984 88.3308 86.0719 87.4282 87.7453C87.1703 88.2602 86.9124 88.2602 86.3966 88.2602C82.9149 88.2602 79.4333 88.2602 76.0806 88.2602C75.5648 88.2602 75.3069 88.1315 75.049 87.7453C74.6621 86.9729 74.1463 86.2006 73.7595 85.4282L73.2437 84.5271C72.8568 83.8835 72.47 83.1112 72.0831 82.4675C71.1805 81.0515 70.4068 79.6356 69.6331 78.0908C69.891 77.4472 70.2778 76.9323 70.5357 76.4174C70.6647 76.1599 70.9226 75.9025 71.0515 75.5163C71.6963 74.229 72.47 73.0705 73.2437 71.7832C73.8884 70.7534 74.5332 69.5949 75.049 68.5651C75.3069 68.0502 75.5648 67.9215 76.0806 68.0502C77.7569 68.0502 79.5622 68.0502 81.2386 68.0502C83.0439 68.1789 84.7202 68.1789 86.5255 68.1789ZM47.5826 56.7223C47.4536 56.7223 47.1957 56.7223 47.0668 56.7223C45.7773 56.7223 45.3904 57.7521 45.0036 58.5244C45.0036 58.6532 45.0036 58.6532 45.0036 58.7819C45.0036 58.9106 45.0036 58.9106 45.0036 59.0393C45.6483 60.7128 45.9062 61.0989 47.4536 61.0989C47.9694 61.0989 48.4852 60.8415 48.8721 60.3266C49.2589 59.8117 49.5168 59.2968 49.5168 58.9106C49.5168 57.6233 48.4852 56.851 47.5826 56.7223ZM48.2273 59.5542C47.9694 59.8117 47.5826 60.0692 47.4536 60.0692C47.3247 60.0692 47.3247 60.0692 47.1957 60.0692C46.422 60.0692 46.2931 59.9404 45.9062 58.6532C46.2931 57.7521 46.551 57.3659 47.4536 57.4946C47.9694 57.6234 48.7431 58.1383 48.7431 58.6532C48.7431 58.9106 48.4852 59.2968 48.2273 59.5542ZM6.18961 185.706C5.02905 187.766 3.8685 189.696 2.70795 191.756L0.902651 194.846C0.773701 194.974 0.773701 195.103 0.773701 195.232V195.36C0.773701 195.489 0.773701 195.489 0.773701 195.618V195.747C0.902651 196.39 1.16055 196.905 1.5474 197.291C1.67635 197.549 1.8053 197.678 1.93425 197.935C2.579 199.094 3.22375 200.123 3.73955 201.153C4.51325 202.569 5.4159 203.985 6.18961 205.53C6.57646 206.431 7.35016 206.817 8.51071 206.817C10.445 206.688 12.2503 206.688 14.0556 206.688C15.474 206.688 16.7635 206.688 18.182 206.817C19.3425 206.946 19.9873 206.431 20.632 205.401C22.0505 202.827 23.4689 200.381 25.0163 197.935L25.6611 196.905C26.1769 196.133 26.1769 195.36 25.6611 194.459L25.0163 193.43C23.5979 190.984 22.0505 188.538 20.632 185.963C20.1162 184.934 19.4715 184.547 18.4399 184.547H18.3109C16.5056 184.547 14.7003 184.676 12.2503 184.676C11.2187 184.676 10.0581 184.676 8.51071 184.547C7.35016 184.547 6.70541 184.934 6.18961 185.706ZM11.9924 185.577C14.4424 185.577 16.2477 185.577 18.053 185.449C18.8267 185.449 19.2136 185.706 19.6004 186.35C21.0189 188.924 22.4373 191.37 23.9847 193.816L24.6295 194.846C25.0163 195.36 25.0163 195.747 24.6295 196.39L23.9847 197.42C22.5663 199.866 21.0189 202.44 19.6004 204.886C19.2136 205.53 18.8267 205.787 18.182 205.787H18.053C16.6346 205.659 15.3451 205.659 13.9266 205.659C12.1213 205.659 10.316 205.659 8.38176 205.787C7.60806 205.787 7.22121 205.659 6.96331 205.015C6.18961 203.47 5.28696 202.054 4.51325 200.638C3.8685 199.608 3.22375 198.45 2.70795 197.42C2.579 197.163 2.45005 196.905 2.3211 196.776C2.0632 196.39 1.8053 196.004 1.67635 195.618V195.489C1.67635 195.36 1.67635 195.36 1.8053 195.232L3.6106 192.142C4.77115 190.083 5.93171 188.152 7.09226 186.092C7.35016 185.577 7.73701 185.449 8.38176 185.449C9.80021 185.577 10.9608 185.577 11.9924 185.577ZM51.709 47.5827C49.5168 47.7114 47.3247 47.5827 45.1325 47.7114C44.7457 47.7114 44.3588 47.7114 43.843 47.7114C43.0693 47.7114 42.2956 47.5827 41.393 47.7114C41.0061 47.7114 40.6193 47.8402 40.3614 48.3551C38.9429 50.8009 37.5245 53.1179 36.3639 55.1776C36.235 55.5637 35.9771 55.8212 35.7192 56.2074C35.2034 56.9797 34.8165 57.6233 34.5586 58.5244V58.6532C34.5586 58.7819 34.5586 58.7819 34.5586 58.9106C35.3323 60.4553 36.235 62 37.0087 63.416C37.5245 64.3171 38.0403 65.2182 38.5561 66.1193C38.814 66.5055 39.0719 66.8916 39.2008 67.4065C39.4587 67.9215 39.7166 68.4364 40.1035 68.9513C40.4903 69.7236 41.264 69.8523 41.7798 69.8523C44.6167 69.8523 48.3563 69.8523 52.2248 69.8523C53.1275 69.8523 53.6433 69.5949 54.1591 68.6938C55.0617 67.1491 55.9644 65.6044 56.867 63.9309L57.8986 62.2575C58.0276 62 58.1565 61.7426 58.2855 61.4851C58.6723 60.8415 58.9302 60.3266 59.3171 59.8117C59.8329 59.1681 59.8329 58.3957 59.3171 57.6233C57.3828 54.6626 55.8354 51.7019 54.288 48.87C53.7722 47.8401 52.7406 47.7114 52.0958 47.7114C52.0958 47.5827 51.838 47.5827 51.709 47.5827ZM53.6433 49.2561C55.1907 52.2168 56.867 55.0488 58.6723 58.1383C58.9302 58.6532 58.9302 58.9106 58.6723 59.2968C58.2855 59.9404 57.8986 60.4553 57.6407 61.0989C57.5118 61.3564 57.3828 61.6139 57.2539 61.8713L56.2223 63.5448C55.3196 65.0895 54.417 66.6342 53.5143 68.3076C53.2564 68.8225 52.9985 68.9513 52.4827 68.9513C48.6142 68.9513 44.8746 68.9513 42.0377 68.9513C41.5219 68.9513 41.393 68.8225 41.1351 68.4364C40.8772 67.9215 40.6193 67.4065 40.2324 66.8916C39.9745 66.5055 39.7166 66.1193 39.5877 65.7331C39.0719 64.832 38.5561 63.9309 38.0403 63.0298C37.2666 61.6139 36.3639 60.1979 35.7192 58.7819C35.9771 58.0095 36.3639 57.4946 36.7508 56.851C37.0087 56.4648 37.1376 56.2074 37.3955 55.8212C38.5561 53.7616 39.8456 51.3158 41.393 48.9987C41.5219 48.7412 41.5219 48.7412 41.9088 48.7412C42.5535 48.6125 43.3272 48.6125 43.972 48.7412C44.3588 48.7412 44.7457 48.7412 45.1325 48.7412H45.2615C47.4536 48.7412 49.6458 48.7412 51.8379 48.6125C52.7406 48.4838 53.2564 48.4838 53.6433 49.2561ZM79.5622 79.5068L79.6912 79.6355C80.207 80.2792 81.4965 80.6653 82.1412 80.4079C82.9149 80.0217 83.5597 79.2494 83.5597 78.3483C83.5597 77.5759 83.0439 76.6748 82.1412 76.2887C81.8833 76.1599 81.7544 76.1599 81.4965 76.1599C80.7228 76.1599 79.9491 76.5461 79.5622 77.1897C79.4333 77.4472 79.3043 77.5759 79.1754 77.8334L79.0464 78.0908C79.0464 78.2196 79.0464 78.2196 79.0464 78.3483V78.477C79.0464 78.8632 79.3043 79.1206 79.5622 79.5068ZM79.9491 78.0908C80.078 77.9621 80.207 77.7046 80.3359 77.5759C80.5938 77.1897 81.3675 76.9323 81.8833 77.061C82.3991 77.3185 82.786 77.8334 82.786 78.3483C82.786 78.7345 82.5281 79.3781 81.8833 79.6355C81.7544 79.6355 81.7544 79.6355 81.6254 79.6355C81.2386 79.6355 80.7228 79.3781 80.4649 79.1206L80.3359 78.9919C80.207 78.7345 80.078 78.6057 79.9491 78.3483V78.0908ZM13.6687 232.691C13.5398 232.691 13.4108 232.691 13.1529 232.691C12.5082 232.691 11.6055 232.82 11.3476 233.978C11.3476 233.978 11.2187 234.107 11.2187 234.236C11.2187 234.365 11.0897 234.365 11.0897 234.493C11.0897 234.622 10.9608 234.622 11.0897 234.751V234.879C11.0897 235.008 11.2187 235.266 11.3476 235.394C11.3476 235.523 11.4766 235.523 11.4766 235.652C11.8634 237.068 13.024 236.81 13.6687 236.81C13.7977 236.81 13.9266 236.81 14.0556 236.81C14.9582 236.682 15.2161 235.909 15.474 235.394V235.266C15.603 234.879 15.474 234.365 15.2161 233.85C14.8293 233.335 14.3135 232.82 13.6687 232.691ZM14.5714 235.008C14.3135 235.523 14.1845 235.781 13.9266 235.781C13.7977 235.781 13.6687 235.781 13.4108 235.781C13.1529 235.781 13.024 235.909 12.895 235.909C12.5082 235.909 12.3792 235.78 12.2503 235.394C12.2503 235.266 12.1213 235.137 11.9924 235.008L11.8634 234.879C11.9924 234.751 12.1213 234.493 12.1213 234.365C12.2503 233.721 12.6371 233.592 13.5398 233.721C13.6687 233.721 14.0556 233.978 14.3135 234.365C14.4424 234.622 14.5714 234.879 14.4424 234.879L14.5714 235.008ZM48.4852 98.4296L49.13 98.9445C49.2589 98.687 49.3879 98.3009 49.5168 98.0434V97.9147C49.7747 97.1423 48.6142 95.855 48.0984 95.5976C47.9694 95.4689 47.7115 95.4689 47.4536 95.4689C46.8089 95.4689 46.1641 95.7263 45.7773 96.2412L46.422 96.7561C46.8089 96.4987 47.3247 96.2412 47.8405 96.37C48.0984 96.4987 48.7431 97.3998 48.7431 97.5285V97.6572C48.6142 98.0434 48.4852 98.3008 48.4852 98.4296ZM113.605 96.6274C113.605 96.7561 113.476 96.7561 113.476 96.8849C113.347 97.1423 113.089 97.3998 113.089 97.7859V97.9147C112.96 98.3008 113.218 98.5583 113.347 98.687C113.992 99.9743 115.024 100.36 116.313 99.9743C117.216 99.7169 117.474 98.8158 117.603 98.1721V98.0434C117.86 97.271 116.7 95.9838 116.184 95.7263C116.055 95.5976 115.797 95.5976 115.539 95.5976C114.766 95.5976 113.992 95.9838 113.605 96.6274ZM114.379 97.0136C114.637 96.6274 115.41 96.3699 115.926 96.4987C116.184 96.6274 116.829 97.5285 116.829 97.6572V97.7859C116.7 98.4296 116.442 98.8158 116.055 98.9445C115.797 99.0732 115.668 99.0732 115.41 99.0732C114.895 99.0732 114.508 98.8158 114.121 98.1721C114.121 98.0434 113.992 98.0434 113.992 97.9147V97.7859C113.992 97.6572 114.121 97.3998 114.25 97.271C114.25 97.271 114.25 97.1423 114.379 97.0136ZM115.539 134.859C115.41 134.859 115.152 134.859 115.024 134.859C113.734 134.859 113.347 135.889 112.96 136.661C112.96 136.79 112.96 136.79 112.96 136.919C112.96 137.047 112.96 137.047 112.96 137.176C113.605 138.85 113.863 139.236 115.41 139.236C115.926 139.236 116.442 138.978 116.829 138.463C117.216 137.949 117.474 137.434 117.474 137.047C117.603 135.889 116.571 135.117 115.539 134.859ZM116.313 137.82C116.055 138.077 115.668 138.335 115.539 138.335C115.41 138.335 115.41 138.335 115.281 138.335C114.508 138.335 114.379 138.206 113.992 136.919C114.379 136.018 114.637 135.631 115.539 135.76C116.055 135.889 116.829 136.404 116.829 136.919C116.7 137.176 116.571 137.562 116.313 137.82ZM76.3385 184.547C75.3069 184.547 74.6621 184.805 74.2753 185.706C73.1147 187.766 71.9542 189.696 70.7936 191.756L68.9883 194.974C68.8594 195.103 68.8594 195.232 68.8594 195.36V195.489C68.8594 195.618 68.8594 195.618 68.8594 195.747V195.875C68.9883 196.519 69.2462 197.034 69.6331 197.42V197.549L70.2778 197.034C70.0199 196.648 69.762 196.262 69.6331 195.875V195.747C69.6331 195.618 69.6331 195.618 69.762 195.489L71.5673 192.271C72.7279 190.211 73.8884 188.281 75.049 186.221C75.3069 185.706 75.6937 185.577 76.3385 185.577C77.8859 185.706 79.0464 185.706 80.078 185.706C81.8833 185.706 83.4307 185.706 84.7202 185.706L85.8808 184.805C84.2044 184.805 82.3991 184.934 80.078 184.934C78.9175 184.676 77.8859 184.676 76.3385 184.547ZM110.252 165.11C109.221 165.11 108.576 165.496 108.189 166.397C107.931 166.912 107.673 167.298 107.415 167.813L110.768 165.239C110.639 165.11 110.51 165.11 110.252 165.11ZM52.2248 204.114C52.0959 204.114 51.9669 204.114 51.8379 204.114C49.6458 204.243 47.4536 204.114 45.2615 204.243C44.8746 204.243 44.4878 204.243 43.972 204.243C43.1983 204.243 42.4246 204.114 41.5219 204.243C41.1351 204.243 40.7482 204.371 40.4903 204.886C39.0719 207.332 37.6534 209.649 36.4929 211.709C36.3639 212.095 36.106 212.352 35.8481 212.739C35.3323 213.511 34.9455 214.154 34.6876 215.056V215.184C34.6876 215.313 34.6876 215.313 34.6876 215.442C35.4613 216.986 36.3639 218.531 37.1376 219.947C37.5245 220.591 37.9113 221.234 38.2982 222.007L38.9429 221.492C38.5561 220.848 38.1692 220.205 37.7824 219.561C37.0087 218.145 36.106 216.729 35.4613 215.313C35.7192 214.669 36.106 214.026 36.4929 213.382C36.7508 212.996 36.8797 212.738 37.1376 212.352C38.2982 210.293 39.5877 207.847 41.1351 205.53C41.264 205.272 41.264 205.272 41.6509 205.272C42.2956 205.144 43.0693 205.144 43.7141 205.272C44.1009 205.272 44.4878 205.272 44.8746 205.272H45.0036C47.1957 205.272 49.3879 205.272 51.5801 205.144C52.4827 205.144 53.1275 205.144 53.3854 205.916C53.9012 206.946 54.417 207.847 55.0617 208.877L55.7065 208.362C55.1907 207.461 54.6749 206.431 54.1591 205.53C53.9012 204.243 52.8696 204.114 52.2248 204.114ZM137.59 119.026C137.719 119.283 137.848 119.412 137.977 119.669C138.621 120.828 139.266 121.858 139.782 122.888C140.556 124.304 141.458 125.72 142.232 127.264C142.619 128.165 143.393 128.552 144.553 128.552C146.487 128.423 148.293 128.423 150.098 128.423C151.516 128.423 152.806 128.423 154.224 128.552C155.385 128.68 156.03 128.165 156.674 127.136C157.448 125.591 158.351 124.046 159.253 122.63L158.609 122.115C157.706 123.66 156.803 125.205 155.901 126.749C155.514 127.393 155.127 127.65 154.482 127.65H154.353C153.064 127.522 151.645 127.522 150.227 127.522C148.422 127.522 146.616 127.522 144.682 127.65C143.908 127.65 143.521 127.522 143.264 126.878C142.49 125.333 141.587 123.917 140.814 122.501C140.169 121.472 139.524 120.313 139.008 119.283C138.879 119.026 138.75 118.768 138.621 118.64C138.363 118.253 138.106 117.867 137.977 117.481V117.352C137.977 117.224 137.977 117.224 138.106 117.095L139.911 114.005C140.814 112.461 141.716 110.916 142.49 109.371L141.845 108.856C140.942 110.401 140.04 111.946 139.137 113.619L137.332 116.709C137.203 116.837 137.203 116.966 137.203 117.095V117.224C137.203 117.352 137.203 117.352 137.203 117.481V117.61C136.816 118.125 137.203 118.64 137.59 119.026ZM42.2956 30.7196L39.5877 28.5312L39.7166 28.6599C40.3614 30.0759 41.264 30.5908 42.2956 30.7196ZM47.0668 213.125C45.7773 213.125 45.3904 214.154 45.0036 214.927C45.0036 215.056 45.0036 215.056 45.0036 215.184C45.0036 215.313 45.0036 215.313 45.0036 215.442C45.1325 215.828 45.2615 216.214 45.3904 216.472L46.0352 215.957C45.9062 215.828 45.9062 215.57 45.7773 215.313C46.1641 214.412 46.422 214.026 47.3247 214.154C47.5826 214.154 47.8405 214.283 47.9694 214.412L48.7431 213.897C48.3563 213.64 47.9694 213.382 47.4536 213.253C47.4536 213.125 47.1957 213.125 47.0668 213.125ZM127.145 135.245C127.016 134.988 126.887 134.859 126.758 134.602C126.113 133.572 125.597 132.413 124.953 131.384C124.05 129.968 123.276 128.423 122.503 127.007C121.987 125.977 120.955 125.72 120.31 125.72C120.182 125.72 119.924 125.72 119.795 125.72C118.247 125.848 116.7 125.848 115.281 125.848C114.508 125.848 113.863 125.848 113.089 125.848C112.702 125.848 112.316 125.848 111.929 125.848C111.155 125.848 110.51 125.72 109.608 125.848C109.221 125.977 108.834 125.977 108.576 126.492C107.931 127.65 107.158 128.809 106.513 129.968C105.868 131.126 105.223 132.156 104.579 133.314C104.321 133.572 104.192 133.958 104.063 134.344C103.805 134.73 103.547 135.245 103.289 135.631C102.644 136.533 102.644 137.305 103.16 138.206C104.321 140.008 105.352 141.939 106.384 143.741L106.9 144.514C107.415 145.286 107.931 146.187 108.318 147.088C108.705 147.86 109.479 147.989 109.994 147.989C113.089 147.989 116.7 147.989 120.31 147.989C121.342 147.989 121.987 147.603 122.503 146.702C123.276 145.286 124.05 143.87 124.953 142.454L126.113 140.394C126.242 140.137 126.5 139.751 126.629 139.493C127.145 138.721 127.532 137.949 127.919 137.176C127.919 137.047 127.919 137.047 127.919 136.919V136.79C127.79 136.275 127.403 135.76 127.145 135.245ZM125.855 139.107C125.726 139.365 125.468 139.751 125.34 140.008L124.179 142.068C123.405 143.484 122.503 144.9 121.729 146.316C121.342 146.959 121.084 147.088 120.31 147.088C116.829 146.959 113.218 147.088 109.994 147.088C109.479 147.088 109.35 146.959 109.092 146.573C108.576 145.672 108.06 144.771 107.673 143.87L107.158 143.098C106.126 141.295 104.965 139.365 103.934 137.562C103.547 136.919 103.547 136.533 104.063 136.018C104.321 135.631 104.579 135.117 104.836 134.73C104.965 134.473 105.223 134.087 105.352 133.829C105.997 132.671 106.642 131.512 107.287 130.482C107.931 129.324 108.576 128.165 109.221 127.136C109.35 126.878 109.35 126.878 109.737 126.878C110.381 126.749 111.026 126.749 111.8 126.878C112.187 126.878 112.573 126.878 112.96 126.878C113.734 126.878 114.379 126.878 115.152 126.878C116.7 126.878 118.247 126.878 119.795 126.749C120.697 126.749 121.342 126.749 121.6 127.522C122.374 129.066 123.276 130.611 124.05 132.027C124.695 133.057 125.34 134.087 125.855 135.245C125.984 135.503 126.113 135.76 126.242 135.889C126.5 136.275 126.758 136.661 126.887 137.047C126.758 137.691 126.242 138.335 125.855 139.107Z" fill="white"/>
</svg>
