<svg width="222" height="350" viewBox="0 0 222 350" fill="none" xmlns="http://www.w3.org/2000/svg">
<path opacity="0.1" d="M190.611 33.2114C190.997 33.855 191.384 34.4986 191.771 35.1423C192.287 36.0434 192.803 36.8157 193.318 37.7168C193.963 38.8753 194.737 39.1328 195.769 39.0041C200.54 39.0041 205.311 39.0041 210.082 39.0041C211.114 39.0041 211.887 38.7466 212.532 37.5881C213.435 36.0434 214.208 34.6274 215.111 33.0827C216.143 31.4092 217.045 29.7358 218.077 27.9336C218.335 27.5474 218.593 27.1612 218.722 26.7751C219.237 25.874 219.753 24.9729 220.14 24.0718C220.14 23.9431 220.269 23.8144 220.14 23.6856C220.14 23.5569 220.14 23.4282 220.14 23.2995C219.366 21.626 218.335 19.9526 217.432 18.4079C216.916 17.378 216.272 16.477 215.756 15.4472C215.24 14.5461 214.853 13.7737 214.337 13.0014C213.822 12.1003 213.177 11.1992 212.661 10.1694C212.016 9.01084 211.114 8.36721 209.824 8.36721L208.277 9.65447C208.664 9.65447 209.179 9.65447 209.566 9.65447C210.469 9.52574 211.114 9.91192 211.629 10.813C212.145 11.8428 212.661 12.7439 213.306 13.645C213.822 14.4173 214.337 15.3184 214.724 16.0908C215.24 17.1206 215.885 18.1504 216.401 19.0515C217.303 20.5962 218.206 22.1409 218.98 23.6856C218.593 24.458 218.077 25.2304 217.69 26.0027C217.432 26.3889 217.174 26.7751 217.045 27.1612C216.014 28.8347 215.111 30.5081 214.079 32.3103C213.177 33.855 212.403 35.271 211.5 36.8157C211.114 37.4593 210.856 37.5881 210.082 37.5881C207.761 37.5881 205.311 37.5881 202.861 37.5881C200.411 37.5881 198.09 37.5881 195.64 37.5881C194.866 37.5881 194.608 37.4593 194.221 36.8157C193.705 36.0434 193.19 35.1423 192.803 34.3699C192.416 33.7263 192.029 33.0827 191.642 32.3103C190.868 31.023 190.095 29.7358 189.45 28.4485C188.934 27.5474 188.418 26.6463 187.903 25.7453L186.871 26.5176C187.387 27.4187 187.903 28.1911 188.289 29.0921C189.192 30.7656 189.837 32.0528 190.611 33.2114ZM114.272 171.335C111.951 171.463 109.759 171.463 107.567 171.463C105.632 171.463 103.698 171.463 101.893 171.335C100.345 171.206 99.3138 171.85 98.5401 173.266C96.6059 176.741 94.5427 180.217 92.4795 183.692L91.7058 185.108C91.061 186.267 91.061 187.297 91.7058 188.455L92.6084 189.871C94.6716 193.218 96.7348 196.694 98.6691 200.298C99.4428 201.714 100.345 202.229 101.764 202.229C101.893 202.229 101.893 202.229 102.022 202.229C104.472 202.1 107.18 202.1 110.404 202.1C111.822 202.1 113.498 202.1 115.562 202.229C116.851 202.229 117.883 201.843 118.398 200.684C119.946 197.852 121.622 195.02 123.299 192.188L124.717 189.743L123.685 188.97L122.267 191.545C120.591 194.377 119.043 197.209 117.367 200.041C116.98 200.684 116.464 200.942 115.562 200.942C113.498 200.813 111.822 200.813 110.404 200.813C107.18 200.813 104.472 200.813 102.022 200.942C100.861 200.942 100.345 200.684 99.8296 199.654C97.8954 196.179 95.8322 192.575 93.769 189.228L92.9953 187.812C92.4795 187.039 92.4795 186.524 92.9953 185.752L93.769 184.336C95.8322 180.989 97.8954 177.385 99.8296 173.909C100.345 173.008 100.861 172.622 101.764 172.622C101.893 172.622 101.893 172.622 102.022 172.622C103.956 172.751 105.89 172.751 107.696 172.751C109.372 172.751 111.048 172.751 112.725 172.622L114.272 171.335ZM221.043 0L220.011 0.772358C220.398 1.28726 220.656 1.93089 221.043 2.4458V0ZM205.698 77.107C205.053 75.0474 203.377 75.3049 202.345 75.4336H201.958C200.798 75.5623 200.411 76.4634 200.153 77.107C200.024 77.2358 200.024 77.4932 199.895 77.6219C199.766 77.8794 199.637 78.2656 199.895 79.0379C200.282 79.939 201.442 81.0976 202.345 81.2263C202.603 81.2263 202.732 81.2263 202.99 81.2263C205.182 81.2263 205.956 79.2954 206.213 78.6518C206.213 78.523 206.213 78.523 206.213 78.3943C206.213 78.0081 206.085 77.6219 205.956 77.4932C205.698 77.2358 205.698 77.107 205.698 77.107ZM204.924 78.2656C204.408 79.6816 203.763 80.0677 202.474 79.939C201.958 79.8103 200.927 78.6518 200.927 78.2656C201.055 78.0081 201.184 77.7507 201.313 77.4932C201.571 76.8496 201.7 76.5921 202.087 76.5921H202.474C202.861 76.5921 203.119 76.4634 203.377 76.4634C204.021 76.4634 204.279 76.7209 204.537 77.3645C204.537 77.6219 204.666 77.7507 204.795 77.8794C204.795 78.0081 204.924 78.1368 204.924 78.2656C204.924 78.1368 204.924 78.1368 204.924 78.2656ZM154.504 102.466C153.344 102.852 152.957 104.011 152.699 104.912V105.041C152.441 106.07 153.989 108.001 154.633 108.259C154.891 108.388 155.149 108.388 155.536 108.388C156.568 108.388 157.728 107.873 158.244 106.972C158.244 106.843 158.373 106.843 158.373 106.714C158.631 106.328 158.889 105.942 159.018 105.427V105.298C159.147 104.783 158.889 104.397 158.631 104.268C157.599 102.595 156.31 101.951 154.504 102.466ZM157.728 105.298C157.728 105.556 157.47 105.813 157.341 106.07C157.212 106.199 157.212 106.328 157.083 106.457C156.697 106.972 155.665 107.358 155.02 107.1C154.633 106.972 153.86 105.684 153.86 105.427V105.298C154.118 104.397 154.376 103.882 154.891 103.753C155.149 103.625 155.536 103.625 155.665 103.625C156.439 103.625 156.955 104.011 157.47 104.912C157.47 105.041 157.599 105.041 157.728 105.169V105.298ZM170.623 110.19C170.881 109.804 171.139 109.417 171.268 109.031C171.913 108.001 172.558 106.972 173.073 105.813C173.073 105.684 173.202 105.556 173.073 105.427V105.298C172.944 104.14 172.429 103.367 171.784 102.595C171.526 102.337 171.397 101.951 171.139 101.565C170.494 100.407 169.85 99.248 169.076 98.0894C168.044 96.2873 166.884 94.4851 166.11 92.6829C164.82 89.9797 162.628 89.8509 160.565 89.9797C157.341 90.1084 153.989 90.1084 150.636 89.9797C149.733 89.9797 148.96 89.9797 148.186 90.1084H147.541C146.896 90.1084 146.639 90.6233 146.381 90.8808L146.252 91.0095C145.22 92.6829 144.188 94.3564 143.286 96.0298C142.512 97.4458 141.609 98.9905 140.707 100.407C140.449 100.793 140.191 101.308 139.933 101.694C139.546 102.337 139.288 102.852 138.902 103.367C137.999 104.526 137.999 105.684 138.773 106.843C140.32 109.417 141.867 111.992 143.286 114.566L143.931 115.596C144.575 116.626 145.22 117.913 145.994 119.201C146.639 120.359 147.541 120.488 148.315 120.488C153.344 120.488 157.986 120.359 162.499 120.488H162.628C164.047 120.488 164.82 119.973 165.465 118.814C167.013 115.982 168.689 113.15 170.365 110.19H170.623ZM169.592 109.546L169.463 109.804C167.786 112.635 166.239 115.467 164.563 118.428C164.047 119.201 163.66 119.458 162.628 119.458C160.436 119.458 158.244 119.458 155.923 119.458C153.473 119.458 151.023 119.458 148.315 119.458C147.67 119.458 147.283 119.329 147.154 118.814C146.51 117.527 145.736 116.24 145.091 115.081L144.446 114.051C142.899 111.477 141.481 108.902 139.933 106.328C139.417 105.556 139.417 104.912 140.062 104.14C140.449 103.496 140.836 102.852 141.094 102.337C141.352 101.951 141.609 101.436 141.867 101.05C142.77 99.6341 143.673 98.0894 144.446 96.6734C145.349 95 146.381 93.3266 147.412 91.7818L147.541 91.6531C147.541 91.5244 147.67 91.3957 147.67 91.3957H148.315C149.089 91.3957 149.862 91.2669 150.636 91.2669C154.118 91.3957 157.47 91.3957 160.694 91.2669C162.628 91.1382 164.047 91.2669 165.078 93.3266C165.981 95.2574 167.013 97.0596 168.173 98.8618C168.818 100.02 169.592 101.179 170.236 102.337C170.494 102.724 170.752 103.11 170.881 103.496C171.397 104.14 171.784 104.783 171.913 105.556C171.397 106.585 170.881 107.615 170.236 108.516C170.107 108.774 169.85 109.16 169.592 109.546ZM107.954 183.95H107.567C106.406 184.079 106.019 184.98 105.761 185.623C105.632 185.752 105.632 186.009 105.503 186.138C105.374 186.396 105.246 186.782 105.503 187.554C105.89 188.455 107.051 189.614 107.954 189.743C108.211 189.743 108.34 189.743 108.598 189.743C110.79 189.743 111.564 187.812 111.822 187.168C111.822 187.039 111.822 187.039 111.822 186.911C111.822 186.524 111.693 186.138 111.564 186.009C111.564 185.881 111.435 185.881 111.435 185.752C110.79 183.435 109.114 183.692 107.954 183.95ZM110.533 186.782C110.017 188.198 109.372 188.584 108.082 188.455C107.567 188.327 106.535 187.168 106.535 186.782C106.664 186.524 106.793 186.267 106.922 186.009C107.18 185.366 107.309 185.108 107.696 185.108H108.082C108.469 185.108 108.727 184.98 108.985 184.98C109.63 184.98 109.888 185.237 110.146 185.881C110.146 186.138 110.275 186.267 110.404 186.396C110.404 186.524 110.533 186.653 110.533 186.782C110.533 186.653 110.533 186.653 110.533 186.782ZM145.865 145.976C145.607 146.362 145.478 146.748 145.22 147.005L148.702 144.302C147.412 144.302 146.51 144.817 145.865 145.976ZM141.223 210.725C141.481 210.339 141.738 209.824 141.996 209.438C142.899 208.022 143.673 206.606 144.446 205.19L143.415 204.417C142.641 205.833 141.738 207.378 140.836 208.794C140.578 209.18 140.32 209.695 140.062 210.081C139.675 210.725 139.417 211.24 139.03 211.755C138.128 212.913 138.128 214.072 138.902 215.23C140.449 217.805 141.996 220.379 143.415 222.954L144.06 223.984C144.704 225.014 145.349 226.301 146.123 227.588C146.767 228.747 147.67 228.875 148.444 228.875C152.828 228.875 157.728 228.747 162.628 228.875H162.757C164.176 228.875 164.949 228.36 165.594 227.202C166.239 225.915 167.013 224.756 167.786 223.469L166.755 222.696C165.981 223.984 165.207 225.271 164.563 226.558C164.047 227.331 163.66 227.717 162.628 227.588C160.436 227.588 158.115 227.588 155.923 227.588C153.344 227.588 150.765 227.588 148.444 227.588C147.799 227.588 147.412 227.459 147.283 226.944C146.639 225.657 145.865 224.37 145.22 223.211L144.575 222.182C143.028 219.607 141.609 217.033 140.062 214.458C139.546 213.686 139.546 213.042 140.191 212.27C140.449 212.012 140.836 211.369 141.223 210.725ZM187.516 239.302L186.484 238.53L185.839 239.56C185.324 240.461 185.324 241.491 185.839 242.392C186.613 243.808 187.387 245.095 188.289 246.511C189.063 247.798 189.708 249.085 190.482 250.373C190.868 251.016 191.255 251.66 191.642 252.304C192.158 253.205 192.674 253.977 193.19 254.878C193.834 256.037 194.608 256.294 195.64 256.165C200.024 256.165 204.537 256.165 208.921 256.165L207.374 254.878C205.827 254.878 204.279 254.878 202.861 254.878C200.411 254.878 198.09 254.878 195.64 254.878C194.866 254.878 194.608 254.749 194.221 254.106C193.705 253.333 193.19 252.432 192.803 251.66C192.416 251.016 192.029 250.373 191.642 249.6C190.868 248.313 190.095 247.026 189.45 245.738C188.676 244.322 187.903 243.035 187 241.619C186.742 241.104 186.742 240.589 187 240.075L187.516 239.302ZM220.269 348.076C219.495 347.947 219.237 347.303 218.722 346.402C218.593 346.145 218.464 346.016 218.335 345.759C217.561 344.472 216.916 343.184 216.143 341.897C215.111 340.095 213.951 338.164 212.919 336.233C212.145 334.817 211.243 334.173 209.695 334.302C205.698 334.431 201.571 334.431 197.703 334.302H197.316L198.863 335.589C202.474 335.589 206.085 335.589 209.695 335.589C210.856 335.589 211.371 335.847 211.887 336.877C212.919 338.808 214.079 340.738 215.111 342.669C215.885 343.957 216.658 345.244 217.303 346.531C217.432 346.66 217.432 346.917 217.561 347.046C217.948 347.947 218.464 349.106 219.882 349.363C220.269 349.492 220.527 349.234 220.656 348.848C220.785 348.462 220.656 348.205 220.269 348.076ZM111.048 130.786L110.919 130.528C110.275 129.627 108.469 129.112 107.438 129.499C106.277 130.014 105.503 131.172 105.503 132.331C105.503 133.36 106.148 134.648 107.438 135.163C107.696 135.291 108.082 135.291 108.34 135.291C109.372 135.291 110.533 134.776 111.048 134.004C111.177 133.747 111.435 133.489 111.564 133.103L111.822 132.717C111.822 132.588 111.951 132.459 111.951 132.331C111.951 132.331 111.951 132.202 111.951 132.073C111.564 131.687 111.306 131.301 111.048 130.786ZM110.404 132.717C110.275 132.974 110.146 133.232 110.017 133.489C109.63 134.004 108.469 134.39 107.954 134.133C107.18 133.747 106.793 132.974 106.793 132.459C106.793 131.944 107.18 131.043 107.954 130.786C108.082 130.786 108.211 130.657 108.34 130.657C108.856 130.657 109.63 130.915 109.888 131.301L110.017 131.558C110.275 131.816 110.404 132.202 110.533 132.459L110.404 132.717ZM218.722 292.08C217.948 290.535 217.045 288.99 216.143 287.574C214.982 285.644 213.822 283.584 212.79 281.524C212.145 280.366 211.114 279.722 209.695 279.851C207.116 279.98 204.666 279.98 201.571 279.98C199.766 279.98 198.09 279.98 196.284 279.851C194.737 279.722 193.705 280.366 192.932 281.782C190.997 285.257 188.934 288.733 186.871 292.08L185.968 293.496C185.324 294.654 185.324 295.684 185.968 296.843L186.871 298.259C188.934 301.606 190.997 305.081 192.932 308.557C193.705 309.973 194.608 310.488 196.026 310.488C196.155 310.488 196.155 310.488 196.284 310.488C198.734 310.359 201.313 310.359 204.666 310.359C206.214 310.359 207.761 310.359 209.824 310.488C211.114 310.617 212.145 310.102 212.661 308.943C214.208 306.111 215.885 303.408 217.432 300.576L219.882 296.199C220.011 296.07 220.011 295.813 220.14 295.684L220.269 295.427C220.269 295.298 220.269 295.169 220.269 295.169V295.041C220.14 294.14 219.624 293.496 219.237 292.852C219.109 292.724 218.98 292.337 218.722 292.08ZM219.109 295.427C219.109 295.556 218.98 295.684 218.98 295.813L216.53 300.19C214.982 303.022 213.306 305.725 211.758 308.557C211.372 309.201 210.856 309.458 209.953 309.458C207.89 309.329 206.213 309.329 204.795 309.329C201.442 309.329 198.863 309.329 196.413 309.458C195.253 309.458 194.737 309.201 194.221 308.171C192.287 304.695 190.224 301.091 188.16 297.744L187.258 296.328C186.742 295.556 186.742 295.041 187.258 294.268L188.16 292.852C190.224 289.505 192.287 286.03 194.221 282.425C194.737 281.524 195.253 281.138 196.155 281.138C196.284 281.138 196.284 281.138 196.413 281.138C198.219 281.267 199.895 281.267 201.7 281.267C204.795 281.267 207.245 281.267 209.824 281.138C210.856 281.138 211.372 281.396 211.758 282.168C212.79 284.228 213.951 286.287 215.111 288.218C216.014 289.634 216.916 291.179 217.69 292.724C217.819 293.11 218.077 293.367 218.335 293.625C218.722 294.14 218.98 294.654 219.109 295.427ZM120.72 122.934L120.075 121.775C119.43 120.745 118.914 119.715 118.27 118.557C117.625 117.398 116.851 117.141 115.819 117.141C111.048 117.141 106.277 117.141 101.506 117.141C100.474 117.141 99.7007 117.398 99.0559 118.557C97.7664 120.874 96.348 123.191 95.0585 125.508C94.5427 126.409 94.0269 127.182 93.5111 128.083L91.7058 131.043C91.19 131.944 91.19 132.974 91.7058 133.875C92.4795 135.291 93.2532 136.579 94.1558 137.995C94.9295 139.282 95.5743 140.569 96.348 141.856C96.7348 142.5 97.1217 143.144 97.5085 143.787C98.0243 144.688 98.4112 145.461 99.0559 146.362C99.7007 147.52 100.474 147.649 101.506 147.649C106.277 147.649 111.048 147.649 115.819 147.649C116.851 147.649 117.625 147.392 118.27 146.233C119.172 144.688 119.946 143.272 120.849 141.728C121.88 140.054 122.783 138.381 123.814 136.579C124.072 136.192 124.33 135.806 124.459 135.42C124.975 134.519 125.491 133.747 125.878 132.717C125.878 132.588 126.007 132.459 125.878 132.331C125.878 132.202 125.878 132.073 125.878 131.944C124.846 129.756 123.556 127.568 122.396 125.508C121.88 124.864 121.235 123.835 120.72 122.934ZM123.428 134.905C123.17 135.291 122.912 135.677 122.783 136.064C121.751 137.737 120.849 139.411 119.817 141.213C118.914 142.757 118.141 144.173 117.238 145.718C116.851 146.362 116.593 146.491 115.819 146.491C113.498 146.491 111.048 146.491 108.598 146.491C106.148 146.491 103.827 146.491 101.377 146.491C100.732 146.491 100.345 146.362 99.9586 145.718C99.4428 144.946 98.927 144.045 98.5401 143.272C98.1533 142.629 97.7664 141.985 97.3796 141.213C96.6059 139.925 95.8322 138.638 95.1874 137.351C94.4137 135.935 93.64 134.648 92.7374 133.232C92.4795 132.717 92.4795 132.202 92.7374 131.687L94.5427 128.726C95.0585 127.825 95.5743 127.053 96.0901 126.152C97.3796 123.835 98.798 121.518 100.088 119.201C100.474 118.557 100.732 118.428 101.506 118.428C106.277 118.428 111.177 118.428 115.819 118.428C116.593 118.428 116.851 118.557 117.238 119.201C117.883 120.23 118.398 121.26 119.043 122.29L119.688 123.449C120.204 124.35 120.849 125.379 121.364 126.28C122.525 128.211 123.814 130.271 124.717 132.459C124.33 133.36 123.814 134.133 123.428 134.905ZM218.335 50.4607C208.148 50.332 197.832 50.332 187.645 50.4607C187.645 50.332 187.516 50.0745 187.387 49.9458C184.292 44.668 181.197 39.2615 178.102 33.855L177.071 34.6274C180.166 39.9051 183.26 45.3116 186.355 50.5894C186.613 50.9756 186.484 51.2331 186.355 51.6192C183.389 56.3821 180.681 61.2737 177.973 66.0366C176.684 68.2249 175.523 70.4133 174.234 72.6016C173.589 73.7602 172.815 74.9187 172.171 76.206L171.397 77.6219H140.578L139.675 76.206C139.03 75.0474 138.257 73.8889 137.612 72.7303C136.709 71.1856 135.807 69.6409 134.904 68.0962L133.872 68.8686C134.775 70.4133 135.549 71.8293 136.451 73.374C137.096 74.5325 137.87 75.6911 138.515 76.8496L139.288 78.2656L136.194 83.6721C133.099 89.0786 130.004 94.6138 126.78 100.02C126.522 100.406 126.264 100.921 126.007 101.436C125.491 102.466 124.975 103.367 124.33 104.268C124.201 104.397 124.072 104.654 124.072 104.783C113.885 104.912 103.569 104.912 93.3821 104.783C93.2532 104.526 93.2532 104.397 93.1242 104.268C92.6084 103.625 92.2216 102.852 91.8347 102.209L90.8031 102.981C91.19 103.753 91.5768 104.397 92.2216 105.041C92.3505 105.298 92.4795 105.556 92.2216 105.942C87.8373 113.537 83.0661 121.775 77.5213 131.301C77.1344 131.944 76.7476 132.073 75.9739 132.073C68.6237 132.073 61.1446 132.073 53.7945 132.073L52.247 133.232C60.113 133.232 68.1079 133.232 75.9739 133.232C76.2318 133.232 76.6186 133.232 77.0055 133.103L79.8424 137.995C83.9688 145.075 87.9662 152.154 92.0926 159.234C92.3505 159.621 92.2216 159.878 92.0926 160.264C89.2557 165.027 86.4188 169.919 83.7109 174.682C82.4214 176.87 81.2608 179.058 79.9713 181.247C79.1976 182.534 78.5529 183.821 77.7792 184.98L77.0055 186.138H45.9285L43.8653 182.534C42.8337 180.603 41.6731 178.672 40.6415 176.87C37.6757 171.721 34.5809 166.443 31.4861 161.165C30.7124 159.749 30.9703 159.106 31.615 157.818C34.4519 152.927 37.5467 147.778 40.8994 141.856L38.3204 143.916C35.4835 148.808 33.0335 153.184 30.5834 157.304C30.1966 157.947 29.9387 158.462 29.8097 159.234C26.1991 159.234 22.7175 159.234 19.1069 159.106L17.5595 160.264C21.6859 160.264 25.6833 160.264 29.8097 160.393C29.9387 160.908 30.0676 161.294 30.4545 161.938C33.5493 167.087 36.6441 172.364 39.6099 177.514C40.6415 179.444 41.8021 181.375 42.8337 183.178L44.8969 186.782L41.8021 192.188C39.2231 196.694 36.6441 201.199 33.9361 205.833L34.9677 206.606C37.6757 201.972 40.3836 197.337 42.9626 192.832L46.0574 187.425H76.8765L79.9713 192.832C83.0661 198.238 86.1609 203.774 89.3847 209.18C89.6426 209.566 89.9005 210.081 90.1584 210.467C90.6742 211.497 91.3189 212.527 91.9637 213.428C92.0926 213.686 92.2216 213.943 91.9637 214.329C87.5794 221.924 82.9372 229.905 77.2634 239.688L77.1344 239.817L78.0371 240.589C78.166 240.461 78.166 240.461 78.295 240.332C83.8398 230.677 88.482 222.568 92.9953 214.973C93.1242 214.844 93.1242 214.587 93.2532 214.458C98.4112 214.587 103.44 214.587 108.598 214.587C113.756 214.587 118.914 214.587 123.943 214.458C123.943 214.587 124.072 214.844 124.201 214.973C128.07 221.538 131.809 228.103 135.678 234.797L138.257 239.302C138.515 239.817 138.773 240.332 139.03 240.718L139.288 241.104C139.03 241.362 138.773 241.619 138.644 242.005C133.228 251.531 128.972 258.74 124.975 265.691C124.588 266.335 124.33 266.85 124.201 267.622C120.333 267.622 116.335 267.493 112.467 267.493L114.014 268.78C117.367 268.78 120.849 268.78 124.201 268.909C124.33 269.424 124.459 269.81 124.846 270.454C127.425 274.702 129.875 279.079 132.325 283.327L134.904 285.386C131.938 280.237 128.972 274.959 125.878 269.939C125.104 268.523 125.362 267.879 126.007 266.592C130.004 259.641 134.259 252.432 139.675 242.906C140.191 242.134 140.578 241.877 141.481 241.877C151.023 241.877 160.565 241.877 170.107 241.877C170.365 241.877 170.752 241.877 171.139 241.748L174.105 247.026C178.102 253.977 182.229 261.057 186.226 268.008C186.484 268.394 186.355 268.652 186.226 269.038C183.26 273.801 180.552 278.692 177.844 283.455C176.555 285.644 175.394 287.832 174.105 290.02C173.46 291.179 172.686 292.337 172.042 293.625L171.268 295.041H146.896L148.444 296.328H171.139L174.234 301.606C177.329 307.012 180.552 312.547 183.776 317.954C184.034 318.34 184.292 318.855 184.55 319.241C185.066 320.271 185.581 321.301 186.355 322.202C186.484 322.459 186.613 322.588 186.355 322.974C185.968 323.618 185.581 324.262 185.195 325.034L186.226 325.806C186.613 325.034 187 324.39 187.516 323.618C187.645 323.489 187.645 323.36 187.645 323.232C192.803 323.36 197.832 323.36 202.99 323.36C208.148 323.36 213.306 323.36 218.335 323.232C218.335 323.36 218.464 323.489 218.464 323.618C219.366 325.163 220.269 326.707 221.172 328.123V325.677C220.656 324.776 220.14 323.875 219.624 322.974C219.366 322.588 219.495 322.331 219.624 322.202C220.269 321.43 220.785 320.528 221.172 319.627V317.053C221.172 317.053 221.172 317.182 221.043 317.182C220.785 317.696 220.527 318.083 220.269 318.598C219.753 319.627 219.237 320.528 218.593 321.43C218.464 321.558 218.335 321.816 218.335 321.944C208.148 322.073 197.832 322.073 187.645 321.944C187.516 321.816 187.516 321.558 187.387 321.43C186.742 320.528 186.226 319.627 185.71 318.598C185.453 318.083 185.195 317.696 184.937 317.182C181.713 311.775 178.489 306.111 175.523 300.833L172.429 295.427L173.202 294.011C173.847 292.852 174.621 291.694 175.265 290.406C176.555 288.218 177.844 286.03 179.005 283.841C181.713 279.079 184.55 274.187 187.387 269.424C187.516 269.295 187.516 269.167 187.645 268.909C197.961 268.78 208.277 268.78 218.593 268.909C218.722 269.424 218.851 269.81 219.237 270.454C219.882 271.612 220.527 272.642 221.172 273.801V271.355C220.914 270.84 220.527 270.325 220.269 269.81C219.495 268.394 219.753 267.751 220.398 266.463C220.527 266.206 220.656 265.948 220.914 265.691L219.882 264.919C219.753 265.176 219.495 265.562 219.366 265.82C218.98 266.463 218.722 266.978 218.593 267.751C208.277 267.622 197.961 267.622 187.645 267.751C187.645 267.622 187.516 267.365 187.387 267.236C183.26 260.285 179.263 253.333 175.265 246.253L172.3 240.976C172.429 240.847 172.686 240.589 172.815 240.332C174.621 237.243 176.168 234.411 177.844 231.707L176.813 230.935C175.137 233.767 173.46 236.599 171.784 239.817C171.397 240.461 171.01 240.589 170.236 240.589C160.694 240.589 151.152 240.589 141.609 240.589C141.223 240.589 140.836 240.718 140.449 240.718L140.191 240.332C139.933 239.817 139.675 239.302 139.417 238.916L136.838 234.411C132.97 227.846 129.23 221.152 125.362 214.587C125.104 214.072 125.233 213.943 125.362 213.686C126.135 212.785 126.651 211.755 127.167 210.725C127.425 210.339 127.683 209.824 127.941 209.438C130.133 205.576 132.454 201.714 134.646 197.852L133.615 197.08C131.422 200.942 129.101 204.932 126.78 208.794C126.522 209.18 126.264 209.695 126.007 210.21C125.491 211.24 124.975 212.141 124.33 213.042C124.201 213.171 124.072 213.428 124.072 213.557C113.885 213.686 103.569 213.686 93.3821 213.557C93.2532 213.299 93.2532 213.171 93.1242 213.042C92.4795 212.141 91.9637 211.24 91.4479 210.21C91.19 209.695 90.9321 209.309 90.6742 208.794C87.4504 203.388 84.3556 197.852 81.2608 192.446L78.166 187.039L78.8108 185.881C79.5845 184.593 80.2292 183.435 81.0029 182.148C82.2924 179.959 83.5819 177.771 84.7425 175.583C87.4504 170.82 90.2873 165.928 93.1242 161.165C93.2532 161.037 93.2532 160.908 93.3821 160.65C103.698 160.522 114.014 160.522 124.33 160.65C124.459 161.165 124.588 161.551 124.975 162.195C125.104 162.453 125.362 162.839 125.491 163.096L126.522 162.324C126.393 162.066 126.264 161.809 126.007 161.551C125.233 160.135 125.491 159.492 126.135 158.205C130.133 151.382 134.388 144.045 139.804 134.519C140.32 133.747 140.707 133.489 141.609 133.489C148.702 133.489 155.923 133.489 163.015 133.489L164.563 132.331C156.955 132.331 149.218 132.331 141.609 132.331C141.223 132.331 140.836 132.459 140.449 132.459L140.191 131.944C139.933 131.43 139.675 131.043 139.417 130.528L136.838 126.023C132.97 119.329 129.101 112.764 125.233 106.07C124.975 105.684 125.104 105.427 125.233 105.169C126.007 104.268 126.522 103.238 127.038 102.209C127.296 101.822 127.554 101.308 127.812 100.921C131.036 95.5149 134.13 89.9797 137.225 84.5732L140.32 79.1667H171.139L174.234 84.4444C177.329 89.8509 180.552 95.3862 183.776 100.921C184.034 101.308 184.292 101.822 184.55 102.209C185.066 103.238 185.71 104.268 186.355 105.169C186.484 105.427 186.613 105.684 186.355 106.07C183.389 111.22 180.166 116.626 176.813 122.547L179.392 120.488C182.229 115.596 184.808 111.091 187.387 106.714C187.516 106.585 187.516 106.328 187.645 106.199C190.868 106.199 194.221 106.328 197.574 106.328L199.121 105.169C195.253 105.169 191.513 105.169 187.774 105.041C187.645 104.783 187.645 104.654 187.516 104.526C186.871 103.625 186.355 102.724 185.839 101.694C185.581 101.179 185.324 100.793 185.066 100.407C181.842 95 178.618 89.336 175.523 83.9295L172.429 78.6518L173.202 77.2358C173.847 76.0772 174.621 74.9187 175.265 73.6314C176.555 71.4431 177.844 69.2547 179.005 67.0664C181.713 62.3035 184.55 57.4119 187.387 52.6491C187.516 52.5203 187.516 52.3916 187.645 52.1341C197.832 52.0054 208.148 52.0054 218.464 52.1341C218.593 52.2629 218.593 52.5203 218.722 52.6491C219.624 54.065 220.398 55.6098 221.301 57.0257V54.5799C220.785 53.6789 220.269 52.7778 219.753 52.0054C219.495 51.6192 219.495 51.3618 219.753 50.9756C220.269 50.0745 220.785 49.1734 221.301 48.2724V45.8266C220.398 47.3713 219.495 48.916 218.722 50.332C218.335 50.2032 218.335 50.332 218.335 50.4607ZM135.678 126.28L138.257 130.786C138.515 131.301 138.773 131.687 139.03 132.202L139.288 132.717C139.03 132.974 138.773 133.232 138.644 133.618C133.228 143.144 128.972 150.352 124.975 157.304C124.588 157.947 124.33 158.462 124.201 159.234C113.885 159.106 103.569 159.106 93.2532 159.234C93.2532 159.106 93.1242 158.848 92.9953 158.72C88.8689 151.64 84.7425 144.56 80.745 137.48L77.9081 132.588C78.0371 132.459 78.295 132.202 78.4239 131.944C83.8398 122.547 88.611 114.18 93.1242 106.585C93.2532 106.457 93.2532 106.199 93.3821 106.07C98.5401 106.199 103.569 106.199 108.727 106.199C113.885 106.199 119.043 106.199 124.072 106.07C124.072 106.199 124.201 106.457 124.33 106.585C128.07 113.022 131.809 119.587 135.678 126.28ZM205.698 294.14C205.053 292.08 203.377 292.337 202.345 292.466H201.958C200.798 292.595 200.411 293.496 200.153 294.14C200.024 294.268 200.024 294.526 199.895 294.654C199.766 294.912 199.637 295.298 199.895 296.07C200.282 296.972 201.442 298.13 202.345 298.259C202.603 298.259 202.732 298.259 202.99 298.259C205.182 298.259 205.956 296.328 206.213 295.684C206.213 295.556 206.213 295.556 206.213 295.427C206.213 295.041 206.085 294.654 205.956 294.526C205.698 294.268 205.698 294.14 205.698 294.14ZM204.924 295.298C204.408 296.714 203.763 297.1 202.474 296.972C201.958 296.843 200.927 295.684 200.927 295.298C201.055 295.041 201.184 294.783 201.313 294.526C201.571 293.882 201.7 293.625 202.087 293.625H202.474C202.861 293.625 203.119 293.496 203.377 293.496C204.021 293.496 204.279 293.753 204.537 294.397C204.537 294.654 204.666 294.783 204.795 294.912C204.795 295.041 204.924 295.169 204.924 295.298ZM78.8108 213.943C78.6818 212.656 78.166 211.883 77.5213 211.111C77.2634 210.725 77.1344 210.467 76.8765 210.081C76.2318 208.923 75.587 207.764 74.8133 206.606C73.7817 204.804 72.6212 203.001 71.8475 201.199C70.558 198.496 68.3658 198.367 66.3026 198.496C63.0789 198.625 59.7262 198.625 56.3735 198.496C55.4708 198.496 54.6971 198.496 53.9234 198.625H53.2786C52.6339 198.625 52.376 199.14 52.1181 199.397L51.9891 199.526C50.9575 201.199 49.9259 202.873 49.0233 204.546C48.2496 205.962 47.3469 207.507 46.4443 208.923C46.1864 209.309 45.9285 209.824 45.6706 210.21C45.2837 210.854 45.0258 211.369 44.639 211.883C44.2521 212.527 43.9942 213.042 43.9942 213.686L45.6706 214.973L45.5416 214.844C45.0258 214.072 45.0258 213.428 45.6706 212.656C46.0574 212.012 46.4443 211.369 46.7022 210.854C46.9601 210.467 47.218 209.953 47.4759 209.566C48.3785 208.15 49.2812 206.606 50.0549 205.19C50.9575 203.516 51.9891 201.843 53.0207 200.298L53.1497 200.169C53.1497 200.041 53.2786 199.912 53.2786 199.912H54.0523C54.826 199.912 55.5998 199.783 56.3735 199.783C59.8551 199.912 63.2078 199.912 66.4316 199.783C68.3658 199.654 69.7843 199.783 70.8159 201.843C71.7185 203.774 72.7501 205.576 73.9107 207.378C74.5554 208.537 75.3291 209.695 75.9739 210.854C76.2318 211.24 76.3607 211.626 76.6186 212.012C77.1344 212.656 77.5213 213.299 77.6502 214.072C77.1344 215.102 76.6186 216.003 75.9739 217.033C75.716 217.419 75.4581 217.805 75.2002 218.191L75.0712 218.32C73.3949 221.152 71.7185 224.112 70.1711 226.944C69.6553 227.717 69.2685 228.103 68.2369 227.974C66.1737 227.974 64.1105 227.974 62.0473 227.974L63.5947 229.262C65.1421 229.262 66.6895 229.262 68.2369 229.262H68.3658C69.7843 229.262 70.558 228.747 71.2027 227.588C72.7501 224.756 74.4265 221.795 76.1028 218.963L76.2318 218.835C76.4897 218.449 76.7476 218.062 77.0055 217.676C77.6502 216.646 78.295 215.617 78.8108 214.458C78.8108 214.201 78.8108 214.072 78.8108 213.943ZM16.9147 185.623C16.27 183.564 14.5936 183.821 13.562 183.95H13.1752C12.0146 184.079 11.6278 184.98 11.3699 185.623C11.2409 185.881 11.2409 186.009 11.112 186.138C10.983 186.396 10.8541 186.782 11.112 187.554C11.2409 187.812 11.3699 187.94 11.4988 188.198L13.4331 189.743H13.562C13.8199 189.743 13.9489 189.743 14.2068 189.743C16.3989 189.743 17.1726 187.812 17.4305 187.168C17.4305 187.039 17.4305 187.039 17.4305 186.911C17.4305 186.524 17.3016 186.138 17.1726 186.009C17.0437 185.752 17.0437 185.623 16.9147 185.623ZM16.141 186.782C15.6252 188.198 14.9805 188.584 13.691 188.455C13.1752 188.327 12.1436 187.168 12.1436 186.782C12.2725 186.524 12.4015 186.267 12.5304 186.009C12.7883 185.366 12.9173 185.108 13.3041 185.108H13.691C14.0778 185.108 14.3357 184.98 14.5936 184.98C15.2384 184.98 15.4963 185.237 15.7542 185.881C15.7542 186.138 15.8831 186.267 16.0121 186.396C16.141 186.524 16.141 186.653 16.141 186.782C16.141 186.653 16.141 186.653 16.141 186.782ZM115.819 256.165C116.851 256.165 117.625 255.908 118.27 254.749C119.172 253.205 119.946 251.789 120.849 250.244C121.88 248.57 122.783 246.768 123.814 245.095C124.072 244.709 124.33 244.322 124.459 243.936C124.975 243.035 125.491 242.263 125.878 241.233C125.878 241.104 126.007 240.976 125.878 240.847C125.878 240.718 125.878 240.589 125.878 240.461C124.846 238.272 123.556 236.084 122.396 234.024C121.88 233.123 121.235 232.222 120.72 231.192L120.075 230.034C119.43 229.004 118.914 227.846 118.27 226.816C117.625 225.657 116.851 225.4 115.819 225.4C111.048 225.4 106.277 225.4 101.506 225.4C100.345 225.4 99.7007 225.657 99.0559 226.816C97.7664 229.133 96.348 231.45 95.0585 233.767C94.5427 234.668 94.0269 235.44 93.5111 236.341L91.7058 239.302C91.19 240.203 91.19 241.233 91.7058 242.134C92.4795 243.55 93.2532 244.837 94.1558 246.253C94.9295 247.541 95.5743 248.828 96.348 250.115C96.7348 250.759 97.1217 251.402 97.5085 252.046C98.0243 252.947 98.5401 253.719 99.0559 254.621C99.7007 255.779 100.474 256.037 101.506 255.908C106.148 256.165 111.048 256.165 115.819 256.165ZM101.377 255.007C100.732 255.007 100.345 254.878 99.9586 254.234C99.4428 253.462 98.927 252.561 98.5401 251.789C98.1533 251.145 97.7664 250.501 97.3796 249.729C96.6059 248.442 95.8322 247.154 95.1874 245.867C94.4137 244.451 93.64 243.164 92.7374 241.748C92.4795 241.233 92.4795 240.718 92.7374 240.203L94.5427 237.243C95.0585 236.341 95.5743 235.569 96.0901 234.668C97.3796 232.351 98.798 230.034 100.088 227.717C100.474 227.073 100.732 226.944 101.506 226.944C106.277 226.944 111.048 226.944 115.819 226.944C116.593 226.944 116.851 227.073 117.238 227.717C117.883 228.747 118.398 229.776 119.043 230.935L119.688 232.093C120.204 232.995 120.849 234.024 121.364 234.925C122.525 236.856 123.814 238.916 124.717 241.104C124.33 241.877 123.814 242.649 123.428 243.421C123.17 243.808 122.912 244.194 122.783 244.58C121.751 246.253 120.849 248.056 119.817 249.729C118.914 251.274 118.141 252.69 117.238 254.234C116.851 254.878 116.593 255.007 115.819 255.007C113.498 255.007 111.048 255.007 108.598 255.007C106.148 255.007 103.827 255.007 101.377 255.007ZM155.407 270.969C155.665 270.969 155.794 270.969 156.052 270.969C157.857 270.969 158.502 269.553 158.889 268.523C158.889 268.394 158.889 268.266 158.889 268.266C158.889 268.137 158.889 268.137 158.889 268.008C157.986 265.691 157.599 265.176 155.407 265.176C154.762 265.176 153.989 265.562 153.473 266.206C152.828 266.85 152.57 267.622 152.57 268.266C152.57 269.553 153.989 270.711 155.407 270.969ZM154.376 266.978C154.762 266.592 155.149 266.335 155.536 266.335C155.665 266.335 155.794 266.335 155.923 266.335C156.955 266.335 157.083 266.463 157.728 268.266C157.212 269.553 156.826 270.068 155.665 269.81C154.891 269.682 153.86 268.909 153.86 268.137C153.731 267.879 153.989 267.364 154.376 266.978ZM212.661 92.0393C214.208 89.2073 215.885 86.5041 217.432 83.6721L219.882 79.2954C220.011 79.1667 220.011 78.9092 220.14 78.7805L220.269 78.523C220.269 78.3943 220.269 78.2656 220.269 78.2656V78.1369C220.14 77.2358 219.624 76.5921 219.237 75.9485C219.109 75.6911 218.851 75.4336 218.722 75.1761C217.948 73.6314 217.045 72.0867 216.143 70.6707C214.982 68.7398 213.822 66.6802 212.79 64.6206C212.145 63.4621 211.114 62.8184 209.695 62.9472C207.116 63.0759 204.408 63.0759 201.958 63.0759C200.024 63.0759 198.219 63.0759 196.284 62.9472C194.737 62.8184 193.705 63.4621 192.932 64.878C190.997 68.3537 188.934 71.8293 186.871 75.3049L186.097 76.7209C185.453 77.8794 185.453 78.9092 186.097 80.0677L187 81.4837C189.063 84.8306 191.126 88.3062 193.061 91.7818C193.834 93.1978 194.737 93.7127 196.155 93.7127C196.284 93.7127 196.284 93.7127 196.413 93.7127C198.863 93.584 201.442 93.584 204.795 93.584C206.342 93.584 207.89 93.584 209.953 93.7127C211.114 93.584 212.016 93.0691 212.661 92.0393ZM204.666 92.168C201.313 92.168 198.734 92.168 196.284 92.2967C195.124 92.2967 194.608 92.0393 194.092 91.0095C192.158 87.5339 190.095 84.0583 188.032 80.5826L187.129 79.1667C186.613 78.3943 186.613 77.8794 187.129 77.107L187.903 75.6911C189.966 72.3442 192.029 68.7398 193.963 65.2642C194.479 64.3631 194.995 63.977 195.897 63.977C196.026 63.977 196.026 63.977 196.155 63.977C198.09 64.1057 200.024 64.1057 201.829 64.1057C204.279 64.1057 206.858 64.1057 209.566 63.977C210.598 63.977 211.114 64.2344 211.5 65.0068C212.532 67.0664 213.693 69.126 214.853 71.0569C215.756 72.4729 216.658 74.0176 217.432 75.5623C217.561 75.9485 217.819 76.206 218.077 76.4634C218.464 76.9783 218.851 77.4932 218.851 78.1369V78.2656C218.851 78.3943 218.722 78.523 218.722 78.6518L216.272 83.0285C214.724 85.8604 213.048 88.5637 211.5 91.3957C211.114 92.0393 210.598 92.2967 209.695 92.2967C207.761 92.168 206.214 92.168 204.666 92.168ZM149.604 283.584C152.57 283.455 155.665 283.455 158.631 283.455C159.147 283.455 159.791 283.455 160.307 283.584C161.339 283.713 162.499 283.713 163.66 283.455C164.176 283.327 164.692 283.327 165.078 282.554C167.142 279.207 168.947 275.86 170.623 273.028C170.881 272.514 171.139 272.127 171.526 271.612C172.171 270.583 172.815 269.553 173.202 268.394C173.202 268.266 173.202 268.266 173.202 268.137C173.202 268.008 173.202 267.879 173.202 267.751C172.171 265.562 171.01 263.503 169.721 261.572C168.947 260.413 168.302 259.126 167.528 257.839C167.271 257.324 166.884 256.68 166.497 256.165C166.11 255.522 165.723 254.749 165.336 254.106C164.692 252.947 163.789 252.818 163.015 252.818C159.018 252.818 153.86 252.818 148.573 252.818C147.412 252.818 146.639 253.205 145.994 254.363C144.833 256.551 143.544 258.74 142.254 260.928L140.836 263.374C140.578 263.76 140.449 264.018 140.191 264.404C139.804 265.176 139.288 266.077 138.773 266.85C138.128 267.751 138.128 268.78 138.773 269.81C141.352 273.93 143.673 277.92 145.736 281.911C146.51 283.327 147.799 283.584 148.831 283.584C149.089 283.584 149.346 283.584 149.604 283.584ZM146.896 281.267C144.833 277.276 142.512 273.286 139.804 269.038C139.417 268.394 139.417 267.879 139.804 267.364C140.32 266.592 140.836 265.691 141.352 264.919C141.609 264.533 141.738 264.275 141.996 263.889L143.415 261.443C144.704 259.255 145.994 257.066 147.154 254.878C147.541 254.106 147.928 253.977 148.702 253.977C153.989 254.106 159.276 253.977 163.273 253.977C164.047 253.977 164.305 254.106 164.563 254.621C164.949 255.393 165.336 256.037 165.723 256.809C166.11 257.324 166.368 257.967 166.626 258.482C167.271 259.77 168.044 261.057 168.818 262.215C169.979 264.146 171.139 266.077 172.171 268.137C171.913 269.167 171.268 269.939 170.752 270.84C170.494 271.355 170.107 271.741 169.85 272.256C168.302 275.088 166.368 278.435 164.305 281.782C164.176 282.039 164.047 282.039 163.531 282.168C162.628 282.297 161.597 282.297 160.565 282.168C160.049 282.168 159.405 282.039 158.889 282.039H158.76C155.794 282.039 152.699 282.039 149.604 282.168C148.186 282.425 147.412 282.168 146.896 281.267ZM111.048 239.431L110.919 239.173C110.275 238.272 108.469 237.757 107.438 238.144C106.277 238.659 105.503 239.817 105.503 240.976C105.503 242.005 106.148 243.293 107.438 243.808C107.696 243.936 108.082 243.936 108.34 243.936C109.372 243.936 110.533 243.421 111.048 242.649C111.177 242.392 111.435 242.134 111.564 241.748L111.822 241.362C111.822 241.233 111.951 241.104 111.951 240.976C111.951 240.976 111.951 240.847 111.951 240.718C111.564 240.203 111.306 239.817 111.048 239.431ZM110.404 241.233C110.275 241.49 110.146 241.748 110.017 242.005C109.63 242.649 108.469 242.906 107.954 242.778C107.18 242.392 106.793 241.619 106.793 241.104C106.793 240.461 107.18 239.688 107.954 239.431C108.082 239.431 108.211 239.302 108.34 239.302C108.856 239.302 109.63 239.56 109.888 239.946L110.017 240.203C110.275 240.461 110.404 240.847 110.533 241.104L110.404 241.233ZM202.345 26.7751C202.603 26.7751 202.732 26.7751 202.99 26.7751C203.892 26.7751 205.053 26.5176 205.569 24.9729C205.569 24.8442 205.698 24.7154 205.827 24.5867C205.956 24.458 205.956 24.3293 206.085 24.3293C206.213 24.2005 206.213 24.0718 206.213 23.9431C206.213 23.8144 206.213 23.8144 206.213 23.6856C206.085 23.4282 205.956 23.1707 205.827 23.042C205.698 22.9133 205.698 22.7846 205.698 22.7846C205.053 20.8537 203.506 21.1111 202.603 21.2398C202.474 21.2398 202.216 21.2398 202.087 21.3686C200.927 21.4973 200.411 22.5271 200.153 23.2995L200.024 23.5569C199.766 24.0718 199.895 24.7154 200.411 25.4878C200.669 26.0027 201.442 26.7751 202.345 26.7751ZM201.184 23.6856C201.442 22.9133 201.7 22.6558 202.087 22.5271C202.345 22.5271 202.474 22.5271 202.732 22.3984C203.119 22.3984 203.377 22.2696 203.506 22.2696C204.021 22.2696 204.279 22.3984 204.408 23.042C204.537 23.2995 204.537 23.4282 204.666 23.6856C204.666 23.8144 204.795 23.8144 204.795 23.9431C204.666 24.2005 204.408 24.458 204.408 24.7154C204.15 25.6165 203.634 25.7453 202.474 25.6165C202.216 25.6165 201.7 25.2304 201.442 24.7154C201.184 24.3293 201.184 23.9431 201.184 23.9431V23.6856ZM154.118 213.042L153.086 212.27C152.828 212.656 152.699 213.171 152.57 213.557V213.686C152.312 214.715 153.86 216.646 154.504 216.904C154.762 217.033 155.02 217.033 155.407 217.033C156.31 217.033 157.212 216.646 157.857 216.003L156.826 215.23C156.31 215.617 155.536 215.874 154.891 215.745C154.505 215.617 153.731 214.329 153.602 214.072V213.943C153.989 213.557 153.989 213.171 154.118 213.042ZM63.8526 215.617C63.8526 215.488 63.9815 215.488 63.9815 215.359C64.2394 214.973 64.4973 214.587 64.6263 214.072V213.943C64.7552 213.428 64.4973 213.042 64.2394 212.913C63.3368 211.24 61.9183 210.596 60.113 211.111C58.9524 211.497 58.5656 212.656 58.3077 213.557V213.686C58.0498 214.715 59.5972 216.646 60.242 216.904C60.4999 217.033 60.7578 217.033 61.1446 217.033C62.1762 216.904 63.3368 216.389 63.8526 215.617ZM62.692 214.973C62.3052 215.488 61.2736 215.874 60.6288 215.617C60.242 215.488 59.4683 214.201 59.4683 213.943V213.814C59.7262 212.913 59.9841 212.398 60.4999 212.27C60.7578 212.141 61.0157 212.141 61.2736 212.141C62.0473 212.141 62.5631 212.527 63.0789 213.428C63.0789 213.557 63.2078 213.557 63.3368 213.686V213.814C63.3368 214.072 63.0789 214.329 62.9499 214.587C62.9499 214.715 62.821 214.844 62.692 214.973ZM61.0157 162.453C61.2736 162.453 61.4025 162.453 61.6604 162.453C63.4657 162.453 64.1105 161.037 64.4973 160.007C64.4973 159.878 64.4973 159.749 64.4973 159.749C64.4973 159.621 64.4973 159.621 64.4973 159.492C63.5947 157.175 63.2078 156.66 61.0157 156.66C60.3709 156.66 59.5972 157.046 59.0814 157.69C58.4367 158.333 58.1787 159.106 58.1787 159.749C58.3077 161.037 59.7262 162.195 61.0157 162.453ZM59.9841 158.462C60.3709 158.076 60.7578 157.818 61.1446 157.818C61.2736 157.818 61.4025 157.818 61.5315 157.818C62.5631 157.818 62.692 157.947 63.3368 159.749C62.821 161.037 62.4341 161.551 61.2736 161.294C60.4999 161.165 59.4683 160.393 59.4683 159.621C59.4683 159.363 59.5972 158.848 59.9841 158.462ZM115.433 93.584C116.722 93.584 117.625 93.1978 118.27 92.0393C119.817 89.2073 121.493 86.5041 123.041 83.6721L125.62 79.2954C125.749 79.1667 125.749 78.9092 125.878 78.7805L126.007 78.523C126.007 78.3943 126.007 78.2656 126.007 78.2656V78.1369C125.878 77.2358 125.362 76.5921 124.975 75.9485C124.975 75.9485 124.975 75.8198 124.846 75.8198L123.814 76.5921C123.814 76.5921 123.814 76.5921 123.814 76.7209C124.201 77.2358 124.588 77.7507 124.588 78.3943V78.523C124.588 78.6518 124.459 78.7805 124.459 78.9092L121.88 83.2859C120.333 86.1179 118.656 88.8211 117.109 91.6531C116.722 92.2967 116.206 92.5542 115.304 92.5542C113.24 92.4255 111.693 92.4255 110.146 92.4255C107.696 92.4255 105.503 92.4255 103.698 92.5542L102.022 93.8415C104.343 93.7127 106.922 93.7127 110.146 93.7127C111.822 93.4553 113.369 93.4553 115.433 93.584ZM68.3658 120.617C69.7843 120.617 70.558 120.102 71.2027 118.943C71.5896 118.299 71.9764 117.656 72.2343 117.012L67.7211 120.617C67.979 120.617 68.1079 120.617 68.3658 120.617ZM148.96 66.4228C149.218 66.4228 149.346 66.4228 149.604 66.4228C152.57 66.294 155.665 66.294 158.631 66.294C159.147 66.294 159.791 66.294 160.307 66.4228C161.339 66.5515 162.499 66.5515 163.66 66.294C164.176 66.1653 164.692 66.1653 165.078 65.393C167.142 62.0461 168.947 58.6992 170.623 55.8672C170.881 55.3523 171.139 54.9661 171.526 54.4512C172.171 53.4214 172.815 52.3916 173.202 51.2331C173.202 51.1043 173.202 51.1043 173.202 50.9756C173.202 50.8469 173.202 50.7182 173.202 50.5894C172.171 48.4011 171.01 46.3415 169.721 44.4106C169.205 43.5095 168.689 42.6084 168.044 41.5786L167.013 42.3509C167.528 43.252 168.044 44.1531 168.56 45.0542C169.721 46.9851 170.881 48.916 171.913 50.9756C171.655 52.0054 171.01 52.7778 170.494 53.6789C170.236 54.1938 169.85 54.5799 169.592 55.0948C168.044 57.9268 166.11 61.2737 164.047 64.6206C163.918 64.878 163.789 64.878 163.273 65.0068C162.37 65.1355 161.339 65.1355 160.307 65.0068C159.791 65.0068 159.147 64.878 158.631 64.878H158.502C155.536 64.878 152.441 64.878 149.346 65.0068C148.057 65.1355 147.283 64.878 146.767 63.977C145.994 62.561 145.22 61.2737 144.575 59.8577L143.544 60.6301C144.317 61.9173 144.962 63.2046 145.736 64.4919C146.639 66.294 147.928 66.4228 148.96 66.4228ZM30.5834 184.465C30.4545 184.207 30.1966 183.95 30.0676 183.692C29.2939 182.148 28.3913 180.603 27.4886 179.187C26.3281 177.256 25.1675 175.196 24.1359 173.137C23.4912 171.978 22.4596 171.335 21.0411 171.463C18.4621 171.592 15.7542 171.592 13.3041 171.592C11.3699 171.592 9.4356 171.592 7.6303 171.463C6.0829 171.335 5.0513 171.978 4.2776 173.394C3.11705 175.454 1.95649 177.642 0.666992 179.702L1.6986 180.474C2.9881 178.286 4.14865 176.226 5.43815 174.038C5.95395 173.137 6.46975 172.751 7.3724 172.751C7.50135 172.751 7.50135 172.751 7.6303 172.751C9.56455 172.879 11.4988 172.879 13.3041 172.879C15.7542 172.879 18.3332 172.879 21.0411 172.751C22.0727 172.751 22.5885 173.008 22.9754 173.78C24.007 175.84 25.1675 177.9 26.3281 179.831C27.2307 181.247 28.1334 182.791 28.9071 184.336C29.036 184.722 29.2939 184.98 29.5518 185.237C29.9387 185.752 30.3255 186.267 30.3255 186.911V187.039C30.3255 187.168 30.1966 187.297 30.1966 187.425L27.7465 191.802C26.586 193.991 25.2965 196.05 24.1359 198.238L25.1675 199.011C26.457 196.822 27.6176 194.634 28.9071 192.446L31.3571 188.069C31.4861 187.94 31.4861 187.683 31.615 187.554L31.744 187.297C31.744 187.168 31.744 187.039 31.744 187.039V186.911C31.4861 185.752 30.9703 184.98 30.5834 184.465ZM162.628 307.012L166.368 309.973C166.368 309.844 166.239 309.844 166.239 309.715C165.336 307.785 164.047 307.141 162.628 307.012ZM156.052 53.9363C157.857 53.9363 158.502 52.5203 158.889 51.4905C158.889 51.3618 158.889 51.2331 158.889 51.2331C158.889 51.1043 158.889 51.1043 158.889 50.9756C158.631 50.332 158.502 49.9458 158.244 49.5596L157.212 50.332C157.341 50.5894 157.47 50.8469 157.599 51.2331C157.084 52.5203 156.697 53.0352 155.536 52.7778C155.278 52.7778 154.891 52.5203 154.633 52.3916L153.602 53.164C154.118 53.5501 154.762 53.9363 155.278 54.065C155.536 53.9363 155.794 53.9363 156.052 53.9363ZM45.0258 161.938C45.1548 162.195 45.4127 162.453 45.5416 162.71C46.3153 164.255 47.218 165.671 48.1206 167.087C49.2812 169.018 50.4417 171.077 51.4733 173.266C52.247 174.81 53.5365 174.939 54.5681 174.939C54.826 174.939 55.084 174.939 55.2129 174.939C57.2761 174.81 59.4683 174.81 61.5315 174.81C62.5631 174.81 63.5947 174.81 64.4973 174.81C65.0131 174.81 65.5289 174.81 66.0447 174.939C67.0763 175.068 68.1079 175.068 69.2685 174.81C69.7843 174.682 70.3001 174.682 70.6869 173.909C71.7185 172.365 72.6212 170.691 73.5238 169.146C74.4265 167.602 75.3291 166.057 76.2318 164.512C76.4897 164.126 76.7476 163.611 77.0055 163.225C77.3923 162.581 77.6502 162.066 78.0371 161.551C78.9397 160.393 78.9397 159.234 78.166 158.076C76.6186 155.501 75.0712 152.927 73.6528 150.352L73.008 149.322C72.3633 148.164 71.5896 147.005 70.9448 145.718C70.3001 144.56 69.3974 144.431 68.6237 144.431C64.2394 144.431 59.3393 144.56 54.4392 144.431C53.0208 144.431 52.1181 144.946 51.4733 146.104C50.4417 148.035 49.2812 150.095 48.1206 152.026L46.4443 154.986C46.1864 155.373 45.9285 155.888 45.6706 156.274C45.0258 157.304 44.3811 158.333 43.9942 159.621C43.9942 159.749 43.9942 159.749 43.9942 159.878V160.007C44.1232 160.65 44.639 161.294 45.0258 161.938ZM46.8311 156.66C47.089 156.274 47.3469 155.759 47.6048 155.373L49.2812 152.412C50.4417 150.481 51.4733 148.55 52.6339 146.491C53.1497 145.718 53.5365 145.332 54.5681 145.461C59.4683 145.589 64.3684 145.461 68.8816 145.461C69.5264 145.461 69.9132 145.589 70.0422 146.104C70.6869 147.392 71.4606 148.679 72.1054 149.837L72.7501 150.867C74.2975 153.442 75.716 156.016 77.2634 158.591C77.7792 159.363 77.7792 160.007 77.1344 160.779C76.7476 161.423 76.3607 162.066 76.1028 162.581C75.8449 162.967 75.587 163.482 75.3291 163.869C74.4265 165.413 73.5238 166.958 72.6212 168.503C71.7185 170.047 70.8159 171.721 69.9132 173.137C69.7843 173.394 69.6553 173.394 69.1395 173.523C68.2369 173.652 67.3342 173.652 66.3026 173.523C65.7868 173.523 65.1421 173.394 64.6263 173.394C63.5947 173.394 62.692 173.394 61.6604 173.394C59.5972 173.394 57.4051 173.394 55.2129 173.523C53.9234 173.652 53.1497 173.523 52.6339 172.493C51.6023 170.305 50.3128 168.245 49.1522 166.314C48.2496 164.898 47.4759 163.354 46.7022 161.938C46.5732 161.551 46.3153 161.294 46.0574 161.037C45.6706 160.522 45.2837 160.007 45.2837 159.363C45.5416 158.591 46.1864 157.69 46.8311 156.66Z" fill="white"/>
</svg>
