<svg width="221" height="350" viewBox="0 0 221 350" fill="none" xmlns="http://www.w3.org/2000/svg">
<path opacity="0.1" d="M30.5566 33.2114C30.1698 33.855 29.783 34.4986 29.3962 35.1423C28.8805 36.0434 28.3648 36.8157 27.849 37.7168C27.2044 38.8753 26.4308 39.1328 25.3994 39.0041C20.6289 39.0041 15.8585 39.0041 11.088 39.0041C10.0566 39.0041 9.28302 38.7466 8.63837 37.5881C7.73584 36.0434 6.96227 34.6274 6.05974 33.0827C5.02829 31.4092 4.12576 29.7358 3.09431 27.9336C2.83646 27.5474 2.57858 27.1612 2.44966 26.7751C1.93393 25.874 1.4182 24.9729 1.0314 24.0718C1.0314 23.9431 0.902481 23.8144 1.0314 23.6856C1.0314 23.5569 1.0314 23.4282 1.0314 23.2995C1.80499 21.626 2.83646 19.9526 3.73897 18.4079C4.25468 17.378 4.89937 16.477 5.41508 15.4472C5.93082 14.5461 6.31757 13.7737 6.8333 13.0014C7.34901 12.1003 7.9937 11.1992 8.50941 10.1694C9.15407 9.01084 10.0566 8.36721 11.3459 8.36721L12.8931 9.65447C12.5063 9.65447 11.9905 9.65447 11.6038 9.65447C10.7012 9.52574 10.0566 9.91192 9.54085 10.813C9.02513 11.8428 8.50941 12.7439 7.86476 13.645C7.34904 14.4173 6.83331 15.3184 6.44652 16.0908C5.9308 17.1206 5.28616 18.1504 4.77043 19.0515C3.86792 20.5962 2.96541 22.1409 2.19182 23.6856C2.57861 24.458 3.09433 25.2304 3.48112 26.0027C3.73898 26.3889 3.99686 26.7751 4.12578 27.1612C5.15723 28.8347 6.05972 30.5081 7.09117 32.3103C7.99368 33.855 8.76727 35.271 9.66978 36.8157C10.0566 37.4593 10.3145 37.5881 11.088 37.5881C13.4088 37.5881 15.8585 37.5881 18.3082 37.5881C20.7579 37.5881 23.0786 37.5881 25.5283 37.5881C26.3018 37.5881 26.5597 37.4593 26.9465 36.8157C27.4622 36.0434 27.978 35.1423 28.3648 34.3699C28.7516 33.7263 29.1383 33.0827 29.5251 32.3103C30.2987 31.023 31.0723 29.7358 31.717 28.4485C32.2327 27.5474 32.7484 26.6463 33.2641 25.7453L34.2956 26.5176C33.7799 27.4187 33.2641 28.1911 32.8773 29.0921C31.9748 30.7656 31.3302 32.0528 30.5566 33.2114ZM106.884 171.335C109.204 171.463 111.396 171.463 113.588 171.463C115.522 171.463 117.456 171.463 119.261 171.335C120.808 171.206 121.84 171.85 122.613 173.266C124.547 176.741 126.61 180.217 128.673 183.692L129.447 185.108C130.091 186.267 130.091 187.297 129.447 188.455L128.544 189.871C126.481 193.218 124.418 196.694 122.484 200.298C121.711 201.714 120.808 202.229 119.39 202.229C119.261 202.229 119.261 202.229 119.132 202.229C116.682 202.1 113.975 202.1 110.752 202.1C109.333 202.1 107.657 202.1 105.594 202.229C104.305 202.229 103.274 201.843 102.758 200.684C101.211 197.852 99.5346 195.02 97.8585 192.188L96.4402 189.743L97.4717 188.97L98.8899 191.545C100.566 194.377 102.113 197.209 103.789 200.041C104.176 200.684 104.692 200.942 105.594 200.942C107.657 200.813 109.333 200.813 110.752 200.813C113.975 200.813 116.682 200.813 119.132 200.942C120.292 200.942 120.808 200.684 121.324 199.654C123.258 196.179 125.321 192.575 127.384 189.228L128.157 187.812C128.673 187.039 128.673 186.524 128.157 185.752L127.384 184.336C125.321 180.989 123.258 177.385 121.324 173.909C120.808 173.008 120.292 172.622 119.39 172.622C119.261 172.622 119.261 172.622 119.132 172.622C117.198 172.751 115.264 172.751 113.459 172.751C111.783 172.751 110.107 172.751 108.431 172.622L106.884 171.335ZM0.128922 0L1.16035 0.772358C0.77356 1.28726 0.515717 1.93089 0.128922 2.4458V0ZM15.4717 77.107C16.1163 75.0474 17.7924 75.3049 18.8239 75.4336H19.2107C20.371 75.5623 20.7578 76.4634 21.0157 77.107C21.1446 77.2358 21.1446 77.4932 21.2736 77.6219C21.4025 77.8794 21.5314 78.2656 21.2736 79.0379C20.8868 79.939 19.7264 81.0976 18.8239 81.2263C18.566 81.2263 18.4371 81.2263 18.1792 81.2263C15.9874 81.2263 15.2138 79.2954 14.956 78.6518C14.956 78.523 14.956 78.523 14.956 78.3943C14.956 78.0081 15.0849 77.6219 15.2138 77.4932C15.4717 77.2358 15.4717 77.107 15.4717 77.107ZM16.2453 78.2656C16.761 79.6816 17.4056 80.0677 18.6949 79.939C19.2107 79.8103 20.2421 78.6518 20.2421 78.2656C20.1132 78.0081 19.9843 77.7507 19.8553 77.4932C19.5975 76.8496 19.4685 76.5921 19.0817 76.5921H18.6949C18.3082 76.5921 18.0503 76.4634 17.7924 76.4634C17.1478 76.4634 16.8899 76.7209 16.632 77.3645C16.632 77.6219 16.5031 77.7507 16.3742 77.8794C16.3742 78.0081 16.2453 78.1368 16.2453 78.2656C16.2453 78.1368 16.2453 78.1368 16.2453 78.2656ZM66.6572 102.466C67.8176 102.852 68.2044 104.011 68.4622 104.912V105.041C68.7201 106.07 67.1729 108.001 66.5283 108.259C66.2704 108.388 66.0126 108.388 65.6258 108.388C64.5943 108.388 63.4339 107.873 62.9182 106.972C62.9182 106.843 62.7893 106.843 62.7893 106.714C62.5314 106.328 62.2736 105.942 62.1446 105.427V105.298C62.0157 104.783 62.2736 104.397 62.5314 104.268C63.5629 102.595 64.8522 101.951 66.6572 102.466ZM63.4339 105.298C63.4339 105.556 63.6918 105.813 63.8207 106.07C63.9497 106.199 63.9497 106.328 64.0786 106.457C64.4654 106.972 65.4968 107.358 66.1415 107.1C66.5283 106.972 67.3019 105.684 67.3019 105.427V105.298C67.044 104.397 66.7861 103.882 66.2704 103.753C66.0126 103.625 65.6258 103.625 65.4968 103.625C64.7233 103.625 64.2075 104.011 63.6918 104.912C63.6918 105.041 63.5629 105.041 63.4339 105.169V105.298ZM50.5409 110.19C50.283 109.804 50.0251 109.417 49.8962 109.031C49.2516 108.001 48.6069 106.972 48.0912 105.813C48.0912 105.684 47.9622 105.556 48.0912 105.427V105.298C48.2201 104.14 48.7358 103.367 49.3805 102.595C49.6383 102.337 49.7673 101.951 50.0251 101.565C50.6698 100.407 51.3144 99.248 52.088 98.0894C53.1195 96.2873 54.2799 94.4851 55.0535 92.6829C56.3428 89.9797 58.5346 89.8509 60.5975 89.9797C63.8207 90.1084 67.1729 90.1084 70.5251 89.9797C71.4277 89.9797 72.2012 89.9797 72.9748 90.1084H73.6195C74.2641 90.1084 74.522 90.6233 74.7798 90.8808L74.9088 91.0095C75.9402 92.6829 76.9717 94.3564 77.8742 96.0298C78.6478 97.4458 79.5503 98.9905 80.4528 100.407C80.7107 100.793 80.9685 101.308 81.2264 101.694C81.6132 102.337 81.871 102.852 82.2578 103.367C83.1604 104.526 83.1604 105.684 82.3868 106.843C80.8396 109.417 79.2924 111.992 77.8742 114.566L77.2295 115.596C76.5849 116.626 75.9402 117.913 75.1666 119.201C74.522 120.359 73.6195 120.488 72.8459 120.488C67.8176 120.488 63.1761 120.359 58.6635 120.488H58.5346C57.1163 120.488 56.3428 119.973 55.6981 118.814C54.1509 115.982 52.4748 113.15 50.7987 110.19H50.5409ZM51.5723 109.546L51.7012 109.804C53.3773 112.635 54.9245 115.467 56.6006 118.428C57.1163 119.201 57.5031 119.458 58.5346 119.458C60.7264 119.458 62.9182 119.458 65.239 119.458C67.6887 119.458 70.1383 119.458 72.8459 119.458C73.4905 119.458 73.8773 119.329 74.0063 118.814C74.6509 117.527 75.4245 116.24 76.0692 115.081L76.7138 114.051C78.261 111.477 79.6792 108.902 81.2264 106.328C81.7421 105.556 81.7421 104.912 81.0975 104.14C80.7107 103.496 80.3239 102.852 80.066 102.337C79.8082 101.951 79.5503 101.436 79.2924 101.05C78.3899 99.6341 77.4874 98.0894 76.7138 96.6734C75.8113 95 74.7799 93.3266 73.7484 91.7818L73.6195 91.6531C73.6195 91.5244 73.4905 91.3957 73.4905 91.3957H72.8459C72.0723 91.3957 71.2987 91.2669 70.5251 91.2669C67.044 91.3957 63.6918 91.3957 60.4685 91.2669C58.5346 91.1382 57.1163 91.2669 56.0849 93.3266C55.1824 95.2574 54.1509 97.0596 52.9906 98.8618C52.3459 100.02 51.5723 101.179 50.9277 102.337C50.6698 102.724 50.4119 103.11 50.283 103.496C49.7673 104.14 49.3805 104.783 49.2516 105.556C49.7673 106.585 50.283 107.615 50.9277 108.516C51.0566 108.774 51.3144 109.16 51.5723 109.546ZM113.201 183.95H113.588C114.748 184.079 115.135 184.98 115.393 185.623C115.522 185.752 115.522 186.009 115.651 186.138C115.78 186.396 115.909 186.782 115.651 187.554C115.264 188.455 114.104 189.614 113.201 189.743C112.943 189.743 112.814 189.743 112.557 189.743C110.365 189.743 109.591 187.812 109.333 187.168C109.333 187.039 109.333 187.039 109.333 186.911C109.333 186.524 109.462 186.138 109.591 186.009C109.591 185.881 109.72 185.881 109.72 185.752C110.365 183.435 112.041 183.692 113.201 183.95ZM110.623 186.782C111.138 188.198 111.783 188.584 113.072 188.455C113.588 188.327 114.619 187.168 114.619 186.782C114.491 186.524 114.362 186.267 114.233 186.009C113.975 185.366 113.846 185.108 113.459 185.108H113.072C112.686 185.108 112.428 184.98 112.17 184.98C111.525 184.98 111.267 185.237 111.009 185.881C111.009 186.138 110.88 186.267 110.752 186.396C110.752 186.524 110.623 186.653 110.623 186.782C110.623 186.653 110.623 186.653 110.623 186.782ZM75.2956 145.976C75.5534 146.362 75.6824 146.748 75.9402 147.005L72.4591 144.302C73.7484 144.302 74.6509 144.817 75.2956 145.976ZM79.9371 210.725C79.6792 210.339 79.4214 209.824 79.1635 209.438C78.261 208.022 77.4874 206.606 76.7138 205.19L77.7453 204.417C78.5188 205.833 79.4214 207.378 80.3239 208.794C80.5817 209.18 80.8396 209.695 81.0975 210.081C81.4843 210.725 81.7421 211.24 82.1289 211.755C83.0314 212.913 83.0314 214.072 82.2578 215.23C80.7107 217.805 79.1635 220.379 77.7453 222.954L77.1006 223.984C76.4559 225.014 75.8113 226.301 75.0377 227.588C74.3931 228.747 73.4906 228.875 72.717 228.875C68.3333 228.875 63.4339 228.747 58.5346 228.875H58.4056C56.9874 228.875 56.2138 228.36 55.5692 227.202C54.9245 225.915 54.1509 224.756 53.3773 223.469L54.4088 222.696C55.1824 223.984 55.956 225.271 56.6006 226.558C57.1163 227.331 57.5031 227.717 58.5346 227.588C60.7264 227.588 63.0471 227.588 65.239 227.588C67.8176 227.588 70.3962 227.588 72.717 227.588C73.3616 227.588 73.7484 227.459 73.8773 226.944C74.522 225.657 75.2956 224.37 75.9402 223.211L76.5849 222.182C78.1321 219.607 79.5503 217.033 81.0975 214.458C81.6132 213.686 81.6132 213.042 80.9685 212.27C80.7107 212.012 80.3239 211.369 79.9371 210.725ZM33.6509 239.302L34.6824 238.53L35.327 239.56C35.8427 240.461 35.8427 241.491 35.327 242.392C34.5534 243.808 33.7798 245.095 32.8773 246.511C32.1038 247.798 31.4591 249.085 30.6855 250.373C30.2987 251.016 29.9119 251.66 29.5251 252.304C29.0094 253.205 28.4937 253.977 27.978 254.878C27.3333 256.037 26.5597 256.294 25.5283 256.165C21.1446 256.165 16.632 256.165 12.2484 256.165L13.7956 254.878C15.3428 254.878 16.8899 254.878 18.3082 254.878C20.7579 254.878 23.0786 254.878 25.5283 254.878C26.3018 254.878 26.5597 254.749 26.9465 254.106C27.4622 253.333 27.978 252.432 28.3648 251.66C28.7516 251.016 29.1383 250.373 29.5251 249.6C30.2987 248.313 31.0723 247.026 31.717 245.738C32.4906 244.322 33.2641 243.035 34.1666 241.619C34.4245 241.104 34.4245 240.589 34.1666 240.075L33.6509 239.302ZM0.902512 348.076C1.6761 347.947 1.93393 347.303 2.44966 346.402C2.57858 346.145 2.70753 346.016 2.83647 345.759C3.61006 344.472 4.25468 343.184 5.02827 341.897C6.05972 340.095 7.22009 338.164 8.25154 336.233C9.02513 334.817 9.92764 334.173 11.4748 334.302C15.4717 334.431 19.5975 334.431 23.4654 334.302H23.8522L22.305 335.589C18.6949 335.589 15.0849 335.589 11.4748 335.589C10.3144 335.589 9.79874 335.847 9.28302 336.877C8.25157 338.808 7.09119 340.738 6.05974 342.669C5.28616 343.957 4.51256 345.244 3.8679 346.531C3.73897 346.66 3.73895 346.917 3.61003 347.046C3.22324 347.947 2.70752 349.106 1.28929 349.363C0.902496 349.492 0.644623 349.234 0.515701 348.848C0.386765 348.462 0.515717 348.205 0.902512 348.076ZM110.107 130.786L110.236 130.528C110.88 129.627 112.686 129.112 113.717 129.499C114.877 130.014 115.651 131.172 115.651 132.331C115.651 133.36 115.006 134.648 113.717 135.163C113.459 135.291 113.072 135.291 112.814 135.291C111.783 135.291 110.623 134.776 110.107 134.004C109.978 133.747 109.72 133.489 109.591 133.103L109.333 132.717C109.333 132.588 109.204 132.459 109.204 132.331C109.204 132.331 109.204 132.202 109.204 132.073C109.591 131.687 109.849 131.301 110.107 130.786ZM110.752 132.717C110.88 132.974 111.009 133.232 111.138 133.489C111.525 134.004 112.686 134.39 113.201 134.133C113.975 133.747 114.362 132.974 114.362 132.459C114.362 131.944 113.975 131.043 113.201 130.786C113.072 130.786 112.943 130.657 112.814 130.657C112.299 130.657 111.525 130.915 111.267 131.301L111.138 131.558C110.88 131.816 110.752 132.202 110.623 132.459L110.752 132.717ZM2.44966 292.08C3.22324 290.535 4.12576 288.99 5.02827 287.574C6.18864 285.644 7.34903 283.584 8.38048 281.524C9.02513 280.366 10.0566 279.722 11.4748 279.851C14.0534 279.98 16.5031 279.98 19.5975 279.98C21.4025 279.98 23.0786 279.98 24.8836 279.851C26.4308 279.722 27.4622 280.366 28.2358 281.782C30.1698 285.257 32.2327 288.733 34.2956 292.08L35.1981 293.496C35.8427 294.654 35.8427 295.684 35.1981 296.843L34.2956 298.259C32.2327 301.606 30.1698 305.081 28.2358 308.557C27.4622 309.973 26.5597 310.488 25.1415 310.488C25.0126 310.488 25.0125 310.488 24.8836 310.488C22.4339 310.359 19.8553 310.359 16.5031 310.359C14.9559 310.359 13.4088 310.359 11.3459 310.488C10.0566 310.617 9.02515 310.102 8.50941 308.943C6.96225 306.111 5.28613 303.408 3.73897 300.576L1.28929 296.199C1.16035 296.07 1.16034 295.813 1.0314 295.684L0.902512 295.427C0.902512 295.298 0.902512 295.169 0.902512 295.169V295.041C1.03145 294.14 1.54715 293.496 1.93394 292.852C2.06287 292.724 2.19179 292.337 2.44966 292.08ZM2.06288 295.427C2.06288 295.556 2.19182 295.684 2.19182 295.813L4.64149 300.19C6.18866 303.022 7.86475 305.725 9.41191 308.557C9.79871 309.201 10.3145 309.458 11.217 309.458C13.2799 309.329 14.956 309.329 16.3742 309.329C19.7264 309.329 22.305 309.329 24.7547 309.458C25.9151 309.458 26.4308 309.201 26.9465 308.171C28.8805 304.695 30.9434 301.091 33.0063 297.744L33.9088 296.328C34.4245 295.556 34.4245 295.041 33.9088 294.268L33.0063 292.852C30.9434 289.505 28.8805 286.03 26.9465 282.425C26.4308 281.524 25.9151 281.138 25.0125 281.138C24.8836 281.138 24.8836 281.138 24.7547 281.138C22.9497 281.267 21.2736 281.267 19.4685 281.267C16.3742 281.267 13.9245 281.267 11.3459 281.138C10.3144 281.138 9.79871 281.396 9.41191 282.168C8.38046 284.228 7.22012 286.287 6.05974 288.218C5.15723 289.634 4.25471 291.179 3.48112 292.724C3.3522 293.11 3.09433 293.367 2.83647 293.625C2.44968 294.14 2.19182 294.654 2.06288 295.427ZM100.437 122.934L101.082 121.775C101.726 120.745 102.242 119.715 102.887 118.557C103.531 117.398 104.305 117.141 105.336 117.141C110.107 117.141 114.877 117.141 119.648 117.141C120.679 117.141 121.453 117.398 122.097 118.557C123.387 120.874 124.805 123.191 126.094 125.508C126.61 126.409 127.126 127.182 127.641 128.083L129.447 131.043C129.962 131.944 129.962 132.974 129.447 133.875C128.673 135.291 127.899 136.579 126.997 137.995C126.223 139.282 125.579 140.569 124.805 141.856C124.418 142.5 124.031 143.144 123.645 143.787C123.129 144.688 122.742 145.461 122.097 146.362C121.453 147.52 120.679 147.649 119.648 147.649C114.877 147.649 110.107 147.649 105.336 147.649C104.305 147.649 103.531 147.392 102.887 146.233C101.984 144.688 101.211 143.272 100.308 141.728C99.2767 140.054 98.3742 138.381 97.3427 136.579C97.0849 136.192 96.827 135.806 96.6981 135.42C96.1824 134.519 95.6666 133.747 95.2799 132.717C95.2799 132.588 95.1509 132.459 95.2799 132.331C95.2799 132.202 95.2799 132.073 95.2799 131.944C96.3113 129.756 97.6006 127.568 98.761 125.508C99.2767 124.864 99.9214 123.835 100.437 122.934ZM97.7295 134.905C97.9874 135.291 98.2453 135.677 98.3742 136.064C99.4056 137.737 100.308 139.411 101.34 141.213C102.242 142.757 103.016 144.173 103.918 145.718C104.305 146.362 104.563 146.491 105.336 146.491C107.657 146.491 110.107 146.491 112.557 146.491C115.006 146.491 117.327 146.491 119.777 146.491C120.421 146.491 120.808 146.362 121.195 145.718C121.711 144.946 122.226 144.045 122.613 143.272C123 142.629 123.387 141.985 123.774 141.213C124.547 139.925 125.321 138.638 125.965 137.351C126.739 135.935 127.513 134.648 128.415 133.232C128.673 132.717 128.673 132.202 128.415 131.687L126.61 128.726C126.094 127.825 125.579 127.053 125.063 126.152C123.774 123.835 122.355 121.518 121.066 119.201C120.679 118.557 120.421 118.428 119.648 118.428C114.877 118.428 109.978 118.428 105.336 118.428C104.563 118.428 104.305 118.557 103.918 119.201C103.274 120.23 102.758 121.26 102.113 122.29L101.469 123.449C100.953 124.35 100.308 125.379 99.7924 126.28C98.6321 128.211 97.3427 130.271 96.4402 132.459C96.827 133.36 97.3427 134.133 97.7295 134.905ZM2.83647 50.4607C13.022 50.332 23.3365 50.332 33.522 50.4607C33.522 50.332 33.6509 50.0745 33.7799 49.9458C36.8742 44.668 39.9685 39.2615 43.0629 33.855L44.0943 34.6274C41 39.9051 37.9056 45.3116 34.8113 50.5894C34.5534 50.9756 34.6824 51.2331 34.8113 51.6192C37.7767 56.3821 40.4843 61.2737 43.1918 66.0366C44.4811 68.2249 45.6415 70.4133 46.9308 72.6016C47.5754 73.7602 48.349 74.9187 48.9937 76.206L49.7673 77.6219H80.5817L81.4843 76.206C82.1289 75.0474 82.9025 73.8889 83.5471 72.7303C84.4497 71.1856 85.3522 69.6409 86.2547 68.0962L87.2861 68.8686C86.3836 70.4133 85.61 71.8293 84.7075 73.374C84.0629 74.5325 83.2893 75.6911 82.6446 76.8496L81.871 78.2656L84.9654 83.6721C88.0597 89.0786 91.1541 94.6138 94.3773 100.02C94.6352 100.406 94.8931 100.921 95.1509 101.436C95.6666 102.466 96.1824 103.367 96.827 104.268C96.956 104.397 97.0849 104.654 97.0849 104.783C107.27 104.912 117.585 104.912 127.77 104.783C127.899 104.526 127.899 104.397 128.028 104.268C128.544 103.625 128.931 102.852 129.318 102.209L130.349 102.981C129.962 103.753 129.575 104.397 128.931 105.041C128.802 105.298 128.673 105.556 128.931 105.942C133.314 113.537 138.085 121.775 143.629 131.301C144.016 131.944 144.402 132.073 145.176 132.073C152.525 132.073 160.003 132.073 167.352 132.073L168.899 133.232C161.035 133.232 153.041 133.232 145.176 133.232C144.918 133.232 144.531 133.232 144.145 133.103L141.308 137.995C137.182 145.075 133.186 152.154 129.06 159.234C128.802 159.621 128.931 159.878 129.06 160.264C131.896 165.027 134.733 169.919 137.44 174.682C138.73 176.87 139.89 179.058 141.179 181.247C141.953 182.534 142.597 183.821 143.371 184.98L144.145 186.138H175.217L177.28 182.534C178.311 180.603 179.472 178.672 180.503 176.87C183.469 171.721 186.563 166.443 189.657 161.165C190.431 159.749 190.173 159.106 189.528 157.818C186.692 152.927 183.597 147.778 180.245 141.856L182.824 143.916C185.66 148.808 188.11 153.184 190.56 157.304C190.947 157.947 191.204 158.462 191.333 159.234C194.943 159.234 198.425 159.234 202.035 159.106L203.582 160.264C199.456 160.264 195.459 160.264 191.333 160.393C191.204 160.908 191.075 161.294 190.689 161.938C187.594 167.087 184.5 172.364 181.535 177.514C180.503 179.444 179.343 181.375 178.311 183.178L176.248 186.782L179.343 192.188C181.921 196.694 184.5 201.199 187.208 205.833L186.176 206.606C183.469 201.972 180.761 197.337 178.182 192.832L175.088 187.425H144.274L141.179 192.832C138.085 198.238 134.991 203.774 131.767 209.18C131.509 209.566 131.252 210.081 130.994 210.467C130.478 211.497 129.833 212.527 129.189 213.428C129.06 213.686 128.931 213.943 129.189 214.329C133.572 221.924 138.214 229.905 143.887 239.688L144.016 239.817L143.113 240.589C142.984 240.461 142.984 240.461 142.855 240.332C137.311 230.677 132.67 222.568 128.157 214.973C128.028 214.844 128.028 214.587 127.899 214.458C122.742 214.587 117.714 214.587 112.557 214.587C107.399 214.587 102.242 214.587 97.2138 214.458C97.2138 214.587 97.0849 214.844 96.956 214.973C93.088 221.538 89.349 228.103 85.4811 234.797L82.9025 239.302C82.6446 239.817 82.3868 240.332 82.1289 240.718L81.871 241.104C82.1289 241.362 82.3868 241.619 82.5157 242.005C87.9308 251.531 92.1855 258.74 96.1824 265.691C96.5692 266.335 96.827 266.85 96.956 267.622C100.824 267.622 104.821 267.493 108.689 267.493L107.141 268.78C103.789 268.78 100.308 268.78 96.956 268.909C96.827 269.424 96.6981 269.81 96.3113 270.454C93.7327 274.702 91.283 279.079 88.8333 283.327L86.2547 285.386C89.2201 280.237 92.1855 274.959 95.2799 269.939C96.0534 268.523 95.7956 267.879 95.1509 266.592C91.1541 259.641 86.8994 252.432 81.4843 242.906C80.9685 242.134 80.5817 241.877 79.6792 241.877C70.1383 241.877 60.5975 241.877 51.0566 241.877C50.7987 241.877 50.4119 241.877 50.0251 241.748L47.0597 247.026C43.0629 253.977 38.9371 261.057 34.9402 268.008C34.6824 268.394 34.8113 268.652 34.9402 269.038C37.9057 273.801 40.6132 278.692 43.3207 283.455C44.61 285.644 45.7704 287.832 47.0597 290.02C47.7044 291.179 48.478 292.337 49.1226 293.625L49.8962 295.041H74.2641L72.717 296.328H50.0251L46.9308 301.606C43.8365 307.012 40.6132 312.547 37.3899 317.954C37.132 318.34 36.8742 318.855 36.6163 319.241C36.1006 320.271 35.5849 321.301 34.8113 322.202C34.6824 322.459 34.5534 322.588 34.8113 322.974C35.1981 323.618 35.5849 324.262 35.9717 325.034L34.9402 325.806C34.5535 325.034 34.1667 324.39 33.6509 323.618C33.522 323.489 33.522 323.36 33.522 323.232C28.3648 323.36 23.3365 323.36 18.1792 323.36C13.022 323.36 7.86478 323.36 2.83647 323.232C2.83647 323.36 2.70753 323.489 2.70753 323.618C1.80502 325.163 0.902496 326.707 -1.52588e-05 328.123V325.677C0.515701 324.776 1.03145 323.875 1.54716 322.974C1.80502 322.588 1.6761 322.331 1.54716 322.202C0.902512 321.43 0.386765 320.528 -1.52588e-05 319.627V317.053C-1.52588e-05 317.053 -1.52588e-05 317.182 0.128922 317.182C0.38678 317.696 0.644653 318.083 0.902512 318.598C1.41823 319.627 1.93394 320.528 2.5786 321.43C2.70752 321.558 2.83647 321.816 2.83647 321.944C13.022 322.073 23.3365 322.073 33.522 321.944C33.6509 321.816 33.6509 321.558 33.7799 321.43C34.4245 320.528 34.9402 319.627 35.4559 318.598C35.7138 318.083 35.9717 317.696 36.2296 317.182C39.4528 311.775 42.6761 306.111 45.6415 300.833L48.7358 295.427L47.9623 294.011C47.3176 292.852 46.544 291.694 45.8994 290.406C44.61 288.218 43.3208 286.03 42.1604 283.841C39.4528 279.079 36.6163 274.187 33.7799 269.424C33.6509 269.295 33.6509 269.167 33.522 268.909C23.2075 268.78 12.8931 268.78 2.5786 268.909C2.44966 269.424 2.32074 269.81 1.93394 270.454C1.28929 271.612 0.644638 272.642 -1.52588e-05 273.801V271.355C0.257843 270.84 0.644653 270.325 0.902512 269.81C1.6761 268.394 1.41823 267.751 0.773575 266.463C0.644638 266.206 0.515717 265.948 0.257858 265.691L1.28929 264.919C1.41821 265.176 1.67607 265.562 1.80501 265.82C2.19179 266.463 2.44966 266.978 2.5786 267.751C12.8931 267.622 23.2075 267.622 33.522 267.751C33.522 267.622 33.6509 267.365 33.7799 267.236C37.9057 260.285 41.9025 253.333 45.8994 246.253L48.8647 240.976C48.7358 240.847 48.478 240.589 48.349 240.332C46.544 237.243 44.9968 234.411 43.3207 231.707L44.3522 230.935C46.0283 233.767 47.7044 236.599 49.3805 239.817C49.7673 240.461 50.1541 240.589 50.9277 240.589C60.4685 240.589 70.0094 240.589 79.5503 240.589C79.9371 240.589 80.3239 240.718 80.7107 240.718L80.9685 240.332C81.2264 239.817 81.4843 239.302 81.7421 238.916L84.3207 234.411C88.1887 227.846 91.9276 221.152 95.7956 214.587C96.0534 214.072 95.9245 213.943 95.7956 213.686C95.022 212.785 94.5063 211.755 93.9905 210.725C93.7327 210.339 93.4748 209.824 93.217 209.438C91.0251 205.576 88.7044 201.714 86.5126 197.852L87.544 197.08C89.7358 200.942 92.0566 204.932 94.3773 208.794C94.6352 209.18 94.8931 209.695 95.1509 210.21C95.6666 211.24 96.1824 212.141 96.827 213.042C96.956 213.171 97.0849 213.428 97.0849 213.557C107.27 213.686 117.585 213.686 127.77 213.557C127.899 213.299 127.899 213.171 128.028 213.042C128.673 212.141 129.189 211.24 129.704 210.21C129.962 209.695 130.22 209.309 130.478 208.794C133.701 203.388 136.796 197.852 139.89 192.446L142.984 187.039L142.34 185.881C141.566 184.593 140.921 183.435 140.148 182.148C138.858 179.959 137.569 177.771 136.409 175.583C133.701 170.82 130.865 165.928 128.028 161.165C127.899 161.037 127.899 160.908 127.77 160.65C117.456 160.522 107.141 160.522 96.827 160.65C96.6981 161.165 96.5692 161.551 96.1824 162.195C96.0534 162.453 95.7956 162.839 95.6667 163.096L94.6352 162.324C94.7641 162.066 94.8931 161.809 95.1509 161.551C95.9245 160.135 95.6667 159.492 95.022 158.205C91.0251 151.382 86.7704 144.045 81.3553 134.519C80.8396 133.747 80.4528 133.489 79.5503 133.489C72.4591 133.489 65.239 133.489 58.1478 133.489L56.6006 132.331C64.2075 132.331 71.9434 132.331 79.5503 132.331C79.9371 132.331 80.3239 132.459 80.7107 132.459L80.9685 131.944C81.2264 131.43 81.4843 131.043 81.7421 130.528L84.3207 126.023C88.1887 119.329 92.0566 112.764 95.9245 106.07C96.1824 105.684 96.0534 105.427 95.9245 105.169C95.1509 104.268 94.6352 103.238 94.1195 102.209C93.8616 101.822 93.6038 101.308 93.3459 100.921C90.1226 95.5149 87.0283 89.9797 83.9339 84.5732L80.8396 79.1667H50.0251L46.9308 84.4444C43.8365 89.8509 40.6132 95.3862 37.3899 100.921C37.132 101.308 36.8742 101.822 36.6163 102.209C36.1006 103.238 35.4559 104.268 34.8113 105.169C34.6824 105.427 34.5534 105.684 34.8113 106.07C37.7767 111.22 41 116.626 44.3522 122.547L41.7736 120.488C38.9371 115.596 36.3585 111.091 33.7799 106.714C33.6509 106.585 33.6509 106.328 33.522 106.199C30.2987 106.199 26.9465 106.328 23.5943 106.328L22.0471 105.169C25.9151 105.169 29.6541 105.169 33.3931 105.041C33.522 104.783 33.522 104.654 33.6509 104.526C34.2956 103.625 34.8113 102.724 35.327 101.694C35.5849 101.179 35.8427 100.793 36.1006 100.407C39.3239 95 42.5471 89.336 45.6415 83.9295L48.7358 78.6518L47.9623 77.2358C47.3176 76.0772 46.544 74.9187 45.8994 73.6314C44.61 71.4431 43.3208 69.2547 42.1604 67.0664C39.4528 62.3035 36.6163 57.4119 33.7799 52.6491C33.6509 52.5203 33.6509 52.3916 33.522 52.1341C23.3365 52.0054 13.022 52.0054 2.70753 52.1341C2.5786 52.2629 2.57858 52.5203 2.44966 52.6491C1.54713 54.065 0.77356 55.6098 -0.128952 57.0257V54.5799C0.386765 53.6789 0.902496 52.7778 1.41823 52.0054C1.67609 51.6192 1.67609 51.3618 1.41823 50.9756C0.902496 50.0745 0.386765 49.1734 -0.128952 48.2724V45.8266C0.77356 47.3713 1.67607 48.916 2.44966 50.332C2.83646 50.2032 2.83647 50.332 2.83647 50.4607ZM85.4811 126.28L82.9025 130.786C82.6446 131.301 82.3868 131.687 82.1289 132.202L81.871 132.717C82.1289 132.974 82.3868 133.232 82.5157 133.618C87.9308 143.144 92.1855 150.352 96.1824 157.304C96.5692 157.947 96.827 158.462 96.956 159.234C107.27 159.106 117.585 159.106 127.899 159.234C127.899 159.106 128.028 158.848 128.157 158.72C132.283 151.64 136.409 144.56 140.406 137.48L143.242 132.588C143.113 132.459 142.855 132.202 142.726 131.944C137.311 122.547 132.541 114.18 128.028 106.585C127.899 106.457 127.899 106.199 127.77 106.07C122.613 106.199 117.585 106.199 112.428 106.199C107.27 106.199 102.113 106.199 97.0849 106.07C97.0849 106.199 96.956 106.457 96.827 106.585C93.088 113.022 89.349 119.587 85.4811 126.28ZM15.4717 294.14C16.1163 292.08 17.7924 292.337 18.8239 292.466H19.2107C20.371 292.595 20.7578 293.496 21.0157 294.14C21.1446 294.268 21.1446 294.526 21.2736 294.654C21.4025 294.912 21.5314 295.298 21.2736 296.07C20.8868 296.972 19.7264 298.13 18.8239 298.259C18.566 298.259 18.4371 298.259 18.1792 298.259C15.9874 298.259 15.2138 296.328 14.956 295.684C14.956 295.556 14.956 295.556 14.956 295.427C14.956 295.041 15.0849 294.654 15.2138 294.526C15.4717 294.268 15.4717 294.14 15.4717 294.14ZM16.2453 295.298C16.761 296.714 17.4056 297.1 18.6949 296.972C19.2107 296.843 20.2421 295.684 20.2421 295.298C20.1132 295.041 19.9843 294.783 19.8553 294.526C19.5975 293.882 19.4685 293.625 19.0817 293.625H18.6949C18.3082 293.625 18.0503 293.496 17.7924 293.496C17.1478 293.496 16.8899 293.753 16.632 294.397C16.632 294.654 16.5031 294.783 16.3742 294.912C16.3742 295.041 16.2453 295.169 16.2453 295.298ZM142.34 213.943C142.469 212.656 142.984 211.883 143.629 211.111C143.887 210.725 144.016 210.467 144.274 210.081C144.918 208.923 145.563 207.764 146.336 206.606C147.368 204.804 148.528 203.001 149.302 201.199C150.591 198.496 152.783 198.367 154.846 198.496C158.069 198.625 161.421 198.625 164.774 198.496C165.676 198.496 166.45 198.496 167.223 198.625H167.868C168.513 198.625 168.77 199.14 169.028 199.397L169.157 199.526C170.189 201.199 171.22 202.873 172.123 204.546C172.896 205.962 173.799 207.507 174.701 208.923C174.959 209.309 175.217 209.824 175.475 210.21C175.862 210.854 176.119 211.369 176.506 211.883C176.893 212.527 177.151 213.042 177.151 213.686L175.475 214.973L175.604 214.844C176.119 214.072 176.119 213.428 175.475 212.656C175.088 212.012 174.701 211.369 174.443 210.854C174.186 210.467 173.928 209.953 173.67 209.566C172.767 208.15 171.865 206.606 171.091 205.19C170.189 203.516 169.157 201.843 168.126 200.298L167.997 200.169C167.997 200.041 167.868 199.912 167.868 199.912H167.094C166.321 199.912 165.547 199.783 164.774 199.783C161.292 199.912 157.94 199.912 154.717 199.783C152.783 199.654 151.365 199.783 150.333 201.843C149.431 203.774 148.399 205.576 147.239 207.378C146.594 208.537 145.821 209.695 145.176 210.854C144.918 211.24 144.789 211.626 144.531 212.012C144.016 212.656 143.629 213.299 143.5 214.072C144.016 215.102 144.531 216.003 145.176 217.033C145.434 217.419 145.692 217.805 145.95 218.191L146.079 218.32C147.755 221.152 149.431 224.112 150.978 226.944C151.494 227.717 151.88 228.103 152.912 227.974C154.975 227.974 157.038 227.974 159.101 227.974L157.553 229.262C156.006 229.262 154.459 229.262 152.912 229.262H152.783C151.365 229.262 150.591 228.747 149.947 227.588C148.399 224.756 146.723 221.795 145.047 218.963L144.918 218.835C144.66 218.449 144.402 218.062 144.145 217.676C143.5 216.646 142.855 215.617 142.34 214.458C142.34 214.201 142.34 214.072 142.34 213.943ZM204.226 185.623C204.871 183.564 206.547 183.821 207.579 183.95H207.965C209.126 184.079 209.513 184.98 209.77 185.623C209.899 185.881 209.899 186.009 210.028 186.138C210.157 186.396 210.286 186.782 210.028 187.554C209.899 187.812 209.77 187.94 209.641 188.198L207.708 189.743H207.579C207.321 189.743 207.192 189.743 206.934 189.743C204.742 189.743 203.969 187.812 203.711 187.168C203.711 187.039 203.711 187.039 203.711 186.911C203.711 186.524 203.84 186.138 203.969 186.009C204.097 185.752 204.097 185.623 204.226 185.623ZM205 186.782C205.516 188.198 206.16 188.584 207.45 188.455C207.965 188.327 208.997 187.168 208.997 186.782C208.868 186.524 208.739 186.267 208.61 186.009C208.352 185.366 208.223 185.108 207.836 185.108H207.45C207.063 185.108 206.805 184.98 206.547 184.98C205.902 184.98 205.645 185.237 205.387 185.881C205.387 186.138 205.258 186.267 205.129 186.396C205 186.524 205 186.653 205 186.782C205 186.653 205 186.653 205 186.782ZM105.336 256.165C104.305 256.165 103.531 255.908 102.887 254.749C101.984 253.205 101.211 251.789 100.308 250.244C99.2767 248.57 98.3742 246.768 97.3427 245.095C97.0849 244.709 96.827 244.322 96.6981 243.936C96.1824 243.035 95.6666 242.263 95.2799 241.233C95.2799 241.104 95.1509 240.976 95.2799 240.847C95.2799 240.718 95.2799 240.589 95.2799 240.461C96.3113 238.272 97.6006 236.084 98.761 234.024C99.2767 233.123 99.9214 232.222 100.437 231.192L101.082 230.034C101.726 229.004 102.242 227.846 102.887 226.816C103.531 225.657 104.305 225.4 105.336 225.4C110.107 225.4 114.877 225.4 119.648 225.4C120.808 225.4 121.453 225.657 122.097 226.816C123.387 229.133 124.805 231.45 126.094 233.767C126.61 234.668 127.126 235.44 127.641 236.341L129.447 239.302C129.962 240.203 129.962 241.233 129.447 242.134C128.673 243.55 127.899 244.837 126.997 246.253C126.223 247.541 125.579 248.828 124.805 250.115C124.418 250.759 124.031 251.402 123.645 252.046C123.129 252.947 122.613 253.719 122.097 254.621C121.453 255.779 120.679 256.037 119.648 255.908C115.006 256.165 110.107 256.165 105.336 256.165ZM119.777 255.007C120.421 255.007 120.808 254.878 121.195 254.234C121.711 253.462 122.226 252.561 122.613 251.789C123 251.145 123.387 250.501 123.774 249.729C124.547 248.442 125.321 247.154 125.965 245.867C126.739 244.451 127.513 243.164 128.415 241.748C128.673 241.233 128.673 240.718 128.415 240.203L126.61 237.243C126.094 236.341 125.579 235.569 125.063 234.668C123.774 232.351 122.355 230.034 121.066 227.717C120.679 227.073 120.421 226.944 119.648 226.944C114.877 226.944 110.107 226.944 105.336 226.944C104.563 226.944 104.305 227.073 103.918 227.717C103.274 228.747 102.758 229.776 102.113 230.935L101.469 232.093C100.953 232.995 100.308 234.024 99.7924 234.925C98.6321 236.856 97.3427 238.916 96.4402 241.104C96.827 241.877 97.3427 242.649 97.7295 243.421C97.9874 243.808 98.2453 244.194 98.3742 244.58C99.4056 246.253 100.308 248.056 101.34 249.729C102.242 251.274 103.016 252.69 103.918 254.234C104.305 254.878 104.563 255.007 105.336 255.007C107.657 255.007 110.107 255.007 112.557 255.007C115.006 255.007 117.327 255.007 119.777 255.007ZM65.7547 270.969C65.4968 270.969 65.3679 270.969 65.11 270.969C63.305 270.969 62.6604 269.553 62.2736 268.523C62.2736 268.394 62.2736 268.266 62.2736 268.266C62.2736 268.137 62.2736 268.137 62.2736 268.008C63.1761 265.691 63.5629 265.176 65.7547 265.176C66.3993 265.176 67.1729 265.562 67.6886 266.206C68.3333 266.85 68.5912 267.622 68.5912 268.266C68.5912 269.553 67.1729 270.711 65.7547 270.969ZM66.7861 266.978C66.3993 266.592 66.0126 266.335 65.6258 266.335C65.4968 266.335 65.3679 266.335 65.239 266.335C64.2075 266.335 64.0786 266.463 63.4339 268.266C63.9497 269.553 64.3365 270.068 65.4968 269.81C66.2704 269.682 67.3019 268.909 67.3019 268.137C67.4308 267.879 67.1729 267.364 66.7861 266.978ZM8.50941 92.0393C6.96225 89.2073 5.28613 86.5041 3.73897 83.6721L1.28929 79.2954C1.16035 79.1667 1.16034 78.9092 1.0314 78.7805L0.902512 78.523C0.902512 78.3943 0.902512 78.2656 0.902512 78.2656V78.1369C1.03145 77.2358 1.54715 76.5921 1.93394 75.9485C2.06287 75.6911 2.32072 75.4336 2.44966 75.1761C3.22324 73.6314 4.12576 72.0867 5.02827 70.6707C6.18864 68.7398 7.34903 66.6802 8.38048 64.6206C9.02513 63.4621 10.0566 62.8184 11.4748 62.9472C14.0534 63.0759 16.761 63.0759 19.2107 63.0759C21.1446 63.0759 22.9496 63.0759 24.8836 62.9472C26.4308 62.8184 27.4622 63.4621 28.2358 64.878C30.1698 68.3537 32.2327 71.8293 34.2956 75.3049L35.0692 76.7209C35.7138 77.8794 35.7138 78.9092 35.0692 80.0677L34.1666 81.4837C32.1038 84.8306 30.0408 88.3062 28.1069 91.7818C27.3333 93.1978 26.4308 93.7127 25.0125 93.7127C24.8836 93.7127 24.8836 93.7127 24.7547 93.7127C22.305 93.584 19.7264 93.584 16.3742 93.584C14.827 93.584 13.2799 93.584 11.217 93.7127C10.0566 93.584 9.15407 93.0691 8.50941 92.0393ZM16.5031 92.168C19.8553 92.168 22.4339 92.168 24.8836 92.2967C26.044 92.2967 26.5597 92.0393 27.0755 91.0095C29.0094 87.5339 31.0723 84.0583 33.1352 80.5826L34.0377 79.1667C34.5534 78.3943 34.5534 77.8794 34.0377 77.107L33.2641 75.6911C31.2012 72.3442 29.1384 68.7398 27.2044 65.2642C26.6887 64.3631 26.1729 63.977 25.2704 63.977C25.1415 63.977 25.1415 63.977 25.0125 63.977C23.0786 64.1057 21.1446 64.1057 19.3396 64.1057C16.8899 64.1057 14.3113 64.1057 11.6038 63.977C10.5723 63.977 10.0566 64.2344 9.66978 65.0068C8.63835 67.0664 7.47797 69.126 6.31758 71.0569C5.41507 72.4729 4.51254 74.0176 3.73897 75.5623C3.61003 75.9485 3.35217 76.206 3.09431 76.4634C2.70752 76.9783 2.32072 77.4932 2.32072 78.1369V78.2656C2.32072 78.3943 2.44966 78.523 2.44966 78.6518L4.89934 83.0285C6.4465 85.8604 8.12262 88.5637 9.66978 91.3957C10.0566 92.0393 10.5723 92.2967 11.4748 92.2967C13.4088 92.168 14.9559 92.168 16.5031 92.168ZM71.5566 283.584C68.5912 283.455 65.4968 283.455 62.5314 283.455C62.0157 283.455 61.371 283.455 60.8553 283.584C59.8239 283.713 58.6635 283.713 57.5031 283.455C56.9874 283.327 56.4717 283.327 56.0849 282.554C54.022 279.207 52.217 275.86 50.5409 273.028C50.283 272.514 50.0251 272.127 49.6384 271.612C48.9937 270.583 48.349 269.553 47.9623 268.394C47.9623 268.266 47.9623 268.266 47.9623 268.137C47.9623 268.008 47.9623 267.879 47.9623 267.751C48.9937 265.562 50.1541 263.503 51.4434 261.572C52.2169 260.413 52.8616 259.126 53.6352 257.839C53.8931 257.324 54.2798 256.68 54.6666 256.165C55.0534 255.522 55.4402 254.749 55.827 254.106C56.4717 252.947 57.3742 252.818 58.1478 252.818C62.1446 252.818 67.3019 252.818 72.588 252.818C73.7484 252.818 74.522 253.205 75.1666 254.363C76.327 256.551 77.6163 258.74 78.9056 260.928L80.3239 263.374C80.5817 263.76 80.7107 264.018 80.9685 264.404C81.3553 265.176 81.871 266.077 82.3868 266.85C83.0314 267.751 83.0314 268.78 82.3868 269.81C79.8082 273.93 77.4874 277.92 75.4245 281.911C74.6509 283.327 73.3616 283.584 72.3302 283.584C72.0723 283.584 71.8144 283.584 71.5566 283.584ZM74.2641 281.267C76.327 277.276 78.6478 273.286 81.3553 269.038C81.7421 268.394 81.7421 267.879 81.3553 267.364C80.8396 266.592 80.3239 265.691 79.8082 264.919C79.5503 264.533 79.4214 264.275 79.1635 263.889L77.7453 261.443C76.4559 259.255 75.1666 257.066 74.0063 254.878C73.6195 254.106 73.2327 253.977 72.4591 253.977C67.1729 254.106 61.8868 253.977 57.8899 253.977C57.1163 253.977 56.8585 254.106 56.6006 254.621C56.2138 255.393 55.827 256.037 55.4402 256.809C55.0534 257.324 54.7956 257.967 54.5377 258.482C53.8931 259.77 53.1195 261.057 52.3459 262.215C51.1855 264.146 50.0251 266.077 48.9937 268.137C49.2516 269.167 49.8962 269.939 50.4119 270.84C50.6698 271.355 51.0566 271.741 51.3144 272.256C52.8616 275.088 54.7956 278.435 56.8585 281.782C56.9874 282.039 57.1163 282.039 57.6321 282.168C58.5346 282.297 59.566 282.297 60.5975 282.168C61.1132 282.168 61.7578 282.039 62.2736 282.039H62.4025C65.3679 282.039 68.4622 282.039 71.5566 282.168C72.9748 282.425 73.7484 282.168 74.2641 281.267ZM110.107 239.431L110.236 239.173C110.88 238.272 112.686 237.757 113.717 238.144C114.877 238.659 115.651 239.817 115.651 240.976C115.651 242.005 115.006 243.293 113.717 243.808C113.459 243.936 113.072 243.936 112.814 243.936C111.783 243.936 110.623 243.421 110.107 242.649C109.978 242.392 109.72 242.134 109.591 241.748L109.333 241.362C109.333 241.233 109.204 241.104 109.204 240.976C109.204 240.976 109.204 240.847 109.204 240.718C109.591 240.203 109.849 239.817 110.107 239.431ZM110.752 241.233C110.88 241.49 111.009 241.748 111.138 242.005C111.525 242.649 112.686 242.906 113.201 242.778C113.975 242.392 114.362 241.619 114.362 241.104C114.362 240.461 113.975 239.688 113.201 239.431C113.072 239.431 112.943 239.302 112.814 239.302C112.299 239.302 111.525 239.56 111.267 239.946L111.138 240.203C110.88 240.461 110.752 240.847 110.623 241.104L110.752 241.233ZM18.8239 26.7751C18.566 26.7751 18.4371 26.7751 18.1792 26.7751C17.2767 26.7751 16.1163 26.5176 15.6006 24.9729C15.6006 24.8442 15.4717 24.7154 15.3427 24.5867C15.2138 24.458 15.2138 24.3293 15.0849 24.3293C14.956 24.2005 14.956 24.0718 14.956 23.9431C14.956 23.8144 14.956 23.8144 14.956 23.6856C15.0849 23.4282 15.2138 23.1707 15.3427 23.042C15.4717 22.9133 15.4717 22.7846 15.4717 22.7846C16.1163 20.8537 17.6635 21.1111 18.566 21.2398C18.6949 21.2398 18.9528 21.2398 19.0817 21.3686C20.2421 21.4973 20.7578 22.5271 21.0157 23.2995L21.1446 23.5569C21.4025 24.0718 21.2736 24.7154 20.7578 25.4878C20.5 26.0027 19.7264 26.7751 18.8239 26.7751ZM19.9843 23.6856C19.7264 22.9133 19.4685 22.6558 19.0817 22.5271C18.8239 22.5271 18.6949 22.5271 18.4371 22.3984C18.0503 22.3984 17.7924 22.2696 17.6635 22.2696C17.1478 22.2696 16.8899 22.3984 16.761 23.042C16.632 23.2995 16.632 23.4282 16.5031 23.6856C16.5031 23.8144 16.3742 23.8144 16.3742 23.9431C16.5031 24.2005 16.761 24.458 16.761 24.7154C17.0188 25.6165 17.5346 25.7453 18.6949 25.6165C18.9528 25.6165 19.4685 25.2304 19.7264 24.7154C19.9842 24.3293 19.9843 23.9431 19.9843 23.9431V23.6856ZM67.044 213.042L68.0754 212.27C68.3333 212.656 68.4622 213.171 68.5912 213.557V213.686C68.849 214.715 67.3019 216.646 66.6572 216.904C66.3994 217.033 66.1415 217.033 65.7547 217.033C64.8522 217.033 63.9497 216.646 63.305 216.003L64.3365 215.23C64.8522 215.617 65.6258 215.874 66.2704 215.745C66.6572 215.617 67.4308 214.329 67.5597 214.072V213.943C67.1729 213.557 67.1729 213.171 67.044 213.042ZM157.296 215.617C157.296 215.488 157.167 215.488 157.167 215.359C156.909 214.973 156.651 214.587 156.522 214.072V213.943C156.393 213.428 156.651 213.042 156.909 212.913C157.811 211.24 159.23 210.596 161.035 211.111C162.195 211.497 162.582 212.656 162.84 213.557V213.686C163.097 214.715 161.55 216.646 160.906 216.904C160.648 217.033 160.39 217.033 160.003 217.033C158.972 216.904 157.811 216.389 157.296 215.617ZM158.456 214.973C158.843 215.488 159.874 215.874 160.519 215.617C160.906 215.488 161.679 214.201 161.679 213.943V213.814C161.421 212.913 161.164 212.398 160.648 212.27C160.39 212.141 160.132 212.141 159.874 212.141C159.101 212.141 158.585 212.527 158.069 213.428C158.069 213.557 157.94 213.557 157.811 213.686V213.814C157.811 214.072 158.069 214.329 158.198 214.587C158.198 214.715 158.327 214.844 158.456 214.973ZM160.132 162.453C159.874 162.453 159.745 162.453 159.487 162.453C157.682 162.453 157.038 161.037 156.651 160.007C156.651 159.878 156.651 159.749 156.651 159.749C156.651 159.621 156.651 159.621 156.651 159.492C157.553 157.175 157.94 156.66 160.132 156.66C160.777 156.66 161.55 157.046 162.066 157.69C162.711 158.333 162.969 159.106 162.969 159.749C162.84 161.037 161.421 162.195 160.132 162.453ZM161.164 158.462C160.777 158.076 160.39 157.818 160.003 157.818C159.874 157.818 159.745 157.818 159.616 157.818C158.585 157.818 158.456 157.947 157.811 159.749C158.327 161.037 158.714 161.551 159.874 161.294C160.648 161.165 161.679 160.393 161.679 159.621C161.679 159.363 161.55 158.848 161.164 158.462ZM105.723 93.584C104.434 93.584 103.531 93.1978 102.887 92.0393C101.34 89.2073 99.6635 86.5041 98.1163 83.6721L95.5377 79.2954C95.4088 79.1667 95.4088 78.9092 95.2799 78.7805L95.1509 78.523C95.1509 78.3943 95.1509 78.2656 95.1509 78.2656V78.1369C95.2798 77.2358 95.7956 76.5921 96.1824 75.9485C96.1824 75.9485 96.1824 75.8198 96.3113 75.8198L97.3427 76.5921C97.3427 76.5921 97.3427 76.5921 97.3427 76.7209C96.9559 77.2358 96.5692 77.7507 96.5692 78.3943V78.523C96.5692 78.6518 96.6981 78.7805 96.6981 78.9092L99.2767 83.2859C100.824 86.1179 102.5 88.8211 104.047 91.6531C104.434 92.2967 104.95 92.5542 105.852 92.5542C107.915 92.4255 109.462 92.4255 111.009 92.4255C113.459 92.4255 115.651 92.4255 117.456 92.5542L119.132 93.8415C116.811 93.7127 114.233 93.7127 111.009 93.7127C109.333 93.4553 107.786 93.4553 105.723 93.584ZM152.783 120.617C151.365 120.617 150.591 120.102 149.947 118.943C149.56 118.299 149.173 117.656 148.915 117.012L153.428 120.617C153.17 120.617 153.041 120.617 152.783 120.617ZM72.2012 66.4228C71.9434 66.4228 71.8144 66.4228 71.5566 66.4228C68.5912 66.294 65.4968 66.294 62.5314 66.294C62.0157 66.294 61.371 66.294 60.8553 66.4228C59.8239 66.5515 58.6635 66.5515 57.5031 66.294C56.9874 66.1653 56.4717 66.1653 56.0849 65.393C54.022 62.0461 52.217 58.6992 50.5409 55.8672C50.283 55.3523 50.0251 54.9661 49.6384 54.4512C48.9937 53.4214 48.349 52.3916 47.9623 51.2331C47.9623 51.1043 47.9623 51.1043 47.9623 50.9756C47.9623 50.8469 47.9623 50.7182 47.9623 50.5894C48.9937 48.4011 50.1541 46.3415 51.4434 44.4106C51.9591 43.5095 52.4748 42.6084 53.1195 41.5786L54.1509 42.3509C53.6352 43.252 53.1195 44.1531 52.6037 45.0542C51.4434 46.9851 50.283 48.916 49.2516 50.9756C49.5094 52.0054 50.1541 52.7778 50.6698 53.6789C50.9276 54.1938 51.3144 54.5799 51.5723 55.0948C53.1195 57.9268 55.0534 61.2737 57.1163 64.6206C57.2453 64.878 57.3742 64.878 57.8899 65.0068C58.7924 65.1355 59.8239 65.1355 60.8553 65.0068C61.371 65.0068 62.0157 64.878 62.5314 64.878H62.6604C65.6258 64.878 68.7201 64.878 71.8145 65.0068C73.1038 65.1355 73.8773 64.878 74.3931 63.977C75.1667 62.561 75.9402 61.2737 76.5849 59.8577L77.6163 60.6301C76.8428 61.9173 76.1981 63.2046 75.4245 64.4919C74.522 66.294 73.2327 66.4228 72.2012 66.4228ZM190.56 184.465C190.689 184.207 190.947 183.95 191.075 183.692C191.849 182.148 192.752 180.603 193.654 179.187C194.814 177.256 195.975 175.196 197.006 173.137C197.651 171.978 198.682 171.335 200.101 171.463C202.679 171.592 205.387 171.592 207.836 171.592C209.77 171.592 211.704 171.592 213.509 171.463C215.057 171.335 216.088 171.978 216.862 173.394C218.022 175.454 219.182 177.642 220.472 179.702L219.44 180.474C218.151 178.286 216.991 176.226 215.701 174.038C215.186 173.137 214.67 172.751 213.767 172.751C213.638 172.751 213.638 172.751 213.509 172.751C211.575 172.879 209.641 172.879 207.836 172.879C205.387 172.879 202.808 172.879 200.101 172.751C199.069 172.751 198.553 173.008 198.167 173.78C197.135 175.84 195.975 177.9 194.814 179.831C193.912 181.247 193.009 182.791 192.236 184.336C192.107 184.722 191.849 184.98 191.591 185.237C191.204 185.752 190.818 186.267 190.818 186.911V187.039C190.818 187.168 190.947 187.297 190.947 187.425L193.396 191.802C194.557 193.991 195.846 196.05 197.006 198.238L195.975 199.011C194.686 196.822 193.525 194.634 192.236 192.446L189.786 188.069C189.657 187.94 189.657 187.683 189.528 187.554L189.399 187.297C189.399 187.168 189.399 187.039 189.399 187.039V186.911C189.657 185.752 190.173 184.98 190.56 184.465ZM58.5346 307.012L54.7956 309.973C54.7956 309.844 54.9245 309.844 54.9245 309.715C55.827 307.785 57.1163 307.141 58.5346 307.012ZM65.11 53.9363C63.305 53.9363 62.6604 52.5203 62.2736 51.4905C62.2736 51.3618 62.2736 51.2331 62.2736 51.2331C62.2736 51.1043 62.2736 51.1043 62.2736 50.9756C62.5314 50.332 62.6604 49.9458 62.9182 49.5596L63.9497 50.332C63.8207 50.5894 63.6918 50.8469 63.5629 51.2331C64.0786 52.5203 64.4654 53.0352 65.6258 52.7778C65.8836 52.7778 66.2704 52.5203 66.5283 52.3916L67.5597 53.164C67.044 53.5501 66.3994 53.9363 65.8836 54.065C65.6258 53.9363 65.3679 53.9363 65.11 53.9363ZM176.119 161.938C175.991 162.195 175.733 162.453 175.604 162.71C174.83 164.255 173.928 165.671 173.025 167.087C171.865 169.018 170.704 171.077 169.673 173.266C168.899 174.81 167.61 174.939 166.579 174.939C166.321 174.939 166.063 174.939 165.934 174.939C163.871 174.81 161.679 174.81 159.616 174.81C158.585 174.81 157.553 174.81 156.651 174.81C156.135 174.81 155.619 174.81 155.104 174.939C154.072 175.068 153.041 175.068 151.88 174.81C151.365 174.682 150.849 174.682 150.462 173.909C149.431 172.365 148.528 170.691 147.626 169.146C146.723 167.602 145.821 166.057 144.918 164.512C144.66 164.126 144.402 163.611 144.145 163.225C143.758 162.581 143.5 162.066 143.113 161.551C142.211 160.393 142.211 159.234 142.984 158.076C144.531 155.501 146.079 152.927 147.497 150.352L148.141 149.322C148.786 148.164 149.56 147.005 150.204 145.718C150.849 144.56 151.752 144.431 152.525 144.431C156.909 144.431 161.808 144.56 166.708 144.431C168.126 144.431 169.028 144.946 169.673 146.104C170.704 148.035 171.865 150.095 173.025 152.026L174.701 154.986C174.959 155.373 175.217 155.888 175.475 156.274C176.119 157.304 176.764 158.333 177.151 159.621C177.151 159.749 177.151 159.749 177.151 159.878V160.007C177.022 160.65 176.506 161.294 176.119 161.938ZM174.314 156.66C174.057 156.274 173.799 155.759 173.541 155.373L171.865 152.412C170.704 150.481 169.673 148.55 168.513 146.491C167.997 145.718 167.61 145.332 166.579 145.461C161.679 145.589 156.78 145.461 152.267 145.461C151.623 145.461 151.236 145.589 151.107 146.104C150.462 147.392 149.689 148.679 149.044 149.837L148.399 150.867C146.852 153.442 145.434 156.016 143.887 158.591C143.371 159.363 143.371 160.007 144.016 160.779C144.402 161.423 144.789 162.066 145.047 162.581C145.305 162.967 145.563 163.482 145.821 163.869C146.723 165.413 147.626 166.958 148.528 168.503C149.431 170.047 150.333 171.721 151.236 173.137C151.365 173.394 151.494 173.394 152.009 173.523C152.912 173.652 153.814 173.652 154.846 173.523C155.362 173.523 156.006 173.394 156.522 173.394C157.553 173.394 158.456 173.394 159.487 173.394C161.55 173.394 163.742 173.394 165.934 173.523C167.223 173.652 167.997 173.523 168.513 172.493C169.544 170.305 170.833 168.245 171.994 166.314C172.896 164.898 173.67 163.354 174.443 161.938C174.572 161.551 174.83 161.294 175.088 161.037C175.475 160.522 175.862 160.007 175.862 159.363C175.604 158.591 174.959 157.69 174.314 156.66Z" fill="white"/>
</svg>
