<svg width="160" height="252" viewBox="0 0 160 252" fill="none" xmlns="http://www.w3.org/2000/svg">
<path d="M137.953 228.057C138.211 227.542 138.469 227.156 138.726 226.641C139.113 225.997 139.371 225.354 139.758 224.839C140.274 224.066 140.789 223.809 141.563 223.809C145.044 223.809 148.525 223.809 151.877 223.809C152.651 223.809 153.167 223.938 153.682 224.839C154.327 225.869 154.972 227.027 155.616 228.057C156.261 229.344 157.035 230.503 157.679 231.79C157.808 232.047 158.066 232.305 158.195 232.691C158.582 233.335 158.969 233.978 159.226 234.622C159.226 234.751 159.226 234.751 159.226 234.879C159.226 235.008 159.226 235.008 159.226 235.137C158.582 236.295 157.937 237.583 157.292 238.612C156.906 239.256 156.519 240.028 156.003 240.801C155.616 241.444 155.358 241.959 154.972 242.603C154.585 243.247 154.198 243.89 153.811 244.663C153.296 245.564 152.651 245.95 151.748 245.95L150.588 245.049C150.846 245.049 151.233 245.049 151.491 245.049C152.135 245.049 152.651 244.92 152.909 244.148C153.296 243.504 153.682 242.732 154.069 242.088C154.456 241.444 154.714 240.93 155.101 240.286C155.487 239.514 155.874 238.87 156.39 238.098C157.035 237.068 157.679 235.909 158.195 234.751C157.937 234.107 157.55 233.592 157.292 233.077C157.163 232.82 156.906 232.562 156.777 232.176C156.132 230.889 155.358 229.73 154.714 228.443C154.069 227.413 153.425 226.255 152.78 225.225C152.522 224.71 152.264 224.71 151.748 224.71C150.072 224.71 148.267 224.71 146.591 224.71C144.915 224.71 143.11 224.71 141.434 224.71C140.918 224.71 140.66 224.839 140.402 225.225C140.016 225.869 139.629 226.383 139.371 227.027C139.113 227.542 138.855 228.057 138.597 228.443C138.082 229.344 137.566 230.245 137.05 231.146C136.663 231.79 136.277 232.434 135.89 233.077L135.245 232.562C135.632 231.919 136.019 231.404 136.277 230.76C136.921 229.859 137.437 228.958 137.953 228.057ZM83.0283 128.552C81.3522 128.552 79.6761 128.423 78.2578 128.423C76.8396 128.423 75.5503 128.423 74.1321 128.552C72.9717 128.68 72.327 128.165 71.6824 127.136C70.2641 124.561 68.8459 122.115 67.2987 119.669L66.6541 118.64C66.1384 117.867 66.1384 117.095 66.6541 116.194L67.2987 115.164C68.717 112.718 70.2641 110.272 71.6824 107.698C72.1981 106.668 72.8428 106.282 73.8742 106.282H74.0031C75.8082 106.282 77.7421 106.411 80.0629 106.411C81.0943 106.411 82.2547 106.411 83.8019 106.282C84.7044 106.282 85.478 106.539 85.8648 107.44C87.0251 109.5 88.1855 111.56 89.3459 113.491L90.3773 115.293L89.7327 115.808L88.7012 114.005C87.5409 111.946 86.3805 109.886 85.2201 107.955C84.9622 107.44 84.5755 107.312 83.9308 107.312C82.3836 107.44 81.2233 107.44 80.1918 107.44C77.871 107.44 75.9371 107.44 74.1321 107.312C73.3585 107.312 72.9717 107.569 72.5849 108.213C71.1666 110.787 69.6195 113.233 68.2012 115.679L67.5566 116.709C67.1698 117.224 67.1698 117.61 67.5566 118.253L68.2012 119.283C69.6195 121.729 71.1666 124.304 72.5849 126.749C72.9717 127.393 73.3585 127.65 74.0031 127.65H74.1321C75.4214 127.522 76.8396 127.522 78.2578 127.522C79.4182 127.522 80.7075 127.522 81.8679 127.522L83.0283 128.552ZM160 252L159.355 251.485C159.613 251.099 159.871 250.713 160.129 250.198L160 252ZM148.912 196.519C148.525 198.064 147.236 197.806 146.462 197.806H146.204C145.431 197.678 145.173 197.034 144.915 196.648C144.915 196.519 144.786 196.39 144.786 196.262C144.657 196.133 144.528 195.747 144.786 195.232C145.044 194.588 145.947 193.816 146.462 193.687C146.591 193.687 146.72 193.687 146.849 193.687C148.525 193.687 148.912 195.103 149.17 195.618C149.17 195.747 149.17 195.747 149.17 195.875C149.17 196.133 149.041 196.39 148.912 196.519ZM148.267 195.618C147.88 194.588 147.365 194.331 146.462 194.459C146.075 194.459 145.302 195.36 145.302 195.618C145.431 195.747 145.431 196.004 145.56 196.133C145.689 196.519 145.818 196.776 146.075 196.776H146.333C146.591 196.776 146.849 196.776 146.978 196.776C147.365 196.776 147.623 196.648 147.752 196.133C147.752 196.004 147.88 195.875 147.88 195.747C148.267 195.875 148.267 195.747 148.267 195.618C148.267 195.747 148.267 195.747 148.267 195.618ZM111.909 178.111C111.006 177.854 110.748 176.953 110.619 176.309V176.18C110.362 175.408 111.522 174.121 112.038 173.863C112.167 173.734 112.425 173.734 112.682 173.734C113.456 173.734 114.23 174.121 114.616 174.764C114.616 174.893 114.745 174.893 114.745 175.022C114.874 175.279 115.132 175.537 115.132 175.923V176.052C115.261 176.438 115.003 176.695 114.874 176.824C114.23 178.111 113.198 178.497 111.909 178.111ZM114.23 176.18C114.23 176.052 114.101 175.794 113.972 175.665C113.972 175.537 113.843 175.537 113.843 175.408C113.585 175.022 112.811 174.764 112.296 174.893C112.038 175.022 111.393 175.923 111.393 176.052V176.18C111.522 176.824 111.78 177.21 112.167 177.339C112.425 177.468 112.553 177.468 112.811 177.468C113.327 177.468 113.714 177.21 114.101 176.566C114.101 176.309 114.23 176.309 114.23 176.18ZM123.641 172.576C123.77 172.833 124.028 173.091 124.157 173.477C124.544 174.249 125.06 175.022 125.447 175.794C125.447 175.923 125.447 175.923 125.447 176.052C125.447 176.052 125.447 176.052 125.447 176.18C125.318 176.953 124.931 177.596 124.544 178.111C124.415 178.369 124.286 178.626 124.028 178.755C123.513 179.656 122.997 180.428 122.61 181.329C121.836 182.617 121.063 183.904 120.418 185.191C119.516 187.122 117.969 187.251 116.421 187.122C114.101 186.993 111.651 186.993 109.201 187.122C108.557 187.122 108.041 187.122 107.396 187.122H106.88C106.365 187.122 106.236 186.736 106.107 186.607V186.478C105.333 185.32 104.689 184.033 104.044 182.874C103.399 181.844 102.884 180.686 102.239 179.656C101.981 179.398 101.852 179.012 101.723 178.626C101.465 178.24 101.208 177.725 100.95 177.339C100.305 176.438 100.305 175.665 100.821 174.764C101.981 172.962 103.013 171.031 104.173 169.229L104.56 168.457C104.947 167.684 105.591 166.783 105.978 165.882C106.365 165.11 107.138 164.981 107.654 164.981C111.264 164.981 114.616 164.981 117.969 164.981C117.969 164.981 117.969 164.981 118.097 164.981C119.129 164.981 119.774 165.367 120.16 166.268C121.321 168.328 122.481 170.388 123.641 172.447V172.576ZM122.868 173.091L122.739 172.962C121.579 170.902 120.418 168.843 119.258 166.783C118.871 166.14 118.613 166.011 117.84 166.011C116.292 166.011 114.616 166.011 113.069 166.011C111.264 166.011 109.459 166.011 107.654 166.011C107.138 166.011 107.009 166.14 106.752 166.526C106.236 167.427 105.72 168.457 105.333 169.229L104.947 170.001C103.915 171.932 102.755 173.734 101.594 175.665C101.208 176.309 101.208 176.695 101.723 177.21C101.981 177.596 102.239 178.111 102.497 178.497C102.626 178.755 102.884 179.141 103.013 179.398C103.657 180.428 104.302 181.587 104.947 182.617C105.591 183.775 106.365 185.062 107.009 186.221L107.138 186.35L107.267 186.478H107.783C108.428 186.478 108.943 186.607 109.459 186.478C111.909 186.35 114.358 186.35 116.679 186.478C118.097 186.607 119.129 186.478 119.774 185.062C120.418 183.646 121.192 182.359 121.965 181.072C122.481 180.299 122.997 179.398 123.384 178.626C123.513 178.369 123.77 178.111 123.899 177.854C124.286 177.339 124.544 176.953 124.673 176.309C124.286 175.537 123.899 174.893 123.513 174.121C123.126 173.606 122.997 173.348 122.868 173.091ZM78.3868 119.412H78.1289C77.3553 119.283 77.0975 118.64 76.8396 118.253C76.8396 118.125 76.7107 117.996 76.7107 117.867C76.5817 117.739 76.4528 117.352 76.7107 116.837C76.9685 116.194 77.8711 115.421 78.3868 115.293C78.5157 115.293 78.6446 115.293 78.7736 115.293C80.4497 115.293 80.8365 116.709 81.0943 117.224C81.0943 117.352 81.0943 117.352 81.0943 117.481C81.0943 117.739 80.9654 117.996 80.8365 118.125L80.7075 118.253C80.4497 119.798 79.1604 119.541 78.3868 119.412ZM80.1918 117.352C79.805 116.323 79.2893 116.065 78.3868 116.194C78 116.194 77.2264 117.095 77.2264 117.352C77.3553 117.481 77.3553 117.739 77.4843 117.867C77.6132 118.253 77.7421 118.511 78 118.511H78.2578C78.5157 118.511 78.7736 118.511 78.9025 118.511C79.2893 118.511 79.5472 118.382 79.6761 117.867C79.6761 117.739 79.805 117.61 79.805 117.481C80.1918 117.61 80.3207 117.481 80.1918 117.352C80.1918 117.481 80.1918 117.481 80.1918 117.352ZM105.72 146.831C105.591 146.573 105.462 146.316 105.333 146.058L107.912 147.989C106.88 147.989 106.236 147.732 105.72 146.831ZM102.368 100.103C102.497 100.36 102.755 100.747 102.884 101.004C103.528 102.034 104.044 103.064 104.689 104.094L104.044 104.608C103.399 103.579 102.884 102.549 102.239 101.519C101.981 101.262 101.852 100.875 101.723 100.489C101.465 100.103 101.208 99.5881 100.95 99.2019C100.305 98.3008 100.305 97.5285 100.821 96.6274C101.981 94.8252 103.013 92.8943 104.044 91.0922L104.56 90.3198C104.947 89.5475 105.591 88.6464 105.978 87.7453C106.365 86.9729 107.138 86.8442 107.654 86.8442C110.877 86.8442 114.358 86.8442 117.969 86.8442C117.969 86.8442 117.969 86.8442 118.097 86.8442C119.129 86.8442 119.774 87.2304 120.16 88.1315C120.676 89.0326 121.192 89.9336 121.708 90.8347L121.063 91.3496C120.547 90.4485 120.031 89.4187 119.516 88.5177C119.129 87.874 118.871 87.7453 118.097 87.7453C116.421 87.7453 114.874 87.7453 113.198 87.7453C111.264 87.7453 109.459 87.7453 107.783 87.7453C107.267 87.7453 107.138 87.874 106.88 88.2602C106.365 89.1613 105.849 90.1911 105.462 90.9635L104.947 91.7358C103.915 93.538 102.755 95.4689 101.723 97.271C101.336 97.9147 101.336 98.3008 101.852 98.8158C101.852 99.2019 102.11 99.5881 102.368 100.103ZM135.761 79.5068L135.116 80.0217L134.73 79.2494C134.343 78.6057 134.343 77.8334 134.73 77.1897C135.374 76.1599 135.89 75.2589 136.406 74.229C136.921 73.328 137.437 72.4269 138.082 71.397C138.34 70.8821 138.597 70.496 138.855 69.9811C139.242 69.3374 139.5 68.6938 139.887 68.1789C140.402 67.4065 140.918 67.1491 141.692 67.1491C144.915 67.1491 148.138 67.1491 151.233 67.1491L150.072 68.0502C148.912 68.0502 147.88 68.0502 146.72 68.0502C145.044 68.0502 143.239 68.0502 141.563 68.0502C141.047 68.0502 140.789 68.1789 140.531 68.5651C140.145 69.2087 139.758 69.7236 139.5 70.3673C139.242 70.8822 138.984 71.3971 138.726 71.7832C138.211 72.6843 137.695 73.5854 137.179 74.4865C136.663 75.5163 136.019 76.4174 135.503 77.4472C135.245 77.8334 135.245 78.2196 135.503 78.6057L135.761 79.5068ZM159.355 0.983782C158.84 1.11251 158.582 1.49869 158.324 2.14232C158.195 2.27105 158.195 2.5285 158.066 2.65723C157.55 3.55831 157.035 4.45939 156.519 5.4892C155.745 6.77646 154.972 8.19246 154.198 9.60845C153.682 10.6383 152.909 11.0244 151.877 11.0244C149.041 10.8957 146.075 11.0244 143.239 11.0244H142.981L144.141 10.1234C146.72 10.1234 149.299 10.1234 152.006 10.1234C152.78 10.1234 153.167 9.8659 153.553 9.22227C154.327 7.80628 155.101 6.39029 155.874 5.10303C156.39 4.20194 156.906 3.30085 157.421 2.27104C157.292 2.14232 157.421 2.0136 157.421 1.88487C157.679 1.24124 158.066 0.468878 159.097 0.211426C159.355 0.211426 159.613 0.340156 159.613 0.597609C159.742 0.726335 159.613 0.983782 159.355 0.983782ZM80.5786 157.772L80.4497 157.901C79.9339 158.545 78.6446 158.931 78 158.673C77.2264 158.287 76.5817 157.515 76.5817 156.614C76.5817 155.842 77.0975 154.94 78 154.554C78.2579 154.426 78.3868 154.426 78.6446 154.426C79.4182 154.426 80.1918 154.812 80.5786 155.455C80.7075 155.713 80.8365 155.841 80.9654 156.099L81.0943 156.356C81.0943 156.485 81.0943 156.485 81.0943 156.614V156.743C81.0943 157.129 80.8365 157.386 80.5786 157.772ZM80.1918 156.356C80.0629 156.228 79.9339 155.97 79.805 155.842C79.5471 155.455 78.7736 155.198 78.2578 155.327C77.7421 155.584 77.3553 156.099 77.3553 156.614C77.3553 157 77.6132 157.644 78.2578 157.901C78.3868 157.901 78.3868 157.901 78.5157 157.901C78.9025 157.901 79.4182 157.644 79.6761 157.386L79.805 157.257C79.9339 157 80.0629 156.871 80.1918 156.614V156.356ZM158.324 41.4038C157.679 42.5624 157.035 43.5922 156.519 44.622C155.745 46.038 154.843 47.454 154.069 48.9987C153.682 49.8998 152.909 50.2859 151.748 50.2859C149.943 50.1572 148.138 50.1572 145.947 50.1572C144.657 50.1572 143.368 50.1572 142.208 50.2859C141.047 50.4147 140.402 49.8998 139.758 48.87C138.34 46.2954 136.921 43.8496 135.374 41.4038L134.73 40.374C134.214 39.6017 134.214 38.8293 134.73 37.9282L135.374 36.8984C136.792 34.4526 138.34 32.0068 139.758 29.4323C140.274 28.4025 140.918 28.0163 141.95 28.0163H142.079C143.884 28.0163 145.689 28.145 148.138 28.145C149.17 28.145 150.33 28.145 151.877 28.0163C152.78 28.0163 153.553 28.2738 153.94 29.1748C155.101 31.2345 156.261 33.1654 157.421 35.225L159.226 38.3144C159.355 38.4431 159.355 38.5719 159.355 38.7006V38.8293C159.355 38.958 159.355 38.958 159.355 39.0868V39.2155C159.226 39.8591 158.969 40.374 158.582 40.7602C158.582 41.0177 158.453 41.2751 158.324 41.4038ZM158.453 39.0868C158.453 38.958 158.453 38.958 158.324 38.8293L156.519 35.7399C155.358 33.6803 154.198 31.7494 153.038 29.6897C152.78 29.1748 152.393 29.0461 151.748 29.0461C150.201 29.1748 149.041 29.1748 148.009 29.1748C145.56 29.1748 143.755 29.1748 141.95 29.0461C141.176 29.0461 140.789 29.3036 140.402 29.9472C138.984 32.5217 137.566 34.9675 136.019 37.4133L135.374 38.4431C134.987 38.958 134.987 39.3442 135.374 39.9878L136.019 41.0177C137.437 43.4635 138.984 46.038 140.402 48.4838C140.789 49.1274 141.176 49.3849 141.821 49.3849H141.95C143.239 49.2561 144.528 49.2561 145.818 49.2561C148.009 49.2561 149.814 49.2561 151.748 49.3849C152.522 49.3849 152.909 49.2561 153.167 48.6125C153.94 47.0678 154.843 45.6518 155.616 44.2358C156.261 43.206 156.906 42.0475 157.421 41.0177C157.55 40.7602 157.679 40.5028 157.808 40.374C158.195 39.9879 158.453 39.6017 158.453 39.0868ZM87.6698 163.436L87.1541 164.337C86.7673 165.11 86.2516 165.882 85.8648 166.654C85.349 167.427 84.8333 167.684 84.0597 167.684C80.5786 167.684 77.0975 167.684 73.7453 167.684C72.9717 167.684 72.456 167.556 71.9402 166.654C71.0377 164.981 70.0063 163.308 69.1038 161.634C68.717 160.991 68.3302 160.476 68.0723 159.832L66.783 157.644C66.3962 157 66.3962 156.228 66.783 155.584C67.4277 154.554 67.9434 153.653 68.4591 152.623C68.9748 151.722 69.4906 150.821 70.1352 149.791C70.3931 149.276 70.6509 148.89 70.9088 148.375C71.2956 147.732 71.5534 147.088 71.9402 146.573C72.456 145.801 72.9717 145.672 73.7453 145.543C77.2264 145.543 80.7075 145.543 84.0597 145.543C84.8333 145.543 85.349 145.672 85.8648 146.573C86.5094 147.603 87.1541 148.762 87.7987 149.791C88.5723 151.079 89.217 152.237 89.8616 153.524C89.9905 153.782 90.2484 154.039 90.3773 154.426C90.7641 155.069 91.1509 155.713 91.4088 156.356C91.4088 156.485 91.4088 156.485 91.4088 156.614C91.4088 156.743 91.4088 156.743 91.4088 156.871C90.6352 158.545 89.7327 160.089 88.8302 161.505C88.4434 162.02 88.0566 162.664 87.6698 163.436ZM89.4748 154.812C89.3459 154.554 89.088 154.297 88.9591 153.911C88.3145 152.623 87.5409 151.465 86.8962 150.178C86.2516 149.148 85.6069 147.989 84.9622 146.959C84.7044 146.444 84.4465 146.444 83.9308 146.444C82.2547 146.444 80.4497 146.444 78.7736 146.444C77.0975 146.444 75.2924 146.444 73.6163 146.444C73.1006 146.444 72.8428 146.573 72.5849 146.959C72.1981 147.603 71.8113 148.118 71.5534 148.762C71.2956 149.276 71.0377 149.791 70.7799 150.178C70.2641 151.079 69.7484 151.98 69.2327 152.881C68.717 153.911 68.0723 154.812 67.5566 155.842C67.2987 156.228 67.2987 156.614 67.5566 157L68.8459 159.188C69.2327 159.832 69.6195 160.347 69.8773 160.991C70.9088 162.664 71.8113 164.337 72.8428 166.011C73.1006 166.526 73.3585 166.526 73.8742 166.526C77.3553 166.526 80.8365 166.526 84.1887 166.526C84.7044 166.526 84.9622 166.397 85.2201 166.011C85.6069 165.238 86.1226 164.466 86.5094 163.694L87.0251 162.793C87.4119 162.149 87.7987 161.377 88.1855 160.733C89.088 159.317 89.8616 157.901 90.6352 156.356C90.2484 155.97 89.8616 155.327 89.4748 154.812ZM157.937 215.699C150.588 215.828 143.11 215.828 135.761 215.699C135.761 215.828 135.632 215.957 135.632 216.085C133.44 219.947 131.119 223.809 128.928 227.671L128.283 227.156C130.475 223.294 132.667 219.432 134.987 215.699C135.116 215.442 135.116 215.184 134.987 214.927C132.925 211.451 130.862 207.976 128.928 204.5C128.025 202.955 127.123 201.411 126.22 199.737C125.704 198.836 125.189 198.064 124.673 197.163L124.028 196.133H101.852L101.208 197.163C100.692 198.064 100.176 198.836 99.7893 199.737C99.1446 200.896 98.5 201.926 97.8553 203.084L97.2107 202.569C97.8553 201.539 98.5 200.381 99.0157 199.351C99.5314 198.45 100.047 197.678 100.563 196.776L101.208 195.747L99.0157 191.885C96.8239 188.023 94.5031 184.033 92.1824 180.171C92.0534 179.913 91.7956 179.527 91.6666 179.141C91.2799 178.369 90.8931 177.725 90.3773 177.081C90.2484 176.953 90.2484 176.824 90.1195 176.695C82.7704 176.566 75.2924 176.566 67.9434 176.695C67.9434 176.824 67.8145 176.953 67.6855 177.081C67.2987 177.596 67.0409 178.111 66.6541 178.626L66.0094 178.111C66.2673 177.596 66.6541 177.081 67.0409 176.566C67.1698 176.438 67.1698 176.18 67.0409 175.923C63.8176 170.516 60.3365 164.466 56.4685 157.644C56.2107 157.257 55.9528 157.129 55.4371 157.129C50.1509 157.129 44.7358 157.129 39.4497 157.129L38.2893 156.228C43.9622 156.228 49.6352 156.228 55.4371 156.228C55.695 156.228 55.9528 156.228 56.2107 156.356L58.2736 152.752C61.239 147.603 64.2044 142.583 67.1698 137.434C67.2987 137.176 67.2987 136.919 67.1698 136.661C65.1069 133.186 63.044 129.71 61.1101 126.234C60.2075 124.69 59.305 123.016 58.4025 121.472C57.8868 120.571 57.3711 119.669 56.8553 118.768L56.3396 117.867H34.1635L32.6163 120.442C31.8428 121.858 31.0692 123.145 30.2956 124.561C28.1038 128.294 25.9119 132.156 23.7201 135.889C23.0755 136.919 23.3333 137.434 23.849 138.335C25.9119 141.81 28.1038 145.543 30.5535 149.92L28.7484 148.504C26.6855 145.029 24.8805 141.81 23.2044 138.85C22.9465 138.463 22.6887 137.949 22.6887 137.434C20.11 137.434 17.5314 137.434 14.9528 137.434L13.7924 136.533C16.7578 136.533 19.7233 136.533 22.5597 136.533C22.6887 136.146 22.8176 135.889 22.9465 135.503C25.1384 131.77 27.3302 127.908 29.522 124.175C30.2956 122.759 31.0692 121.472 31.8428 120.056L33.3899 117.481L31.1981 113.619C29.3931 110.401 27.4591 107.054 25.5251 103.836L26.1698 103.321C28.1038 106.668 30.0377 110.015 31.8428 113.233L34.0346 117.095H55.9528L58.1446 113.233C60.3365 109.371 62.6572 105.381 64.978 101.519C65.1069 101.262 65.3648 100.875 65.4937 100.618C65.8805 99.8456 66.2673 99.2019 66.783 98.4296C66.9119 98.3008 67.0409 98.0434 66.783 97.7859C63.5597 92.3794 60.2075 86.5868 56.2107 79.5068C56.2107 79.5068 56.2107 79.3781 56.0817 79.3781L56.7264 78.8632C56.7264 78.9919 56.8553 78.9919 56.8553 79.1206C60.8522 86.0718 64.2044 91.8645 67.4277 97.3998C67.5566 97.5285 67.5566 97.6572 67.5566 97.7859C71.2956 97.7859 74.9056 97.6572 78.6446 97.6572C82.3836 97.6572 85.9937 97.6572 89.7327 97.7859C89.7327 97.6572 89.8616 97.5285 89.8616 97.3998C92.6981 92.6369 95.4056 87.874 98.1132 83.1112L100.047 79.893C100.305 79.5068 100.434 79.2494 100.692 78.8632L100.821 78.6057C100.692 78.477 100.434 78.2196 100.305 77.9621C96.4371 71.1396 93.3428 65.8618 90.3773 60.8415C90.1195 60.4553 89.8616 59.9404 89.8616 59.4255C87.0251 59.4255 84.1887 59.4255 81.3522 59.4255L82.5126 58.5244C84.9622 58.5244 87.4119 58.5244 89.8616 58.5244C89.9905 58.1382 90.1195 57.8808 90.2484 57.4946C92.0534 54.4052 93.8585 51.3158 95.6635 48.2263L97.4685 46.8103C95.4056 50.5434 93.2138 54.2765 90.8931 58.0095C90.2484 59.0393 90.5063 59.5542 91.022 60.4553C93.9874 65.4756 96.9528 70.7534 100.95 77.5759C101.336 78.0908 101.594 78.3483 102.239 78.3483C109.072 78.3483 116.035 78.3483 122.868 78.3483C123.126 78.3483 123.384 78.3483 123.641 78.477L125.833 74.7439C128.799 69.7236 131.635 64.7033 134.601 59.683C134.73 59.4255 134.73 59.1681 134.601 58.9106C132.538 55.435 130.475 51.9594 128.541 48.4838C127.638 46.9391 126.736 45.3943 125.833 43.7209C125.318 42.8198 124.802 42.0475 124.286 41.1464L123.641 40.1166H106.236L107.396 39.2155H124.028L126.22 35.3537C128.412 31.4919 130.733 27.5014 133.053 23.5109C133.182 23.2534 133.44 22.8673 133.569 22.6098C133.956 21.8374 134.343 21.1938 134.858 20.4215C134.987 20.2927 134.987 20.164 134.858 19.7778C134.601 19.2629 134.343 18.8767 134.085 18.3618L134.73 17.8469C134.987 18.3618 135.374 18.8767 135.632 19.3916C135.632 19.5204 135.761 19.5204 135.761 19.6491C139.5 19.6491 143.11 19.5204 146.849 19.5204C150.588 19.5204 154.198 19.5204 157.937 19.6491C157.937 19.5204 158.066 19.5204 158.066 19.3916C158.711 18.3618 159.355 17.2033 160 16.0448V17.8469C159.613 18.4906 159.226 19.1342 158.84 19.7778C158.711 20.0353 158.711 20.164 158.84 20.4215C159.226 20.9364 159.613 21.58 160 22.2236V24.0258C160 24.0258 160 24.0258 160 23.8971C159.871 23.5109 159.613 23.2534 159.484 22.8672C159.097 22.0949 158.711 21.4513 158.195 20.8076C158.066 20.6789 158.066 20.5502 157.937 20.4215C150.588 20.2927 143.11 20.2927 135.761 20.4215C135.761 20.5502 135.632 20.6789 135.503 20.8076C134.987 21.4513 134.601 22.0949 134.214 22.8672C134.085 23.2534 133.827 23.5109 133.698 23.8971C131.377 27.7589 129.057 31.8781 126.865 35.7399L124.673 39.6017L125.318 40.6315C125.833 41.5326 126.349 42.3049 126.865 43.206C127.767 44.7507 128.67 46.2954 129.572 47.9689C131.506 51.4445 133.569 54.9201 135.632 58.3957C135.632 58.5244 135.761 58.6532 135.761 58.7819C143.11 58.9106 150.717 58.9106 158.066 58.7819C158.195 58.3957 158.324 58.1383 158.453 57.7521C158.969 56.9797 159.355 56.0786 159.871 55.3063V56.9797C159.613 57.3659 159.484 57.7521 159.226 58.1383C158.582 59.1681 158.84 59.683 159.355 60.5841C159.484 60.8415 159.613 60.9702 159.742 61.2277L159.097 61.7426C158.969 61.4851 158.84 61.2277 158.711 61.0989C158.453 60.7128 158.195 60.1979 158.195 59.683C150.846 59.8117 143.239 59.8117 135.89 59.683C135.89 59.8117 135.761 59.9404 135.761 60.0692C132.796 65.0895 129.959 70.1098 126.994 75.1301L124.802 78.8632C124.931 78.9919 125.06 79.1206 125.189 79.3781C126.478 81.5664 127.638 83.6261 128.799 85.6857L128.154 86.2006C126.994 84.141 125.833 82.0813 124.544 79.893C124.286 79.5068 124.028 79.3781 123.513 79.3781C116.679 79.3781 109.717 79.3781 102.884 79.3781C102.626 79.3781 102.368 79.3781 102.11 79.2494L101.981 79.5068C101.723 79.893 101.594 80.1504 101.336 80.5366L99.4025 83.7548C96.695 88.5177 93.8585 93.2805 91.1509 98.0434C91.022 98.4296 91.022 98.5583 91.1509 98.687C91.6666 99.3307 92.0534 100.103 92.4402 100.875C92.5692 101.133 92.827 101.519 92.956 101.776C94.6321 104.48 96.1792 107.312 97.7264 110.144H96.8239C95.1478 107.312 93.6006 104.48 91.9245 101.648C91.7956 101.39 91.5377 101.004 91.4088 100.618C91.022 99.8456 90.6352 99.2019 90.1195 98.5583C89.9905 98.4296 89.9905 98.3008 89.8616 98.1721C82.5126 98.0434 75.0346 98.0434 67.6855 98.1721C67.6855 98.3008 67.5566 98.4296 67.4277 98.5583C66.9119 99.2019 66.5251 99.8456 66.1383 100.618C66.0094 101.004 65.7516 101.262 65.6226 101.648C63.3019 105.51 60.9811 109.5 58.7893 113.362L56.4685 117.352L56.9843 118.253C57.5 119.155 58.0157 120.056 58.5314 120.957C59.434 122.501 60.3365 124.175 61.239 125.72C63.1729 129.195 65.2358 132.671 67.2987 136.146C67.2987 136.275 67.4277 136.404 67.4277 136.533C74.7767 136.661 82.3836 136.661 89.7327 136.533C89.8616 136.146 89.9905 135.889 90.1195 135.503C90.2484 135.245 90.3773 135.117 90.5063 134.859L91.1509 135.374C91.022 135.503 90.8931 135.76 90.7641 135.889C90.1195 136.919 90.3773 137.434 90.8931 138.335C93.8585 143.355 96.8239 148.504 100.821 155.455C101.208 155.97 101.465 156.228 102.11 156.228C107.267 156.228 112.425 156.228 117.582 156.228L118.742 157.129C113.198 157.129 107.654 157.129 102.11 157.129C101.852 157.129 101.594 157.129 101.336 157L101.208 157.386C101.079 157.772 100.821 158.03 100.692 158.416L98.8868 161.634C96.1792 166.397 93.3428 171.16 90.5063 175.923C90.3773 176.309 90.3773 176.438 90.5063 176.566C91.022 177.21 91.4088 177.982 91.7956 178.755C91.9245 179.012 92.1824 179.398 92.3113 179.656C94.6321 183.518 96.9528 187.508 99.1446 191.37L101.336 195.232H124.028L126.22 191.37C128.412 187.508 130.733 183.518 133.053 179.527C133.182 179.27 133.44 178.884 133.569 178.626C133.956 177.854 134.343 177.21 134.858 176.438C134.987 176.309 134.987 176.052 134.858 175.794C132.667 172.061 130.475 168.199 127.896 163.951L129.83 165.367C131.893 168.843 133.827 172.19 135.632 175.279C135.761 175.408 135.761 175.537 135.761 175.665C138.082 175.665 140.531 175.665 142.852 175.665L144.013 176.566C141.305 176.566 138.469 176.566 135.761 176.695C135.761 176.824 135.632 176.953 135.503 177.081C134.987 177.725 134.601 178.369 134.214 179.141C134.085 179.527 133.827 179.785 133.698 180.171C131.377 184.161 129.057 188.152 126.865 192.014L124.673 195.875L125.318 196.905C125.833 197.806 126.349 198.579 126.865 199.48C127.767 201.024 128.67 202.569 129.572 204.243C131.506 207.718 133.569 211.194 135.632 214.669C135.632 214.798 135.761 214.927 135.761 215.056C143.11 215.184 150.588 215.184 157.937 215.056C157.937 214.927 158.066 214.798 158.066 214.669C158.711 213.64 159.355 212.61 160 211.451V213.125C159.613 213.768 159.226 214.412 158.84 215.056C158.711 215.313 158.582 215.442 158.84 215.828C159.226 216.472 159.613 217.115 160 217.759V219.561C159.355 218.402 158.711 217.373 158.066 216.343C158.066 215.828 157.937 215.828 157.937 215.699ZM98.3711 160.991L100.176 157.772C100.434 157.386 100.563 157.129 100.692 156.743L100.95 156.356C100.821 156.228 100.563 155.97 100.434 155.713C96.566 148.89 93.4717 143.613 90.5063 138.592C90.2484 138.206 89.9905 137.691 89.9905 137.176C82.6415 137.305 75.0346 137.305 67.6855 137.176C67.6855 137.305 67.5566 137.434 67.5566 137.562C64.5912 142.711 61.6258 147.732 58.6604 152.881L56.5975 156.485C56.7264 156.614 56.8553 156.743 56.9843 157C60.8522 163.823 64.3333 169.744 67.5566 175.279C67.6855 175.408 67.6855 175.537 67.6855 175.665C71.4245 175.665 75.0346 175.537 78.7736 175.537C82.5126 175.537 86.1226 175.537 89.8616 175.665C89.8616 175.537 89.9905 175.408 89.9905 175.279C92.827 170.645 95.6635 165.753 98.3711 160.991ZM148.912 39.9878C148.525 41.5326 147.236 41.2751 146.462 41.2751H146.204C145.431 41.1464 145.173 40.5028 144.915 40.1166C144.915 39.9879 144.786 39.8591 144.786 39.7304C144.657 39.6017 144.528 39.2155 144.786 38.7006C145.044 38.057 145.947 37.2846 146.462 37.1559C146.591 37.1559 146.72 37.1559 146.849 37.1559C148.525 37.1559 148.912 38.5719 149.17 39.0868C149.17 39.2155 149.17 39.2155 149.17 39.3442C149.17 39.6017 149.041 39.8591 148.912 39.9878ZM148.267 39.0868C147.88 38.057 147.365 37.7995 146.462 37.9282C146.075 37.9282 145.302 38.8293 145.302 39.0868C145.431 39.2155 145.431 39.4729 145.56 39.6017C145.689 39.9878 145.818 40.2453 146.075 40.2453H146.333C146.591 40.2453 146.849 40.2453 146.978 40.2453C147.365 40.2453 147.623 40.1166 147.752 39.6017C147.752 39.4729 147.88 39.3442 147.88 39.2155C148.267 39.3442 148.267 39.2155 148.267 39.0868C148.267 39.2155 148.267 39.2155 148.267 39.0868ZM57.3711 97.7859C57.2421 98.687 56.8553 99.3307 56.4685 99.8456C56.3396 100.103 56.2107 100.36 55.9528 100.618C55.4371 101.519 54.9214 102.291 54.5346 103.192C53.761 104.48 52.9874 105.767 52.3428 107.054C51.4402 108.985 49.8931 109.114 48.3459 108.985C46.0251 108.856 43.5755 108.856 41.1258 108.985C40.4811 108.985 39.9654 108.985 39.3207 108.985H38.805C38.2893 108.985 38.1604 108.599 38.0314 108.47V108.342C37.2579 107.183 36.6132 105.896 35.8396 104.737C35.195 103.707 34.6792 102.549 34.0346 101.519C33.7767 101.262 33.6478 100.875 33.5189 100.489C33.261 100.103 33.0031 99.5881 32.7453 99.2019C32.4874 98.8158 32.2296 98.3008 32.2296 97.9147L33.3899 97.0136C33.3899 97.0136 33.3899 97.1423 33.261 97.1423C32.8742 97.7859 32.8742 98.1721 33.3899 98.687C33.6478 99.0732 33.9056 99.5881 34.1635 99.9743C34.2924 100.232 34.5503 100.618 34.6792 100.875C35.3239 101.905 35.9685 103.064 36.6132 104.094C37.2579 105.252 38.0314 106.539 38.6761 107.698L38.805 107.827L38.9339 107.955H39.4497C40.0943 107.955 40.6101 108.084 41.1258 107.955C43.5755 107.827 46.0251 107.827 48.3459 107.955C49.7641 108.084 50.7956 107.955 51.4402 106.539C52.0849 105.123 52.8585 103.836 53.6321 102.549C54.1478 101.776 54.6635 100.875 55.0503 100.103C55.1792 99.8456 55.4371 99.5881 55.566 99.3307C55.9528 98.8158 56.2107 98.4296 56.3396 97.7859C55.9528 97.0136 55.566 96.37 55.1792 95.7263C55.0503 95.4689 54.7924 95.0827 54.6635 94.8252V94.6965C53.5031 92.6369 52.2138 90.5773 51.0534 88.5177C50.6667 87.874 50.4088 87.7453 49.6352 87.7453C48.088 87.7453 46.6698 87.7453 45.1226 87.7453L46.283 86.8442C47.4434 86.8442 48.4748 86.8442 49.6352 86.8442C49.6352 86.8442 49.6352 86.8442 49.7641 86.8442C50.7956 86.8442 51.4402 87.2304 51.827 88.1315C52.9874 90.1911 54.1478 92.3794 55.3082 94.3103V94.4391C55.4371 94.6965 55.695 95.0827 55.8239 95.3401C56.2107 96.1125 56.7264 96.8849 57.1132 97.6572C57.371 97.6572 57.3711 97.6572 57.3711 97.7859ZM12.761 118.253C12.3742 119.798 11.0849 119.541 10.3113 119.541H10.0535C9.27986 119.412 9.022 118.768 8.76413 118.382C8.76413 118.253 8.63521 118.125 8.63521 117.996C8.50627 117.867 8.37735 117.481 8.63521 116.966C8.63521 116.837 8.76414 116.709 8.89308 116.58L10.3113 115.55H10.4402C10.5692 115.55 10.6981 115.55 10.827 115.55C12.5031 115.55 12.8899 116.966 13.1478 117.481C13.1478 117.61 13.1478 117.61 13.1478 117.739C13.1478 117.996 13.0189 118.253 12.8899 118.382C12.8899 118.125 12.761 118.253 12.761 118.253ZM12.2453 117.352C11.8585 116.323 11.3428 116.065 10.4402 116.194C10.0535 116.194 9.27986 117.095 9.27986 117.352C9.4088 117.481 9.4088 117.739 9.53773 117.867C9.66666 118.253 9.79558 118.511 10.0535 118.511H10.3113C10.5692 118.511 10.827 118.511 10.956 118.511C11.3428 118.511 11.6006 118.382 11.7296 117.867C11.7296 117.739 11.8585 117.61 11.8585 117.481C12.1163 117.61 12.2453 117.481 12.2453 117.352C12.2453 117.481 12.2453 117.481 12.2453 117.352ZM84.0597 67.2778C84.8333 67.2778 85.349 67.4065 85.8648 68.3076C86.5094 69.3374 87.1541 70.496 87.6698 71.5258C88.4434 72.813 89.088 73.9716 89.8616 75.2588C89.9905 75.5163 90.2484 75.7738 90.3773 76.1599C90.7641 76.8036 91.1509 77.4472 91.4088 78.0908C91.4088 78.2196 91.4088 78.2196 91.4088 78.3483C91.4088 78.477 91.4088 78.477 91.4088 78.6057C90.6352 80.2792 89.7327 81.8239 88.8302 83.2399C88.4434 83.8835 88.0566 84.5271 87.6698 85.2995L87.1541 86.2006C86.7673 86.9729 86.2516 87.7453 85.8648 88.5177C85.349 89.29 84.8333 89.5475 84.0597 89.5475C80.5786 89.5475 77.0975 89.5475 73.7453 89.5475C72.9717 89.5475 72.456 89.4187 71.9402 88.5177C71.0377 86.8442 70.0063 85.1708 69.1038 83.4973C68.717 82.8537 68.3302 82.2101 68.0723 81.6952L66.783 79.5068C66.3962 78.8632 66.3962 78.0908 66.783 77.4472C67.4277 76.4174 67.9434 75.5163 68.4591 74.4865C68.9748 73.5854 69.4906 72.6843 70.1352 71.6545C70.3931 71.1396 70.6509 70.7534 70.9088 70.2385C71.2956 69.5949 71.5534 68.9513 71.9402 68.4364C72.456 67.664 72.9717 67.4065 73.7453 67.4065C77.0975 67.2778 80.5786 67.2778 84.0597 67.2778ZM73.6163 68.1789C73.1006 68.1789 72.8428 68.3076 72.5849 68.6938C72.1981 69.3374 71.8113 69.8523 71.5534 70.496C71.2956 71.0109 71.0377 71.5258 70.7799 71.912C70.2641 72.8131 69.7484 73.7141 69.2327 74.6152C68.717 75.645 68.0723 76.5461 67.5566 77.5759C67.2987 77.9621 67.2987 78.3483 67.5566 78.7345L68.8459 80.9228C69.2327 81.5664 69.6195 82.2101 69.8773 82.725C70.9088 84.3984 71.8113 86.0719 72.7138 87.7453C72.9717 88.2602 73.2295 88.2602 73.7453 88.2602C77.2264 88.2602 80.7075 88.2602 84.0597 88.2602C84.5755 88.2602 84.8333 88.1315 85.0912 87.7453C85.478 86.9729 85.9937 86.2006 86.3805 85.4282L86.8962 84.5271C87.283 83.8835 87.6698 83.1112 88.0566 82.4675C88.9591 81.0515 89.7327 79.6356 90.5063 78.0908C90.2484 77.4472 89.8616 76.9323 89.6038 76.4174C89.4748 76.1599 89.217 75.9025 89.088 75.5163C88.4434 74.229 87.6698 73.0705 86.8962 71.7832C86.2516 70.7534 85.6069 69.5949 85.0912 68.5651C84.8333 68.0502 84.5755 67.9215 84.0597 68.0502C82.3836 68.0502 80.5786 68.0502 78.9025 68.0502C77.0975 68.1789 75.4214 68.1789 73.6163 68.1789ZM112.553 56.7223C112.682 56.7223 112.94 56.7223 113.069 56.7223C114.358 56.7223 114.745 57.7521 115.132 58.5244C115.132 58.6532 115.132 58.6532 115.132 58.7819C115.132 58.9106 115.132 58.9106 115.132 59.0393C114.487 60.7128 114.23 61.0989 112.682 61.0989C112.167 61.0989 111.651 60.8415 111.264 60.3266C110.877 59.8117 110.619 59.2968 110.619 58.9106C110.619 57.6233 111.651 56.851 112.553 56.7223ZM111.909 59.5542C112.167 59.8117 112.553 60.0692 112.682 60.0692C112.811 60.0692 112.811 60.0692 112.94 60.0692C113.714 60.0692 113.843 59.9404 114.23 58.6532C113.843 57.7521 113.585 57.3659 112.682 57.4946C112.167 57.6234 111.393 58.1383 111.393 58.6532C111.393 58.9106 111.651 59.2968 111.909 59.5542ZM153.94 185.706C155.101 187.766 156.261 189.696 157.421 191.756L159.226 194.846C159.355 194.974 159.355 195.103 159.355 195.232V195.36C159.355 195.489 159.355 195.489 159.355 195.618V195.747C159.226 196.39 158.969 196.905 158.582 197.291C158.453 197.549 158.324 197.678 158.195 197.935C157.55 199.094 156.906 200.123 156.39 201.153C155.616 202.569 154.714 203.985 153.94 205.53C153.553 206.431 152.78 206.817 151.619 206.817C149.686 206.688 147.88 206.688 146.075 206.688C144.657 206.688 143.368 206.688 141.95 206.817C140.789 206.946 140.145 206.431 139.5 205.401C138.082 202.827 136.663 200.381 135.116 197.935L134.472 196.905C133.956 196.133 133.956 195.36 134.472 194.459L135.116 193.43C136.535 190.984 138.082 188.538 139.5 185.963C140.016 184.934 140.66 184.547 141.692 184.547H141.821C143.626 184.547 145.431 184.676 147.88 184.676C148.912 184.676 150.072 184.676 151.619 184.547C152.78 184.547 153.425 184.934 153.94 185.706ZM148.138 185.577C145.689 185.577 143.884 185.577 142.079 185.449C141.305 185.449 140.918 185.706 140.531 186.35C139.113 188.924 137.695 191.37 136.148 193.816L135.503 194.846C135.116 195.36 135.116 195.747 135.503 196.39L136.148 197.42C137.566 199.866 139.113 202.44 140.531 204.886C140.918 205.53 141.305 205.787 141.95 205.787H142.079C143.497 205.659 144.786 205.659 146.204 205.659C148.009 205.659 149.814 205.659 151.748 205.787C152.522 205.787 152.909 205.659 153.167 205.015C153.94 203.47 154.843 202.054 155.616 200.638C156.261 199.608 156.906 198.45 157.421 197.42C157.55 197.163 157.679 196.905 157.808 196.776C158.066 196.39 158.324 196.004 158.453 195.618V195.489C158.453 195.36 158.453 195.36 158.324 195.232L156.519 192.142C155.358 190.083 154.198 188.152 153.038 186.092C152.78 185.577 152.393 185.449 151.748 185.449C150.33 185.577 149.17 185.577 148.138 185.577ZM108.428 47.5827C110.619 47.7114 112.811 47.5827 115.003 47.7114C115.39 47.7114 115.777 47.7114 116.292 47.7114C117.066 47.7114 117.84 47.5827 118.742 47.7114C119.129 47.7114 119.516 47.8402 119.774 48.3551C121.192 50.8009 122.61 53.1179 123.77 55.1776C123.899 55.5637 124.157 55.8212 124.415 56.2074C124.931 56.9797 125.318 57.6233 125.575 58.5244V58.6532C125.575 58.7819 125.575 58.7819 125.575 58.9106C124.802 60.4553 123.899 62 123.126 63.416C122.61 64.3171 122.094 65.2182 121.579 66.1193C121.321 66.5055 121.063 66.8916 120.934 67.4065C120.676 67.9215 120.418 68.4364 120.031 68.9513C119.645 69.7236 118.871 69.8523 118.355 69.8523C115.519 69.8523 111.78 69.8523 107.912 69.8523C107.009 69.8523 106.494 69.5949 105.978 68.6938C105.075 67.1491 104.173 65.6044 103.27 63.9309L102.239 62.2575C102.11 62 101.981 61.7426 101.852 61.4851C101.465 60.8415 101.208 60.3266 100.821 59.8117C100.305 59.1681 100.305 58.3957 100.821 57.6233C102.755 54.6626 104.302 51.7019 105.849 48.87C106.365 47.8401 107.396 47.7114 108.041 47.7114C108.041 47.5827 108.299 47.5827 108.428 47.5827ZM106.494 49.2561C104.947 52.2168 103.27 55.0488 101.465 58.1383C101.208 58.6532 101.208 58.9106 101.465 59.2968C101.852 59.9404 102.239 60.4553 102.497 61.0989C102.626 61.3564 102.755 61.6139 102.884 61.8713L103.915 63.5448C104.818 65.0895 105.72 66.6342 106.623 68.3076C106.88 68.8225 107.138 68.9513 107.654 68.9513C111.522 68.9513 115.261 68.9513 118.097 68.9513C118.613 68.9513 118.742 68.8225 119 68.4364C119.258 67.9215 119.516 67.4065 119.902 66.8916C120.16 66.5055 120.418 66.1193 120.547 65.7331C121.063 64.832 121.579 63.9309 122.094 63.0298C122.868 61.6139 123.77 60.1979 124.415 58.7819C124.157 58.0095 123.77 57.4946 123.384 56.851C123.126 56.4648 122.997 56.2074 122.739 55.8212C121.579 53.7616 120.289 51.3158 118.742 48.9987C118.613 48.7412 118.613 48.7412 118.226 48.7412C117.582 48.6125 116.808 48.6125 116.164 48.7412C115.777 48.7412 115.39 48.7412 115.003 48.7412H114.874C112.682 48.7412 110.491 48.7412 108.299 48.6125C107.396 48.4838 106.88 48.4838 106.494 49.2561ZM80.5786 79.5068L80.4497 79.6355C79.9339 80.2792 78.6446 80.6653 78 80.4079C77.2264 80.0217 76.5817 79.2494 76.5817 78.3483C76.5817 77.5759 77.0975 76.6748 78 76.2887C78.2579 76.1599 78.3868 76.1599 78.6446 76.1599C79.4182 76.1599 80.1918 76.5461 80.5786 77.1897C80.7075 77.4472 80.8365 77.5759 80.9654 77.8334L81.0943 78.0908C81.0943 78.2196 81.0943 78.2196 81.0943 78.3483V78.477C81.0943 78.8632 80.8365 79.1206 80.5786 79.5068ZM80.1918 78.0908C80.0629 77.9621 79.9339 77.7046 79.805 77.5759C79.5471 77.1897 78.7736 76.9323 78.2578 77.061C77.7421 77.3185 77.3553 77.8334 77.3553 78.3483C77.3553 78.7345 77.6132 79.3781 78.2578 79.6355C78.3868 79.6355 78.3868 79.6355 78.5157 79.6355C78.9025 79.6355 79.4182 79.3781 79.6761 79.1206L79.805 78.9919C79.9339 78.7345 80.0629 78.6057 80.1918 78.3483V78.0908ZM146.462 232.691C146.591 232.691 146.72 232.691 146.978 232.691C147.623 232.691 148.525 232.82 148.783 233.978C148.783 233.978 148.912 234.107 148.912 234.236C148.912 234.365 149.041 234.365 149.041 234.493C149.041 234.622 149.17 234.622 149.041 234.751V234.879C149.041 235.008 148.912 235.266 148.783 235.394C148.783 235.523 148.654 235.523 148.654 235.652C148.267 237.068 147.107 236.81 146.462 236.81C146.333 236.81 146.204 236.81 146.075 236.81C145.173 236.682 144.915 235.909 144.657 235.394V235.266C144.528 234.879 144.657 234.365 144.915 233.85C145.302 233.335 145.818 232.82 146.462 232.691ZM145.56 235.008C145.818 235.523 145.947 235.781 146.204 235.781C146.333 235.781 146.462 235.781 146.72 235.781C146.978 235.781 147.107 235.909 147.236 235.909C147.623 235.909 147.752 235.78 147.88 235.394C147.88 235.266 148.009 235.137 148.138 235.008L148.267 234.879C148.138 234.751 148.009 234.493 148.009 234.365C147.88 233.721 147.494 233.592 146.591 233.721C146.462 233.721 146.075 233.978 145.818 234.365C145.689 234.622 145.56 234.879 145.689 234.879L145.56 235.008ZM111.651 98.4296L111.006 98.9445C110.877 98.687 110.748 98.3009 110.619 98.0434V97.9147C110.362 97.1423 111.522 95.855 112.038 95.5976C112.167 95.4689 112.425 95.4689 112.682 95.4689C113.327 95.4689 113.972 95.7263 114.358 96.2412L113.714 96.7561C113.327 96.4987 112.811 96.2412 112.296 96.37C112.038 96.4987 111.393 97.3998 111.393 97.5285V97.6572C111.522 98.0434 111.651 98.3008 111.651 98.4296ZM46.5409 96.6274C46.5409 96.7561 46.6698 96.7561 46.6698 96.8849C46.7987 97.1423 47.0566 97.3998 47.0566 97.7859V97.9147C47.1855 98.3008 46.9277 98.5583 46.7987 98.687C46.1541 99.9743 45.1226 100.36 43.8333 99.9743C42.9308 99.7169 42.6729 98.8158 42.544 98.1721V98.0434C42.2862 97.271 43.4465 95.9838 43.9622 95.7263C44.0912 95.5976 44.349 95.5976 44.6069 95.5976C45.3805 95.5976 46.1541 95.9838 46.5409 96.6274ZM45.7673 97.0136C45.5094 96.6274 44.7358 96.3699 44.2201 96.4987C43.9622 96.6274 43.3176 97.5285 43.3176 97.6572V97.7859C43.4465 98.4296 43.7044 98.8158 44.0912 98.9445C44.349 99.0732 44.478 99.0732 44.7358 99.0732C45.2516 99.0732 45.6384 98.8158 46.0251 98.1721C46.0251 98.0434 46.1541 98.0434 46.1541 97.9147V97.7859C46.1541 97.6572 46.0251 97.3998 45.8962 97.271C45.8962 97.271 45.8962 97.1423 45.7673 97.0136ZM44.6069 134.859C44.7358 134.859 44.9937 134.859 45.1226 134.859C46.4119 134.859 46.7987 135.889 47.1855 136.661C47.1855 136.79 47.1855 136.79 47.1855 136.919C47.1855 137.047 47.1855 137.047 47.1855 137.176C46.5409 138.85 46.283 139.236 44.7358 139.236C44.2201 139.236 43.7044 138.978 43.3176 138.463C42.9308 137.949 42.6729 137.434 42.6729 137.047C42.544 135.889 43.5755 135.117 44.6069 134.859ZM43.8333 137.82C44.0912 138.077 44.478 138.335 44.6069 138.335C44.7358 138.335 44.7358 138.335 44.8648 138.335C45.6383 138.335 45.7673 138.206 46.1541 136.919C45.7673 136.018 45.5094 135.631 44.6069 135.76C44.0912 135.889 43.3176 136.404 43.3176 136.919C43.4465 137.176 43.5755 137.562 43.8333 137.82ZM83.8019 184.547C84.8333 184.547 85.478 184.805 85.8648 185.706C87.0251 187.766 88.1855 189.696 89.3459 191.756L91.1509 194.974C91.2799 195.103 91.2799 195.232 91.2799 195.36V195.489C91.2799 195.618 91.2799 195.618 91.2799 195.747V195.875C91.1509 196.519 90.8931 197.034 90.5063 197.42V197.549L89.8616 197.034C90.1195 196.648 90.3773 196.262 90.5063 195.875V195.747C90.5063 195.618 90.5063 195.618 90.3773 195.489L88.5723 192.271C87.4119 190.211 86.2516 188.281 85.0912 186.221C84.8333 185.706 84.4465 185.577 83.8019 185.577C82.2547 185.706 81.0943 185.706 80.0629 185.706C78.2578 185.706 76.7107 185.706 75.4214 185.706L74.261 184.805C75.9371 184.805 77.7421 184.934 80.0629 184.934C81.2233 184.676 82.2547 184.676 83.8019 184.547ZM49.8931 165.11C50.9245 165.11 51.5692 165.496 51.956 166.397C52.2138 166.912 52.4717 167.298 52.7296 167.813L49.3773 165.239C49.5063 165.11 49.6352 165.11 49.8931 165.11ZM107.912 204.114C108.041 204.114 108.17 204.114 108.299 204.114C110.491 204.243 112.682 204.114 114.874 204.243C115.261 204.243 115.648 204.243 116.164 204.243C116.937 204.243 117.711 204.114 118.613 204.243C119 204.243 119.387 204.371 119.645 204.886C121.063 207.332 122.481 209.649 123.641 211.709C123.77 212.095 124.028 212.352 124.286 212.739C124.802 213.511 125.189 214.154 125.447 215.056V215.184C125.447 215.313 125.447 215.313 125.447 215.442C124.673 216.986 123.77 218.531 122.997 219.947C122.61 220.591 122.223 221.234 121.836 222.007L121.192 221.492C121.579 220.848 121.965 220.205 122.352 219.561C123.126 218.145 124.028 216.729 124.673 215.313C124.415 214.669 124.028 214.026 123.641 213.382C123.384 212.996 123.255 212.738 122.997 212.352C121.836 210.293 120.547 207.847 119 205.53C118.871 205.272 118.871 205.272 118.484 205.272C117.84 205.144 117.066 205.144 116.421 205.272C116.035 205.272 115.648 205.272 115.261 205.272H115.132C112.94 205.272 110.748 205.272 108.557 205.144C107.654 205.144 107.009 205.144 106.752 205.916C106.236 206.946 105.72 207.847 105.075 208.877L104.431 208.362C104.947 207.461 105.462 206.431 105.978 205.53C106.236 204.243 107.267 204.114 107.912 204.114ZM22.5597 119.026C22.4308 119.283 22.3019 119.412 22.1729 119.669C21.5283 120.828 20.8836 121.858 20.3679 122.888C19.5943 124.304 18.6918 125.72 17.9182 127.264C17.5314 128.165 16.7579 128.552 15.5975 128.552C13.6635 128.423 11.8585 128.423 10.0535 128.423C8.63521 128.423 7.3459 128.423 5.92766 128.552C4.76729 128.68 4.12263 128.165 3.47798 127.136C2.70439 125.591 1.80188 124.046 0.899353 122.63L1.54401 122.115C2.44653 123.66 3.34904 125.205 4.25156 126.749C4.63835 127.393 5.02515 127.65 5.6698 127.65H5.79874C7.08804 127.522 8.50627 127.522 9.92451 127.522C11.7296 127.522 13.5346 127.522 15.4686 127.65C16.2421 127.65 16.6289 127.522 16.8868 126.878C17.6604 125.333 18.5629 123.917 19.3365 122.501C19.9811 121.472 20.6258 120.313 21.1415 119.283C21.2704 119.026 21.3994 118.768 21.5283 118.64C21.7861 118.253 22.044 117.867 22.1729 117.481V117.352C22.1729 117.224 22.1729 117.224 22.044 117.095L20.239 114.005C19.3365 112.461 18.4339 110.916 17.6604 109.371L18.305 108.856C19.2075 110.401 20.11 111.946 21.0126 113.619L22.8176 116.709C22.9465 116.837 22.9465 116.966 22.9465 117.095V117.224C22.9465 117.352 22.9465 117.352 22.9465 117.481V117.61C23.3333 118.125 22.9465 118.64 22.5597 119.026ZM117.84 30.7196L120.547 28.5312L120.418 28.6599C119.774 30.0759 118.871 30.5908 117.84 30.7196ZM113.069 213.125C114.358 213.125 114.745 214.154 115.132 214.927C115.132 215.056 115.132 215.056 115.132 215.184C115.132 215.313 115.132 215.313 115.132 215.442C115.003 215.828 114.874 216.214 114.745 216.472L114.101 215.957C114.23 215.828 114.23 215.57 114.358 215.313C113.972 214.412 113.714 214.026 112.811 214.154C112.553 214.154 112.296 214.283 112.167 214.412L111.393 213.897C111.78 213.64 112.167 213.382 112.682 213.253C112.682 213.125 112.94 213.125 113.069 213.125ZM33.0031 135.245C33.1321 134.988 33.261 134.859 33.3899 134.602C34.0346 133.572 34.5503 132.413 35.195 131.384C36.0975 129.968 36.8711 128.423 37.6446 127.007C38.1604 125.977 39.1918 125.72 39.8365 125.72C39.9654 125.72 40.2233 125.72 40.3522 125.72C41.8994 125.848 43.4465 125.848 44.8648 125.848C45.6383 125.848 46.283 125.848 47.0566 125.848C47.4434 125.848 47.8302 125.848 48.217 125.848C48.9906 125.848 49.6352 125.72 50.5377 125.848C50.9245 125.977 51.3113 125.977 51.5692 126.492C52.2138 127.65 52.9874 128.809 53.6321 129.968C54.2767 131.126 54.9214 132.156 55.566 133.314C55.8239 133.572 55.9528 133.958 56.0817 134.344C56.3396 134.73 56.5975 135.245 56.8553 135.631C57.5 136.533 57.5 137.305 56.9843 138.206C55.8239 140.008 54.7924 141.939 53.761 143.741L53.2453 144.514C52.7295 145.286 52.2138 146.187 51.827 147.088C51.4402 147.86 50.6667 147.989 50.1509 147.989C47.0566 147.989 43.4465 147.989 39.8365 147.989C38.805 147.989 38.1604 147.603 37.6446 146.702C36.8711 145.286 36.0975 143.87 35.195 142.454L34.0346 140.394C33.9057 140.137 33.6478 139.751 33.5189 139.493C33.0031 138.721 32.6163 137.949 32.2296 137.176C32.2296 137.047 32.2296 137.047 32.2296 136.919V136.79C32.3585 136.275 32.7453 135.76 33.0031 135.245ZM34.2924 139.107C34.4214 139.365 34.6792 139.751 34.8082 140.008L35.9685 142.068C36.7421 143.484 37.6446 144.9 38.4182 146.316C38.805 146.959 39.0629 147.088 39.8365 147.088C43.3176 146.959 46.9277 147.088 50.1509 147.088C50.6667 147.088 50.7956 146.959 51.0534 146.573C51.5692 145.672 52.0849 144.771 52.4717 143.87L52.9874 143.098C54.0189 141.295 55.1792 139.365 56.2107 137.562C56.5975 136.919 56.5975 136.533 56.0817 136.018C55.8239 135.631 55.566 135.117 55.3082 134.73C55.1792 134.473 54.9214 134.087 54.7924 133.829C54.1478 132.671 53.5031 131.512 52.8585 130.482C52.2138 129.324 51.5692 128.165 50.9245 127.136C50.7956 126.878 50.7956 126.878 50.4088 126.878C49.7641 126.749 49.1195 126.749 48.3459 126.878C47.9591 126.878 47.5723 126.878 47.1855 126.878C46.4119 126.878 45.7673 126.878 44.9937 126.878C43.4465 126.878 41.8994 126.878 40.3522 126.749C39.4497 126.749 38.805 126.749 38.5472 127.522C37.7736 129.066 36.8711 130.611 36.0975 132.027C35.4528 133.057 34.8082 134.087 34.2924 135.245C34.1635 135.503 34.0346 135.76 33.9056 135.889C33.6478 136.275 33.3899 136.661 33.261 137.047C33.3899 137.691 33.9056 138.335 34.2924 139.107Z" fill="white"/>
</svg>
