<svg width="577" height="718" viewBox="0 0 577 718" fill="none" xmlns="http://www.w3.org/2000/svg">
<g opacity="0.2">
<path d="M576.238 537.75C573.958 525.692 564.073 515.269 550.438 510.547C537.076 505.916 523.348 508.067 514.624 516.162C511.646 518.927 509.382 524.608 508.462 529.012C507.88 531.793 508.18 534.429 509.3 536.434C510.207 538.056 512.053 539.467 513.79 539.864C514.947 540.129 516.01 539.938 516.865 539.317C517.897 538.569 518.624 537.342 519.087 535.568C521.072 527.967 526.099 524.196 533.191 524.931C537.823 525.415 542.198 527.806 545.192 531.49C556.013 544.793 546.162 566.137 535.218 575.806C525.412 584.468 511.863 589.365 498.681 593.368C482.421 598.304 468.426 599.466 455.89 596.925C447.463 595.214 439.424 591.633 431.648 588.167C428.711 586.859 425.674 585.505 422.661 584.275C409.498 578.895 398.42 575.067 387.8 572.23C356.595 563.896 314.377 566.23 289.447 597.778C289.221 598.064 288.994 598.351 288.757 598.63C288.518 598.353 288.292 598.066 288.065 597.778C263.136 566.23 220.911 563.894 189.713 572.23C179.09 575.067 168.014 578.895 154.854 584.275C151.839 585.507 148.803 586.859 145.863 588.169C138.09 591.633 130.05 595.214 121.625 596.925C109.089 599.466 95.0921 598.307 78.8348 593.368C65.6527 589.365 52.1035 584.468 42.2995 575.806C31.3536 566.137 21.5019 544.791 32.323 531.49C35.3192 527.806 39.6925 525.415 44.3227 524.931C51.4407 524.181 56.4418 527.967 58.4283 535.568C58.891 537.344 59.6161 538.569 60.6498 539.317C61.5053 539.938 62.5702 540.126 63.7268 539.864C65.4636 539.467 67.3088 538.058 68.2157 536.434C69.3375 534.427 69.6349 531.79 69.0529 529.012C68.1312 524.608 65.8694 518.925 62.8915 516.162C54.1689 508.067 40.4452 505.916 27.0758 510.547C13.4421 515.269 3.5574 525.694 1.27715 537.75C-0.931489 549.44 2.08129 561.3 4.99493 572.769C5.33274 574.099 5.66872 575.42 5.99185 576.73C9.54807 591.092 15.4341 604.524 23.0166 615.576C33.8009 631.295 48.8795 643.806 62.1681 654.298C63.8902 655.659 65.5903 657.007 67.261 658.348C69.1906 659.899 71.1973 661.432 73.1379 662.915C77.4046 666.173 81.8182 669.546 85.6847 673.315C92.3565 679.824 98.5492 685.096 104.621 689.431C118.706 699.491 133.228 706.906 147.78 711.469C160.162 715.35 172.899 717.242 185.531 717.242C214.91 717.242 243.671 706.999 265.773 687.735C271.335 682.885 276.056 677.255 280.624 671.811C283.234 668.697 285.933 665.48 288.762 662.44C291.591 665.48 294.288 668.697 296.901 671.811C301.467 677.255 306.187 682.885 311.752 687.735C343.352 715.282 388.562 724.374 429.743 711.471C444.296 706.908 458.817 699.493 472.902 689.432C478.977 685.092 485.172 679.82 491.838 673.317C495.703 669.547 500.116 666.177 504.383 662.917C506.324 661.434 508.328 659.899 510.26 658.35C511.931 657.009 513.631 655.659 515.353 654.299C528.641 643.806 543.724 631.295 554.504 615.578C562.193 604.368 567.923 591.299 571.529 576.732C571.854 575.42 572.19 574.095 572.528 572.762C575.436 561.294 578.449 549.438 576.238 537.75ZM24.7993 536.178C21.5937 544.696 22.967 555.222 28.6694 565.819C33.4961 574.786 40.0376 579.45 45.8135 583.568C53.7577 589.227 60.4295 591.61 69.6624 594.906C80.8984 598.917 92.9789 602.844 106.245 602.984C121.179 603.138 135.288 598.264 145.942 594.001C150.8 592.056 155.691 589.871 160.421 587.755C170.305 583.337 180.526 578.768 191.092 576.106C202.306 573.282 221.077 568.558 243.194 574.769C265.084 580.917 278.723 594.318 280.548 596.765C281.806 598.467 283.302 600.225 284.872 601.851C286.01 603.03 287.215 604.16 288.446 605.215L288.753 605.477L289.06 605.215C290.281 604.175 291.483 603.043 292.636 601.851C293.725 600.725 295.357 598.932 297.006 596.703C298.783 594.32 312.418 580.919 334.314 574.771C356.432 568.558 375.202 573.284 386.416 576.108C396.984 578.77 407.205 583.338 417.089 587.759C421.819 589.872 426.71 592.06 431.566 594.003C442.22 598.269 456.375 603.163 471.263 602.986C484.527 602.846 496.608 598.919 507.846 594.908C517.08 591.612 523.752 589.231 531.7 583.566C537.47 579.451 544.012 574.788 548.842 565.816C554.541 555.22 555.916 544.692 552.712 536.178C551.064 531.803 548.528 528.698 547.16 527.238C545.4 525.352 541.276 520.938 534.459 519.87C532.357 519.54 528.135 519.287 523.532 521.336C521.189 522.381 517.646 523.957 515.85 527.644C515.21 528.962 514.938 530.265 514.74 531.218C514.624 531.778 514.477 532.475 514.376 532.578C514.058 532.568 513.107 531.258 512.981 529.714C512.852 528.153 513.737 526.323 515.487 522.703C515.501 522.675 517.033 519.916 519.239 517.852C524.252 513.16 536.126 510.429 547.318 513.978C561.417 518.45 567.984 530.853 569.159 533.295C575.537 546.563 571.905 559.631 566.88 577.718C564.694 585.589 560.144 601.968 547.412 617.672C540.099 626.69 530.499 634.509 521.217 642.071C518.147 644.57 514.974 647.158 511.997 649.699C509.423 651.899 506.845 654.112 504.264 656.328L501.862 658.39C499.011 660.839 496.143 663.355 493.253 665.892C478.643 678.713 463.533 691.973 446.499 700.116C432.341 706.881 415.723 710.972 395.699 712.625C394.707 712.707 393.784 712.802 392.895 712.893C390.178 713.174 387.832 713.417 384.802 713.138C364.056 711.218 347.101 705.892 331.437 696.377C313.52 685.492 301.118 670.203 289.122 655.414L288.757 654.958L288.388 655.41C276.39 670.199 263.984 685.49 246.071 696.373C230.41 705.888 213.452 711.215 192.706 713.134C189.676 713.412 187.332 713.172 184.615 712.889C183.726 712.798 182.804 712.703 181.811 712.622C161.785 710.97 145.169 706.878 131.011 700.112C113.975 691.968 98.8631 678.71 84.2527 665.885C81.3629 663.35 78.497 660.835 75.6476 658.386L73.3196 656.386C70.7144 654.149 68.1129 651.915 65.5132 649.695C62.5353 647.15 59.3609 644.564 56.2894 642.061C47.0069 634.5 37.4086 626.682 30.0978 617.666C17.3656 601.961 12.8142 585.583 10.6276 577.708C5.60448 559.623 1.97297 546.555 8.35104 533.29C9.52605 530.848 16.0932 518.446 30.1915 513.972C33.7422 512.846 37.3608 512.351 40.8087 512.351C48.2278 512.351 54.8482 514.641 58.2686 517.846C60.4735 519.91 62.0065 522.669 62.0102 522.675C63.7727 526.319 64.6558 528.148 64.5273 529.708C64.4006 531.252 63.4496 532.562 63.1687 532.585C63.0292 532.469 62.8841 531.774 62.7666 531.214C62.5683 530.261 62.2966 528.958 61.654 527.641C59.8585 523.955 56.317 522.377 53.9706 521.332C49.3752 519.286 45.1525 519.536 43.0449 519.867C36.2317 520.932 32.1063 525.347 30.3438 527.234C28.9815 528.702 26.4424 531.809 24.7993 536.178Z" fill="#010003"/>
<path d="M484.445 252.879C483.402 251.798 482.089 250.606 480.259 249.96C477.588 249.02 474.685 248.111 471.551 247.831C463.645 247.127 455.073 246.303 444.572 245.241C443.171 245.101 441.781 245.156 440.434 245.209L439.604 245.24C438.273 245.281 437.164 244.9 436.372 244.129C435.629 243.405 435.219 242.37 435.188 241.138C435.091 237.382 435.203 234.072 435.526 231.021C436.125 225.406 436.887 220.49 437.852 215.989C438.831 211.432 439.282 206.407 439.273 200.179C439.266 197.13 439.448 193.917 439.839 190.066C441.609 172.651 441.831 157.143 440.52 142.655C440.217 139.322 440.232 135.891 440.246 132.573C440.252 131.189 440.257 129.805 440.241 128.421C440.015 108.663 438.173 93.1091 434.443 79.4751C430 63.2226 422.395 50.8287 409.021 38.034C408.097 37.1511 407.177 36.2624 406.256 35.3718C400.224 29.546 393.986 23.5209 386.774 19.0471C379.006 14.2278 369.961 10.2895 359.891 7.34057C342.464 2.24019 323.12 0.0925587 299.047 0.612851C295.117 0.696402 291.852 0.647028 288.722 0.460938C285.639 0.647028 282.372 0.694503 278.448 0.612851C254.361 0.0925587 235.032 2.24019 217.605 7.34057C207.535 10.2876 198.491 14.2259 190.721 19.0471C183.51 23.5209 177.271 29.546 171.24 35.3718C170.318 36.2624 169.399 37.1511 168.475 38.034C155.1 50.8287 147.498 63.2207 143.053 79.4751C139.324 93.1091 137.482 108.663 137.257 128.421C137.24 129.803 137.247 131.187 137.251 132.572C137.264 135.891 137.279 139.322 136.978 142.655C135.665 157.137 135.887 172.645 137.659 190.066C138.05 193.915 138.23 197.128 138.224 200.179C138.215 206.411 138.667 211.436 139.645 215.989C140.611 220.484 141.371 225.4 141.971 231.021C142.296 234.068 142.406 237.378 142.311 241.138C142.28 242.37 141.868 243.405 141.127 244.129C140.334 244.902 139.21 245.287 137.894 245.24L137.064 245.209C135.72 245.158 134.328 245.101 132.927 245.241C122.43 246.303 113.856 247.125 105.948 247.831C102.82 248.111 99.9135 249.02 97.2404 249.96C95.4063 250.606 94.0954 251.798 93.0544 252.879C81.9231 264.428 78.0548 277.731 81.5596 292.423C84.3667 304.19 92.4504 317.196 106.716 318.4C142.188 321.394 174.117 323.249 204.327 324.068C211.269 324.258 218.407 324.204 225.31 324.153C238.777 324.052 252.706 323.952 266.09 325.61C271.791 326.316 277.782 326.652 283.851 326.62C285.485 326.61 287.099 326.593 288.751 326.603C290.389 326.606 292.018 326.608 293.652 326.62C293.947 326.622 294.241 326.622 294.536 326.622C300.314 326.622 305.987 326.282 311.412 325.61C324.8 323.954 338.726 324.052 352.194 324.153C359.098 324.204 366.234 324.254 373.179 324.068C403.388 323.249 435.317 321.396 470.787 318.4C485.052 317.196 493.134 304.19 495.943 292.423C499.444 277.731 495.578 264.426 484.445 252.879ZM144.059 249.641C145.377 249.244 146.442 247.974 146.84 246.33C147.178 244.924 147.029 243.447 146.848 242.055L146.479 239.22C145.386 230.823 144.257 222.142 142.781 213.576C141.874 208.312 141.591 202.967 141.435 198.434C141.31 194.84 141.074 191.074 140.666 186.221L140.53 184.608C139.803 176.003 139.05 167.105 139.495 158.299L139.528 157.646C139.801 152.2 140.084 146.57 140.552 141.041C140.881 137.157 140.941 133.369 140.736 129.78C140.504 125.756 140.684 121.674 140.857 117.724C140.947 115.675 141.039 113.556 141.074 111.467C141.167 105.769 141.92 99.6906 143.372 92.8888C146.036 80.4094 150.778 70.0681 154.287 63.5891C156.672 59.1837 163.347 47.8284 173.794 37.5631C204.818 7.07283 250.264 5.18345 269.674 4.37833C276.849 4.0802 284.703 4.14477 288.744 4.21123H288.757C292.802 4.14667 300.654 4.0802 307.827 4.37833C327.235 5.18345 372.685 7.07093 403.709 37.5631C414.161 47.8379 420.831 59.1875 423.214 63.5891C426.723 70.0681 431.463 80.4113 434.129 92.8888C435.581 99.6963 436.332 105.775 436.426 111.467C436.461 113.558 436.554 115.681 436.642 117.732C436.817 121.68 436.995 125.76 436.763 129.78C436.558 133.373 436.62 137.161 436.947 141.039C437.417 146.61 437.702 152.286 437.977 157.773L438.003 158.299C438.447 167.101 437.696 175.995 436.969 184.595L436.831 186.221C436.429 191 436.185 194.881 436.064 198.434C435.906 202.971 435.623 208.316 434.718 213.576C433.242 222.14 432.113 230.821 431.021 239.216L430.652 242.055C430.47 243.445 430.321 244.919 430.661 246.33C431.057 247.976 432.122 249.244 433.442 249.643C433.978 249.804 434.536 249.82 435.028 249.833C438.095 249.92 441.164 249.958 444.238 249.998C449.123 250.061 454.174 250.123 459.122 250.389C466.201 250.769 474.253 251.544 480.215 255.968C483.505 258.412 485.772 261.991 488.19 266.074C497.019 280.995 492.925 301.923 479.431 310.861C476.214 312.992 473.22 314.066 470.012 314.241C457.545 314.921 444.908 315.859 432.684 316.765C408.894 318.529 384.316 320.35 359.986 320.35C359.441 320.35 358.892 320.348 358.348 320.348C356.713 320.342 355.077 320.323 353.439 320.302C350.681 320.27 347.832 320.234 345.027 320.272C337.353 320.376 329.844 320.526 322.34 321.236C319.336 321.519 316.261 321.654 313.289 321.785C309.964 321.931 306.525 322.081 303.151 322.44C302.367 322.522 301.548 322.484 300.722 322.507L288.762 322.803L276.783 322.507C275.953 322.484 275.134 322.522 274.352 322.44C270.978 322.081 267.539 321.931 264.214 321.785C261.24 321.654 258.165 321.521 255.163 321.236C247.659 320.528 240.15 320.376 232.478 320.272C231.604 320.26 230.726 320.255 229.849 320.255C227.906 320.255 225.964 320.277 224.066 320.3C222.43 320.319 220.792 320.34 219.156 320.346C194.265 320.401 169.143 318.565 144.821 316.765C132.599 315.859 119.96 314.923 107.494 314.241C104.285 314.066 101.292 312.992 98.0739 310.861C84.5779 301.923 80.4856 280.995 89.3146 266.074C91.7289 261.991 93.9981 258.414 97.2881 255.968C103.249 251.544 111.302 250.769 118.381 250.389C123.329 250.123 128.38 250.059 133.265 249.998C136.337 249.958 139.408 249.92 142.474 249.833C142.965 249.82 143.523 249.803 144.059 249.641Z" fill="#010003"/>
<path d="M525.766 383.349C525.478 376.363 522.941 369.717 518.228 363.597C517.246 362.319 515.968 361.305 514.321 360.504C506.656 356.765 498.868 355.151 491.199 355.698C482.583 355.77 474.543 357.277 466.616 360.304C458.002 363.595 448.879 364.552 441.893 365.017C438.373 365.253 434.786 365.403 431.316 365.549C429.212 365.636 427.112 365.726 425.008 365.832C420.255 366.073 415.499 366.32 410.746 366.569C403.364 366.952 395.982 367.338 388.597 367.699C385.774 367.835 382.943 367.731 380.154 367.824C361.934 368.435 345.265 370.3 329.192 373.526C318.637 375.645 310.024 379.344 302.862 384.838C299.789 387.194 296.205 388.7 291.904 389.441C290.855 389.621 289.805 389.784 288.755 389.94C287.703 389.784 286.653 389.621 285.606 389.441C281.305 388.7 277.719 387.194 274.648 384.838C267.486 379.346 258.873 375.647 248.318 373.526C232.246 370.3 215.576 368.433 197.358 367.824C194.565 367.731 191.734 367.835 188.913 367.699C181.527 367.338 174.141 366.952 166.756 366.569C162.007 366.322 157.255 366.075 152.504 365.834C150.402 365.728 148.3 365.638 146.197 365.551C142.728 365.405 139.14 365.255 135.621 365.019C128.635 364.552 119.514 363.597 110.898 360.306C102.974 357.277 94.9324 355.772 86.3438 355.7C78.6439 355.153 70.8577 356.765 63.1944 360.504C61.5494 361.307 60.2715 362.319 59.2856 363.597C54.5728 369.719 52.0355 376.365 51.7473 383.349C51.2993 394.245 56.9871 402.262 66.9654 404.797L68.1992 405.112C69.499 405.446 70.8007 405.78 72.1061 406.081C73.6703 406.441 74.5516 407.438 74.7315 409.041C75.0289 411.718 75.3649 414.753 75.4934 417.707C76.3912 438.557 79.448 454.988 84.8402 467.936C98.0847 499.746 130.825 516.438 155.957 524.838C167.81 528.801 183.337 532.931 198.292 529.694C220.766 524.827 236.346 504.976 245.46 489.179C250.218 480.931 254.346 472.139 258.339 463.636C263.34 452.983 268.512 441.967 274.954 431.972C277.989 427.263 282.713 420.742 288.759 418.309C294.804 420.742 299.528 427.261 302.563 431.972C309.005 441.967 314.175 452.981 319.177 463.632C323.17 472.135 327.297 480.927 332.058 489.179C341.171 504.976 356.751 524.827 379.225 529.694C382.998 530.512 386.805 530.86 390.582 530.86C401.779 530.86 412.696 527.8 421.56 524.838C446.69 516.438 479.429 499.748 492.673 467.936C498.066 454.992 501.124 438.561 502.022 417.707C502.149 414.751 502.486 411.718 502.782 409.041C502.962 407.436 503.843 406.441 505.408 406.079C506.709 405.779 508.004 405.446 509.3 405.114L510.55 404.793C520.526 402.262 526.216 394.245 525.766 383.349ZM521.134 387.008C521.063 389.114 520.501 391.07 519.416 392.986C517.168 396.956 513.857 399.404 509.285 400.469C508.161 400.731 506.678 401.043 505.184 401.138C496.683 401.671 496.334 415.693 496.101 424.972C496.053 426.923 496.011 428.607 495.895 429.841C494.777 441.74 493.507 455.223 487.935 466.864C481.347 480.621 470.495 493.533 458.158 502.293C445.097 511.567 429.745 518.712 413.764 522.956C407.875 524.521 401.745 525.241 395.816 525.936L394 526.15C388.125 526.851 382.884 526.401 377.993 524.774C365.586 520.646 355.084 512.949 346.782 501.904C339.873 492.713 334.031 482.229 328.876 472.98C327.056 469.716 325.402 466.076 323.513 461.176C322.248 457.899 320.856 454.432 318.989 451.226C317.511 448.689 316.184 446.016 314.901 443.431C314.052 441.724 313.177 439.957 312.261 438.242C310.45 434.843 308.807 431.782 307.03 428.728C304.902 425.075 302.403 421.913 299.604 419.335C296.8 416.752 293.901 414.081 289.948 413.45C289.57 413.389 289.194 413.334 288.817 413.285L288.759 413.274L288.7 413.281C288.322 413.33 287.945 413.386 287.569 413.446C283.616 414.077 280.715 416.748 277.91 419.331C275.112 421.91 272.613 425.069 270.485 428.725C268.708 431.776 267.065 434.839 265.255 438.238C264.341 439.951 263.465 441.717 262.617 443.426C261.333 446.012 260.006 448.688 258.528 451.224C256.655 454.435 255.267 457.901 254.004 461.175C252.117 466.07 250.463 469.712 248.641 472.978C243.488 482.227 237.646 492.711 230.737 501.902C222.433 512.949 211.932 520.644 199.524 524.772C194.635 526.397 189.397 526.849 183.519 526.148L181.703 525.936C175.775 525.239 169.644 524.519 163.755 522.956C147.775 518.712 132.424 511.565 119.361 502.293C107.026 493.533 96.1735 480.621 89.5861 466.864C84.0104 455.22 82.7435 441.738 81.6254 429.841C81.5079 428.607 81.4676 426.923 81.418 424.971C81.1867 415.693 80.836 401.671 72.3355 401.138C70.8393 401.043 69.3577 400.731 68.2341 400.469C63.6644 399.406 60.3505 396.956 58.1015 392.986C57.0183 391.072 56.4565 389.116 56.3849 387.008C56.1811 381.038 57.659 375.531 60.9031 370.175C62.1497 368.118 63.7856 366.54 66.0548 365.209C70.16 362.801 74.6268 361.064 79.7124 359.904C80.4045 359.746 81.0655 359.674 81.6842 359.697C90.7795 360.016 100.418 360.656 109.502 364.575C115.01 366.95 120.904 367.662 126.602 368.35L128.203 368.544C136.485 369.565 145.303 370.581 154.046 370.805C156.503 370.868 158.961 370.923 161.417 370.976C167.825 371.116 174.449 371.261 180.956 371.572C184.907 371.762 188.927 371.865 192.816 371.963C201.217 372.178 209.903 372.4 218.368 373.505L221.715 373.938C230.234 375.04 239.041 376.179 247.588 378.028C252.412 379.073 257.34 380.694 263.098 383.136C265.325 384.08 267.307 385.212 268.993 386.497C274.429 390.641 280.728 393.111 288.252 394.047L288.762 394.114L289.271 394.047C296.798 393.111 303.097 390.641 308.532 386.497C310.215 385.214 312.2 384.082 314.427 383.136C320.184 380.694 325.112 379.073 329.937 378.028C338.483 376.177 347.292 375.04 355.809 373.938L359.156 373.505C367.622 372.4 376.309 372.178 384.709 371.963C388.597 371.865 392.618 371.762 396.569 371.572C403.074 371.261 409.698 371.116 416.107 370.976C418.564 370.923 421.022 370.868 423.478 370.805C432.223 370.581 441.039 369.565 449.319 368.544L450.922 368.35C456.621 367.662 462.512 366.95 468.02 364.575C477.105 360.656 486.743 360.016 495.839 359.697C496.45 359.674 497.116 359.744 497.81 359.904C502.894 361.066 507.361 362.801 511.466 365.209C513.734 366.54 515.371 368.116 516.618 370.175C519.86 375.531 521.34 381.038 521.134 387.008Z" fill="#010003"/>
<path d="M475.714 386.559C469.551 382.78 462.953 381.842 455.546 383.692C444.586 386.43 433.126 387.482 423.245 388.253C416.419 388.787 409.587 389.679 403.804 390.484L400.646 390.921C382.184 393.482 363.094 396.133 344.452 399.582C342.405 399.961 340.082 400.391 338.013 401.462C330.252 405.483 325.657 415.98 328.178 423.927C331.016 432.873 334.099 442.344 337.6 452.879C338.826 456.573 340.163 460.295 341.454 463.895C341.914 465.182 342.375 466.468 342.834 467.757C343.442 469.468 344.066 471.175 344.69 472.882C345.911 476.222 347.174 479.678 348.294 483.115C351.234 492.108 357.217 499.466 367.131 506.272C368.611 507.286 370.388 507.928 372.09 508.467C378.549 510.522 385.58 511.731 392.989 512.066C394.349 512.126 395.711 512.157 397.075 512.157C411.557 512.155 425.942 508.718 437.082 502.522C461.78 488.787 471.132 464.047 478.593 439.885C480.045 435.18 480.894 430.239 481.714 425.46C482.076 423.342 482.452 421.151 482.876 419.015C484.573 410.441 483.563 401.532 479.697 390.972C478.922 388.861 477.543 387.68 475.714 386.559ZM476.708 425.796C472.079 448.947 464.884 474.751 446.6 490.601C434.418 501.158 417.177 506.965 398.017 506.965C397.931 506.965 397.843 506.965 397.758 506.965C395.827 506.959 393.861 506.895 391.909 506.771C379.937 506.014 371.025 503.061 364.66 497.746C355.857 490.394 351.722 478.243 348.399 468.479L336.014 432.087C333.351 424.263 330.983 414.509 336.335 408.461C339.671 404.692 344.934 403.676 350.49 402.893L451.915 388.612C454.924 388.188 457.873 387.854 460.661 387.854C467.566 387.854 473.469 389.911 476.748 397.785C480.214 406.11 478.63 416.187 476.708 425.796Z" fill="#010003"/>
<path d="M239.512 401.462C237.445 400.391 235.122 399.962 233.073 399.582C214.429 396.134 195.339 393.485 176.879 390.922L173.721 390.485C167.94 389.68 161.108 388.785 154.282 388.254C144.401 387.483 132.941 386.429 121.98 383.693C114.574 381.841 107.976 382.781 101.813 386.56C99.9821 387.682 98.6051 388.861 97.8322 390.975C93.9657 401.536 92.956 410.446 94.6524 419.018C95.0746 421.154 95.4528 423.343 95.8145 425.462C96.6352 430.242 97.4815 435.183 98.9356 439.888C106.399 464.051 115.751 488.79 140.448 502.524C151.589 508.721 165.973 512.159 180.455 512.159C181.817 512.159 183.18 512.129 184.54 512.068C191.95 511.734 198.982 510.524 205.439 508.47C207.141 507.929 208.92 507.289 210.398 506.275C220.312 499.467 226.297 492.109 229.233 483.118C230.351 479.692 231.61 476.246 232.827 472.915C233.453 471.199 234.081 469.482 234.695 467.762C235.155 466.465 235.62 465.168 236.084 463.873C237.371 460.282 238.704 456.57 239.927 452.884C243.434 442.334 246.514 432.864 249.349 423.932C251.87 415.981 247.273 405.484 239.512 401.462ZM241.19 408.462C246.544 414.51 244.174 424.264 241.511 432.087L229.126 468.48C225.803 478.244 221.669 490.393 212.865 497.747C206.502 503.062 197.588 506.015 185.62 506.772C183.666 506.896 181.698 506.96 179.77 506.966C179.684 506.966 179.598 506.966 179.512 506.966C160.353 506.966 143.108 501.159 130.931 490.601C112.646 474.751 105.45 448.948 100.819 425.797C98.8989 416.186 97.3145 406.109 100.781 397.786C104.062 389.912 109.962 387.855 116.865 387.855C119.652 387.855 122.605 388.191 125.614 388.615L227.04 402.896C232.592 403.678 237.854 404.692 241.19 408.462Z" fill="#010003"/>
</g>
</svg>
