<svg width="232" height="232" viewBox="0 0 232 232" fill="none" xmlns="http://www.w3.org/2000/svg">
<circle cx="116" cy="116" r="114.759" fill="#131215" stroke="#B8E451" stroke-width="2.48276"/>
<path d="M183.196 180.892L171.332 176.302L176.463 187.688C176.68 188.152 176.879 188.53 177.058 188.823C177.237 189.116 177.411 189.343 177.581 189.505C177.634 189.555 177.689 189.602 177.748 189.646C177.812 189.696 177.864 189.729 177.904 189.745L177.939 189.779L176.289 191.522L176.254 191.488C176.236 191.248 176.154 190.924 176.006 190.516C175.853 190.114 175.654 189.624 175.411 189.047L168.686 173.719L169.32 173.05L180.854 177.511L175.52 166.499L176.145 165.839L190.972 171.742C191.324 171.876 191.67 171.998 192.01 172.11C192.344 172.227 192.652 172.325 192.934 172.403C193.21 172.487 193.449 172.553 193.65 172.599C193.857 172.639 193.997 172.661 194.071 172.665L194.107 172.698L191.798 175.137L191.763 175.104C191.71 175.031 191.665 174.977 191.63 174.944C191.595 174.911 191.554 174.872 191.507 174.827C191.308 174.638 191.078 174.458 190.817 174.287C190.55 174.123 190.197 173.954 189.758 173.783L178.279 169.157L183.686 180.304L183.196 180.892Z" fill="white"/>
<path d="M157.962 202.618C156.762 203.235 155.554 203.607 154.338 203.733C153.119 203.869 151.957 203.772 150.852 203.441C149.751 203.117 148.737 202.566 147.812 201.788C146.887 201.01 146.117 200.02 145.501 198.819C145.151 198.135 144.886 197.422 144.705 196.679C144.524 195.936 144.437 195.19 144.444 194.441C144.444 193.696 144.537 192.957 144.725 192.224C144.916 191.498 145.205 190.804 145.592 190.142C145.976 189.49 146.461 188.886 147.048 188.329C147.631 187.766 148.321 187.278 149.119 186.868C150.319 186.25 151.527 185.87 152.742 185.726C153.955 185.593 155.111 185.688 156.213 186.012C157.314 186.336 158.325 186.884 159.247 187.655C160.172 188.433 160.944 189.426 161.563 190.635C161.913 191.318 162.179 192.031 162.36 192.774C162.54 193.518 162.633 194.265 162.637 195.018C162.634 195.774 162.54 196.513 162.356 197.235C162.168 197.967 161.885 198.663 161.505 199.322C161.118 199.985 160.631 200.595 160.044 201.151C159.454 201.718 158.76 202.207 157.962 202.618ZM149.616 187.839C148.818 188.25 148.163 188.769 147.649 189.397C147.135 190.025 146.781 190.734 146.587 191.525C146.385 192.319 146.353 193.177 146.488 194.098C146.628 195.026 146.953 195.99 147.466 196.99C148.033 198.097 148.687 199.056 149.429 199.865C150.167 200.685 150.964 201.311 151.821 201.743C152.681 202.182 153.588 202.401 154.542 202.401C155.492 202.412 156.466 202.161 157.465 201.647C158.263 201.236 158.918 200.717 159.432 200.089C159.95 199.468 160.311 198.764 160.516 197.977C160.714 197.193 160.745 196.341 160.609 195.42C160.474 194.499 160.15 193.539 159.637 192.539C159.074 191.439 158.421 190.475 157.68 189.647C156.942 188.827 156.143 188.198 155.282 187.759C154.422 187.32 153.511 187.094 152.55 187.079C151.593 187.072 150.615 187.325 149.616 187.839Z" fill="white"/>
<path d="M135.637 197.05C135.479 196.382 135.333 195.797 135.199 195.298C135.058 194.808 134.933 194.385 134.824 194.028C134.708 193.674 134.601 193.38 134.504 193.145C134.399 192.912 134.304 192.719 134.218 192.565L134.207 192.518L137.038 191.847L137.049 191.894C137.041 192.071 137.046 192.285 137.064 192.539C137.074 192.794 137.11 193.105 137.172 193.472C137.226 193.842 137.303 194.276 137.404 194.775C137.498 195.276 137.624 195.865 137.784 196.542L139.595 204.223C139.753 204.891 139.902 205.471 140.042 205.961C140.177 206.46 140.302 206.888 140.419 207.242C140.528 207.598 140.635 207.893 140.74 208.125C140.838 208.368 140.931 208.566 141.017 208.72L141.028 208.767L140.521 208.837C140.368 208.857 140.2 208.884 140.018 208.919C139.829 208.964 139.636 209.01 139.44 209.056C139.133 209.129 138.728 209.262 138.226 209.456C137.718 209.659 137.058 209.857 136.248 210.049C135.493 210.228 134.773 210.29 134.088 210.237C133.395 210.185 132.766 210.018 132.202 209.737C131.637 209.455 131.157 209.058 130.762 208.546C130.361 208.043 130.076 207.429 129.905 206.706C129.771 206.139 129.722 205.594 129.756 205.071C129.785 204.558 129.886 204.073 130.061 203.616C130.227 203.162 130.459 202.737 130.757 202.343C131.056 201.956 131.409 201.607 131.817 201.294L126.305 196.458C126.032 196.215 125.784 196.008 125.561 195.837C125.33 195.667 125.117 195.523 124.923 195.403C124.722 195.292 124.535 195.204 124.362 195.137C124.19 195.078 124.019 195.039 123.849 195.022L123.838 194.974L127.247 194.167C127.306 194.311 127.431 194.489 127.622 194.701C127.807 194.923 128.015 195.135 128.245 195.338L133.81 200.236C133.987 200.178 134.164 200.119 134.341 200.061C134.52 200.01 134.704 199.962 134.893 199.917C135.113 199.865 135.339 199.82 135.571 199.782C135.795 199.745 136.025 199.72 136.263 199.705L135.637 197.05ZM136.48 200.625C136.256 200.628 136.032 200.644 135.806 200.673C135.582 200.709 135.368 200.752 135.163 200.8C134.574 200.94 134.055 201.154 133.609 201.443C133.164 201.739 132.815 202.108 132.562 202.55C132.301 202.994 132.14 203.506 132.077 204.085C132.016 204.673 132.071 205.328 132.242 206.052C132.381 206.642 132.574 207.161 132.821 207.609C133.068 208.058 133.364 208.415 133.709 208.682C134.048 208.959 134.44 209.14 134.884 209.226C135.329 209.32 135.819 209.303 136.354 209.177C136.897 209.048 137.323 208.918 137.632 208.787C137.942 208.655 138.172 208.539 138.322 208.436L136.48 200.625Z" fill="white"/>
<path d="M121.263 194.745C121.214 194.915 121.169 195.125 121.128 195.375C121.079 195.626 121.039 195.937 121.006 196.309C120.973 196.68 120.948 197.121 120.931 197.63C120.914 198.147 120.905 198.749 120.904 199.436L120.893 207.328C120.892 208.015 120.899 208.613 120.914 209.122C120.93 209.64 120.953 210.084 120.985 210.456C121.017 210.836 121.057 211.151 121.105 211.402C121.145 211.652 121.189 211.863 121.237 212.032L121.237 212.081L118.328 212.077L118.328 212.028C118.377 211.858 118.426 211.648 118.474 211.398C118.515 211.147 118.552 210.832 118.585 210.453C118.61 210.081 118.635 209.636 118.66 209.119C118.676 208.61 118.685 208.012 118.686 207.325L118.69 204.622L111.602 210.394C110.809 211.039 110.412 211.596 110.412 212.065L107.005 212.06L107.005 212.012C107.482 211.899 107.968 211.682 108.461 211.359C108.946 211.045 109.464 210.657 110.014 210.198L116.277 204.97L108.761 196.691C108.446 196.367 108.18 196.096 107.962 195.877C107.736 195.667 107.538 195.489 107.369 195.343C107.199 195.206 107.046 195.088 106.909 194.991C106.763 194.902 106.614 194.813 106.461 194.724L106.461 194.675L110.013 194.68C110.045 194.753 110.101 194.846 110.182 194.959C110.255 195.073 110.343 195.19 110.448 195.311C110.545 195.433 110.654 195.558 110.775 195.688C110.888 195.817 110.997 195.938 111.102 196.052L118.691 204.403L118.698 199.433C118.699 198.746 118.692 198.144 118.676 197.627C118.653 197.117 118.629 196.677 118.605 196.305C118.574 195.933 118.538 195.622 118.498 195.372C118.45 195.121 118.401 194.911 118.353 194.741L118.353 194.692L121.263 194.697L121.263 194.745Z" fill="white"/>
<path d="M100.818 193.279C100.734 193.434 100.646 193.63 100.552 193.866C100.459 194.102 100.356 194.398 100.245 194.754C100.133 195.11 100.014 195.535 99.8887 196.028C99.7615 196.53 99.6238 197.116 99.4758 197.787L97.7749 205.493C97.6268 206.164 97.5058 206.75 97.4118 207.251C97.3162 207.759 97.244 208.199 97.1955 208.569C97.1452 208.946 97.1127 209.262 97.0982 209.516C97.0836 209.769 97.0817 209.984 97.0925 210.16L97.0821 210.207L94.2534 209.58L94.2639 209.533C94.3478 209.378 94.4404 209.183 94.5417 208.949C94.6352 208.713 94.7386 208.413 94.8521 208.049C94.9558 207.691 95.0753 207.262 95.2105 206.763C95.336 206.269 95.4728 205.687 95.6208 205.016L97.3217 197.309C97.4698 196.638 97.5917 196.049 97.6874 195.54C97.7734 195.038 97.8447 194.602 97.9011 194.234C97.9497 193.864 97.9813 193.552 97.9958 193.299C98.0025 193.044 98.0004 192.828 97.9896 192.652L98.0001 192.605L100.829 193.232L100.818 193.279Z" fill="white"/>
<path d="M80.1115 205.221L74.5133 187.851L70.8647 195.567C70.571 196.188 70.3227 196.732 70.1196 197.199C69.9131 197.674 69.7449 198.086 69.6152 198.436C69.482 198.793 69.3838 199.095 69.3205 199.343C69.2498 199.587 69.2002 199.796 69.1714 199.97L69.1507 200.014L67.2016 199.088L67.2223 199.044C67.3387 198.911 67.4687 198.74 67.6123 198.531C67.7559 198.322 67.9235 198.053 68.1151 197.723C68.3032 197.401 68.5151 197.009 68.7509 196.549C68.9831 196.095 69.2461 195.558 69.5398 194.937L75.0437 183.299L75.4269 183.481L81.0304 200.839L84.5752 193.343C84.8689 192.722 85.119 192.174 85.3256 191.7C85.5286 191.233 85.695 190.824 85.8248 190.474C85.9545 190.124 86.0547 189.827 86.1253 189.584C86.1959 189.34 86.2456 189.131 86.2743 188.956L86.295 188.913L88.2441 189.839L88.2234 189.882C88.107 190.015 87.9771 190.186 87.8334 190.395C87.6825 190.601 87.513 190.865 87.3249 191.187C87.1368 191.509 86.9266 191.897 86.6943 192.35C86.4586 192.811 86.1939 193.352 85.9002 193.973L82.5263 201.107C82.2326 201.728 81.9843 202.272 81.7812 202.74C81.5747 203.214 81.4065 203.626 81.2768 203.976C81.1436 204.334 81.0454 204.636 80.9821 204.883C80.9115 205.127 80.8618 205.336 80.833 205.51L80.8123 205.554L80.1115 205.221Z" fill="white"/>
<path d="M56.462 170.825C56.5205 170.758 56.5908 170.696 56.6728 170.639C56.7488 170.577 56.8354 170.545 56.9326 170.545C57.3867 170.578 57.8518 170.647 58.3279 170.753C58.7926 170.86 59.2661 171.013 59.7482 171.21C60.2303 171.408 60.7162 171.662 61.2059 171.974C61.6948 172.274 62.1852 172.64 62.6771 173.072C63.7824 174.043 64.6495 175.089 65.2786 176.212C65.9023 177.34 66.2815 178.491 66.4161 179.663C66.5446 180.83 66.4237 181.987 66.0534 183.136C65.6777 184.29 65.0431 185.378 64.1495 186.401C63.6442 186.979 63.0741 187.484 62.439 187.916C61.7979 188.342 61.1138 188.683 60.387 188.937C59.6601 189.191 58.9036 189.345 58.1176 189.396C57.3263 189.454 56.5278 189.404 55.7221 189.245C54.9104 189.081 54.1082 188.801 53.3156 188.406C52.5115 188.012 51.733 187.484 50.98 186.823C50.6885 186.567 50.4042 186.291 50.1272 185.994C49.8448 185.703 49.5788 185.399 49.3291 185.083C49.074 184.773 48.8418 184.462 48.6323 184.149C48.4168 183.83 48.2245 183.516 48.0553 183.206L48.9118 180.974L49.0166 181.001C49.0672 181.422 49.1677 181.86 49.3178 182.314C49.468 182.769 49.6606 183.218 49.8959 183.661C50.1311 184.104 50.4111 184.533 50.7359 184.947C51.0494 185.362 51.4035 185.743 51.7982 186.09C52.5634 186.762 53.3712 187.256 54.2216 187.572C55.0666 187.895 55.9194 188.031 56.7798 187.98C57.6342 187.923 58.4788 187.675 59.3136 187.236C60.1484 186.797 60.9354 186.154 61.6747 185.308C62.4885 184.377 63.1223 183.407 63.5761 182.396C64.03 181.386 64.2723 180.378 64.3032 179.372C64.334 178.367 64.1374 177.382 63.7133 176.418C63.2779 175.455 62.5804 174.552 61.6209 173.71C61.1958 173.336 60.787 173.036 60.3945 172.81C60.002 172.584 59.6478 172.418 59.3319 172.313C59.0107 172.213 58.7419 172.171 58.5255 172.185C58.2976 172.2 58.1412 172.257 58.0561 172.354L57.7449 172.71C57.3726 173.136 57.0569 173.509 56.7978 173.83C56.5387 174.151 56.3229 174.435 56.1504 174.682C55.9726 174.934 55.827 175.156 55.7138 175.347C55.6005 175.538 55.504 175.722 55.4242 175.899L55.3923 175.936L53.2061 174.016L53.238 173.979C53.3861 173.884 53.5555 173.764 53.7462 173.619C53.9255 173.475 54.131 173.295 54.3627 173.079C54.5944 172.863 54.8573 172.6 55.1513 172.288C55.4401 171.982 55.7679 171.619 56.1349 171.199L56.462 170.825Z" fill="white"/>
<path d="M29.8539 150.301L29.9515 150.55C29.8023 150.678 29.6453 150.853 29.4806 151.075C29.3129 151.289 29.1781 151.542 29.0759 151.834C28.9634 152.122 28.9038 152.445 28.8974 152.804C28.8879 153.155 28.9646 153.538 29.1273 153.952C29.2722 154.32 29.4573 154.625 29.6825 154.866C29.9076 155.107 30.1602 155.286 30.44 155.401C30.7169 155.509 31.0136 155.557 31.3302 155.545C31.6468 155.532 31.9742 155.46 32.3124 155.326C32.8536 155.112 33.313 154.757 33.6907 154.26C34.058 153.758 34.3919 153.183 34.6925 152.534C34.993 151.885 35.2788 151.199 35.5498 150.475C35.8208 149.751 36.1254 149.057 36.4635 148.393C36.8017 147.729 37.1972 147.134 37.6501 146.608C38.0925 146.076 38.6407 145.682 39.2946 145.423C39.7831 145.23 40.3095 145.122 40.8736 145.099C41.4272 145.071 41.969 145.157 42.4989 145.356C43.0288 145.555 43.5272 145.884 43.9942 146.342C44.4536 146.804 44.8342 147.418 45.136 148.185C45.3046 148.614 45.4245 149.04 45.4957 149.464C45.5714 149.877 45.618 150.272 45.6354 150.647C45.6424 151.018 45.63 151.362 45.5982 151.679C45.5635 151.988 45.5224 152.247 45.4747 152.457L42.881 153.183L42.7701 152.901C43.0908 152.678 43.3758 152.409 43.625 152.093C43.8667 151.781 44.0583 151.44 44.1999 151.071C44.3309 150.698 44.4021 150.305 44.4134 149.892C44.4171 149.482 44.3362 149.066 44.1705 148.645C44.0196 148.262 43.8286 147.942 43.5975 147.685C43.356 147.425 43.0908 147.225 42.8021 147.087C42.5058 146.952 42.1927 146.885 41.8627 146.885C41.5298 146.878 41.1942 146.941 40.8559 147.074C40.3824 147.261 39.9805 147.52 39.6502 147.851C39.3124 148.184 39.0193 148.565 38.7709 148.993C38.5196 149.414 38.2958 149.872 38.0996 150.367C37.9004 150.854 37.7057 151.352 37.5154 151.862C37.3176 152.375 37.1093 152.883 36.8905 153.386C36.6688 153.882 36.4112 154.353 36.1177 154.8C35.8138 155.241 35.4628 155.641 35.0649 155.998C34.6594 156.358 34.1748 156.649 33.6111 156.872C33.0173 157.107 32.4393 157.205 31.877 157.166C31.3043 157.123 30.7748 156.981 30.2887 156.738C29.7995 156.488 29.3701 156.158 29.0004 155.748C28.6306 155.338 28.3452 154.878 28.144 154.366C27.9961 153.99 27.8901 153.632 27.8259 153.293C27.7618 152.953 27.7223 152.643 27.7073 152.362C27.6894 152.074 27.6848 151.819 27.6935 151.598C27.7022 151.378 27.7092 151.197 27.7145 151.056L29.8539 150.301Z" fill="white"/>
<path d="M39.161 129.446C38.9861 129.422 38.7718 129.408 38.5181 129.404C38.2644 129.399 37.9513 129.407 37.5787 129.428C37.2061 129.449 36.7667 129.487 36.2604 129.544C35.7461 129.601 35.1489 129.678 34.4689 129.776L26.6568 130.895C25.9767 130.993 25.3859 131.086 24.8841 131.174C24.3744 131.263 23.9378 131.35 23.5744 131.435C23.2029 131.521 22.8961 131.602 22.6538 131.677C22.4115 131.753 22.2097 131.827 22.0486 131.899L22.0006 131.906L21.5915 129.037L21.6395 129.03C21.8143 129.054 22.0292 129.072 22.284 129.085C22.5377 129.089 22.8549 129.081 23.2354 129.059C23.6069 129.03 24.0503 128.991 24.5657 128.942C25.072 128.885 25.6652 128.809 26.3452 128.711L34.1574 127.592C34.8374 127.494 35.4323 127.401 35.942 127.311C36.4426 127.215 36.8752 127.129 37.2397 127.052C37.6032 126.967 37.9061 126.887 38.1484 126.812C38.3895 126.728 38.5907 126.65 38.7518 126.578L38.7998 126.571L39.209 129.44L39.161 129.446Z" fill="white"/>
<path d="M20.6685 114.242L34.9401 102.902L26.4351 102.193C25.7505 102.136 25.1538 102.094 24.6451 102.068C24.1283 102.041 23.6833 102.029 23.3102 102.03C22.929 102.031 22.6115 102.045 22.3579 102.072C22.1049 102.092 21.8918 102.118 21.7187 102.153L21.6703 102.149L21.8485 99.9982L21.8968 100.002C22.0619 100.065 22.2677 100.126 22.514 100.187C22.7603 100.249 23.0714 100.311 23.4473 100.375C23.8151 100.438 24.2561 100.499 24.7702 100.558C25.2763 100.616 25.8716 100.674 26.5562 100.731L39.3861 101.801L39.3511 102.223L25.0916 113.565L33.355 114.254C34.0396 114.311 34.6403 114.353 35.1571 114.379C35.6658 114.406 36.1067 114.418 36.4799 114.417C36.853 114.415 37.1661 114.405 37.4191 114.385C37.6721 114.366 37.8852 114.339 38.0583 114.305L38.1067 114.309L37.9285 116.459L37.8802 116.455C37.7151 116.393 37.5093 116.331 37.263 116.27C37.0173 116.201 36.7106 116.135 36.3428 116.072C35.975 116.009 35.538 115.948 35.032 115.89C34.5178 115.831 33.9185 115.772 33.2339 115.715L25.3692 115.06C24.6846 115.003 24.0879 114.961 23.5792 114.935C23.0624 114.908 22.6175 114.895 22.2443 114.897C21.8631 114.897 21.5457 114.911 21.292 114.939C21.039 114.958 20.8259 114.985 20.6528 115.019L20.6044 115.015L20.6685 114.242Z" fill="white"/>
<path d="M32.1558 76.6488L32.1629 76.768C31.3969 77.153 30.6952 77.7003 30.0577 78.4101C29.423 79.1123 28.9197 79.959 28.5478 80.9503C28.1901 81.9037 28.0134 82.8347 28.0178 83.7432C28.0146 84.6489 28.1887 85.4962 28.5401 86.2851C28.8944 87.0664 29.424 87.7713 30.1291 88.3998C30.8341 89.0284 31.7123 89.5408 32.7634 89.937C33.9205 90.3732 35.0587 90.6295 36.1781 90.706C37.2899 90.7796 38.3247 90.6558 39.2826 90.3345C40.2404 90.0133 41.0986 89.486 41.8571 88.7528C42.6109 88.0092 43.2121 87.0395 43.6607 85.844C43.8225 85.4127 43.939 84.9643 44.0101 84.4988C44.0811 84.0332 44.1035 83.571 44.0772 83.1119C44.0462 82.6425 43.9712 82.1867 43.8523 81.7445C43.7286 81.292 43.5581 80.8606 43.3408 80.4505L43.467 80.3556L45.4404 82.1359C45.4468 82.7861 45.3775 83.4769 45.2326 84.2082C45.0981 84.9348 44.9002 85.6462 44.639 86.3423C44.1138 87.7422 43.4321 88.9492 42.5941 89.9634C41.7513 90.9672 40.8018 91.7494 39.7455 92.3099C38.6921 92.8629 37.5594 93.1786 36.3473 93.2572C35.1305 93.3254 33.8868 93.12 32.6164 92.6411C31.8979 92.3703 31.2249 92.0129 30.5973 91.5691C29.9725 91.1176 29.413 90.5958 28.9188 90.0035C28.4246 89.4113 28.0145 88.7558 27.6886 88.0369C27.3551 87.3153 27.1205 86.5488 26.9846 85.7376C26.8516 84.9187 26.8297 84.0684 26.9189 83.1865C27.0034 82.2941 27.2217 81.3788 27.5737 80.4406C28.1217 78.9802 28.853 77.7098 29.7676 76.6295L32.1558 76.6488Z" fill="white"/>
<path d="M35.7669 64.9386C36.3665 64.1255 36.9581 63.3166 37.5416 62.5117C38.1299 61.7003 38.6678 60.9573 39.1554 60.2825C39.6365 59.6029 40.0424 59.0185 40.3731 58.5293C40.7038 58.04 40.9152 57.6988 41.0075 57.5056L41.9504 58.9435C41.7337 59.1149 41.4971 59.3268 41.2405 59.5793C41.0193 59.7976 40.7605 60.0736 40.4642 60.4073C40.1662 60.7297 39.847 61.1218 39.5064 61.5836C39.3913 61.7397 39.2587 61.9331 39.1086 62.1639C38.9568 62.3834 38.813 62.5987 38.6773 62.81C38.5176 63.0538 38.3555 63.3008 38.191 63.5511L43.5094 67.4915C43.997 66.8167 44.4236 66.1974 44.7893 65.6334C45.1549 65.0695 45.4606 64.5869 45.7064 64.1856C45.9936 63.7144 46.2359 63.2905 46.4334 62.9138L47.6228 64.2626C47.2334 64.6682 46.84 65.0858 46.4427 65.5157C46.0998 65.8852 45.7371 66.2954 45.3544 66.7462C44.9653 67.1922 44.61 67.633 44.2886 68.0688L50.396 72.5938C50.9621 71.8263 51.45 71.0965 51.86 70.4044C52.2699 69.7124 52.6102 69.0944 52.8807 68.5505C53.2023 67.9238 53.4717 67.3338 53.6889 66.7806L55.0583 68.2327C54.9942 68.3059 54.9014 68.4182 54.7798 68.5695C54.6581 68.7208 54.5221 68.8916 54.3717 69.0819C54.2261 69.2657 54.0709 69.4625 53.9061 69.6724C53.7526 69.8805 53.6031 70.0765 53.4575 70.2603C53.3184 70.4489 53.1904 70.6157 53.0736 70.7604C52.9681 70.9035 52.8913 71.0076 52.8434 71.0727L49.735 75.2875L49.6961 75.2587C49.5885 75.1186 49.446 74.9577 49.2687 74.7761C49.0962 74.5879 48.8702 74.3701 48.5906 74.1228C48.3111 73.8755 47.9716 73.5937 47.5721 73.2776C47.1661 72.9567 46.6871 72.5918 46.1351 72.1828L39.7939 67.4846C39.242 67.0757 38.7566 66.7262 38.3379 66.4361C37.9127 66.1411 37.5412 65.896 37.2233 65.7007C36.8989 65.5006 36.6216 65.3455 36.3915 65.2354C36.1663 65.1188 35.971 65.0295 35.8059 64.9674L35.7669 64.9386Z" fill="white"/>
<path d="M75.5682 49.5662C75.604 49.3737 75.6762 49.1027 75.7847 48.753C75.8895 48.3962 76.0093 47.9812 76.1443 47.508C76.2754 47.0276 76.4093 46.5002 76.5458 45.9256C76.6823 45.3511 76.8018 44.7443 76.9045 44.1054C77.0072 43.4664 77.0806 42.8064 77.1246 42.1253C77.172 41.4333 77.1689 40.7405 77.1151 40.047C77.0613 39.3535 76.9463 38.6649 76.7699 37.9813C76.6007 37.2939 76.3489 36.6318 76.0145 35.9949C75.6576 35.3151 75.2674 34.7717 74.8437 34.3647C74.4235 33.9468 73.9894 33.6504 73.5416 33.4754C73.09 33.2933 72.6334 33.2235 72.1719 33.2659C71.7175 33.3045 71.2723 33.4389 70.8363 33.6689C70.293 33.9554 69.8486 34.3086 69.5031 34.7284C69.1609 35.1373 68.8893 35.5502 68.6882 35.9669C68.4943 36.3799 68.3575 36.7627 68.278 37.1153C68.2055 37.4642 68.1674 37.7219 68.1635 37.8884L67.9796 37.9032L67.5648 35.3397C67.8535 34.9681 68.1303 34.6348 68.3953 34.3397C68.6636 34.0336 68.9451 33.7527 69.2397 33.4967C69.5415 33.237 69.8618 32.995 70.2004 32.7707C70.5424 32.5355 70.9315 32.3029 71.3675 32.0729C71.6606 31.9183 71.9885 31.7864 72.3511 31.6774C72.7137 31.5684 73.0935 31.5005 73.4903 31.474C73.8871 31.4474 74.2886 31.4732 74.6947 31.5514C75.1043 31.6186 75.5063 31.7583 75.9007 31.9706C76.2985 32.172 76.6744 32.4534 77.0285 32.8148C77.3898 33.1725 77.715 33.6269 78.0043 34.1778C78.3124 34.7646 78.533 35.4021 78.6661 36.0902C78.7954 36.7713 78.8639 37.4753 78.8713 38.2023C78.875 38.9222 78.8302 39.654 78.7369 40.3977C78.6435 41.1413 78.5263 41.8656 78.3853 42.5705C78.2442 43.2754 78.0916 43.9498 77.9276 44.5937C77.7599 45.2304 77.6127 45.8106 77.486 46.3343L81.6142 44.1567C81.8787 44.0172 82.1342 43.8779 82.3806 43.7388C82.6304 43.5887 82.8569 43.4464 83.0601 43.3118C83.2595 43.1701 83.4266 43.0363 83.5613 42.9104C83.7032 42.7807 83.8001 42.6611 83.8521 42.5514L83.895 42.5288L85.0953 44.815L75.6809 49.7809L75.5682 49.5662Z" fill="white"/>
<path d="M91.8404 33.3225C91.9823 33.9698 92.2018 34.5752 92.4991 35.1387C92.7963 35.7022 93.149 36.2162 93.5569 36.6809C93.9711 37.1358 94.4349 37.5344 94.9484 37.8765C95.4697 38.2168 96.0207 38.4844 96.6012 38.6793C97.1896 38.8725 97.7988 38.9907 98.4289 39.0341C99.0572 39.0695 99.6949 39.016 100.342 38.8734C100.989 38.7309 101.591 38.5116 102.146 38.2154C102.708 37.9097 103.212 37.5464 103.657 37.1255C104.111 36.7029 104.499 36.2284 104.822 35.7021C105.145 35.1758 105.4 34.6191 105.586 34.032C105.77 33.4371 105.879 32.8213 105.913 32.1848C105.947 31.5484 105.893 30.9065 105.751 30.2591C105.539 29.2881 105.157 28.4162 104.607 27.6436C104.056 26.863 103.394 26.2226 102.622 25.7222C101.857 25.2121 101.011 24.8646 100.085 24.6795C99.1578 24.4865 98.2086 24.497 97.2378 24.7107C96.267 24.9245 95.4009 25.3139 94.6394 25.8788C93.8762 26.4358 93.2498 27.1075 92.7603 27.8939C92.2769 28.6706 91.948 29.5292 91.7735 30.4697C91.6053 31.4005 91.6275 32.3514 91.8404 33.3225ZM89.9831 33.6818C89.8066 32.8766 89.7387 32.0764 89.7796 31.2812C89.8283 30.4843 89.9711 29.7204 90.2081 28.9897C90.4512 28.2493 90.7823 27.5516 91.2013 26.8965C91.6204 26.2415 92.112 25.6533 92.6761 25.1318C93.2464 24.6007 93.884 24.15 94.5888 23.7796C95.2919 23.4014 96.046 23.1236 96.8511 22.9463C97.6561 22.769 98.4569 22.7044 99.2535 22.7524C100.048 22.7926 100.816 22.9339 101.556 23.1765C102.294 23.4112 102.99 23.7378 103.644 24.1565C104.299 24.5751 104.887 25.0703 105.41 25.6422C105.938 26.2043 106.387 26.8378 106.757 27.5426C107.134 28.2457 107.411 28.9998 107.588 29.805C107.766 30.6182 107.831 31.4232 107.782 32.2201C107.74 33.0074 107.597 33.7712 107.354 34.5116C107.118 35.2503 106.791 35.9471 106.372 36.6021C105.953 37.2571 105.459 37.8502 104.888 38.3813C104.316 38.9045 103.678 39.3513 102.973 39.7216C102.27 40.0999 101.516 40.3777 100.711 40.555C99.9056 40.7322 99.1048 40.7969 98.3083 40.7488C97.5135 40.7087 96.747 40.5713 96.0088 40.3366C95.2768 40.0923 94.5837 39.7608 93.9293 39.3422C93.2749 38.9236 92.6825 38.4292 92.1522 37.8591C91.6297 37.2873 91.1806 36.6538 90.8048 35.9587C90.4352 35.2539 90.1613 34.4949 89.9831 33.6818Z" fill="white"/>
<path d="M116.98 29.8907C116.928 30.5515 116.963 31.1946 117.085 31.8202C117.206 32.4458 117.395 33.0402 117.651 33.6034C117.916 34.1591 118.245 34.6753 118.637 35.1518C119.038 35.629 119.488 36.0452 119.987 36.4004C120.494 36.7562 121.043 37.0464 121.634 37.2709C122.225 37.4874 122.851 37.6214 123.511 37.6731C124.172 37.7247 124.811 37.6896 125.429 37.5676C126.055 37.4383 126.642 37.2369 127.19 36.9636C127.746 36.691 128.255 36.3498 128.717 35.94C129.178 35.5302 129.583 35.0714 129.931 34.5635C130.279 34.0476 130.561 33.4901 130.778 32.891C130.995 32.2918 131.129 31.6619 131.181 31.0012C131.258 30.0101 131.145 29.065 130.842 28.1658C130.54 27.2585 130.092 26.4534 129.498 25.7503C128.913 25.0398 128.204 24.4615 127.371 24.0154C126.539 23.5612 125.628 23.2954 124.637 23.2179C123.645 23.1404 122.704 23.2613 121.812 23.5807C120.92 23.8919 120.126 24.3528 119.43 24.9631C118.743 25.566 118.18 26.292 117.741 27.1413C117.31 27.9832 117.057 28.8997 116.98 29.8907ZM115.098 29.695C115.162 28.8731 115.328 28.0876 115.597 27.3385C115.875 26.5901 116.232 25.9006 116.67 25.2701C117.117 24.6322 117.636 24.0608 118.227 23.5557C118.817 23.0506 119.458 22.6305 120.149 22.2954C120.848 21.9529 121.589 21.7068 122.37 21.5572C123.153 21.3995 123.955 21.3528 124.777 21.417C125.599 21.4813 126.384 21.6521 127.132 21.9295C127.881 22.1989 128.575 22.5571 129.213 23.0042C129.852 23.4433 130.424 23.9582 130.929 24.5489C131.434 25.1397 131.854 25.7846 132.189 26.4836C132.532 27.1752 132.779 27.9119 132.929 28.6937C133.087 29.4762 133.134 30.2784 133.07 31.1002C133.005 31.9302 132.834 32.7194 132.557 33.4678C132.289 34.2088 131.931 34.8983 131.484 35.5362C131.045 36.1747 130.531 36.7465 129.94 37.2516C129.35 37.7567 128.705 38.1805 128.005 38.523C127.306 38.8575 126.566 39.0995 125.784 39.2492C125.002 39.4069 124.2 39.4536 123.378 39.3893C122.556 39.3251 121.771 39.1542 121.022 38.8768C120.273 38.6075 119.579 38.2533 118.941 37.8142C118.311 37.3677 117.743 36.8491 117.238 36.2584C116.733 35.6676 116.309 35.0224 115.966 34.3228C115.631 33.6238 115.384 32.887 115.226 32.1126C115.076 31.3308 115.033 30.5249 115.098 29.695Z" fill="white"/>
<path d="M134.418 42.2954C135.257 42.5458 136.114 42.6907 136.989 42.7302C137.869 42.7802 138.747 42.7341 139.622 42.5919C140.494 42.4572 141.348 42.2335 142.184 41.9208C143.031 41.6033 143.829 41.2071 144.58 40.7321C145.341 40.2524 146.044 39.6985 146.688 39.0706C147.343 38.438 147.916 37.7354 148.408 36.9628C148.017 37.0384 147.654 37.0947 147.32 37.1318C146.996 37.1642 146.67 37.1696 146.341 37.1481C146.02 37.1294 145.685 37.0794 145.335 36.9981C144.993 36.9197 144.614 36.8014 144.199 36.6431C143.678 36.4445 143.164 36.1362 142.657 35.7181C142.158 35.3029 141.744 34.7992 141.415 34.2069C141.086 33.6147 140.883 32.9445 140.803 32.1965C140.724 31.4484 140.849 30.6398 141.179 29.7708C141.402 29.1814 141.742 28.6276 142.198 28.1095C142.657 27.5837 143.204 27.1654 143.841 26.8544C144.488 26.5388 145.218 26.3585 146.03 26.3134C146.842 26.2684 147.72 26.4258 148.664 26.7855C149.397 27.0647 150.051 27.4698 150.628 28.0008C151.212 28.5348 151.662 29.1821 151.979 29.9427C152.298 30.6958 152.454 31.5507 152.445 32.5075C152.444 33.4671 152.227 34.5175 151.794 35.6585C151.416 36.656 150.887 37.5831 150.208 38.4399C149.531 39.2891 148.747 40.0456 147.856 40.7091C146.965 41.3727 145.987 41.9341 144.922 42.3934C143.861 42.845 142.752 43.1706 141.596 43.37C140.437 43.577 139.256 43.6462 138.055 43.5775C136.854 43.5089 135.668 43.2861 134.497 42.9091L134.418 42.2954ZM145.931 35.9407C146.376 36.1105 146.854 36.219 147.363 36.2661C147.873 36.3132 148.378 36.2807 148.878 36.1688C148.996 35.9716 149.1 35.7649 149.191 35.5486C149.289 35.3352 149.383 35.1114 149.472 34.8772C149.83 33.9326 150.046 33.055 150.12 32.2443C150.197 31.426 150.162 30.699 150.014 30.0632C149.866 29.4274 149.616 28.8909 149.263 28.4538C148.918 28.0195 148.5 27.7088 148.009 27.5218C147.631 27.3779 147.234 27.3086 146.817 27.3141C146.4 27.3195 145.992 27.4149 145.594 27.6002C145.195 27.7856 144.823 28.0718 144.477 28.459C144.131 28.8462 143.839 29.3534 143.602 29.9806C143.364 30.6078 143.236 31.2294 143.218 31.8454C143.204 32.4539 143.294 33.0246 143.49 33.5574C143.688 34.0828 143.989 34.5523 144.394 34.9661C144.807 35.3827 145.319 35.7076 145.931 35.9407Z" fill="white"/>
<path d="M178.872 51.2823C179.383 50.8227 179.822 50.4166 180.19 50.0639C180.563 49.7059 180.877 49.3904 181.132 49.1177C181.393 48.8395 181.6 48.5985 181.754 48.3948C181.913 48.1971 182.04 48.0234 182.134 47.8737L182.17 47.8413C182.272 47.9671 182.382 48.0962 182.5 48.2286C182.597 48.3484 182.707 48.4775 182.831 48.616C182.961 48.7604 183.093 48.9079 183.228 49.0584C183.422 49.2751 183.704 49.5481 184.075 49.8775C184.452 50.2128 184.901 50.6725 185.425 51.2563C185.91 51.7981 186.285 52.3626 186.551 52.9498C186.823 53.5317 186.975 54.1071 187.007 54.6761C187.045 55.251 186.952 55.8076 186.729 56.3456C186.517 56.8842 186.165 57.3753 185.672 57.8186C185.258 58.1917 184.834 58.4697 184.401 58.6527C183.974 58.8303 183.543 58.9246 183.108 58.9356C182.685 58.9472 182.257 58.8812 181.824 58.7376C181.403 58.5947 180.988 58.3919 180.579 58.1293C180.96 58.7112 181.245 59.2967 181.437 59.8856C181.634 60.4692 181.729 61.0358 181.722 61.5855C181.721 62.1412 181.607 62.6679 181.38 63.1657C181.165 63.664 180.832 64.116 180.381 64.5215C179.114 65.6623 177.787 66.1009 176.401 65.8373C175.02 65.5683 173.583 64.6001 172.089 62.9327C171.928 62.7521 171.748 62.5333 171.55 62.2763C171.346 62.0247 171.14 61.7644 170.932 61.4954C170.729 61.2323 170.528 60.9723 170.331 60.7153C170.127 60.4637 169.944 60.2477 169.783 60.0671L169.249 59.4711L169.285 59.4387C169.443 59.3613 169.629 59.2538 169.842 59.1163C170.061 58.9848 170.319 58.8067 170.617 58.5821C170.915 58.3575 171.258 58.0809 171.648 57.7523C172.043 57.4183 172.496 57.0215 173.006 56.5619L178.872 51.2823ZM178.84 57.2967C178.474 56.8874 178.151 56.5578 177.873 56.3079C177.595 56.058 177.374 55.8714 177.209 55.7479L174.479 58.2053C173.776 58.8379 173.207 59.3716 172.772 59.8066C172.337 60.2416 171.994 60.6099 171.744 60.9116C171.918 61.1674 172.096 61.4204 172.277 61.6708C172.458 61.9212 172.611 62.1156 172.735 62.254C173.743 63.3797 174.729 63.977 175.691 64.0459C176.665 64.1154 177.671 63.6825 178.71 62.7471C179.119 62.3795 179.435 61.9811 179.658 61.5519C179.892 61.1233 180.022 60.6748 180.047 60.2063C180.078 59.7439 179.992 59.2665 179.79 58.7744C179.599 58.2828 179.283 57.7903 178.84 57.2967ZM178.02 55.018C178.153 55.2028 178.276 55.3641 178.388 55.5019C178.507 55.6343 178.634 55.7758 178.768 55.9263C179.135 56.3356 179.526 56.6575 179.943 56.8918C180.365 57.1208 180.798 57.2472 181.243 57.2711C181.693 57.301 182.151 57.2254 182.618 57.0442C183.091 56.8577 183.562 56.5535 184.031 56.1318C184.421 55.7804 184.732 55.4132 184.964 55.0303C185.197 54.6475 185.337 54.2597 185.387 53.867C185.448 53.475 185.415 53.0864 185.287 52.7014C185.159 52.3164 184.936 51.9463 184.618 51.5911C184.413 51.3624 184.223 51.1688 184.049 51.0105C183.88 50.8582 183.729 50.7326 183.597 50.6339C183.449 50.517 183.314 50.4267 183.192 50.3628L178.02 55.018Z" fill="white"/>
<path d="M199.135 69.9683C199.57 70.88 200.005 71.7827 200.441 72.6763C200.88 73.5772 201.282 74.4016 201.648 75.1493C202.021 75.8936 202.346 76.5267 202.622 77.0487C202.898 77.5706 203.099 77.9177 203.226 78.0898L201.516 78.2509C201.467 77.9787 201.391 77.67 201.289 77.3246C201.201 77.0265 201.079 76.6681 200.924 76.2495C200.78 75.8347 200.584 75.3683 200.337 74.8505C200.253 74.6754 200.145 74.4674 200.012 74.2264C199.89 73.9892 199.767 73.761 199.645 73.5419C199.505 73.2863 199.363 73.0271 199.22 72.7642L193.252 75.6262C193.618 76.374 193.963 77.0418 194.289 77.6297C194.614 78.2176 194.896 78.7143 195.134 79.1199C195.415 79.5949 195.675 80.0081 195.914 80.3594L194.167 80.7803C193.992 80.2455 193.809 79.7016 193.616 79.1485C193.452 78.6719 193.26 78.1586 193.043 77.6087C192.832 77.0553 192.61 76.5342 192.377 76.0456L185.523 79.3321C185.934 80.1928 186.348 80.9666 186.766 81.6538C187.183 82.3409 187.568 82.9316 187.921 83.4259C188.322 84.0043 188.716 84.5192 189.101 84.9706L187.179 85.5025C187.145 85.4115 187.089 85.2767 187.013 85.0982C186.937 84.9196 186.85 84.7192 186.753 84.4969C186.659 84.2819 186.558 84.0523 186.451 83.8081C186.339 83.5747 186.237 83.3505 186.143 83.1355C186.042 82.924 185.955 82.7326 185.883 82.5613C185.806 82.4009 185.75 82.2842 185.716 82.2112L183.46 77.4849L183.503 77.464C183.677 77.4343 183.886 77.3836 184.129 77.3117C184.376 77.2472 184.674 77.1491 185.023 77.0175C185.372 76.886 185.78 76.7174 186.246 76.5118C186.719 76.3028 187.266 76.0497 187.885 75.7527L195.001 72.3403C195.621 72.0433 196.156 71.7774 196.609 71.5427C197.068 71.3045 197.458 71.0904 197.78 70.9005C198.108 70.707 198.375 70.5343 198.58 70.3822C198.789 70.2374 198.959 70.1064 199.091 69.9893L199.135 69.9683Z" fill="white"/>
<path d="M207.197 102.063L207.15 101.8C207.322 101.704 207.51 101.563 207.715 101.378C207.921 101.201 208.103 100.98 208.261 100.713C208.427 100.453 208.549 100.148 208.626 99.7972C208.704 99.4546 208.704 99.0646 208.625 98.6271C208.555 98.2373 208.433 97.902 208.26 97.6213C208.086 97.3405 207.873 97.1161 207.621 96.948C207.371 96.7879 207.089 96.6826 206.776 96.6323C206.464 96.582 206.128 96.5891 205.77 96.6537C205.198 96.757 204.677 97.0151 204.21 97.4279C203.751 97.8473 203.311 98.3456 202.889 98.9226C202.467 99.4997 202.053 100.117 201.645 100.773C201.237 101.43 200.803 102.05 200.341 102.634C199.879 103.219 199.375 103.724 198.827 104.152C198.29 104.585 197.675 104.865 196.983 104.989C196.466 105.083 195.928 105.085 195.37 104.997C194.822 104.915 194.307 104.725 193.827 104.425C193.346 104.126 192.922 103.706 192.553 103.165C192.193 102.622 191.94 101.945 191.795 101.133C191.713 100.68 191.679 100.239 191.692 99.8091C191.699 99.389 191.731 98.9933 191.787 98.6217C191.853 98.2567 191.932 97.9221 192.026 97.6179C192.12 97.3216 192.211 97.0752 192.299 96.8787L194.985 96.6775L195.039 96.9758C194.681 97.1307 194.348 97.3385 194.042 97.599C193.744 97.8582 193.489 98.1546 193.278 98.4883C193.076 98.8285 192.93 99.1999 192.838 99.6025C192.754 100.004 192.752 100.427 192.832 100.872C192.904 101.278 193.029 101.629 193.206 101.926C193.391 102.229 193.612 102.477 193.869 102.669C194.133 102.859 194.427 102.987 194.75 103.052C195.075 103.124 195.417 103.128 195.775 103.064C196.276 102.973 196.721 102.799 197.109 102.54C197.506 102.279 197.868 101.964 198.196 101.592C198.524 101.229 198.834 100.824 199.123 100.378C199.414 99.9396 199.702 99.4893 199.989 99.027C200.283 98.5632 200.587 98.106 200.9 97.6553C201.215 97.2126 201.56 96.8014 201.935 96.4216C202.32 96.0484 202.742 95.7258 203.202 95.4539C203.671 95.1805 204.203 94.9901 204.8 94.8825C205.428 94.7691 206.014 94.7866 206.558 94.9348C207.111 95.0896 207.603 95.3336 208.032 95.6667C208.463 96.0079 208.819 96.4158 209.101 96.8904C209.384 97.3651 209.573 97.8729 209.671 98.4138C209.742 98.8116 209.776 99.1832 209.772 99.5288C209.769 99.8744 209.747 100.186 209.706 100.465C209.667 100.751 209.622 101.001 209.57 101.216C209.518 101.431 209.476 101.607 209.443 101.744L207.197 102.063Z" fill="white"/>
<path d="M209.817 123.189C209.87 122.236 209.873 121.374 209.827 120.603C209.789 119.832 209.736 119.165 209.671 118.603C209.585 117.951 209.484 117.366 209.367 116.85L211.308 117.31C211.295 117.406 211.279 117.551 211.26 117.744C211.241 117.938 211.221 118.151 211.2 118.385C211.179 118.626 211.157 118.876 211.135 119.134C211.12 119.4 211.102 119.65 211.081 119.884C211.068 120.118 211.052 120.323 211.034 120.5C211.024 120.686 211.017 120.819 211.012 120.9L210.629 127.811C210.625 127.892 210.618 128.021 210.608 128.198C210.606 128.385 210.598 128.595 210.585 128.829C210.58 129.063 210.57 129.309 210.556 129.568C210.549 129.834 210.544 130.085 210.539 130.319C210.533 130.562 210.529 130.78 210.527 130.974C210.524 131.169 210.524 131.314 210.527 131.412L208.546 131.653C208.72 131.145 208.886 130.571 209.043 129.933C209.17 129.381 209.296 128.724 209.419 127.962C209.55 127.201 209.642 126.344 209.695 125.392L198.136 124.748C197.45 124.71 196.848 124.684 196.331 124.672C195.821 124.667 195.38 124.667 195.007 124.671C194.634 124.682 194.322 124.701 194.069 124.728C193.816 124.762 193.604 124.799 193.432 124.838L193.383 124.835L193.544 121.942L193.592 121.945C193.759 122.003 193.966 122.059 194.214 122.113C194.462 122.168 194.771 122.221 195.14 122.274C195.51 122.327 195.948 122.376 196.455 122.42C196.971 122.465 197.572 122.507 198.258 122.545L209.817 123.189Z" fill="white"/>
<path d="M196.997 161.152L197.124 160.918C197.318 160.95 197.553 160.957 197.828 160.941C198.099 160.932 198.38 160.873 198.669 160.763C198.961 160.665 199.246 160.502 199.525 160.276C199.799 160.058 200.042 159.753 200.253 159.362C200.442 159.013 200.556 158.675 200.595 158.347C200.635 158.019 200.609 157.711 200.517 157.422C200.421 157.14 200.267 156.881 200.054 156.646C199.841 156.411 199.575 156.206 199.256 156.033C198.744 155.755 198.178 155.631 197.555 155.661C196.936 155.701 196.282 155.815 195.593 156.002C194.904 156.189 194.196 156.411 193.468 156.669C192.741 156.927 192.015 157.139 191.29 157.307C190.566 157.474 189.857 157.554 189.163 157.545C188.473 157.547 187.819 157.38 187.201 157.044C186.739 156.794 186.319 156.459 185.938 156.041C185.561 155.634 185.278 155.163 185.09 154.628C184.901 154.093 184.832 153.499 184.882 152.846C184.939 152.196 185.164 151.509 185.556 150.784C185.775 150.379 186.024 150.013 186.302 149.685C186.569 149.361 186.84 149.072 187.116 148.817C187.395 148.573 187.665 148.361 187.928 148.182C188.186 148.01 188.411 147.874 188.602 147.776L190.824 149.3L190.68 149.566C190.304 149.463 189.915 149.418 189.513 149.43C189.119 149.445 188.735 149.517 188.363 149.646C187.993 149.786 187.647 149.984 187.324 150.241C187.009 150.502 186.743 150.831 186.528 151.229C186.332 151.592 186.21 151.944 186.163 152.286C186.119 152.64 186.137 152.971 186.217 153.282C186.305 153.596 186.455 153.88 186.667 154.133C186.875 154.393 187.139 154.61 187.459 154.784C187.906 155.027 188.362 155.169 188.827 155.21C189.299 155.255 189.778 155.235 190.265 155.15C190.748 155.072 191.242 154.949 191.746 154.781C192.246 154.621 192.752 154.45 193.264 154.268C193.783 154.09 194.305 153.923 194.831 153.767C195.352 153.618 195.878 153.512 196.407 153.451C196.94 153.4 197.471 153.412 198 153.488C198.535 153.567 199.07 153.752 199.602 154.041C200.163 154.346 200.61 154.727 200.942 155.183C201.277 155.65 201.509 156.148 201.636 156.677C201.759 157.214 201.783 157.756 201.708 158.303C201.632 158.851 201.464 159.366 201.202 159.85C201.01 160.205 200.805 160.517 200.587 160.784C200.368 161.052 200.157 161.282 199.952 161.474C199.743 161.673 199.551 161.841 199.377 161.976C199.203 162.111 199.06 162.222 198.949 162.309L196.997 161.152Z" fill="white"/>
<circle cx="115.257" cy="115.257" r="49.6552" fill="#B8E451"/>
<path d="M94.1758 111.355C94.2227 111.191 94.2656 110.988 94.3047 110.746C94.3516 110.504 94.3906 110.203 94.4219 109.844C94.4531 109.484 94.4766 109.059 94.4922 108.566C94.5078 108.066 94.5156 107.484 94.5156 106.82V99.1914C94.5156 98.5273 94.4688 98 94.375 97.6094C94.2812 97.2188 94.168 96.918 94.0352 96.707C93.9102 96.4961 93.7773 96.3438 93.6367 96.25C93.5039 96.1562 93.3906 96.0703 93.2969 95.9922V95.9453L96.8945 94.5977V94.6445C96.8477 94.8086 96.8008 95.0117 96.7539 95.2539C96.7148 95.4961 96.6797 95.8008 96.6484 96.168C96.6172 96.5273 96.5938 96.957 96.5781 97.457C96.5625 97.9492 96.5547 98.5273 96.5547 99.1914V106.82C96.5547 107.484 96.5625 108.066 96.5781 108.566C96.5938 109.059 96.6172 109.484 96.6484 109.844C96.6797 110.203 96.7148 110.504 96.7539 110.746C96.8008 110.988 96.8477 111.191 96.8945 111.355V111.402H94.1758V111.355ZM101.863 103.094C101.863 103.734 101.945 104.352 102.109 104.945C102.273 105.539 102.5 106.098 102.789 106.621C103.086 107.137 103.441 107.609 103.855 108.039C104.277 108.469 104.742 108.836 105.25 109.141C105.766 109.445 106.316 109.684 106.902 109.855C107.488 110.02 108.102 110.102 108.742 110.102C109.383 110.102 109.996 110.02 110.582 109.855C111.176 109.684 111.727 109.445 112.234 109.141C112.75 108.836 113.215 108.469 113.629 108.039C114.043 107.609 114.398 107.137 114.695 106.621C114.992 106.098 115.223 105.539 115.387 104.945C115.551 104.352 115.633 103.734 115.633 103.094C115.633 102.133 115.453 101.23 115.094 100.387C114.734 99.5352 114.242 98.793 113.617 98.1602C113 97.5195 112.273 97.0156 111.438 96.6484C110.602 96.2734 109.703 96.0859 108.742 96.0859C107.781 96.0859 106.883 96.2734 106.047 96.6484C105.211 97.0156 104.48 97.5195 103.855 98.1602C103.238 98.793 102.75 99.5352 102.391 100.387C102.039 101.23 101.863 102.133 101.863 103.094ZM100.035 103.047C100.035 102.25 100.137 101.48 100.34 100.738C100.551 99.9961 100.844 99.3047 101.219 98.6641C101.602 98.0156 102.059 97.4258 102.59 96.8945C103.121 96.3633 103.707 95.9102 104.348 95.5352C104.996 95.1523 105.691 94.8594 106.434 94.6562C107.176 94.4453 107.945 94.3398 108.742 94.3398C109.539 94.3398 110.309 94.4453 111.051 94.6562C111.793 94.8594 112.488 95.1523 113.137 95.5352C113.785 95.9102 114.375 96.3633 114.906 96.8945C115.438 97.4258 115.891 98.0156 116.266 98.6641C116.648 99.3047 116.941 99.9961 117.145 100.738C117.355 101.48 117.461 102.25 117.461 103.047C117.461 103.852 117.355 104.625 117.145 105.367C116.941 106.102 116.648 106.793 116.266 107.441C115.891 108.09 115.438 108.68 114.906 109.211C114.375 109.742 113.785 110.199 113.137 110.582C112.488 110.957 111.793 111.246 111.051 111.449C110.309 111.66 109.539 111.766 108.742 111.766C107.945 111.766 107.176 111.66 106.434 111.449C105.691 111.246 104.996 110.957 104.348 110.582C103.707 110.199 103.121 109.742 102.59 109.211C102.059 108.68 101.602 108.09 101.219 107.441C100.844 106.793 100.551 106.102 100.34 105.367C100.137 104.625 100.035 103.852 100.035 103.047ZM121.047 98.7812C121.047 99.2031 121.125 99.5977 121.281 99.9648C121.438 100.332 121.648 100.656 121.914 100.938C122.188 101.211 122.504 101.43 122.863 101.594C123.23 101.75 123.625 101.828 124.047 101.828C124.477 101.828 124.871 101.75 125.23 101.594C125.598 101.43 125.914 101.211 126.18 100.938C126.453 100.656 126.664 100.332 126.812 99.9648C126.969 99.5977 127.047 99.2031 127.047 98.7812C127.047 98.3516 126.969 97.9492 126.812 97.5742C126.664 97.1992 126.453 96.8711 126.18 96.5898C125.914 96.3086 125.598 96.0898 125.23 95.9336C124.871 95.7695 124.477 95.6875 124.047 95.6875C123.625 95.6875 123.23 95.7695 122.863 95.9336C122.504 96.0898 122.188 96.3086 121.914 96.5898C121.648 96.8711 121.438 97.1992 121.281 97.5742C121.125 97.9492 121.047 98.3516 121.047 98.7812ZM119.629 98.7578C119.629 98.1484 119.746 97.5742 119.98 97.0352C120.215 96.4961 120.531 96.0273 120.93 95.6289C121.328 95.2227 121.793 94.9023 122.324 94.668C122.863 94.4336 123.438 94.3164 124.047 94.3164C124.656 94.3164 125.23 94.4336 125.77 94.668C126.309 94.9023 126.777 95.2227 127.176 95.6289C127.582 96.0273 127.902 96.4961 128.137 97.0352C128.371 97.5742 128.488 98.1484 128.488 98.7578C128.488 99.3672 128.371 99.9414 128.137 100.48C127.902 101.012 127.582 101.477 127.176 101.875C126.777 102.273 126.309 102.59 125.77 102.824C125.23 103.059 124.656 103.176 124.047 103.176C123.438 103.176 122.863 103.059 122.324 102.824C121.793 102.59 121.328 102.273 120.93 101.875C120.531 101.477 120.215 101.012 119.98 100.48C119.746 99.9414 119.629 99.3672 119.629 98.7578ZM133.914 94.1758L134.875 94.7969L123.59 112.023L122.629 111.402L133.914 94.1758ZM130.645 107.371C130.645 107.793 130.723 108.188 130.879 108.555C131.035 108.922 131.246 109.246 131.512 109.527C131.785 109.801 132.102 110.02 132.461 110.184C132.828 110.34 133.223 110.418 133.645 110.418C134.074 110.418 134.469 110.34 134.828 110.184C135.195 110.02 135.512 109.801 135.777 109.527C136.051 109.246 136.262 108.922 136.41 108.555C136.566 108.188 136.645 107.793 136.645 107.371C136.645 106.949 136.566 106.551 136.41 106.176C136.262 105.801 136.051 105.473 135.777 105.191C135.512 104.91 135.195 104.688 134.828 104.523C134.469 104.359 134.074 104.277 133.645 104.277C133.223 104.277 132.828 104.359 132.461 104.523C132.102 104.688 131.785 104.91 131.512 105.191C131.246 105.473 131.035 105.801 130.879 106.176C130.723 106.551 130.645 106.949 130.645 107.371ZM129.238 107.348C129.238 106.738 129.355 106.164 129.59 105.625C129.824 105.086 130.141 104.617 130.539 104.219C130.938 103.812 131.402 103.492 131.934 103.258C132.473 103.023 133.043 102.906 133.645 102.906C134.254 102.906 134.828 103.023 135.367 103.258C135.906 103.492 136.375 103.812 136.773 104.219C137.18 104.617 137.5 105.086 137.734 105.625C137.969 106.164 138.086 106.738 138.086 107.348C138.086 107.957 137.969 108.531 137.734 109.07C137.5 109.602 137.18 110.066 136.773 110.465C136.375 110.863 135.906 111.18 135.367 111.414C134.828 111.648 134.254 111.766 133.645 111.766C133.043 111.766 132.473 111.648 131.934 111.414C131.402 111.18 130.938 110.863 130.539 110.465C130.141 110.066 129.824 109.602 129.59 109.07C129.355 108.531 129.238 107.957 129.238 107.348Z" fill="#010003"/>
<path d="M86.9911 123.232C86.983 123.684 86.9749 124.123 86.9669 124.547C86.9628 124.729 86.9588 124.915 86.9547 125.105C86.9547 125.294 86.9527 125.482 86.9487 125.668C86.9487 125.85 86.9467 126.026 86.9426 126.196C86.9426 126.361 86.9426 126.509 86.9426 126.638C86.9426 126.909 86.9446 127.236 86.9487 127.62C86.9527 128.004 86.9568 128.398 86.9608 128.802C86.9689 129.206 86.979 129.594 86.9911 129.966C87.0032 130.338 87.0174 130.647 87.0335 130.893C87.0901 130.901 87.1649 130.911 87.2578 130.923C87.3548 130.932 87.4558 130.94 87.5609 130.948C87.6659 130.952 87.769 130.956 87.87 130.96C87.971 130.964 88.0559 130.966 88.1246 130.966C88.4075 130.966 88.6964 130.948 88.9914 130.911C89.2904 130.871 89.5773 130.798 89.8521 130.693C90.1309 130.588 90.3916 130.445 90.634 130.263C90.8805 130.077 91.0947 129.838 91.2765 129.548C91.4624 129.257 91.6079 128.907 91.713 128.499C91.818 128.087 91.8706 127.602 91.8706 127.044C91.8706 126.426 91.7958 125.876 91.6463 125.395C91.4968 124.911 91.2765 124.502 90.9856 124.171C90.6987 123.84 90.3411 123.589 89.9127 123.419C89.4884 123.246 88.9995 123.159 88.4459 123.159C88.3367 123.159 88.2135 123.163 88.0761 123.171C87.9387 123.175 87.8013 123.181 87.6639 123.189C87.5306 123.193 87.4033 123.201 87.2821 123.213C87.1649 123.221 87.0679 123.228 86.9911 123.232ZM85.6637 122.686C85.7566 122.69 85.8435 122.694 85.9243 122.698C85.993 122.702 86.0637 122.706 86.1364 122.71C86.2092 122.71 86.2678 122.71 86.3122 122.71C86.389 122.71 86.5163 122.706 86.6941 122.698C86.8759 122.69 87.082 122.682 87.3124 122.674C87.5427 122.666 87.7811 122.658 88.0276 122.65C88.2782 122.642 88.5125 122.638 88.7307 122.638C89.3167 122.638 89.8743 122.71 90.4037 122.856C90.9331 123.001 91.3978 123.24 91.7978 123.571C92.1979 123.902 92.5151 124.337 92.7495 124.874C92.9838 125.412 93.101 126.072 93.101 126.856C93.101 127.418 93.0384 127.923 92.9131 128.372C92.7919 128.82 92.6202 129.216 92.3979 129.56C92.1756 129.903 91.9089 130.198 91.5978 130.445C91.2907 130.687 90.9492 130.887 90.5734 131.045C90.2016 131.202 89.8036 131.317 89.3793 131.39C88.955 131.463 88.5166 131.499 88.064 131.499C87.9023 131.499 87.7064 131.493 87.476 131.481C87.2497 131.473 87.0214 131.463 86.7911 131.451C86.5607 131.439 86.3425 131.427 86.1364 131.414C85.9344 131.406 85.7768 131.402 85.6637 131.402V131.378C85.6879 131.293 85.7101 131.188 85.7303 131.063C85.7546 130.938 85.7748 130.782 85.7909 130.596C85.8071 130.41 85.8192 130.19 85.8273 129.935C85.8354 129.677 85.8394 129.376 85.8394 129.032V125.086C85.8394 124.743 85.8354 124.442 85.8273 124.183C85.8192 123.921 85.8071 123.696 85.7909 123.51C85.7748 123.32 85.7546 123.161 85.7303 123.032C85.7101 122.902 85.6879 122.795 85.6637 122.71V122.686ZM94.58 131.378C94.6043 131.293 94.6265 131.188 94.6467 131.063C94.6669 130.938 94.6851 130.782 94.7012 130.596C94.7174 130.41 94.7295 130.19 94.7376 129.935C94.7457 129.677 94.7497 129.376 94.7497 129.032V125.086C94.7497 124.743 94.7457 124.444 94.7376 124.189C94.7295 123.931 94.7174 123.708 94.7012 123.522C94.6851 123.333 94.6669 123.175 94.6467 123.05C94.6265 122.924 94.6043 122.819 94.58 122.735V122.71H96.0287V122.735C96.0044 122.819 95.9802 122.924 95.956 123.05C95.9357 123.175 95.9176 123.333 95.9014 123.522C95.8893 123.708 95.8772 123.931 95.865 124.189C95.857 124.444 95.8529 124.743 95.8529 125.086V129.032C95.8529 129.376 95.857 129.677 95.865 129.935C95.8772 130.19 95.8893 130.41 95.9014 130.596C95.9176 130.782 95.9357 130.938 95.956 131.063C95.9802 131.188 96.0044 131.293 96.0287 131.378V131.402H94.58V131.378ZM101.448 124.092H101.314C101.282 123.999 101.229 123.894 101.157 123.777C101.088 123.66 100.995 123.551 100.878 123.45C100.765 123.345 100.625 123.258 100.46 123.189C100.298 123.12 100.106 123.086 99.8838 123.086C99.6857 123.086 99.51 123.116 99.3564 123.177C99.2029 123.238 99.0735 123.322 98.9685 123.432C98.8675 123.541 98.7907 123.67 98.7381 123.82C98.6856 123.969 98.6593 124.135 98.6593 124.317C98.6593 124.607 98.7402 124.886 98.9018 125.153C99.0675 125.416 99.2736 125.676 99.5201 125.935C99.7666 126.194 100.033 126.452 100.32 126.711C100.607 126.969 100.874 127.238 101.12 127.517C101.367 127.796 101.571 128.089 101.732 128.396C101.898 128.699 101.981 129.026 101.981 129.378C101.981 129.64 101.935 129.905 101.842 130.172C101.753 130.435 101.613 130.671 101.423 130.881C101.233 131.091 100.989 131.263 100.69 131.396C100.391 131.526 100.035 131.59 99.6231 131.59C99.3928 131.59 99.1725 131.568 98.9624 131.524C98.7563 131.483 98.5644 131.433 98.3866 131.372C98.2128 131.307 98.0552 131.239 97.9138 131.166C97.7764 131.093 97.6633 131.027 97.5744 130.966L97.7138 129.626H97.8653C97.9098 129.816 97.9825 129.998 98.0835 130.172C98.1845 130.342 98.3078 130.493 98.4533 130.626C98.6028 130.756 98.7725 130.861 98.9624 130.942C99.1523 131.018 99.3605 131.057 99.5867 131.057C99.7928 131.057 99.9767 131.027 100.138 130.966C100.304 130.901 100.445 130.814 100.563 130.705C100.68 130.592 100.769 130.459 100.829 130.305C100.894 130.152 100.926 129.984 100.926 129.802C100.926 129.548 100.88 129.313 100.787 129.099C100.694 128.881 100.571 128.675 100.417 128.481C100.268 128.287 100.096 128.099 99.9019 127.917C99.712 127.735 99.516 127.553 99.314 127.371C99.1119 127.186 98.9139 126.996 98.72 126.802C98.53 126.608 98.3583 126.402 98.2047 126.183C98.0552 125.961 97.934 125.725 97.8411 125.474C97.7481 125.22 97.7016 124.941 97.7016 124.638C97.7016 124.319 97.7623 124.032 97.8835 123.777C98.0088 123.518 98.1724 123.298 98.3745 123.116C98.5805 122.935 98.8129 122.795 99.0715 122.698C99.3301 122.601 99.5968 122.553 99.8716 122.553C100.074 122.553 100.26 122.569 100.429 122.601C100.599 122.633 100.751 122.672 100.884 122.716C101.021 122.761 101.14 122.805 101.242 122.85C101.343 122.894 101.425 122.93 101.49 122.959L101.448 124.092ZM110.503 124.044L110.449 124.068C110.134 123.777 109.754 123.545 109.309 123.371C108.869 123.197 108.384 123.11 107.855 123.11C107.345 123.11 106.879 123.191 106.454 123.353C106.03 123.51 105.664 123.741 105.357 124.044C105.054 124.347 104.818 124.719 104.648 125.159C104.478 125.6 104.393 126.101 104.393 126.662C104.393 127.281 104.474 127.858 104.636 128.396C104.798 128.929 105.038 129.392 105.357 129.784C105.676 130.176 106.074 130.485 106.551 130.711C107.032 130.934 107.592 131.045 108.23 131.045C108.461 131.045 108.691 131.02 108.921 130.972C109.152 130.923 109.372 130.853 109.582 130.76C109.796 130.663 109.996 130.548 110.182 130.414C110.372 130.277 110.544 130.121 110.697 129.948L110.764 129.99L110.279 131.227C109.976 131.344 109.641 131.433 109.273 131.493C108.909 131.558 108.541 131.59 108.17 131.59C107.422 131.59 106.737 131.483 106.115 131.269C105.497 131.051 104.963 130.744 104.515 130.348C104.07 129.952 103.723 129.477 103.472 128.923C103.226 128.366 103.102 127.747 103.102 127.068C103.102 126.685 103.151 126.307 103.248 125.935C103.349 125.563 103.494 125.21 103.684 124.874C103.874 124.539 104.109 124.232 104.387 123.953C104.666 123.67 104.983 123.426 105.339 123.219C105.699 123.013 106.093 122.854 106.521 122.741C106.953 122.623 107.42 122.565 107.921 122.565C108.701 122.565 109.424 122.684 110.091 122.922L110.503 124.044ZM115.837 122.565C116.512 122.565 117.135 122.676 117.704 122.898C118.278 123.116 118.773 123.426 119.189 123.826C119.606 124.222 119.931 124.698 120.165 125.256C120.4 125.814 120.517 126.43 120.517 127.105C120.517 127.489 120.472 127.867 120.383 128.238C120.295 128.61 120.163 128.962 119.989 129.293C119.82 129.624 119.61 129.931 119.359 130.214C119.109 130.493 118.822 130.736 118.498 130.942C118.179 131.144 117.826 131.301 117.438 131.414C117.05 131.532 116.631 131.59 116.183 131.59C115.508 131.59 114.884 131.483 114.31 131.269C113.74 131.051 113.247 130.744 112.831 130.348C112.415 129.952 112.089 129.477 111.855 128.923C111.621 128.366 111.504 127.747 111.504 127.068C111.504 126.685 111.548 126.307 111.637 125.935C111.726 125.563 111.855 125.21 112.025 124.874C112.199 124.539 112.409 124.232 112.655 123.953C112.906 123.67 113.191 123.426 113.51 123.219C113.833 123.013 114.189 122.854 114.577 122.741C114.969 122.623 115.389 122.565 115.837 122.565ZM116.183 131.045C116.631 131.045 117.042 130.964 117.413 130.802C117.785 130.641 118.104 130.406 118.371 130.099C118.642 129.792 118.852 129.418 119.001 128.978C119.151 128.533 119.226 128.03 119.226 127.468C119.226 126.846 119.153 126.27 119.008 125.741C118.866 125.208 118.654 124.747 118.371 124.359C118.088 123.967 117.735 123.662 117.31 123.444C116.89 123.221 116.399 123.11 115.837 123.11C115.389 123.11 114.979 123.191 114.607 123.353C114.235 123.51 113.914 123.741 113.643 124.044C113.376 124.347 113.168 124.719 113.019 125.159C112.869 125.6 112.795 126.101 112.795 126.662C112.795 127.281 112.865 127.858 113.007 128.396C113.148 128.929 113.36 129.392 113.643 129.784C113.926 130.176 114.28 130.485 114.704 130.711C115.128 130.934 115.621 131.045 116.183 131.045ZM128.106 125.086C128.106 124.743 128.102 124.444 128.094 124.189C128.086 123.931 128.073 123.708 128.057 123.522C128.041 123.333 128.023 123.175 128.003 123.05C127.982 122.924 127.96 122.819 127.936 122.735V122.71H129.015V122.735C128.991 122.819 128.966 122.924 128.942 123.05C128.922 123.175 128.904 123.333 128.888 123.522C128.876 123.708 128.863 123.931 128.851 124.189C128.843 124.444 128.839 124.743 128.839 125.086V128.36C128.839 128.937 128.756 129.43 128.591 129.838C128.425 130.247 128.195 130.582 127.9 130.845C127.605 131.103 127.251 131.291 126.839 131.408C126.427 131.53 125.976 131.59 125.487 131.59C124.998 131.59 124.542 131.534 124.117 131.421C123.697 131.307 123.329 131.126 123.014 130.875C122.703 130.62 122.459 130.293 122.281 129.893C122.103 129.489 122.014 128.998 122.014 128.42V125.086C122.014 124.743 122.01 124.444 122.002 124.189C121.994 123.931 121.982 123.708 121.966 123.522C121.949 123.333 121.929 123.175 121.905 123.05C121.885 122.924 121.862 122.819 121.838 122.735V122.71H123.293V122.735C123.269 122.819 123.244 122.924 123.22 123.05C123.2 123.175 123.182 123.333 123.166 123.522C123.15 123.708 123.137 123.931 123.129 124.189C123.121 124.444 123.117 124.743 123.117 125.086V128.487C123.117 128.968 123.188 129.366 123.329 129.681C123.475 129.992 123.665 130.241 123.899 130.426C124.133 130.608 124.4 130.736 124.699 130.808C124.998 130.881 125.303 130.917 125.614 130.917C125.926 130.917 126.231 130.881 126.53 130.808C126.829 130.736 127.093 130.608 127.324 130.426C127.558 130.241 127.746 129.992 127.888 129.681C128.033 129.366 128.106 128.968 128.106 128.487V125.086ZM131.039 122.71L137.283 129.354V125.086C137.283 124.743 137.279 124.444 137.271 124.189C137.263 123.931 137.25 123.708 137.234 123.522C137.218 123.333 137.198 123.175 137.174 123.05C137.153 122.924 137.131 122.819 137.107 122.735V122.71H138.186V122.735C138.162 122.819 138.139 122.924 138.119 123.05C138.099 123.175 138.081 123.333 138.065 123.522C138.048 123.708 138.036 123.931 138.028 124.189C138.02 124.444 138.016 124.743 138.016 125.086V131.524H137.804L131.561 124.886V129.032C131.561 129.376 131.565 129.677 131.573 129.935C131.581 130.19 131.593 130.41 131.609 130.596C131.625 130.782 131.644 130.938 131.664 131.063C131.684 131.188 131.706 131.293 131.73 131.378V131.402H130.652V131.378C130.676 131.293 130.698 131.188 130.718 131.063C130.742 130.938 130.763 130.782 130.779 130.596C130.795 130.41 130.807 130.19 130.815 129.935C130.823 129.677 130.827 129.376 130.827 129.032V125.086C130.827 124.743 130.823 124.444 130.815 124.189C130.807 123.931 130.795 123.708 130.779 123.522C130.763 123.333 130.742 123.175 130.718 123.05C130.698 122.924 130.676 122.819 130.652 122.735V122.71H131.039ZM142.162 123.244C141.685 123.244 141.255 123.266 140.871 123.31C140.487 123.351 140.156 123.395 139.877 123.444C139.554 123.504 139.265 123.571 139.01 123.644L139.186 122.662C139.235 122.666 139.307 122.67 139.404 122.674C139.501 122.678 139.608 122.682 139.725 122.686C139.847 122.69 139.972 122.694 140.101 122.698C140.235 122.698 140.36 122.7 140.477 122.704C140.594 122.704 140.697 122.706 140.786 122.71C140.879 122.71 140.946 122.71 140.986 122.71H144.447C144.488 122.71 144.552 122.71 144.641 122.71C144.734 122.706 144.839 122.704 144.956 122.704C145.074 122.7 145.197 122.698 145.326 122.698C145.46 122.694 145.585 122.69 145.702 122.686C145.823 122.682 145.932 122.678 146.029 122.674C146.126 122.67 146.199 122.666 146.248 122.662L146.423 123.644C146.165 123.571 145.874 123.504 145.551 123.444C145.272 123.395 144.94 123.351 144.556 123.31C144.173 123.266 143.742 123.244 143.265 123.244V129.032C143.265 129.376 143.269 129.677 143.277 129.935C143.29 130.19 143.302 130.41 143.314 130.596C143.33 130.782 143.348 130.938 143.368 131.063C143.393 131.188 143.417 131.293 143.441 131.378V131.402H141.992V131.378C142.017 131.293 142.039 131.188 142.059 131.063C142.079 130.938 142.098 130.782 142.114 130.596C142.13 130.41 142.142 130.19 142.15 129.935C142.158 129.677 142.162 129.376 142.162 129.032V123.244Z" fill="#010003"/>
</svg>
