<svg width="986" height="897" viewBox="0 0 986 897" fill="none" xmlns="http://www.w3.org/2000/svg">
<g clip-path="url(#clip0_7810_1184)">
<path d="M536.399 812.699V533.699L294.799 394.199L53.1992 533.699V812.699L294.799 952.199L536.399 812.699Z" fill="#FCF9EB"/>
<path d="M1103.9 439V160L862.401 20.5L620.801 160V439L862.401 578.4L1103.9 439Z" fill="#FCF9EB"/>
<path d="M350.199 866.301L151.199 981.201" stroke="#B8E451" stroke-width="3.0822" stroke-miterlimit="10" stroke-linecap="round"/>
<path d="M1177.6 727.199L978.602 842.099" stroke="#B8E451" stroke-width="3.0822" stroke-miterlimit="10" stroke-linecap="round"/>
<path d="M768 56.1016L569 171.002" stroke="#B8E451" stroke-width="3.0822" stroke-miterlimit="10" stroke-linecap="round"/>
<path d="M650.602 86.8984L451.602 201.798" stroke="#B8E451" stroke-width="3.0822" stroke-miterlimit="10" stroke-linecap="round"/>
<path d="M302.301 866.301L103.301 981.201" stroke="#B8E451" stroke-width="3.0822" stroke-miterlimit="10" stroke-linecap="round"/>
<path d="M1189.8 287.2V693.7L837.801 896.9L485.801 693.7V287.2L837.801 84H1189.8V287.2Z" fill="url(#paint0_linear_7810_1184)"/>
<path d="M487.101 282.699V171.699L390.901 116.199L294.801 171.699V282.699L390.901 338.199L487.101 282.699Z" fill="#B8E451"/>
<path d="M1213.9 1090.4V912.902L1060.1 824.102L906.398 912.902V1090.4L1060.1 1179.2L1213.9 1090.4Z" fill="#FCF9EB"/>
<path d="M500.502 748.298V554.098L332.302 456.898L164.102 554.098V748.298L332.302 845.398L500.502 748.298Z" fill="#B8E451"/>
<path d="M932.301 147.301C932.301 149.001 930.901 150.301 929.301 150.301C927.701 150.301 926.301 148.901 926.301 147.301C926.301 145.601 927.701 144.301 929.301 144.301C930.901 144.301 932.301 145.701 932.301 147.301Z" fill="#010003"/>
<path d="M951.301 147.301C951.301 149.001 949.901 150.301 948.301 150.301C946.701 150.301 945.301 148.901 945.301 147.301C945.301 145.601 946.701 144.301 948.301 144.301C949.901 144.301 951.301 145.701 951.301 147.301Z" fill="#010003"/>
<path d="M970.301 147.301C970.301 149.001 968.901 150.301 967.301 150.301C965.601 150.301 964.301 148.901 964.301 147.301C964.301 145.601 965.701 144.301 967.301 144.301C969.001 144.301 970.301 145.701 970.301 147.301Z" fill="#010003"/>
<path d="M932.301 168.902C932.301 170.602 930.901 171.902 929.301 171.902C927.701 171.902 926.301 170.502 926.301 168.902C926.301 167.302 927.701 165.902 929.301 165.902C930.901 165.902 932.301 167.302 932.301 168.902Z" fill="#010003"/>
<path d="M951.301 168.902C951.301 170.602 949.901 171.902 948.301 171.902C946.701 171.902 945.301 170.502 945.301 168.902C945.301 167.302 946.701 165.902 948.301 165.902C949.901 165.902 951.301 167.302 951.301 168.902Z" fill="#010003"/>
<path d="M970.301 168.902C970.301 170.602 968.901 171.902 967.301 171.902C965.601 171.902 964.301 170.502 964.301 168.902C964.301 167.302 965.701 165.902 967.301 165.902C969.001 165.902 970.301 167.302 970.301 168.902Z" fill="#010003"/>
<path d="M929.301 193.5C930.958 193.5 932.301 192.157 932.301 190.5C932.301 188.843 930.958 187.5 929.301 187.5C927.644 187.5 926.301 188.843 926.301 190.5C926.301 192.157 927.644 193.5 929.301 193.5Z" fill="#010003"/>
<path d="M948.301 193.5C949.958 193.5 951.301 192.157 951.301 190.5C951.301 188.843 949.958 187.5 948.301 187.5C946.644 187.5 945.301 188.843 945.301 190.5C945.301 192.157 946.644 193.5 948.301 193.5Z" fill="#010003"/>
<path d="M967.301 193.5C968.958 193.5 970.301 192.157 970.301 190.5C970.301 188.843 968.958 187.5 967.301 187.5C965.644 187.5 964.301 188.843 964.301 190.5C964.301 192.157 965.644 193.5 967.301 193.5Z" fill="#010003"/>
<path d="M929.301 215.102C930.958 215.102 932.301 213.758 932.301 212.102C932.301 210.445 930.958 209.102 929.301 209.102C927.644 209.102 926.301 210.445 926.301 212.102C926.301 213.758 927.644 215.102 929.301 215.102Z" fill="#010003"/>
<path d="M948.301 215.102C949.958 215.102 951.301 213.758 951.301 212.102C951.301 210.445 949.958 209.102 948.301 209.102C946.644 209.102 945.301 210.445 945.301 212.102C945.301 213.758 946.644 215.102 948.301 215.102Z" fill="#010003"/>
<path d="M967.301 215.102C968.958 215.102 970.301 213.758 970.301 212.102C970.301 210.445 968.958 209.102 967.301 209.102C965.644 209.102 964.301 210.445 964.301 212.102C964.301 213.758 965.644 215.102 967.301 215.102Z" fill="#010003"/>
<path d="M929.301 236.699C930.958 236.699 932.301 235.356 932.301 233.699C932.301 232.042 930.958 230.699 929.301 230.699C927.644 230.699 926.301 232.042 926.301 233.699C926.301 235.356 927.644 236.699 929.301 236.699Z" fill="#010003"/>
<path d="M948.301 236.699C949.958 236.699 951.301 235.356 951.301 233.699C951.301 232.042 949.958 230.699 948.301 230.699C946.644 230.699 945.301 232.042 945.301 233.699C945.301 235.356 946.644 236.699 948.301 236.699Z" fill="#010003"/>
<path d="M967.301 236.699C968.958 236.699 970.301 235.356 970.301 233.699C970.301 232.042 968.958 230.699 967.301 230.699C965.644 230.699 964.301 232.042 964.301 233.699C964.301 235.356 965.644 236.699 967.301 236.699Z" fill="#010003"/>
<path d="M929.301 258.301C930.958 258.301 932.301 256.958 932.301 255.301C932.301 253.644 930.958 252.301 929.301 252.301C927.644 252.301 926.301 253.644 926.301 255.301C926.301 256.958 927.644 258.301 929.301 258.301Z" fill="#010003"/>
<path d="M948.301 258.301C949.958 258.301 951.301 256.958 951.301 255.301C951.301 253.644 949.958 252.301 948.301 252.301C946.644 252.301 945.301 253.644 945.301 255.301C945.301 256.958 946.644 258.301 948.301 258.301Z" fill="#010003"/>
<path d="M967.301 258.301C968.958 258.301 970.301 256.958 970.301 255.301C970.301 253.644 968.958 252.301 967.301 252.301C965.644 252.301 964.301 253.644 964.301 255.301C964.301 256.958 965.644 258.301 967.301 258.301Z" fill="#010003"/>
<path d="M929.301 279.902C930.958 279.902 932.301 278.559 932.301 276.902C932.301 275.245 930.958 273.902 929.301 273.902C927.644 273.902 926.301 275.245 926.301 276.902C926.301 278.559 927.644 279.902 929.301 279.902Z" fill="#010003"/>
<path d="M948.301 279.902C949.958 279.902 951.301 278.559 951.301 276.902C951.301 275.245 949.958 273.902 948.301 273.902C946.644 273.902 945.301 275.245 945.301 276.902C945.301 278.559 946.644 279.902 948.301 279.902Z" fill="#010003"/>
<path d="M967.301 279.902C968.958 279.902 970.301 278.559 970.301 276.902C970.301 275.245 968.958 273.902 967.301 273.902C965.644 273.902 964.301 275.245 964.301 276.902C964.301 278.559 965.644 279.902 967.301 279.902Z" fill="#010003"/>
<path d="M45.6016 72.5C45.6016 74.2 44.2016 75.5 42.6016 75.5C40.9016 75.5 39.6016 74.1 39.6016 72.5C39.6016 70.9 41.0016 69.5 42.6016 69.5C44.2016 69.5 45.6016 70.8 45.6016 72.5Z" fill="#B8E451"/>
<path d="M64.6016 72.5C64.6016 74.2 63.2016 75.5 61.6016 75.5C59.9016 75.5 58.6016 74.1 58.6016 72.5C58.6016 70.9 60.0016 69.5 61.6016 69.5C63.2016 69.5 64.6016 70.8 64.6016 72.5Z" fill="#B8E451"/>
<path d="M83.6016 72.5C83.6016 74.2 82.2016 75.5 80.6016 75.5C78.9016 75.5 77.6016 74.1 77.6016 72.5C77.6016 70.9 79.0016 69.5 80.6016 69.5C82.3016 69.5 83.6016 70.8 83.6016 72.5Z" fill="#B8E451"/>
<path d="M102.602 72.5C102.602 74.2 101.202 75.5 99.6016 75.5C98.0016 75.5 96.6016 74.1 96.6016 72.5C96.6016 70.9 98.0016 69.5 99.6016 69.5C101.202 69.5 102.602 70.8 102.602 72.5Z" fill="#B8E451"/>
<path d="M121.703 72.5C121.703 74.2 120.303 75.5 118.703 75.5C117.003 75.5 115.703 74.1 115.703 72.5C115.703 70.9 117.103 69.5 118.703 69.5C120.303 69.5 121.703 70.8 121.703 72.5Z" fill="#B8E451"/>
<path d="M42.6016 97.1016C44.2584 97.1016 45.6016 95.7584 45.6016 94.1016C45.6016 92.4447 44.2584 91.1016 42.6016 91.1016C40.9447 91.1016 39.6016 92.4447 39.6016 94.1016C39.6016 95.7584 40.9447 97.1016 42.6016 97.1016Z" fill="#B8E451"/>
<path d="M61.6016 97.1016C63.2584 97.1016 64.6016 95.7584 64.6016 94.1016C64.6016 92.4447 63.2584 91.1016 61.6016 91.1016C59.9447 91.1016 58.6016 92.4447 58.6016 94.1016C58.6016 95.7584 59.9447 97.1016 61.6016 97.1016Z" fill="#B8E451"/>
<path d="M83.6016 94.0988C83.6016 95.7988 82.2016 97.0988 80.6016 97.0988C78.9016 97.0988 77.6016 95.6988 77.6016 94.0988C77.6016 92.4988 79.0016 91.0988 80.6016 91.0988C82.3016 90.9988 83.6016 92.3988 83.6016 94.0988Z" fill="#B8E451"/>
<path d="M102.602 94.1016C102.602 95.8016 101.202 97.1016 99.6016 97.1016C98.0016 97.1016 96.6016 95.7016 96.6016 94.1016C96.6016 92.5016 98.0016 91.1016 99.6016 91.1016C101.202 91.1016 102.602 92.4016 102.602 94.1016Z" fill="#B8E451"/>
<path d="M118.602 97.1016C120.258 97.1016 121.602 95.7584 121.602 94.1016C121.602 92.4447 120.258 91.1016 118.602 91.1016C116.945 91.1016 115.602 92.4447 115.602 94.1016C115.602 95.7584 116.945 97.1016 118.602 97.1016Z" fill="#B8E451"/>
<path d="M42.6016 118.699C44.2584 118.699 45.6016 117.356 45.6016 115.699C45.6016 114.042 44.2584 112.699 42.6016 112.699C40.9447 112.699 39.6016 114.042 39.6016 115.699C39.6016 117.356 40.9447 118.699 42.6016 118.699Z" fill="#B8E451"/>
<path d="M61.6016 118.699C63.2584 118.699 64.6016 117.356 64.6016 115.699C64.6016 114.042 63.2584 112.699 61.6016 112.699C59.9447 112.699 58.6016 114.042 58.6016 115.699C58.6016 117.356 59.9447 118.699 61.6016 118.699Z" fill="#B8E451"/>
<path d="M83.6016 115.7C83.6016 117.4 82.2016 118.7 80.6016 118.7C78.9016 118.7 77.6016 117.3 77.6016 115.7C77.6016 114.1 79.0016 112.7 80.6016 112.7C82.3016 112.6 83.6016 114 83.6016 115.7Z" fill="#B8E451"/>
<path d="M102.602 115.699C102.602 117.399 101.202 118.699 99.6016 118.699C98.0016 118.699 96.6016 117.299 96.6016 115.699C96.6016 114.099 98.0016 112.699 99.6016 112.699C101.202 112.699 102.602 113.999 102.602 115.699Z" fill="#B8E451"/>
<path d="M118.602 118.699C120.258 118.699 121.602 117.356 121.602 115.699C121.602 114.042 120.258 112.699 118.602 112.699C116.945 112.699 115.602 114.042 115.602 115.699C115.602 117.356 116.945 118.699 118.602 118.699Z" fill="#B8E451"/>
<path d="M42.6016 140.301C44.2584 140.301 45.6016 138.958 45.6016 137.301C45.6016 135.644 44.2584 134.301 42.6016 134.301C40.9447 134.301 39.6016 135.644 39.6016 137.301C39.6016 138.958 40.9447 140.301 42.6016 140.301Z" fill="#B8E451"/>
<path d="M61.6016 140.301C63.2584 140.301 64.6016 138.958 64.6016 137.301C64.6016 135.644 63.2584 134.301 61.6016 134.301C59.9447 134.301 58.6016 135.644 58.6016 137.301C58.6016 138.958 59.9447 140.301 61.6016 140.301Z" fill="#B8E451"/>
<path d="M83.6016 137.302C83.6016 139.002 82.2016 140.302 80.6016 140.302C78.9016 140.302 77.6016 138.902 77.6016 137.302C77.6016 135.702 79.0016 134.302 80.6016 134.302C82.3016 134.202 83.6016 135.602 83.6016 137.302Z" fill="#B8E451"/>
<path d="M102.602 137.301C102.602 139.001 101.202 140.301 99.6016 140.301C98.0016 140.301 96.6016 138.901 96.6016 137.301C96.6016 135.701 98.0016 134.301 99.6016 134.301C101.202 134.301 102.602 135.601 102.602 137.301Z" fill="#B8E451"/>
<path d="M118.602 140.301C120.258 140.301 121.602 138.958 121.602 137.301C121.602 135.644 120.258 134.301 118.602 134.301C116.945 134.301 115.602 135.644 115.602 137.301C115.602 138.958 116.945 140.301 118.602 140.301Z" fill="#B8E451"/>
<path d="M42.6016 161.898C44.2584 161.898 45.6016 160.555 45.6016 158.898C45.6016 157.242 44.2584 155.898 42.6016 155.898C40.9447 155.898 39.6016 157.242 39.6016 158.898C39.6016 160.555 40.9447 161.898 42.6016 161.898Z" fill="#B8E451"/>
<path d="M61.6016 161.898C63.2584 161.898 64.6016 160.555 64.6016 158.898C64.6016 157.242 63.2584 155.898 61.6016 155.898C59.9447 155.898 58.6016 157.242 58.6016 158.898C58.6016 160.555 59.9447 161.898 61.6016 161.898Z" fill="#B8E451"/>
<path d="M83.6016 158.9C83.6016 160.6 82.2016 161.9 80.6016 161.9C78.9016 161.9 77.6016 160.5 77.6016 158.9C77.6016 157.3 79.0016 155.9 80.6016 155.9C82.3016 155.8 83.6016 157.2 83.6016 158.9Z" fill="#B8E451"/>
<path d="M102.602 158.898C102.602 160.598 101.202 161.898 99.6016 161.898C98.0016 161.898 96.6016 160.498 96.6016 158.898C96.6016 157.298 98.0016 155.898 99.6016 155.898C101.202 155.898 102.602 157.198 102.602 158.898Z" fill="#B8E451"/>
<path d="M118.602 161.898C120.258 161.898 121.602 160.555 121.602 158.898C121.602 157.242 120.258 155.898 118.602 155.898C116.945 155.898 115.602 157.242 115.602 158.898C115.602 160.555 116.945 161.898 118.602 161.898Z" fill="#B8E451"/>
<path d="M42.6016 183.398C44.2584 183.398 45.6016 182.055 45.6016 180.398C45.6016 178.742 44.2584 177.398 42.6016 177.398C40.9447 177.398 39.6016 178.742 39.6016 180.398C39.6016 182.055 40.9447 183.398 42.6016 183.398Z" fill="#B8E451"/>
<path d="M61.6016 183.398C63.2584 183.398 64.6016 182.055 64.6016 180.398C64.6016 178.742 63.2584 177.398 61.6016 177.398C59.9447 177.398 58.6016 178.742 58.6016 180.398C58.6016 182.055 59.9447 183.398 61.6016 183.398Z" fill="#B8E451"/>
<path d="M83.6016 180.398C83.6016 182.098 82.2016 183.398 80.6016 183.398C78.9016 183.398 77.6016 181.998 77.6016 180.398C77.6016 178.698 79.0016 177.398 80.6016 177.398C82.3016 177.398 83.6016 178.798 83.6016 180.398Z" fill="#B8E451"/>
<path d="M102.602 180.398C102.602 182.098 101.202 183.398 99.6016 183.398C98.0016 183.398 96.6016 181.998 96.6016 180.398C96.6016 178.698 98.0016 177.398 99.6016 177.398C101.202 177.398 102.602 178.798 102.602 180.398Z" fill="#B8E451"/>
<path d="M118.602 183.398C120.258 183.398 121.602 182.055 121.602 180.398C121.602 178.742 120.258 177.398 118.602 177.398C116.945 177.398 115.602 178.742 115.602 180.398C115.602 182.055 116.945 183.398 118.602 183.398Z" fill="#B8E451"/>
<path d="M45.6016 202C45.6016 203.7 44.2016 205 42.6016 205C40.9016 205 39.6016 203.6 39.6016 202C39.6016 200.4 41.0016 199 42.6016 199C44.2016 199 45.6016 200.4 45.6016 202Z" fill="#B8E451"/>
<path d="M64.6016 202C64.6016 203.7 63.2016 205 61.6016 205C59.9016 205 58.6016 203.6 58.6016 202C58.6016 200.4 60.0016 199 61.6016 199C63.2016 199 64.6016 200.4 64.6016 202Z" fill="#B8E451"/>
<path d="M83.6016 202C83.6016 203.7 82.2016 205 80.6016 205C78.9016 205 77.6016 203.6 77.6016 202C77.6016 200.4 79.0016 199 80.6016 199C82.3016 199 83.6016 200.4 83.6016 202Z" fill="#B8E451"/>
<path d="M102.602 202C102.602 203.7 101.202 205 99.6016 205C98.0016 205 96.6016 203.6 96.6016 202C96.6016 200.4 98.0016 199 99.6016 199C101.202 199 102.602 200.4 102.602 202Z" fill="#B8E451"/>
<path d="M121.703 202C121.703 203.7 120.303 205 118.703 205C117.003 205 115.703 203.6 115.703 202C115.703 200.4 117.103 199 118.703 199C120.303 199 121.703 200.4 121.703 202Z" fill="#B8E451"/>
<path d="M136.598 433.398V413.098L118.998 402.898L101.398 413.098V433.398L118.998 443.598L136.598 433.398Z" stroke="#B8E451" stroke-width="1.7017" stroke-miterlimit="10" stroke-linecap="round"/>
<path d="M1108 578.398L909 693.298" stroke="#010003" stroke-width="3.0822" stroke-miterlimit="10" stroke-linecap="round"/>
<path d="M1169.3 270.5L970.301 385.5" stroke="#010003" stroke-width="3.0822" stroke-miterlimit="10" stroke-linecap="round"/>
<path d="M1185.1 565.199L986.102 680.099" stroke="white" stroke-width="3.0822" stroke-miterlimit="10" stroke-linecap="round"/>
</g>
<defs>
<linearGradient id="paint0_linear_7810_1184" x1="884.001" y1="395" x2="1272.5" y2="305.5" gradientUnits="userSpaceOnUse">
<stop stop-color="#B8E451"/>
<stop offset="1" stop-color="#B8E451" stop-opacity="0"/>
</linearGradient>
<clipPath id="clip0_7810_1184">
<rect width="986" height="897" fill="white"/>
</clipPath>
</defs>
</svg>
