<svg width="415" height="280" viewBox="0 0 415 280" fill="none" xmlns="http://www.w3.org/2000/svg">
<path d="M189.279 2.1873C198.485 -7.04894 213.434 -7.07149 222.669 2.13645L293.155 72.4228C302.389 81.6307 317.338 81.6081 326.545 72.3719C335.751 63.1357 350.7 63.113 359.934 72.321L374.72 87.0665C383.955 96.2744 398.903 96.2518 408.11 87.0156C417.316 77.7794 417.294 62.8274 408.059 53.6185L170.372 -183.397C161.138 -192.605 146.189 -192.582 136.982 -183.346C127.776 -174.11 112.827 -174.087 103.593 -183.295L88.8065 -198.041C79.5723 -207.249 64.6236 -207.226 55.4167 -197.99C46.2108 -188.753 31.2621 -188.731 22.0279 -197.939L-48.4581 -268.225C-57.6923 -277.433 -72.641 -277.41 -81.847 -268.174C-91.0529 -258.938 -91.0303 -243.986 -81.7961 -234.777L-42.2423 -195.335C-33.0081 -186.127 -32.9854 -171.176 -42.1914 -161.939C-51.3973 -152.703 -51.3747 -137.751 -42.1405 -128.542L9.43035 -77.1166C18.6646 -67.9086 18.6872 -52.9557 9.48126 -43.7195C0.275313 -34.4833 -14.6743 -34.4607 -23.9085 -43.6686L-44.5472 -64.2496C-53.7815 -73.4575 -68.7302 -73.4349 -77.9361 -64.1987C-87.1421 -54.9625 -102.092 -54.9399 -111.326 -64.1478L-153.387 -106.09C-162.622 -115.298 -177.57 -115.276 -186.777 -106.039C-195.983 -96.8031 -195.96 -81.8511 -186.726 -72.6422L-144.665 -30.6998C-135.431 -21.4918 -135.408 -6.53984 -144.614 2.6964C-153.82 11.9326 -153.797 26.8845 -144.563 36.0934L93.1236 273.109C102.358 282.317 117.306 282.294 126.512 273.058C135.718 263.822 135.696 248.87 126.462 239.661L84.4001 197.718C75.1659 188.51 75.1433 173.559 84.3492 164.321C93.5552 155.085 108.504 155.062 117.738 164.27L159.8 206.213C169.034 215.421 183.982 215.398 193.188 206.162C202.394 196.926 217.343 196.903 226.577 206.111L247.218 226.692C256.452 235.9 271.401 235.877 280.607 226.641C289.813 217.405 289.79 202.453 280.556 193.244L228.985 141.818C219.751 132.61 219.728 117.658 228.934 108.422C238.14 99.1861 238.117 84.2341 228.883 75.0261L189.329 35.5844C180.095 26.3755 180.073 11.4235 189.279 2.1873Z" fill="white"/>
</svg>
