<svg width="415" height="280" viewBox="0 0 415 280" fill="none" xmlns="http://www.w3.org/2000/svg">
<path d="M225.72 277.813C216.514 287.049 201.566 287.071 192.33 277.863L121.845 207.577C112.61 198.369 97.6616 198.392 88.4547 207.628C79.2488 216.864 64.3001 216.887 55.0659 207.679L40.2792 192.933C31.045 183.725 16.0963 183.748 6.88941 192.984C-2.31652 202.221 -2.29394 217.172 6.94031 226.381L244.628 463.397C253.862 472.605 268.811 472.582 278.018 463.346C287.224 454.11 302.172 454.087 311.407 463.295L326.193 478.041C335.427 487.248 350.376 487.226 359.583 477.99C368.789 468.753 383.738 468.731 392.972 477.939L463.458 548.225C472.692 557.433 487.641 557.41 496.847 548.174C506.053 538.938 506.03 523.986 496.796 514.777L457.242 475.335C448.008 466.127 447.985 451.176 457.191 441.939C466.397 432.703 466.374 417.751 457.14 408.542L405.569 357.117C396.335 347.909 396.313 332.956 405.518 323.719C414.724 314.483 429.674 314.461 438.908 323.669L459.547 344.25C468.781 353.457 483.73 353.435 492.936 344.199C502.142 334.962 517.091 334.94 526.326 344.148L568.387 386.09C577.621 395.298 592.57 395.276 601.777 386.039C610.983 376.803 610.96 361.851 601.726 352.642L559.665 310.7C550.43 301.492 550.408 286.54 559.614 277.304C568.82 268.067 568.797 253.116 559.563 243.907L321.876 6.89117C312.642 -2.31678 297.693 -2.2942 288.487 6.94203C279.281 16.1783 279.304 31.1302 288.538 40.3391L330.6 82.2815C339.834 91.4895 339.856 106.441 330.651 115.679C321.445 124.915 306.496 124.937 297.262 115.73L255.2 73.7871C245.966 64.5792 231.017 64.6018 221.811 73.838C212.605 83.0743 197.657 83.0968 188.422 73.8889L167.782 53.3079C158.548 44.1 143.599 44.1226 134.393 53.3588C125.187 62.595 125.21 77.547 134.444 86.7559L186.015 138.181C195.249 147.389 195.272 162.342 186.066 171.578C176.86 180.814 176.882 195.766 186.117 204.974L225.67 244.416C234.905 253.624 234.927 268.576 225.72 277.813Z" fill="white"/>
</svg>
