<svg width="245" height="214" viewBox="0 0 245 214" fill="none" xmlns="http://www.w3.org/2000/svg">
<g opacity="0.2">
<path d="M10.111 208.765C10.111 205.973 7.84754 203.709 5.05548 203.709C2.26341 203.709 -3.33672e-07 205.973 -2.14957e-07 208.765C-9.62412e-08 211.557 2.26342 213.82 5.05548 213.82C7.84754 213.82 10.111 211.557 10.111 208.765Z" fill="#333F4D"/>
<path d="M10.111 168.024C10.111 165.232 7.84754 162.969 5.05548 162.969C2.26341 162.969 -3.33665e-07 165.232 -2.14949e-07 168.024C-9.62333e-08 170.816 2.26342 173.08 5.05548 173.08C7.84754 173.08 10.111 170.816 10.111 168.024Z" fill="#333F4D"/>
<path d="M10.111 127.284C10.111 124.492 7.84754 122.228 5.05548 122.228C2.26341 122.228 -3.33672e-07 124.492 -2.14957e-07 127.284C-9.62412e-08 130.076 2.26342 132.339 5.05548 132.339C7.84754 132.339 10.111 130.076 10.111 127.284Z" fill="#333F4D"/>
<path d="M10.111 86.5433C10.111 83.7512 7.84754 81.4877 5.05548 81.4877C2.26341 81.4877 -3.33665e-07 83.7512 -2.14949e-07 86.5433C-9.62333e-08 89.3353 2.26342 91.5986 5.05548 91.5986C7.84754 91.5986 10.111 89.3353 10.111 86.5433Z" fill="#333F4D"/>
<path d="M10.111 45.8028C10.111 43.0108 7.84754 40.7475 5.05548 40.7475C2.26341 40.7475 -3.33672e-07 43.0108 -2.14957e-07 45.8028C-9.62412e-08 48.5949 2.26342 50.8584 5.05548 50.8584C7.84754 50.8584 10.111 48.5949 10.111 45.8028Z" fill="#333F4D"/>
<path d="M10.111 5.05547C10.111 2.26341 7.84754 -8.1415e-05 5.05548 -8.12895e-05C2.26341 -8.1164e-05 -3.33665e-07 2.26341 -2.14949e-07 5.05547C-9.62333e-08 7.84754 2.26342 10.1108 5.05548 10.1108C7.84754 10.1108 10.111 7.84754 10.111 5.05547Z" fill="#333F4D"/>
<path d="M49.15 208.765C49.15 205.973 46.8866 203.709 44.0945 203.709C41.3025 203.709 39.0391 205.973 39.0391 208.765C39.0391 211.557 41.3025 213.82 44.0945 213.82C46.8866 213.82 49.15 211.557 49.15 208.765Z" fill="#333F4D"/>
<path d="M49.15 168.024C49.15 165.232 46.8866 162.969 44.0945 162.969C41.3025 162.969 39.0391 165.232 39.0391 168.024C39.0391 170.816 41.3025 173.08 44.0945 173.08C46.8866 173.08 49.15 170.816 49.15 168.024Z" fill="#333F4D"/>
<path d="M49.15 127.284C49.15 124.492 46.8866 122.228 44.0945 122.228C41.3025 122.228 39.0391 124.492 39.0391 127.284C39.0391 130.076 41.3025 132.339 44.0945 132.339C46.8866 132.339 49.15 130.076 49.15 127.284Z" fill="#333F4D"/>
<path d="M49.15 86.5433C49.15 83.7512 46.8866 81.4877 44.0945 81.4877C41.3025 81.4877 39.0391 83.7512 39.0391 86.5433C39.0391 89.3353 41.3025 91.5986 44.0945 91.5986C46.8866 91.5986 49.15 89.3353 49.15 86.5433Z" fill="#333F4D"/>
<path d="M49.15 45.8029C49.15 43.0108 46.8866 40.7475 44.0945 40.7475C41.3025 40.7475 39.0391 43.0108 39.0391 45.8029C39.0391 48.5949 41.3025 50.8584 44.0945 50.8584C46.8866 50.8584 49.15 48.5949 49.15 45.8029Z" fill="#333F4D"/>
<path d="M49.15 5.06231C49.15 2.27025 46.8866 0.00676692 44.0945 0.00676705C41.3025 0.00676717 39.0391 2.27025 39.0391 5.06231C39.0391 7.85438 41.3025 10.1177 44.0945 10.1177C46.8866 10.1177 49.15 7.85438 49.15 5.06231Z" fill="#333F4D"/>
<path d="M88.1891 208.765C88.1891 205.973 85.9256 203.709 83.1336 203.709C80.3415 203.709 78.0781 205.973 78.0781 208.765C78.0781 211.557 80.3415 213.82 83.1336 213.82C85.9256 213.82 88.1891 211.557 88.1891 208.765Z" fill="#333F4D"/>
<path d="M88.1891 168.024C88.1891 165.232 85.9256 162.969 83.1336 162.969C80.3415 162.969 78.0781 165.232 78.0781 168.024C78.0781 170.816 80.3415 173.08 83.1336 173.08C85.9256 173.08 88.1891 170.816 88.1891 168.024Z" fill="#333F4D"/>
<path d="M88.1891 127.284C88.1891 124.492 85.9256 122.228 83.1336 122.228C80.3415 122.228 78.0781 124.492 78.0781 127.284C78.0781 130.076 80.3415 132.339 83.1336 132.339C85.9256 132.339 88.1891 130.076 88.1891 127.284Z" fill="#333F4D"/>
<path d="M88.1891 86.5433C88.1891 83.7512 85.9256 81.4877 83.1336 81.4877C80.3415 81.4877 78.0781 83.7512 78.0781 86.5433C78.0781 89.3353 80.3415 91.5986 83.1336 91.5986C85.9256 91.5986 88.1891 89.3353 88.1891 86.5433Z" fill="#333F4D"/>
<path d="M88.1891 45.8029C88.1891 43.0108 85.9256 40.7475 83.1336 40.7475C80.3415 40.7475 78.0781 43.0108 78.0781 45.8029C78.0781 48.5949 80.3415 50.8584 83.1336 50.8584C85.9256 50.8584 88.1891 48.5949 88.1891 45.8029Z" fill="#333F4D"/>
<path d="M88.1891 5.06233C88.1891 2.27027 85.9256 0.0067879 83.1336 0.00678803C80.3415 0.00678815 78.0781 2.27027 78.0781 5.06233C78.0781 7.85438 80.3415 10.1177 83.1336 10.1177C85.9256 10.1177 88.1891 7.85438 88.1891 5.06233Z" fill="#333F4D"/>
<path d="M127.228 208.765C127.228 205.973 124.965 203.709 122.173 203.709C119.381 203.709 117.117 205.973 117.117 208.765C117.117 211.557 119.381 213.82 122.173 213.82C124.965 213.82 127.228 211.557 127.228 208.765Z" fill="#333F4D"/>
<path d="M127.228 168.024C127.228 165.232 124.965 162.969 122.173 162.969C119.381 162.969 117.117 165.232 117.117 168.024C117.117 170.816 119.381 173.08 122.173 173.08C124.965 173.08 127.228 170.816 127.228 168.024Z" fill="#333F4D"/>
<path d="M127.228 127.284C127.228 124.492 124.965 122.228 122.173 122.228C119.381 122.228 117.117 124.492 117.117 127.284C117.117 130.076 119.381 132.339 122.173 132.339C124.965 132.339 127.228 130.076 127.228 127.284Z" fill="#333F4D"/>
<path d="M127.228 86.5433C127.228 83.7512 124.965 81.4877 122.173 81.4877C119.381 81.4877 117.117 83.7512 117.117 86.5433C117.117 89.3353 119.381 91.5986 122.173 91.5986C124.965 91.5986 127.228 89.3353 127.228 86.5433Z" fill="#333F4D"/>
<path d="M127.228 45.8028C127.228 43.0108 124.965 40.7475 122.173 40.7475C119.381 40.7475 117.117 43.0108 117.117 45.8028C117.117 48.5949 119.381 50.8584 122.173 50.8584C124.965 50.8584 127.228 48.5949 127.228 45.8028Z" fill="#333F4D"/>
<path d="M127.228 5.06231C127.228 2.27024 124.965 0.00674975 122.173 0.00674988C119.381 0.00675001 117.117 2.27024 117.117 5.06231C117.117 7.85437 119.381 10.1177 122.173 10.1177C124.965 10.1177 127.228 7.85437 127.228 5.06231Z" fill="#333F4D"/>
<path d="M166.267 208.765C166.267 205.973 164.004 203.709 161.212 203.709C158.42 203.709 156.156 205.973 156.156 208.765C156.156 211.557 158.42 213.82 161.212 213.82C164.004 213.82 166.267 211.557 166.267 208.765Z" fill="#333F4D"/>
<path d="M166.267 168.024C166.267 165.232 164.004 162.969 161.212 162.969C158.42 162.969 156.156 165.232 156.156 168.024C156.156 170.816 158.42 173.08 161.212 173.08C164.004 173.08 166.267 170.816 166.267 168.024Z" fill="#333F4D"/>
<path d="M166.267 127.284C166.267 124.492 164.004 122.228 161.212 122.228C158.42 122.228 156.156 124.492 156.156 127.284C156.156 130.076 158.42 132.339 161.212 132.339C164.004 132.339 166.267 130.076 166.267 127.284Z" fill="#333F4D"/>
<path d="M166.267 86.5433C166.267 83.7512 164.004 81.4877 161.212 81.4877C158.42 81.4877 156.156 83.7512 156.156 86.5433C156.156 89.3353 158.42 91.5986 161.212 91.5986C164.004 91.5986 166.267 89.3353 166.267 86.5433Z" fill="#333F4D"/>
<path d="M166.267 45.8029C166.267 43.0108 164.004 40.7475 161.212 40.7475C158.42 40.7475 156.156 43.0108 156.156 45.8029C156.156 48.5949 158.42 50.8584 161.212 50.8584C164.004 50.8584 166.267 48.5949 166.267 45.8029Z" fill="#333F4D"/>
<path d="M166.267 5.06232C166.267 2.27026 164.004 0.00677169 161.212 0.00677181C158.42 0.00677194 156.156 2.27026 156.156 5.06232C156.156 7.85438 158.42 10.1177 161.212 10.1177C164.004 10.1177 166.267 7.85438 166.267 5.06232Z" fill="#333F4D"/>
<path d="M205.306 208.765C205.306 205.973 203.043 203.709 200.251 203.709C197.459 203.709 195.195 205.973 195.195 208.765C195.195 211.557 197.459 213.82 200.251 213.82C203.043 213.82 205.306 211.557 205.306 208.765Z" fill="#333F4D"/>
<path d="M205.306 168.024C205.306 165.232 203.043 162.969 200.251 162.969C197.459 162.969 195.195 165.232 195.195 168.024C195.195 170.816 197.459 173.08 200.251 173.08C203.043 173.08 205.306 170.816 205.306 168.024Z" fill="#333F4D"/>
<path d="M205.306 127.284C205.306 124.492 203.043 122.228 200.251 122.228C197.459 122.228 195.195 124.492 195.195 127.284C195.195 130.076 197.459 132.339 200.251 132.339C203.043 132.339 205.306 130.076 205.306 127.284Z" fill="#333F4D"/>
<path d="M205.306 86.5433C205.306 83.7512 203.043 81.4877 200.251 81.4877C197.459 81.4877 195.195 83.7512 195.195 86.5433C195.195 89.3353 197.459 91.5986 200.251 91.5986C203.043 91.5986 205.306 89.3353 205.306 86.5433Z" fill="#333F4D"/>
<path d="M205.306 45.8029C205.306 43.0108 203.043 40.7475 200.251 40.7475C197.459 40.7475 195.195 43.0108 195.195 45.8029C195.195 48.5949 197.459 50.8584 200.251 50.8584C203.043 50.8584 205.306 48.5949 205.306 45.8029Z" fill="#333F4D"/>
<path d="M205.306 5.06233C205.306 2.27027 203.043 0.0067879 200.251 0.00678803C197.459 0.00678815 195.195 2.27027 195.195 5.06233C195.195 7.85438 197.459 10.1177 200.251 10.1177C203.043 10.1177 205.306 7.85438 205.306 5.06233Z" fill="#333F4D"/>
<path d="M244.343 208.765C244.343 205.973 242.08 203.709 239.288 203.709C236.496 203.709 234.232 205.973 234.232 208.765C234.232 211.557 236.496 213.82 239.288 213.82C242.08 213.82 244.343 211.557 244.343 208.765Z" fill="#333F4D"/>
<path d="M244.343 168.024C244.343 165.232 242.08 162.969 239.288 162.969C236.496 162.969 234.232 165.232 234.232 168.024C234.232 170.816 236.496 173.08 239.288 173.08C242.08 173.08 244.343 170.816 244.343 168.024Z" fill="#333F4D"/>
<path d="M244.343 127.284C244.343 124.492 242.08 122.228 239.288 122.228C236.496 122.228 234.232 124.492 234.232 127.284C234.232 130.076 236.496 132.339 239.288 132.339C242.08 132.339 244.343 130.076 244.343 127.284Z" fill="#333F4D"/>
<path d="M244.343 86.5433C244.343 83.7512 242.08 81.4877 239.288 81.4877C236.496 81.4877 234.232 83.7512 234.232 86.5433C234.232 89.3353 236.496 91.5986 239.288 91.5986C242.08 91.5986 244.343 89.3353 244.343 86.5433Z" fill="#333F4D"/>
<path d="M244.343 45.8028C244.343 43.0108 242.08 40.7475 239.288 40.7475C236.496 40.7475 234.232 43.0108 234.232 45.8028C234.232 48.5949 236.496 50.8584 239.288 50.8584C242.08 50.8584 244.343 48.5949 244.343 45.8028Z" fill="#333F4D"/>
<path d="M244.343 5.06231C244.343 2.27024 242.08 0.00674975 239.288 0.00674988C236.496 0.00675001 234.232 2.27024 234.232 5.06231C234.232 7.85437 236.496 10.1177 239.288 10.1177C242.08 10.1177 244.343 7.85437 244.343 5.06231Z" fill="#333F4D"/>
</g>
</svg>
