<svg width="146" height="146" viewBox="0 0 146 146" fill="none" xmlns="http://www.w3.org/2000/svg">
<g clip-path="url(#clip0_6041_21391)">
<path d="M116.476 98.837C113.258 98.837 110.11 99.4816 107.196 100.723L99.4259 89.2812L83.9375 111.397L93.1587 125.217C93.8765 130.597 96.4631 135.547 100.519 139.259C115.247 152.98 140.139 142.287 140.003 122.138C140.004 109.29 129.45 98.837 116.476 98.837ZM108.156 109.828L108.13 109.845L108.129 109.844C108.138 109.838 108.147 109.834 108.156 109.828ZM116.476 136.928C108.78 136.928 102.253 131.06 101.536 123.539C101.619 114.361 107.863 110.027 108.159 109.827C117.889 103.287 131.592 110.421 131.492 122.139C131.492 130.294 124.756 136.928 116.476 136.928Z" fill="#B8E451"/>
<path d="M127.928 2.2526L126.191 0.899176C125.274 0.184725 124.105 -0.123982 122.955 0.0459771C121.805 0.215368 120.775 0.84782 120.103 1.79635L69.0072 73.929L62.8963 65.8765L69.2194 60.6293C71.1375 59.2705 71.5912 56.6145 70.2326 54.6961C68.8738 52.7778 66.2177 52.3243 64.2994 53.6829L58.0044 58.9099L53.8922 53.0538L60.293 47.7519C62.2111 46.3934 62.6648 43.737 61.3062 41.8187C59.9474 39.9006 57.2914 39.4469 55.373 40.8055L49.0003 46.0875L44.8881 40.2315L51.3663 34.8745C53.2844 33.5157 53.7381 30.8596 52.3796 28.9412C51.0208 27.0232 48.3647 26.5695 46.4463 27.928L39.9961 33.2651L35.8595 27.3744L42.3665 21.9973C44.2845 20.6385 44.7382 17.9824 43.3797 16.0641C42.0209 14.1457 39.3651 13.6926 37.4465 15.0509L31.1353 20.2895C29.2368 15.977 30.4495 10.6365 34.3296 7.61383C36.1838 6.16932 36.5161 3.49481 35.0713 1.64058C33.6265 -0.213926 30.9523 -0.545616 29.0981 0.898892C21.0339 7.18255 19.3474 18.7817 25.2435 27.0683L63.6772 81.454L50.1653 100.529C33.5539 93.7106 15.1841 108.025 18.1222 125.738C11.4323 127.744 6.54688 133.91 6.54688 141.188C6.54688 143.538 8.45246 145.444 10.8029 145.444C13.1534 145.444 15.059 143.538 15.059 141.188C15.059 137.601 17.5942 134.586 20.9968 133.776C32.4552 153.503 63.247 146.619 64.845 123.646L131.87 28.1232C137.656 19.8279 135.945 8.49824 127.928 2.2526ZM41.3683 136.932C33.0888 136.932 26.3532 130.297 26.3532 122.142C26.2036 110.703 39.5399 103.459 49.2346 109.547C49.8407 109.977 56.3746 114.8 56.3808 122.223C56.3372 130.334 49.6046 136.932 41.3683 136.932Z" fill="#B8E451"/>
</g>
<defs>
<clipPath id="clip0_6041_21391">
<rect width="145.444" height="145.444" fill="white" transform="translate(0.554688)"/>
</clipPath>
</defs>
</svg>
