<svg width="545" height="410" viewBox="0 0 545 410" fill="none" xmlns="http://www.w3.org/2000/svg">
<path d="M544.422 408.633C534.675 398.499 525.045 385.048 536.301 360.492C547.123 336.885 532.788 304.37 493.784 300.571C476.623 298.9 484.387 329.494 499.337 311.48C512.686 295.394 503.027 269.334 489.705 256.697C474.346 242.128 450.75 239.123 423.455 233.509C404.029 229.514 386.777 214.801 386.158 197.212C385.531 179.377 396.805 162.704 410.277 160.806C423.75 158.908 431.27 168.576 424.392 176.981C417.514 185.387 404.455 184.748 399.56 180.236C394.474 175.549 392.13 166.081 399.802 160.459C407.473 154.837 412.437 152.865 413.745 148.782C414.191 147.386 418.468 147.833 419.378 148.508C420.699 149.489 418.724 154.232 421.89 156.11C429.498 160.622 431.983 167.833 428.348 175.24C424.943 182.175 417.867 185.367 411.98 186.093C405.843 186.849 399.612 184.752 396.481 180.545C392.428 175.097 391.082 167.066 383.725 163.947C366.129 156.488 346.245 160.843 344.107 160.908C341.969 160.974 353.004 158.843 354.371 150.932C354.744 148.773 371.185 160.439 391.239 161.216C400.338 161.568 393.608 159.884 387.433 159.319C381.259 158.754 369.775 155.025 365.698 152.07C361.62 149.116 353.916 147.37 353.654 148.017C352.127 151.787 350.967 154.317 349.442 155.312C347.326 156.693 323.24 173.413 305.365 183.195C291.537 190.763 260.015 205.618 257.386 204.325C254.757 203.033 302.409 168.437 305.052 166.588C307.695 164.738 242.205 172.157 240.251 171.254C238.297 170.351 275.132 156.439 293.416 152.444C313.715 148.008 327.111 147.219 330.546 146.727C333.98 146.235 305.183 163.061 307.092 164.615C307.476 164.928 319.78 157.436 332.645 149.24C345.054 141.334 358.057 132.735 359.87 128.479C363.563 119.81 374.962 123.147 381.712 113.71C384.825 109.357 381.591 97.289 388.839 90.9721C398.734 82.3473 406.724 84.6577 417.051 88.3582C428.694 92.53 427.843 73.7365 426.277 68.4816C425.005 64.2147 430.024 65.1948 431.496 73.6454C432.614 80.062 431.223 92.2647 418.324 106.42C405.426 120.576 387.515 114.961 386.265 108.163C385.014 101.365 391.518 84.6429 408.169 90.8809C424.82 97.119 409.771 116.559 397.675 118.801C385.579 121.044 375.398 121.917 367.177 127.972C358.956 134.026 356.771 140.929 356.388 143.151C356.388 143.151 392.713 105.589 352.912 69.2515C304.892 25.4096 245.078 82.7608 207.897 66.2542C197.156 61.4858 190.17 50.3877 196.483 38.6994C201.828 28.802 214.225 35.1219 212.268 44.6151C209.492 58.0853 200.384 64.1076 190.27 65.8422C172.323 68.9198 157.716 56.152 150.773 32.325C140.596 -2.60052 104.608 -5.75426 93.6697 8.60913C87.1065 17.2273 91.0191 34.7018 96.666 34.3543C117.415 33.0778 79.6075 -10.269 57.268 33.6421C50.5152 46.9156 47.019 56.7955 42.8862 64.2488C33.41 81.3392 18.6038 84.0129 1.37225 77.6349" stroke="#010003" stroke-width="0.85217" stroke-miterlimit="10" stroke-linecap="round" stroke-linejoin="round"/>
</svg>
