<svg width="430" height="243" viewBox="0 0 430 243" fill="none" xmlns="http://www.w3.org/2000/svg">
<path d="M207.97 119.08C203.772 119.085 203.149 118.397 197.279 119.08C191.41 119.763 167.712 124.718 167.712 124.718C167.712 124.718 153.771 121.768 141.913 123.849C130.054 125.929 112.456 130.477 103.197 133.07C93.9382 135.663 75.8598 139.706 75.0093 142.193C79.5222 143.08 81.8746 145.056 83.8506 150.325C85.8266 155.595 87.9469 166.93 87.9469 166.93C87.9469 166.93 111.716 174.526 122.224 176.963C132.732 179.4 132.323 180.346 141.49 180.346C150.656 180.346 155.906 181.569 160.254 181.87C164.602 182.171 167.734 181.376 171.686 185.116C175.638 188.856 184.814 194.474 187.424 197.522H229.939C229.939 197.522 248.317 200.176 259.047 198.962C269.778 197.748 285.703 194.321 285.703 194.321L340.818 163.686C340.818 163.686 351.089 145.519 371.499 145.519C366.232 141.9 353.224 137.339 342.016 134.423C330.809 131.507 320.409 127.894 313.535 127.064C306.661 126.234 301.393 126.191 298.711 128.073C294.46 126.5 272.692 120.191 262.378 120.191L207.97 119.08Z" fill="black"/>
<path d="M190.929 57.3614C190.894 47.1957 190.75 32.0878 194 24.8804C197.25 17.6733 200.447 9.65375 217.259 4.25628C234.07 -1.14119 245.891 1.10339 251.261 3.74117C256.632 6.37894 265.019 11.3433 267.587 20.6768C271.93 23.7903 275.364 25.733 275.778 36.0297C276.191 46.3263 276.213 54.5676 276.213 54.5676C276.213 54.5676 275.377 53.5597 273.213 53.5597C271.049 53.5597 267.957 64.3435 267.957 64.3435H195.912L190.929 57.3614Z" fill="#5E758F"/>
<path d="M222.285 34.2091C219.096 33.7414 211.466 30.8771 206.94 29.1045C205.024 28.3543 202.873 29.3962 202.305 31.3485C201.165 35.2694 199.451 41.4767 198.774 45.5461C197.721 51.8822 196.48 61.3706 196.48 61.3706C194.411 58.6588 192.492 55.3356 190.705 55.5672C188.917 55.7988 189.201 66.0318 189.545 68.5601C189.89 71.0885 191.115 79.247 196.48 79.6612C197.125 83.5299 199.905 94.2956 202.691 100.042C205.478 105.788 207.255 107.691 207.255 107.691L208.045 118.987C208.045 118.987 201.81 122.562 201.81 128.472C201.81 132.645 202.48 158.556 228.508 158.556C254.536 158.556 264.646 142.612 264.946 134.825C265.245 127.037 265.434 123.097 262.38 120.088C262.38 115.829 262.158 98.5588 262.158 98.5588C262.158 98.5588 266.298 87.155 267.848 78.4072C270.148 79.2949 276.473 79.9405 277.29 69.5084C278.107 59.0762 277.613 53.3109 273.802 53.3109C269.991 53.3109 267.958 66.3241 267.958 66.3241C267.958 66.3241 267.801 61.3355 265.156 54.9051C262.511 48.4748 259.557 43.0598 258.349 37.7081C257.141 32.3564 255.77 24.8799 255.77 24.8799C255.77 24.8799 249.303 28.2755 241.336 30.5917C233.258 32.9399 223.67 34.2091 222.285 34.2091Z" fill="white"/>
<path d="M76.2773 142.031C71.8043 142.579 44.3727 146.414 37.7083 148.191C31.044 149.968 2.59041 154.923 1.25594 171.208C-0.078518 187.492 25.1802 195.415 37.509 197.937C49.8378 200.458 68.0623 202.833 80.6528 204.511C93.2433 206.188 113.651 209.263 117.264 209.263C120.878 209.263 124.728 212.717 127.239 215.228C129.749 217.739 135.56 224.479 141.597 228.028C147.634 231.576 160.562 238.936 164.129 239.891C167.695 240.847 173.189 241.602 172.768 235.647C176.254 237.293 180.809 238.825 181.639 236.235C182.469 233.645 183.36 230.802 181.305 228.748C184.656 230.21 188.827 231.532 190.772 228.354C192.717 225.176 189.283 218.73 189.283 218.73C189.283 218.73 207.797 231.169 209.635 232.007C211.472 232.845 215.362 234.581 216.813 231.525C218.263 228.469 214.412 224.979 212.778 223.345C211.143 221.711 191.227 204.51 191.227 204.51C191.227 204.51 188.165 197.443 184.476 194.846C180.788 192.249 176.472 188.836 172.221 185.829C167.969 182.822 165.901 181.869 160.255 181.869C154.61 181.869 136.615 180.345 136.615 180.345C136.615 180.345 113.774 175.165 103.047 171.966C92.3206 168.767 87.9486 166.93 87.9486 166.93C87.9486 166.93 85.9214 146.439 76.2773 142.031Z" fill="white"/>
<path d="M371.501 145.519C375.535 145.931 391.614 148.865 400.691 152.494C409.767 156.124 419.405 161.158 423.489 166.938C427.572 172.719 428.354 178.943 428.354 184.864C427.524 190.219 426.281 194.207 422.674 195.645C419.068 197.083 413.221 199.385 402.009 200.011C390.797 200.636 370.128 200.368 361.096 200.368C352.063 200.368 322.834 197.965 317.127 197.449C311.419 196.933 285.705 194.32 285.705 194.32C285.705 194.32 269.08 199.187 252.704 199.187C236.329 199.187 225.148 196.343 225.148 196.343C225.148 196.343 209.94 197.39 207.045 197.39C204.15 197.39 190.442 197.341 191.721 193.639C197.657 192.619 200.668 191.609 200.668 191.609C200.668 191.609 205.89 186.071 211.442 182.851C216.995 179.631 226.933 174.473 233.49 174.473C240.046 174.473 245.961 177.188 250.108 177.188C254.254 177.188 265.922 175.918 283.799 173.377C301.677 170.837 340.819 163.686 340.819 163.686C340.819 163.686 351.373 144.57 371.501 145.519Z" fill="white"/>
<path d="M223.215 35.4038C221.856 35.4038 220.453 35.2816 219.028 35.034C214.662 34.2759 210.57 32.5229 206.613 30.828C204.363 29.8644 202.239 28.9543 200.059 28.2086C199.433 27.9943 199.099 27.3134 199.313 26.6876C199.528 26.0617 200.207 25.7274 200.835 25.9419C203.1 26.7168 205.365 27.6874 207.556 28.626C211.387 30.2669 215.347 31.9634 219.438 32.6739C223.859 33.4413 227.986 32.8823 231.056 31.099C234.549 29.0701 236.644 25.244 236.15 21.7951C236.056 21.1402 236.51 20.5333 237.165 20.4393C237.821 20.3464 238.428 20.8003 238.521 21.4551C239.151 25.8458 236.576 30.6635 232.26 33.1703C229.722 34.6445 226.602 35.4038 223.215 35.4038Z" fill="#3C3959"/>
<path d="M231.407 33.595C230.797 33.595 230.275 33.1308 230.216 32.5108C230.153 31.8522 230.636 31.2674 231.295 31.2046L231.948 31.1426C235.48 30.8087 239.132 30.4635 242.394 29.2134C245.473 28.0333 247.857 26.1138 249.105 23.8085C250.486 21.2575 250.356 18.0796 248.789 16.0804C248.381 15.5597 248.472 14.8069 248.993 14.3988C249.514 13.9907 250.266 14.0815 250.675 14.6027C252.847 17.3736 253.062 21.5317 251.211 24.9497C249.691 27.7573 246.864 30.0663 243.251 31.4508C239.684 32.818 235.866 33.179 232.174 33.528L231.522 33.5897C231.484 33.5935 231.445 33.595 231.407 33.595Z" fill="#3C3959"/>
<path d="M190.704 56.7655C190.701 56.7655 190.699 56.7655 190.697 56.7655C190.035 56.7617 189.502 56.2224 189.505 55.5609C189.555 46.8269 189.979 40.1703 190.882 33.9769C191.942 26.7083 193.626 18.4321 200.241 12.2057C201.988 10.5619 204.033 9.0608 206.321 7.74364C212.647 4.10176 220.53 1.52921 228.518 0.499812C237.243 -0.624085 245.377 0.155612 252.041 2.75639C260.371 6.00722 266.142 12.0798 268.729 20.3179C268.927 20.949 268.576 21.6215 267.945 21.8198C267.313 22.0181 266.641 21.667 266.443 21.0358C264.048 13.4076 258.909 8.00853 251.17 4.98822C237.374 -0.396212 218.766 3.34362 207.516 9.82C205.39 11.0443 203.494 12.4338 201.883 13.9504C195.829 19.6489 194.3 27.139 193.253 34.3224C192.367 40.4016 191.95 46.9557 191.901 55.5745C191.898 56.2336 191.362 56.7655 190.704 56.7655Z" fill="#3C3959"/>
<path d="M276.02 54.3733C276.006 54.3733 275.992 54.373 275.978 54.3725C275.317 54.3496 274.799 53.7951 274.822 53.1339C275.049 46.6072 275.359 37.6682 273.647 30.539C273.134 28.402 272.197 25.3519 269.992 23.5414C267.948 21.8623 264.784 21.3557 261.932 22.2498C259.337 23.0631 256.912 24.9699 255.102 27.6194C254.729 28.1656 253.983 28.3059 253.437 27.933C252.89 27.5597 252.75 26.8144 253.123 26.2681C255.236 23.1759 258.109 20.9372 261.216 19.9637C264.875 18.8167 268.821 19.4787 271.513 21.69C274.274 23.9578 275.382 27.507 275.976 29.9795C277.765 37.4254 277.448 46.5526 277.216 53.2169C277.194 53.8641 276.662 54.3733 276.02 54.3733Z" fill="#3C3959"/>
<path d="M196.48 63.4382C196.443 63.4382 196.407 63.4366 196.369 63.4331C195.71 63.373 195.225 62.79 195.285 62.1314C196.278 51.2579 199.397 38.7274 202.004 29.0257C202.176 28.3868 202.832 28.0075 203.472 28.1797C204.11 28.3514 204.489 29.0084 204.318 29.6473C201.736 39.2566 198.647 51.6575 197.671 62.3492C197.615 62.9707 197.092 63.4382 196.48 63.4382Z" fill="#3C3959"/>
<path d="M267.956 68.1211C267.321 68.1211 266.791 67.6222 266.76 66.9809C266.456 60.6829 263.84 54.6008 261.311 48.7191C258.676 42.593 255.951 36.2582 255.665 29.4693C255.637 28.8084 256.15 28.2499 256.811 28.2219C257.477 28.1993 258.03 28.7075 258.059 29.3682C258.326 35.7168 260.962 41.8455 263.512 47.7725C266.125 53.8501 268.829 60.1343 269.154 66.8654C269.185 67.5261 268.675 68.0878 268.015 68.1195C267.995 68.1208 267.976 68.1211 267.956 68.1211Z" fill="#3C3959"/>
<path d="M195.839 80.075C194.515 80.075 193.16 79.4486 192.116 78.3551C191.17 77.3638 190.601 76.1517 190.211 75.2062C188.292 70.5554 187.763 65.1231 188.547 58.1106C188.632 57.3498 188.79 55.9336 189.858 55.0458C190.943 54.1431 192.665 54.1487 193.952 55.0594C195.003 55.8037 195.588 56.938 195.981 57.8428C196.063 58.0339 196.143 58.2274 196.223 58.4207C196.489 59.0636 196.74 59.6705 197.094 60.1576C197.482 60.6932 197.363 61.4423 196.827 61.8307C196.291 62.2196 195.542 62.0998 195.154 61.5645C194.635 60.8479 194.317 60.0794 194.01 59.3361C193.935 59.1554 193.86 58.9747 193.783 58.7958C193.514 58.1771 193.134 57.4161 192.568 57.0149C192.185 56.7439 191.634 56.6837 191.39 56.8879C191.104 57.1259 190.999 57.744 190.928 58.3768C190.191 64.9724 190.667 70.0297 192.426 74.2926C192.736 75.0444 193.179 75.9979 193.85 76.7015C194.443 77.3233 195.168 77.6795 195.839 77.6795C195.843 77.6795 195.848 77.6797 195.851 77.6795C196.511 77.6795 197.046 78.2127 197.049 78.8726C197.051 79.5341 196.517 80.0726 195.856 80.0753C195.85 80.075 195.844 80.075 195.839 80.075Z" fill="#3C3959"/>
<path d="M270.684 79.3585C269.782 79.3585 268.893 79.1118 268.082 78.619C267.517 78.2754 267.337 77.5385 267.681 76.9731C268.025 76.4082 268.762 76.2286 269.327 76.572C270.17 77.0841 271.148 77.09 272.083 76.589C274.494 75.2958 276.066 71.192 276.29 65.6112C276.337 64.434 276.317 61.5024 276.063 58.6479C275.669 54.2197 275.005 53.199 274.858 53.0233C274.351 52.8743 273.922 52.9331 273.479 53.2124C271.63 54.3778 269.978 59.097 269.169 65.5284C269.156 65.6295 269.147 65.6995 269.142 65.7349C269.047 66.3893 268.441 66.8421 267.784 66.7462C267.129 66.6504 266.676 66.0419 266.772 65.3873C266.776 65.3601 266.782 65.3064 266.792 65.2292C267.335 60.9154 268.759 53.3548 272.202 51.1852C273.271 50.5123 274.479 50.3707 275.695 50.7756C276.718 51.116 277.84 52.2343 278.404 57.9502C278.709 61.0509 278.738 64.3536 278.683 65.707C278.422 72.2406 276.429 76.9763 273.215 78.7002C272.397 79.1395 271.535 79.3585 270.684 79.3585Z" fill="#3C3959"/>
<path d="M230.068 87.4719C229.78 87.4719 229.49 87.368 229.26 87.158C228.499 86.4616 227.635 85.6721 226.976 84.6459C226.18 83.4088 225.833 82.0206 225.997 80.7375C226.133 79.6799 226.597 78.7836 227.006 77.9927C227.104 77.8029 227.203 77.6137 227.296 77.4231C228.458 75.035 228.809 72.155 228.258 69.5209C228.122 68.8732 228.538 68.2386 229.185 68.1031C229.832 67.9681 230.467 68.3829 230.603 69.0306C231.26 72.1741 230.84 75.615 229.449 78.4713C229.348 78.6795 229.241 78.8866 229.134 79.0937C228.785 79.768 228.455 80.405 228.374 81.042C228.282 81.7563 228.507 82.5977 228.991 83.3508C229.481 84.114 230.191 84.7625 230.877 85.3894C231.365 85.8358 231.399 86.5931 230.952 87.0816C230.717 87.3406 230.393 87.4719 230.068 87.4719Z" fill="#3C3959"/>
<path d="M240.222 61.0963C239.79 61.0963 239.373 60.862 239.159 60.4526C238.853 59.8662 239.08 59.1426 239.666 58.8362C243.478 56.8453 248.044 56.7351 251.878 58.5408C252.477 58.8227 252.734 59.5364 252.452 60.135C252.169 60.7335 251.456 60.9898 250.858 60.7084C247.697 59.2198 243.928 59.3138 240.775 60.96C240.598 61.0524 240.409 61.0963 240.222 61.0963Z" fill="#3C3959"/>
<path d="M207.509 61.1016C207.082 61.1016 206.668 60.8721 206.452 60.4691C206.14 59.8859 206.359 59.1599 206.943 58.8474C210.672 56.8498 215.228 56.7298 219.129 58.5264C219.73 58.8032 219.992 59.5145 219.715 60.1156C219.439 60.7164 218.727 60.9789 218.126 60.7026C214.904 59.2177 211.145 59.3141 208.074 60.9592C207.894 61.0558 207.7 61.1016 207.509 61.1016Z" fill="#3C3959"/>
<path d="M215.138 70.8535C216.427 70.8535 217.471 69.6585 217.471 68.1843C217.471 66.7102 216.427 65.5151 215.138 65.5151C213.849 65.5151 212.805 66.7102 212.805 68.1843C212.805 69.6585 213.849 70.8535 215.138 70.8535Z" fill="#3C3959"/>
<path d="M245.827 70.8535C247.116 70.8535 248.161 69.6585 248.161 68.1843C248.161 66.7102 247.116 65.5151 245.827 65.5151C244.539 65.5151 243.494 66.7102 243.494 68.1843C243.494 69.6585 244.539 70.8535 245.827 70.8535Z" fill="#3C3959"/>
<path d="M232.338 123.587C223.928 123.587 215.76 119.348 209.263 111.591C201.938 102.844 196.912 89.9215 194.728 74.2191C194.637 73.564 195.095 72.9589 195.75 72.8676C196.407 72.7777 197.01 73.2337 197.101 73.889C199.223 89.1455 204.064 101.651 211.1 110.053C217.132 117.255 224.652 121.191 232.341 121.191C232.556 121.191 232.77 121.188 232.985 121.182C240.964 120.954 248.621 116.532 254.545 108.73C261.187 99.9825 265.334 87.5342 266.536 72.7316C266.59 72.0722 267.168 71.583 267.828 71.6346C268.487 71.6881 268.978 72.2663 268.925 72.9257C267.685 88.1848 263.373 101.067 256.453 110.179C250.082 118.57 241.772 123.328 233.054 123.577C232.815 123.584 232.576 123.587 232.338 123.587Z" fill="#3C3959"/>
<path d="M262.2 126.549C262.193 126.549 262.185 126.549 262.178 126.549C261.517 126.537 260.99 125.991 261.002 125.33C261.062 121.91 261.164 116.418 261.265 110.946C261.365 105.585 261.464 100.245 261.523 96.8937C261.535 96.2394 262.069 95.7168 262.721 95.7168C262.728 95.7168 262.735 95.7168 262.742 95.7171C263.404 95.7288 263.93 96.2745 263.919 96.9357C263.86 100.287 263.76 105.629 263.661 110.99C263.559 116.461 263.457 121.953 263.397 125.372C263.385 126.027 262.852 126.549 262.2 126.549Z" fill="#3C3959"/>
<path d="M208.131 125.718C208.114 125.718 208.097 125.718 208.079 125.717C207.418 125.689 206.905 125.13 206.933 124.469C207.039 121.994 206.333 109.757 206.062 107.054C205.996 106.396 206.476 105.809 207.135 105.743C207.791 105.675 208.38 106.156 208.446 106.815C208.705 109.395 209.443 121.853 209.327 124.571C209.299 125.215 208.769 125.718 208.131 125.718Z" fill="#3C3959"/>
<path d="M230.073 159.754C224.758 159.754 219.975 158.685 215.828 156.565C211.679 154.445 208.245 151.331 205.621 147.31C199.951 138.619 199.477 127.701 202.295 122.167C203.504 119.793 205.323 118.427 207.417 118.32C208.074 118.291 208.641 118.795 208.675 119.456C208.708 120.116 208.2 120.679 207.539 120.713C205.999 120.791 204.998 122.138 204.43 123.254C201.975 128.074 202.5 138.142 207.628 146.001C211.269 151.582 218.493 158.073 232.265 157.296C244.734 156.594 255.441 150.657 260.907 141.415C264.829 134.784 265.338 127.343 262.303 120.999C262.017 120.402 262.27 119.687 262.866 119.401C263.463 119.115 264.178 119.368 264.464 119.965C267.85 127.042 267.305 135.304 262.969 142.635C257.096 152.566 245.668 158.941 232.399 159.689C231.613 159.732 230.838 159.754 230.073 159.754Z" fill="#3C3959"/>
<path d="M230.835 102.731C227.813 102.731 224.817 101.814 222.316 100.109C221.77 99.7366 221.629 98.9915 222.001 98.4447C222.374 97.8977 223.12 97.7574 223.666 98.1293C225.961 99.6937 228.752 100.472 231.526 100.316C234.3 100.162 236.988 99.0801 239.095 97.271C239.597 96.84 240.354 96.8976 240.785 97.3993C241.216 97.9014 241.158 98.6577 240.656 99.0886C238.152 101.239 234.957 102.525 231.659 102.708C231.384 102.724 231.109 102.731 230.835 102.731Z" fill="#3C3959"/>
<path d="M298.032 128.827C297.908 128.827 297.782 128.808 297.658 128.767C286.616 125.138 275.158 122.653 263.604 121.381C262.946 121.309 262.472 120.717 262.544 120.059C262.617 119.402 263.212 118.928 263.866 119C275.585 120.29 287.206 122.81 298.406 126.491C299.034 126.697 299.376 127.374 299.17 128.003C299.004 128.507 298.535 128.827 298.032 128.827Z" fill="#3C3959"/>
<path d="M371.499 146.035C371.277 146.035 371.052 145.973 370.852 145.844C363.814 141.319 358.662 139.981 333.907 133.549C329.283 132.348 324.042 130.986 317.97 129.391C313.98 128.343 309.856 127.258 305.737 127.452C303.383 127.563 301.148 128.145 299.272 129.134C298.687 129.444 297.962 129.219 297.654 128.634C297.345 128.049 297.569 127.324 298.154 127.016C300.339 125.863 302.922 125.186 305.624 125.059C310.107 124.848 314.415 125.98 318.58 127.074C324.648 128.668 329.887 130.029 334.51 131.23C359.572 137.741 364.787 139.096 372.148 143.828C372.705 144.186 372.866 144.927 372.508 145.484C372.279 145.84 371.893 146.034 371.499 146.035Z" fill="#3C3959"/>
<path d="M167.712 125.917C167.193 125.917 166.714 125.576 166.562 125.052C166.378 124.416 166.744 123.752 167.38 123.568C180.817 119.679 194.415 117.725 206.709 117.897C207.37 117.906 207.899 118.45 207.889 119.112C207.88 119.768 207.345 120.292 206.692 120.292C206.686 120.292 206.68 120.292 206.674 120.292C194.609 120.112 181.258 122.046 168.046 125.869C167.934 125.902 167.822 125.917 167.712 125.917Z" fill="#3C3959"/>
<path d="M75.3264 143.006C75.0067 143.006 74.6881 142.879 74.4522 142.627C73.9999 142.144 74.0244 141.386 74.5071 140.934C76.1391 139.404 78.351 138.785 80.1287 138.287L111.022 129.635C120.103 127.092 129.494 124.463 139.021 123.035C149.892 121.407 159.365 121.576 167.981 123.551C168.626 123.699 169.029 124.342 168.881 124.987C168.733 125.631 168.092 126.035 167.446 125.886C159.126 123.979 149.944 123.822 139.376 125.405C129.996 126.81 120.679 129.419 111.668 131.943L80.775 140.594C79.1696 141.044 77.3498 141.553 76.1453 142.682C75.9142 142.898 75.62 143.006 75.3264 143.006Z" fill="#3C3959"/>
<path d="M87.9464 167.424C87.3344 167.424 86.8121 166.957 86.7549 166.336C86.12 159.464 83.9459 152.68 80.4672 146.72C79.8717 145.699 79.153 144.551 78.1601 143.846C77.441 143.336 76.5607 143.119 75.8609 143.279C75.2159 143.426 74.5733 143.024 74.4255 142.379C74.2778 141.734 74.6808 141.091 75.3258 140.943C76.6904 140.631 78.2684 140.985 79.5462 141.892C80.9285 142.873 81.8144 144.275 82.5364 145.512C86.1902 151.773 88.4737 158.897 89.1403 166.116C89.2015 166.775 88.7165 167.358 88.0579 167.419C88.0204 167.422 87.9828 167.424 87.9464 167.424Z" fill="#3C3959"/>
<path d="M380.64 201.982C375.608 201.982 370.193 201.884 364.405 201.688C333.047 200.627 299.876 197.052 287.388 195.706L285.577 195.512C284.919 195.441 284.443 194.851 284.513 194.193C284.584 193.535 285.173 193.057 285.832 193.129L287.645 193.324C300.108 194.667 333.216 198.235 364.486 199.293C415.512 201.018 425.02 194.669 426.148 190.73C428.05 184.081 427.382 176.757 424.315 170.635C417.85 157.73 400.402 153.252 385.008 149.301C384.269 149.111 383.535 148.923 382.809 148.736C378.609 147.65 374.138 146.603 369.706 146.727C364.367 146.878 358.814 148.753 353.648 152.149C349.334 154.984 345.211 158.898 341.042 164.113C340.629 164.63 339.876 164.715 339.359 164.301C338.842 163.888 338.758 163.134 339.171 162.618C343.499 157.202 347.804 153.123 352.332 150.147C357.87 146.507 363.855 144.496 369.639 144.332C374.388 144.199 379.043 145.288 383.409 146.416C384.133 146.603 384.866 146.791 385.603 146.98C401.493 151.058 419.503 155.681 426.457 169.562C429.79 176.214 430.517 184.17 428.451 191.389C427.103 196.099 420.019 199.155 406.794 200.73C399.801 201.564 391.041 201.981 380.64 201.982Z" fill="#3C3959"/>
<path d="M250.445 200.424C241.434 200.424 232.707 199.458 224.859 197.506C224.217 197.346 223.826 196.696 223.986 196.054C224.146 195.412 224.798 195.021 225.437 195.181C243.199 199.599 265.605 198.847 285.374 193.169C286.011 192.987 286.674 193.354 286.856 193.99C287.039 194.626 286.671 195.29 286.035 195.472C274.594 198.758 262.275 200.424 250.445 200.424Z" fill="#3C3959"/>
<path d="M203.21 198.588C202.244 198.588 201.317 198.578 200.44 198.556C197.787 198.489 194.486 198.405 191.837 196.629C190.498 195.731 190.278 194.744 190.331 194.073C190.399 193.196 190.998 192.405 191.895 192.007C192.522 191.729 193.144 191.687 193.692 191.651C204.438 190.929 214.972 188.594 225.009 184.712C225.625 184.473 226.32 184.78 226.558 185.397C226.797 186.014 226.49 186.708 225.873 186.946C215.61 190.916 204.84 193.303 193.862 194.04C193.468 194.067 193.105 194.091 192.865 194.197C192.817 194.219 192.778 194.245 192.751 194.268C192.807 194.346 192.932 194.478 193.17 194.639C195.242 196.028 198.157 196.102 200.5 196.161C207.616 196.342 218.171 195.728 225.047 195.15C225.71 195.095 226.285 195.584 226.341 196.243C226.396 196.902 225.907 197.481 225.248 197.537C219.155 198.05 210.189 198.588 203.21 198.588Z" fill="#3C3959"/>
<path d="M207.046 192.29C206.652 192.29 206.267 192.096 206.038 191.741C205.679 191.185 205.84 190.444 206.396 190.085C215.711 184.083 223.514 180.237 230.95 177.981C231.583 177.79 232.252 178.147 232.444 178.78C232.636 179.413 232.279 180.082 231.646 180.274C224.428 182.463 216.817 186.221 207.693 192.099C207.493 192.229 207.268 192.29 207.046 192.29Z" fill="#3C3959"/>
<path d="M199.368 192.752C199.025 192.752 198.683 192.605 198.447 192.32C198.024 191.811 198.094 191.056 198.602 190.633C205.443 184.95 213.618 179.693 220.47 176.573C223.548 175.17 226.731 173.721 230.217 173.159C234.236 172.511 238.386 173.513 242.401 174.482C245.114 175.137 247.677 175.756 250.175 175.897C250.835 175.934 251.34 176.5 251.303 177.16C251.265 177.821 250.71 178.331 250.039 178.289C247.325 178.136 244.536 177.462 241.838 176.811C238.054 175.897 234.141 174.954 230.598 175.524C227.431 176.034 224.397 177.416 221.463 178.753C214.794 181.791 206.82 186.921 200.133 192.476C199.91 192.661 199.638 192.752 199.368 192.752Z" fill="#3C3959"/>
<path d="M250.105 178.29C249.489 178.29 248.966 177.818 248.913 177.194C248.857 176.534 249.346 175.955 250.005 175.899C291.339 172.39 333.874 165.191 369.775 155.628C370.413 155.457 371.071 155.838 371.241 156.477C371.411 157.117 371.031 157.773 370.392 157.943C334.36 167.542 291.677 174.766 250.208 178.286C250.173 178.289 250.139 178.29 250.105 178.29Z" fill="#3C3959"/>
<path d="M168.225 242.065C166.328 242.065 164.505 241.364 162.905 240.68C156.635 237.998 150.617 234.624 144.797 231.361C141.026 229.247 131.618 223.437 125.71 215.173C124.019 212.808 121.514 211.226 118.657 210.718C111.168 209.388 101.202 208.279 90.6504 207.104C57.2654 203.389 15.7167 198.764 3.53881 182.791C0.582125 178.913 -0.530329 174.51 0.231536 169.703C0.764203 166.342 2.70879 163.008 5.7062 160.315C8.48533 157.818 11.8198 156.108 14.7147 154.764C33.6862 145.957 54.6162 143.439 74.8573 141.004C75.5095 140.923 76.1106 141.393 76.1896 142.051C76.2687 142.707 75.8002 143.304 75.1432 143.383C55.0882 145.796 34.3501 148.29 15.7233 156.938C12.9892 158.207 9.85122 159.813 7.30714 162.098C4.71701 164.424 3.04473 167.259 2.59778 170.078C1.93335 174.271 2.86425 177.955 5.444 181.339C10.5391 188.022 21.8528 193.239 40.0319 197.287C55.9531 200.832 74.5275 202.9 90.9156 204.724C101.507 205.903 111.51 207.016 119.076 208.36C122.554 208.977 125.602 210.903 127.659 213.78C131.563 219.242 138.408 225.033 145.968 229.271C151.734 232.504 157.695 235.846 163.847 238.477C165.533 239.198 167.318 239.879 168.992 239.61C170.337 239.392 171.748 238.156 171.55 236.888C171.448 236.234 171.895 235.621 172.549 235.519C173.201 235.418 173.815 235.864 173.917 236.518C174.347 239.274 171.915 241.564 169.374 241.974C168.989 242.036 168.605 242.065 168.225 242.065Z" fill="#3C3959"/>
<path d="M178.32 238.84C178.094 238.84 177.865 238.829 177.635 238.806C176.014 238.643 174.534 237.955 173.177 237.235C170.391 235.757 167.735 234.003 165.283 232.021C164.769 231.605 164.689 230.851 165.105 230.336C165.521 229.822 166.275 229.742 166.789 230.158C169.122 232.043 171.649 233.712 174.3 235.118C175.619 235.818 176.732 236.308 177.874 236.422C178.795 236.515 180.023 236.315 180.712 235.475C181.217 234.859 181.397 233.872 181.182 232.9C180.986 232.012 180.506 231.106 179.673 230.047C178.106 228.053 176.058 226.441 173.751 225.386C173.149 225.111 172.885 224.4 173.16 223.799C173.435 223.197 174.145 222.932 174.748 223.207C177.4 224.421 179.755 226.274 181.557 228.566C182.62 229.918 183.244 231.131 183.521 232.382C183.897 234.081 183.539 235.805 182.564 236.994C181.596 238.174 180.043 238.84 178.32 238.84Z" fill="#3C3959"/>
<path d="M185.695 231.613C183.553 231.613 181.17 230.917 178.963 229.184C178.442 228.775 178.352 228.023 178.76 227.502C179.168 226.982 179.921 226.891 180.442 227.299C183.476 229.682 186.847 229.591 188.84 228.445C190.249 227.635 190.944 226.354 190.746 224.929C190.581 223.749 189.713 222.642 188.912 221.697C186.935 219.365 184.739 217.193 182.384 215.244C181.874 214.822 181.803 214.067 182.225 213.557C182.646 213.048 183.402 212.976 183.912 213.398C186.375 215.438 188.672 217.708 190.74 220.148C191.758 221.349 192.866 222.783 193.118 224.599C193.453 227.006 192.3 229.22 190.034 230.522C188.861 231.197 187.35 231.613 185.695 231.613Z" fill="#3C3959"/>
<path d="M213.738 234.463C213.426 234.463 213.103 234.44 212.774 234.393C210.386 234.055 208.398 232.718 206.643 231.538L187.977 218.986C187.428 218.616 187.283 217.872 187.652 217.323C188.021 216.774 188.766 216.629 189.314 216.997L207.98 229.55C209.521 230.586 211.267 231.76 213.11 232.021C214.057 232.155 214.87 231.988 215.341 231.563C215.834 231.117 216.05 230.268 215.892 229.4C215.633 227.984 214.626 226.764 213.192 225.369C209.029 221.318 189.181 204.783 177.584 196.983C177.035 196.614 176.889 195.87 177.258 195.321C177.628 194.772 178.372 194.627 178.92 194.995C190.841 203.012 210.535 219.441 214.863 223.652C216.388 225.136 217.854 226.808 218.249 228.969C218.557 230.661 218.058 232.335 216.948 233.339C216.134 234.077 215.016 234.463 213.738 234.463Z" fill="#3C3959"/>
<path d="M191.225 205.708C190.659 205.708 190.155 205.304 190.048 204.728C189.471 201.605 187.348 198.599 183.739 195.791C182.312 194.68 180.752 193.657 179.244 192.668C177.438 191.483 175.571 190.257 173.852 188.84C173.266 188.356 172.691 187.845 172.135 187.351C170.389 185.802 168.741 184.339 166.742 183.606C165.139 183.017 163.32 182.922 161.561 182.83L136.966 181.542C136.306 181.507 135.798 180.943 135.833 180.283C135.867 179.622 136.43 179.12 137.092 179.149L161.686 180.437C163.532 180.534 165.625 180.644 167.567 181.356C169.992 182.246 171.89 183.931 173.725 185.56C174.265 186.04 174.824 186.535 175.377 186.992C176.994 188.326 178.806 189.515 180.558 190.664C182.106 191.68 183.707 192.73 185.211 193.9C189.297 197.079 191.717 200.575 192.404 204.292C192.524 204.942 192.095 205.567 191.444 205.688C191.371 205.702 191.297 205.708 191.225 205.708Z" fill="#3C3959"/>
<path d="M137.031 181.544C136.946 181.544 136.859 181.535 136.772 181.516C113.233 176.331 83.6016 168.878 63.2338 157.169C62.6604 156.839 62.4626 156.107 62.7924 155.533C63.122 154.96 63.8543 154.762 64.428 155.092C84.5125 166.639 113.915 174.029 137.287 179.176C137.934 179.319 138.342 179.958 138.199 180.604C138.077 181.163 137.581 181.544 137.031 181.544Z" fill="#3C3959"/>
</svg>
