<svg width="448" height="254" viewBox="0 0 448 254" fill="none" xmlns="http://www.w3.org/2000/svg">
<g opacity="0.2" clip-path="url(#clip0_21648_3033)">
<path d="M287.76 -175.363L287.76 -151.094L310.659 -137.878L310.659 -163.858L331.987 -176.167L331.987 -150.642L354.494 -163.631L376.215 -151.095L376.215 -127.28C375.554 -127.105 375.065 -126.51 375.065 -125.794C375.065 -125.654 375.09 -125.521 375.125 -125.392L354.298 -113.372L354.101 -113.259L354.101 -86.825L376.607 -99.8153L398.722 -87.0513L420.836 -99.8145L442.557 -87.2784L442.557 -62.207L420.05 -49.2168L442.557 -36.2266L442.557 -10.2454L465.26 -23.3495L465.457 -23.4627L465.457 -48.5364L485.695 -36.856C485.66 -36.7271 485.635 -36.5935 485.635 -36.4537C485.635 -35.7387 486.124 -35.1423 486.785 -34.9679L486.785 14.3726L464.867 27.0226L464.671 27.135L464.671 53.5695L487.374 40.4654L487.571 40.3522L487.571 14.8236L509.291 2.28677L530.621 14.5981L509.094 27.0234L508.898 27.1357L508.898 53.5703L531.601 40.4662L531.798 40.353L531.798 -10.2485L552.036 1.4319C552.001 1.56076 551.976 1.69354 551.976 1.83418C551.976 2.54918 552.465 3.14555 553.126 3.31999L553.126 27.5883L574.847 40.1244L553.519 52.4334L553.126 52.2063L553.126 52.6605L552.733 52.8875L553.126 53.1138L553.126 78.6417L574.149 90.7754C574.115 90.9043 574.09 91.0379 574.09 91.1777C574.09 92.0295 574.781 92.7201 575.633 92.7201C576.485 92.7201 577.175 92.0295 577.175 91.1777C577.175 90.4627 576.686 89.8664 576.026 89.692L576.026 65.8777L598.532 52.8867L576.419 40.1236L597.943 27.6999L598.14 27.5867L598.14 2.05969L598.532 1.83263L598.14 1.60555L598.14 -23.9223L576.427 -36.4537L597.96 -48.8813L598.157 -48.9937L598.157 -75.4267L575.453 -62.3233L575.256 -62.2101L575.256 -37.1286L575.24 -37.138L575.24 -11.1576L554.614 0.747539C554.423 0.555828 554.181 0.418316 553.912 0.347607L553.912 -23.9192L532.191 -36.4544L553.715 -48.8774L553.912 -48.9905L553.912 -74.5278L574.52 -86.4219C574.8 -86.1399 575.187 -85.9647 575.615 -85.9647C576.467 -85.9647 577.158 -86.6553 577.158 -87.507C577.158 -88.222 576.669 -88.8184 576.008 -88.9928L576.008 -138.304L597.961 -150.975L598.158 -151.089L598.158 -177.522L598.122 -177.502L598.122 -202.595L576.008 -215.358L576.008 -215.812L575.615 -215.585L575.222 -215.811L575.222 -215.358L553.305 -202.708L553.108 -202.595L553.108 -176.162L574.52 -188.52C574.8 -188.238 575.187 -188.063 575.615 -188.063C576.044 -188.063 576.431 -188.238 576.711 -188.52L596.961 -176.831L576.008 -164.738L576.008 -164.763L553.502 -151.774L530.995 -164.763L530.995 -138.775L509.095 -126.135L508.899 -126.023L508.899 -101.756C508.238 -101.582 507.749 -100.985 507.749 -100.27C507.749 -99.4184 508.44 -98.7278 509.292 -98.7278C510.144 -98.7278 510.835 -99.4184 510.835 -100.27C510.835 -100.41 510.81 -100.544 510.775 -100.672L531.602 -112.693L531.799 -112.806L531.799 -137.868L553.109 -125.569L553.109 -74.96L531.406 -62.4341L508.899 -75.4235L508.899 -49.4431L488.273 -37.5387C488.082 -37.7304 487.84 -37.8672 487.571 -37.9387L487.571 -62.207L466.547 -74.3408C466.582 -74.4697 466.607 -74.6033 466.607 -74.7431C466.607 -74.883 466.582 -75.0157 466.547 -75.1446L487.374 -87.166L487.571 -87.2792L487.571 -138.303L508.072 -150.136C508.352 -149.744 508.808 -149.487 509.326 -149.487C510.178 -149.487 510.869 -150.178 510.869 -151.03C510.869 -151.745 510.379 -152.341 509.719 -152.515L509.719 -177.522L487.605 -164.758L487.605 -189.831L464.705 -203.048L464.705 -176.613L486.404 -164.09L465.064 -151.773L444.432 -163.68C444.467 -163.808 444.492 -163.942 444.492 -164.082C444.492 -164.934 443.801 -165.624 442.949 -165.624C442.096 -165.624 441.406 -164.934 441.406 -164.082C441.406 -163.367 441.896 -162.771 442.556 -162.596L442.556 -113.259L420.835 -100.722L399.507 -113.033L421.032 -125.456L421.228 -125.569L421.228 -151.096L421.621 -151.323L421.228 -151.55L421.228 -176.623L443.146 -189.273L443.342 -189.385L443.342 -215.818L420.639 -202.715L420.442 -202.602L420.442 -177.53L399.114 -189.839L399.114 -190.293L398.721 -190.066L376.214 -203.056L376.214 -178.334C375.945 -178.263 375.702 -178.126 375.511 -177.933L354.886 -189.837L354.886 -215.81L332.772 -203.047L332.772 -203.053L310.068 -189.949L309.872 -189.836L309.872 -164.764L289.633 -176.444C289.669 -176.574 289.693 -176.707 289.693 -176.847C289.693 -177.699 289.002 -178.39 288.15 -178.39C287.298 -178.39 286.607 -177.699 286.607 -176.847C286.61 -176.133 287.099 -175.538 287.76 -175.363ZM531.012 39.8989L509.684 52.2087L509.684 27.5899L531.012 15.2801L531.012 39.8989ZM576.043 -61.7545L597.372 -74.0634L597.372 -49.4462L576.043 -37.1372L576.043 -61.7545ZM553.894 -177.521L553.894 -202.14L575.222 -214.449L575.222 -191.089C574.562 -190.915 574.072 -190.319 574.072 -189.603C574.072 -189.464 574.098 -189.33 574.132 -189.201L553.894 -177.521ZM576.008 -191.089L576.008 -214.449L597.336 -202.14L597.336 -177.522L577.099 -189.202C577.134 -189.331 577.159 -189.464 577.159 -189.603C577.158 -190.319 576.669 -190.915 576.008 -191.089ZM332.773 -176.614L354.101 -188.924L354.101 -164.311L332.773 -152.002L332.773 -176.614ZM377.001 -175.363C377.271 -175.435 377.513 -175.571 377.703 -175.763L397.935 -164.085L377.001 -152.002L377.001 -175.363ZM398.329 -138.331L398.329 -113.712L378.091 -125.393C378.126 -125.521 378.151 -125.654 378.151 -125.794C378.151 -126.509 377.662 -127.105 377.002 -127.279L377.002 -150.641L398.329 -138.331ZM377.001 -124.309C377.271 -124.381 377.513 -124.517 377.704 -124.71L397.936 -113.033L377.001 -100.949L377.001 -124.309ZM398.722 -139.012L377.394 -151.322L387.083 -156.914L398.721 -163.631L420.049 -151.321L410.361 -145.729L398.722 -139.012ZM398.329 -164.766L378.091 -176.447C378.126 -176.576 378.151 -176.708 378.151 -176.848C378.151 -176.988 378.127 -177.122 378.091 -177.251L398.329 -188.931L398.329 -164.766ZM354.887 -112.805L375.513 -124.708C375.703 -124.517 375.946 -124.38 376.215 -124.308L376.215 -100.496L354.887 -88.1867L354.887 -112.805ZM464.671 -73.2581L464.671 -49.8965L443.342 -62.2063L443.342 -86.825L463.58 -75.1446C463.545 -75.0157 463.52 -74.883 463.52 -74.7431C463.52 -74.0289 464.01 -73.4325 464.671 -73.2581ZM464.671 -76.2297C464.401 -76.1582 464.158 -76.0215 463.968 -75.8298L443.737 -87.5062L464.671 -99.5874L464.671 -76.2297ZM442.949 -61.5258L464.278 -49.216L453.817 -43.1786L442.95 -36.9063L421.622 -49.216L442.949 -61.5258ZM464.671 -23.9168L443.342 -11.6062L443.342 -36.2258L464.671 -48.5356L464.671 -23.9168ZM486.785 39.8989L465.457 52.2087L465.457 27.5899L486.785 15.2801L486.785 39.8989ZM487.571 -10.7019L494.548 -14.7287L508.898 -23.0109L508.898 1.60789L487.57 13.9177L487.571 -10.7019ZM509.684 -48.5356L520.348 -42.3811L531.012 -36.2266L531.012 -11.6094L520.348 -17.7639L509.684 -23.9184L509.684 -48.5356ZM531.012 13.9161L509.684 1.60711L509.684 -23.0109L520.348 -16.8564L531.012 -10.7019L531.012 13.9161ZM553.912 3.31916C554.181 3.24845 554.423 3.11096 554.614 2.92002L575.24 14.8252L575.24 39.444L553.912 27.1342L553.912 3.31916ZM553.912 78.1875L553.912 53.568L575.24 65.8785L575.24 89.692C574.971 89.7635 574.729 89.9002 574.539 90.0919L553.912 78.1875ZM575.633 65.1973L554.305 52.8867L575.24 40.804L575.24 40.8048L575.633 40.5785L576.026 40.8048L576.026 40.804L596.961 52.8875L575.633 65.1973ZM597.354 27.1334L576.026 39.4432L576.026 14.8244L597.354 2.5146L597.354 27.1334ZM597.354 1.15376L576.026 -11.1568L576.026 -35.7756L597.354 -23.4658L597.354 1.15376ZM575.633 -10.4764L596.961 1.83418L587.272 7.42612L575.633 14.1432L555.002 2.2357C555.036 2.10684 555.062 1.97325 555.062 1.83339C555.062 1.69352 555.037 1.56076 555.002 1.4311L575.633 -10.4764ZM553.127 0.3484C552.857 0.419903 552.615 0.556621 552.424 0.748333L531.798 -11.156L531.798 -35.7732L553.127 -23.4642L553.127 0.3484ZM553.127 -49.4439L531.798 -37.1349L531.798 -61.7521L553.127 -74.0611L553.127 -49.4439ZM575.222 -88.992C574.562 -88.8176 574.072 -88.222 574.072 -87.5062C574.072 -87.3664 574.097 -87.2336 574.132 -87.1047L553.895 -75.4243L553.895 -100.042L575.223 -112.351L575.222 -88.992ZM553.894 -125.567L575.222 -137.876L575.222 -113.259L553.894 -100.95L553.894 -125.567ZM576.043 -163.85L597.372 -176.16L597.372 -151.541L576.043 -139.231L576.043 -163.85ZM575.222 -138.784L553.894 -126.475L553.894 -151.093L575.222 -163.401L575.222 -138.784ZM531.012 -113.259L510.386 -101.355C510.196 -101.547 509.953 -101.684 509.684 -101.755L509.684 -125.568L531.012 -137.877L531.012 -113.259ZM531.781 -139.227L531.781 -163.401L553.109 -151.092L553.109 -126.475L531.799 -138.774L531.799 -139.238L531.781 -139.227ZM509.684 -74.0611L531.012 -61.7521L531.012 -37.1349L520.348 -43.2894L509.684 -49.4439L509.684 -74.0611ZM508.898 -48.5356L508.898 -23.9192L496.711 -16.8847L487.571 -11.6094L487.571 -34.9679C488.231 -35.1423 488.721 -35.7379 488.721 -36.4537C488.721 -36.5935 488.695 -36.7271 488.661 -36.856L508.898 -48.5356ZM486.785 -61.7537L486.785 -37.9395C486.515 -37.868 486.273 -37.7312 486.083 -37.5395L465.457 -49.4439L465.457 -73.2581C465.726 -73.3288 465.968 -73.4663 466.159 -73.6572L486.785 -61.7537ZM486.785 -87.7341L466.159 -75.8298C465.969 -76.0215 465.726 -76.1589 465.457 -76.2297L465.457 -100.042L465.85 -100.269L465.849 -100.269L486.785 -112.352L486.785 -87.7341ZM486.785 -138.784L465.457 -126.475L465.457 -151.093L486.785 -163.401L486.785 -138.784ZM465.457 -125.567L486.785 -137.876L486.785 -113.259L465.457 -100.95L465.457 -125.567ZM508.933 -176.16L508.933 -152.515C508.272 -152.341 507.783 -151.745 507.783 -151.03C507.783 -150.98 507.793 -150.934 507.798 -150.886L487.605 -139.231L487.605 -163.85L508.933 -176.16ZM465.491 -201.686L486.819 -189.376L486.819 -164.758L465.491 -177.067L465.491 -201.686ZM443.342 -162.596C443.612 -162.668 443.854 -162.804 444.044 -162.996L464.671 -151.093L464.671 -126.476L443.342 -138.786L443.342 -162.596ZM464.671 -125.567L464.671 -100.948L443.342 -113.259L443.342 -137.876L464.671 -125.567ZM442.949 -112.578L464.278 -100.268L442.951 -87.9588L442.556 -88.1867L442.556 -88.1851L421.621 -100.268L442.949 -112.578ZM398.722 -87.958L377.394 -100.268L398.329 -112.351L398.722 -112.578L399.115 -112.351L420.05 -100.268L398.722 -87.958ZM420.442 -126.022L399.114 -113.712L399.114 -138.331L420.442 -150.641L420.442 -126.022ZM421.228 -202.147L442.556 -214.456L442.556 -189.838L421.228 -177.529L421.228 -202.147ZM420.442 -176.622L420.442 -152.002L399.114 -164.312L399.114 -188.932L420.442 -176.622ZM397.935 -189.612L377.703 -177.934C377.513 -178.126 377.27 -178.263 377.001 -178.334L377.001 -201.695L397.935 -189.612ZM376.215 -175.363L376.215 -152.002L354.887 -164.311L354.887 -188.929L375.124 -177.249C375.09 -177.12 375.065 -176.988 375.065 -176.848C375.065 -176.133 375.554 -175.538 376.215 -175.363ZM354.101 -214.449L354.101 -189.837L332.773 -177.527L332.773 -202.14L354.101 -214.449ZM310.659 -189.383L331.987 -201.692L331.987 -177.074L310.659 -164.765L310.659 -189.383ZM309.874 -163.857L309.874 -139.238L288.546 -151.548L288.546 -175.363C288.814 -175.435 289.056 -175.571 289.247 -175.762L309.874 -163.857ZM-0.131568 -15.4972L21.9824 -2.73324L0.457907 9.69048L0.261435 9.80363L0.261433 35.3307L-0.131573 35.557L0.261433 35.7841L0.26143 61.3111L21.9729 73.8425L0.440627 86.2701L0.244155 86.3825L0.244153 112.815L22.9475 99.7113L23.144 99.5982L23.144 74.5166L23.1613 74.5268L23.1613 48.5456L43.7874 36.6413C43.9776 36.833 44.2197 36.9705 44.4893 37.0412L44.4893 86.8311L66.604 99.5943L66.604 125.12L87.6285 137.254C87.5931 137.384 87.5672 137.518 87.5672 137.659C87.5672 137.799 87.5924 137.932 87.627 138.061L66.7996 150.081L66.6032 150.194L66.6032 175.257L45.2925 162.958L45.2925 111.454L23.8804 123.812C23.6007 123.529 23.214 123.355 22.7849 123.355C21.9329 123.355 21.242 124.046 21.242 124.897C21.242 125.612 21.7316 126.209 22.3919 126.383L22.3919 175.693L0.439032 188.363L0.242559 188.477L0.242557 214.912L22.3926 202.128L22.3926 202.153L44.8987 189.163L67.4064 202.153L67.4064 176.164L89.3065 163.525L89.503 163.412L89.503 139.145C90.1632 138.97 90.6529 138.374 90.6529 137.659C90.6529 136.944 90.1632 136.348 89.503 136.173L89.503 111.902L67.3891 99.1401L67.3891 74.068L88.7171 61.759L88.7171 86.8351L110.831 99.599L110.831 100.053L111.225 99.8261L111.617 100.052L111.617 99.5998L133.534 86.949L133.73 86.8359L133.73 60.4013L112.32 72.759C112.04 72.4769 111.652 72.3009 111.223 72.3009C110.794 72.3009 110.407 72.4761 110.127 72.759L89.5022 60.8562L89.5022 9.34712L66.9954 22.3373L45.2736 9.80208L23.5528 -2.73401L44.8806 -15.0438L45.2736 -14.8167L45.2736 -15.2709L45.6666 -15.4979L45.2736 -15.725L45.2736 -41.2521L23.1598 -54.0152L23.1598 -77.8294C23.82 -78.0038 24.3097 -78.5994 24.3097 -79.3152C24.3097 -80.1669 23.6187 -80.8576 22.7668 -80.8576C21.9148 -80.8576 21.2239 -80.1669 21.2239 -79.3152C21.2239 -79.1753 21.2483 -79.0418 21.2837 -78.9121L0.456388 -66.8915L0.259916 -66.7784L0.259913 -40.3446L22.3738 -53.1085L22.3738 -28.4889L-0.131568 -15.4972ZM22.3573 99.1448L1.02931 111.454L1.02931 86.8366L22.3573 74.5276L22.3573 99.1448ZM1.04738 10.257L22.3754 -2.05278L22.3754 22.566L1.04738 34.8758L1.04738 10.257ZM1.04738 36.2366L22.3754 48.5464L22.3754 73.166L1.04738 60.8554L1.04738 36.2366ZM22.7683 47.866L1.44039 35.5562L11.129 29.9643L22.7675 23.2464L43.3991 35.1539C43.3645 35.2828 43.3394 35.4156 43.3394 35.5562C43.3394 35.6969 43.3645 35.8296 43.3991 35.9585L22.7683 47.866ZM45.2744 60.8523L45.2744 37.0412C45.544 36.9697 45.7869 36.833 45.9779 36.6405L55.9392 42.3896L66.6032 48.5441L66.6032 73.1613L55.9392 67.0068L45.2744 60.8523ZM44.5065 162.958L23.1786 175.267L23.1786 150.649L44.5065 138.34L44.5065 162.958ZM44.5065 112.815L44.5065 137.432L23.1786 149.741L23.1786 126.382C23.8388 126.207 24.3277 125.612 24.3277 124.897C24.3277 124.757 24.3033 124.623 24.268 124.494L44.5065 112.815ZM22.3572 201.241L1.0293 213.55L1.0293 188.931L22.3572 176.621L22.3572 201.241ZM23.1786 176.175L44.5065 163.866L44.5065 188.483L23.1786 200.792L23.1786 176.175ZM66.6205 200.792L45.2925 188.483L45.2925 163.866L66.6032 176.164L66.6032 176.628L66.6196 176.619L66.6196 200.792L66.6205 200.792ZM67.3891 175.267L67.3891 150.649L88.0144 138.746C88.2046 138.937 88.4475 139.074 88.7163 139.146L88.7163 162.958L67.3891 175.267ZM88.7171 112.357L88.7171 136.174C88.449 136.245 88.2077 136.381 88.0168 136.571L67.3891 124.666L67.3891 100.048L88.7171 112.357ZM45.2744 86.3778L45.2744 61.7606L55.9384 67.9151L66.6024 74.0695L66.6024 98.6875L45.2744 86.3778ZM132.944 61.7637L132.944 86.3825L111.616 98.6923L111.616 75.3299C112.276 75.1554 112.766 74.5598 112.766 73.8441C112.766 73.7042 112.742 73.5722 112.707 73.4433L132.944 61.7637ZM110.831 75.3299L110.831 98.6915L89.503 86.3817L89.503 61.7645L109.74 73.4441C109.705 73.5722 109.681 73.705 109.681 73.8449C109.681 74.5591 110.17 75.1554 110.831 75.3299ZM88.7171 60.8523L67.3891 73.1613L67.3891 48.5456L88.7171 36.2358L88.7171 60.8523ZM88.7171 35.3276L67.3891 47.6366L67.3891 23.0178L88.7171 10.708L88.7171 35.3276ZM66.6032 23.0193L66.6032 47.6366L55.9392 41.4821L46.3654 35.9569C46.4 35.828 46.4251 35.6961 46.4251 35.5562C46.4251 34.8412 45.9354 34.2456 45.2752 34.0704L45.2752 10.7103L66.6032 23.0193ZM44.4885 34.0712C44.2197 34.1427 43.9768 34.2794 43.7866 34.4711L23.1605 22.5668L23.1605 -2.05202L44.4885 10.2578L44.4885 34.0712ZM23.1613 -3.41366L22.7683 -3.18737L22.3754 -3.41442L22.3754 -3.41366L1.44039 -15.4972L22.7675 -27.8069L44.0955 -15.4971L23.1613 -3.41366ZM44.4885 -16.1784L23.1605 -28.4881L23.1605 -53.1069L44.4885 -40.7971L44.4885 -16.1784ZM1.04739 -41.7046L1.04739 -66.3234L21.6735 -78.2278C21.8637 -78.0361 22.1057 -77.8994 22.3745 -77.8286L22.3745 -54.0144L1.04739 -41.7046ZM131.794 112.134C131.794 112.274 131.819 112.408 131.854 112.537L111.027 124.557L110.83 124.67L110.83 175.695L90.3283 187.528C90.0485 187.136 89.5926 186.879 89.0747 186.879C88.2227 186.879 87.5318 187.57 87.5318 188.422C87.5318 189.137 88.0215 189.733 88.6817 189.907L88.6817 214.914L110.796 202.148L110.796 227.222L133.695 240.438L133.695 214.004L111.997 201.48L133.337 189.163L153.969 201.07C153.934 201.199 153.909 201.332 153.909 201.472C153.909 202.324 154.6 203.015 155.452 203.015C156.304 203.015 156.995 202.324 156.995 201.472C156.995 200.757 156.506 200.161 155.845 199.987L155.845 176.629L155.846 150.648L177.566 138.112L198.894 150.422L177.369 162.847L177.173 162.96L177.173 188.485L176.78 188.712L177.173 188.939L177.173 214.012L155.255 226.662L155.059 226.775L155.059 253.208L177.762 240.104L177.959 239.992L177.959 214.92L199.287 227.23L199.287 227.683L199.68 227.456L222.186 240.447L222.186 215.725C222.456 215.654 222.699 215.516 222.89 215.324L243.515 227.227L243.515 253.201L265.629 240.437L265.629 240.443L288.332 227.34L288.528 227.226L288.528 202.155L309.856 214.464L309.856 214.917L310.249 214.691L310.642 214.917L310.642 214.464L332.362 201.93L354.87 214.918L354.87 188.939L376.197 176.63L376.197 201.704L399.097 214.921L421.211 227.684L421.211 201.703L441.837 189.799C442.117 190.08 442.503 190.255 442.932 190.255C443.784 190.255 444.475 189.565 444.475 188.713C444.475 187.861 443.784 187.171 442.932 187.171C442.504 187.171 442.116 187.346 441.837 187.627L421.211 175.723L421.211 149.742L398.508 162.847L398.311 162.96L398.311 188.033L376.983 175.724L376.983 149.745L355.572 162.103C355.382 161.911 355.139 161.773 354.87 161.703L354.87 137.436L331.969 124.22L331.969 149.745L309.855 136.982L309.855 163.415L331.576 175.951L310.25 188.259L287.742 175.268L287.742 201.248L266.414 213.557L266.414 163.409L288.332 150.759L288.528 150.646L288.528 124.211L267.116 136.569C266.836 136.287 266.45 136.113 266.021 136.113C265.169 136.113 264.479 136.803 264.479 137.655C264.479 138.37 264.968 138.966 265.628 139.141L265.628 162.957L243.711 175.608L243.514 175.721L243.514 200.794L222.186 188.485L222.186 164.67C222.846 164.496 223.336 163.9 223.336 163.184C223.336 163.045 223.31 162.912 223.276 162.782L244.103 150.762L244.3 150.649L244.3 124.216L221.793 137.206L199.678 124.442L177.564 137.205L155.45 124.442L133.729 136.978L133.729 113.619C134.389 113.445 134.878 112.849 134.878 112.133C134.878 111.282 134.188 110.591 133.336 110.591C132.485 110.592 131.794 111.283 131.794 112.134ZM111.617 125.124L132.243 113.22C132.433 113.412 132.675 113.549 132.945 113.62L132.945 137.432L132.552 137.659L111.617 149.742L111.617 125.124ZM155.059 175.267L133.73 162.958L133.73 138.339L155.059 150.649L155.059 175.267ZM132.944 162.958L111.616 175.267L111.616 150.649L132.944 138.34L132.944 162.958ZM111.617 176.175L132.945 163.866L132.945 188.483L111.617 200.792L111.617 176.175ZM89.4684 213.55L89.4684 189.905C90.1286 189.731 90.6175 189.135 90.6175 188.42C90.6175 188.371 90.6073 188.324 90.6026 188.275L110.796 176.621L110.796 201.241L89.4684 213.55ZM132.91 239.077L111.582 226.768L111.582 202.149L132.91 214.459L132.91 239.077ZM155.058 199.987C154.789 200.058 154.546 200.195 154.356 200.386L133.73 188.482L133.73 163.866L155.058 176.175L155.058 199.987ZM199.679 176.403L221.007 188.712L211.318 194.304L199.68 201.022L178.352 188.712L188.04 183.12L199.679 176.403ZM221.4 212.754C221.131 212.825 220.889 212.962 220.698 213.154L200.465 201.476L221.4 189.393L221.4 212.754ZM200.073 202.156L220.31 213.836C220.276 213.965 220.251 214.099 220.251 214.239C220.251 214.378 220.276 214.511 220.31 214.64L200.073 226.321L200.073 202.156ZM200.073 175.722L200.073 151.103L220.31 162.784C220.276 162.913 220.251 163.045 220.251 163.184C220.251 163.899 220.74 164.495 221.401 164.67L221.401 188.032L200.073 175.722ZM221.4 161.699C221.13 161.771 220.888 161.908 220.697 162.1L200.465 150.422L221.4 138.339L221.4 161.699ZM177.959 163.413L199.287 151.103L199.287 175.722L177.959 188.032L177.959 163.413ZM177.173 239.537L155.845 251.846L155.845 227.228L177.173 214.919L177.173 239.537ZM177.959 214.012L177.959 189.393L199.287 201.703L199.287 226.321L177.959 214.012ZM200.466 227.002L220.698 215.324C220.888 215.516 221.131 215.653 221.401 215.724L221.401 239.085L200.466 227.002ZM244.3 251.84L244.3 227.226L265.628 214.917L265.628 239.53L244.3 251.84ZM310.641 213.557L310.641 188.94L331.969 176.631L331.969 201.248L310.641 213.557ZM354.084 213.557L332.755 201.248L332.755 176.631L343.419 182.786L354.083 188.94L354.083 213.557L354.084 213.557ZM332.755 151.106L343.419 157.261L352.993 162.786C352.958 162.915 352.933 163.048 352.933 163.188C352.933 163.903 353.423 164.5 354.083 164.674L354.083 188.033L343.419 181.879L332.755 175.724L332.755 151.106ZM376.983 176.631L398.311 188.941L398.311 213.56L376.983 201.25L376.983 176.631ZM420.425 226.323L399.097 214.012L399.097 189.394L420.425 201.703L420.425 226.323ZM441.449 189.115L420.818 201.023L399.49 188.713L409.179 183.121L420.818 176.403L441.449 188.311C441.414 188.44 441.389 188.573 441.389 188.713C441.389 188.853 441.414 188.987 441.449 189.115ZM399.097 163.414L420.425 151.103L420.425 175.723L399.097 188.033L399.097 163.414ZM376.197 151.106L376.197 175.724L354.869 188.033L354.869 164.673C355.529 164.499 356.019 163.903 356.019 163.188C356.019 163.048 355.994 162.915 355.959 162.785L376.197 151.106ZM332.755 125.58L354.084 137.889L354.084 161.702C353.814 161.773 353.572 161.91 353.381 162.102L343.419 156.353L332.755 150.198L332.755 125.58ZM310.641 138.343L331.969 150.652L331.969 175.27L310.641 162.961L310.641 138.343ZM288.528 176.629L309.856 188.939L309.856 213.557L288.528 201.248L288.528 176.629ZM287.742 202.155L287.742 226.772L266.414 239.081L266.414 214.464L287.742 202.155ZM244.3 226.314L244.3 201.702L265.628 189.393L265.628 214.005L244.3 226.314ZM287.742 125.573L287.742 150.193L266.414 162.502L266.414 139.142C267.075 138.967 267.564 138.372 267.564 137.656C267.564 137.515 267.539 137.382 267.504 137.254L287.742 125.573ZM244.3 176.175L265.628 163.865L265.628 188.484L244.3 200.794L244.3 176.175ZM243.514 226.319L223.277 214.639C223.311 214.51 223.336 214.378 223.336 214.239C223.336 213.524 222.847 212.927 222.186 212.753L222.186 189.393L243.514 201.702L243.514 226.319ZM243.514 150.194L222.888 162.099C222.698 161.907 222.455 161.77 222.187 161.699L222.187 137.886L243.515 125.577L243.515 150.194L243.514 150.194ZM199.68 125.348L221.008 137.658L200.073 149.741L199.68 149.968L199.287 149.741L178.352 137.658L199.68 125.348ZM176.78 137.658L155.453 149.968L134.124 137.658L155.453 125.348L176.78 137.658Z" fill="white"/>
</g>
<defs>
<clipPath id="clip0_21648_3033">
<rect width="448" height="253" fill="white" transform="translate(448 253.521) rotate(-180)"/>
</clipPath>
</defs>
</svg>
