<svg width="256" height="254" viewBox="0 0 256 254" fill="none" xmlns="http://www.w3.org/2000/svg">
<path d="M4.20009 220.422V200.588L22.7543 189.787V211.019L40.035 221.079V200.218L58.2702 210.834L75.8699 200.589V181.126C75.3343 180.983 74.9382 180.496 74.9382 179.911C74.9382 179.797 74.958 179.688 74.9866 179.582L58.1116 169.759L57.9524 169.667V148.063L76.187 158.68L94.1058 148.248L112.023 158.679L129.622 148.434V127.944L111.386 117.328L129.622 106.711V85.478L148.017 96.1875L148.177 96.28V116.772L164.574 107.226C164.546 107.12 164.526 107.011 164.526 106.897C164.526 106.313 164.922 105.825 165.457 105.683V65.3587L147.699 55.0204L147.54 54.9286V33.3247L165.935 44.0342L166.094 44.1266V64.9902L183.692 75.236L200.975 65.1744L183.533 55.0198L183.374 54.928V33.3241L201.769 44.0336L201.928 44.126V85.4806L218.326 75.9347C218.298 75.8294 218.277 75.7208 218.277 75.6059C218.277 75.0216 218.673 74.5342 219.209 74.3916V54.5581L236.808 44.3129L219.527 34.2532L219.209 34.4388V34.0677L218.89 33.8821L219.209 33.6972V12.8343L236.243 2.91785C236.215 2.81253 236.195 2.70337 236.195 2.58907C236.195 1.89299 236.754 1.32857 237.445 1.32857C238.135 1.32857 238.695 1.89299 238.695 2.58907C238.695 3.1734 238.298 3.66078 237.763 3.80334V23.2657L255.999 33.8827L238.082 44.3135L255.521 54.4669L255.681 54.5594V75.4216L255.999 75.6072L255.681 75.7927V96.6556L238.089 106.897L255.535 117.054L255.695 117.145V138.748L237.299 128.039L237.14 127.947V107.449L237.126 107.456V86.2236L220.414 76.494C220.26 76.6506 220.064 76.763 219.846 76.8208V96.6531L202.247 106.898L219.687 117.05L219.846 117.143V138.013L236.543 147.734C236.77 147.503 237.084 147.36 237.431 147.36C238.121 147.36 238.681 147.925 238.681 148.621C238.681 149.205 238.284 149.693 237.749 149.835V190.135L255.536 200.491L255.695 200.583V222.187L255.667 222.17V242.678L237.749 253.108V253.479L237.43 253.293L237.112 253.478V253.109L219.354 242.77L219.195 242.678V221.074L236.544 231.175C236.77 230.944 237.084 230.801 237.431 230.801C237.778 230.801 238.092 230.944 238.318 231.175L254.726 221.622L237.749 211.739V211.759L219.514 201.143L201.278 211.759V190.52L183.534 180.19L183.375 180.098V160.266C182.84 160.123 182.443 159.636 182.443 159.052C182.443 158.355 183.003 157.791 183.693 157.791C184.383 157.791 184.943 158.355 184.943 159.052C184.943 159.166 184.923 159.275 184.895 159.38L201.77 169.204L201.929 169.297V189.779L219.196 179.728V138.367L201.61 128.13L183.375 138.745V117.513L166.663 107.784C166.509 107.94 166.312 108.052 166.094 108.111V127.944L149.06 137.861C149.088 137.966 149.108 138.075 149.108 138.189C149.108 138.304 149.088 138.412 149.06 138.517L165.935 148.342L166.094 148.435V190.134L182.705 199.805C182.931 199.485 183.301 199.275 183.721 199.275C184.411 199.275 184.971 199.839 184.971 200.535C184.971 201.12 184.574 201.607 184.039 201.75V222.186L166.122 211.755V232.246L147.568 243.048V221.444L165.149 211.209L147.858 201.143L131.142 210.874C131.17 210.979 131.19 211.088 131.19 211.202C131.19 211.898 130.63 212.463 129.94 212.463C129.249 212.463 128.69 211.898 128.69 211.202C128.69 210.618 129.087 210.131 129.622 209.988V169.667L112.023 159.421L94.7419 169.482L112.182 179.635L112.341 179.727V200.589L112.659 200.775L112.341 200.96V221.452L130.099 231.79L130.258 231.882V253.484L111.863 242.775L111.704 242.683V222.193L94.4235 232.253V232.623L94.1051 232.438L75.8693 243.054V222.85C75.6508 222.792 75.4541 222.68 75.2993 222.522L58.588 232.251V253.478L40.6705 243.047V243.051L22.2755 232.343L22.1163 232.25V211.76L5.71826 221.306C5.74692 221.412 5.76665 221.52 5.76665 221.635C5.76665 222.331 5.20688 222.896 4.51657 222.896C3.82626 222.896 3.26651 222.331 3.26651 221.635C3.26843 221.051 3.66454 220.565 4.20009 220.422ZM201.291 44.4972L184.011 34.4369V54.5568L201.291 64.6171V44.4972ZM237.777 127.574L255.058 137.634V117.515L237.777 107.456V127.574ZM219.832 222.185V242.305L237.112 252.366V233.274C236.577 233.132 236.181 232.645 236.181 232.06C236.181 231.946 236.201 231.837 236.229 231.731L219.832 222.185ZM237.749 233.274V252.365L255.03 242.305V222.186L238.633 231.732C238.661 231.837 238.681 231.946 238.681 232.06C238.681 232.645 238.284 233.132 237.749 233.274ZM40.6712 221.444L57.9518 231.505V211.389L40.6712 201.33V221.444ZM76.5067 220.422C76.7251 220.48 76.9213 220.592 77.0754 220.749L93.4683 211.205L76.5067 201.33V220.422ZM93.7874 190.157V170.037L77.39 179.583C77.418 179.688 77.4384 179.797 77.4384 179.911C77.4384 180.496 77.0423 180.982 76.5074 181.125V200.217L93.7874 190.157ZM76.5067 178.698C76.7251 178.756 76.9213 178.868 77.076 179.025L93.4689 169.482L76.5067 159.606V178.698ZM94.1058 190.714L76.8251 200.774L84.6752 205.344L94.1051 210.834L111.386 200.773L103.536 196.203L94.1058 190.714ZM93.7874 211.761L77.39 221.308C77.418 221.413 77.4384 221.521 77.4384 221.636C77.4384 221.75 77.4186 221.859 77.39 221.964L93.7874 231.51V211.761ZM58.5886 169.296L75.3006 179.024C75.4547 178.867 75.6515 178.755 75.8699 178.697V159.237L58.5886 149.176V169.296ZM147.54 136.976V117.883L130.258 127.944V148.063L146.656 138.517C146.628 138.412 146.607 138.304 146.607 138.189C146.607 137.606 147.004 137.118 147.54 136.976ZM147.54 139.404C147.321 139.346 147.125 139.234 146.97 139.077L130.578 148.62L147.54 158.494V139.404ZM129.94 127.387L147.221 117.327L138.746 112.393L129.941 107.267L112.66 117.327L129.94 127.387ZM147.54 96.6511L130.258 86.5902V106.711L147.54 116.771V96.6511ZM165.457 44.4972L148.177 34.4369V54.5568L165.457 64.6171V44.4972ZM166.094 85.8511L171.747 89.142L183.374 95.9108V75.7908L166.093 65.7305L166.094 85.8511ZM184.011 116.771L192.651 111.741L201.291 106.711V86.5928L192.651 91.6226L184.011 96.6524V116.771ZM201.291 65.7318L184.011 75.7915V95.9108L192.651 90.8809L201.291 85.8511V65.7318ZM219.846 74.3923C220.064 74.4501 220.26 74.5624 220.415 74.7185L237.127 64.9889V44.869L219.846 54.9293V74.3923ZM219.846 13.2054V33.326L237.127 23.2651V3.80334C236.909 3.7449 236.712 3.63318 236.558 3.47649L219.846 13.2054ZM237.445 23.8218L220.165 33.8827L237.126 43.7574V43.7568L237.445 43.9417L237.763 43.7568V43.7574L254.725 33.8821L237.445 23.8218ZM255.044 54.9299L237.763 44.8696V64.9895L255.044 75.0498V54.9299ZM255.044 76.162L237.763 86.2229V106.343L255.044 96.2825V76.162ZM237.445 85.6668L254.725 75.6059L246.875 71.0358L237.445 65.5463L220.729 75.2778C220.757 75.3831 220.777 75.4922 220.777 75.6065C220.777 75.7208 220.758 75.8294 220.729 75.9353L237.445 85.6668ZM219.21 76.8202C218.991 76.7617 218.795 76.65 218.64 76.4933L201.928 86.2223V106.341L219.21 96.2813V76.8202ZM219.21 117.513L201.928 107.454V127.572L219.21 137.632V117.513ZM237.112 149.834C236.577 149.692 236.181 149.205 236.181 148.62C236.181 148.506 236.2 148.397 236.229 148.292L219.832 138.746V158.865L237.113 168.925L237.112 149.834ZM219.832 179.726L237.112 189.785V169.667L219.832 159.607V179.726ZM237.777 211.013L255.058 221.073V200.953L237.777 190.892V211.013ZM237.112 190.528L219.832 180.468V200.587L237.112 210.646V190.528ZM201.291 169.667L184.579 159.938C184.425 160.095 184.229 160.207 184.011 160.265V179.726L201.291 189.786V169.667ZM201.915 190.89V210.646L219.196 200.586V180.467L201.929 190.519V190.898L201.915 190.89ZM184.011 137.632L201.291 127.572V107.454L192.651 112.484L184.011 117.513V137.632ZM183.374 116.771V96.6531L173.5 90.9041L166.094 86.5928V105.683C166.629 105.825 167.026 106.312 167.026 106.897C167.026 107.011 167.005 107.12 166.977 107.226L183.374 116.771ZM165.457 127.574V108.111C165.239 108.053 165.043 107.941 164.888 107.784L148.177 117.513V136.976C148.394 137.034 148.59 137.146 148.745 137.302L165.457 127.574ZM165.457 148.806L148.745 139.077C148.591 139.234 148.395 139.346 148.177 139.404V158.865L148.495 159.05L148.494 159.051L165.457 168.926V148.806ZM165.457 190.528L148.177 180.468V200.587L165.457 210.646V190.528ZM148.177 179.726L165.457 189.785V169.667L148.177 159.607V179.726ZM183.402 221.073V201.75C182.867 201.607 182.47 201.12 182.47 200.535C182.47 200.495 182.479 200.457 182.482 200.418L166.122 190.892V211.013L183.402 221.073ZM148.205 241.935L165.485 231.875V211.755L148.205 221.815V241.935ZM130.258 209.988C130.477 210.047 130.673 210.158 130.827 210.315L147.54 200.587V180.469L130.258 190.529V209.988ZM147.54 179.726V159.606L130.258 169.667V189.785L147.54 179.726ZM129.94 169.111L147.221 159.05L129.941 148.99L129.622 149.176V149.175L112.659 159.05L129.94 169.111ZM94.1058 148.989L76.8251 159.05L93.7874 168.925L94.1058 169.111L94.4242 168.925L111.386 159.05L94.1058 148.989ZM111.704 180.097L94.4235 170.037V190.157L111.704 200.217V180.097ZM112.341 242.311L129.622 252.371V232.252L112.341 222.192V242.311ZM111.704 221.451V201.33L94.4235 211.391V231.511L111.704 221.451ZM93.4683 232.067L77.0754 222.523C76.9213 222.68 76.7245 222.792 76.5067 222.85V241.942L93.4683 232.067ZM75.8699 220.422V201.33L58.5886 211.39V231.509L74.986 221.963C74.958 221.858 74.9382 221.75 74.9382 221.636C74.9382 221.051 75.3343 220.565 75.8699 220.422ZM57.9518 252.365V232.251L40.6712 222.19V242.306L57.9518 252.365ZM22.7543 231.88L40.035 241.939V221.82L22.7543 211.76V231.88ZM22.1175 211.019V190.899L4.8369 200.959V220.422C5.0547 220.48 5.25084 220.592 5.40494 220.748L22.1175 211.019ZM-229.059 89.77L-211.142 79.3386L-228.582 69.1852L-228.741 69.0927V48.2305L-229.059 48.0456L-228.741 47.86V26.9978L-211.149 16.7564L-228.596 6.59982L-228.755 6.508V-15.094L-210.36 -4.38512L-210.201 -4.29266V16.2055L-210.187 16.1971V37.4305L-193.475 47.1594C-193.32 47.0028 -193.124 46.8904 -192.906 46.8326V6.14134L-174.988 -4.28944V-25.1504L-157.953 -35.0668C-157.982 -35.1734 -158.003 -35.2832 -158.003 -35.3982C-158.003 -35.5125 -157.982 -35.6216 -157.954 -35.727L-174.829 -45.5503L-174.988 -45.6428V-66.1255L-192.255 -56.0742V-13.9818L-209.604 -24.0812C-209.831 -23.8507 -210.144 -23.7082 -210.492 -23.7082C-211.182 -23.7082 -211.742 -24.2726 -211.742 -24.9687C-211.742 -25.553 -211.345 -26.0404 -210.81 -26.1829V-66.4819L-228.597 -76.8369L-228.756 -76.9293V-98.5339L-210.809 -88.0858V-88.1063L-192.574 -77.4906L-174.338 -88.1063V-66.8671L-156.593 -56.5372L-156.434 -56.4447V-36.6124C-155.899 -36.4699 -155.503 -35.9825 -155.503 -35.3982C-155.503 -34.8138 -155.899 -34.3271 -156.434 -34.1839V-14.3484L-174.352 -3.9183V16.5721L-157.071 26.6318V6.13814L-139.154 -4.2933V-4.66446L-138.835 -4.47888L-138.517 -4.66382V-4.29395L-120.759 6.04501L-120.6 6.13748V27.7414L-137.947 17.6419C-138.174 17.8725 -138.488 18.0163 -138.836 18.0163C-139.184 18.0163 -139.497 17.8731 -139.724 17.6419L-156.435 27.3696V69.4658L-174.671 58.8495L-192.27 69.094L-209.869 79.3392L-192.589 89.3995L-192.27 89.2139V89.5851L-191.952 89.7707L-192.27 89.9563V110.818L-210.188 121.249V140.712C-209.653 140.854 -209.256 141.341 -209.256 141.926C-209.256 142.622 -209.816 143.186 -210.506 143.186C-211.197 143.186 -211.756 142.622 -211.756 141.926C-211.756 141.812 -211.737 141.702 -211.708 141.597L-228.583 131.773L-228.742 131.68V110.077L-210.825 120.508V100.388L-229.059 89.77ZM-210.838 -3.92216L-228.119 -13.9818V6.13686L-210.838 16.1965V-3.92216ZM-228.104 68.7222L-210.823 78.7825V58.6626L-228.104 48.6023V68.7222ZM-228.104 47.4901L-210.823 37.4299V17.3093L-228.104 27.3702V47.4901ZM-210.505 37.9859L-227.786 48.0462L-219.936 52.6163L-210.506 58.1065L-193.789 48.375C-193.817 48.2697 -193.838 48.1612 -193.838 48.0462C-193.838 47.9313 -193.817 47.8228 -193.789 47.7175L-210.505 37.9859ZM-192.27 27.3728V46.8326C-192.051 46.891 -191.855 47.0028 -191.7 47.1601L-183.629 42.4616L-174.988 37.4318V17.3132L-183.629 22.343L-192.27 27.3728ZM-192.892 -56.0742L-210.173 -66.1338V-46.0145L-192.892 -35.9549V-56.0742ZM-192.892 -15.094V-35.2126L-210.173 -45.2722V-26.1823C-209.638 -26.0391 -209.242 -25.5524 -209.242 -24.968C-209.242 -24.8537 -209.261 -24.7446 -209.29 -24.6393L-192.892 -15.094ZM-210.838 -87.3608L-228.119 -97.4211V-77.3005L-210.838 -67.2402V-87.3608ZM-210.173 -66.8755L-192.892 -56.8158V-76.9345L-210.173 -86.9941V-66.8755ZM-174.974 -86.9941L-192.255 -76.9345V-56.8158L-174.988 -66.8671V-67.246L-174.975 -67.2383V-86.9941H-174.974ZM-174.352 -66.1338V-46.0145L-157.64 -36.2862C-157.486 -36.4429 -157.289 -36.5547 -157.072 -36.6131V-56.0742L-174.352 -66.1338ZM-157.071 -14.7202V-34.1845C-157.288 -34.2423 -157.484 -34.3534 -157.638 -34.5088L-174.352 -24.7792V-4.6606L-157.071 -14.7202ZM-192.27 6.51186V26.6305L-183.629 21.6007L-174.989 16.5708V-3.54843L-192.27 6.51186ZM-121.237 26.6279V6.508L-138.517 -3.55228V15.5409C-137.982 15.6834 -137.586 16.1702 -137.586 16.7551C-137.586 16.8694 -137.605 16.9773 -137.634 17.0826L-121.237 26.6279ZM-139.154 15.5409V-3.55164L-156.434 6.50864V26.6273L-140.037 17.082C-140.065 16.9773 -140.085 16.8688 -140.085 16.7545C-140.085 16.1708 -139.689 15.6834 -139.154 15.5409ZM-157.071 27.3728L-174.352 17.3132V37.4305L-157.071 47.4908V27.3728ZM-157.071 48.2331L-174.352 38.1734V58.2934L-157.071 68.3537V48.2331ZM-174.988 58.2921V38.1734L-183.629 43.2033L-191.386 47.7188C-191.358 47.8241 -191.337 47.9319 -191.337 48.0462C-191.337 48.6306 -191.734 49.1173 -192.269 49.2605V68.3517L-174.988 58.2921ZM-192.907 49.2598C-193.124 49.2014 -193.321 49.0897 -193.475 48.933L-210.187 58.662V78.7819L-192.907 68.7216V49.2598ZM-210.187 79.8947L-210.505 79.7098L-210.823 79.8953V79.8947L-227.786 89.77L-210.506 99.8303L-193.225 89.77L-210.187 79.8947ZM-192.907 90.3268L-210.187 100.387V120.507L-192.907 110.447V90.3268ZM-228.104 111.188V131.308L-211.392 141.037C-211.238 140.881 -211.042 140.769 -210.824 140.711V121.249L-228.104 111.188ZM-122.168 -14.5379C-122.168 -14.6522 -122.148 -14.7613 -122.12 -14.8667L-138.995 -24.6906L-139.154 -24.7831V-66.4831L-155.766 -76.1543C-155.992 -75.8339 -156.362 -75.6239 -156.781 -75.6239C-157.472 -75.6239 -158.031 -76.1883 -158.031 -76.8844C-158.031 -77.4687 -157.635 -77.9561 -157.1 -78.0987V-98.5352L-139.182 -88.1024V-108.594L-120.628 -119.395V-97.7916L-138.209 -87.5566L-120.918 -77.4906L-104.202 -87.2214C-104.23 -87.3268 -104.25 -87.4353 -104.25 -87.5502C-104.25 -88.2463 -103.691 -88.8107 -103 -88.8107C-102.31 -88.8107 -101.75 -88.2463 -101.75 -87.5502C-101.75 -86.9659 -102.146 -86.4785 -102.682 -86.3359V-67.2466L-102.681 -46.0133L-85.0828 -35.7687L-67.8022 -45.829L-85.242 -55.983L-85.4012 -56.0755V-76.9364L-85.7196 -77.122L-85.4012 -77.3076V-97.7986L-103.159 -108.136L-103.319 -108.229V-129.832L-84.9236 -119.123L-84.7644 -119.031V-98.5403L-67.4837 -108.601V-108.971L-67.1653 -108.786L-48.9295 -119.403V-99.1985C-48.7111 -99.1401 -48.5143 -99.0277 -48.3595 -98.871L-31.6482 -108.599V-129.826L-13.7307 -119.395V-119.399L4.6637 -108.69L4.82289 -108.598V-88.1082L22.1035 -98.1679V-98.5384L22.4219 -98.3534L22.7403 -98.5384V-98.1679L40.3388 -87.9239L58.5753 -98.539V-77.3076L75.8553 -67.2479V-87.7396L94.4095 -98.5409L112.327 -108.972V-87.7384L129.039 -78.0101C129.266 -78.2399 129.579 -78.3831 129.926 -78.3831C130.616 -78.3831 131.176 -77.8187 131.176 -77.1226C131.176 -76.4266 130.616 -75.8621 129.926 -75.8621C129.579 -75.8621 129.265 -76.0053 129.039 -76.2352L112.327 -66.5063V-45.2729L93.9319 -55.983L93.7727 -56.0755V-76.5665L76.4921 -66.5069V-45.2755L59.1439 -55.3749C58.9898 -55.2182 58.793 -55.1059 58.5753 -55.0481V-35.2158L40.0203 -24.4152V-45.2755L22.1029 -34.8447V-56.4479L39.7013 -66.6925L22.4226 -76.7515L4.18608 -66.1345V-87.3666L-13.0946 -97.4262V-56.4428L4.6637 -46.1044L4.82289 -46.012V-24.4075L-12.5259 -34.5075C-12.7526 -34.277 -13.0659 -34.1345 -13.413 -34.1345C-14.1033 -34.1345 -14.663 -34.6989 -14.663 -35.395C-14.663 -35.9793 -14.2663 -36.466 -13.7314 -36.6092V-56.0735L-31.4896 -66.4125L-31.6488 -66.505V-86.996L-48.9301 -76.9364V-57.4734C-48.3952 -57.3308 -47.9984 -56.8441 -47.9984 -56.2591C-47.9984 -56.1448 -48.0188 -56.0363 -48.0468 -55.9303L-31.1719 -46.1064L-31.0127 -46.0145V-24.4119L-49.2485 -35.0277L-67.1666 -24.5962L-85.0841 -35.027L-103.002 -24.5962L-120.601 -34.8415V-15.7515C-120.066 -15.609 -119.67 -15.1222 -119.67 -14.5372C-119.67 -13.8412 -120.229 -13.2767 -120.92 -13.2767C-121.609 -13.2774 -122.168 -13.8418 -122.168 -14.5379ZM-138.517 -25.1536L-121.805 -15.4253C-121.651 -15.582 -121.455 -15.6937 -121.236 -15.7522V-35.2126L-121.555 -35.3982L-138.517 -45.2729V-25.1536ZM-103.319 -66.1338L-120.6 -56.0742V-35.9543L-103.319 -46.0145V-66.1338ZM-121.237 -56.0742L-138.517 -66.1338V-46.0145L-121.237 -35.9549V-56.0742ZM-138.517 -66.8755L-121.236 -56.8158V-76.9345L-138.517 -86.9941V-66.8755ZM-156.462 -97.4211V-78.0967C-155.927 -77.9542 -155.531 -77.4675 -155.531 -76.8831C-155.531 -76.8427 -155.539 -76.8048 -155.543 -76.765L-139.182 -67.2402V-87.3608L-156.462 -97.4211ZM-121.265 -118.283L-138.545 -108.223V-88.1031L-121.265 -98.1634V-118.283ZM-103.319 -86.3359C-103.537 -86.3944 -103.734 -86.5061 -103.888 -86.6628L-120.6 -76.9338V-56.8158L-103.319 -66.8755V-86.3359ZM-67.166 -67.0617L-49.8853 -77.122L-57.7354 -81.692L-67.1653 -87.1823L-84.446 -77.122L-76.5959 -72.5519L-67.166 -67.0617ZM-49.5669 -96.7699C-49.7847 -96.8284 -49.9809 -96.9401 -50.1356 -97.0968L-66.5291 -87.5534L-49.5669 -77.6781V-96.7699ZM-66.8469 -88.1089L-50.4496 -97.6548C-50.4776 -97.7601 -50.498 -97.8693 -50.498 -97.9836C-50.498 -98.0979 -50.4776 -98.2064 -50.4496 -98.3117L-66.8469 -107.858V-88.1089ZM-66.8469 -66.5056V-46.385L-50.4496 -55.9316C-50.4776 -56.0369 -50.498 -56.1455 -50.498 -56.2591C-50.498 -56.8435 -50.1019 -57.3302 -49.5663 -57.4734V-76.5659L-66.8469 -66.5056ZM-49.5669 -55.0455C-49.7853 -55.1039 -49.9815 -55.2157 -50.1362 -55.373L-66.5291 -45.829L-49.5669 -35.9543V-55.0455ZM-84.7644 -56.446L-67.4837 -46.385V-66.5056L-84.7644 -76.5659V-56.446ZM-85.4012 -118.659L-102.682 -128.719V-108.599L-85.4012 -98.5397V-118.659ZM-84.7644 -97.798V-77.6781L-67.4837 -87.7384V-107.858L-84.7644 -97.798ZM-66.5285 -108.414L-50.1356 -98.8704C-49.9815 -99.0277 -49.7847 -99.1394 -49.5663 -99.1978V-118.29L-66.5285 -108.414ZM-31.012 -128.713V-108.598L-13.7314 -98.5384V-118.653L-31.012 -128.713ZM22.7397 -97.4268V-77.3082L40.0203 -67.2486V-87.3672L22.7397 -97.4268ZM57.9384 -97.4268L40.6572 -87.3672V-67.2486L49.2975 -72.2784L57.9378 -77.3082V-97.4268H57.9384ZM40.6572 -46.3883L49.2975 -51.4181L57.0545 -55.9336C57.0259 -56.0389 57.0061 -56.1474 57.0061 -56.2623C57.0061 -56.8467 57.4029 -57.3341 57.9378 -57.4766V-76.5672L49.2975 -71.5374L40.6572 -66.5075V-46.3883ZM76.4921 -67.2486L93.7727 -77.3088V-97.4288L76.4921 -87.3685V-67.2486ZM111.69 -107.86L94.4095 -97.7986V-77.6787L111.69 -87.739V-107.86ZM128.724 -77.4514L112.009 -87.1829L94.7279 -77.1226L102.578 -72.5526L112.009 -67.0623L128.724 -76.7939C128.696 -76.8992 128.676 -77.0083 128.676 -77.1226C128.676 -77.2369 128.696 -77.3461 128.724 -77.4514ZM94.4095 -56.4466L111.69 -46.3857V-66.5063L94.4095 -76.5665V-56.4466ZM75.8553 -46.3883V-66.5069L58.5746 -76.5665V-57.476C59.1095 -57.3334 59.5063 -56.846 59.5063 -56.2617C59.5063 -56.1474 59.4859 -56.0389 59.4579 -55.9329L75.8553 -46.3883ZM40.6572 -25.5267L57.9384 -35.5863V-55.0474C57.72 -55.1052 57.5239 -55.2176 57.3691 -55.3743L49.2975 -50.6758L40.6572 -45.646V-25.5267ZM22.7397 -35.9568L40.0203 -46.0171V-66.1364L22.7397 -56.0768V-35.9568ZM4.82289 -67.2466L22.1035 -77.3069V-97.4268L4.82289 -87.3666V-67.2466ZM4.18608 -88.1082V-108.227L-13.0946 -118.287V-98.1679L4.18608 -88.1082ZM-31.012 -107.852V-87.7377L-13.7314 -77.6781V-97.7929L-31.012 -107.852ZM4.18608 -25.5209V-45.6415L-13.0946 -55.7017V-36.6099C-12.5596 -36.4673 -12.1629 -35.9806 -12.1629 -35.3956C-12.1629 -35.2807 -12.1833 -35.1721 -12.2113 -35.0668L4.18608 -25.5209ZM-31.012 -66.8761L-13.7314 -56.8152V-76.9358L-31.012 -86.996V-66.8761ZM-31.6488 -107.856L-48.0462 -98.3111C-48.0182 -98.2057 -47.9978 -98.0972 -47.9978 -97.9836C-47.9978 -97.3992 -48.3946 -96.9118 -48.9295 -96.7693V-77.6781L-31.6488 -87.7377V-107.856ZM-31.6488 -45.6428L-48.3608 -55.3717C-48.5149 -55.215 -48.7117 -55.1033 -48.9295 -55.0448V-35.5838L-31.6482 -25.5241V-45.6428H-31.6488ZM-67.1653 -25.3373L-49.8847 -35.3975L-66.8469 -45.2722L-67.1653 -45.4578L-67.4837 -45.2722L-84.446 -35.3975L-67.1653 -25.3373ZM-85.7196 -35.3975L-103 -45.4578L-120.281 -35.3975L-103 -25.3373L-85.7196 -35.3975Z" fill="white"/>
</svg>
