<svg width="50" height="50" viewBox="0 0 50 50" fill="none" xmlns="http://www.w3.org/2000/svg">
<g clip-path="url(#clip0_21618_2291)">
<path fill-rule="evenodd" clip-rule="evenodd" d="M7.51363 19.2314V38.0825C7.51363 40.7773 9.71852 42.9822 12.4132 42.9822H18.6881V26.6737C18.6881 25.4061 19.7253 24.3689 20.9929 24.3689H25.882C26.7489 24.3689 27.5079 24.8541 27.9012 25.5662C30.3923 23.5821 33.547 22.3959 36.9792 22.3959C37.7905 22.3959 38.586 22.4632 39.3613 22.5906V19.2314L41.4376 20.7399C42.97 21.8504 45.1124 21.5083 46.2228 19.9758C47.3333 18.4435 46.9912 16.301 45.4587 15.1906L25.5074 0.695183C24.3366 -0.192708 22.6783 -0.254817 21.4268 0.652019L1.41617 15.1907C-0.116249 16.301 -0.458241 18.4435 0.652111 19.9759C1.76246 21.5083 3.90494 21.8505 5.43736 20.74L7.51363 19.2314ZM36.9792 23.9583C44.1704 23.9583 50 29.7879 50 36.9791C50 44.1704 44.1704 50 36.9792 50C29.7879 50 23.9584 44.1704 23.9584 36.9792C23.9584 29.788 29.7879 23.9583 36.9792 23.9583ZM29.3037 37.5928C28.7232 37.0124 28.7232 36.0711 29.3037 35.4906C29.8841 34.91 30.8254 34.91 31.4059 35.4906L35.0886 39.1733L42.5565 31.631C43.1338 31.0505 44.0724 31.0479 44.653 31.6252C45.2335 32.2025 45.2361 33.1411 44.6587 33.7216C41.8203 36.5884 38.994 39.4771 36.1422 42.3291C35.5617 42.9095 34.6204 42.9095 34.0399 42.3291L29.3037 37.5928Z" fill="url(#paint0_linear_21618_2291)"/>
</g>
<defs>
<linearGradient id="paint0_linear_21618_2291" x1="77.4999" y1="25" x2="0.000661799" y2="25.2271" gradientUnits="userSpaceOnUse">
<stop stop-color="#9708CC"/>
<stop offset="1" stop-color="#43CBFF"/>
</linearGradient>
<clipPath id="clip0_21618_2291">
<rect width="50" height="50" fill="white"/>
</clipPath>
</defs>
</svg>
