<svg width="50" height="50" viewBox="0 0 50 50" fill="none" xmlns="http://www.w3.org/2000/svg">
<path d="M46.9416 31.2141V28.0583H32.3937C32.3937 32.1417 29.0834 35.4521 25 35.4521C20.9165 35.4521 17.6062 32.1418 17.6062 28.0583H3.05835V31.2141L9.37554 31.8831C9.76958 33.4983 10.4076 35.018 11.2483 36.4008L7.25337 41.3419L11.7164 45.8049L16.6575 41.81C18.0403 42.6507 19.56 43.2887 21.1752 43.6828L21.8442 50H28.1557L28.8247 43.6828C30.4399 43.2887 31.9596 42.6507 33.3424 41.81L38.2835 45.8049L42.7465 41.3419L38.7516 36.4008C39.5923 35.018 40.2303 33.4983 40.6244 31.8831L46.9416 31.2141Z" fill="#6A5ACD"/>
<path d="M25 0C21.8751 0 19.3328 2.54238 19.3328 5.66729C19.3328 8.79219 21.8751 11.3345 25 11.3345C28.125 11.3345 30.6673 8.79219 30.6673 5.66729C30.6673 2.54238 28.125 0 25 0Z" fill="#6A5ACD"/>
<path d="M31.034 12.9014H18.9662C16.188 12.9015 13.9277 15.1616 13.9277 17.9398V25.1287H36.0725V17.9398C36.0725 15.1616 33.8122 12.9014 31.034 12.9014Z" fill="#6A5ACD"/>
<path d="M12.9772 2.61792C10.1778 2.61792 7.90039 4.89546 7.90039 7.69478C7.90039 10.4716 10.1417 12.7336 12.9102 12.7699C14.0566 11.4289 15.6386 10.4717 17.4358 10.1207C17.8298 9.39946 18.0541 8.5729 18.0541 7.69478C18.0541 4.89536 15.7767 2.61792 12.9772 2.61792Z" fill="#6A5ACD"/>
<path d="M7.57192 14.1753C5.08315 14.1753 3.05835 16.2 3.05835 18.6889V25.1288H10.9979V17.9398C10.9979 16.579 11.3415 15.2971 11.9455 14.1753H7.57192Z" fill="#6A5ACD"/>
<path d="M37.0227 2.61792C34.2232 2.61792 31.9458 4.89546 31.9458 7.69478C31.9458 8.5728 32.17 9.39946 32.564 10.1207C34.3613 10.4717 35.9433 11.4289 37.0897 12.7699C39.8582 12.7337 42.0995 10.4716 42.0995 7.69478C42.0995 4.89536 39.8221 2.61792 37.0227 2.61792Z" fill="#6A5ACD"/>
<path d="M42.428 14.1753H38.0544C38.6584 15.2971 39.002 16.579 39.002 17.9398V25.1287H46.9416V18.6888C46.9416 16.2 44.9167 14.1753 42.428 14.1753Z" fill="#6A5ACD"/>
</svg>
