<svg width="50" height="50" viewBox="0 0 50 50" fill="none" xmlns="http://www.w3.org/2000/svg">
<g clip-path="url(#clip0_21618_2251)">
<path fill-rule="evenodd" clip-rule="evenodd" d="M25.3067 7.31856L26.8811 11.4654C26.9285 11.5901 27.0386 11.6701 27.1718 11.6767L31.6022 11.8926C31.741 11.8993 31.8552 11.9867 31.8982 12.1189C31.9411 12.251 31.9001 12.3889 31.7918 12.4759L28.3344 15.2547C28.2305 15.3382 28.1884 15.4678 28.2234 15.5964L29.3871 19.8767C29.4235 20.0107 29.3757 20.1464 29.2633 20.228C29.1509 20.3097 29.0072 20.3132 28.8909 20.2371L25.1797 17.8077C25.0681 17.7347 24.9319 17.7347 24.8204 17.8077L21.1092 20.2371C20.993 20.3132 20.8492 20.3097 20.7369 20.228C20.6245 20.1464 20.5767 20.0106 20.6131 19.8767L21.7768 15.5964C21.8118 15.4678 21.7697 15.3382 21.6658 15.2547L18.2085 12.4759C18.1002 12.3889 18.059 12.251 18.102 12.1189C18.1449 11.9867 18.2592 11.8994 18.398 11.8926L22.8284 11.6767C22.9616 11.6702 23.0717 11.5901 23.119 11.4654L24.6934 7.31856C24.7427 7.18867 24.8611 7.10703 25.0001 7.10703C25.139 7.10703 25.2574 7.18867 25.3067 7.31856ZM16.7262 6.01397L19.4973 8.50918C19.8175 8.79737 20.3108 8.77139 20.599 8.45117C20.8872 8.13096 20.8612 7.6377 20.541 7.34951L17.7699 4.8543C17.4497 4.56611 16.9564 4.59209 16.6682 4.91231C16.38 5.23252 16.4059 5.72578 16.7262 6.01397ZM32.2301 4.8543L29.4428 7.36406C29.1226 7.65225 29.0966 8.14551 29.3848 8.46572C29.673 8.78594 30.1663 8.81192 30.4865 8.52373L33.2738 6.01397C33.594 5.72578 33.62 5.23252 33.3318 4.91231C33.0435 4.59209 32.5504 4.56611 32.2301 4.8543ZM25.7813 4.20498C25.7813 4.63643 25.4315 4.98623 25.0001 4.98623C24.5686 4.98623 24.2188 4.63643 24.2188 4.20498V1.33789C24.2188 0.906445 24.5686 0.556641 25.0001 0.556641C25.4315 0.556641 25.7813 0.906445 25.7813 1.33789V4.20498ZM25.0001 22.7439C28.0273 22.7439 30.4814 25.198 30.4814 28.2251C30.4814 31.2523 28.0273 33.7065 25.0001 33.7065C21.9728 33.7065 19.5188 31.2523 19.5188 28.2251C19.5188 25.1979 21.9728 22.7439 25.0001 22.7439ZM35.7786 44.3575C35.1965 38.9189 30.5931 34.683 25.0001 34.683C19.4069 34.683 14.8035 38.9189 14.2214 44.3576V46.5488C14.2214 48.1445 15.5229 49.446 17.1186 49.446H32.8814C34.4771 49.446 35.7786 48.1445 35.7786 46.5488V44.3575ZM41.3817 26.7243C43.6464 26.7243 45.4824 28.5604 45.4824 30.825C45.4824 33.0898 43.6464 34.9257 41.3817 34.9257C39.117 34.9257 37.281 33.0898 37.281 30.825C37.2809 28.5604 39.1169 26.7243 41.3817 26.7243ZM8.61842 26.7243C10.8832 26.7243 12.7191 28.5604 12.7191 30.825C12.7191 33.0898 10.8832 34.9257 8.61842 34.9257C6.35368 34.9257 4.51774 33.0898 4.51774 30.825C4.51774 28.5604 6.35368 26.7243 8.61842 26.7243ZM8.61832 36.0211C11.0082 36.0211 13.1565 37.0547 14.6409 38.6992C13.5933 40.2854 12.8987 42.1312 12.6749 44.1317H2.6403C2.03219 44.1317 1.50895 43.8674 1.14811 43.3779C0.78727 42.8885 0.689516 42.3105 0.869399 41.7295C1.89332 38.423 4.97545 36.0211 8.61832 36.0211ZM41.3816 36.0211C45.0247 36.0211 48.1067 38.423 49.1305 41.7295C49.3104 42.3105 49.2127 42.8884 48.8518 43.3779C48.491 43.8675 47.9678 44.1317 47.3596 44.1317H37.3251C37.1012 42.1312 36.4065 40.2855 35.359 38.6992C36.8435 37.0547 38.9919 36.0211 41.3816 36.0211ZM8.0027 7.31856L9.57711 11.4654C9.62448 11.5901 9.73463 11.6701 9.86784 11.6767L14.2982 11.8926C14.437 11.8993 14.5512 11.9867 14.5942 12.1189C14.6371 12.251 14.5961 12.3889 14.4878 12.4759L11.0304 15.2547C10.9265 15.3382 10.8844 15.4678 10.9194 15.5964L12.0831 19.8767C12.1195 20.0107 12.0717 20.1464 11.9593 20.228C11.8469 20.3097 11.7032 20.3132 11.5869 20.2371L7.87565 17.8077C7.76412 17.7347 7.62789 17.7347 7.51637 17.8077L3.80524 20.2371C3.68903 20.3132 3.54518 20.3097 3.43288 20.228C3.32047 20.1464 3.27272 20.0106 3.30914 19.8767L4.47282 15.5964C4.50778 15.4678 4.46569 15.3382 4.36178 15.2547L0.904457 12.4758C0.796157 12.3888 0.755043 12.2509 0.798012 12.1188C0.840883 11.9866 0.955239 11.8993 1.09401 11.8925L5.52438 11.6766C5.65758 11.6701 5.76774 11.59 5.815 11.4653L7.38951 7.31856C7.43883 7.18867 7.55719 7.10703 7.69616 7.10703C7.83512 7.10703 7.95338 7.18867 8.0027 7.31856ZM42.5589 7.31856L44.1334 11.4654C44.1807 11.5901 44.2909 11.6701 44.4241 11.6767L48.8545 11.8926C48.9932 11.8993 49.1075 11.9867 49.1505 12.1189C49.1933 12.251 49.1523 12.3889 49.044 12.4759L45.5867 15.2547C45.4828 15.3382 45.4407 15.4678 45.4756 15.5964L46.6393 19.8767C46.6757 20.0107 46.628 20.1464 46.5157 20.228C46.4033 20.3097 46.2595 20.3132 46.1432 20.2371L42.432 17.8077C42.3205 17.7347 42.1842 17.7347 42.0727 17.8077L38.3616 20.2371C38.2454 20.3132 38.1015 20.3097 37.9891 20.228C37.8767 20.1464 37.829 20.0106 37.8654 19.8767L39.0291 15.5964C39.064 15.4678 39.0219 15.3382 38.918 15.2547L35.4607 12.4759C35.3524 12.3889 35.3113 12.251 35.3543 12.1189C35.3971 11.9867 35.5115 11.8994 35.6503 11.8926L40.0806 11.6767C40.2138 11.6702 40.324 11.5901 40.3713 11.4654L41.9457 7.31856C41.995 7.18867 42.1133 7.10703 42.2523 7.10703C42.3913 7.10703 42.5096 7.18867 42.5589 7.31856Z" fill="url(#paint0_linear_21618_2251)"/>
</g>
<defs>
<linearGradient id="paint0_linear_21618_2251" x1="75.8589" y1="25.0013" x2="0.781879" y2="25.2193" gradientUnits="userSpaceOnUse">
<stop stop-color="#9708CC"/>
<stop offset="1" stop-color="#43CBFF"/>
</linearGradient>
<clipPath id="clip0_21618_2251">
<rect width="50" height="50" fill="white"/>
</clipPath>
</defs>
</svg>
