<svg width="50" height="50" viewBox="0 0 50 50" fill="none" xmlns="http://www.w3.org/2000/svg">
<path fill-rule="evenodd" clip-rule="evenodd" d="M38.1437 26.6606L38.9104 28.5064C39.2083 28.6564 39.4979 28.8231 39.775 29.0064L41.7583 28.746C42.2771 28.6794 42.7937 28.8752 43.1375 29.2689C44.0687 30.3356 44.7854 31.5752 45.2437 32.9148C45.4125 33.4106 45.3229 33.9564 45.0062 34.371C45.0062 34.371 43.7896 35.9606 43.7896 35.9585C43.8083 36.2919 43.8083 36.6273 43.7896 36.9564L45.0062 38.546C45.3229 38.9606 45.4125 39.5064 45.2437 40.0023C44.7854 41.3419 44.0687 42.5814 43.1375 43.6481C42.7937 44.0419 42.2771 44.2377 41.7583 44.171L39.775 43.9106C39.4958 44.0939 39.2062 44.2606 38.9104 44.4106L38.1437 46.2564C37.9437 46.7398 37.5146 47.0898 37.0021 47.1919C35.6104 47.4648 34.1812 47.4648 32.7896 47.1919C32.2771 47.0898 31.8479 46.7398 31.6479 46.2564L30.8812 44.4106C30.5833 44.2606 30.2937 44.0939 30.0167 43.9106L28.0333 44.171C27.5146 44.2377 26.9979 44.0419 26.6542 43.6481C25.7229 42.5814 25.0062 41.3419 24.5479 40.0023C24.3792 39.5064 24.4687 38.9606 24.7854 38.546C24.7854 38.546 26.0021 36.9564 26.0021 36.9585C25.9833 36.6252 25.9833 36.2898 26.0021 35.9606L24.7854 34.371C24.4687 33.9564 24.3792 33.4106 24.5479 32.9148C25.0062 31.5752 25.7229 30.3356 26.6542 29.2689C26.9979 28.8752 27.5146 28.6794 28.0333 28.746L30.0167 29.0064C30.2958 28.8231 30.5854 28.6564 30.8812 28.5064L31.6479 26.6606C31.8479 26.1773 32.2771 25.8273 32.7896 25.7252C34.1812 25.4523 35.6104 25.4523 37.0021 25.7252C37.5146 25.8273 37.9437 26.1773 38.1437 26.6606ZM34.8958 33.8544C33.4583 33.8544 32.2917 35.021 32.2917 36.4585C32.2917 37.896 33.4583 39.0627 34.8958 39.0627C36.3333 39.0627 37.5 37.896 37.5 36.4585C37.5 35.021 36.3333 33.8544 34.8958 33.8544Z" fill="#6A5ACD"/>
<path fill-rule="evenodd" clip-rule="evenodd" d="M29.8854 47.3959H10.402C8.88118 47.3959 7.42493 46.7918 6.34993 45.7188C5.27494 44.6438 4.67285 43.1855 4.67285 41.6668V8.33342C4.67285 6.81467 5.27494 5.35633 6.34993 4.28133C7.42493 3.20841 8.88118 2.60425 10.402 2.60425H28.2874C29.2562 2.60425 30.1833 2.98758 30.8666 3.673L40.0624 12.8688C40.7458 13.5522 41.1312 14.4792 41.1312 15.4459V26.7272L40.4645 26.8147C40.2687 26.3418 40.0687 25.8605 40.0687 25.8605C39.5999 24.7334 38.5999 23.9167 37.402 23.6813C35.7478 23.3563 34.0437 23.3563 32.3895 23.6813C31.1916 23.9167 30.1916 24.7334 29.7229 25.8605L29.327 26.8147C28.8208 26.748 28.3041 26.6813 28.3041 26.6813C27.0937 26.523 25.8854 26.9792 25.0833 27.898C23.9749 29.1709 23.1229 30.6438 22.577 32.2418C22.1812 33.3938 22.3895 34.6709 23.1312 35.6376L23.7603 36.4584C23.4499 36.8647 23.1312 37.2792 23.1312 37.2792C22.3895 38.2459 22.1812 39.523 22.577 40.6751C23.1229 42.273 23.9749 43.7459 25.0833 45.0188C25.8854 45.9376 27.0937 46.3938 28.3041 46.2355L29.327 46.1022C29.5229 46.5751 29.7229 47.0563 29.7229 47.0563C29.7729 47.173 29.827 47.2855 29.8854 47.3959ZM28.1104 5.39591V13.5417C28.1104 14.6917 29.0416 15.6251 30.1937 15.6251H38.3395C38.2374 15.4001 38.0937 15.1938 37.9166 15.0147L28.7208 5.81883C28.5416 5.63966 28.3354 5.498 28.1104 5.39591ZM12.4854 16.1063H21.8604C22.7229 16.1063 23.4229 15.4063 23.4229 14.5438C23.4229 13.6813 22.7229 12.9813 21.8604 12.9813H12.4854C11.6229 12.9813 10.9229 13.6813 10.9229 14.5438C10.9229 15.4063 11.6229 16.1063 12.4854 16.1063ZM12.4854 38.0209H19.777C20.6395 38.0209 21.3395 37.3209 21.3395 36.4584C21.3395 35.5959 20.6395 34.8959 19.777 34.8959H12.4854C11.6229 34.8959 10.9229 35.5959 10.9229 36.4584C10.9229 37.3209 11.6229 38.0209 12.4854 38.0209ZM12.4854 30.7292H19.777C20.6395 30.7292 21.3395 30.0293 21.3395 29.1667C21.3395 28.3043 20.6395 27.6042 19.777 27.6042H12.4854C11.6229 27.6042 10.9229 28.3043 10.9229 29.1667C10.9229 30.0293 11.6229 30.7292 12.4854 30.7292ZM12.4854 23.4376H27.0687C27.9312 23.4376 28.6312 22.7376 28.6312 21.8751C28.6312 21.0126 27.9312 20.3126 27.0687 20.3126H12.4854C11.6229 20.3126 10.9229 21.0126 10.9229 21.8751C10.9229 22.7376 11.6229 23.4376 12.4854 23.4376Z" fill="#6A5ACD"/>
</svg>
