<svg width="50" height="50" viewBox="0 0 50 50" fill="none" xmlns="http://www.w3.org/2000/svg">
<g clip-path="url(#clip0_21773_84)">
<path d="M46.9416 31.2144V28.0586H32.3937C32.3937 32.142 29.0834 35.4523 25 35.4523C20.9165 35.4523 17.6062 32.1421 17.6062 28.0586H3.05835V31.2144L9.37554 31.8833C9.76958 33.4985 10.4076 35.0183 11.2483 36.4011L7.25337 41.3422L11.7164 45.8052L16.6575 41.8103C18.0403 42.651 19.56 43.289 21.1752 43.683L21.8442 50.0002H28.1557L28.8247 43.683C30.4399 43.289 31.9596 42.651 33.3424 41.8103L38.2835 45.8052L42.7465 41.3422L38.7516 36.4011C39.5923 35.0183 40.2303 33.4985 40.6244 31.8833L46.9416 31.2144Z" fill="url(#paint0_linear_21773_84)"/>
<path d="M25 0C21.8751 0 19.3328 2.54238 19.3328 5.66729C19.3328 8.79219 21.8751 11.3345 25 11.3345C28.125 11.3345 30.6673 8.79219 30.6673 5.66729C30.6673 2.54238 28.125 0 25 0Z" fill="url(#paint1_linear_21773_84)"/>
<path d="M31.034 12.9014H18.9662C16.188 12.9015 13.9277 15.1616 13.9277 17.9398V25.1287H36.0725V17.9398C36.0725 15.1616 33.8122 12.9014 31.034 12.9014Z" fill="url(#paint2_linear_21773_84)"/>
<path d="M12.9772 2.61816C10.1778 2.61816 7.90039 4.8957 7.90039 7.69502C7.90039 10.4719 10.1417 12.7339 12.9102 12.7701C14.0566 11.4291 15.6386 10.472 17.4358 10.1209C17.8298 9.39971 18.0541 8.57314 18.0541 7.69502C18.0541 4.89561 15.7767 2.61816 12.9772 2.61816Z" fill="url(#paint3_linear_21773_84)"/>
<path d="M7.57192 14.1753C5.08315 14.1753 3.05835 16.2 3.05835 18.6889V25.1288H10.9979V17.9398C10.9979 16.579 11.3415 15.2971 11.9455 14.1753H7.57192Z" fill="url(#paint4_linear_21773_84)"/>
<path d="M37.0227 2.61816C34.2232 2.61816 31.9458 4.8957 31.9458 7.69502C31.9458 8.57305 32.17 9.39971 32.564 10.1209C34.3613 10.472 35.9433 11.4291 37.0897 12.7701C39.8582 12.734 42.0995 10.4719 42.0995 7.69502C42.0995 4.89561 39.8221 2.61816 37.0227 2.61816Z" fill="url(#paint5_linear_21773_84)"/>
<path d="M42.428 14.1753H38.0544C38.6584 15.2971 39.002 16.579 39.002 17.9398V25.1287H46.9416V18.6888C46.9416 16.2 44.9167 14.1753 42.428 14.1753Z" fill="url(#paint6_linear_21773_84)"/>
</g>
<defs>
<linearGradient id="paint0_linear_21773_84" x1="71.0773" y1="39.0294" x2="3.06068" y2="39.4281" gradientUnits="userSpaceOnUse">
<stop stop-color="#9708CC"/>
<stop offset="1" stop-color="#43CBFF"/>
</linearGradient>
<linearGradient id="paint1_linear_21773_84" x1="36.9013" y1="5.66724" x2="19.3329" y2="5.71873" gradientUnits="userSpaceOnUse">
<stop stop-color="#9708CC"/>
<stop offset="1" stop-color="#43CBFF"/>
</linearGradient>
<linearGradient id="paint2_linear_21773_84" x1="48.2521" y1="19.015" x2="13.9287" y2="19.1972" gradientUnits="userSpaceOnUse">
<stop stop-color="#9708CC"/>
<stop offset="1" stop-color="#43CBFF"/>
</linearGradient>
<linearGradient id="paint3_linear_21773_84" x1="23.6386" y1="7.69414" x2="7.90053" y2="7.74028" gradientUnits="userSpaceOnUse">
<stop stop-color="#9708CC"/>
<stop offset="1" stop-color="#43CBFF"/>
</linearGradient>
<linearGradient id="paint4_linear_21773_84" x1="16.8334" y1="19.652" x2="3.05843" y2="19.6848" gradientUnits="userSpaceOnUse">
<stop stop-color="#9708CC"/>
<stop offset="1" stop-color="#43CBFF"/>
</linearGradient>
<linearGradient id="paint5_linear_21773_84" x1="47.6841" y1="7.69414" x2="31.9459" y2="7.74028" gradientUnits="userSpaceOnUse">
<stop stop-color="#9708CC"/>
<stop offset="1" stop-color="#43CBFF"/>
</linearGradient>
<linearGradient id="paint6_linear_21773_84" x1="51.8295" y1="19.652" x2="38.0545" y2="19.6848" gradientUnits="userSpaceOnUse">
<stop stop-color="#9708CC"/>
<stop offset="1" stop-color="#43CBFF"/>
</linearGradient>
<clipPath id="clip0_21773_84">
<rect width="50" height="50" fill="white"/>
</clipPath>
</defs>
</svg>
