<svg width="60" height="60" viewBox="0 0 60 60" fill="none" xmlns="http://www.w3.org/2000/svg">
<circle cx="30" cy="30" r="29.5" stroke="url(#paint0_linear_21895_150)" stroke-dasharray="5 5"/>
<g clip-path="url(#clip0_21895_150)">
<path d="M29.9997 44.9994C21.7286 44.9994 15 38.2703 15 29.9997C15 21.7286 21.7286 15 29.9997 15C38.2709 15 45 21.7286 45 29.9997C45 38.2703 38.2709 44.9994 29.9997 44.9994ZM29.9997 16.1538C22.3652 16.1538 16.1538 22.3652 16.1538 29.9997C16.1538 37.6348 22.3652 43.8456 29.9997 43.8456C37.6342 43.8456 43.8462 37.6348 43.8462 29.9997C43.8462 22.3652 37.6342 16.1538 29.9997 16.1538ZM29.9997 39.7712C28.5659 39.7712 27.3991 38.605 27.3991 37.1706V29.6521C27.3991 28.2183 28.5659 27.0515 29.9997 27.0515C31.4335 27.0515 32.6009 28.2183 32.6009 29.6521V37.1706C32.6009 38.605 31.4335 39.7712 29.9997 39.7712ZM29.9997 28.2053C29.202 28.2053 28.5529 28.8543 28.5529 29.6521V37.1706C28.5529 37.9683 29.202 38.6173 29.9997 38.6173C30.798 38.6173 31.4471 37.9683 31.4471 37.1706V29.6521C31.4471 28.8543 30.798 28.2053 29.9997 28.2053ZM29.9997 25.4295C28.5659 25.4295 27.3991 24.2627 27.3991 22.8289C27.3991 21.3945 28.5659 20.2277 29.9997 20.2277C31.4335 20.2277 32.6009 21.3945 32.6009 22.8289C32.6009 24.2627 31.4335 25.4295 29.9997 25.4295ZM29.9997 21.3815C29.202 21.3815 28.5529 22.0306 28.5529 22.8289C28.5529 23.6266 29.202 24.2757 29.9997 24.2757C30.798 24.2757 31.4471 23.6266 31.4471 22.8289C31.4471 22.0306 30.798 21.3815 29.9997 21.3815Z" fill="black"/>
</g>
<defs>
<linearGradient id="paint0_linear_21895_150" x1="4.47035e-08" y1="30" x2="75.375" y2="30" gradientUnits="userSpaceOnUse">
<stop stop-color="#E5087B"/>
<stop offset="1" stop-color="#FDD819"/>
</linearGradient>
<clipPath id="clip0_21895_150">
<rect width="30" height="30" fill="white" transform="translate(15 15)"/>
</clipPath>
</defs>
</svg>
