<svg width="50" height="50" viewBox="0 0 50 50" fill="none" xmlns="http://www.w3.org/2000/svg">
<g clip-path="url(#clip0_21566_781)">
<path d="M20.2038 36.6103L24.822 31.991C27.5739 32.505 30.448 31.6287 32.4385 29.6382C34.5648 27.5107 35.4211 24.3786 34.6723 21.4634C34.5859 21.1242 34.3227 20.8578 33.9855 20.7651C33.6475 20.6725 33.2852 20.7683 33.0377 21.0158L29.537 24.5177L26.3375 23.6604L25.4813 20.4619L28.982 16.9644C29.2295 16.7169 29.3254 16.3557 29.2338 16.0176C29.1411 15.6795 28.8757 15.4173 28.5366 15.3299C25.6235 14.5769 22.4925 15.432 20.364 17.5595C18.3703 19.5531 17.494 22.4272 18.0102 25.1771L13.3898 29.7963C11.5173 25.2444 12.4262 19.808 16.1176 16.1166C21.0159 11.2193 28.9853 11.2193 33.8825 16.1166C37.3749 19.61 38.4881 24.761 36.783 29.3624C33.0885 30.3345 30.1574 33.2107 29.1096 36.8736C26.1627 37.892 22.9958 37.7625 20.2038 36.6103ZM48.4395 39.8541C48.4395 44.7608 44.4469 48.7523 39.5401 48.7523C34.6355 48.7523 30.645 44.7608 30.645 39.8541C30.645 34.9484 34.6355 30.9579 39.5401 30.9579C44.4469 30.9579 48.4395 34.9483 48.4395 39.8541ZM44.8534 35.6635C44.4574 35.298 43.8403 35.3223 43.4738 35.7172L37.7192 41.9394L35.1769 39.5086C34.7883 39.1357 34.17 39.1494 33.7973 39.5392C33.4255 39.9288 33.4392 40.546 33.8288 40.9188L37.0873 44.0362C37.2695 44.21 37.5106 44.3069 37.7613 44.3069C37.7719 44.3069 37.7813 44.3059 37.7919 44.3059C38.0531 44.2984 38.3006 44.1857 38.4786 43.9931L44.9072 37.0421C45.2726 36.6472 45.2483 36.0289 44.8534 35.6635ZM43.4874 19.9554C43.1504 19.8796 42.8786 19.631 42.7733 19.3014C42.4627 18.3313 42.0667 17.3751 41.5959 16.4609C41.4379 16.1534 41.4548 15.7858 41.6391 15.4931L45.1524 9.93232L40.0667 4.84863L34.5049 8.35996C34.2121 8.54424 33.8445 8.56006 33.537 8.40205C32.6249 7.93232 31.6697 7.53633 30.6998 7.22461C30.3702 7.11934 30.1227 6.84756 30.0458 6.51055L28.5956 0.0957031H21.4045L19.9543 6.51055C19.8774 6.84756 19.6289 7.11924 19.3003 7.22461C18.3219 7.53955 17.3678 7.93447 16.4642 8.40098C16.1566 8.55996 15.788 8.54424 15.4963 8.35986L9.93027 4.84854L4.84658 9.93223L8.35781 15.494C8.54209 15.7857 8.55791 16.1544 8.3999 16.4608C7.9292 17.3761 7.53311 18.3312 7.22354 19.3013C7.11826 19.631 6.84648 19.8795 6.50947 19.9553L0.0976562 21.4066V28.5936L6.50947 30.0448C6.84648 30.1207 7.11816 30.3692 7.22354 30.6988C7.53428 31.6709 7.93018 32.6251 8.3999 33.5351C8.55791 33.8415 8.54209 34.2102 8.35781 34.5029L4.84658 40.0679L9.93027 45.1516L15.4963 41.6402C15.7881 41.456 16.1566 41.4401 16.4642 41.5991C17.3678 42.0657 18.3219 42.4606 19.3003 42.7755C19.6289 42.8808 19.8774 43.1525 19.9543 43.4896L21.4045 49.9044H28.5956L29.7931 44.6101C29.0896 43.1735 28.6936 41.559 28.6936 39.8539C28.6936 39.5759 28.7041 39.301 28.7241 39.0293C27.4993 39.3548 26.2502 39.5148 25.0074 39.5148C22.6188 39.5148 20.2576 38.924 18.1429 37.7908C18.0912 37.7687 18.0407 37.7413 17.9923 37.7098C16.8159 37.061 15.7185 36.2438 14.738 35.2633C13.7321 34.2575 12.9055 33.1391 12.2577 31.9478C12.2473 31.9311 12.2377 31.9142 12.2293 31.8963C9.26357 26.3977 10.0997 19.3751 14.738 14.7369C20.3967 9.07822 29.6035 9.07822 35.2622 14.7369C39.0421 18.5167 40.4091 23.9774 38.9483 29.0232C39.1442 29.0127 39.3412 29.0064 39.5402 29.0064C41.1073 29.0064 42.5986 29.3413 43.9457 29.9417L49.9023 28.5936V21.4035L43.4874 19.9554ZM14.3239 31.6225C14.8231 32.4261 15.4203 33.1864 16.1175 33.8836C16.8094 34.5755 17.5698 35.1727 18.3797 35.675L23.8203 30.2332C24.0646 29.9899 24.4196 29.8931 24.7534 29.9783C27.003 30.5565 29.4189 29.8973 31.0588 28.2574C32.2468 27.0694 32.9208 25.4739 32.984 23.8299L30.5185 26.2954C30.271 26.5419 29.9118 26.6388 29.5759 26.5481L25.2895 25.3991C24.9524 25.3096 24.6892 25.0463 24.5985 24.7093L23.4495 20.4218C23.36 20.0858 23.4558 19.7256 23.7033 19.4792L26.1688 17.0158C24.5259 17.077 22.9324 17.751 21.7434 18.9399C20.1015 20.5808 19.4422 22.9968 20.0225 25.2442C20.1088 25.5781 20.0119 25.933 19.7676 26.1773L14.3239 31.6225Z" fill="url(#paint0_linear_21566_781)"/>
</g>
<defs>
<linearGradient id="paint0_linear_21566_781" x1="0.0976562" y1="25" x2="72.0032" y2="25" gradientUnits="userSpaceOnUse">
<stop stop-color="#9708CC"/>
<stop offset="1" stop-color="#43CBFF"/>
</linearGradient>
<clipPath id="clip0_21566_781">
<rect width="50" height="50" fill="white"/>
</clipPath>
</defs>
</svg>
