<svg width="16" height="16" viewBox="0 0 16 16" fill="none" xmlns="http://www.w3.org/2000/svg">
<g clip-path="url(#clip0_22390_18)">
<path d="M6.32763 15.4196C5.44913 15.4196 4.73438 14.7049 4.73438 13.8264C4.73438 12.9479 5.44913 12.2334 6.32763 12.2334C7.20613 12.2334 7.92088 12.9479 7.92088 13.8264C7.92088 14.7049 7.20613 15.4196 6.32763 15.4196ZM6.32763 13.2334C6.00063 13.2334 5.73438 13.4994 5.73438 13.8264C5.73438 14.1536 6.00038 14.4196 6.32763 14.4196C6.65488 14.4196 6.92088 14.1536 6.92088 13.8264C6.92088 13.4994 6.65488 13.2334 6.32763 13.2334Z" fill="white"/>
<path d="M11.8664 15.4196C10.9879 15.4196 10.2734 14.7049 10.2734 13.8264C10.2734 12.9479 10.9879 12.2334 11.8664 12.2334C12.7449 12.2334 13.4597 12.9479 13.4597 13.8264C13.4597 14.7049 12.7447 15.4196 11.8664 15.4196ZM11.8664 13.2334C11.5394 13.2334 11.2734 13.4994 11.2734 13.8264C11.2734 14.1536 11.5394 14.4196 11.8664 14.4196C12.1937 14.4196 12.4597 14.1536 12.4597 13.8264C12.4597 13.4994 12.1934 13.2334 11.8664 13.2334Z" fill="white"/>
<path d="M13.0313 10.9983H5.17656C4.41231 10.9983 3.75956 10.4781 3.58906 9.73308L1.95881 2.61383C1.93731 2.51983 1.87231 2.43933 1.78481 2.39883L0.432562 1.77208C0.119562 1.62708 -0.0166884 1.25558 0.128312 0.942327C0.273312 0.629327 0.645062 0.493077 0.958062 0.638077L2.31031 1.26483C2.74606 1.46658 3.07031 1.86658 3.17731 2.33483L4.80756 9.45458C4.84706 9.62758 4.99881 9.74858 5.17656 9.74858H13.0313C13.2083 9.74858 13.3598 9.62833 13.4003 9.45583L14.6678 4.00258C14.7041 3.84758 14.6381 3.73483 14.5958 3.68158C14.5533 3.62808 14.4583 3.53858 14.2993 3.53858H5.04931C4.70406 3.53858 4.42431 3.25883 4.42431 2.91358C4.42431 2.56833 4.70406 2.28858 5.04931 2.28858H14.2993C14.7991 2.28858 15.2636 2.51283 15.5746 2.90408C15.8856 3.29533 15.9986 3.79883 15.8856 4.28558L14.6178 9.73908C14.4451 10.4803 13.7928 10.9983 13.0313 10.9983Z" fill="white"/>
</g>
<defs>
<clipPath id="clip0_22390_18">
<rect width="16" height="16" fill="white"/>
</clipPath>
</defs>
</svg>
