<svg width="18" height="14" viewBox="0 0 18 14" fill="none" xmlns="http://www.w3.org/2000/svg">
<g id="Layer 2">
<path id="Vector" d="M16.4993 8.04183C16.7756 8.04183 17.0406 7.93208 17.2359 7.73673C17.4313 7.54138 17.541 7.27643 17.541 7.00016C17.541 6.7239 17.4313 6.45894 17.2359 6.26359C17.0406 6.06824 16.7756 5.9585 16.4993 5.9585H1.49935C1.22308 5.9585 0.958128 6.06824 0.762777 6.26359C0.567427 6.45894 0.457682 6.7239 0.457682 7.00016C0.457682 7.27643 0.567427 7.54138 0.762777 7.73673C0.958128 7.93208 1.22308 8.04183 1.49935 8.04183H16.4993Z" fill="white"/>
<path id="Vector_2" d="M11.4998 13.0416C11.6365 13.0422 11.7719 13.0152 11.8979 12.9622C12.0239 12.9092 12.1379 12.8314 12.2331 12.7333L17.2331 7.73331C17.3309 7.63784 17.4086 7.52378 17.4616 7.39784C17.5147 7.27191 17.542 7.13663 17.542 6.99998C17.542 6.86333 17.5147 6.72806 17.4616 6.60212C17.4086 6.47618 17.3309 6.36212 17.2331 6.26665L12.2331 1.26665C12.1368 1.17034 12.0225 1.09395 11.8967 1.04183C11.7708 0.989716 11.636 0.962891 11.4998 0.962891C11.3636 0.962891 11.2287 0.989716 11.1029 1.04183C10.9771 1.09395 10.8628 1.17034 10.7665 1.26665C10.6702 1.36295 10.5938 1.47728 10.5416 1.6031C10.4895 1.72893 10.4627 1.86379 10.4627 1.99998C10.4627 2.13617 10.4895 2.27103 10.5416 2.39686C10.5938 2.52268 10.6702 2.63701 10.7665 2.73331L15.0248 6.99998L10.7665 11.2666C10.6221 11.4123 10.5239 11.5973 10.4842 11.7985C10.4446 11.9998 10.4652 12.2082 10.5435 12.3978C10.6218 12.5873 10.7543 12.7495 10.9244 12.8641C11.0946 12.9786 11.2947 13.0404 11.4998 13.0416Z" fill="white"/>
</g>
</svg>
