<svg width="18" height="14" viewBox="0 0 18 14" fill="none" xmlns="http://www.w3.org/2000/svg">
<g id="Layer 2">
<path id="Vector" d="M1.50065 8.04183C1.22438 8.04183 0.959432 7.93208 0.764081 7.73673C0.568731 7.54138 0.458984 7.27643 0.458984 7.00016C0.458984 6.7239 0.568731 6.45894 0.764081 6.26359C0.959432 6.06824 1.22438 5.9585 1.50065 5.9585H16.5007C16.7769 5.9585 17.0419 6.06824 17.2372 6.26359C17.4326 6.45894 17.5423 6.7239 17.5423 7.00016C17.5423 7.27643 17.4326 7.54138 17.2372 7.73673C17.0419 7.93208 16.7769 8.04183 16.5007 8.04183H1.50065Z" fill="white"/>
<path id="Vector_2" d="M6.50021 13.0416C6.36352 13.0422 6.22813 13.0152 6.10213 12.9622C5.97613 12.9092 5.86211 12.8314 5.76687 12.7333L0.766874 7.73331C0.669107 7.63784 0.591418 7.52378 0.538375 7.39784C0.485333 7.27191 0.458008 7.13663 0.458008 6.99998C0.458008 6.86333 0.485333 6.72806 0.538375 6.60212C0.591418 6.47618 0.669107 6.36212 0.766874 6.26665L5.76687 1.26665C5.86318 1.17034 5.97751 1.09395 6.10333 1.04183C6.22916 0.989716 6.36402 0.962891 6.50021 0.962891C6.6364 0.962891 6.77126 0.989716 6.89709 1.04183C7.02291 1.09395 7.13724 1.17034 7.23354 1.26665C7.32984 1.36295 7.40624 1.47728 7.45835 1.6031C7.51047 1.72893 7.5373 1.86379 7.5373 1.99998C7.5373 2.13617 7.51047 2.27103 7.45835 2.39686C7.40624 2.52268 7.32984 2.63701 7.23354 2.73331L2.97521 6.99998L7.23354 11.2666C7.37793 11.4123 7.47611 11.5973 7.51577 11.7985C7.55543 11.9998 7.53482 12.2082 7.45651 12.3978C7.3782 12.5873 7.24568 12.7495 7.07556 12.8641C6.90544 12.9786 6.70529 13.0404 6.50021 13.0416Z" fill="white"/>
</g>
</svg>
