<svg width="235" height="235" viewBox="0 0 235 235" fill="none" xmlns="http://www.w3.org/2000/svg">
<g opacity="0.05" clip-path="url(#clip0_21565_2908)">
<path d="M228.456 25.0094L228.456 179.531C228.456 182.752 227.131 185.842 224.773 188.12C222.414 190.398 219.215 191.678 215.88 191.678C212.545 191.678 209.346 190.398 206.988 188.12C204.629 185.842 203.304 182.752 203.304 179.531L203.315 54.3148L29.2428 222.453C26.8856 224.73 23.6887 226.009 20.3553 226.009C17.0218 226.009 13.8249 224.73 11.4678 222.453C9.11066 220.176 7.78645 217.088 7.78645 213.869C7.78645 210.649 9.11066 207.561 11.4678 205.284L185.54 37.1458L55.9052 37.1565C52.5699 37.1565 49.3712 35.8767 47.0128 33.5987C44.6544 31.3207 43.3294 28.231 43.3294 25.0094C43.3294 21.7878 44.6544 18.6981 47.0128 16.4201C49.3712 14.1421 52.5699 12.8623 55.9052 12.8623L215.88 12.8623C217.532 12.8614 219.168 13.175 220.694 13.7852C222.22 14.3953 223.607 15.29 224.775 16.4182C225.943 17.5463 226.869 18.8857 227.501 20.3599C228.132 21.834 228.457 23.414 228.456 25.0094Z" fill="black"/>
</g>
<defs>
<clipPath id="clip0_21565_2908">
<rect width="235" height="235" fill="white"/>
</clipPath>
</defs>
</svg>
