<svg width="16" height="17" viewBox="0 0 16 17" fill="none" xmlns="http://www.w3.org/2000/svg">
<g id="Date Icon">
<path id="Vector" d="M8.9205 7.63721H7.75195V8.96555H8.9205V7.63721Z" fill="#3CA200"/>
<path id="Vector_2" d="M14.0642 1.32749H13.3628V-0.000854492H12.1939V1.32749H4.4791V-0.000854492H3.31018V1.32749H2.60884C1.64203 1.32749 0.855469 2.22133 0.855469 3.32V15.0094C0.855469 16.1081 1.64203 17.0019 2.60884 17.0019H6.49547H6.58314H8.62178C8.21768 16.6229 7.86573 16.1747 7.5796 15.6736H6.58314H6.49547H2.60884C2.28657 15.6736 2.02438 15.3756 2.02438 15.0094V6.24236H14.6486V7.5707V7.63712V7.64041C15.0895 7.96555 15.484 8.36555 15.8175 8.82472V7.63712V7.5707V3.32C15.8175 2.22133 15.031 1.32749 14.0642 1.32749ZM14.6486 4.91402H2.02438V3.32C2.02438 2.95378 2.28657 2.65583 2.60884 2.65583H3.31018V3.98418H4.4791V2.65583H12.1939V3.98418H13.3628V2.65583H14.0642C14.3864 2.65583 14.6486 2.95378 14.6486 3.32V4.91402Z" fill="#3CA200"/>
<path id="Vector_3" d="M11.8728 8.03564C9.6975 8.03564 7.92773 10.0468 7.92773 12.5188C7.92773 14.9908 9.6975 17.002 11.8728 17.002C14.0481 17.002 15.8179 14.9908 15.8179 12.5188C15.8179 10.0468 14.0481 8.03564 11.8728 8.03564ZM11.8728 15.6736C10.342 15.6736 9.09665 14.2584 9.09665 12.5188C9.09665 10.7792 10.342 9.36399 11.8728 9.36399C13.4036 9.36399 14.649 10.7792 14.649 12.5188C14.649 14.2584 13.4036 15.6736 11.8728 15.6736Z" fill="#3CA200"/>
<path id="Vector_4" d="M12.4282 10.2938H11.2588V13.183H13.4222V11.8546H12.4282V10.2938Z" fill="#3CA200"/>
<path id="Vector_5" d="M6.5831 10.2938H5.41455V11.6222H6.5831V10.2938Z" fill="#3CA200"/>
<path id="Vector_6" d="M4.24472 10.2938H3.07617V11.6222H4.24472V10.2938Z" fill="#3CA200"/>
<path id="Vector_7" d="M4.24472 7.63721H3.07617V8.96555H4.24472V7.63721Z" fill="#3CA200"/>
<path id="Vector_8" d="M4.24472 12.9504H3.07617V14.2788H4.24472V12.9504Z" fill="#3CA200"/>
<path id="Vector_9" d="M6.5831 7.63721H5.41455V8.96555H6.5831V7.63721Z" fill="#3CA200"/>
<path id="Vector_10" d="M6.5831 12.9504H5.41455V14.2788H6.5831V12.9504Z" fill="#3CA200"/>
</g>
</svg>
