<svg width="60" height="60" viewBox="0 0 60 60" fill="none" xmlns="http://www.w3.org/2000/svg">
<circle cx="30" cy="30" r="29.5" stroke="url(#paint0_linear_21895_157)" stroke-dasharray="5 5"/>
<path d="M43.0564 21.2968H37.2862V19.3043C37.2852 18.4283 36.9368 17.5884 36.3173 16.9689C35.6978 16.3494 34.8579 16.001 33.9819 16H26.9463C26.0702 16.001 25.2303 16.3494 24.6109 16.9689C23.9914 17.5884 23.643 18.4283 23.642 19.3043V21.2968H17.8718C17.3756 21.2974 16.8998 21.4948 16.5489 21.8457C16.198 22.1966 16.0006 22.6724 16 23.1686V30.8446C15.9999 31.1679 16.084 31.4857 16.244 31.7666C16.4041 32.0475 16.6345 32.2819 16.9127 32.4467V41.992C16.9135 42.5243 17.1253 43.0346 17.5017 43.411C17.8781 43.7874 18.3884 43.9992 18.9207 44H42.0075C42.5398 43.9992 43.0501 43.7874 43.4265 43.411C43.8028 43.0346 44.0147 42.5243 44.0155 41.992V32.4473C44.2936 32.2831 44.5241 32.0492 44.6842 31.7687C44.8442 31.4882 44.9283 31.1707 44.9282 30.8477V23.1686C44.9276 22.6724 44.7302 22.1966 44.3793 21.8457C44.0284 21.4948 43.5526 21.2974 43.0564 21.2968ZM24.7249 19.3043C24.7255 18.7153 24.9598 18.1507 25.3762 17.7342C25.7927 17.3178 26.3573 17.0835 26.9463 17.0829H33.9819C34.5708 17.0835 35.1355 17.3178 35.5519 17.7342C35.9684 18.1507 36.2027 18.7153 36.2033 19.3043V21.2968H35.1204V19.3043C35.1201 19.0024 35.0001 18.713 34.7866 18.4996C34.5732 18.2861 34.2837 18.1661 33.9819 18.1657H26.9463C26.6444 18.1661 26.355 18.2861 26.1416 18.4996C25.9281 18.713 25.8081 19.0024 25.8077 19.3043V21.2968H24.7249V19.3043ZM34.0376 19.3043V21.2968H26.8906V19.3043C26.8911 19.2897 26.8972 19.2759 26.9075 19.2655C26.9178 19.2552 26.9317 19.2492 26.9463 19.2486H33.9819C33.9965 19.2492 34.0103 19.2552 34.0207 19.2655C34.031 19.2759 34.037 19.2897 34.0376 19.3043ZM42.9326 41.992C42.9323 42.2373 42.8347 42.4724 42.6613 42.6458C42.4879 42.8192 42.2528 42.9168 42.0075 42.9171H18.9207C18.6754 42.9168 18.4403 42.8192 18.2669 42.6458C18.0935 42.4724 17.9959 42.2373 17.9956 41.992V32.7845L23.9978 34.0725C25.501 34.3905 27.0256 34.5974 28.5592 34.6913V35.4422C28.5596 35.8392 28.7175 36.2199 28.9982 36.5006C29.2789 36.7814 29.6596 36.9393 30.0566 36.9397H31.4334C31.8304 36.9393 32.2111 36.7814 32.4918 36.5006C32.7726 36.2199 32.9305 35.8392 32.9309 35.4422V34.6548C34.3153 34.5497 35.6911 34.3509 37.0486 34.0595L42.9326 32.7889V41.992ZM29.6411 35.4422V32.9949C29.6412 32.885 29.6849 32.7796 29.7626 32.7019C29.8404 32.6241 29.9458 32.5804 30.0557 32.5803H31.4325C31.5424 32.5804 31.6478 32.6241 31.7256 32.7019C31.8033 32.7796 31.847 32.885 31.8471 32.9949V35.4422C31.847 35.5521 31.8033 35.6575 31.7256 35.7353C31.6478 35.813 31.5424 35.8567 31.4325 35.8568H30.0557C29.9458 35.8567 29.8404 35.813 29.7626 35.7353C29.6849 35.6575 29.6412 35.5521 29.6411 35.4422ZM43.8453 30.8477C43.8459 31.0129 43.794 31.174 43.6971 31.3077C43.6002 31.4415 43.4634 31.5411 43.3063 31.5921C43.2909 31.5969 43.2757 31.6026 43.2609 31.6091C43.2488 31.6132 43.2363 31.6161 43.2237 31.6178L36.819 33.0011C35.5367 33.2779 34.2375 33.4693 32.9299 33.5741V32.9949C32.9299 32.9581 32.9261 32.9214 32.9188 32.8854C32.8919 32.5094 32.7239 32.1575 32.4485 31.9001C32.1731 31.6427 31.8107 31.4989 31.4337 31.4975H30.0557C29.6788 31.499 29.3163 31.6428 29.041 31.9002C28.7656 32.1576 28.5976 32.5094 28.5706 32.8854C28.5634 32.9215 28.5598 32.9581 28.5598 32.9949V33.6112C27.1021 33.5168 25.6531 33.3169 24.2243 33.0132L17.697 31.6126C17.6717 31.6075 17.6468 31.6007 17.6225 31.5921C17.465 31.5406 17.328 31.4405 17.2311 31.3062C17.1341 31.1719 17.0822 31.0103 17.0829 30.8446V23.1686C17.0831 22.9595 17.1663 22.7589 17.3142 22.611C17.4621 22.4631 17.6627 22.3799 17.8718 22.3797H43.0564C43.2655 22.3799 43.4661 22.4631 43.614 22.611C43.7619 22.7589 43.8451 22.9595 43.8453 23.1686V30.8477Z" fill="black"/>
<defs>
<linearGradient id="paint0_linear_21895_157" x1="4.47035e-08" y1="30" x2="75.375" y2="30" gradientUnits="userSpaceOnUse">
<stop stop-color="#E5087B"/>
<stop offset="1" stop-color="#FDD819"/>
</linearGradient>
</defs>
</svg>
