<svg width="45" height="45" viewBox="0 0 45 45" fill="none" xmlns="http://www.w3.org/2000/svg">
<rect opacity="0.2" x="0.659002" y="0.568182" width="43.1818" height="43.1818" rx="5.11364" stroke="black" stroke-width="1.13636"/>
<path d="M17.5683 28.7371C16.2578 28.7371 15.1956 29.7994 15.1956 31.1098C15.1956 32.4202 16.2579 33.4825 17.5683 33.4825C18.8787 33.4825 19.941 32.4202 19.941 31.1098C19.941 29.7994 18.8787 28.7371 17.5683 28.7371ZM17.5683 32.428C16.8403 32.428 16.2501 31.8379 16.2501 31.1099C16.2501 30.3819 16.8403 29.7917 17.5683 29.7917C18.2963 29.7917 18.8864 30.3819 18.8864 31.1099C18.8865 31.8379 18.2963 32.428 17.5683 32.428ZM27.5864 28.7371C26.276 28.7371 25.2137 29.7994 25.2137 31.1098C25.2137 32.4202 26.276 33.4825 27.5864 33.4825C28.8968 33.4825 29.9591 32.4202 29.9591 31.1098C29.9591 29.7994 28.8968 28.7371 27.5864 28.7371ZM27.5864 32.428C26.8584 32.428 26.2682 31.8379 26.2682 31.1099C26.2682 30.3819 26.8584 29.7917 27.5864 29.7917C28.3144 29.7917 28.9045 30.3819 28.9045 31.1099C28.9046 31.8379 28.3144 32.428 27.5864 32.428ZM32.9381 14.8964C32.8284 14.7765 32.6781 14.7013 32.5163 14.6855L15.3538 14.4482L14.8792 12.9982C14.5449 12.0289 13.6372 11.3745 12.612 11.3636H10.8456C10.5544 11.3636 10.3184 11.5997 10.3184 11.8909C10.3184 12.1821 10.5544 12.4182 10.8456 12.4182H12.612C12.8919 12.4244 13.1632 12.5161 13.3894 12.6811C13.6157 12.846 13.786 13.0763 13.8774 13.3409L17.2256 23.4381L16.962 24.0444C16.817 24.4182 16.763 24.8211 16.8042 25.2198C16.8455 25.6186 16.9809 26.0019 17.1992 26.3381C17.4154 26.6681 17.708 26.9411 18.0523 27.1338C18.3965 27.3266 18.7822 27.4335 19.1765 27.4453H29.4319C29.7231 27.4453 29.9592 27.2093 29.9592 26.9181C29.9592 26.6268 29.7231 26.3908 29.4319 26.3908H19.1765C18.954 26.3852 18.7363 26.3245 18.543 26.214C18.3498 26.1036 18.187 25.9469 18.0692 25.7581C17.9525 25.571 17.8799 25.3598 17.8571 25.1406C17.8342 24.9213 17.8617 24.6997 17.9374 24.4926L18.1483 24.0181L29.2473 22.8581C30.4665 22.7238 31.4693 21.8371 31.7519 20.6435L33.0173 15.3445C33.0453 15.2695 33.0527 15.1884 33.0388 15.1096C33.0249 15.0308 32.9901 14.9572 32.9381 14.8964ZM30.7237 20.4063C30.5525 21.1746 29.9002 21.7413 29.1155 21.8036L18.1483 22.9372L15.6965 15.5027L31.8573 15.74L30.7237 20.4063Z" fill="black"/>
</svg>
