<svg width="14" height="14" viewBox="0 0 14 14" fill="none" xmlns="http://www.w3.org/2000/svg">
<g id="Frame" clip-path="url(#clip0_11387_7577)">
<g id="Group">
<g id="Group_2">
<path id="Vector" d="M7.27809 6.93527C7.32787 6.95271 7.37673 6.97291 7.42422 6.99609C7.77082 7.17948 8.03826 7.48353 8.176 7.85078C8.4022 8.37865 9.45083 10.1505 13.4497 10.7568C13.5137 10.7657 13.5751 10.7879 13.6299 10.822C13.6848 10.8561 13.732 10.9013 13.7683 10.9546C13.8041 11.0074 13.8283 11.067 13.8396 11.1297C13.8508 11.1924 13.8487 11.2568 13.8335 11.3186C13.7444 11.6417 13.5852 11.9412 13.3671 12.1956C13.3527 12.2215 13.3332 12.2445 13.31 12.2631C12.8933 12.7093 12.3774 13.051 11.8041 13.2607C11.7979 13.2633 11.7922 13.2663 11.7858 13.2683C11.5144 13.3753 11.2361 13.4641 10.9528 13.5341C10.452 13.658 9.94109 13.737 9.42629 13.7705C9.41711 13.7723 9.40793 13.7737 9.39853 13.7744C9.39601 13.7744 9.39348 13.7728 9.39119 13.7728C9.25584 13.7806 9.11842 13.7861 8.97825 13.7861C8.08974 13.7861 7.1097 13.6068 6.32282 13.0202C6.13645 13.1474 5.92109 13.2256 5.69658 13.2476C5.47206 13.2696 5.24562 13.2348 5.03812 13.1462C4.8638 13.3412 4.65187 13.4988 4.41509 13.6097C4.1783 13.7206 3.92155 13.7825 3.66026 13.7916C3.39897 13.8007 3.13854 13.7568 2.89462 13.6626C2.65071 13.5684 2.42835 13.4259 2.24092 13.2435C2.05286 13.3323 1.84832 13.3807 1.64045 13.3857C1.43257 13.3907 1.22595 13.3521 1.03385 13.2725C0.841755 13.1929 0.668427 13.0739 0.525003 12.9233C0.381578 12.7727 0.271226 12.5937 0.201034 12.3979C0.13084 12.2021 0.102359 11.9938 0.117418 11.7863C0.132477 11.5788 0.190742 11.3768 0.288475 11.1932C0.386207 11.0096 0.521244 10.8484 0.684915 10.7201C0.848584 10.5918 1.03727 10.4992 1.23885 10.4481C1.32174 10.1597 1.47732 9.89739 1.69066 9.68638C1.904 9.47538 2.16795 9.32275 2.4572 9.24312C2.74645 9.1635 3.0513 9.15956 3.3425 9.23167C3.63371 9.30378 3.90152 9.44953 4.12025 9.65494C4.37655 9.51239 4.67389 9.46186 4.96287 9.51173C4.98151 9.14543 5.02188 8.78056 5.08377 8.41904C5.15706 7.98087 5.37905 7.58136 5.71236 7.2878L4.48891 0.956124C4.4682 0.853421 4.46808 0.747626 4.48855 0.644877C4.50903 0.542127 4.5497 0.444468 4.6082 0.357567C4.69621 0.224829 4.82173 0.121317 4.96876 0.0602268C5.1158 -0.000863095 5.27769 -0.0167626 5.4338 0.0145553C5.5899 0.0458732 5.73315 0.12299 5.84527 0.236073C5.95739 0.349156 6.03332 0.493082 6.06336 0.649501L7.27809 6.93527ZM4.22486 10.1332C4.17798 10.1689 4.11918 10.1852 4.06062 10.1787C4.00207 10.1722 3.94826 10.1435 3.91034 10.0984C3.75305 9.91177 3.54618 9.77355 3.31365 9.69969C3.08111 9.62582 2.83243 9.61933 2.59636 9.68096C2.3603 9.7426 2.1465 9.86984 1.97971 10.048C1.81291 10.2261 1.69994 10.4478 1.65385 10.6875C1.64476 10.7344 1.62123 10.7774 1.58655 10.8103C1.55188 10.8432 1.5078 10.8645 1.46046 10.8711C1.30769 10.8926 1.16169 10.9481 1.03318 11.0335C0.904674 11.1189 0.79693 11.232 0.717871 11.3645C0.638812 11.4971 0.590448 11.6456 0.576336 11.7993C0.562223 11.953 0.582721 12.1079 0.636322 12.2526C0.689922 12.3974 0.775264 12.5282 0.88607 12.6356C0.996877 12.743 1.13033 12.8242 1.27662 12.8732C1.42291 12.9222 1.57832 12.9377 1.73142 12.9187C1.88452 12.8998 2.03141 12.8467 2.16131 12.7634C2.20801 12.7335 2.26394 12.7216 2.31877 12.7298C2.37359 12.7379 2.4236 12.7657 2.45954 12.8079C2.6045 12.9797 2.78663 13.1162 2.99213 13.2071C3.19763 13.298 3.42112 13.341 3.64567 13.3327C3.87022 13.3244 4.08994 13.2651 4.28818 13.1593C4.48642 13.0534 4.65799 12.9039 4.7899 12.7219C4.82391 12.675 4.87438 12.6427 4.93118 12.6315C4.98799 12.6203 5.04692 12.631 5.09616 12.6615C5.20405 12.7282 5.32495 12.7712 5.45076 12.7874C5.57658 12.8036 5.7044 12.7927 5.82567 12.7554C5.94694 12.7182 6.05885 12.6555 6.15392 12.5714C6.24898 12.4874 6.325 12.384 6.37689 12.2682C6.42877 12.1524 6.45532 12.0269 6.45476 11.9C6.4542 11.7731 6.42654 11.6478 6.37363 11.5324C6.32072 11.4171 6.24379 11.3144 6.14798 11.2312C6.05217 11.148 5.93971 11.0863 5.81812 11.0501C5.77125 11.0361 5.7301 11.0074 5.70067 10.9683C5.67124 10.9292 5.65508 10.8817 5.65455 10.8328C5.65094 10.5985 5.55566 10.375 5.38915 10.2102C5.22264 10.0454 4.99818 9.95252 4.76397 9.95147C4.56913 9.95083 4.37957 10.0147 4.22486 10.1332ZM6.10236 10.6671C6.34247 10.7731 6.54678 10.9464 6.69064 11.166C6.8345 11.3857 6.91176 11.6422 6.91309 11.9048C6.91279 12.19 6.82167 12.4677 6.65294 12.6975C7.2123 13.0688 7.86175 13.2815 8.53227 13.3131C8.14301 13.0558 7.79206 12.7448 7.48983 12.3893C7.45083 12.3425 7.432 12.2822 7.43749 12.2215C7.44297 12.1608 7.47232 12.1048 7.51908 12.0658C7.56584 12.0268 7.62618 12.008 7.68682 12.0134C7.74746 12.0189 7.80344 12.0483 7.84244 12.0951C8.28804 12.6064 8.83414 13.0205 9.4467 13.3115C9.91714 13.2768 10.3838 13.2021 10.8415 13.0882C10.8826 13.0778 10.9193 13.0652 10.9592 13.0556C9.73324 12.636 8.32902 11.9135 7.49511 10.6857C7.462 10.6353 7.45002 10.5739 7.46176 10.5148C7.47349 10.4557 7.508 10.4036 7.55783 10.3697C7.60766 10.3358 7.66881 10.3229 7.72807 10.3338C7.78733 10.3446 7.83995 10.3784 7.87455 10.4277C8.77614 11.7561 10.4382 12.4526 11.7032 12.8066C12.0537 12.6677 12.3816 12.4774 12.6761 12.242C11.7807 12.1136 10.911 11.8455 10.0987 11.4474C10.0718 11.4332 10.0481 11.4138 10.0288 11.3903C10.0095 11.3669 9.99507 11.3398 9.98631 11.3107C9.97755 11.2816 9.97465 11.2511 9.97778 11.2209C9.9809 11.1907 9.99 11.1614 10.0045 11.1347C10.0191 11.108 10.0387 11.0845 10.0624 11.0655C10.0861 11.0465 10.1133 11.0324 10.1425 11.024C10.1717 11.0156 10.2023 11.0131 10.2324 11.0166C10.2626 11.0201 10.2918 11.0295 10.3182 11.0444C11.1567 11.502 12.3522 11.7347 13.0675 11.8401C13.2148 11.6543 13.3226 11.4403 13.3841 11.2112C9.85827 10.6763 8.47469 9.2338 7.96632 8.42799C7.8796 8.51153 7.78508 8.58658 7.68368 8.65199C7.34706 8.86259 6.95653 8.97079 6.55957 8.96344C6.53365 8.96344 6.50795 8.96344 6.4818 8.96206C6.14569 8.95641 5.81199 8.90404 5.49029 8.80645C5.4506 9.09196 5.42651 9.37953 5.41802 9.66757C5.60183 9.76957 5.75937 9.913 5.87815 10.0865C5.99694 10.26 6.0737 10.4588 6.10236 10.6671ZM5.57196 8.34698C5.87019 8.44612 6.18219 8.49891 6.49648 8.50327C6.82546 8.52254 7.1524 8.44009 7.43294 8.26711C7.54786 8.19468 7.65067 8.10461 7.7376 8.00019C7.64043 7.74813 7.45748 7.53844 7.22096 7.40806C7.09176 7.34836 6.95143 7.31658 6.80912 7.31481C6.66682 7.31303 6.52574 7.34128 6.39508 7.39773C6.19343 7.48084 6.01399 7.60996 5.87108 7.77477C5.72817 7.93958 5.62573 8.13553 5.57196 8.34698ZM5.61279 0.736485C5.59544 0.64753 5.54372 0.569011 5.46886 0.517965C5.394 0.46692 5.30204 0.447468 5.21293 0.463829C5.12162 0.481501 5.04133 0.534976 4.98971 0.612321C4.93924 0.68714 4.92112 0.779173 4.93901 0.867534L6.12851 7.01835C6.16315 7.00206 6.19733 6.98347 6.23243 6.9697C6.41251 6.90056 6.60324 6.86328 6.79609 6.85953L5.61279 0.736485Z" fill="white"/>
<path id="Vector_2" d="M3.20839 10.6908C3.16284 10.6366 3.1029 10.5965 3.0355 10.5751C2.96811 10.5536 2.89602 10.5517 2.82759 10.5696C2.75915 10.5874 2.69717 10.6243 2.64881 10.6759C2.60045 10.7275 2.5677 10.7918 2.55434 10.8613C2.54284 10.9211 2.50807 10.9739 2.45767 11.008C2.40726 11.0422 2.34537 11.0549 2.28559 11.0434C2.22581 11.0319 2.17305 10.9971 2.13891 10.9467C2.10477 10.8963 2.09205 10.8343 2.10355 10.7745C2.13335 10.6199 2.20628 10.4769 2.31391 10.3621C2.42155 10.2472 2.55948 10.1651 2.71177 10.1254C2.86405 10.0857 3.02447 10.0899 3.17447 10.1375C3.32446 10.1852 3.45792 10.2743 3.55939 10.3947C3.59864 10.4413 3.61778 10.5015 3.61262 10.5622C3.60746 10.6229 3.57841 10.679 3.53186 10.7183C3.48532 10.7576 3.42509 10.7767 3.36443 10.7715C3.30376 10.7664 3.24764 10.7373 3.20839 10.6908ZM1.94939 7.91806C1.94939 8.13111 1.86479 8.33542 1.71421 8.48607C1.56363 8.63671 1.3594 8.72134 1.14645 8.72134C0.933496 8.72134 0.729267 8.63671 0.578687 8.48607C0.428106 8.33542 0.343512 8.13111 0.343512 7.91806C0.343512 7.70502 0.428106 7.5007 0.578687 7.35006C0.729267 7.19942 0.933496 7.11478 1.14645 7.11478C1.3594 7.11478 1.56363 7.19942 1.71421 7.35006C1.86479 7.5007 1.94939 7.70502 1.94939 7.91806ZM0.802333 7.91806C0.802333 8.00937 0.838588 8.09693 0.903122 8.16149C0.967656 8.22606 1.05518 8.26232 1.14645 8.26232C1.23771 8.26232 1.32524 8.22606 1.38978 8.16149C1.45431 8.09693 1.49057 8.00937 1.49057 7.91806C1.49057 7.82676 1.45431 7.73919 1.38978 7.67463C1.32524 7.61007 1.23771 7.5738 1.14645 7.5738C1.05518 7.5738 0.967656 7.61007 0.903122 7.67463C0.838588 7.73919 0.802333 7.82676 0.802333 7.91806ZM2.63762 7.11478C2.45509 7.11478 2.28003 7.04224 2.15097 6.91312C2.0219 6.784 1.94939 6.60887 1.94939 6.42626C1.94939 6.24365 2.0219 6.06852 2.15097 5.9394C2.28003 5.81028 2.45509 5.73774 2.63762 5.73774C2.82015 5.73774 2.9952 5.81028 3.12427 5.9394C3.25334 6.06852 3.32585 6.24365 3.32585 6.42626C3.32585 6.60887 3.25334 6.784 3.12427 6.91312C2.9952 7.04224 2.82015 7.11478 2.63762 7.11478ZM2.63762 6.19675C2.57678 6.19675 2.51842 6.22093 2.4754 6.26397C2.43238 6.30701 2.40821 6.36539 2.40821 6.42626C2.40821 6.48713 2.43238 6.54551 2.4754 6.58855C2.51842 6.63159 2.57678 6.65577 2.63762 6.65577C2.69846 6.65577 2.75681 6.63159 2.79984 6.58855C2.84286 6.54551 2.86703 6.48713 2.86703 6.42626C2.86703 6.36539 2.84286 6.30701 2.79984 6.26397C2.75681 6.22093 2.69846 6.19675 2.63762 6.19675ZM12.2729 5.27872C12.212 5.27872 12.1537 5.25454 12.1107 5.2115C12.0676 5.16846 12.0435 5.11008 12.0435 5.04921V4.59019C12.0435 4.52932 12.0676 4.47095 12.1107 4.42791C12.1537 4.38487 12.212 4.36069 12.2729 4.36069C12.3337 4.36069 12.3921 4.38487 12.4351 4.42791C12.4781 4.47095 12.5023 4.52932 12.5023 4.59019V5.04921C12.5023 5.11008 12.4781 5.16846 12.4351 5.2115C12.3921 5.25454 12.3337 5.27872 12.2729 5.27872ZM12.0435 6.42626V5.96724C12.0435 5.90637 12.0676 5.848 12.1107 5.80496C12.1537 5.76192 12.212 5.73774 12.2729 5.73774C12.3337 5.73774 12.3921 5.76192 12.4351 5.80496C12.4781 5.848 12.5023 5.90637 12.5023 5.96724V6.42626C12.5023 6.48713 12.4781 6.54551 12.4351 6.58855C12.3921 6.63159 12.3337 6.65577 12.2729 6.65577C12.212 6.65577 12.1537 6.63159 12.1107 6.58855C12.0676 6.54551 12.0435 6.48713 12.0435 6.42626ZM13.1905 5.73774H12.7317C12.6708 5.73774 12.6125 5.71356 12.5695 5.67051C12.5264 5.62747 12.5023 5.5691 12.5023 5.50823C12.5023 5.44736 12.5264 5.38898 12.5695 5.34594C12.6125 5.3029 12.6708 5.27872 12.7317 5.27872H13.1905C13.2514 5.27872 13.3097 5.3029 13.3527 5.34594C13.3958 5.38898 13.4199 5.44736 13.4199 5.50823C13.4199 5.5691 13.3958 5.62747 13.3527 5.67051C13.3097 5.71356 13.2514 5.73774 13.1905 5.73774ZM11.814 5.73774H11.3552C11.2944 5.73774 11.236 5.71356 11.193 5.67051C11.15 5.62747 11.1258 5.5691 11.1258 5.50823C11.1258 5.44736 11.15 5.38898 11.193 5.34594C11.236 5.3029 11.2944 5.27872 11.3552 5.27872H11.814C11.8749 5.27872 11.9332 5.3029 11.9763 5.34594C12.0193 5.38898 12.0435 5.44736 12.0435 5.50823C12.0435 5.5691 12.0193 5.62747 11.9763 5.67051C11.9332 5.71356 11.8749 5.73774 11.814 5.73774ZM11.4027 8.21482L11.7468 8.55908C11.7687 8.58025 11.7862 8.60558 11.7982 8.63358C11.8103 8.66158 11.8166 8.69169 11.8169 8.72217C11.8171 8.75264 11.8113 8.78286 11.7998 8.81107C11.7882 8.83927 11.7712 8.8649 11.7497 8.88645C11.7281 8.908 11.7025 8.92504 11.6743 8.93658C11.6461 8.94812 11.6159 8.95393 11.5855 8.95366C11.555 8.9534 11.5249 8.94707 11.4969 8.93504C11.4689 8.92301 11.4436 8.90552 11.4224 8.8836L11.0783 8.53934C11.0365 8.49606 11.0134 8.43808 11.0139 8.3779C11.0145 8.31773 11.0386 8.26016 11.0811 8.21761C11.1237 8.17506 11.1812 8.15092 11.2413 8.1504C11.3015 8.14988 11.3594 8.17301 11.4027 8.21482ZM10.046 7.18203C10.089 7.139 10.1473 7.11483 10.2082 7.11483C10.269 7.11483 10.3273 7.139 10.3704 7.18203L10.7145 7.52629C10.7364 7.54746 10.7539 7.57279 10.7659 7.60079C10.7779 7.62879 10.7842 7.65891 10.7845 7.68938C10.7848 7.71985 10.779 7.75008 10.7674 7.77828C10.7559 7.80649 10.7389 7.83211 10.7173 7.85366C10.6958 7.87521 10.6702 7.89225 10.642 7.90379C10.6138 7.91533 10.5836 7.92114 10.5531 7.92087C10.5227 7.92061 10.4925 7.91428 10.4646 7.90225C10.4366 7.89022 10.4113 7.87274 10.3901 7.85082L10.046 7.50655C10.003 7.46352 9.97881 7.40515 9.97881 7.34429C9.97881 7.28343 10.003 7.22507 10.046 7.18203ZM10.3901 8.21482C10.4334 8.17301 10.4913 8.14988 10.5515 8.1504C10.6116 8.15092 10.6692 8.17506 10.7117 8.21761C10.7542 8.26016 10.7783 8.31773 10.7789 8.3779C10.7794 8.43808 10.7563 8.49606 10.7145 8.53934L10.3704 8.8836C10.3271 8.92541 10.2691 8.94854 10.209 8.94802C10.1488 8.9475 10.0913 8.92336 10.0488 8.88081C10.0062 8.83826 9.98211 8.78069 9.98159 8.72052C9.98107 8.66034 10.0042 8.60236 10.046 8.55908L10.3901 8.21482ZM11.0783 7.52629L11.4224 7.18203C11.4657 7.14022 11.5237 7.11709 11.5838 7.11761C11.644 7.11814 11.7015 7.14227 11.744 7.18483C11.7866 7.22738 11.8107 7.28494 11.8112 7.34512C11.8117 7.40529 11.7886 7.46327 11.7468 7.50655L11.4027 7.85082C11.3594 7.89262 11.3015 7.91576 11.2413 7.91523C11.1812 7.91471 11.1237 7.89057 11.0811 7.84802C11.0386 7.80547 11.0145 7.74791 11.0139 7.68773C11.0134 7.62755 11.0365 7.56958 11.0783 7.52629ZM11.1657 2.31164L7.26575 3.00016C7.20648 3.0093 7.14599 2.99486 7.09723 2.95993C7.04848 2.925 7.01533 2.87236 7.00489 2.81328C6.99445 2.7542 7.00756 2.69338 7.04139 2.64384C7.07523 2.59431 7.1271 2.56 7.18592 2.54826L11.0859 1.85974C11.1452 1.8506 11.2057 1.86504 11.2544 1.89997C11.3032 1.9349 11.3363 1.98754 11.3468 2.04662C11.3572 2.1057 11.3441 2.16652 11.3103 2.21605C11.2764 2.26559 11.2245 2.2999 11.1657 2.31164ZM7.49516 4.1477C7.43589 4.15684 7.3754 4.1424 7.32664 4.10747C7.27789 4.07254 7.24474 4.0199 7.2343 3.96082C7.22387 3.90174 7.23697 3.84092 7.2708 3.79138C7.30464 3.74185 7.35652 3.70754 7.41533 3.6958L9.90191 3.25652C9.96184 3.24593 10.0235 3.25959 10.0734 3.2945C10.1232 3.3294 10.1572 3.3827 10.1678 3.44265C10.1784 3.50261 10.1647 3.56432 10.1298 3.6142C10.0949 3.66409 10.0417 3.69806 9.98174 3.70865L7.49516 4.1477ZM10.9171 4.47842C10.9223 4.50811 10.9217 4.53854 10.9151 4.56798C10.9086 4.59742 10.8964 4.62528 10.8791 4.64999C10.8618 4.67469 10.8399 4.69574 10.8144 4.71195C10.789 4.72815 10.7607 4.73919 10.731 4.74442L7.72457 5.27528C7.6949 5.28051 7.66448 5.27984 7.63507 5.27331C7.60565 5.26678 7.57781 5.25451 7.55313 5.23722C7.52845 5.21993 7.50742 5.19794 7.49123 5.17251C7.47505 5.14708 7.46403 5.11872 7.4588 5.08903C7.45357 5.05934 7.45424 5.02892 7.46077 4.99949C7.4673 4.97006 7.47955 4.9422 7.49684 4.91752C7.51413 4.89283 7.53611 4.87178 7.56152 4.85559C7.58694 4.8394 7.61529 4.82837 7.64497 4.82314L10.6514 4.29183C10.6811 4.28662 10.7115 4.28731 10.7409 4.29387C10.7704 4.30043 10.7982 4.31272 10.8229 4.33005C10.8475 4.34738 10.8686 4.3694 10.8847 4.39486C10.9009 4.42032 10.9119 4.44871 10.9171 4.47842Z" fill="white"/>
</g>
</g>
</g>
<defs>
<clipPath id="clip0_11387_7577">
<rect width="13.9941" height="14" fill="white" transform="matrix(-1 0 0 1 13.9941 0)"/>
</clipPath>
</defs>
</svg>
