<svg width="62" height="23" viewBox="0 0 62 23" fill="none" xmlns="http://www.w3.org/2000/svg">
<g id="Group 1000009777">
<path id="Vector" d="M44.0108 9.00142C44.1012 9.00142 44.1915 9.00202 44.2819 9.00324C53.5331 9.09825 60.3599 11.9333 60.4271 11.9613C60.6354 12.0496 60.7308 12.2853 60.6411 12.4875C60.5501 12.6903 60.3059 12.7811 60.0988 12.6952C60.0323 12.6672 53.3486 9.89547 44.2738 9.8029C40.8177 9.77001 37.4645 10.4271 33.8766 11.1257C27.629 12.3425 20.5461 13.7214 10.7948 12.0715C10.5714 12.0344 10.4207 11.8273 10.4603 11.6093C10.4992 11.3912 10.7207 11.2414 10.9366 11.2847C20.5367 12.9065 27.5387 11.5453 33.7153 10.3419C37.2524 9.65308 40.5993 9.00142 44.0108 9.00142Z" fill="#3CA200"/>
<path id="Vector_2" d="M7.01398 11.0198C7.03845 11.0636 7.05414 11.1124 7.05916 11.1641C7.07547 11.3103 7.00644 11.4522 6.88093 11.5344C6.46296 11.8036 2.75144 14.1386 0.950907 13.3176C0.576241 13.1471 0.108694 12.7586 0.0151843 11.8877C-0.0802085 11.0155 0.292586 10.5423 0.622694 10.2987C2.20545 9.12997 6.33869 10.6598 6.80499 10.8383C6.89599 10.8742 6.96942 10.9388 7.01398 11.0198ZM0.960329 12.2939C1.06011 12.4748 1.19003 12.5564 1.29609 12.6045C2.18976 13.0119 4.25387 12.1392 5.72869 11.3018C4.10576 10.7823 1.89793 10.3474 1.11345 10.9272C0.959694 11.0411 0.761381 11.2555 0.821628 11.8054C0.845476 12.0198 0.896316 12.1775 0.960329 12.2939Z" fill="#3CA200"/>
<path id="Vector_3" d="M7.51013 13.6278C7.55846 13.6454 7.60301 13.6722 7.64129 13.7082C7.75237 13.808 7.79568 13.9597 7.75614 14.1016C7.62184 14.5705 6.39114 18.6937 4.47576 19.2168C4.07725 19.3258 3.46159 19.3289 2.80389 18.7302C2.14304 18.1315 2.10665 17.5371 2.19138 17.1431C2.59993 15.2545 6.75639 13.7855 7.22896 13.6241C7.32247 13.5924 7.42227 13.5949 7.51013 13.6278ZM3.79297 18.4361C3.99003 18.5091 4.14377 18.4884 4.25611 18.4574C5.20689 18.1979 6.1784 16.2265 6.72817 14.657C5.15105 15.2953 3.1886 16.369 2.98652 17.3057C2.94698 17.4896 2.94195 17.7771 3.35867 18.1553C3.52184 18.3021 3.66619 18.3886 3.79297 18.4361Z" fill="#3CA200"/>
<path id="Vector_4" d="M8.46468 8.68052C8.45213 8.72924 8.43017 8.77553 8.39879 8.81694C8.3103 8.9357 8.1603 8.99661 8.01031 8.97529C7.51452 8.90282 3.1478 8.21583 2.3809 6.43503C2.22149 6.06474 2.14305 5.47216 2.67586 4.76568C3.20868 4.05678 3.8118 3.94959 4.22538 3.98369C6.20665 4.14874 8.21239 7.97466 8.43456 8.41072C8.47786 8.49538 8.48728 8.5916 8.46468 8.68052ZM3.09635 5.68166C3.04489 5.88021 3.08505 6.02576 3.13023 6.13052C3.51117 7.01483 5.64496 7.71216 7.31684 8.052C6.47337 6.60982 5.13725 4.84973 4.15509 4.76812C3.96242 4.75228 3.66745 4.78213 3.33106 5.22916C3.20052 5.40395 3.12898 5.55438 3.09635 5.68166Z" fill="#3CA200"/>
<path id="Vector_5" d="M60.5312 14.2866L60.3882 14.716C57.9701 21.9299 53.3661 22.8703 53.1716 22.9068L52.6745 23L52.6984 22.5091C52.8032 20.4007 53.2777 19.0919 53.6486 18.3738C52.8208 18.3683 51.4043 18.1832 49.423 17.3141L48.9612 17.1119L49.2731 16.7252C49.3954 16.5729 52.3526 13.0217 60.0725 14.2148L60.5312 14.2866ZM53.5306 21.986C54.7129 21.531 57.6651 19.9305 59.4794 14.9109C54.0477 14.1953 51.2355 16.0187 50.2803 16.833C52.9225 17.8781 54.2874 17.5559 54.3019 17.5522L55.6047 17.2252L54.6979 18.1862C54.6903 18.1948 53.7728 19.2295 53.5306 21.986Z" fill="#3CA200"/>
<path id="Vector_6" d="M62 9.77667L61.535 9.7791C53.7184 9.81138 51.355 5.86304 51.2577 5.69556L51.011 5.26681L51.4987 5.13465C53.5942 4.57069 55.0238 4.59749 55.8428 4.71442C55.5886 3.94948 55.3257 2.58648 55.5554 0.488372L55.6081 -6.90594e-05L56.0844 0.166192C56.2714 0.231358 60.6739 1.84345 61.9253 9.33146L62 9.77667ZM52.2719 5.7388C53.0871 6.68584 55.5786 8.90454 61.0593 9.00381C60.057 3.77408 57.3917 1.75393 56.2953 1.12846C56.1007 3.89101 56.8438 5.04816 56.8519 5.06034L57.5799 6.15843L56.3549 5.6237C56.3449 5.61883 55.0451 5.0981 52.2719 5.7388Z" fill="#3CA200"/>
</g>
</svg>
