<svg width="27" height="30" viewBox="0 0 27 30" fill="none" xmlns="http://www.w3.org/2000/svg">
<path d="M20.4933 21.2617C18.9952 22.6244 17.0173 23.3797 14.8466 23.3797C10.0618 23.3797 6.54788 19.8243 6.54788 14.9426C6.54788 10.0608 9.94991 6.65507 14.8466 6.65507C16.9794 6.65507 18.9952 7.37389 20.5311 8.73651L21.5751 9.64501L26.2139 4.95301L25.0529 3.89315C22.3233 1.39925 18.6993 0 14.845 0C6.24518 0 0 6.27915 0 14.906C0 23.4963 6.39481 30 14.845 30C18.7716 30 22.4334 28.6007 25.1285 26.0668L26.25 25.0069L21.539 20.3184L20.4933 21.2617Z" fill="#170B26"/>
<path d="M14.999 9.37598C18.1072 9.37598 20.626 11.8908 20.626 15.0009C20.626 18.1071 18.1072 20.626 14.999 20.626C11.8928 20.626 9.37598 18.1071 9.37598 15.0009C9.37788 11.8928 11.8947 9.37598 14.999 9.37598Z" fill="#FF3D2E"/>
</svg>
