<svg width="20" height="20" viewBox="0 0 20 20" fill="none" xmlns="http://www.w3.org/2000/svg">
<path d="M18.9411 6.37784V10.8687C18.9411 11.1606 18.9298 11.4413 18.8962 11.7108C18.6379 14.7421 16.8528 16.2465 13.5632 16.2465H13.1142C12.8335 16.2465 12.564 16.3813 12.3956 16.6058L11.0484 18.4022C10.4533 19.1993 9.48776 19.1993 8.89272 18.4022L7.54544 16.6058C7.39949 16.4149 7.07392 16.2465 6.82692 16.2465H6.37784C2.79636 16.2465 1 15.3596 1 10.8687V6.37784C1 3.08827 2.51568 1.30314 5.5358 1.04492C5.80525 1.01124 6.08593 1 6.37784 1H13.5632C17.1447 1 18.9411 2.79636 18.9411 6.37784Z" stroke="url(#paint0_linear_21563_1457)" stroke-width="2" stroke-miterlimit="10" stroke-linecap="round" stroke-linejoin="round"/>
<path d="M13.904 9.13948H13.9141" stroke="url(#paint1_linear_21563_1457)" stroke-width="2" stroke-linecap="round" stroke-linejoin="round"/>
<path d="M9.98209 9.13948H9.99219" stroke="url(#paint2_linear_21563_1457)" stroke-width="2" stroke-linecap="round" stroke-linejoin="round"/>
<path d="M6.04849 9.13948H6.0586" stroke="url(#paint3_linear_21563_1457)" stroke-width="2" stroke-linecap="round" stroke-linejoin="round"/>
<defs>
<linearGradient id="paint0_linear_21563_1457" x1="28.8087" y1="10" x2="1.00024" y2="10.0812" gradientUnits="userSpaceOnUse">
<stop stop-color="#9708CC"/>
<stop offset="1" stop-color="#43CBFF"/>
</linearGradient>
<linearGradient id="paint1_linear_21563_1457" x1="15.0879" y1="9.13948" x2="13.3477" y2="9.14459" gradientUnits="userSpaceOnUse">
<stop stop-color="#9708CC"/>
<stop offset="1" stop-color="#43CBFF"/>
</linearGradient>
<linearGradient id="paint2_linear_21563_1457" x1="11.166" y1="9.13948" x2="9.4258" y2="9.14459" gradientUnits="userSpaceOnUse">
<stop stop-color="#9708CC"/>
<stop offset="1" stop-color="#43CBFF"/>
</linearGradient>
<linearGradient id="paint3_linear_21563_1457" x1="7.2324" y1="9.13948" x2="5.4922" y2="9.14459" gradientUnits="userSpaceOnUse">
<stop stop-color="#9708CC"/>
<stop offset="1" stop-color="#43CBFF"/>
</linearGradient>
</defs>
</svg>
