<svg width="60" height="60" viewBox="0 0 60 60" fill="none" xmlns="http://www.w3.org/2000/svg">
<circle cx="30" cy="30" r="29.5" stroke="url(#paint0_linear_21895_171)" stroke-dasharray="5 5"/>
<path d="M18.125 40.625C17.9592 40.625 17.8003 40.5592 17.6831 40.4419C17.5658 40.3247 17.5 40.1658 17.5 40V25C17.5 24.5027 17.6975 24.0258 18.0492 23.6742C18.4008 23.3225 18.8777 23.125 19.375 23.125H33.125C33.6223 23.125 34.0992 23.3225 34.4508 23.6742C34.8025 24.0258 35 24.5027 35 25V35C35 35.4973 34.8025 35.9742 34.4508 36.3258C34.0992 36.6775 33.6223 36.875 33.125 36.875H22.9625C22.8132 36.875 22.6689 36.9284 22.5556 37.0256L18.5313 40.4744C18.4181 40.5714 18.274 40.6248 18.125 40.625ZM19.375 24.375C19.2092 24.375 19.0503 24.4408 18.9331 24.5581C18.8158 24.6753 18.75 24.8342 18.75 25V38.6413L21.7425 36.0788C22.0819 35.7867 22.5147 35.6257 22.9625 35.625H33.125C33.2908 35.625 33.4497 35.5592 33.5669 35.4419C33.6842 35.3247 33.75 35.1658 33.75 35V25C33.75 24.8342 33.6842 24.6753 33.5669 24.5581C33.4497 24.4408 33.2908 24.375 33.125 24.375H19.375Z" fill="black"/>
<path d="M41.875 38.125C41.7511 38.1249 41.63 38.0881 41.5269 38.0194L36.2456 34.4819C36.1434 34.4132 36.0232 34.376 35.9 34.375H34.375C34.2092 34.375 34.0503 34.3092 33.9331 34.1919C33.8158 34.0747 33.75 33.9158 33.75 33.75C33.75 33.5842 33.8158 33.4253 33.9331 33.3081C34.0503 33.1908 34.2092 33.125 34.375 33.125H35.9C36.2704 33.1256 36.6322 33.2359 36.94 33.4419L41.25 36.3288V21.25C41.25 21.0842 41.1842 20.9253 41.0669 20.8081C40.9497 20.6908 40.7908 20.625 40.625 20.625H28.125C27.9592 20.625 27.8003 20.6908 27.6831 20.8081C27.5658 20.9253 27.5 21.0842 27.5 21.25V23.75C27.5 23.9158 27.4342 24.0747 27.3169 24.1919C27.1997 24.3092 27.0408 24.375 26.875 24.375C26.7092 24.375 26.5503 24.3092 26.4331 24.1919C26.3158 24.0747 26.25 23.9158 26.25 23.75V21.25C26.25 20.7527 26.4475 20.2758 26.7992 19.9242C27.1508 19.5725 27.6277 19.375 28.125 19.375H40.625C41.1223 19.375 41.5992 19.5725 41.9508 19.9242C42.3025 20.2758 42.5 20.7527 42.5 21.25V37.5C42.5 37.6658 42.4342 37.8247 42.3169 37.9419C42.1997 38.0592 42.0408 38.125 41.875 38.125Z" fill="black"/>
<path d="M30 28.75H22.5C22.3342 28.75 22.1753 28.6842 22.0581 28.5669C21.9408 28.4497 21.875 28.2908 21.875 28.125C21.875 27.9592 21.9408 27.8003 22.0581 27.6831C22.1753 27.5658 22.3342 27.5 22.5 27.5H30C30.1658 27.5 30.3247 27.5658 30.4419 27.6831C30.5592 27.8003 30.625 27.9592 30.625 28.125C30.625 28.2908 30.5592 28.4497 30.4419 28.5669C30.3247 28.6842 30.1658 28.75 30 28.75Z" fill="black"/>
<path d="M26.25 31.875H22.5C22.3342 31.875 22.1753 31.8092 22.0581 31.6919C21.9408 31.5747 21.875 31.4158 21.875 31.25C21.875 31.0842 21.9408 30.9253 22.0581 30.8081C22.1753 30.6908 22.3342 30.625 22.5 30.625H26.25C26.4158 30.625 26.5747 30.6908 26.6919 30.8081C26.8092 30.9253 26.875 31.0842 26.875 31.25C26.875 31.4158 26.8092 31.5747 26.6919 31.6919C26.5747 31.8092 26.4158 31.875 26.25 31.875Z" fill="black"/>
<path d="M30 31.875H28.125C27.9592 31.875 27.8003 31.8092 27.6831 31.6919C27.5658 31.5747 27.5 31.4158 27.5 31.25C27.5 31.0842 27.5658 30.9253 27.6831 30.8081C27.8003 30.6908 27.9592 30.625 28.125 30.625H30C30.1658 30.625 30.3247 30.6908 30.4419 30.8081C30.5592 30.9253 30.625 31.0842 30.625 31.25C30.625 31.4158 30.5592 31.5747 30.4419 31.6919C30.3247 31.8092 30.1658 31.875 30 31.875Z" fill="black"/>
<defs>
<linearGradient id="paint0_linear_21895_171" x1="4.47035e-08" y1="30" x2="75.375" y2="30" gradientUnits="userSpaceOnUse">
<stop stop-color="#E5087B"/>
<stop offset="1" stop-color="#FDD819"/>
</linearGradient>
</defs>
</svg>
