<svg width="61" height="60" viewBox="0 0 61 60" fill="none" xmlns="http://www.w3.org/2000/svg">
<g id="review 1">
<g id="Group">
<path id="Vector" fill-rule="evenodd" clip-rule="evenodd" d="M52.047 29.0763C51.5369 29.1624 51.1925 29.6458 51.2786 30.1566C51.4819 31.3578 51.5845 32.5663 51.5845 33.751C51.5845 40.3589 48.638 46.3235 43.8905 50.2949C43.0613 44.9138 39.2392 40.5979 34.1637 39.0534C36.1816 37.7079 37.5159 35.4154 37.5159 32.8135C37.5159 28.6771 34.1499 25.3135 30.0126 25.3135C25.8754 25.3135 22.5094 28.6771 22.5094 32.8135C22.5094 35.4154 23.8436 37.7079 25.8615 39.0534C20.786 40.5979 16.9639 44.9138 16.1348 50.2949C11.3873 46.3235 8.44076 40.3589 8.44076 33.751C8.44076 32.5663 8.54334 31.3578 8.74667 30.1566C8.83277 29.6458 8.48838 29.1624 7.97821 29.0763C7.45614 28.9884 6.98352 29.3345 6.89651 29.8453C6.67668 31.1472 6.56494 32.4619 6.56494 33.751C6.56494 45.2646 14.7918 54.9821 26.1264 56.8571C26.1776 56.8662 26.2299 56.8699 26.2802 56.8699C26.7309 56.8699 27.1284 56.5439 27.2044 56.0862C27.2896 55.5753 26.9434 55.0919 26.4323 55.0077C23.2718 54.4848 20.3804 53.2904 17.8765 51.5961C18.329 45.2339 23.56 40.3135 30.0126 40.3135C36.4652 40.3135 41.6963 45.2339 42.1487 51.5961C39.6448 53.2904 36.7535 54.4848 33.593 55.0077C33.0819 55.0919 32.7357 55.5753 32.8208 56.0862C32.8969 56.5439 33.2944 56.8699 33.745 56.8699C33.7954 56.8699 33.8476 56.8662 33.8989 56.8571C45.2335 54.9821 53.4603 45.2646 53.4603 33.751C53.4603 32.4619 53.3486 31.1472 53.1287 29.8453C53.0417 29.3345 52.5636 28.9866 52.047 29.0763ZM24.3852 32.8135C24.3852 29.7117 26.9095 27.1885 30.0126 27.1885C33.1158 27.1885 35.6401 29.7117 35.6401 32.8135C35.6401 35.9153 33.1158 38.4385 30.0126 38.4385C26.9095 38.4385 24.3852 35.9153 24.3852 32.8135Z" fill="white"/>
<path id="Vector_2" fill-rule="evenodd" clip-rule="evenodd" d="M40.2839 10.2732C40.1731 9.93262 39.88 9.68542 39.5265 9.63416L33.5336 8.7644L30.8536 3.33533C30.5385 2.69812 29.487 2.69812 29.1719 3.33533L26.4919 8.7644L20.499 9.63416C20.1455 9.68542 19.8524 9.93262 19.7416 10.2732C19.6316 10.6119 19.7232 10.9855 19.9788 11.2345L24.3157 15.4587L23.2917 21.4243C23.2312 21.7777 23.3759 22.1329 23.6645 22.3417C23.9548 22.5522 24.3368 22.5834 24.6527 22.4131L30.0127 19.5951L35.3727 22.4131C35.5101 22.4863 35.6603 22.5211 35.8096 22.5211C36.0038 22.5211 36.1971 22.4607 36.361 22.3417C36.6495 22.1329 36.7942 21.7777 36.7338 21.4243L35.7098 15.4587L40.0467 11.2345C40.3022 10.9855 40.3938 10.6119 40.2839 10.2732ZM34.0474 14.459C33.8267 14.675 33.7259 14.9845 33.7781 15.2903L34.564 19.8698L30.4496 17.7073C30.3122 17.6359 30.163 17.5992 30.0127 17.5992C29.8625 17.5992 29.7132 17.6359 29.5758 17.7073L25.4615 19.8698L26.2474 15.2903C26.2996 14.9845 26.1988 14.675 25.9781 14.459L22.6496 11.218L27.2494 10.5497C27.5553 10.5039 27.8191 10.3135 27.9556 10.037L30.0127 5.86951L32.0699 10.037C32.2064 10.3135 32.4702 10.5039 32.7761 10.5497L37.3759 11.218L34.0474 14.459Z" fill="white"/>
<path id="Vector_3" fill-rule="evenodd" clip-rule="evenodd" d="M7.56908 25.3574C7.50863 25.7108 7.65335 26.066 7.94186 26.2748C8.23313 26.4854 8.61598 26.5147 8.93015 26.3462L13.1306 24.1379L17.331 26.3462C17.4684 26.4194 17.6186 26.4542 17.7679 26.4542C17.9621 26.4542 18.1553 26.3938 18.3193 26.2748C18.6078 26.066 18.7525 25.7108 18.6921 25.3574L17.8897 20.6827L21.2887 17.3722C21.5443 17.1232 21.6359 16.7496 21.5259 16.4109C21.4151 16.0703 21.122 15.8231 20.7685 15.7719L16.0716 15.0907L13.9714 10.8353C13.6563 10.1981 12.6048 10.1981 12.2898 10.8353L10.1895 15.0907L5.49268 15.7719C5.13913 15.8231 4.84604 16.0703 4.73521 16.4109C4.6253 16.7496 4.71689 17.1232 4.97243 17.3722L8.37143 20.6827L7.56908 25.3574ZM7.64327 17.3557L10.947 16.876C11.2529 16.8302 11.5167 16.6398 11.6532 16.3633L13.1306 13.3695L14.608 16.3633C14.7444 16.6398 15.0082 16.8302 15.3141 16.876L18.6179 17.3557L16.2273 19.683C16.0066 19.899 15.9058 20.2085 15.958 20.5143L16.5222 23.8029L13.5675 22.2501C13.4301 22.1787 13.2808 22.1421 13.1306 22.1421C12.9804 22.1421 12.8311 22.1787 12.6937 22.2501L9.73891 23.8029L10.3031 20.5143C10.3553 20.2085 10.2546 19.899 10.0338 19.683L7.64327 17.3557Z" fill="white"/>
<path id="Vector_4" fill-rule="evenodd" clip-rule="evenodd" d="M54.5331 15.7719L49.8363 15.0907L47.736 10.8353C47.421 10.1981 46.3695 10.1981 46.0544 10.8353L43.9542 15.0907L39.2573 15.7719C38.9038 15.8231 38.6107 16.0703 38.4999 16.4109C38.3899 16.7496 38.4815 17.1232 38.7371 17.3722L42.1361 20.6827L41.3337 25.3574C41.2733 25.7108 41.418 26.066 41.7065 26.2748C41.9969 26.4854 42.3788 26.5147 42.6948 26.3462L46.8952 24.1379L51.0957 26.3462C51.233 26.4194 51.3833 26.4542 51.5326 26.4542C51.7267 26.4542 51.92 26.3938 52.0839 26.2748C52.3725 26.066 52.5172 25.7108 52.4567 25.3574L51.6544 20.6827L55.0534 17.3722C55.3089 17.1232 55.4005 16.7496 55.2906 16.4109C55.1798 16.0703 54.8867 15.8231 54.5331 15.7719ZM49.992 19.683C49.7712 19.899 49.6705 20.2085 49.7227 20.5143L50.2869 23.8029L47.3321 22.2501C47.1947 22.1787 47.0454 22.1421 46.8952 22.1421C46.745 22.1421 46.5957 22.1787 46.4583 22.2501L43.5036 23.8029L44.0678 20.5143C44.12 20.2085 44.0192 19.899 43.7985 19.683L41.4079 17.3557L44.7117 16.876C45.0176 16.8302 45.2814 16.6398 45.4178 16.3633L46.8952 13.3695L48.3726 16.3633C48.5091 16.6398 48.7729 16.8302 49.0788 16.876L52.3825 17.3557L49.992 19.683Z" fill="white"/>
</g>
<path id="Vector_5" d="M30.0132 57.1885C30.5312 57.1885 30.9511 56.7687 30.9511 56.251C30.9511 55.7332 30.5312 55.3135 30.0132 55.3135C29.4951 55.3135 29.0752 55.7332 29.0752 56.251C29.0752 56.7687 29.4951 57.1885 30.0132 57.1885Z" fill="white"/>
</g>
</svg>
