<svg width="60" height="60" viewBox="0 0 60 60" fill="none" xmlns="http://www.w3.org/2000/svg">
<g id="completed-task 1" clip-path="url(#clip0_13309_5900)">
<path id="Vector" d="M58.8816 32.4619L50.5139 17.9705C50.3384 17.667 50.0497 17.4456 49.7111 17.3549C49.3726 17.2642 49.0119 17.3115 48.7082 17.4865L45.7787 19.1799V8.02712C45.7787 7.99665 45.7787 7.96619 45.7787 7.93572C45.7787 7.92283 45.7787 7.90876 45.7728 7.8947L45.7658 7.84783C45.7658 7.83142 45.7576 7.81501 45.7541 7.79861L45.7447 7.76111L45.7271 7.71189C45.7271 7.70017 45.7189 7.68845 45.7154 7.67791L45.6943 7.62986C45.6885 7.61931 45.6838 7.60759 45.6779 7.59705L45.6533 7.55369C45.6463 7.54197 45.6404 7.53025 45.6322 7.51853L45.6064 7.48103L45.5807 7.44587L45.5514 7.41189L45.535 7.39197L39.8611 1.2408L39.8483 1.22791L39.8108 1.19041L39.7803 1.16345C39.7662 1.15173 39.7522 1.14001 39.7369 1.12947C39.7273 1.12139 39.7171 1.11396 39.7065 1.1072L39.6549 1.07322L39.6291 1.05564L39.5658 1.024L39.5448 1.01345C39.5202 1.00291 39.4944 0.99353 39.4674 0.984155H39.4569C39.4288 0.97478 39.3995 0.967749 39.369 0.960718C39.3385 0.954468 39.3081 0.94978 39.2776 0.946655C39.246 0.946655 39.2131 0.946655 39.1803 0.946655H15.9519C15.4931 0.947275 15.0533 1.12983 14.7288 1.4543C14.4044 1.77876 14.2218 2.21865 14.2212 2.67751V21.1052L11.2917 19.4119C10.9879 19.2368 10.627 19.1895 10.2882 19.2802C9.94946 19.3709 9.66053 19.5924 9.48483 19.8959L1.11474 34.3896C0.940055 34.6934 0.892905 35.0541 0.983617 35.3926C1.07433 35.731 1.2955 36.0198 1.59869 36.1955L8.43725 40.147C9.51221 41.0926 10.4438 42.1897 11.2027 43.4037L8.90597 47.3927C8.52628 48.0498 8.36624 48.8109 8.44915 49.5653C8.53206 50.3196 8.8536 51.0278 9.36694 51.5867C9.88028 52.1455 10.5586 52.5259 11.3032 52.6725C12.0477 52.819 12.8196 52.724 13.5064 52.4013C13.6709 52.8723 13.9324 53.3036 14.2738 53.6673C14.6153 54.031 15.0292 54.3191 15.4888 54.513C15.9484 54.7069 16.4436 54.8023 16.9424 54.793C17.4412 54.7838 17.9325 54.67 18.3846 54.4591C18.6792 55.3104 19.2856 56.0182 20.0815 56.4399C20.8774 56.8616 21.8036 56.9658 22.6733 56.7314C23.0449 56.632 23.3981 56.4737 23.7197 56.2627C24.0026 56.8826 24.4575 57.4081 25.0305 57.7769C25.6034 58.1456 26.2702 58.3421 26.9515 58.3427C27.5545 58.3432 28.1477 58.1908 28.6758 57.8998C29.2039 57.6088 29.6496 57.1887 29.9712 56.6787L33.1749 58.5279C33.862 58.9255 34.6517 59.1102 35.4439 59.0586C36.236 59.0069 36.9951 58.7213 37.6248 58.2379C38.2545 57.7545 38.7265 57.095 38.9811 56.343C39.2357 55.591 39.2614 54.7804 39.055 54.0138C39.0245 53.8967 38.9882 53.7795 38.9483 53.674C39.0647 53.6529 39.1819 53.6271 39.2999 53.5967C39.809 53.4612 40.2864 53.2266 40.7046 52.9062C41.1228 52.5858 41.4737 52.186 41.7371 51.7297C42.0004 51.2734 42.1711 50.7696 42.2393 50.2471C42.3075 49.7247 42.2718 49.194 42.1344 48.6853C42.104 48.5681 42.0688 48.4568 42.029 48.3466C42.6072 48.2463 43.1563 48.0201 43.6376 47.6841C44.1188 47.3481 44.5204 46.9105 44.8139 46.4023C45.1074 45.894 45.2857 45.3274 45.3362 44.7427C45.3867 44.1579 45.3081 43.5692 45.1061 43.0181C45.6843 42.9175 46.2333 42.6912 46.7144 42.355C47.1955 42.0189 47.5969 41.5812 47.8902 41.0728C47.9928 40.895 48.0817 40.7097 48.1562 40.5185C48.7351 40.2373 49.2694 39.7615 49.7909 39.2963C50.1541 38.9705 50.7635 38.4267 51.0002 38.3881C51.1714 38.3928 51.3406 38.3498 51.4888 38.2638L58.4024 34.2701C58.7052 34.0934 58.9256 33.8039 59.0154 33.465C59.1052 33.1261 59.0571 32.7654 58.8816 32.4619ZM40.1096 4.27712L42.6992 7.08962H40.1096V4.27712ZM16.0961 2.81345H38.2347V8.02712C38.2347 8.27576 38.3335 8.51422 38.5093 8.69004C38.6851 8.86585 38.9235 8.96462 39.1721 8.96462H43.9003V20.2627L42.0254 21.3431C38.3777 21.1931 32.9546 21.7767 29.3432 23.4396C29.1327 23.5383 28.9134 23.6167 28.6881 23.674C28.5803 23.7045 28.4608 23.7396 28.3108 23.7912C27.8663 23.932 27.449 24.1476 27.0769 24.4287C27.0389 24.4105 26.9998 24.3948 26.9597 24.3818C24.6572 23.592 21.2496 22.7693 17.9112 23.2404L16.0879 22.1857L16.0961 2.81345ZM8.64114 38.0974L3.01655 34.8478L10.8289 21.3115L16.4535 24.5611L8.64114 38.0974ZM13.7771 49.4541L13.4502 50.0189C13.3392 50.2113 13.1915 50.3799 13.0154 50.5152C12.8392 50.6504 12.6382 50.7497 12.4237 50.8072C12.2093 50.8648 11.9856 50.8796 11.7654 50.8507C11.5452 50.8218 11.3329 50.7498 11.1406 50.6388C10.9482 50.5279 10.7796 50.3801 10.6444 50.204C10.5091 50.0279 10.4099 49.8268 10.3523 49.6123C10.2947 49.3979 10.28 49.1741 10.3089 48.954C10.3378 48.7338 10.4097 48.5214 10.5207 48.3291L13.906 42.4697C14.0169 42.2773 14.1647 42.1087 14.3408 41.9734C14.5169 41.8382 14.7179 41.7389 14.9324 41.6814C15.1469 41.6238 15.3706 41.6091 15.5907 41.6379C15.8109 41.6668 16.0232 41.7388 16.2156 41.8498C16.4079 41.9607 16.5766 42.1085 16.7118 42.2846C16.8471 42.4607 16.9463 42.6618 17.0039 42.8763C17.0614 43.0908 17.0762 43.3145 17.0473 43.5347C17.0184 43.7548 16.9464 43.9672 16.8355 44.1595L13.7794 49.4541H13.7771ZM18.6564 51.5095L18.3295 52.0767C18.1039 52.4633 17.7349 52.7452 17.3026 52.861C16.8703 52.9769 16.4097 52.9174 16.0211 52.6955C15.6336 52.4708 15.3509 52.1017 15.235 51.669C15.119 51.2363 15.1792 50.7753 15.4024 50.3869L18.4596 45.0935C18.6836 44.705 19.0529 44.4215 19.486 44.3052C19.9191 44.1889 20.3807 44.2495 20.7692 44.4736C21.1576 44.6977 21.4412 45.0669 21.5574 45.5001C21.6737 45.9333 21.6131 46.3949 21.389 46.7834L18.6623 51.5072L18.6564 51.5095ZM23.2088 54.1416C22.9848 54.5301 22.6156 54.8136 22.1824 54.9299C21.7493 55.0462 21.2877 54.9856 20.8992 54.7615C20.5108 54.5374 20.2272 54.1682 20.111 53.735C19.9947 53.3018 20.0553 52.8402 20.2794 52.4517L23.0073 47.7279C23.2307 47.3394 23.5994 47.0556 24.032 46.9389C24.4647 46.8222 24.9261 46.8822 25.3145 47.1056C25.703 47.3291 25.9868 47.6977 26.1035 48.1305C26.2202 48.5632 26.1602 49.0246 25.9368 49.4131L23.8674 52.9978L23.2088 54.1416ZM26.1078 56.2509C25.7217 56.0256 25.4401 55.6569 25.3242 55.2251C25.2084 54.7932 25.2676 54.3331 25.4891 53.9447L27.5585 50.3599C27.6695 50.1676 27.8172 49.9989 27.9933 49.8637C28.1694 49.7284 28.3705 49.6292 28.5849 49.5716C28.7994 49.514 29.0231 49.4993 29.2433 49.5282C29.4634 49.5571 29.6758 49.6291 29.8681 49.74C30.0605 49.851 30.2291 49.9987 30.3643 50.1749C30.4996 50.351 30.5988 50.552 30.6564 50.7665C30.7139 50.981 30.7287 51.2047 30.6998 51.4249C30.6709 51.6451 30.5989 51.8574 30.488 52.0498L28.8194 54.9408L28.421 55.6322C28.1949 56.0196 27.8243 56.3015 27.3905 56.4157C26.9568 56.53 26.4954 56.4674 26.1078 56.2416V56.2509ZM37.0289 56.1338C36.7451 56.6247 36.2781 56.983 35.7304 57.13C35.1827 57.2769 34.5991 57.2006 34.1077 56.9177L30.9087 55.0697L32.1074 52.9767C32.4388 52.4024 32.6032 51.7469 32.582 51.0842L36.2438 53.1935C36.7356 53.4781 37.0944 53.9461 37.2416 54.4949C37.3887 55.0436 37.3123 55.6284 37.0289 56.1209V56.1338ZM46.2579 40.1482C45.9739 40.639 45.5068 40.997 44.9592 41.1437C44.4115 41.2905 43.828 41.214 43.3367 40.931L35.5642 36.4439C35.4575 36.3785 35.3387 36.3351 35.215 36.3162C35.0912 36.2974 34.9649 36.3036 34.8436 36.3344C34.7223 36.3652 34.6083 36.4199 34.5085 36.4955C34.4087 36.571 34.325 36.6658 34.2624 36.7742C34.1997 36.8826 34.1595 37.0024 34.1439 37.1267C34.1284 37.2509 34.1379 37.377 34.1718 37.4975C34.2058 37.618 34.2635 37.7304 34.3417 37.8282C34.4198 37.9261 34.5167 38.0072 34.6268 38.067L42.3992 42.54C42.8785 42.8296 43.2251 43.2955 43.3648 43.8377C43.5044 44.38 43.426 44.9554 43.1463 45.4405C42.8666 45.9256 42.4079 46.2817 41.8686 46.4324C41.3294 46.5831 40.7525 46.5164 40.2619 46.2467L34.2928 42.8002C34.1862 42.7386 34.0684 42.6987 33.9464 42.6826C33.8243 42.6665 33.7002 42.6747 33.5813 42.7066C33.4624 42.7385 33.3509 42.7935 33.2532 42.8684C33.1555 42.9434 33.0736 43.0369 33.012 43.1435C32.9505 43.2502 32.9105 43.3679 32.8945 43.49C32.8784 43.6121 32.8866 43.7361 32.9184 43.8551C32.9503 43.974 33.0053 44.0855 33.0803 44.1832C33.1553 44.2809 33.2487 44.3628 33.3554 44.4244L39.3163 47.8662C39.8074 48.1499 40.1658 48.6172 40.3125 49.1652C40.4592 49.7132 40.3822 50.297 40.0984 50.7883C39.8147 51.2795 39.3474 51.6379 38.7995 51.7845C38.2515 51.9312 37.6678 51.8542 37.1766 51.5705L33.1702 49.2572C32.9991 49.1596 32.8016 49.1185 32.6058 49.1395C32.41 49.1605 32.2258 49.2427 32.0793 49.3744C31.6838 48.7057 31.08 48.1851 30.3604 47.8923C29.6408 47.5996 28.8451 47.5509 28.0952 47.7537L27.944 47.797C27.9323 47.7467 27.9206 47.6951 27.9065 47.6447C27.7864 47.1933 27.5785 46.7699 27.2946 46.399C27.0107 46.028 26.6565 45.7166 26.2521 45.4827C25.8478 45.2488 25.4013 45.0969 24.9382 45.0358C24.4751 44.9746 24.0045 45.0054 23.5533 45.1263C23.5018 45.1404 23.4526 45.1545 23.4022 45.1709C23.3905 45.1193 23.3787 45.0689 23.3647 45.0174C23.2443 44.5652 23.036 44.1412 22.7514 43.7698C22.4669 43.3983 22.1119 43.0867 21.7067 42.8527C21.3016 42.6187 20.8542 42.4671 20.3903 42.4064C19.9263 42.3457 19.455 42.3772 19.0033 42.499L18.8533 42.5424C18.6976 41.842 18.3341 41.2049 17.8104 40.7146C17.2867 40.2242 16.6272 39.9033 15.9182 39.7939C15.2092 39.6845 14.4836 39.7917 13.8365 40.1014C13.1894 40.4111 12.6508 40.909 12.2913 41.5299L12.2514 41.5978C11.6395 40.7313 10.9466 39.925 10.182 39.1896L18.3225 25.0791C21.0176 24.7275 23.8053 25.3345 25.8489 25.9873C25.7637 26.1792 25.6935 26.3774 25.6391 26.5802L24.3502 31.4107C24.3185 31.5279 24.2881 31.6345 24.2599 31.7388C24.0654 32.4314 23.8967 33.0279 24.0502 34.0123C24.1884 34.9187 24.5158 35.7859 25.011 36.5576C25.3181 37.0111 25.8137 37.6123 26.5695 37.6205H26.5836C27.3827 37.6205 27.8397 36.9748 28.2065 36.4545C28.2475 36.3959 28.2897 36.3373 28.3331 36.2775C29.1108 35.1794 29.8327 34.0428 30.4962 32.872C31.1583 31.7388 31.8438 30.5658 32.2773 30.4615L33.3448 30.2072L45.4799 37.2138C45.9698 37.4987 46.3268 37.9661 46.4726 38.5138C46.6185 39.0614 46.5413 39.6445 46.2579 40.1353V40.1482ZM48.3004 38.1174C48.1718 37.5924 47.9382 37.099 47.6138 36.6668C47.2893 36.2346 46.8807 35.8725 46.4126 35.6025L33.9542 28.3955C33.7464 28.2757 33.5007 28.24 33.2675 28.2959L31.8367 28.6369C30.6239 28.9263 29.8892 30.1849 28.8721 31.9252C28.2398 33.0438 27.5511 34.1296 26.8086 35.1783C26.7617 35.2427 26.716 35.3072 26.6715 35.3705L26.5672 35.5181L26.5578 35.5041C26.2188 34.9615 25.9943 34.3553 25.8981 33.7228C25.8079 33.1427 25.8981 32.8427 26.0598 32.2439C26.0903 32.1338 26.1231 32.0189 26.1559 31.8924L27.4449 27.0631C27.5261 26.7575 27.6746 26.4741 27.8796 26.2334C27.8983 26.2146 27.9147 26.1947 27.9323 26.1748C28.1869 25.8967 28.5102 25.6906 28.8698 25.5771C28.9998 25.5361 29.1041 25.5056 29.199 25.4787C29.5155 25.3938 29.8237 25.2809 30.1201 25.1412C33.5745 23.5556 38.7351 23.1244 41.7055 23.2041L49.6585 36.9795C49.2626 37.2574 48.8867 37.5629 48.5336 37.8935C48.4586 37.9697 48.3801 38.0342 48.3004 38.1045V38.1174ZM51.3576 36.172L43.5406 22.6357L49.1652 19.3861L56.9798 32.9224L51.3576 36.172ZM24.5412 18.3595C24.7898 18.3595 25.0282 18.2608 25.204 18.085C25.3798 17.9091 25.4786 17.6707 25.4786 17.422V11.1408C25.4786 10.8922 25.3798 10.6537 25.204 10.4779C25.0282 10.3021 24.7898 10.2033 24.5412 10.2033H18.2557C18.0071 10.2033 17.7686 10.3021 17.5928 10.4779C17.417 10.6537 17.3182 10.8922 17.3182 11.1408V17.4244C17.3182 17.673 17.417 17.9115 17.5928 18.0873C17.7686 18.2631 18.0071 18.3619 18.2557 18.3619L24.5412 18.3595ZM19.1955 12.076H23.6037V16.4845H19.1931L19.1955 12.076ZM23.1901 14.0787L21.7628 15.7158C21.6783 15.8125 21.5747 15.8909 21.4586 15.9459C21.3425 16.0009 21.2163 16.0315 21.0879 16.0357H21.0563C20.9326 16.0364 20.81 16.0127 20.6956 15.9658C20.5812 15.919 20.4771 15.8499 20.3895 15.7627L19.6478 15.0209C19.5607 14.9337 19.4916 14.8302 19.4445 14.7163C19.3974 14.6025 19.3732 14.4804 19.3732 14.3572C19.3733 14.2339 19.3976 14.1119 19.4448 13.9981C19.492 13.8842 19.5612 13.7808 19.6484 13.6937C19.7355 13.6066 19.839 13.5375 19.9529 13.4904C20.0667 13.4433 20.1888 13.4191 20.312 13.4192C20.4352 13.4192 20.5572 13.4435 20.6711 13.4907C20.7849 13.538 20.8883 13.6071 20.9754 13.6943L21.0082 13.7271L21.7734 12.8494C21.8534 12.7538 21.9517 12.6752 22.0625 12.6181C22.1733 12.561 22.2944 12.5266 22.4186 12.5169C22.5429 12.5071 22.6678 12.5223 22.7862 12.5614C22.9045 12.6005 23.0139 12.6628 23.1078 12.7447C23.2018 12.8266 23.2785 12.9264 23.3334 13.0383C23.3883 13.1502 23.4204 13.2719 23.4277 13.3963C23.4351 13.5208 23.4175 13.6454 23.3761 13.763C23.3347 13.8805 23.2703 13.9887 23.1866 14.081L23.1901 14.0787ZM28.2089 17.7912C28.2089 17.5425 28.3076 17.3041 28.4834 17.1283C28.6592 16.9525 28.8977 16.8537 29.1463 16.8537H41.743C41.9917 16.8537 42.2301 16.9525 42.4059 17.1283C42.5817 17.3041 42.6805 17.5425 42.6805 17.7912C42.6805 18.0398 42.5817 18.2783 42.4059 18.4541C42.2301 18.6299 41.9917 18.7287 41.743 18.7287H29.144C28.8957 18.7287 28.6576 18.6302 28.4819 18.4549C28.3062 18.2796 28.2071 18.0418 28.2065 17.7935L28.2089 17.7912ZM28.2089 11.1385C28.2089 10.8898 28.3076 10.6514 28.4834 10.4755C28.6592 10.2997 28.8977 10.201 29.1463 10.201H34.9959C35.2445 10.201 35.4829 10.2997 35.6587 10.4755C35.8345 10.6514 35.9333 10.8898 35.9333 11.1385C35.9333 11.3871 35.8345 11.6255 35.6587 11.8014C35.4829 11.9772 35.2445 12.076 34.9959 12.076H29.144C28.8957 12.076 28.6576 11.9775 28.4819 11.8022C28.3062 11.6269 28.2071 11.389 28.2065 11.1408L28.2089 11.1385ZM28.2089 14.4642C28.2089 14.2156 28.3076 13.9771 28.4834 13.8013C28.6592 13.6255 28.8977 13.5267 29.1463 13.5267H37.466C37.7146 13.5267 37.9531 13.6255 38.1289 13.8013C38.3047 13.9771 38.4034 14.2156 38.4034 14.4642C38.4034 14.7129 38.3047 14.9513 38.1289 15.1271C37.9531 15.303 37.7146 15.4017 37.466 15.4017H29.1463C29.0232 15.402 28.9012 15.3781 28.7874 15.3313C28.6735 15.2844 28.57 15.2156 28.4827 15.1288C28.3955 15.042 28.3262 14.9388 28.2788 14.8252C28.2314 14.7115 28.2068 14.5897 28.2065 14.4666L28.2089 14.4642Z" fill="white"/>
</g>
<defs>
<clipPath id="clip0_13309_5900">
<rect width="59.9956" height="60" fill="white" transform="translate(0 0.000976562)"/>
</clipPath>
</defs>
</svg>
