<svg width="60" height="60" viewBox="0 0 60 60" fill="none" xmlns="http://www.w3.org/2000/svg">
<g id="satisfaction 1" clip-path="url(#clip0_13309_5906)">
<path id="Vector" d="M49.6187 38.3289C49.6175 37.295 49.2063 36.3038 48.4753 35.5728C47.7443 34.8417 46.7532 34.4305 45.7194 34.4294H33.9195C35.5491 30.4796 35.555 26.0464 33.936 22.0922C33.9219 22.0575 33.9056 22.0237 33.8874 21.991C33.5546 21.3922 33.0613 20.8981 32.463 20.5644C31.8647 20.2306 31.1852 20.0705 30.5009 20.1019C29.8166 20.1334 29.1546 20.3552 28.5894 20.7424C28.0243 21.1296 27.5784 21.6668 27.3019 22.2937C27.2583 22.3927 27.2321 22.4984 27.2245 22.6063L26.9459 26.5611C26.529 28.8338 25.3027 30.8785 23.4942 32.3166C22.7698 32.5709 21.4436 33.4704 17.9837 36.7628V36.6645C17.9832 36.1461 17.7771 35.6491 17.4105 35.2826C17.044 34.9161 16.547 34.7099 16.0287 34.7095H6.18744C5.66913 34.71 5.1722 34.9161 4.8057 35.2827C4.4392 35.6492 4.23307 36.1461 4.23254 36.6645V56.3051C4.23291 56.8236 4.43897 57.3207 4.80549 57.6873C5.17201 58.054 5.66903 58.2602 6.18744 58.2607H16.0281C16.5465 58.2603 17.0434 58.0541 17.4099 57.6876C17.7765 57.3211 17.9826 56.8241 17.9831 56.3057V56.2196C20.6893 56.8165 22.1016 57.526 23.7491 59.0564C24.3967 59.6727 25.2594 60.0116 26.1533 60.001H41.4071C42.1473 60.0013 42.8723 59.7907 43.4972 59.394C44.1221 58.9973 44.6212 58.4308 44.936 57.7608C45.2507 57.0908 45.3682 56.345 45.2747 55.6107C45.1811 54.8764 44.8804 54.1839 44.4077 53.6143C45.6251 52.882 46.4912 51.5709 46.4912 50.1779C46.4921 49.3112 46.2029 48.4692 45.6696 47.7861C46.9096 47.0516 47.7992 45.6959 47.7992 44.2537C47.8002 43.4406 47.5456 42.6478 47.0714 41.9874C47.8185 41.7102 48.4629 41.2112 48.9182 40.5573C49.3735 39.9033 49.6179 39.1258 49.6187 38.3289ZM16.1083 56.3055C16.1075 56.3265 16.0988 56.3464 16.0839 56.3612C16.0691 56.3761 16.0491 56.3848 16.0281 56.3855H6.18744C6.16645 56.3848 6.14653 56.3761 6.13168 56.3612C6.11684 56.3464 6.10816 56.3265 6.1074 56.3055V36.6648C6.10819 36.6439 6.11687 36.624 6.13171 36.6091C6.14656 36.5943 6.16646 36.5856 6.18744 36.5848H16.0281C16.0491 36.5856 16.069 36.5943 16.0839 36.6091C16.0988 36.624 16.1075 36.6439 16.1083 36.6648V56.3055ZM45.7194 40.3533H42.4613C42.2126 40.3533 41.9742 40.4521 41.7984 40.6279C41.6226 40.8037 41.5238 41.0422 41.5238 41.2908C41.5238 41.5395 41.6226 41.7779 41.7984 41.9537C41.9742 42.1296 42.2126 42.2283 42.4613 42.2283H43.9C44.4366 42.2291 44.9511 42.4426 45.3306 42.8221C45.7101 43.2016 45.9236 43.7161 45.9244 44.2529C45.9244 45.3075 44.8822 46.3805 43.8126 46.4731C43.4187 46.3432 43.0066 46.2771 42.5919 46.2775C42.3433 46.2775 42.1048 46.3763 41.929 46.5521C41.7532 46.7279 41.6545 46.9664 41.6545 47.215C41.6545 47.4636 41.7532 47.7021 41.929 47.8779C42.1048 48.0537 42.3433 48.1525 42.5919 48.1525C42.8289 48.1523 43.0642 48.1938 43.2868 48.2753C43.3115 48.2862 43.3366 48.2961 43.3624 48.3047C43.733 48.4578 44.05 48.7175 44.2732 49.0507C44.4964 49.384 44.6157 49.7759 44.6162 50.177C44.6162 51.2106 43.5325 52.263 42.4291 52.3375C42.096 52.247 41.7522 52.2013 41.407 52.2016C41.1584 52.2016 40.9199 52.3003 40.7441 52.4762C40.5683 52.652 40.4696 52.8904 40.4696 53.1391C40.4696 53.3877 40.5683 53.6262 40.7441 53.802C40.9199 53.9778 41.1584 54.0766 41.407 54.0766C41.6033 54.0764 41.7986 54.1049 41.9867 54.1612C42.0088 54.1691 42.0314 54.1764 42.0544 54.1827C42.5094 54.3361 42.8951 54.6463 43.1426 55.0578C43.3901 55.4693 43.4833 55.9554 43.4055 56.4293C43.3277 56.9032 43.0841 57.334 42.718 57.6448C42.3519 57.9556 41.8873 58.1261 41.4071 58.126H26.1533C25.9453 58.1306 25.7384 58.0939 25.5446 58.0178C25.3509 57.9417 25.1743 57.8278 25.025 57.6828C23.0341 55.833 21.2939 54.9909 17.9831 54.3019V39.366L18.1494 39.2042C22.7506 34.7355 23.8777 34.1553 24.117 34.0848C24.256 34.0563 24.3866 33.9966 24.4992 33.9102C26.765 32.1746 28.2994 29.6538 28.8004 26.8438C28.8062 26.8109 28.8104 26.7778 28.8128 26.7445L29.0823 22.9189C29.2346 22.6383 29.4585 22.4032 29.7312 22.2373C30.0039 22.0714 30.3157 21.9808 30.6348 21.9746C30.9539 21.9684 31.269 22.0469 31.5479 22.202C31.8269 22.3572 32.0597 22.5835 32.2227 22.8579C33.0056 24.7934 33.3569 26.8763 33.2523 28.9615C33.1477 31.0467 32.5896 33.084 31.617 34.9314C31.542 35.0743 31.5051 35.2341 31.5099 35.3955C31.5148 35.5568 31.5612 35.7141 31.6447 35.8523C31.7281 35.9904 31.8458 36.1046 31.9864 36.1839C32.127 36.2632 32.2856 36.3049 32.447 36.3048H45.7194C46.2537 36.3089 46.7646 36.524 47.141 36.9033C47.5173 37.2825 47.7285 37.7951 47.7285 38.3294C47.7285 38.8637 47.5173 39.3764 47.141 39.7556C46.7646 40.1349 46.2537 40.35 45.7194 40.354V40.3533ZM12.9305 39.6643V39.7773C12.9305 40.026 12.8317 40.2644 12.6559 40.4403C12.4801 40.6161 12.2417 40.7148 11.9931 40.7148C11.7444 40.7148 11.506 40.6161 11.3302 40.4403C11.1544 40.2644 11.0556 40.026 11.0556 39.7773V39.6643C11.0556 39.4156 11.1544 39.1772 11.3302 39.0013C11.506 38.8255 11.7444 38.7268 11.9931 38.7268C12.2417 38.7268 12.4801 38.8255 12.6559 39.0013C12.8317 39.1772 12.9305 39.4156 12.9305 39.6643ZM41.0593 8.03794C41.0028 7.86392 40.8966 7.71025 40.7538 7.59587C40.611 7.48149 40.4379 7.41139 40.2557 7.39422L33.5368 6.76141L30.8581 0.566411C30.7855 0.398476 30.6653 0.255458 30.5124 0.154985C30.3595 0.0545124 30.1806 0.000976563 29.9976 0.000976562C29.8147 0.000976563 29.6357 0.0545124 29.4828 0.154985C29.3299 0.255458 29.2098 0.398476 29.1372 0.566411L26.4588 6.76129L19.74 7.39411C19.5579 7.41128 19.3847 7.48137 19.242 7.59574C19.0992 7.71012 18.993 7.86377 18.9364 8.03777C18.8799 8.21177 18.8755 8.39851 18.9238 8.57498C18.9721 8.75144 19.071 8.90991 19.2083 9.03086L24.2719 13.4924L22.7976 20.0784C22.7576 20.2569 22.7708 20.4432 22.8354 20.6144C22.9001 20.7855 23.0134 20.934 23.1614 21.0416C23.3094 21.1491 23.4856 21.211 23.6683 21.2196C23.8511 21.2282 24.0323 21.1831 24.1898 21.0899L29.9976 17.6527L35.8052 21.0902C35.9627 21.1833 36.1439 21.2284 36.3267 21.2198C36.5094 21.2112 36.6857 21.1493 36.8337 21.0418C36.9817 20.9343 37.095 20.7858 37.1596 20.6146C37.2243 20.4435 37.2374 20.2571 37.1975 20.0786L35.7232 13.4927L40.7869 9.0311C40.9243 8.91021 41.0233 8.75176 41.0717 8.57528C41.1201 8.3988 41.1158 8.212 41.0593 8.03794ZM34.0681 12.4525C33.942 12.5636 33.8482 12.7065 33.7962 12.8662C33.7443 13.026 33.7363 13.1968 33.773 13.3607L34.8949 18.3722L30.4757 15.7565C30.3311 15.6709 30.1662 15.6258 29.9982 15.6258C29.8302 15.6258 29.6653 15.6709 29.5207 15.7565L25.1015 18.3722L26.2228 13.3604C26.2595 13.1964 26.2515 13.0256 26.1996 12.8659C26.1477 12.7061 26.0538 12.5632 25.9278 12.4522L22.0748 9.05723L27.1873 8.57559C27.3545 8.55982 27.5145 8.4994 27.6504 8.40065C27.7862 8.3019 27.8931 8.16846 27.9598 8.01426L29.9976 3.30086L32.0355 8.01462C32.1021 8.16881 32.209 8.30226 32.3449 8.401C32.4808 8.49975 32.6407 8.56017 32.8079 8.57594L37.9206 9.05758L34.0681 12.4525ZM57.5632 13.5315C57.5066 13.3574 57.4004 13.2038 57.2576 13.0894C57.1148 12.975 56.9417 12.9049 56.7595 12.8877L52.0247 12.4417L50.1368 8.07614C50.0642 7.9082 49.9441 7.76518 49.7912 7.66471C49.6383 7.56424 49.4593 7.5107 49.2764 7.5107C49.0934 7.5107 48.9145 7.56424 48.7616 7.66471C48.6087 7.76518 48.4885 7.9082 48.4159 8.07614L46.5287 12.4417L41.7937 12.8877C41.6115 12.9049 41.4384 12.975 41.2956 13.0894C41.1527 13.2037 41.0465 13.3574 40.99 13.5314C40.9335 13.7055 40.9291 13.8922 40.9774 14.0687C41.0257 14.2452 41.1246 14.4037 41.2619 14.5246L44.8304 17.6686L43.7915 22.31C43.7515 22.4885 43.7647 22.6749 43.8294 22.8461C43.894 23.0172 44.0074 23.1657 44.1554 23.2733C44.3035 23.3808 44.4798 23.4426 44.6625 23.4512C44.8453 23.4597 45.0266 23.4145 45.184 23.3213L49.2767 20.8989L53.3691 23.3213C53.5265 23.4145 53.7078 23.4596 53.8906 23.451C54.0733 23.4424 54.2496 23.3806 54.3976 23.273C54.5456 23.1655 54.6589 23.017 54.7236 22.8458C54.7882 22.6746 54.8014 22.4883 54.7614 22.3097L53.7224 17.6684L57.2907 14.5244C57.428 14.4034 57.5268 14.245 57.5751 14.0686C57.6234 13.8921 57.6191 13.7054 57.5626 13.5315H57.5632ZM52.0675 16.6286C51.9414 16.7397 51.8475 16.8825 51.7956 17.0423C51.7437 17.2021 51.7357 17.3729 51.7724 17.5368L52.459 20.6036L49.754 19.0029C49.6094 18.9173 49.4445 18.8722 49.2765 18.8722C49.1085 18.8722 48.9436 18.9173 48.799 19.0029L46.0949 20.6036L46.7813 17.5368C46.818 17.3729 46.81 17.2021 46.7581 17.0423C46.7061 16.8825 46.6123 16.7397 46.4862 16.6286L44.1282 14.5512L47.2569 14.2564C47.4242 14.2406 47.5841 14.1802 47.72 14.0815C47.8559 13.9827 47.9628 13.8493 48.0295 13.695L49.2765 10.8105L50.5235 13.695C50.5902 13.8493 50.6971 13.9827 50.833 14.0815C50.9689 14.1802 51.1288 14.2406 51.2961 14.2564L54.4248 14.5512L52.0675 16.6286ZM18.2027 12.8877L13.4679 12.4417L11.5793 8.07614C11.5067 7.9082 11.3865 7.76518 11.2337 7.66471C11.0808 7.56424 10.9018 7.5107 10.7189 7.5107C10.5359 7.5107 10.357 7.56424 10.2041 7.66471C10.0512 7.76518 9.93103 7.9082 9.85842 8.07614L7.97114 12.4417L3.23628 12.8877C3.05413 12.9049 2.88097 12.975 2.73816 13.0894C2.59534 13.2037 2.48912 13.3574 2.43259 13.5314C2.37606 13.7055 2.37168 13.8922 2.42 14.0687C2.46832 14.2452 2.56723 14.4037 2.70453 14.5246L6.27286 17.6686L5.23383 22.31C5.19392 22.4885 5.20711 22.6748 5.27178 22.8459C5.33645 23.0171 5.44978 23.1655 5.59779 23.2731C5.7458 23.3806 5.92203 23.4424 6.10476 23.451C6.28749 23.4596 6.46873 23.4145 6.62615 23.3213L10.7189 20.8989L14.8112 23.3213C14.9687 23.4145 15.1499 23.4595 15.3327 23.4509C15.5154 23.4423 15.6916 23.3805 15.8396 23.2729C15.9876 23.1654 16.1009 23.0169 16.1656 22.8457C16.2302 22.6746 16.2434 22.4883 16.2034 22.3097L15.1644 17.6684L18.7329 14.5244C18.8702 14.4034 18.9691 14.245 19.0174 14.0685C19.0657 13.892 19.0613 13.7052 19.0048 13.5312C18.9483 13.3572 18.842 13.2035 18.6992 13.0891C18.5564 12.9747 18.3833 12.9047 18.2011 12.8875L18.2027 12.8877ZM13.5104 16.6286C13.3844 16.7397 13.2905 16.8825 13.2386 17.0423C13.1867 17.2021 13.1787 17.3729 13.2154 17.5368L13.9018 20.6035L11.1964 19.0029C11.0518 18.9173 10.8869 18.8722 10.7189 18.8722C10.5509 18.8722 10.3859 18.9173 10.2414 19.0029L7.5371 20.6036L8.22366 17.5368C8.26035 17.3729 8.25233 17.2021 8.20042 17.0423C8.14851 16.8825 8.05463 16.7397 7.9286 16.6286L5.57072 14.5512L8.6994 14.2564C8.86665 14.2406 9.0266 14.1802 9.16251 14.0815C9.29842 13.9827 9.4053 13.8493 9.47196 13.695L10.7189 10.8106L11.9659 13.695C12.0325 13.8492 12.1394 13.9827 12.2753 14.0814C12.4112 14.1802 12.5711 14.2406 12.7383 14.2564L15.867 14.5512L13.5104 16.6286Z" fill="white"/>
</g>
<defs>
<clipPath id="clip0_13309_5906">
<rect width="59.9956" height="60" fill="white" transform="translate(0 0.000976562)"/>
</clipPath>
</defs>
</svg>
