<svg width="60" height="60" viewBox="0 0 60 60" fill="none" xmlns="http://www.w3.org/2000/svg">
<g id="collaboration 1">
<path id="Vector" d="M52.7046 47.6186C56.021 44.9236 53.9994 39.3253 49.6846 39.3763C45.3699 39.3284 43.3476 44.9203 46.6649 47.6186C43.4939 48.8744 40.949 55.7596 45.9348 56.2514C45.9347 56.2513 53.4347 56.2513 53.4347 56.2513C58.42 55.758 55.8761 48.8756 52.7046 47.6186ZM46.8722 44.0638C46.9694 40.3551 52.4006 40.3559 52.4972 44.0639C52.4 47.7724 46.9689 47.7717 46.8722 44.0638ZM53.4347 54.3763H45.9347C45.4175 54.3763 44.9972 53.9556 44.9972 53.4388C44.9972 50.8542 47.1002 48.7513 49.6847 48.7513C52.2693 48.7513 54.3722 50.8542 54.3722 53.4388C54.3722 53.9556 53.952 54.3763 53.4347 54.3763Z" fill="white"/>
<path id="Vector_2" d="M23.4356 17.8135C23.4356 19.3644 24.6971 20.626 26.2481 20.626H33.7481C35.299 20.626 36.5606 19.3644 36.5606 17.8135C36.5606 15.2841 35.1197 13.0884 33.018 11.9933C34.0293 11.1328 34.6856 9.86715 34.6856 8.43847C34.4665 2.23729 25.5307 2.23372 25.3105 8.43854C25.3105 9.86714 25.9668 11.1328 26.9781 11.9933C24.8764 13.0884 23.4356 15.2841 23.4356 17.8135ZM27.1856 8.43847C27.2828 4.72983 32.7139 4.73058 32.8106 8.43855C32.7133 12.1471 27.2822 12.1464 27.1856 8.43847ZM29.9981 13.126C32.5826 13.126 34.6856 15.2289 34.6856 17.8135C34.6856 18.3303 34.2653 18.751 33.7481 18.751H26.2481C25.7308 18.751 25.3106 18.3303 25.3106 17.8135C25.3106 15.2289 27.4135 13.126 29.9981 13.126Z" fill="white"/>
<path id="Vector_3" d="M6.56266 56.2513H14.0627C15.6136 56.2513 16.8752 54.9897 16.8752 53.4388C16.8752 50.9094 15.4343 48.7137 13.3326 47.6186C16.6489 44.9236 14.6273 39.3253 10.3125 39.3763C5.99786 39.3284 3.97556 44.9203 7.29286 47.6186C4.12185 48.8745 1.57703 55.7596 6.56266 56.2513ZM7.50016 44.0638C7.59737 40.3551 13.0285 40.3559 13.1252 44.0639C13.028 47.7724 7.59683 47.7717 7.50016 44.0638ZM10.3127 48.7513C12.8972 48.7513 15.0002 50.8542 15.0002 53.4388C15.0002 53.9556 14.5799 54.3763 14.0627 54.3763H6.56266C6.04538 54.3763 5.62516 53.9556 5.62516 53.4388C5.62516 50.8542 7.72812 48.7513 10.3127 48.7513Z" fill="white"/>
<path id="Vector_4" d="M21.7803 12.8783C22.9898 12.4716 22.3494 10.69 21.1404 11.1141C11.215 15.0843 5.20913 25.6291 6.80709 36.179C7.01612 37.3935 8.82371 37.1202 8.65992 35.8979C7.20131 26.2214 12.6935 16.5487 21.7803 12.8783Z" fill="white"/>
<path id="Vector_5" d="M52.1211 36.9654C52.6218 37.0437 53.1134 36.694 53.1885 36.1789C54.7933 25.594 48.6461 14.6748 38.4908 11.0445C37.4603 11.037 37.21 12.5229 38.1732 12.8609C47.2854 16.519 52.7968 26.2063 51.3356 35.8979C51.2578 36.4097 51.6093 36.8876 52.1211 36.9654Z" fill="white"/>
<path id="Vector_6" d="M40.2224 52.8661C40.0054 52.3974 39.4506 52.1928 38.9773 52.4102C33.4136 55.0291 26.5815 55.0291 21.0178 52.4102C19.8965 51.9095 19.1164 53.573 20.2287 54.1113C26.286 56.9618 33.7091 56.9618 39.7665 54.1112C40.2361 53.8933 40.4402 53.3358 40.2224 52.8661Z" fill="white"/>
<path id="Vector_7" d="M44.0595 38.4385V36.5635C44.0667 35.3774 42.989 34.5557 41.8459 34.6886C41.5466 33.4164 41.0513 32.218 40.3657 31.1102C41.2642 30.3971 41.4501 29.0513 40.6036 28.2203C40.6037 28.2203 39.2781 26.8946 39.2781 26.8946C38.4452 26.0509 37.1021 26.2315 36.388 27.1332C35.2803 26.4474 34.0819 25.9517 32.8104 25.6523C32.9426 24.5122 32.1216 23.4279 30.9355 23.4386C30.9355 23.4385 29.0606 23.4385 29.0606 23.4385C27.8749 23.4314 27.053 24.5088 27.1858 25.6523C25.9142 25.9517 24.7158 26.4474 23.6081 27.1331C22.8953 26.2344 21.5489 26.0478 20.718 26.8947C20.718 26.8946 19.3924 28.2203 19.3924 28.2203C18.5487 29.0537 18.7288 30.3959 19.6305 31.1102C18.9448 32.218 18.4495 33.4164 18.1502 34.6885C17.0104 34.5564 15.9261 35.3768 15.9366 36.5636C15.9366 36.5635 15.9366 38.4385 15.9366 38.4385C15.9295 39.6248 17.0071 40.4462 18.1502 40.3135C18.4495 41.5857 18.9448 42.7841 19.6305 43.8919C18.732 44.6052 18.5459 45.9506 19.3925 46.7817C19.3924 46.7817 20.718 48.1074 20.718 48.1074C21.4486 48.8389 22.6387 48.8385 23.3692 48.1079L23.6081 47.8689C24.7158 48.5547 25.9142 49.0504 27.1858 49.3498C27.0535 50.4899 27.8745 51.5741 29.0607 51.5635C29.0606 51.5635 30.9355 51.5635 30.9355 51.5635C31.969 51.5635 32.8104 50.7226 32.8104 49.6885V49.3498C34.0819 49.0504 35.2803 48.5547 36.388 47.8689C37.1009 48.7678 38.4471 48.9542 39.2781 48.1074C39.2781 48.1074 40.6037 46.7817 40.6037 46.7817C41.4475 45.9483 41.2673 44.6061 40.3656 43.8919C41.0513 42.7841 41.5466 41.5857 41.846 40.3135C42.9857 40.4457 44.0701 39.6253 44.0595 38.4385ZM41.0788 38.4385C40.6211 38.4385 40.2302 38.769 40.1542 39.2204C39.8942 40.7672 39.3028 42.1968 38.3974 43.4684C37.8099 44.2879 38.7848 44.9331 39.2781 45.456C39.2781 45.456 37.9525 46.7813 37.9525 46.7813C37.4225 46.2786 36.7834 45.3172 35.965 45.9006C34.6925 46.8064 33.2635 47.3979 31.7173 47.6579C31.266 47.7339 30.9355 48.1248 30.9355 48.5826V49.6885H29.0606V48.5826C29.0606 48.1248 28.7302 47.7339 28.2788 47.6579C26.7326 47.3979 25.3036 46.8065 24.0311 45.9005C23.8672 45.7838 23.6768 45.7266 23.4873 45.7266C22.9432 45.6765 22.4025 46.4731 22.0436 46.7817C22.0436 46.7817 20.719 45.4556 20.719 45.4556C21.2214 44.9255 22.182 44.2865 21.5987 43.4684C20.6933 42.1968 20.1019 40.7672 19.8419 39.2204C19.766 38.769 19.3751 38.4385 18.9173 38.4385H17.8114V36.5635C18.5503 36.5408 19.666 36.7802 19.8419 35.7816C20.1019 34.2349 20.6933 32.8053 21.5987 31.5336C22.1862 30.7144 21.2114 30.0688 20.718 29.546C20.718 29.546 22.0436 28.2208 22.0436 28.2208L22.8245 29.0013C23.1477 29.3245 23.6585 29.367 24.0311 29.1015C25.3036 28.1956 26.7326 27.6042 28.2788 27.3442C28.7302 27.2682 29.0606 26.8772 29.0606 26.4195V25.3135H30.9355C30.9583 26.0528 30.7189 27.1681 31.7173 27.3442C33.2635 27.6042 34.6925 28.1956 35.965 29.1015C36.7845 29.6889 37.4299 28.7139 37.9525 28.2203C37.9525 28.2203 39.2772 29.5465 39.2772 29.5465C38.7744 30.077 37.8143 30.7153 38.3975 31.5336C39.3028 32.8053 39.8942 34.2349 40.1542 35.7817C40.2302 36.233 40.6211 36.5635 41.0788 36.5635H42.1847V38.4385L41.0788 38.4385Z" fill="white"/>
<path id="Vector_8" d="M36.2648 33.2818C35.8034 33.5166 35.6203 34.0815 35.8556 34.5425C40.0465 44.4551 24.2268 48.3177 23.4354 37.5008C23.4355 33.8824 26.3796 30.9385 29.9975 30.9385C31.0283 30.9385 32.0518 31.182 32.9563 31.6426C33.4177 31.8778 33.9816 31.6934 34.2178 31.2324C34.4522 30.771 34.2691 30.2065 33.8077 29.9717C28.4031 27.0887 21.4173 31.3507 21.5608 37.5011C22.0239 48.6939 37.9723 48.6919 38.4344 37.501C38.4184 36.383 37.9803 32.5293 36.2648 33.2818Z" fill="white"/>
</g>
</svg>
