<svg width="51" height="50" viewBox="0 0 51 50" fill="none" xmlns="http://www.w3.org/2000/svg">
<rect width="50.026" height="50" rx="25" fill="#F5F7FA" fill-opacity="0.2"/>
<path d="M14 32.031C14 33.0488 14.3975 34.0128 15.1276 34.7524C15.86 35.4746 16.8236 35.8724 17.8414 35.8724H31.6125C32.6302 35.8724 33.5938 35.4746 34.3339 34.7448C35.0564 34.0128 35.4539 33.0488 35.4539 32.031V21.3205C35.4348 21.0657 35.3198 20.8323 35.1174 20.6781L26.0758 14.4193C25.2686 13.8601 24.1852 13.8605 23.3781 14.4189L14.3365 20.6781C14.1341 20.8323 14.0191 21.0658 14 21.3205V32.031ZM33.2291 33.6401C32.7912 34.0719 32.2167 34.3099 31.6125 34.3099H17.8414C17.2372 34.3099 16.6627 34.0719 16.2324 33.6477C15.8005 33.2098 15.5625 32.6357 15.5625 32.031V23.1115L20.7988 27.9702L17.9474 30.8279C17.772 30.9709 17.6606 31.1899 17.6606 31.4348C17.6606 31.8662 18.0138 32.216 18.4456 32.216C18.6532 32.216 18.8523 32.1336 18.9988 31.9868L21.9452 29.0339L23.1331 30.1363C23.5795 30.5505 24.1532 30.7577 24.7269 30.7577C25.3007 30.7577 25.8744 30.5505 26.3215 30.1359L27.5088 29.0341L30.4551 31.9868C30.6016 32.1336 30.8083 32.216 31.0158 32.216C31.4477 32.216 31.7933 31.8662 31.7933 31.4348C31.7933 31.2036 31.6918 30.9961 31.5316 30.853L28.6552 27.9703L33.8914 23.1115V32.031C33.8914 32.6357 33.6533 33.2098 33.2291 33.6401ZM24.2676 15.7034C24.5423 15.5134 24.9116 15.513 25.1862 15.7037L33.4281 21.4093L25.2587 28.9903C24.9596 29.2673 24.4935 29.2669 24.1959 28.9907L16.0257 21.4093L24.2676 15.7034Z" fill="white"/>
</svg>
