<svg width="51" height="50" viewBox="0 0 51 50" fill="none" xmlns="http://www.w3.org/2000/svg">
<rect width="50.026" height="50" rx="25" fill="#16171A"/>
<path d="M28.6736 29.5178C31.3339 25.3434 30.9995 25.8642 31.0762 25.7553C32.0447 24.3892 32.5566 22.7813 32.5566 21.1055C32.5566 16.6611 28.9501 13 24.5 13C20.0644 13 16.4434 16.6539 16.4434 21.1055C16.4434 22.7803 16.966 24.4302 17.9663 25.8147L20.3263 29.5179C17.8031 29.9056 13.5137 31.0611 13.5137 33.6055C13.5137 34.533 14.119 35.8547 17.003 36.8847C19.0168 37.6039 21.6792 38 24.5 38C29.7747 38 35.4863 36.5121 35.4863 33.6055C35.4863 31.0607 31.202 29.9064 28.6736 29.5178ZM19.1899 25.009C19.1818 24.9964 19.1734 24.9841 19.1646 24.972C18.3323 23.8269 17.9082 22.4698 17.9082 21.1055C17.9082 17.4425 20.8577 14.4648 24.5 14.4648C28.1347 14.4648 31.0918 17.4438 31.0918 21.1055C31.0918 22.472 30.6757 23.7831 29.8884 24.898C29.8178 24.9911 30.1859 24.4192 24.5 33.3413L19.1899 25.009ZM24.5 36.5352C18.7386 36.5352 14.9785 34.8417 14.9785 33.6055C14.9785 32.7746 16.9105 31.4084 21.1918 30.8759L23.8823 35.0978C24.0168 35.3088 24.2497 35.4365 24.5 35.4365C24.7502 35.4365 24.9832 35.3087 25.1176 35.0978L27.8081 30.8759C32.0894 31.4084 34.0215 32.7746 34.0215 33.6055C34.0215 34.8312 30.2953 36.5352 24.5 36.5352Z" fill="white"/>
<path d="M24.5 17.4434C22.4807 17.4434 20.8379 19.0862 20.8379 21.1055C20.8379 23.1248 22.4807 24.7676 24.5 24.7676C26.5193 24.7676 28.1621 23.1248 28.1621 21.1055C28.1621 19.0862 26.5193 17.4434 24.5 17.4434ZM24.5 23.3027C23.2884 23.3027 22.3027 22.317 22.3027 21.1055C22.3027 19.8939 23.2884 18.9082 24.5 18.9082C25.7116 18.9082 26.6973 19.8939 26.6973 21.1055C26.6973 22.317 25.7116 23.3027 24.5 23.3027Z" fill="white"/>
</svg>
