<svg width="50" height="50" viewBox="0 0 50 50" fill="none" xmlns="http://www.w3.org/2000/svg">
<rect width="50" height="50" rx="25" fill="#F5F7FA" fill-opacity="0.3"/>
<g clip-path="url(#clip0_11387_5422)">
<path d="M30.3203 29.3515C30.1025 29.133 29.8438 28.9597 29.5589 28.8414C29.274 28.7231 28.9686 28.6622 28.6601 28.6622C28.3517 28.6622 28.0462 28.7231 27.7613 28.8414C27.4764 28.9597 27.2177 29.133 27 29.3515L25.8672 30.4844C24.5917 29.6749 23.41 28.7264 22.3437 27.6562C21.2759 26.5879 20.3276 25.4065 19.5156 24.1328L20.6484 23C20.8669 22.7822 21.0403 22.5235 21.1586 22.2386C21.2769 21.9537 21.3378 21.6483 21.3378 21.3398C21.3378 21.0313 21.2769 20.7259 21.1586 20.441C21.0403 20.1561 20.8669 19.8974 20.6484 19.6797L18.4375 17.4765C18.2228 17.2573 17.9663 17.0835 17.6831 16.9654C17.3999 16.8473 17.0959 16.7873 16.789 16.789C16.48 16.7883 16.1739 16.8486 15.8884 16.9666C15.6028 17.0846 15.3433 17.2579 15.125 17.4765L14.0625 18.5312C13.556 19.0757 13.1781 19.7268 12.9564 20.4366C12.7346 21.1464 12.6748 21.8968 12.7812 22.6328C13.0312 25.5625 14.9531 29.0859 17.914 32.0547C20.875 35.0234 24.4375 36.9375 27.3672 37.2187C27.5858 37.2304 27.8048 37.2304 28.0234 37.2187C28.6541 37.2452 29.2836 37.1455 29.8753 36.9255C30.4669 36.7055 31.0086 36.3696 31.4687 35.9375L32.5234 34.875C32.742 34.6566 32.9153 34.3972 33.0333 34.1116C33.1513 33.826 33.2117 33.5199 33.2109 33.2109C33.2126 32.9041 33.1527 32.6001 33.0346 32.3169C32.9165 32.0337 32.7426 31.7771 32.5234 31.5625L30.3203 29.3515ZM31.4219 33.7734L30.3594 34.8281C29.9665 35.1555 29.5079 35.3947 29.0146 35.5295C28.5213 35.6643 28.0047 35.6915 27.5 35.6094C24.9609 35.3906 21.7265 33.5937 19.0547 30.9219C16.3828 28.25 14.5859 25.039 14.3437 22.5C14.2595 21.9952 14.2857 21.4782 14.4206 20.9846C14.5554 20.4909 14.7958 20.0324 15.125 19.6406L16.2265 18.5781C16.2995 18.5057 16.3861 18.4484 16.4813 18.4095C16.5765 18.3707 16.6784 18.3509 16.7812 18.3515C16.884 18.3509 16.986 18.3707 17.0812 18.4095C17.1763 18.4484 17.2629 18.5057 17.3359 18.5781L19.5468 20.8125C19.6924 20.9589 19.774 21.1569 19.774 21.3633C19.774 21.5697 19.6924 21.7677 19.5468 21.914L17.9843 23.4765C17.8621 23.5982 17.7835 23.7569 17.7609 23.9279C17.7383 24.0989 17.7729 24.2726 17.8593 24.4219C18.7948 26.0144 19.9318 27.4796 21.2422 28.7812C22.5438 30.0916 24.009 31.2286 25.6015 32.164C25.7508 32.2505 25.9245 32.2851 26.0955 32.2625C26.2665 32.2399 26.4252 32.1613 26.5469 32.039L28.1094 30.4765C28.2557 30.331 28.4537 30.2494 28.6601 30.2494C28.8665 30.2494 29.0645 30.331 29.2109 30.4765L31.4219 32.6875C31.4943 32.7605 31.5515 32.847 31.5904 32.9422C31.6293 33.0374 31.649 33.1393 31.6484 33.2422C31.6435 33.4417 31.5625 33.6318 31.4219 33.7734Z" fill="#3CA200"/>
<path d="M32.7813 17.211C31.6955 16.1211 30.4048 15.2569 28.9835 14.6683C27.5622 14.0797 26.0384 13.7782 24.5 13.7813C24.2928 13.7813 24.0941 13.8636 23.9476 14.0101C23.8011 14.1566 23.7188 14.3553 23.7188 14.5625C23.7188 14.7697 23.8011 14.9684 23.9476 15.115C24.0941 15.2615 24.2928 15.3438 24.5 15.3438C25.841 15.3437 27.1687 15.6092 28.4066 16.125C29.6444 16.6408 30.7679 17.3966 31.7121 18.3488C32.6563 19.301 33.4026 20.4308 33.908 21.6729C34.4133 22.9151 34.6676 24.245 34.6563 25.586C34.6563 25.7932 34.7386 25.9919 34.8851 26.1384C35.0316 26.2849 35.2303 26.3672 35.4375 26.3672C35.6447 26.3672 35.8434 26.2849 35.9899 26.1384C36.1364 25.9919 36.2188 25.7932 36.2188 25.586C36.2337 24.0312 35.9373 22.4892 35.3469 21.0509C34.7565 19.6125 33.8842 18.3069 32.7813 17.211Z" fill="#3CA200"/>
<path d="M28.3359 21.6797C28.7793 22.1204 29.1301 22.6453 29.3675 23.2236C29.605 23.8018 29.7244 24.4218 29.7188 25.0469C29.7188 25.2541 29.8011 25.4528 29.9476 25.5993C30.0941 25.7458 30.2928 25.8281 30.5 25.8281C30.7072 25.8281 30.9059 25.7458 31.0524 25.5993C31.1989 25.4528 31.2812 25.2541 31.2812 25.0469C31.2916 24.2196 31.1376 23.3984 30.8281 22.6311C30.5187 21.8638 30.0599 21.1655 29.4785 20.5769C28.8971 19.9882 28.2046 19.5208 27.4412 19.2019C26.6778 18.8829 25.8586 18.7187 25.0312 18.7188C24.824 18.7188 24.6253 18.8011 24.4788 18.9476C24.3323 19.0941 24.25 19.2928 24.25 19.5C24.25 19.7072 24.3323 19.9059 24.4788 20.0524C24.6253 20.1989 24.824 20.2812 25.0312 20.2812C25.6469 20.2859 26.2557 20.4118 26.8227 20.6517C27.3897 20.8917 27.9039 21.241 28.3359 21.6797Z" fill="#3CA200"/>
</g>
<defs>
<clipPath id="clip0_11387_5422">
<rect width="25" height="25" fill="white" transform="translate(12 13)"/>
</clipPath>
</defs>
</svg>
