<svg width="90" height="66" viewBox="0 0 90 66" fill="none" xmlns="http://www.w3.org/2000/svg">
<g id="Group">
<g id="Group_2">
<path id="Vector" d="M21.524 0C34.0218 0 43.045 10.2374 43.045 25.3974C42.9668 47.4212 26.2782 62.9928 2.20202 65.9821C-0.0283388 66.2616 -0.88918 63.1869 1.1651 62.2824C10.3996 58.206 15.0677 53.0349 15.6703 47.9182C16.1203 44.0942 14.0269 40.7438 11.3935 40.1149C4.57325 38.4883 0.00296427 30.06 0.00296427 21.3522C0.00296427 15.6892 2.27035 10.2582 6.30633 6.25391C10.3423 2.2496 15.8163 0 21.524 0ZM68.479 0C80.9768 0 90 10.2374 90 25.3974C89.9217 47.4212 73.2332 62.9928 49.157 65.9821C46.9266 66.2616 46.0658 63.1869 48.1201 62.2824C57.3546 58.206 62.0227 53.0349 62.6252 47.9182C63.0752 44.0942 60.9818 40.7438 58.3484 40.1149C51.5282 38.4883 46.9579 30.06 46.9579 21.3522C46.9579 15.6892 49.2253 10.2582 53.2613 6.25391C57.2973 2.2496 62.7712 0 68.479 0Z" fill="#3CA200"/>
</g>
</g>
</svg>
