<svg width="36" height="35" viewBox="0 0 36 35" fill="none" xmlns="http://www.w3.org/2000/svg">
<path d="M9.65576 23.1094C9.65576 23.8422 9.94183 24.5363 10.4673 25.0688C10.9944 25.5888 11.6879 25.8752 12.4204 25.8752H22.3313C23.0638 25.8752 23.7573 25.5888 24.2899 25.0633C24.8099 24.5363 25.096 23.8422 25.096 23.1094V15.3978C25.0822 15.2144 24.9995 15.0464 24.8538 14.9353L18.3466 10.429C17.7657 10.0263 16.986 10.0266 16.4051 10.4287L9.89791 14.9353C9.75228 15.0463 9.66951 15.2144 9.65576 15.3978V23.1094ZM23.4949 24.2679C23.1797 24.5788 22.7662 24.7502 22.3313 24.7502H12.4204C11.9855 24.7502 11.5721 24.5788 11.2624 24.2734C10.9516 23.9581 10.7803 23.5447 10.7803 23.1094V16.6873L14.5488 20.1856L12.4967 22.2431C12.3704 22.3461 12.2903 22.5038 12.2903 22.6801C12.2903 22.9908 12.5445 23.2426 12.8553 23.2426C13.0046 23.2426 13.1479 23.1833 13.2534 23.0776L15.3738 20.9515L16.2288 21.7452C16.55 22.0435 16.963 22.1926 17.3759 22.1926C17.7888 22.1926 18.2017 22.0435 18.5235 21.7449L19.378 20.9516L21.4984 23.0776C21.6038 23.1833 21.7526 23.2426 21.902 23.2426C22.2127 23.2426 22.4615 22.9908 22.4615 22.6801C22.4615 22.5137 22.3884 22.3643 22.2731 22.2613L20.203 20.1857L23.9715 16.6874V23.1094C23.9715 23.5447 23.8001 23.9581 23.4949 24.2679ZM17.0453 11.3535C17.243 11.2167 17.5087 11.2164 17.7064 11.3538L23.6381 15.4618L17.7586 20.9201C17.5433 21.1195 17.2078 21.1192 16.9937 20.9204L11.1137 15.4618L17.0453 11.3535Z" fill="white"/>
<path d="M34.8684 17.5C34.8684 26.889 27.2604 34.5 17.8759 34.5C8.49133 34.5 0.883301 26.889 0.883301 17.5C0.883301 8.11096 8.49133 0.5 17.8759 0.5C27.2604 0.5 34.8684 8.11096 34.8684 17.5Z" stroke="white"/>
</svg>
