<svg width="20" height="20" viewBox="0 0 20 20" fill="none" xmlns="http://www.w3.org/2000/svg">
<g id="view 1">
<g id="Group">
<g id="Group_2">
<path id="Vector" d="M19.8729 9.61084C19.6942 9.36643 15.4371 3.62622 9.9999 3.62622C4.56274 3.62622 0.305391 9.36643 0.126914 9.61061C-0.0423048 9.84248 -0.0423048 10.157 0.126914 10.3889C0.305391 10.6333 4.56274 16.3735 9.9999 16.3735C15.4371 16.3735 19.6942 10.6332 19.8729 10.389C20.0423 10.1572 20.0423 9.84248 19.8729 9.61084ZM9.9999 15.0548C5.99486 15.0548 2.52606 11.2449 1.49922 9.9994C2.52473 8.75279 5.98626 4.9449 9.9999 4.9449C14.0048 4.9449 17.4733 8.75412 18.5006 10.0003C17.4751 11.2469 14.0135 15.0548 9.9999 15.0548Z" fill="#D8DDE1"/>
</g>
</g>
<g id="Group_3">
<g id="Group_4">
<path id="Vector_2" d="M9.99903 6.0437C7.8177 6.0437 6.04297 7.81843 6.04297 9.99976C6.04297 12.1811 7.8177 13.9558 9.99903 13.9558C12.1804 13.9558 13.9551 12.1811 13.9551 9.99976C13.9551 7.81843 12.1804 6.0437 9.99903 6.0437ZM9.99903 12.6371C8.54473 12.6371 7.36168 11.454 7.36168 9.99976C7.36168 8.5455 8.54477 7.36241 9.99903 7.36241C11.4533 7.36241 12.6364 8.5455 12.6364 9.99976C12.6364 11.454 11.4533 12.6371 9.99903 12.6371Z" fill="#D8DDE1"/>
</g>
</g>
</g>
</svg>
