<svg width="30" height="30" viewBox="0 0 30 30" fill="none" xmlns="http://www.w3.org/2000/svg">
<circle cx="15" cy="15" r="15" fill="#F3F5FA"/>
<path d="M20.8125 14.75C20.8125 15.2422 20.4023 15.6523 19.9375 15.6523H16V19.5898C16 20.0547 15.5898 20.4375 15.125 20.4375C14.6328 20.4375 14.25 20.0547 14.25 19.5898V15.6523H10.3125C9.82031 15.6523 9.4375 15.2422 9.4375 14.75C9.4375 14.2852 9.82031 13.9023 10.3125 13.9023H14.25V9.96484C14.25 9.47266 14.6328 9.0625 15.125 9.0625C15.5898 9.0625 16 9.47266 16 9.96484V13.9023H19.9375C20.4023 13.875 20.8125 14.2852 20.8125 14.75Z" fill="black"/>
</svg>
