<svg width="20" height="20" viewBox="0 0 20 20" fill="none" xmlns="http://www.w3.org/2000/svg">
<g id="hide 3" clip-path="url(#clip0_11387_7098)">
<path id="Hide" d="M12.483 10.1682L13.6189 9.03229C13.7016 9.34151 13.75 9.66479 13.75 9.99979C13.75 12.0676 12.0678 13.7498 10 13.7498C9.665 13.7498 9.34172 13.7014 9.0325 13.6187L10.1684 12.4828C11.4105 12.3981 12.3983 11.4103 12.483 10.1682ZM19.9212 9.6962C19.8444 9.55792 18.7541 7.64745 16.6228 6.02839L15.7133 6.93792C17.2673 8.08058 18.252 9.41323 18.6397 10.0007C17.8989 11.1287 14.993 14.9998 10 14.9998C9.25125 14.9998 8.555 14.904 7.89984 14.7512L6.87281 15.7782C7.81703 16.0678 8.85484 16.2498 10 16.2498C16.5427 16.2498 19.7864 10.546 19.9212 10.3034C20.0263 10.1145 20.0263 9.88511 19.9212 9.6962ZM17.3169 3.56667L3.56687 17.3167C3.44484 17.4387 3.28484 17.4998 3.125 17.4998C2.96516 17.4998 2.80516 17.4387 2.68313 17.3167C2.43891 17.0725 2.43891 16.677 2.68313 16.4329L4.4325 14.6835C1.60437 12.9762 0.167344 10.4629 0.07875 10.3034C-0.02625 10.1145 -0.02625 9.88495 0.07875 9.69604C0.213594 9.45354 3.45734 3.74979 10 3.74979C11.6917 3.74979 13.157 4.13573 14.4097 4.70636L16.4331 2.68292C16.6773 2.4387 17.0728 2.4387 17.3169 2.68292C17.5609 2.92714 17.5611 3.32261 17.3169 3.56667ZM5.36453 13.7515L6.94687 12.1692C6.50984 11.556 6.25 10.8084 6.25 9.99979C6.25 7.93198 7.93219 6.24979 10 6.24979C10.8086 6.24979 11.5563 6.50964 12.1694 6.94651L13.4489 5.66698C12.438 5.26214 11.2892 4.99979 10 4.99979C5.00703 4.99979 2.10109 8.87089 1.36047 9.99886C1.83078 10.7117 3.18266 12.516 5.36453 13.7515ZM7.85422 11.2617L11.2619 7.85401C10.8902 7.63448 10.4622 7.49979 10 7.49979C8.62156 7.49979 7.5 8.62136 7.5 9.99979C7.5 10.462 7.63469 10.89 7.85422 11.2617Z" fill="#727272"/>
</g>
<defs>
<clipPath id="clip0_11387_7098">
<rect width="20" height="20" fill="white" transform="translate(0 -0.000244141)"/>
</clipPath>
</defs>
</svg>
