<svg width="30" height="30" viewBox="0 0 30 30" fill="none" xmlns="http://www.w3.org/2000/svg">
<path d="M29.401 15.3404C29.401 14.2766 29.3056 13.2539 29.1283 12.272H15V18.0746H23.0733C22.7255 19.9498 21.6686 21.5385 20.0799 22.6023V26.3661H24.928C27.7646 23.7546 29.401 19.9088 29.401 15.3404Z" fill="#4285F4"/>
<path d="M14.9961 30.0001C19.0464 30.0001 22.4421 28.6567 24.9241 26.3657L20.076 22.6017C18.7328 23.5018 17.0144 24.0337 14.9961 24.0337C11.0891 24.0337 7.78202 21.3948 6.60231 17.8491H1.59058V21.7358C4.05901 26.6384 9.13208 30.0001 14.9961 30.0001Z" fill="#34A853"/>
<path d="M6.60728 17.8523C6.30729 16.9522 6.13681 15.9908 6.13681 15.002C6.13681 14.0133 6.30729 13.0519 6.60728 12.1518V8.26514H1.59554C0.545465 10.3556 -0.000900902 12.6627 1.11506e-06 15.002C1.11506e-06 17.4227 0.579613 19.7137 1.59554 21.7388L6.60728 17.8523Z" fill="#FBBC05"/>
<path d="M14.9961 5.96633C17.1986 5.96633 19.176 6.7232 20.7306 8.20967L25.0332 3.90709C22.4353 1.48646 19.0396 0 14.9961 0C9.13208 0 4.05901 3.3616 1.59058 8.26418L6.60231 12.1508C7.78202 8.60514 11.0891 5.96633 14.9961 5.96633Z" fill="#EA4335"/>
</svg>
