<svg width="15" height="14" viewBox="0 0 15 14" fill="none" xmlns="http://www.w3.org/2000/svg">
<g id="Aicon">
<g id="Group">
<path id="Vector" d="M5.08458 7.35C5.08458 5.52563 3.23105 3.675 1.40381 3.675C3.23105 3.675 5.08458 1.82438 5.08458 0C5.08458 1.82438 6.93811 3.675 8.76535 3.675C6.93811 3.675 5.08458 5.52563 5.08458 7.35Z" fill="#F2D701"/>
<path id="Vector_2" d="M5.08458 7.35C5.08458 5.52563 3.23105 3.675 1.40381 3.675C3.23105 3.675 5.08458 1.82438 5.08458 0C5.08458 1.82438 6.93811 3.675 8.76535 3.675C6.93811 3.675 5.08458 5.52563 5.08458 7.35Z" fill="#F2D701"/>
</g>
<g id="Group_2">
<path id="Vector_3" d="M9.11473 13.9992C9.11473 11.5688 6.64125 9.09922 4.20703 9.09922C6.64125 9.09922 9.11473 6.62962 9.11473 4.19922C9.11473 6.62962 11.5882 9.09922 14.0224 9.09922C11.5882 9.09922 9.11473 11.5688 9.11473 13.9992Z" fill="#F2D701"/>
<path id="Vector_4" d="M9.11473 13.9992C9.11473 11.5688 6.64125 9.09922 4.20703 9.09922C6.64125 9.09922 9.11473 6.62962 9.11473 4.19922C9.11473 6.62962 11.5882 9.09922 14.0224 9.09922C11.5882 9.09922 9.11473 11.5688 9.11473 13.9992Z" fill="#F2D701"/>
</g>
<g id="Group_3">
<path id="Vector_5" d="M2.45385 13.3004C2.45385 12.0859 1.21641 10.8504 0 10.8504C1.21641 10.8504 2.45385 9.61489 2.45385 8.40039C2.45385 9.61489 3.69129 10.8504 4.90769 10.8504C3.69129 10.8504 2.45385 12.0859 2.45385 13.3004Z" fill="#F2D701"/>
</g>
</g>
</svg>
