<svg width="53" height="60" viewBox="0 0 53 60" fill="none" xmlns="http://www.w3.org/2000/svg">
<g clip-path="url(#clip0_21830_6249)">
<path fill-rule="evenodd" clip-rule="evenodd" d="M33.2733 42.5198C23.6944 42.5198 21.6862 38.1057 21.6862 34.3997C21.6862 34.0481 21.9683 33.7649 22.3183 33.7649H25.1483C25.4594 33.7649 25.722 33.9944 25.7706 34.302C26.1985 37.1975 27.4676 38.6575 33.2636 38.6575C37.878 38.6575 39.8375 37.6125 39.8375 35.1516C39.8375 33.7356 39.2784 32.6858 32.1112 31.9827C26.1159 31.387 22.4107 30.0637 22.4107 25.2444C22.4107 20.8108 26.1353 18.1692 32.3786 18.1692C39.3902 18.1692 42.8619 20.6106 43.2995 25.8645C43.3141 26.0452 43.2509 26.221 43.1294 26.3528C43.0078 26.4797 42.8376 26.5579 42.6626 26.5579H39.8229C39.5263 26.5579 39.2686 26.3479 39.2103 26.0647C38.5247 23.0227 36.8715 22.0461 32.3689 22.0461C27.3315 22.0461 26.748 23.8088 26.748 25.1272C26.748 26.7288 27.4384 27.1975 34.2361 28.1008C40.9656 28.9993 44.1602 30.2639 44.1602 35.0149C44.1602 39.8049 40.1828 42.5491 33.2441 42.5491L33.2733 42.5198ZM26.5097 60.0002C25.7074 60.0002 24.9149 59.7903 24.2147 59.385L16.9065 55.0393C15.8125 54.4241 16.3473 54.2092 16.7072 54.0823C18.161 53.5696 18.4576 53.4573 20.0136 52.5686C20.1789 52.4758 20.3928 52.51 20.5582 52.6077L26.1742 55.9524C26.3784 56.0647 26.6653 56.0647 26.855 55.9524L48.7503 43.262C48.9545 43.1448 49.0858 42.9104 49.0858 42.6663V17.3001C49.0858 17.0461 48.9545 16.8215 48.7454 16.6946L26.855 4.01392C26.6507 3.89185 26.3833 3.89185 26.1791 4.01392L4.29835 16.6946C4.0844 16.8167 3.95312 17.051 3.95312 17.2952V42.6663C3.95312 42.9104 4.0844 43.1399 4.29349 43.2571L10.2888 46.7336C13.5417 48.3694 15.5353 46.4407 15.5353 44.5071V19.4631C15.5353 19.1067 15.8125 18.8284 16.1723 18.8284H18.9439C19.2891 18.8284 19.576 19.1018 19.576 19.4631V44.5168C19.576 48.8772 17.208 51.3772 13.0944 51.3772C11.8302 51.3772 10.8285 51.3772 8.04725 50.0002L2.29505 46.675C0.875229 45.8499 0 44.3118 0 42.6663V17.2952C0 15.6448 0.875229 14.1018 2.29505 13.2864L24.2098 0.591064C25.5956 -0.195068 27.4384 -0.195068 28.8145 0.591064L50.705 13.2913C52.1199 14.1116 53 15.6448 53 17.3001V42.6711C53 44.3167 52.1199 45.8499 50.705 46.6799L28.8145 59.3752C28.1143 59.7805 27.3169 59.9905 26.5097 59.9905V60.0002Z" fill="#689F63"/>
</g>
<defs>
<clipPath id="clip0_21830_6249">
<rect width="53" height="60" fill="white"/>
</clipPath>
</defs>
</svg>
