<svg width="75" height="75" viewBox="0 0 75 75" fill="none" xmlns="http://www.w3.org/2000/svg">
<path d="M11.7188 11.7188V63.2812H63.2812V11.7188H11.7188ZM16.4062 16.4062H58.5938V58.5938H16.4062V16.4062ZM25.7812 23.4375V36.3511V51.5395C39.6797 51.5395 42.4608 51.727 45.0623 50.9536C46.5858 50.4848 50.7567 48.9853 50.7567 43.7119C50.7567 41.3681 50.0543 37.4041 45.4605 36.4198V36.3511H44.5952C46.939 35.2964 48.413 33.3068 48.413 30.3771C48.413 29.6271 48.6237 23.4375 40.4205 23.4375H25.7812ZM30.4688 28.125H39.8438C43.3805 28.125 43.7255 30.1247 43.7255 31.6177C43.7255 35.2598 39.9141 35.1562 39.8438 35.1562H30.4688V28.125ZM30.4688 39.8438H41.6245C45.9862 39.8438 46.0692 42.6012 46.0692 43.3137C46.0692 46.9699 42.292 46.875 41.835 46.875H30.4688V39.8438Z" fill="black"/>
</svg>
