<svg width="180" height="180" viewBox="0 0 180 180" fill="none" xmlns="http://www.w3.org/2000/svg">
<g clip-path="url(#clip0_21607_498)" filter="url(#filter0_d_21607_498)">
<path d="M101.241 55C112.771 55 120 62.1766 120 73.7594V80.7262L119.979 81.0367C119.904 81.5865 119.632 82.0903 119.213 82.4551C118.795 82.8198 118.259 83.0207 117.704 83.0207H117.679L117.315 82.9926C116.774 82.9048 116.283 82.6242 115.933 82.2027C115.582 81.7812 115.396 81.2472 115.409 80.6992V73.7594C115.409 64.6305 110.37 59.5914 101.241 59.5914H78.7594C69.6047 59.5914 64.5914 64.6305 64.5914 73.7594V96.2664C64.5914 105.395 69.6305 110.409 78.7594 110.409H101.241C110.395 110.409 115.409 105.37 115.409 96.2664C115.409 95.6576 115.65 95.0736 116.081 94.6431C116.512 94.2126 117.095 93.9707 117.704 93.9707C118.313 93.9707 118.897 94.2126 119.328 94.6431C119.758 95.0736 120 95.6576 120 96.2664C120 107.823 112.823 115 101.266 115H78.7594C67.1766 115 60 107.823 60 96.2664V73.7594C60 62.1766 67.1766 55 78.7594 55H101.241ZM77.2559 77.6652C77.5574 77.6752 77.854 77.7446 78.1287 77.8694C78.4033 77.9942 78.6507 78.172 78.8565 78.3925C79.0624 78.6131 79.2227 78.8721 79.3283 79.1547C79.4339 79.4373 79.4827 79.738 79.4719 80.0395V99.2219C79.4701 99.5291 79.4067 99.8328 79.2854 100.115C79.1642 100.397 78.9875 100.652 78.7659 100.865C78.5444 101.078 78.2823 101.244 77.9954 101.354C77.7084 101.464 77.4024 101.515 77.0953 101.504C76.7883 101.493 76.4865 101.421 76.2079 101.292C75.9292 101.163 75.6793 100.979 75.473 100.751C75.2667 100.523 75.1082 100.257 75.0068 99.9665C74.9054 99.6765 74.8633 99.3691 74.8828 99.0625V79.8543L74.9238 79.4957C75.0277 78.9611 75.3208 78.4818 75.7493 78.1456C76.1778 77.8094 76.713 77.6389 77.257 77.6652H77.2559ZM90.1055 68.6676C90.7143 68.6676 91.2982 68.9094 91.7288 69.34C92.1593 69.7705 92.4012 70.3544 92.4012 70.9633V99.0883C92.4012 99.6971 92.1593 100.281 91.7288 100.712C91.2982 101.142 90.7143 101.384 90.1055 101.384C89.4966 101.384 88.9127 101.142 88.4822 100.712C88.0516 100.281 87.8098 99.6971 87.8098 99.0883V70.9633C87.8098 70.3544 88.0516 69.7705 88.4822 69.34C88.9127 68.9094 89.4966 68.6676 90.1055 68.6676ZM102.823 87.7973C103.431 87.7976 104.015 88.0394 104.445 88.4697C104.875 88.8999 105.117 89.4833 105.117 90.0918V99.0625C105.124 99.3683 105.07 99.6723 104.958 99.9568C104.845 100.241 104.677 100.501 104.464 100.719C104.25 100.938 103.994 101.112 103.713 101.23C103.431 101.349 103.128 101.41 102.822 101.41C102.516 101.41 102.213 101.349 101.932 101.23C101.65 101.112 101.394 100.938 101.181 100.719C100.967 100.501 100.799 100.241 100.687 99.9568C100.574 99.6723 100.52 99.3683 100.527 99.0625V90.0918C100.527 89.7904 100.586 89.4919 100.702 89.2134C100.817 88.935 100.986 88.682 101.199 88.4689C101.413 88.2558 101.666 88.0868 101.944 87.9716C102.223 87.8563 102.521 87.7971 102.823 87.7973Z" fill="black"/>
</g>
<defs>
<filter id="filter0_d_21607_498" x="0" y="0" width="180" height="180" filterUnits="userSpaceOnUse" color-interpolation-filters="sRGB">
<feFlood flood-opacity="0" result="BackgroundImageFix"/>
<feColorMatrix in="SourceAlpha" type="matrix" values="0 0 0 0 0 0 0 0 0 0 0 0 0 0 0 0 0 0 127 0" result="hardAlpha"/>
<feOffset dy="5"/>
<feGaussianBlur stdDeviation="30"/>
<feComposite in2="hardAlpha" operator="out"/>
<feColorMatrix type="matrix" values="0 0 0 0 0 0 0 0 0 0 0 0 0 0 0 0 0 0 0.05 0"/>
<feBlend mode="normal" in2="BackgroundImageFix" result="effect1_dropShadow_21607_498"/>
<feBlend mode="normal" in="SourceGraphic" in2="effect1_dropShadow_21607_498" result="shape"/>
</filter>
<clipPath id="clip0_21607_498">
<rect width="60" height="60" fill="white" transform="translate(60 55)"/>
</clipPath>
</defs>
</svg>
