<svg width="60" height="60" viewBox="0 0 60 60" fill="none" xmlns="http://www.w3.org/2000/svg">
<g clip-path="url(#clip0_21832_6265)">
<path d="M8.1523 1.23463C8.4619 0.487284 9.19114 0 10.0001 0H50C51.1048 0 52 0.895432 52 2V22C52 23.1046 51.1048 24 50 24H34.8285L51.4144 40.5856C51.9864 41.1576 52.1572 42.018 51.8476 42.7652C51.538 43.5128 50.8088 44 50 44H32V58C32 58.8088 31.5127 59.538 30.7654 59.8476C30.018 60.1572 29.1578 59.9864 28.5858 59.4144L8.58582 39.4142C8.21074 39.0391 8.00002 38.5304 8.00002 38V22C8.00002 20.8954 8.89546 20 10 20H25.1717L8.58586 3.41421C8.01386 2.84222 7.84274 1.98198 8.1523 1.23463Z" fill="black"/>
</g>
<defs>
<clipPath id="clip0_21832_6265">
<rect width="60" height="60" fill="white"/>
</clipPath>
</defs>
</svg>
