<svg width="178" height="180" viewBox="0 0 178 180" fill="none" xmlns="http://www.w3.org/2000/svg">
<g clip-path="url(#clip0_21607_473)" filter="url(#filter0_d_21607_473)">
<path d="M103.258 83.3529C103.696 83.3006 104.116 83.2985 104.501 83.3531C104.725 82.8412 104.763 81.959 104.562 80.9984C104.264 79.5705 103.86 78.7063 103.026 78.8409C102.191 78.9754 102.16 80.0098 102.459 81.4378C102.627 82.241 102.925 82.9276 103.258 83.3529Z" fill="black"/>
<path d="M96.0951 84.4829C96.6922 84.7448 97.059 84.9184 97.2026 84.7667C97.295 84.6719 97.2673 84.4914 97.1247 84.2586C96.8302 83.7776 96.2241 83.2898 95.581 83.0159C94.2659 82.4499 92.6977 82.6381 91.4879 83.5075C91.0885 83.8001 90.7096 84.2055 90.764 84.4517C90.7816 84.5313 90.8412 84.5911 90.9815 84.6108C91.3108 84.6486 92.4617 84.0667 93.7871 83.9855C94.723 83.9282 95.498 84.2208 96.0951 84.4829Z" fill="black"/>
<path d="M94.8942 85.1682C94.1167 85.2911 93.6877 85.5473 93.4126 85.7858C93.1775 85.9912 93.0323 86.2181 93.0335 86.3778C93.034 86.4538 93.067 86.4975 93.0929 86.5195C93.1283 86.5508 93.1703 86.5682 93.2207 86.5682C93.3964 86.5682 93.7897 86.4104 93.7897 86.4104C94.8718 86.0231 95.5856 86.0699 96.293 86.1506C96.6838 86.1944 96.8685 86.2188 96.9542 86.0848C96.9795 86.0464 97.0103 85.963 96.932 85.8362C96.7502 85.5405 95.965 85.0412 94.8942 85.1682Z" fill="black"/>
<path d="M100.84 87.6838C101.367 87.9433 101.949 87.8414 102.138 87.4564C102.327 87.0713 102.053 86.549 101.525 86.2895C100.997 86.0302 100.415 86.1319 100.226 86.517C100.037 86.9019 100.312 87.4244 100.84 87.6838Z" fill="black"/>
<path d="M104.234 84.7179C103.805 84.7106 103.449 85.1816 103.439 85.7697C103.429 86.3578 103.769 86.8406 104.197 86.8479C104.626 86.8551 104.982 86.3841 104.992 85.7961C105.002 85.2078 104.662 84.7251 104.234 84.7179Z" fill="black"/>
<path d="M75.4249 95.3231C75.3183 95.1894 75.1428 95.2302 74.9733 95.2697C74.8547 95.2973 74.7204 95.3285 74.5732 95.3259C74.2577 95.3198 73.9905 95.1851 73.8405 94.9545C73.6452 94.6545 73.6564 94.2072 73.8722 93.6949C73.9012 93.626 73.9354 93.5492 73.9727 93.4656C74.3168 92.6939 74.8925 91.4021 74.2461 90.1713C73.7595 89.2449 72.9662 88.668 72.0122 88.5468C71.0962 88.4308 70.1533 88.7704 69.552 89.434C68.6032 90.4808 68.4549 91.9051 68.6383 92.4084C68.7056 92.5927 68.8107 92.6437 68.8871 92.6542C69.0485 92.676 69.2872 92.5584 69.4369 92.1562C69.4476 92.1272 69.4619 92.0823 69.4797 92.0253C69.5463 91.8126 69.6704 91.4167 69.8736 91.0992C70.1187 90.7163 70.5003 90.4527 70.9483 90.3567C71.4047 90.2591 71.8712 90.346 72.2617 90.6017C72.9262 91.0367 73.1823 91.8512 72.8985 92.6284C72.7517 93.0302 72.5135 93.7987 72.566 94.4301C72.6723 95.7082 73.4583 96.2215 74.1645 96.2759C74.8513 96.3018 75.3311 95.9165 75.4527 95.6346C75.5243 95.4681 75.4639 95.3666 75.4249 95.3231Z" fill="black"/>
<path d="M115.056 92.9859C115.03 92.8934 114.86 92.271 114.626 91.521C114.392 90.771 114.15 90.243 114.15 90.243C115.088 88.838 115.105 87.5816 114.98 86.8702C114.847 85.988 114.479 85.2364 113.739 84.4593C112.999 83.6824 111.485 82.8866 109.358 82.2893C109.115 82.2209 108.312 82.0009 108.242 81.9793C108.236 81.9331 108.183 79.3476 108.135 78.2379C108.099 77.4356 108.031 76.1831 107.642 74.9491C107.179 73.2793 106.372 71.818 105.364 70.8832C108.144 68.0015 109.879 64.8273 109.875 62.1039C109.867 56.8671 103.436 55.2825 95.51 58.5644C95.5016 58.5679 93.8427 59.2714 93.8306 59.2774C93.8232 59.2701 90.7947 56.2986 90.7491 56.2589C81.7127 48.377 53.459 79.7817 62.4922 87.4089L64.4665 89.0813C63.9543 90.4079 63.7531 91.9277 63.9175 93.562C64.1286 95.6612 65.2114 97.6734 66.9663 99.2282C68.6323 100.704 70.8228 101.639 72.9485 101.637C76.4638 109.737 84.4954 114.707 93.913 114.987C104.015 115.287 112.495 110.547 116.048 102.032C116.28 101.434 117.267 98.7414 117.267 96.3646C117.267 93.9758 115.916 92.9859 115.056 92.9859ZM73.7251 99.3615C73.4183 99.4137 73.105 99.4346 72.7895 99.4271C69.7384 99.3452 66.4427 96.5984 66.1152 93.3409C65.7532 89.7403 67.5929 86.9691 70.8504 86.3122C71.2398 86.2338 71.7103 86.1884 72.2178 86.2147C74.0429 86.3146 76.7324 87.7161 77.3468 91.6919C77.8909 95.2134 77.0266 98.7985 73.7251 99.3615ZM70.3177 84.1584C68.2899 84.5526 66.5027 85.7019 65.4098 87.2895C64.7565 86.7447 63.5396 85.69 63.3247 85.2791C61.5799 81.9659 65.229 75.5244 67.7781 71.8868C74.0778 62.8965 83.9447 56.0919 88.5124 57.3263C89.2548 57.5364 91.7141 60.388 91.7141 60.388C91.7141 60.388 87.1483 62.9212 82.9142 66.4524C77.2091 70.8454 72.8995 77.23 70.3177 84.1584ZM81.9531 71.85C84.1926 69.2619 86.9498 67.0118 89.4195 65.7484C89.505 65.7046 89.5957 65.7973 89.5493 65.8814C89.3532 66.2366 88.9756 66.9969 88.8559 67.5738C88.8372 67.6637 88.9352 67.7313 89.0109 67.6796C90.5475 66.6322 93.2203 65.51 95.5647 65.3657C95.6655 65.3595 95.7141 65.4887 95.634 65.5502C95.2775 65.8236 94.8875 66.202 94.6027 66.585C94.5543 66.6501 94.5998 66.7439 94.681 66.7445C96.3273 66.7561 98.6482 67.3323 100.161 68.1806C100.263 68.238 100.19 68.4363 100.076 68.41C97.7871 67.8854 94.0407 67.4875 90.1491 68.4366C86.675 69.284 84.0234 70.5924 82.0889 71.9994C81.9914 72.0705 81.874 71.9414 81.9531 71.85ZM115.159 97.1695C114.721 99.8273 113.591 101.984 111.692 103.969C110.537 105.213 109.134 106.294 107.528 107.081C106.676 107.529 105.768 107.916 104.809 108.229C97.6516 110.567 90.3253 107.997 87.9636 102.478C87.7752 102.063 87.6158 101.629 87.49 101.174C86.4835 97.5375 87.3381 93.1741 90.0089 90.4277C90.0091 90.4275 90.0085 90.4266 90.0086 90.4263C90.1734 90.2513 90.3413 90.0454 90.3413 89.7862C90.3413 89.5694 90.2035 89.3408 90.0841 89.1787C89.1498 87.8234 85.9131 85.5139 86.5627 81.0445C87.0293 77.8338 89.8373 75.5724 92.4554 75.7065C92.6765 75.7179 92.898 75.7316 93.1188 75.7446C94.2534 75.8117 95.2432 75.9571 96.1772 75.9963C97.7402 76.0638 99.146 75.8366 100.811 74.4493C101.373 73.9812 101.823 73.5755 102.585 73.4464C102.665 73.4328 102.864 73.3613 103.262 73.3802C103.668 73.4019 104.055 73.5136 104.403 73.7449C105.738 74.633 105.927 76.7841 105.996 78.3577C106.036 79.256 106.144 81.4292 106.181 82.053C106.266 83.4795 106.641 83.6807 107.4 83.9305C107.827 84.0709 108.223 84.1756 108.806 84.3395C110.573 84.8355 111.621 85.3387 112.281 85.9852C112.675 86.3892 112.858 86.8183 112.914 87.2279C113.123 88.7477 111.734 90.6252 108.059 92.3309C104.042 94.1956 99.1682 94.6678 95.8009 94.2927C95.5426 94.2639 94.6243 94.1598 94.6211 94.1594C91.9276 93.7965 90.391 97.2777 92.0076 99.6625C93.0495 101.2 95.8873 102.2 98.7267 102.2C105.237 102.201 110.241 99.4212 112.102 97.0202C112.158 96.9484 112.163 96.9405 112.251 96.808C112.342 96.6698 112.267 96.5939 112.153 96.6719C110.632 97.7124 103.877 101.843 96.6523 100.601C96.6523 100.601 95.7744 100.456 94.9729 100.144C94.336 99.8968 93.0033 99.2837 92.8412 97.9161C98.6721 99.7194 102.343 98.0148 102.343 98.0148C102.41 97.9868 102.455 97.9109 102.448 97.8357C102.438 97.7432 102.356 97.6759 102.263 97.6853C102.263 97.6853 97.4838 98.3929 92.9686 96.7399C93.4603 95.1414 94.7681 95.7187 96.7447 95.8782C100.307 96.0905 103.501 95.5701 105.86 94.8928C107.905 94.3058 110.591 93.1488 112.677 91.5024C113.381 93.0479 113.629 94.749 113.629 94.749C113.629 94.749 114.174 94.6515 114.629 94.9317C115.059 95.1968 115.375 95.7471 115.159 97.1695Z" fill="black"/>
</g>
<defs>
<filter id="filter0_d_21607_473" x="-1" y="0" width="180" height="180" filterUnits="userSpaceOnUse" color-interpolation-filters="sRGB">
<feFlood flood-opacity="0" result="BackgroundImageFix"/>
<feColorMatrix in="SourceAlpha" type="matrix" values="0 0 0 0 0 0 0 0 0 0 0 0 0 0 0 0 0 0 127 0" result="hardAlpha"/>
<feOffset dy="5"/>
<feGaussianBlur stdDeviation="30"/>
<feComposite in2="hardAlpha" operator="out"/>
<feColorMatrix type="matrix" values="0 0 0 0 0 0 0 0 0 0 0 0 0 0 0 0 0 0 0.05 0"/>
<feBlend mode="normal" in2="BackgroundImageFix" result="effect1_dropShadow_21607_473"/>
<feBlend mode="normal" in="SourceGraphic" in2="effect1_dropShadow_21607_473" result="shape"/>
</filter>
<clipPath id="clip0_21607_473">
<rect width="60" height="60" fill="white" transform="translate(59 55)"/>
</clipPath>
</defs>
</svg>
