<svg width="260" height="260" viewBox="0 0 260 260" fill="none" xmlns="http://www.w3.org/2000/svg">
<g filter="url(#filter0_d_21607_496)">
<rect x="80" y="75" width="100" height="100" rx="10" fill="white"/>
</g>
<path fill-rule="evenodd" clip-rule="evenodd" d="M159.966 108.574C159.988 108.654 160 108.736 160 108.819V121.698C160 121.863 159.955 122.025 159.87 122.168C159.785 122.311 159.662 122.43 159.514 122.512L148.386 128.736V141.071C148.386 141.407 148.203 141.717 147.903 141.886L124.675 154.875C124.622 154.904 124.564 154.923 124.506 154.943C124.484 154.95 124.463 154.963 124.44 154.969C124.278 155.01 124.107 155.01 123.945 154.969C123.918 154.962 123.894 154.948 123.869 154.938C123.816 154.92 123.76 154.903 123.709 154.875L100.486 141.886C100.338 141.803 100.216 141.685 100.13 141.542C100.045 141.399 100 141.236 100 141.071V102.435C100 102.35 100.012 102.268 100.034 102.188C100.041 102.161 100.058 102.136 100.068 102.11C100.086 102.06 100.103 102.01 100.129 101.964C100.147 101.933 100.174 101.909 100.196 101.881C100.224 101.843 100.249 101.804 100.282 101.771C100.309 101.744 100.346 101.724 100.377 101.701C100.412 101.673 100.443 101.642 100.483 101.62L112.097 95.1254C112.244 95.0433 112.411 95 112.58 95C112.75 95 112.917 95.0433 113.064 95.1254L124.676 101.62H124.678C124.717 101.644 124.75 101.673 124.785 101.7C124.816 101.723 124.851 101.744 124.879 101.77C124.913 101.804 124.937 101.843 124.966 101.881C124.987 101.909 125.014 101.933 125.031 101.964C125.059 102.011 125.075 102.06 125.094 102.11C125.104 102.136 125.121 102.161 125.128 102.189C125.15 102.269 125.162 102.352 125.162 102.435V126.567L134.838 121.154V108.818C134.838 108.736 134.85 108.652 134.872 108.574C134.881 108.545 134.896 108.521 134.906 108.494C134.925 108.444 134.942 108.394 134.969 108.348C134.987 108.318 135.013 108.293 135.034 108.265C135.063 108.227 135.087 108.189 135.121 108.156C135.149 108.129 135.184 108.109 135.215 108.085C135.252 108.057 135.283 108.027 135.322 108.004L146.936 101.51C147.083 101.427 147.25 101.384 147.42 101.384C147.589 101.384 147.756 101.427 147.903 101.51L159.515 108.004C159.557 108.028 159.588 108.057 159.624 108.084C159.654 108.108 159.689 108.129 159.717 108.155C159.751 108.189 159.775 108.227 159.804 108.265C159.826 108.293 159.853 108.318 159.869 108.348C159.897 108.394 159.913 108.444 159.932 108.494C159.943 108.521 159.959 108.545 159.966 108.574ZM158.064 121.154V110.445L154 112.717L148.386 115.857V126.567L158.065 121.154H158.064ZM146.452 140.528V129.811L140.93 132.875L125.161 141.617V152.435L146.452 140.528ZM101.936 104.06V140.528L123.225 152.433V141.618L112.103 135.504L112.099 135.502L112.094 135.499C112.057 135.478 112.026 135.448 111.991 135.422C111.96 135.398 111.925 135.379 111.899 135.354L111.896 135.35C111.865 135.321 111.843 135.284 111.817 135.251C111.792 135.22 111.763 135.193 111.744 135.16L111.743 135.156C111.721 135.121 111.708 135.079 111.692 135.039C111.676 135.004 111.656 134.971 111.646 134.933C111.634 134.889 111.632 134.841 111.627 134.795C111.622 134.76 111.612 134.724 111.612 134.689V109.473L106 106.332L101.936 104.06ZM112.581 97.0246L102.906 102.435L112.579 107.845L122.253 102.433L112.579 97.0246H112.581ZM117.613 130.788L123.226 127.649V104.06L119.162 106.333L113.548 109.473V133.061L117.613 130.788ZM147.42 103.409L137.746 108.819L147.42 114.229L157.093 108.818L147.42 103.409ZM146.452 115.857L140.838 112.717L136.774 110.445V121.154L142.387 124.293L146.452 126.567V115.857ZM124.191 139.991L138.381 132.122L145.474 128.19L135.807 122.783L124.677 129.008L114.533 134.681L124.191 139.991Z" fill="#FF2D20"/>
<defs>
<filter id="filter0_d_21607_496" x="0" y="0" width="260" height="260" filterUnits="userSpaceOnUse" color-interpolation-filters="sRGB">
<feFlood flood-opacity="0" result="BackgroundImageFix"/>
<feColorMatrix in="SourceAlpha" type="matrix" values="0 0 0 0 0 0 0 0 0 0 0 0 0 0 0 0 0 0 127 0" result="hardAlpha"/>
<feOffset dy="5"/>
<feGaussianBlur stdDeviation="40"/>
<feComposite in2="hardAlpha" operator="out"/>
<feColorMatrix type="matrix" values="0 0 0 0 0 0 0 0 0 0 0 0 0 0 0 0 0 0 0.08 0"/>
<feBlend mode="normal" in2="BackgroundImageFix" result="effect1_dropShadow_21607_496"/>
<feBlend mode="normal" in="SourceGraphic" in2="effect1_dropShadow_21607_496" result="shape"/>
</filter>
</defs>
</svg>
