<svg width="162" height="180" viewBox="0 0 162 180" fill="none" xmlns="http://www.w3.org/2000/svg">
<g filter="url(#filter0_d_21607_502)">
<path d="M96.7794 75.6133C99.8356 73.6047 101.857 70.1465 101.857 66.2254C101.857 60.0355 96.8204 55 90.6306 55H71.3696C65.1798 55 60.1431 60.0355 60.1431 66.2254C60.1431 70.1465 62.1646 73.6047 65.2208 75.6133C62.1646 77.6207 60.1431 81.0789 60.1431 85C60.1431 88.9211 62.1646 92.3793 65.2208 94.3879C62.1646 96.3941 60.1431 99.8535 60.1431 103.775C60.1431 109.964 65.2067 115 71.4294 115C77.72 115 82.8388 109.909 82.8388 103.653V93.3004C84.8333 95.118 87.4829 96.2254 90.3868 96.2254H90.6306C96.8204 96.2254 101.857 91.1898 101.857 85C101.857 81.0789 99.8356 77.6207 96.7794 75.6133ZM82.8388 58.6773H90.6306C94.7931 58.6773 98.1798 62.0629 98.1798 66.2254C98.1798 70.3879 94.7931 73.7746 90.6306 73.7746H82.8388V58.6773ZM63.8204 66.2254C63.8204 62.0629 67.2071 58.6773 71.3696 58.6773H79.1614V73.7746H71.3696C67.2071 73.7746 63.8204 70.3879 63.8204 66.2254ZM63.8204 85C63.8204 80.8375 67.2071 77.452 71.3696 77.452H79.1614V92.5492H71.3216C67.1813 92.5234 63.8204 89.1461 63.8204 85ZM79.1614 103.653C79.1614 107.882 75.6927 111.323 71.4294 111.323C67.2341 111.323 63.8204 107.937 63.8204 103.775C63.8204 99.6121 67.2071 96.2254 71.3696 96.2254H79.1614V103.653ZM90.6306 92.5492H90.3868C86.2243 92.5492 82.8388 89.1625 82.8388 85C82.8388 80.8375 86.2243 77.452 90.3868 77.452H90.6306C94.7931 77.452 98.1798 80.8375 98.1798 85C98.1798 89.1625 94.7931 92.5492 90.6306 92.5492Z" fill="black"/>
<path d="M71.3698 92.5479C71.3534 92.5479 71.3382 92.5479 71.3218 92.549H79.1616V92.5479H71.3698Z" fill="black"/>
</g>
<defs>
<filter id="filter0_d_21607_502" x="-9" y="0" width="180" height="180" filterUnits="userSpaceOnUse" color-interpolation-filters="sRGB">
<feFlood flood-opacity="0" result="BackgroundImageFix"/>
<feColorMatrix in="SourceAlpha" type="matrix" values="0 0 0 0 0 0 0 0 0 0 0 0 0 0 0 0 0 0 127 0" result="hardAlpha"/>
<feOffset dy="5"/>
<feGaussianBlur stdDeviation="30"/>
<feComposite in2="hardAlpha" operator="out"/>
<feColorMatrix type="matrix" values="0 0 0 0 0 0 0 0 0 0 0 0 0 0 0 0 0 0 0.05 0"/>
<feBlend mode="normal" in2="BackgroundImageFix" result="effect1_dropShadow_21607_502"/>
<feBlend mode="normal" in="SourceGraphic" in2="effect1_dropShadow_21607_502" result="shape"/>
</filter>
</defs>
</svg>
