<svg width="11" height="10" viewBox="0 0 11 10" fill="none" xmlns="http://www.w3.org/2000/svg">
<path d="M9.27434 9.99933H6.37008V6.91083H4.76477V9.99045H1.72945C1.72559 9.92827 1.71742 9.86141 1.71742 9.79455C1.71656 8.50885 1.71828 7.22361 1.71484 5.9379C1.71484 5.81961 1.73934 5.73686 1.83086 5.66112C3.01895 4.67183 4.20402 3.67833 5.38996 2.68623C5.42305 2.65864 5.45957 2.63527 5.50512 2.60254C5.59922 2.68015 5.68988 2.75402 5.77969 2.82929C6.89731 3.76482 8.01492 4.70081 9.13297 5.63541C9.21977 5.70787 9.28637 5.77193 9.28551 5.91546C9.27906 7.23202 9.28164 8.54905 9.28121 9.86562C9.28121 9.90349 9.27691 9.94089 9.27348 9.9998L9.27434 9.99933Z" fill="url(#paint0_linear_21858_5854)"/>
<path d="M11 4.60377C10.7409 4.97031 10.4968 5.31488 10.2407 5.67722C8.66121 4.35551 7.09113 3.04128 5.50043 1.70976C3.92563 3.02772 2.35125 4.34522 0.759688 5.67675C0.504023 5.31535 0.256523 4.9661 0 4.60283C1.83391 3.06793 3.65922 1.54004 5.49914 0C6.27 0.644256 7.03785 1.28618 7.84738 1.96269V1.14031H9.44582V1.38716C9.44582 1.9482 9.45312 2.50923 9.44152 3.0698C9.43766 3.24746 9.49438 3.35172 9.62156 3.45458C10.0805 3.82627 10.5308 4.21104 11 4.60377Z" fill="url(#paint1_linear_21858_5854)"/>
<defs>
<linearGradient id="paint0_linear_21858_5854" x1="13.4494" y1="6.30117" x2="1.71495" y2="6.33637" gradientUnits="userSpaceOnUse">
<stop stop-color="#9708CC"/>
<stop offset="1" stop-color="#43CBFF"/>
</linearGradient>
<linearGradient id="paint1_linear_21858_5854" x1="17.05" y1="2.83861" x2="0.000549018" y2="2.93544" gradientUnits="userSpaceOnUse">
<stop stop-color="#9708CC"/>
<stop offset="1" stop-color="#43CBFF"/>
</linearGradient>
</defs>
</svg>
