<svg width="20" height="16" viewBox="0 0 20 16" fill="none" xmlns="http://www.w3.org/2000/svg">
<path d="M16.1458 15.9994H11.0897V11.0578H8.295V15.9852H3.01079C3.00405 15.8857 2.98984 15.7787 2.98984 15.6718C2.98834 13.6146 2.99134 11.5583 2.98535 9.50113C2.98535 9.31187 3.02799 9.17947 3.18732 9.05828C5.25568 7.47541 7.31879 5.88581 9.38341 4.29845C9.44101 4.25432 9.50459 4.21691 9.58388 4.16455C9.74771 4.28873 9.90555 4.40692 10.0619 4.52735C12.0076 6.0242 13.9532 7.52179 15.8997 9.01714C16.0508 9.13309 16.1667 9.23557 16.1652 9.46522C16.154 11.5717 16.1585 13.679 16.1577 15.7855C16.1577 15.8461 16.1503 15.9059 16.1443 16.0002L16.1458 15.9994Z" fill="url(#paint0_linear_21830_1220)"/>
<path d="M19.15 7.36603C18.699 7.9525 18.2741 8.50381 17.8282 9.08355C15.0784 6.96882 12.345 4.86605 9.57576 2.73561C6.83417 4.84436 4.09332 6.95236 1.32255 9.0828C0.87746 8.50456 0.446585 7.94577 0 7.36453C3.19267 4.90869 6.37038 2.46407 9.57352 0C10.9155 1.03081 12.2523 2.05788 13.6616 3.14031V1.82449H16.4443V2.21946C16.4443 3.11712 16.4571 4.01477 16.4369 4.91168C16.4301 5.19594 16.5289 5.36276 16.7503 5.52733C17.5492 6.12203 18.3332 6.73767 19.15 7.36603Z" fill="url(#paint1_linear_21830_1220)"/>
<defs>
<linearGradient id="paint0_linear_21830_1220" x1="23.4142" y1="10.0824" x2="2.98557" y2="10.149" gradientUnits="userSpaceOnUse">
<stop stop-color="#9708CC"/>
<stop offset="1" stop-color="#43CBFF"/>
</linearGradient>
<linearGradient id="paint1_linear_21830_1220" x1="29.6825" y1="4.54177" x2="0.00113183" y2="4.72519" gradientUnits="userSpaceOnUse">
<stop stop-color="#9708CC"/>
<stop offset="1" stop-color="#43CBFF"/>
</linearGradient>
</defs>
</svg>
