<svg width="28" height="40" viewBox="0 0 28 40" fill="none" xmlns="http://www.w3.org/2000/svg">
<path d="M14.0001 0C6.64823 0 0.666748 5.98149 0.666748 13.3334C0.666748 15.5404 1.21854 17.7287 2.26753 19.6696L13.271 39.5703C13.4175 39.8356 13.6966 40 14.0001 40C14.3036 40 14.5828 39.8356 14.7292 39.5703L25.7367 19.663C26.7817 17.7287 27.3335 15.5403 27.3335 13.3333C27.3335 5.98148 21.352 0 14.0001 0ZM14.0001 20C10.3242 20 7.33347 17.0093 7.33347 13.3334C7.33347 9.65742 10.3242 6.66672 14.0001 6.66672C17.676 6.66672 20.6667 9.65742 20.6667 13.3334C20.6667 17.0093 17.676 20 14.0001 20Z" fill="#D9FFC3"/>
</svg>
