<svg width="40" height="40" viewBox="0 0 40 40" fill="none" xmlns="http://www.w3.org/2000/svg">
<path d="M20.0001 0C12.6482 0 6.66675 5.98149 6.66675 13.3334C6.66675 15.5404 7.21854 17.7287 8.26753 19.6696L19.271 39.5703C19.4175 39.8356 19.6966 40 20.0001 40C20.3036 40 20.5828 39.8356 20.7292 39.5703L31.7367 19.663C32.7817 17.7287 33.3335 15.5403 33.3335 13.3333C33.3335 5.98148 27.352 0 20.0001 0ZM20.0001 20C16.3242 20 13.3335 17.0093 13.3335 13.3334C13.3335 9.65742 16.3242 6.66672 20.0001 6.66672C23.676 6.66672 26.6667 9.65742 26.6667 13.3334C26.6667 17.0093 23.676 20 20.0001 20Z" fill="#FFD700"/>
</svg>
