<svg width="60" height="60" viewBox="0 0 60 60" fill="none" xmlns="http://www.w3.org/2000/svg">
<circle cx="30" cy="30" r="29.5" stroke="url(#paint0_linear_21895_164)" stroke-dasharray="5 5"/>
<g clip-path="url(#clip0_21895_164)">
<path d="M25.4158 22.0442C25.3296 22.3095 25.4144 22.5937 25.6318 22.7685L27.5674 24.3243L26.9159 26.7207C26.8428 26.9898 26.9413 27.2696 27.1671 27.4338C27.3929 27.5977 27.6893 27.6049 27.9227 27.4522L30.0005 26.092L32.0783 27.4522C32.1904 27.5255 32.3169 27.562 32.4431 27.562C32.58 27.562 32.7166 27.5191 32.8338 27.4338C33.0597 27.2698 33.1583 26.9898 33.085 26.7207L32.4335 24.3244L34.369 22.7687C34.5866 22.5939 34.6714 22.3096 34.5852 22.0442C34.499 21.7788 34.2632 21.5986 33.9846 21.5851L31.5041 21.4642L30.6226 19.1426C30.5237 18.8818 30.2794 18.7132 30.0004 18.7132C29.7215 18.7132 29.4772 18.8817 29.3783 19.1425L28.4967 21.4642L26.0165 21.5851C25.7377 21.5986 25.502 21.7788 25.4158 22.0442ZM28.7202 22.3919C28.9846 22.379 29.2161 22.2108 29.3099 21.9634L30.0004 20.1449L30.6908 21.9636C30.7848 22.2109 31.0164 22.379 31.2805 22.3919L33.2233 22.4866L31.7071 23.7052C31.5008 23.8711 31.4125 24.1433 31.4819 24.3985L31.9922 26.2755L30.3647 25.2101C30.254 25.1377 30.1272 25.1014 30.0003 25.1014C29.8735 25.1014 29.7465 25.1377 29.6357 25.2101L28.0084 26.2755L28.5187 24.3986C28.5881 24.1432 28.4997 23.871 28.2934 23.7052L26.7772 22.4867L28.7202 22.3919ZM29.5316 17.1889V15.4688C29.5316 15.2099 29.7415 15 30.0004 15C30.2592 15 30.4691 15.2099 30.4691 15.4688V17.1889C30.4691 17.4478 30.2592 17.6577 30.0004 17.6577C29.7415 17.6577 29.5316 17.4478 29.5316 17.1889ZM32.3862 19.9662C32.213 19.7738 32.2286 19.4774 32.4209 19.3042L34.3378 17.5781C34.5303 17.4049 34.8266 17.4204 34.9999 17.6128C35.1731 17.8052 35.1576 18.1016 34.9652 18.2748L33.0482 20.0009C32.9586 20.0815 32.8465 20.1213 32.7347 20.1213C32.6066 20.1213 32.4788 20.069 32.3862 19.9662ZM25.0009 17.6128C25.1741 17.4204 25.4704 17.4049 25.6629 17.5781L27.5799 19.3042C27.7722 19.4774 27.7878 19.7738 27.6145 19.9662C27.522 20.0689 27.3942 20.1213 27.266 20.1213C27.1543 20.1213 27.0421 20.0815 26.9525 20.0009L25.0355 18.2748C24.8431 18.1016 24.8277 17.8052 25.0009 17.6128ZM36.0141 22.7685L37.9497 24.3243L37.2982 26.7207C37.2251 26.9898 37.3236 27.2696 37.5494 27.4338C37.775 27.5977 38.0715 27.6048 38.305 27.4522L40.3828 26.092L42.4606 27.4522C42.5727 27.5255 42.6992 27.562 42.8254 27.562C42.9623 27.562 43.0989 27.5191 43.2161 27.4338C43.4419 27.2699 43.5404 26.99 43.4673 26.7207L42.8158 24.3244L44.7513 22.7687C44.9688 22.594 45.0536 22.3096 44.9674 22.0442C44.8812 21.7788 44.6454 21.5986 44.3669 21.5851L41.8864 21.4642L41.005 19.1426C40.906 18.8818 40.6617 18.7132 40.3828 18.7132C40.1037 18.7132 39.8595 18.8817 39.7605 19.1425L38.8791 21.4642L36.3988 21.5851C36.12 21.5985 35.8842 21.7788 35.798 22.0442C35.7118 22.3096 35.7966 22.5939 36.0141 22.7685ZM39.1024 22.3919C39.3669 22.379 39.5984 22.2108 39.6923 21.9633L40.3827 20.1449L41.0731 21.9633C41.167 22.2108 41.3986 22.379 41.6629 22.3918L43.6057 22.4866L42.0897 23.705C41.8832 23.8709 41.7948 24.1431 41.8643 24.3984L42.3745 26.2754L40.747 25.21C40.6363 25.1376 40.5095 25.1014 40.3826 25.1014C40.2557 25.1014 40.1288 25.1377 40.0181 25.2101L38.3907 26.2754L38.901 24.3986C38.9704 24.1433 38.8821 23.8711 38.6757 23.7052L37.1596 22.4866L39.1024 22.3919ZM15.2494 22.7685L17.185 24.3243L16.5335 26.7207C16.4604 26.9898 16.5589 27.2696 16.7847 27.4338C17.0105 27.5977 17.3069 27.6049 17.5403 27.4522L19.6181 26.092L21.6959 27.4522C21.808 27.5255 21.9345 27.562 22.0607 27.562C22.1976 27.562 22.3342 27.5191 22.4514 27.4338C22.6772 27.2699 22.7758 26.99 22.7026 26.7207L22.0511 24.3244L23.9866 22.7687C24.204 22.5941 24.2889 22.3098 24.2027 22.0439C24.1163 21.7787 23.8805 21.5985 23.6022 21.5851L21.1217 21.4641L20.2403 19.1426C20.1413 18.8818 19.897 18.7132 19.6181 18.7132C19.3391 18.7132 19.0948 18.8817 18.9958 19.1425L18.1144 21.4642L15.6341 21.5851C15.3554 21.5985 15.1196 21.7788 15.0335 22.0439C14.947 22.3094 15.0318 22.5939 15.2494 22.7685ZM18.3378 22.3919C18.6022 22.379 18.8337 22.2108 18.9276 21.9633L19.618 20.1449L20.3084 21.9633C20.4023 22.2108 20.6339 22.379 20.8982 22.3918L22.841 22.4866L21.325 23.705C21.1186 23.8709 21.0301 24.1431 21.0996 24.3984L21.6099 26.2754L19.9824 25.21C19.8716 25.1376 19.7448 25.1014 19.6179 25.1014C19.491 25.1014 19.3641 25.1377 19.2534 25.2101L17.626 26.2754L18.1363 24.3986C18.2057 24.1433 18.1174 23.8711 17.911 23.7052L16.3949 22.4866L18.3378 22.3919ZM44.9266 39.8984C44.5968 38.8333 43.9212 37.8769 43.0244 37.2053C42.595 36.8838 42.1274 36.6334 41.6342 36.4561C42.318 35.9194 42.7586 35.0862 42.7586 34.1514C42.7586 32.5362 41.4445 31.2222 39.8294 31.2222C38.2142 31.2222 36.9001 32.5362 36.9001 34.1514C36.9001 35.0851 37.3397 35.9174 38.0222 36.4542C37.1075 36.7807 36.2971 37.3543 35.6766 38.1273C35.3865 37.7215 35.052 37.3447 34.6759 37.0045C33.918 36.3192 33.0286 35.8158 32.0708 35.5184C33.0865 34.845 33.758 33.6921 33.758 32.3848C33.758 30.3129 32.0723 28.6273 30.0004 28.6273C27.9286 28.6273 26.2429 30.3129 26.2429 32.3848C26.2429 33.6921 26.9143 34.845 27.93 35.5184C26.9721 35.8158 26.0827 36.3192 25.3249 37.0045C24.9488 37.3447 24.6142 37.7215 24.3242 38.1272C23.7037 37.3542 22.8934 36.7806 21.9786 36.454C22.661 35.9173 23.1007 35.0849 23.1007 34.1512C23.1007 32.5361 21.7866 31.222 20.1714 31.222C18.5562 31.222 17.2422 32.5361 17.2422 34.1512C17.2422 35.0859 17.6828 35.9192 18.3666 36.4559C17.8733 36.6332 17.4058 36.8837 16.9763 37.2052C16.0794 37.8767 15.4039 38.8331 15.0741 39.8982C14.9217 40.3901 15.0061 40.8894 15.3118 41.3041C15.6174 41.7188 16.0694 41.947 16.5845 41.947H23.0645V42.793C23.0645 44.01 24.0546 45.0001 25.2716 45.0001H34.7292C35.9461 45.0001 36.9362 44.01 36.9363 42.793V41.9473H43.4163C43.9314 41.9473 44.3834 41.7189 44.6889 41.3044C44.9946 40.8896 45.079 40.3903 44.9266 39.8984ZM39.8294 32.1597C40.9276 32.1597 41.8211 33.0532 41.8211 34.1514C41.8211 35.2497 40.9276 36.1432 39.8294 36.1432C38.7311 36.1432 37.8376 35.2497 37.8376 34.1514C37.8376 33.0532 38.7311 32.1597 39.8294 32.1597ZM27.1804 32.3848C27.1804 30.8298 28.4455 29.5648 30.0004 29.5648C31.5554 29.5648 32.8205 30.8298 32.8205 32.3848C32.8205 33.9393 31.5562 35.2039 30.002 35.2048C30.0014 35.2048 30.0008 35.2048 30.0004 35.2048C29.9999 35.2048 29.9994 35.2048 29.9988 35.2048C28.4446 35.2039 27.1804 33.9392 27.1804 32.3848ZM20.1714 32.1595C21.2697 32.1595 22.1632 33.053 22.1632 34.1512C22.1632 35.2495 21.2697 36.143 20.1714 36.143C19.0732 36.143 18.1797 35.2495 18.1797 34.1512C18.1797 33.053 19.0732 32.1595 20.1714 32.1595ZM23.1254 41.0095H16.5845C16.3688 41.0095 16.1945 40.9215 16.0665 40.7478C15.9384 40.5741 15.9059 40.3816 15.9697 40.1755C16.543 38.3242 18.2316 37.0805 20.1714 37.0805C21.6388 37.0805 22.9755 37.7895 23.7976 38.9896C23.4726 39.621 23.245 40.3016 23.1254 41.0095ZM35.9988 42.7929C35.9987 43.493 35.4292 44.0625 34.7292 44.0625H25.2716C24.5715 44.0625 24.002 43.493 24.002 42.7929V41.5037C24.3414 38.4458 26.9151 36.143 29.9988 36.1423C29.9994 36.1423 29.9999 36.1423 30.0004 36.1423C30.001 36.1423 30.0015 36.1423 30.002 36.1423C33.0857 36.1431 35.6593 38.4458 35.9988 41.5037V42.7929ZM43.9343 40.7481C43.8063 40.9217 43.6321 41.0097 43.4163 41.0097H36.8755C36.7558 40.3018 36.5282 39.6212 36.2032 38.9897C37.0254 37.7896 38.362 37.0807 39.8294 37.0807C41.7692 37.0807 43.4578 38.3245 44.0311 40.1758C44.0949 40.3818 44.0623 40.5743 43.9343 40.7481Z" fill="black"/>
</g>
<defs>
<linearGradient id="paint0_linear_21895_164" x1="4.47035e-08" y1="30" x2="75.375" y2="30" gradientUnits="userSpaceOnUse">
<stop stop-color="#E5087B"/>
<stop offset="1" stop-color="#FDD819"/>
</linearGradient>
<clipPath id="clip0_21895_164">
<rect width="30" height="30" fill="white" transform="translate(15 15)"/>
</clipPath>
</defs>
</svg>
