<svg width="17" height="14" viewBox="0 0 17 14" fill="none" xmlns="http://www.w3.org/2000/svg">
<path id="&#239;&#130;&#134; Comments(03)" d="M11.05 4.8125C11.0146 6.17969 10.4745 7.3099 9.42969 8.20312C8.3849 9.11458 7.08333 9.58854 5.525 9.625C4.97604 9.625 4.4625 9.5612 3.98438 9.43359C3.59479 9.6888 3.11667 9.92578 2.55 10.1445C1.98333 10.3633 1.34583 10.4818 0.6375 10.5C0.371875 10.4818 0.177083 10.3542 0.053125 10.1172C-0.0354167 9.84375 0 9.60677 0.159375 9.40625C0.194792 9.38802 0.31875 9.23307 0.53125 8.94141C0.761458 8.63151 0.982813 8.25781 1.19531 7.82031C0.416146 6.96354 0.0177083 5.96094 0 4.8125C0.0354167 3.44531 0.575521 2.3151 1.62031 1.42188C2.6651 0.510417 3.96667 0.0364583 5.525 0C7.08333 0.0364583 8.3849 0.510417 9.42969 1.42188C10.4745 2.3151 11.0146 3.44531 11.05 4.8125ZM5.525 8.75C6.85313 8.71354 7.95104 8.33073 8.81875 7.60156C9.70417 6.85417 10.1646 5.92448 10.2 4.8125C10.1646 3.70052 9.71302 2.77083 8.84531 2.02344C7.9599 1.29427 6.85313 0.911458 5.525 0.875C4.19688 0.911458 3.0901 1.29427 2.20469 2.02344C1.33698 2.77083 0.885417 3.70052 0.85 4.8125C0.85 5.70573 1.1776 6.50781 1.83281 7.21875L2.23125 7.65625L1.96563 8.17578C1.68229 8.77734 1.39896 9.2513 1.11563 9.59766C1.62917 9.54297 2.08958 9.42448 2.49688 9.24219C2.90417 9.07812 3.24062 8.89583 3.50625 8.69531L3.825 8.47656L4.17031 8.58594C4.61302 8.69531 5.06458 8.75 5.525 8.75ZM16.0969 11.8945C16.274 12.1862 16.4333 12.4141 16.575 12.5781C16.7167 12.7604 16.7964 12.8698 16.8141 12.9062C16.9911 13.1068 17.0354 13.3438 16.9469 13.6172C16.8229 13.8542 16.6281 13.9818 16.3625 14C15.4948 13.9818 14.7422 13.8177 14.1047 13.5078C13.4318 13.8359 12.6969 14 11.9 14C10.6781 13.9818 9.62448 13.6354 8.73906 12.9609C7.85365 12.2865 7.26042 11.4206 6.95937 10.3633C7.24271 10.2904 7.51719 10.2083 7.78281 10.1172C8.03073 10.9922 8.52656 11.7122 9.27031 12.2773C10.0141 12.8242 10.8906 13.1068 11.9 13.125C12.5552 13.125 13.175 12.9883 13.7594 12.7148L14.1047 12.5781L14.4234 12.7148C14.9016 12.9154 15.3885 13.043 15.8844 13.0977C15.725 12.8971 15.5568 12.651 15.3797 12.3594L15.0875 11.8672L15.4328 11.375C15.9109 10.7188 16.15 9.98958 16.15 9.1875C16.1146 8.07552 15.6984 7.14583 14.9016 6.39844C14.1047 5.66927 13.1042 5.28646 11.9 5.25C11.8823 5.25 11.8734 5.25 11.8734 5.25C11.8911 5.10417 11.9 4.95833 11.9 4.8125C11.9 4.6849 11.8911 4.55729 11.8734 4.42969C11.8734 4.41146 11.8734 4.39323 11.8734 4.375C11.8734 4.375 11.8823 4.375 11.9 4.375C13.3521 4.41146 14.5562 4.88542 15.5125 5.79688C16.4688 6.6901 16.9646 7.82031 17 9.1875C16.9823 10.2083 16.6812 11.1107 16.0969 11.8945Z" fill="#3CA200"/>
</svg>
