<svg width="20" height="20" viewBox="0 0 20 20" fill="none" xmlns="http://www.w3.org/2000/svg">
<path d="M1.79375 17.8499C1.48428 17.8483 1.18796 17.7246 0.969133 17.5058C0.750305 17.2869 0.626642 16.9906 0.625 16.6812V7.06865C0.62665 6.42767 0.882012 5.81341 1.33526 5.36016C1.7885 4.90691 2.40276 4.65155 3.04375 4.6499H14.45C15.0921 4.6499 15.7079 4.90453 16.1625 5.35796C16.6171 5.81138 16.8733 6.42659 16.875 7.06865V13.4749C16.875 14.117 16.6204 14.7328 16.1669 15.1874C15.7135 15.642 15.0983 15.8982 14.4562 15.8999H4.94375C4.83571 15.9008 4.73071 15.9358 4.64375 15.9999L2.5 17.6187C2.29559 17.7697 2.04791 17.8508 1.79375 17.8499ZM3.04375 5.8999C2.73428 5.90154 2.43796 6.02521 2.21913 6.24404C2.0003 6.46286 1.87664 6.75919 1.875 7.06865V16.5249L3.89375 14.9999C4.1975 14.7743 4.56539 14.6517 4.94375 14.6499H14.45C14.7616 14.6499 15.0605 14.5261 15.2808 14.3058C15.5012 14.0854 15.625 13.7865 15.625 13.4749V7.06865C15.6234 6.75919 15.4997 6.46286 15.2809 6.24404C15.062 6.02521 14.7657 5.90154 14.4562 5.8999H3.04375Z" fill="white"/>
<path d="M11.2109 10.9561C11.5561 10.9561 11.8359 10.6762 11.8359 10.3311C11.8359 9.98588 11.5561 9.70605 11.2109 9.70605C10.8658 9.70605 10.5859 9.98588 10.5859 10.3311C10.5859 10.6762 10.8658 10.9561 11.2109 10.9561Z" fill="white"/>
<path d="M8.78906 10.9561C9.13424 10.9561 9.41406 10.6762 9.41406 10.3311C9.41406 9.98588 9.13424 9.70605 8.78906 9.70605C8.44388 9.70605 8.16406 9.98588 8.16406 10.3311C8.16406 10.6762 8.44388 10.9561 8.78906 10.9561Z" fill="white"/>
<path d="M6.28906 10.9561C6.63424 10.9561 6.91406 10.6762 6.91406 10.3311C6.91406 9.98588 6.63424 9.70605 6.28906 9.70605C5.94388 9.70605 5.66406 9.98588 5.66406 10.3311C5.66406 10.6762 5.94388 10.9561 6.28906 10.9561Z" fill="white"/>
<path d="M18.75 11.5249C18.5842 11.5249 18.4253 11.4591 18.3081 11.3418C18.1908 11.2246 18.125 11.0657 18.125 10.8999V4.56865C18.1234 4.25919 17.9997 3.96286 17.7809 3.74404C17.562 3.52521 17.2657 3.40154 16.9562 3.3999H4.375C4.20924 3.3999 4.05027 3.33405 3.93306 3.21684C3.81585 3.09963 3.75 2.94066 3.75 2.7749C3.75 2.60914 3.81585 2.45017 3.93306 2.33296C4.05027 2.21575 4.20924 2.1499 4.375 2.1499H16.9562C17.5972 2.15155 18.2115 2.40691 18.6647 2.86016C19.118 3.31341 19.3734 3.92767 19.375 4.56865V10.8999C19.375 11.0657 19.3092 11.2246 19.1919 11.3418C19.0747 11.4591 18.9158 11.5249 18.75 11.5249Z" fill="white"/>
</svg>
