<svg width="138" height="138" viewBox="0 0 138 138" fill="none" xmlns="http://www.w3.org/2000/svg">
<g clip-path="url(#clip0_21588_1768)" filter="url(#filter0_d_21588_1768)">
<path d="M69 44C57.4237 44 48 53.4167 48 65C48 76.5762 57.4237 86 69 86C80.5762 86 90 76.5762 90 65C90 53.415 80.5762 44 69 44ZM50.1175 64.9982C50.1175 62.263 50.7003 59.6643 51.752 57.3175L60.761 81.9925C54.4592 78.9282 50.1175 72.469 50.1175 64.9982ZM69 83.8825C67.145 83.8825 65.3582 83.6113 63.666 83.1108L69.3307 66.6502L75.132 82.5525C75.174 82.647 75.2178 82.7293 75.2668 82.815C73.3103 83.501 71.2015 83.8825 69 83.8825ZM71.5987 56.1538V56.152C72.7327 56.0925 73.7565 55.9753 73.7565 55.9753C74.7733 55.8562 74.6542 54.3583 73.6375 54.416C73.6375 54.416 70.5802 54.6523 68.608 54.6523C66.753 54.6523 63.6363 54.416 63.6363 54.416C62.6213 54.3565 62.504 55.9157 63.519 55.9753C63.519 55.9753 64.4832 56.0942 65.5 56.152L68.4382 64.2125L64.3065 76.6007L57.4325 56.152C58.5682 56.0925 59.592 55.9753 59.592 55.9753C60.6088 55.8562 60.4897 54.3583 59.473 54.416C59.473 54.416 56.4157 54.6523 54.4435 54.6523C54.0882 54.6523 53.6718 54.6435 53.2237 54.6278C56.603 49.5037 62.4025 46.1175 69 46.1175C73.9123 46.1175 78.3905 47.9987 81.7523 51.07C81.6665 51.0612 81.5912 51.0543 81.5072 51.0543C79.6522 51.0543 78.3398 52.6713 78.3398 54.4073C78.3398 55.9648 79.2375 57.2772 80.1947 58.8365C80.914 60.0895 81.754 61.7065 81.754 64.0445C81.754 65.6615 81.1362 67.5322 80.3138 70.1502L78.4325 76.4415L71.5987 56.1538ZM85.5725 55.9403C87.046 58.6335 87.8843 61.7153 87.8843 65.0018C87.8843 71.9703 84.1077 78.0498 78.4937 81.3188L78.492 81.317L84.2583 64.643C85.3327 61.9497 85.6985 59.8007 85.6985 57.8775C85.6985 57.1845 85.6565 56.5405 85.5725 55.9403Z" fill="black"/>
</g>
<defs>
<filter id="filter0_d_21588_1768" x="0" y="0" width="138" height="138" filterUnits="userSpaceOnUse" color-interpolation-filters="sRGB">
<feFlood flood-opacity="0" result="BackgroundImageFix"/>
<feColorMatrix in="SourceAlpha" type="matrix" values="0 0 0 0 0 0 0 0 0 0 0 0 0 0 0 0 0 0 127 0" result="hardAlpha"/>
<feOffset dy="4"/>
<feGaussianBlur stdDeviation="24"/>
<feComposite in2="hardAlpha" operator="out"/>
<feColorMatrix type="matrix" values="0 0 0 0 0 0 0 0 0 0 0 0 0 0 0 0 0 0 0.05 0"/>
<feBlend mode="normal" in2="BackgroundImageFix" result="effect1_dropShadow_21588_1768"/>
<feBlend mode="normal" in="SourceGraphic" in2="effect1_dropShadow_21588_1768" result="shape"/>
</filter>
<clipPath id="clip0_21588_1768">
<rect width="42" height="42" fill="white" transform="translate(48 44)"/>
</clipPath>
</defs>
</svg>
