<svg width="60" height="60" viewBox="0 0 60 60" fill="none" xmlns="http://www.w3.org/2000/svg">
<circle cx="30" cy="30" r="29.5" stroke="url(#paint0_linear_21893_43)" stroke-dasharray="5 5"/>
<path d="M29.8113 45L29.6788 44.8662L17 37.335L17.0489 37.1531L17.1885 22.3353L17.3698 22.2872L30.1887 15L30.3212 15.1338L43 22.6644L42.9511 22.8464L42.8115 37.6641L42.6302 37.7122L29.8113 45ZM21.7822 36.0171L29.9129 44.2583L40.3707 38.314L30.8899 40.8354L22.6949 32.5864L21.7822 36.0171ZM17.6891 37.0535L28.0326 43.197L21.1228 36.1935L24.1224 24.9259L20.714 25.8451L17.6891 37.0535ZM28.5727 37.6608L31.0679 40.1723L42.2247 37.2051L42.339 25.1172L39.7679 34.6422L28.5727 37.6608ZM22.8718 31.9227L28.0897 37.1747L35.2182 35.2522L37.1282 28.0773L31.9103 22.8248L24.7818 24.7472L22.8718 31.9227ZM31.968 16.8035L38.8778 23.8065L35.8776 35.0741L39.286 34.1549L42.3115 22.9465L31.968 16.8035ZM17.7759 22.7955L17.6616 34.8833L20.2321 25.3584L31.4273 22.3392L28.9321 19.8277L17.7759 22.7955ZM29.1101 19.1651L37.3051 27.4136L38.2184 23.9829L30.0876 15.7422L19.6298 21.6866L29.1101 19.1651Z" fill="black"/>
<defs>
<linearGradient id="paint0_linear_21893_43" x1="4.47035e-08" y1="30" x2="75.375" y2="30" gradientUnits="userSpaceOnUse">
<stop stop-color="#E5087B"/>
<stop offset="1" stop-color="#FDD819"/>
</linearGradient>
</defs>
</svg>
