<svg width="55" height="55" viewBox="0 0 55 55" fill="none" xmlns="http://www.w3.org/2000/svg">
<circle opacity="0.28" cx="27.5" cy="27.5" r="27.5" fill="#3CA200"/>
<circle cx="27.5" cy="27.5" r="22.5" fill="white"/>
<path d="M37.9609 33.6172L37.0234 37.5625C36.9062 38.1484 36.4375 38.5391 35.8516 38.5391C26.0078 38.5 18 30.4922 18 20.6484C18 20.0625 18.3516 19.5938 18.9375 19.4766L22.8828 18.5391C23.4297 18.4219 24.0156 18.7344 24.25 19.2422L26.0859 23.5C26.2812 24.0078 26.1641 24.5938 25.7344 24.9062L23.625 26.625C24.9531 29.3203 27.1406 31.5078 29.875 32.8359L31.5938 30.7266C31.9062 30.3359 32.4922 30.1797 33 30.375L37.2578 32.2109C37.7656 32.4844 38.0781 33.0703 37.9609 33.6172Z" fill="#3CA200"/>
</svg>
