<svg width="36" height="35" viewBox="0 0 36 35" fill="none" xmlns="http://www.w3.org/2000/svg">
<g clip-path="url(#clip0_11387_7465)">
<path d="M21.8608 20.7732C21.7041 20.6159 21.5179 20.491 21.3129 20.4059C21.1078 20.3207 20.888 20.2768 20.666 20.2768C20.444 20.2768 20.2242 20.3207 20.0192 20.4059C19.8141 20.491 19.6279 20.6159 19.4712 20.7732L18.6559 21.5888C17.738 21.006 16.8875 20.323 16.1201 19.5526C15.3516 18.7834 14.6691 17.9327 14.0847 17.0157L14.9 16.2001C15.0573 16.0433 15.182 15.857 15.2672 15.6519C15.3523 15.4468 15.3961 15.2268 15.3961 15.0047C15.3961 14.7826 15.3523 14.5627 15.2672 14.3576C15.182 14.1525 15.0573 13.9662 14.9 13.8094L13.3088 12.2232C13.1543 12.0653 12.9697 11.9402 12.7659 11.8551C12.5621 11.7701 12.3433 11.7269 12.1225 11.7282C11.9001 11.7276 11.6798 11.7711 11.4742 11.856C11.2687 11.941 11.082 12.0658 10.9248 12.2232L10.1602 12.9826C9.79569 13.3746 9.52366 13.8434 9.36409 14.3544C9.20452 14.8655 9.16145 15.4058 9.23805 15.9357C9.41798 18.0451 10.8011 20.5819 12.9321 22.7194C15.0631 24.8569 17.627 26.2351 19.7355 26.4376C19.8928 26.446 20.0504 26.446 20.2078 26.4376C20.6616 26.4566 21.1147 26.3848 21.5405 26.2264C21.9663 26.068 22.3562 25.8262 22.6873 25.5151L23.4464 24.7501C23.6037 24.5928 23.7285 24.406 23.8134 24.2004C23.8983 23.9948 23.9417 23.7744 23.9412 23.5519C23.9424 23.331 23.8993 23.1121 23.8143 22.9082C23.7293 22.7043 23.6042 22.5196 23.4464 22.3651L21.8608 20.7732ZM22.6536 23.9569L21.8889 24.7163C21.6062 24.952 21.2761 25.1243 20.9211 25.2213C20.5661 25.3183 20.1943 25.338 19.8311 25.2788C18.0037 25.1213 15.6759 23.8276 13.753 21.9038C11.8301 19.9801 10.5369 17.6682 10.3626 15.8401C10.3019 15.4766 10.3208 15.1044 10.4179 14.7489C10.5149 14.3935 10.6879 14.0634 10.9248 13.7813L11.7176 13.0163C11.7702 12.9642 11.8325 12.9229 11.901 12.8949C11.9695 12.8669 12.0428 12.8527 12.1168 12.8532C12.1908 12.8527 12.2642 12.8669 12.3327 12.8949C12.4012 12.9229 12.4635 12.9642 12.516 13.0163L14.1072 14.6251C14.212 14.7304 14.2707 14.873 14.2707 15.0216C14.2707 15.1702 14.212 15.3128 14.1072 15.4182L12.9827 16.5432C12.8947 16.6308 12.8382 16.745 12.8219 16.8682C12.8056 16.9913 12.8305 17.1163 12.8927 17.2238C13.566 18.3704 14.3843 19.4254 15.3273 20.3626C16.2641 21.306 17.3186 22.1246 18.4648 22.7982C18.5722 22.8604 18.6972 22.8853 18.8202 22.8691C18.9433 22.8528 19.0575 22.7962 19.1451 22.7082L20.2696 21.5832C20.375 21.4784 20.5175 21.4196 20.666 21.4196C20.8146 21.4196 20.9571 21.4784 21.0624 21.5832L22.6536 23.1751C22.7057 23.2276 22.7469 23.2899 22.7749 23.3585C22.8029 23.427 22.8171 23.5004 22.8167 23.5744C22.8131 23.7181 22.7548 23.8549 22.6536 23.9569Z" fill="white"/>
<path d="M23.6321 12.0319C22.8507 11.2472 21.9218 10.625 20.8989 10.2012C19.8759 9.77735 18.7793 9.56029 17.6721 9.56252C17.523 9.56252 17.38 9.62178 17.2745 9.72727C17.1691 9.83276 17.1099 9.97583 17.1099 10.125C17.1099 10.2742 17.1691 10.4173 17.2745 10.5228C17.38 10.6283 17.523 10.6875 17.6721 10.6875C18.6372 10.6875 19.5928 10.8787 20.4837 11.25C21.3745 11.6214 22.1831 12.1655 22.8626 12.8511C23.5422 13.5367 24.0793 14.3502 24.443 15.2445C24.8067 16.1389 24.9897 17.0964 24.9815 18.0619C24.9815 18.2111 25.0408 18.3541 25.1462 18.4596C25.2516 18.5651 25.3947 18.6244 25.5438 18.6244C25.6929 18.6244 25.8359 18.5651 25.9414 18.4596C26.0468 18.3541 26.106 18.2111 26.106 18.0619C26.1168 16.9425 25.9035 15.8322 25.4786 14.7966C25.0537 13.761 24.4259 12.8209 23.6321 12.0319Z" fill="white"/>
<path d="M20.4328 15.2494C20.7519 15.5667 21.0043 15.9447 21.1752 16.361C21.3462 16.7774 21.4321 17.2237 21.428 17.6738C21.428 17.823 21.4873 17.9661 21.5927 18.0716C21.6981 18.177 21.8412 18.2363 21.9903 18.2363C22.1394 18.2363 22.2824 18.177 22.3879 18.0716C22.4933 17.9661 22.5525 17.823 22.5525 17.6738C22.56 17.0781 22.4491 16.4869 22.2264 15.9344C22.0037 15.382 21.6736 14.8792 21.2551 14.4554C20.8367 14.0316 20.3383 13.6951 19.7889 13.4654C19.2394 13.2357 18.6499 13.1175 18.0544 13.1176C17.9053 13.1176 17.7623 13.1768 17.6569 13.2823C17.5514 13.3878 17.4922 13.5309 17.4922 13.6801C17.4922 13.8292 17.5514 13.9723 17.6569 14.0778C17.7623 14.1833 17.9053 14.2426 18.0544 14.2426C18.4976 14.2459 18.9357 14.3365 19.3438 14.5093C19.7518 14.6821 20.1219 14.9336 20.4328 15.2494Z" fill="white"/>
</g>
<path d="M34.8684 17.5C34.8684 26.889 27.2604 34.5 17.8759 34.5C8.49133 34.5 0.883301 26.889 0.883301 17.5C0.883301 8.11096 8.49133 0.5 17.8759 0.5C27.2604 0.5 34.8684 8.11096 34.8684 17.5Z" stroke="white"/>
<defs>
<clipPath id="clip0_11387_7465">
<rect width="17.9924" height="18" fill="white" transform="translate(8.67578 9)"/>
</clipPath>
</defs>
</svg>
