<svg width="50" height="50" viewBox="0 0 50 50" fill="none" xmlns="http://www.w3.org/2000/svg">
<g clip-path="url(#clip0_21540_1577)">
<path d="M34.8015 34.8319C33.9413 33.3423 32.5531 32.2769 30.8918 31.8317C29.2301 31.3865 27.4952 31.6154 26.006 32.4752L23.1591 34.1186C22.1028 34.7286 20.7764 34.4367 20.0737 33.4392C17.3104 29.5154 14.8869 25.3173 12.8701 20.9621C12.3577 19.8551 12.7678 18.5604 13.8245 17.9504L15.7414 16.8438C15.7414 16.8434 15.7414 16.8434 15.7414 16.8434L16.671 16.307C18.1607 15.4472 19.2261 14.0586 19.6713 12.3973C20.1161 10.736 19.888 9.00074 19.0277 7.51148L16.5863 3.28213C14.811 0.20749 10.8654 -0.849944 7.79042 0.925415C4.60858 2.76219 2.16985 5.67738 0.923206 9.13349C-0.323436 12.5896 -0.307033 16.3902 0.969364 19.8352C4.27403 28.7536 9.0279 36.9876 15.099 44.3088C17.4443 47.1366 20.7276 49.0512 24.3439 49.6997C25.2545 49.863 26.1727 49.9435 27.0886 49.9435C29.81 49.9435 32.5054 49.2309 34.8862 47.8564C36.3754 46.9966 37.4413 45.6081 37.8861 43.9468C38.3312 42.2855 38.1027 40.5502 37.2429 39.0609L34.8015 34.8319ZM16.5989 43.0648C10.6682 35.9134 6.0246 27.8701 2.7966 19.1581C0.479939 12.9055 2.98962 5.94708 8.76469 2.61265C9.47003 2.20563 10.241 2.01222 11.0024 2.01222C12.5553 2.01222 14.0679 2.8175 14.8987 4.25641L17.3401 8.48538C18.5784 10.6296 17.841 13.3812 15.6968 14.6194L15.6109 14.669L11.8584 8.16952C11.5895 7.70374 10.9936 7.54391 10.5275 7.81284C10.0613 8.08216 9.90185 8.67802 10.1708 9.14379L13.9233 15.6433L12.8498 16.2628C10.9143 17.3801 10.1628 19.7525 11.102 21.7807C13.1676 26.2416 15.6502 30.5416 18.4807 34.5611C19.7674 36.388 22.1974 36.9235 24.1333 35.8062L25.2068 35.1863L32.0618 47.0607C26.6518 49.1885 20.4121 47.6627 16.5989 43.0648ZM33.9119 46.1688C33.8833 46.1856 33.8543 46.2013 33.8253 46.2177L26.894 34.2121L26.9802 34.1625C28.019 33.5628 29.229 33.4033 30.3875 33.7139C31.546 34.0244 32.5142 34.7675 33.1139 35.8062L35.5557 40.0352C36.7935 42.1794 36.0561 44.931 33.9119 46.1688Z" fill="url(#paint0_linear_21540_1577)"/>
<path d="M10.3255 5.77505C10.3255 5.51909 10.2214 5.2677 10.0402 5.0865C9.85896 4.90492 9.60834 4.80078 9.35123 4.80078C9.09526 4.80078 8.84387 4.90492 8.66267 5.0865C8.48148 5.2677 8.37695 5.51909 8.37695 5.77505C8.37695 6.0314 8.48109 6.28279 8.66267 6.46399C8.84387 6.64519 9.09526 6.74933 9.35123 6.74933C9.60872 6.74933 9.85896 6.64519 10.0402 6.46399C10.2214 6.28279 10.3255 6.0314 10.3255 5.77505Z" fill="url(#paint1_linear_21540_1577)"/>
<path d="M22.4098 25.9772H26.516C27.0538 25.9772 27.4902 25.5408 27.4902 25.0025C27.4902 24.4646 27.0538 24.0282 26.516 24.0282H23.3841V23.136C23.3841 22.6443 23.7843 22.2441 24.276 22.2441H24.6494C26.2157 22.2441 27.4902 20.9696 27.4902 19.4033C27.4902 17.8366 26.2157 16.5625 24.6494 16.5625H22.4098C21.8716 16.5625 21.4355 16.9985 21.4355 17.5368C21.4355 18.0746 21.8716 18.511 22.4098 18.511H24.6494C25.1415 18.511 25.5417 18.9112 25.5417 19.4033C25.5417 19.8954 25.1415 20.2956 24.6494 20.2956H24.276C22.7097 20.2956 21.4355 21.5697 21.4355 23.136V25.0025C21.4355 25.5408 21.8716 25.9772 22.4098 25.9772Z" fill="url(#paint2_linear_21540_1577)"/>
<path d="M29.8239 16.2319C29.2856 16.2319 28.8496 16.6683 28.8496 17.2062V20.0207C28.8496 21.2704 29.8662 22.287 31.1159 22.287H32.9557V25.0008C32.9557 25.5386 33.3921 25.975 33.93 25.975C34.4679 25.975 34.9043 25.5386 34.9043 25.0008V17.2062C34.9043 16.6683 34.4679 16.2319 33.93 16.2319C33.3921 16.2319 32.9557 16.6683 32.9557 17.2062V20.3381H31.1159C30.9404 20.3381 30.7982 20.1958 30.7982 20.0207V17.2062C30.7982 16.6683 30.3618 16.2319 29.8239 16.2319Z" fill="url(#paint3_linear_21540_1577)"/>
<path d="M42.2598 25.0004V22.9473C42.2598 21.278 40.9017 19.92 39.2324 19.92C38.8525 19.92 38.4889 19.9909 38.1536 20.1195V17.2066C38.1536 16.6683 37.7172 16.2319 37.1794 16.2319C36.6415 16.2319 36.2051 16.6683 36.2051 17.2066V25.0008C36.2051 25.5386 36.6415 25.975 37.1794 25.975C37.7172 25.975 38.1536 25.5386 38.1536 25.0008V22.9473C38.1536 22.3526 38.6377 21.8685 39.2324 21.8685C39.8271 21.8685 40.3112 22.3526 40.3112 22.9473V25.0004C40.3112 25.5386 40.7476 25.975 41.2855 25.975C41.8237 25.975 42.2598 25.5386 42.2598 25.0004Z" fill="url(#paint4_linear_21540_1577)"/>
<path d="M25.0583 2.0086L25.1757 2.00899H25.1803C25.7163 2.00899 26.1523 1.57564 26.1546 1.03929C26.1573 0.501037 25.7228 0.0627289 25.1849 0.06044L25.0583 0.0600586C24.5204 0.0600586 24.084 0.496078 24.084 1.03433C24.084 1.5722 24.52 2.0086 25.0583 2.0086Z" fill="url(#paint5_linear_21540_1577)"/>
<path d="M43.9996 8.77526C40.1727 4.31207 34.887 1.33394 29.1162 0.389422C28.584 0.302447 28.0839 0.662554 27.9973 1.19318C27.9104 1.72418 28.2705 2.22543 28.8015 2.31203C39.9552 4.13812 48.0508 13.6806 48.0508 25.0022C48.0508 31.1439 45.659 36.9182 41.3163 41.2608C40.9356 41.6411 40.9356 42.258 41.3163 42.6387C41.5067 42.829 41.7558 42.924 42.0053 42.924C42.2544 42.924 42.5038 42.829 42.6942 42.6387C47.405 37.9279 49.9993 31.6646 49.9993 25.0022C49.9993 19.0505 47.8685 13.2877 43.9996 8.77526Z" fill="url(#paint6_linear_21540_1577)"/>
</g>
<defs>
<linearGradient id="paint0_linear_21540_1577" x1="59.0678" y1="25.0037" x2="0.000293145" y2="25.136" gradientUnits="userSpaceOnUse">
<stop stop-color="#9708CC"/>
<stop offset="1" stop-color="#43CBFF"/>
</linearGradient>
<linearGradient id="paint1_linear_21540_1577" x1="11.3972" y1="5.77505" x2="8.37698" y2="5.78391" gradientUnits="userSpaceOnUse">
<stop stop-color="#9708CC"/>
<stop offset="1" stop-color="#43CBFF"/>
</linearGradient>
<linearGradient id="paint2_linear_21540_1577" x1="30.8203" y1="21.2698" x2="21.4356" y2="21.2875" gradientUnits="userSpaceOnUse">
<stop stop-color="#9708CC"/>
<stop offset="1" stop-color="#43CBFF"/>
</linearGradient>
<linearGradient id="paint3_linear_21540_1577" x1="38.2344" y1="21.1035" x2="28.8496" y2="21.1206" gradientUnits="userSpaceOnUse">
<stop stop-color="#9708CC"/>
<stop offset="1" stop-color="#43CBFF"/>
</linearGradient>
<linearGradient id="paint4_linear_21540_1577" x1="45.5898" y1="21.1035" x2="36.2051" y2="21.1206" gradientUnits="userSpaceOnUse">
<stop stop-color="#9708CC"/>
<stop offset="1" stop-color="#43CBFF"/>
</linearGradient>
<linearGradient id="paint5_linear_21540_1577" x1="27.2935" y1="1.03452" x2="24.084" y2="1.04452" gradientUnits="userSpaceOnUse">
<stop stop-color="#9708CC"/>
<stop offset="1" stop-color="#43CBFF"/>
</linearGradient>
<linearGradient id="paint6_linear_21540_1577" x1="62.1076" y1="21.6502" x2="27.9845" y2="21.702" gradientUnits="userSpaceOnUse">
<stop stop-color="#9708CC"/>
<stop offset="1" stop-color="#43CBFF"/>
</linearGradient>
<clipPath id="clip0_21540_1577">
<rect width="50" height="50" fill="white"/>
</clipPath>
</defs>
</svg>
