<svg width="149" height="149" viewBox="0 0 149 149" fill="none" xmlns="http://www.w3.org/2000/svg">
<path d="M137.585 0H12.0186C5.71423 0 0.603516 5.11071 0.603516 11.4151V136.981C0.603516 143.286 5.71423 148.396 12.0186 148.396H137.585C143.889 148.396 149 143.286 149 136.981V11.4151C149 5.11071 143.889 0 137.585 0Z" fill="url(#paint0_linear_21565_2757)"/>
<path d="M84.9885 72.018L66.4687 61.069C66.0861 60.838 65.6487 60.7132 65.2018 60.7077C64.7549 60.7022 64.3146 60.8161 63.9264 61.0376C63.5382 61.2591 63.2162 61.5803 62.9936 61.9679C62.771 62.3555 62.656 62.7954 62.6603 63.2424V85.1389C62.6598 85.5844 62.7773 86.022 63.0007 86.4073C63.2242 86.7927 63.5457 87.112 63.9326 87.3328C64.3195 87.5535 64.758 87.6679 65.2034 87.6643C65.6489 87.6607 66.0854 87.5393 66.4687 87.3122L84.9885 76.37C85.3664 76.1471 85.6796 75.8294 85.8971 75.4483C86.1147 75.0673 86.2292 74.6362 86.2292 74.1974C86.2292 73.7586 86.1147 73.3274 85.8971 72.9464C85.6796 72.5654 85.3664 72.2477 84.9885 72.0247V72.018Z" fill="white"/>
<defs>
<linearGradient id="paint0_linear_21565_2757" x1="230.618" y1="74.1981" x2="0.60548" y2="74.8723" gradientUnits="userSpaceOnUse">
<stop stop-color="#9708CC"/>
<stop offset="1" stop-color="#43CBFF"/>
</linearGradient>
</defs>
</svg>
