<svg width="60" height="60" viewBox="0 0 60 60" fill="none" xmlns="http://www.w3.org/2000/svg">
<circle opacity="0.4" cx="29.9985" cy="30.0015" r="24" fill="#3CA200"/>
<circle opacity="0.4" cx="30" cy="30" r="30" fill="#16171A"/>
<circle opacity="0.5" cx="29.6108" cy="29.6255" r="17" fill="#3CA200"/>
<g clip-path="url(#clip0_11387_7254)">
<path d="M34.6733 29.3414L25.502 24.1765C25.3243 24.0767 25.1077 24.0789 24.9323 24.1811C24.7557 24.2844 24.6479 24.4726 24.6479 24.6769V35.0068C24.6479 35.2111 24.7557 35.3993 24.9323 35.5026C25.0217 35.5543 25.1214 35.5807 25.2212 35.5807C25.3175 35.5807 25.4149 35.5566 25.502 35.5072L34.6733 30.3423C34.8533 30.2401 34.9657 30.0496 34.9657 29.8419C34.9657 29.6341 34.8533 29.4436 34.6733 29.3414Z" fill="white"/>
</g>
<defs>
<clipPath id="clip0_11387_7254">
<rect width="11.4642" height="11.4777" fill="white" transform="translate(24.0747 24.103)"/>
</clipPath>
</defs>
</svg>
