<svg width="13" height="10" viewBox="0 0 13 10" fill="none" xmlns="http://www.w3.org/2000/svg">
<path d="M12.1615 10C11.953 10 11.7721 9.92334 11.6187 9.77002C11.4654 9.61669 11.3888 9.43578 11.3888 9.22726V7.11141C11.3888 6.51039 11.1772 5.9983 10.754 5.57513C10.3308 5.15196 9.81874 4.94038 9.21772 4.94038H2.63101L4.71005 7.01942C4.85724 7.16661 4.93083 7.3414 4.93083 7.54378C4.93083 7.74617 4.85111 7.92709 4.69165 8.08654C4.54446 8.23373 4.36354 8.30733 4.14889 8.30733C3.93424 8.30733 3.75332 8.23373 3.60613 8.08654L0.239182 4.71959C0.153322 4.63373 0.0919932 4.5448 0.0551959 4.45281C0.0183986 4.36082 0 4.26576 0 4.16763C0 4.06951 0.0183986 3.97445 0.0551959 3.88245C0.0919932 3.79046 0.153322 3.70153 0.239182 3.61567L3.62453 0.230324C3.77172 0.0831346 3.94957 0.0064736 4.15809 0.000340716C4.36661 -0.00579216 4.5506 0.0708688 4.71005 0.230324C4.85724 0.377513 4.93083 0.558433 4.93083 0.773084C4.93083 0.987734 4.85724 1.16865 4.71005 1.31584L2.63101 3.39489H9.21772C10.248 3.39489 11.125 3.75673 11.8487 4.48041C12.5724 5.20409 12.9342 6.08109 12.9342 7.11141V9.22726C12.9342 9.43578 12.8576 9.61669 12.7043 9.77002C12.5509 9.92334 12.37 10 12.1615 10Z" fill="#6B7280"/>
</svg>
