<svg width="180" height="180" viewBox="0 0 180 180" fill="none" xmlns="http://www.w3.org/2000/svg">
<g clip-path="url(#clip0_21496_2812)" filter="url(#filter0_d_21496_2812)">
<path d="M90 55C73.4625 55 60 68.4525 60 85C60 101.537 73.4625 115 90 115C106.537 115 120 101.537 120 85C120 68.45 106.537 55 90 55ZM63.025 84.9975C63.025 81.09 63.8575 77.3775 65.36 74.025L78.23 109.275C69.2275 104.897 63.025 95.67 63.025 84.9975ZM90 111.975C87.35 111.975 84.7975 111.588 82.38 110.873L90.4725 87.3575L98.76 110.075C98.82 110.21 98.8825 110.327 98.9525 110.45C96.1575 111.43 93.145 111.975 90 111.975ZM93.7125 72.3625V72.36C95.3325 72.275 96.795 72.1075 96.795 72.1075C98.2475 71.9375 98.0775 69.7975 96.625 69.88C96.625 69.88 92.2575 70.2175 89.44 70.2175C86.79 70.2175 82.3375 69.88 82.3375 69.88C80.8875 69.795 80.72 72.0225 82.17 72.1075C82.17 72.1075 83.5475 72.2775 85 72.36L89.1975 83.875L83.295 101.572L73.475 72.36C75.0975 72.275 76.56 72.1075 76.56 72.1075C78.0125 71.9375 77.8425 69.7975 76.39 69.88C76.39 69.88 72.0225 70.2175 69.205 70.2175C68.6975 70.2175 68.1025 70.205 67.4625 70.1825C72.29 62.8625 80.575 58.025 90 58.025C97.0175 58.025 103.415 60.7125 108.218 65.1C108.095 65.0875 107.987 65.0775 107.868 65.0775C105.217 65.0775 103.342 67.3875 103.342 69.8675C103.342 72.0925 104.625 73.9675 105.993 76.195C107.02 77.985 108.22 80.295 108.22 83.635C108.22 85.945 107.338 88.6175 106.162 92.3575L103.475 101.345L93.7125 72.3625ZM113.675 72.0575C115.78 75.905 116.978 80.3075 116.978 85.0025C116.978 94.9575 111.582 103.643 103.562 108.312L103.56 108.31L111.798 84.49C113.333 80.6425 113.855 77.5725 113.855 74.825C113.855 73.835 113.795 72.915 113.675 72.0575Z" fill="black"/>
</g>
<defs>
<filter id="filter0_d_21496_2812" x="0" y="0" width="180" height="180" filterUnits="userSpaceOnUse" color-interpolation-filters="sRGB">
<feFlood flood-opacity="0" result="BackgroundImageFix"/>
<feColorMatrix in="SourceAlpha" type="matrix" values="0 0 0 0 0 0 0 0 0 0 0 0 0 0 0 0 0 0 127 0" result="hardAlpha"/>
<feOffset dy="5"/>
<feGaussianBlur stdDeviation="30"/>
<feComposite in2="hardAlpha" operator="out"/>
<feColorMatrix type="matrix" values="0 0 0 0 0 0 0 0 0 0 0 0 0 0 0 0 0 0 0.05 0"/>
<feBlend mode="normal" in2="BackgroundImageFix" result="effect1_dropShadow_21496_2812"/>
<feBlend mode="normal" in="SourceGraphic" in2="effect1_dropShadow_21496_2812" result="shape"/>
</filter>
<clipPath id="clip0_21496_2812">
<rect width="60" height="60" fill="white" transform="translate(60 55)"/>
</clipPath>
</defs>
</svg>
