<svg width="180" height="180" viewBox="0 0 180 180" fill="none" xmlns="http://www.w3.org/2000/svg">
<g clip-path="url(#clip0_21496_2850)" filter="url(#filter0_d_21496_2850)">
<path d="M87.6578 101.888L75.433 107.836C74.9315 108.08 74.3644 107.654 74.4587 107.104L76.7673 93.6447C76.8055 93.4225 76.7317 93.196 76.5705 93.0387L64.0576 80.8416C63.6519 80.4462 63.8747 79.7572 64.4352 79.6741L81.8559 77.0941C82.0828 77.0604 82.2777 76.9157 82.3752 76.7082L92.1342 55.9472C92.378 55.4281 93.1139 55.4211 93.3676 55.9353L102.413 74.2629C102.512 74.4649 102.705 74.6051 102.928 74.6374L123.187 77.5815C123.749 77.6631 123.973 78.3531 123.567 78.7493L108.907 93.0389C108.745 93.1962 108.672 93.4229 108.71 93.6449L112.165 113.788C112.262 114.353 111.662 114.78 111.16 114.503L88.2876 101.904C88.0927 101.796 87.8579 101.79 87.6578 101.888Z" fill="#E0E0E0"/>
<path d="M90.053 102.98C89.5647 102.723 89.0133 102.587 88.4601 102.587C87.9069 102.587 87.3553 102.723 86.8658 102.981L71.9759 110.809L74.8197 94.2274C75.0102 93.1158 74.6421 91.9828 73.8346 91.1966L61.7881 79.4542L79.4372 76.8895C79.9205 76.8192 80.3297 76.497 80.5114 76.0437L88.4601 56.208L98.4447 74.2475L119.954 78.013L105.084 92.8116L107.217 113.938L90.053 102.98Z" fill="#FBC02D"/>
<path d="M70.0306 115C69.6917 115 69.3549 114.894 69.0671 114.684C68.5579 114.315 68.3076 113.7 68.4139 113.079L71.7872 93.4102L57.4969 79.4806C57.0462 79.0411 56.8871 78.3962 57.0816 77.7975C57.2763 77.1989 57.784 76.7708 58.407 76.6804L78.1554 73.8104L86.9874 55.9151C87.2661 55.3507 87.8301 55 88.4597 55C89.0893 55 89.6534 55.3507 89.9321 55.9155L98.7641 73.8106L118.513 76.6806C119.135 76.771 119.643 77.1991 119.838 77.7977C120.032 78.3964 119.873 79.0413 119.423 79.4808L105.132 93.4104L108.506 113.079C108.612 113.7 108.362 114.315 107.852 114.685C107.343 115.055 106.68 115.103 106.123 114.81L88.4597 105.524L70.7961 114.81C70.5538 114.937 70.2915 115 70.0306 115ZM88.4597 104.298C88.7336 104.298 89.0071 104.364 89.2568 104.495L107.217 113.938L103.787 93.9378C103.692 93.3821 103.876 92.8158 104.28 92.4225L118.81 78.259L98.7291 75.3408C98.1714 75.2595 97.6897 74.9096 97.4402 74.4041L88.4597 56.2079L79.4795 74.4044C79.23 74.9096 78.7484 75.2595 78.1908 75.3408L58.1097 78.259L72.6404 92.4227C73.0438 92.8158 73.228 93.3821 73.1326 93.9378L69.7023 113.938L87.6633 104.495L87.6627 104.495C87.9124 104.364 88.1861 104.298 88.4597 104.298ZM88.6196 106.313L88.619 106.313C88.619 106.313 88.6192 106.313 88.6196 106.313Z" fill="#212121"/>
<path d="M98.4809 89.3673C98.3501 89.5006 98.3186 89.705 98.4202 89.8618C98.7208 90.3259 98.9112 91.3531 98.0472 91.9904C97.7755 92.1909 97.5988 92.5002 97.6545 92.8345C97.7938 93.6368 97.8161 95.0102 96.4539 95.2581H88.902C87.7403 95.2581 86.6121 94.9544 85.5453 94.4977C85.2254 94.3626 84.7521 94.066 84.0447 94.0372C83.7677 94.026 83.5396 93.7929 83.5396 93.5156V85.8702C83.5396 85.5826 83.7728 85.3494 84.0604 85.3494C84.7388 85.3494 85.4896 84.8452 85.8991 84.0344C86.2639 83.313 86.6512 82.3018 87.1332 81.129C87.3645 80.5691 87.3645 80.5691 87.9327 79.9534C87.9523 79.9312 87.9941 79.8977 88.019 79.8837L88.1499 79.7527C89.1805 78.8223 89.5595 78.2903 89.9187 76.9977C90.0747 76.4434 90.164 75.9392 90.3449 75.5214C90.3476 75.5101 90.3505 75.5018 90.3561 75.4908C90.3589 75.4824 90.3645 75.4739 90.3672 75.4656C90.6347 74.903 91.2503 74.6494 91.8186 74.7719C91.8352 74.7748 91.8548 74.7803 91.8714 74.7859C92.0443 74.8304 92.2142 74.9084 92.3646 75.0282C93.1446 75.6326 93.8244 76.9894 92.2086 79.9532C92.2086 79.9532 91.7559 81.0278 91.8473 82.0029C91.8846 82.4018 92.2378 82.6972 92.6383 82.6972H96.7324C97.532 82.6972 98.2812 83.1178 98.713 83.753C98.8384 83.9341 98.9331 84.1347 98.9971 84.3464C99.0585 84.5386 99.0891 84.742 99.0891 84.9509C99.0891 85.408 98.9524 85.8741 98.5708 86.2829C98.4008 86.4648 98.3848 86.7404 98.5344 86.9392C98.9164 87.4465 99.4065 88.4243 98.4809 89.3673Z" fill="white"/>
<path d="M82.7538 84.5776H77.993C77.903 84.5776 77.8301 84.6506 77.8301 84.7406V94.7635C77.8301 94.8535 77.903 94.9265 77.993 94.9265H82.7538C82.8438 94.9265 82.9167 94.8535 82.9167 94.7635V84.7404C82.9167 84.6504 82.8438 84.5776 82.7538 84.5776Z" fill="white"/>
</g>
<defs>
<filter id="filter0_d_21496_2850" x="0" y="0" width="180" height="180" filterUnits="userSpaceOnUse" color-interpolation-filters="sRGB">
<feFlood flood-opacity="0" result="BackgroundImageFix"/>
<feColorMatrix in="SourceAlpha" type="matrix" values="0 0 0 0 0 0 0 0 0 0 0 0 0 0 0 0 0 0 127 0" result="hardAlpha"/>
<feOffset dy="5"/>
<feGaussianBlur stdDeviation="30"/>
<feComposite in2="hardAlpha" operator="out"/>
<feColorMatrix type="matrix" values="0 0 0 0 0 0 0 0 0 0 0 0 0 0 0 0 0 0 0.05 0"/>
<feBlend mode="normal" in2="BackgroundImageFix" result="effect1_dropShadow_21496_2850"/>
<feBlend mode="normal" in="SourceGraphic" in2="effect1_dropShadow_21496_2850" result="shape"/>
</filter>
<clipPath id="clip0_21496_2850">
<rect width="60" height="60" fill="white" transform="translate(60 55)"/>
</clipPath>
</defs>
</svg>
