<svg width="41" height="41" viewBox="0 0 41 41" fill="none" xmlns="http://www.w3.org/2000/svg">
<g clip-path="url(#clip0_21900_1080)">
<mask id="mask0_21900_1080" style="mask-type:luminance" maskUnits="userSpaceOnUse" x="0" y="0" width="41" height="41">
<path d="M0.332031 0.333012H40.332V40.333H0.332031V0.333012Z" fill="white"/>
</mask>
<g mask="url(#mask0_21900_1080)">
<path d="M1.11328 12.4678H13.3707H36.7007" stroke="white" stroke-width="1.57625" stroke-miterlimit="10" stroke-linecap="round" stroke-linejoin="round"/>
<path d="M7.63703 9.14355C8.66016 9.14355 9.495 8.31137 9.495 7.28879C9.495 6.26621 8.66016 5.43402 7.63703 5.43402C6.61617 5.43402 5.78125 6.26621 5.78125 7.28879C5.78125 8.31137 6.61617 9.14355 7.63703 9.14355Z" stroke="white" stroke-width="1.57625" stroke-miterlimit="10" stroke-linecap="round" stroke-linejoin="round"/>
<path d="M23.7659 5.43354H30.755C31.7759 5.43354 32.6108 6.26799 32.6108 7.2883C32.6108 8.30869 31.7759 9.14307 30.755 9.14307H23.7659C22.7451 9.14307 21.9102 8.30869 21.9102 7.2883C21.9102 6.26799 22.7451 5.43354 23.7659 5.43354Z" stroke="white" stroke-width="1.57625" stroke-miterlimit="10" stroke-linecap="round" stroke-linejoin="round"/>
<path d="M14.4886 9.14355C15.5117 9.14355 16.3466 8.31137 16.3466 7.28879C16.3466 6.26621 15.5117 5.43402 14.4886 5.43402C13.4677 5.43402 12.6328 6.26621 12.6328 7.28879C12.6328 8.31137 13.4677 9.14355 14.4886 9.14355Z" stroke="white" stroke-width="1.57625" stroke-miterlimit="10" stroke-linecap="round" stroke-linejoin="round"/>
<path d="M13.0205 18.4768L11.457 25.0195" stroke="white" stroke-width="1.57625" stroke-miterlimit="10" stroke-linecap="round" stroke-linejoin="round"/>
<path d="M16.6211 24.4287L18.8334 21.9453C18.9308 21.8368 18.9308 21.6598 18.8334 21.5514L16.6211 19.0679" stroke="white" stroke-width="1.57625" stroke-miterlimit="10" stroke-linecap="round" stroke-linejoin="round"/>
<path d="M7.8557 24.4287L5.64344 21.9453C5.54594 21.8368 5.54594 21.6598 5.64344 21.5514L7.8557 19.0679" stroke="white" stroke-width="1.57625" stroke-miterlimit="10" stroke-linecap="round" stroke-linejoin="round"/>
<path d="M31.9342 21.9299C32.789 22.1203 33.5884 22.4567 34.3082 22.9082L34.9482 22.2707C35.3269 21.89 35.9491 21.89 36.3301 22.2707L37.3377 23.2779C37.7185 23.6586 37.7185 24.2805 37.3377 24.659L36.6998 25.2986C37.1495 26.0114 37.4816 26.8038 37.6743 27.6493H38.5711C39.1093 27.6493 39.5499 28.0897 39.5499 28.6254V30.053C39.5499 30.5886 39.1093 31.029 38.5711 31.029H37.6698C37.4771 31.8701 37.145 32.6581 36.6998 33.3664L37.3377 34.0038C37.7185 34.3845 37.7185 35.0064 37.3377 35.385L36.3301 36.3943C35.9491 36.775 35.3269 36.775 34.9482 36.3943L34.3082 35.7568C33.5973 36.2039 32.8067 36.5359 31.9608 36.7285V37.6359C31.9608 38.1738 31.5201 38.6143 30.9842 38.6143H29.5559C29.0198 38.6143 28.5792 38.1738 28.5792 37.6359V36.7263C27.7377 36.5359 26.9471 36.2017 26.2362 35.7568L25.5984 36.3943C25.2175 36.775 24.5953 36.775 24.2166 36.3943L23.2068 35.385C22.828 35.0064 22.828 34.3845 23.2068 34.0038L23.8467 33.3664C23.3995 32.6581 23.0673 31.8701 22.8746 31.029H21.9688C21.4308 31.029 20.9922 30.5886 20.9922 30.053V28.6254C20.9922 28.0897 21.4308 27.6493 21.9688 27.6493H22.8724C23.0628 26.8126 23.3906 26.0291 23.8312 25.323L23.1891 24.6789C22.8082 24.3004 22.8082 23.6785 23.1891 23.2978L24.1966 22.2907C24.5776 21.91 25.1998 21.91 25.5785 22.2907L26.2141 22.9237C26.9228 22.4744 27.7111 22.1401 28.5527 21.9432V21.0424C28.5527 20.5045 28.9911 20.064 29.5292 20.064H30.9554C31.4935 20.064 31.9342 20.5045 31.9342 21.0424V21.9299Z" stroke="white" stroke-width="1.57625" stroke-miterlimit="10" stroke-linecap="round" stroke-linejoin="round"/>
<path d="M30.2705 25.3143C32.4938 25.3143 34.2965 27.116 34.2965 29.3404C34.2965 31.5626 32.4938 33.3643 30.2705 33.3643C28.0449 33.3643 26.2422 31.5626 26.2422 29.3404C26.2422 27.116 28.0449 25.3143 30.2705 25.3143Z" stroke="white" stroke-width="1.57625" stroke-miterlimit="10" stroke-linecap="round" stroke-linejoin="round"/>
<path d="M8.64711 31.0293H4.02312C2.42437 31.0293 1.11328 29.4645 1.11328 27.5544V5.52695C1.11328 3.61469 2.42203 2.05203 4.02312 2.05203H7.39367H33.7909C35.392 2.05203 36.7007 3.61688 36.7007 5.52695V22.6407M21.9697 31.0293H15.6295" stroke="white" stroke-width="1.57625" stroke-miterlimit="10" stroke-linecap="round" stroke-linejoin="round"/>
<path d="M12.1445 31.0293H12.16" stroke="white" stroke-width="1.57625" stroke-miterlimit="10" stroke-linecap="round" stroke-linejoin="round"/>
</g>
</g>
<defs>
<clipPath id="clip0_21900_1080">
<rect width="40" height="40" fill="white" transform="translate(0.332031 0.333496)"/>
</clipPath>
</defs>
</svg>
