<svg width="40" height="40" viewBox="0 0 40 40" fill="none" xmlns="http://www.w3.org/2000/svg">
<path d="M11.3333 40H28.6667C29.5504 39.9989 30.3976 39.6474 31.0225 39.0225C31.6474 38.3976 31.9989 37.5504 32 36.6667V3.33333C31.9989 2.4496 31.6474 1.60237 31.0225 0.97748C30.3976 0.352588 29.5504 0.00105857 28.6667 0L11.3333 0C10.4496 0.00105857 9.60237 0.352588 8.97748 0.97748C8.35259 1.60237 8.00106 2.4496 8 3.33333V36.6667C8.00106 37.5504 8.35259 38.3976 8.97748 39.0225C9.60237 39.6474 10.4496 39.9989 11.3333 40ZM16 1.33333H24V2C24 2.17681 23.9298 2.34638 23.8047 2.4714C23.6797 2.59643 23.5101 2.66667 23.3333 2.66667H16.6667C16.4899 2.66667 16.3203 2.59643 16.1953 2.4714C16.0702 2.34638 16 2.17681 16 2V1.33333ZM9.33333 3.33333C9.33333 2.8029 9.54405 2.29419 9.91912 1.91912C10.2942 1.54405 10.8029 1.33333 11.3333 1.33333H14.6667V2C14.6667 2.53043 14.8774 3.03914 15.2525 3.41421C15.6275 3.78929 16.1362 4 16.6667 4H23.3333C23.8638 4 24.3725 3.78929 24.7475 3.41421C25.1226 3.03914 25.3333 2.53043 25.3333 2V1.33333H28.6667C29.1971 1.33333 29.7058 1.54405 30.0809 1.91912C30.456 2.29419 30.6667 2.8029 30.6667 3.33333V36.6667C30.6667 37.1971 30.456 37.7058 30.0809 38.0809C29.7058 38.456 29.1971 38.6667 28.6667 38.6667H11.3333C10.8029 38.6667 10.2942 38.456 9.91912 38.0809C9.54405 37.7058 9.33333 37.1971 9.33333 36.6667V3.33333Z" fill="white"/>
<path d="M12.0003 13.3333H14.667C15.0206 13.3333 15.3598 13.1929 15.6098 12.9428C15.8598 12.6928 16.0003 12.3536 16.0003 12V9.33333C16.0003 8.97971 15.8598 8.64057 15.6098 8.39052C15.3598 8.14048 15.0206 8 14.667 8H12.0003C11.6467 8 11.3076 8.14048 11.0575 8.39052C10.8075 8.64057 10.667 8.97971 10.667 9.33333V12C10.667 12.3536 10.8075 12.6928 11.0575 12.9428C11.3076 13.1929 11.6467 13.3333 12.0003 13.3333ZM12.0003 9.33333H14.667V12H12.0003V9.33333Z" fill="white"/>
<path d="M18.6663 13.3333H21.333C21.6866 13.3333 22.0258 13.1929 22.2758 12.9428C22.5259 12.6928 22.6663 12.3536 22.6663 12V9.33333C22.6663 8.97971 22.5259 8.64057 22.2758 8.39052C22.0258 8.14048 21.6866 8 21.333 8H18.6663C18.3127 8 17.9736 8.14048 17.7235 8.39052C17.4735 8.64057 17.333 8.97971 17.333 9.33333V12C17.333 12.3536 17.4735 12.6928 17.7235 12.9428C17.9736 13.1929 18.3127 13.3333 18.6663 13.3333ZM18.6663 9.33333H21.333V12H18.6663V9.33333Z" fill="white"/>
<path d="M25.3333 13.3333H28C28.3536 13.3333 28.6928 13.1929 28.9428 12.9428C29.1929 12.6928 29.3333 12.3536 29.3333 12V9.33333C29.3333 8.97971 29.1929 8.64057 28.9428 8.39052C28.6928 8.14048 28.3536 8 28 8H25.3333C24.9797 8 24.6406 8.14048 24.3905 8.39052C24.1405 8.64057 24 8.97971 24 9.33333V12C24 12.3536 24.1405 12.6928 24.3905 12.9428C24.6406 13.1929 24.9797 13.3333 25.3333 13.3333ZM25.3333 9.33333H28V12H25.3333V9.33333Z" fill="white"/>
<path d="M12.0003 20.6668H14.667C15.0206 20.6668 15.3598 20.5264 15.6098 20.2763C15.8598 20.0263 16.0003 19.6871 16.0003 19.3335V16.6668C16.0003 16.3132 15.8598 15.9741 15.6098 15.724C15.3598 15.474 15.0206 15.3335 14.667 15.3335H12.0003C11.6467 15.3335 11.3076 15.474 11.0575 15.724C10.8075 15.9741 10.667 16.3132 10.667 16.6668V19.3335C10.667 19.6871 10.8075 20.0263 11.0575 20.2763C11.3076 20.5264 11.6467 20.6668 12.0003 20.6668ZM12.0003 16.6668H14.667V19.3335H12.0003V16.6668Z" fill="white"/>
<path d="M18.6663 20.6668H21.333C21.6866 20.6668 22.0258 20.5264 22.2758 20.2763C22.5259 20.0263 22.6663 19.6871 22.6663 19.3335V16.6668C22.6663 16.3132 22.5259 15.9741 22.2758 15.724C22.0258 15.474 21.6866 15.3335 21.333 15.3335H18.6663C18.3127 15.3335 17.9736 15.474 17.7235 15.724C17.4735 15.9741 17.333 16.3132 17.333 16.6668V19.3335C17.333 19.6871 17.4735 20.0263 17.7235 20.2763C17.9736 20.5264 18.3127 20.6668 18.6663 20.6668ZM18.6663 16.6668H21.333V19.3335H18.6663V16.6668Z" fill="white"/>
<path d="M25.3333 20.6668H28C28.3536 20.6668 28.6928 20.5264 28.9428 20.2763C29.1929 20.0263 29.3333 19.6871 29.3333 19.3335V16.6668C29.3333 16.3132 29.1929 15.9741 28.9428 15.724C28.6928 15.474 28.3536 15.3335 28 15.3335H25.3333C24.9797 15.3335 24.6406 15.474 24.3905 15.724C24.1405 15.9741 24 16.3132 24 16.6668V19.3335C24 19.6871 24.1405 20.0263 24.3905 20.2763C24.6406 20.5264 24.9797 20.6668 25.3333 20.6668ZM25.3333 16.6668H28V19.3335H25.3333V16.6668Z" fill="white"/>
<path d="M12.0003 27.9998H14.667C15.0206 27.9998 15.3598 27.8594 15.6098 27.6093C15.8598 27.3593 16.0003 27.0201 16.0003 26.6665V23.9998C16.0003 23.6462 15.8598 23.3071 15.6098 23.057C15.3598 22.807 15.0206 22.6665 14.667 22.6665H12.0003C11.6467 22.6665 11.3076 22.807 11.0575 23.057C10.8075 23.3071 10.667 23.6462 10.667 23.9998V26.6665C10.667 27.0201 10.8075 27.3593 11.0575 27.6093C11.3076 27.8594 11.6467 27.9998 12.0003 27.9998ZM12.0003 23.9998H14.667V26.6665H12.0003V23.9998Z" fill="white"/>
<path d="M18.6663 27.9998H21.333C21.6866 27.9998 22.0258 27.8594 22.2758 27.6093C22.5259 27.3593 22.6663 27.0201 22.6663 26.6665V23.9998C22.6663 23.6462 22.5259 23.3071 22.2758 23.057C22.0258 22.807 21.6866 22.6665 21.333 22.6665H18.6663C18.3127 22.6665 17.9736 22.807 17.7235 23.057C17.4735 23.3071 17.333 23.6462 17.333 23.9998V26.6665C17.333 27.0201 17.4735 27.3593 17.7235 27.6093C17.9736 27.8594 18.3127 27.9998 18.6663 27.9998ZM18.6663 23.9998H21.333V26.6665H18.6663V23.9998Z" fill="white"/>
<path d="M14.667 36.6667C14.667 36.8435 14.7372 37.013 14.8623 37.1381C14.9873 37.2631 15.1568 37.3333 15.3337 37.3333H24.667C24.8438 37.3333 25.0134 37.2631 25.1384 37.1381C25.2634 37.013 25.3337 36.8435 25.3337 36.6667C25.3337 36.4899 25.2634 36.3203 25.1384 36.1953C25.0134 36.0702 24.8438 36 24.667 36H15.3337C15.1568 36 14.9873 36.0702 14.8623 36.1953C14.7372 36.3203 14.667 36.4899 14.667 36.6667Z" fill="white"/>
</svg>
