<svg width="50" height="50" viewBox="0 0 50 50" fill="none" xmlns="http://www.w3.org/2000/svg">
<g id="Frame" clip-path="url(#clip0_11387_4239)">
<g id="Group">
<g id="Group_2">
<path id="Vector" d="M15.9342 28.5173C15.4653 28.0486 14.8296 27.7854 14.1667 27.7854C13.5038 27.7854 12.868 28.0486 12.3992 28.5173C11.9898 28.9298 11.7388 29.4732 11.69 30.0523C11.4056 30.0199 11.1196 30.0024 10.8333 29.9998C9.08287 29.9975 7.37624 30.5472 5.95618 31.5707C4.53612 32.5942 3.47494 34.0394 2.92355 35.7008C2.37217 37.3621 2.35866 39.1551 2.88495 40.8245C3.41123 42.494 4.45052 43.955 5.855 44.9998H2.5C1.83696 44.9998 1.20107 45.2632 0.732233 45.7321C0.263392 46.2009 0 46.8368 0 47.4998C0 48.1629 0.263392 48.7987 0.732233 49.2676C1.20107 49.7364 1.83696 49.9998 2.5 49.9998H47.5C48.163 49.9998 48.7989 49.7364 49.2678 49.2676C49.7366 48.7987 50 48.1629 50 47.4998C50 46.8368 49.7366 46.2009 49.2678 45.7321C48.7989 45.2632 48.163 44.9998 47.5 44.9998H44.3333L46.5433 33.2173C47.1182 33.0472 47.6126 32.6756 47.9358 32.1706C48.259 31.6656 48.3894 31.0611 48.3032 30.4678C48.2169 29.8745 47.9198 29.3321 47.4662 28.9401C47.0126 28.548 46.4329 28.3326 45.8333 28.3332C45.8325 27.5943 45.5867 26.8765 45.1343 26.2923C44.6819 25.7082 44.0485 25.2905 43.3333 25.1048V24.9998C43.3324 24.1166 43.0508 23.2566 42.5293 22.5438C42.0078 21.8311 41.2733 21.3024 40.4318 21.0343C39.5903 20.7661 38.6854 20.7723 37.8476 21.0519C37.0099 21.3315 36.2826 21.87 35.7708 22.5898C35.3431 22.4887 34.8995 22.473 34.4657 22.5436C34.0319 22.6143 33.6162 22.7699 33.2427 23.0015C32.8691 23.2332 32.5449 23.5363 32.2888 23.8935C32.0326 24.2507 31.8495 24.655 31.75 25.0832C31.0158 25.2538 30.3609 25.6678 29.8919 26.2579C29.4228 26.848 29.1672 27.5794 29.1667 28.3332C28.5668 28.3318 27.9866 28.5467 27.5324 28.9384C27.0781 29.3302 26.7804 29.8726 26.6937 30.4662C26.607 31.0597 26.7372 31.6646 27.0604 32.1699C27.3836 32.6752 27.8782 33.0471 28.4533 33.2173L30.6667 44.9998H25C24.9987 43.6741 24.4715 42.4031 23.5341 41.4658C22.5967 40.5284 21.3257 40.0011 20 39.9998H18.9917C19.172 39.1713 19.2134 38.3186 19.1142 37.4765C19.5861 37.434 20.0362 37.2578 20.4115 36.9684C20.7868 36.6791 21.0717 36.2886 21.2328 35.843C21.3939 35.3973 21.4245 34.9149 21.321 34.4525C21.2174 33.99 20.9841 33.5667 20.6483 33.2323L20.0592 32.6432L48.4342 4.26815C48.6694 4.03673 48.8566 3.76101 48.9848 3.45691C49.1129 3.1528 49.1797 2.82633 49.181 2.49631C49.1824 2.1663 49.1185 1.83928 48.9928 1.53411C48.8672 1.22894 48.6824 0.951667 48.449 0.718281C48.2157 0.484896 47.9385 0.300018 47.6333 0.17431C47.3282 0.0486031 47.0012 -0.0154454 46.6712 -0.0141406C46.3412 -0.0128359 46.0147 0.0537963 45.7105 0.181912C45.4064 0.310029 45.1306 0.497093 44.8992 0.732316L16.5242 29.1073L15.9342 28.5173ZM32.5 26.6665C32.721 26.6665 32.933 26.5787 33.0893 26.4224C33.2455 26.2661 33.3333 26.0542 33.3333 25.8332C33.3332 25.5474 33.4065 25.2665 33.5462 25.0172C33.6859 24.768 33.8874 24.5589 34.1312 24.41C34.375 24.261 34.653 24.1773 34.9386 24.1667C35.2241 24.1562 35.5075 24.2192 35.7617 24.3498C35.8619 24.4012 35.9715 24.4317 36.0839 24.4396C36.1963 24.4474 36.3091 24.4323 36.4155 24.3953C36.5219 24.3583 36.6197 24.3001 36.7029 24.2243C36.7862 24.1484 36.8533 24.0565 36.9 23.954C37.1398 23.4386 37.5481 23.0203 38.0575 22.7681C38.567 22.5159 39.1472 22.4448 39.7024 22.5667C40.2577 22.6885 40.7549 22.9959 41.1119 23.4382C41.469 23.8806 41.6647 24.4314 41.6667 24.9998C41.6653 25.2155 41.6374 25.4302 41.5833 25.639C41.5502 25.7714 41.5501 25.91 41.583 26.0425C41.616 26.175 41.681 26.2974 41.7724 26.3989C41.8637 26.5004 41.9786 26.5779 42.107 26.6245C42.2353 26.6712 42.3731 26.6856 42.5083 26.6665C42.9489 26.6687 43.3707 26.8453 43.6815 27.1576C43.9922 27.4699 44.1667 27.8926 44.1667 28.3332H30.8333C30.8333 27.8911 31.0089 27.4672 31.3215 27.1546C31.634 26.8421 32.058 26.6665 32.5 26.6665ZM29.1667 29.9998H45.8333C46.0543 29.9998 46.2663 30.0876 46.4226 30.2439C46.5789 30.4002 46.6667 30.6121 46.6667 30.8332C46.6667 31.0542 46.5789 31.2661 46.4226 31.4224C46.2663 31.5787 46.0543 31.6665 45.8333 31.6665H29.1667C28.9457 31.6665 28.7337 31.5787 28.5774 31.4224C28.4211 31.2661 28.3333 31.0542 28.3333 30.8332C28.3333 30.6121 28.4211 30.4002 28.5774 30.2439C28.7337 30.0876 28.9457 29.9998 29.1667 29.9998ZM30.1667 33.3332H44.8333L42.6417 44.9998H32.3583L30.1667 33.3332ZM31.6667 46.6665H47.5C47.721 46.6665 47.933 46.7543 48.0893 46.9106C48.2455 47.0668 48.3333 47.2788 48.3333 47.4998C48.3333 47.7208 48.2455 47.9328 48.0893 48.0891C47.933 48.2454 47.721 48.3332 47.5 48.3332H2.5C2.27899 48.3332 2.06702 48.2454 1.91074 48.0891C1.75446 47.9328 1.66667 47.7208 1.66667 47.4998C1.66667 47.2788 1.75446 47.0668 1.91074 46.9106C2.06702 46.7543 2.27899 46.6665 2.5 46.6665H31.6667ZM15.8333 39.9998C15.6123 39.9998 15.4004 40.0876 15.2441 40.2439C15.0878 40.4002 15 40.6121 15 40.8332C15 41.0542 15.0878 41.2661 15.2441 41.4224C15.4004 41.5787 15.6123 41.6665 15.8333 41.6665H20C20.8841 41.6665 21.7319 42.0177 22.357 42.6428C22.9821 43.2679 23.3333 44.1158 23.3333 44.9998H10.8333C9.06522 44.9998 7.36953 44.2974 6.11929 43.0472C4.86905 41.797 4.16667 40.1013 4.16667 38.3332C4.16667 36.565 4.86905 34.8694 6.11929 33.6191C7.36953 32.3689 9.06522 31.6665 10.8333 31.6665C11.296 31.6711 11.757 31.7228 12.2092 31.8207C12.2675 31.9023 12.3308 31.979 12.3992 32.0532L17.1125 36.7673C17.1867 36.8357 17.2642 36.899 17.3458 36.9582C17.444 37.41 17.4956 37.8708 17.5 38.3332C17.5 38.8957 17.4292 39.4557 17.2875 39.9998H15.8333ZM19.47 35.589C19.3926 35.6665 19.3007 35.7279 19.1995 35.7699C19.0984 35.8118 18.9899 35.8334 18.8804 35.8334C18.7709 35.8334 18.6625 35.8118 18.5613 35.7699C18.4601 35.7279 18.3682 35.6665 18.2908 35.589L13.5775 30.8748C13.4257 30.7177 13.3417 30.5072 13.3436 30.2887C13.3455 30.0702 13.4331 29.8611 13.5877 29.7066C13.7422 29.5521 13.9512 29.4645 14.1697 29.4626C14.3882 29.4607 14.5987 29.5447 14.7558 29.6965L15.9333 30.874L16.6408 31.5815L19.4692 34.4098C19.6254 34.5661 19.7132 34.778 19.7132 34.999C19.7132 35.22 19.6254 35.4319 19.4692 35.5882L19.47 35.589ZM46.0775 1.91065C46.1544 1.83106 46.2463 1.76757 46.348 1.7239C46.4497 1.68022 46.559 1.65724 46.6697 1.65627C46.7803 1.65531 46.89 1.6764 46.9925 1.7183C47.0949 1.7602 47.1879 1.82208 47.2662 1.90032C47.3444 1.97856 47.4063 2.07161 47.4482 2.17402C47.4901 2.27643 47.5112 2.38617 47.5102 2.49682C47.5092 2.60747 47.4863 2.71682 47.4426 2.81849C47.3989 2.92016 47.3354 3.01211 47.2558 3.08898L18.8808 31.464L18.5533 31.1373L17.7025 30.2857L46.0775 1.91065Z" fill="#3CA200"/>
<path id="Vector_2" d="M35 35H33.3333C33.1123 35 32.9004 35.0878 32.7441 35.2441C32.5878 35.4004 32.5 35.6123 32.5 35.8333C32.5 36.0543 32.5878 36.2663 32.7441 36.4226C32.9004 36.5789 33.1123 36.6667 33.3333 36.6667H35C35.221 36.6667 35.433 36.5789 35.5893 36.4226C35.7455 36.2663 35.8333 36.0543 35.8333 35.8333C35.8333 35.6123 35.7455 35.4004 35.5893 35.2441C35.433 35.0878 35.221 35 35 35ZM40.8333 35H38.3333C38.1123 35 37.9004 35.0878 37.7441 35.2441C37.5878 35.4004 37.5 35.6123 37.5 35.8333C37.5 36.0543 37.5878 36.2663 37.7441 36.4226C37.9004 36.5789 38.1123 36.6667 38.3333 36.6667H40.8333C41.0544 36.6667 41.2663 36.5789 41.4226 36.4226C41.5789 36.2663 41.6667 36.0543 41.6667 35.8333C41.6667 35.6123 41.5789 35.4004 41.4226 35.2441C41.2663 35.0878 41.0544 35 40.8333 35ZM46.6667 23.3333C46.995 23.3333 47.3201 23.2687 47.6234 23.143C47.9267 23.0174 48.2023 22.8332 48.4344 22.6011C48.6666 22.369 48.8507 22.0934 48.9764 21.79C49.102 21.4867 49.1667 21.1616 49.1667 20.8333C49.1667 20.505 49.102 20.1799 48.9764 19.8766C48.8507 19.5733 48.6666 19.2977 48.4344 19.0656C48.2023 18.8334 47.9267 18.6493 47.6234 18.5236C47.3201 18.398 46.995 18.3333 46.6667 18.3333C46.0036 18.3333 45.3677 18.5967 44.8989 19.0656C44.4301 19.5344 44.1667 20.1703 44.1667 20.8333C44.1667 21.4964 44.4301 22.1323 44.8989 22.6011C45.3677 23.0699 46.0036 23.3333 46.6667 23.3333ZM46.6667 20C46.8877 20 47.0996 20.0878 47.2559 20.2441C47.4122 20.4004 47.5 20.6123 47.5 20.8333C47.5 21.0543 47.4122 21.2663 47.2559 21.4226C47.0996 21.5789 46.8877 21.6667 46.6667 21.6667C46.4457 21.6667 46.2337 21.5789 46.0774 21.4226C45.9211 21.2663 45.8333 21.0543 45.8333 20.8333C45.8333 20.6123 45.9211 20.4004 46.0774 20.2441C46.2337 20.0878 46.4457 20 46.6667 20ZM42.5 13.3333C41.837 13.3333 41.2011 13.5967 40.7322 14.0656C40.2634 14.5344 40 15.1703 40 15.8333C40 16.4964 40.2634 17.1323 40.7322 17.6011C41.2011 18.0699 41.837 18.3333 42.5 18.3333C43.163 18.3333 43.7989 18.0699 44.2678 17.6011C44.7366 17.1323 45 16.4964 45 15.8333C45 15.1703 44.7366 14.5344 44.2678 14.0656C43.7989 13.5967 43.163 13.3333 42.5 13.3333ZM42.5 16.6667C42.279 16.6667 42.067 16.5789 41.9107 16.4226C41.7545 16.2663 41.6667 16.0543 41.6667 15.8333C41.6667 15.6123 41.7545 15.4004 41.9107 15.2441C42.067 15.0878 42.279 15 42.5 15C42.721 15 42.933 15.0878 43.0893 15.2441C43.2455 15.4004 43.3333 15.6123 43.3333 15.8333C43.3333 16.0543 43.2455 16.2663 43.0893 16.4226C42.933 16.5789 42.721 16.6667 42.5 16.6667ZM22.4925 7.38043e-08C22.2756 -9.11469e-05 22.0672 0.0843812 21.9116 0.235472C21.756 0.386564 21.6655 0.592368 21.6592 0.809167V0.833333C21.6592 1.14 21.5833 8.33333 14.9842 8.33333C14.7632 8.33333 14.5512 8.42113 14.3949 8.57741C14.2386 8.73369 14.1508 8.94565 14.1508 9.16667C14.1508 9.38768 14.2386 9.59964 14.3949 9.75592C14.5512 9.9122 14.7632 10 14.9842 10C21.5575 10 21.6583 17.195 21.6592 17.5C21.6562 17.721 21.7411 17.9342 21.8953 18.0926C22.0495 18.2509 22.2602 18.3416 22.4813 18.3446C22.7023 18.3476 22.9154 18.2626 23.0738 18.1085C23.2322 17.9543 23.3229 17.7435 23.3258 17.5225V17.5C23.3258 17.1933 23.4017 10 30 10C30.221 10 30.433 9.9122 30.5893 9.75592C30.7455 9.59964 30.8333 9.38768 30.8333 9.16667C30.8333 8.94565 30.7455 8.73369 30.5893 8.57741C30.433 8.42113 30.221 8.33333 30 8.33333C23.4417 8.33333 23.3275 1.16667 23.3258 0.833333C23.3258 0.61232 23.238 0.400358 23.0818 0.244078C22.9255 0.0877975 22.7135 7.38043e-08 22.4925 7.38043e-08ZM26.2017 9.16667C24.4952 10.0668 23.1762 11.5592 22.4925 13.3633C21.8088 11.5592 20.4898 10.0668 18.7833 9.16667C20.4898 8.26648 21.8088 6.77413 22.4925 4.97C23.1762 6.77413 24.4952 8.26648 26.2017 9.16667ZM5 25.0042V25.0092C5.00122 25.2302 5.09018 25.4417 5.24732 25.5971C5.40446 25.7525 5.6169 25.8391 5.83792 25.8379C6.05893 25.8367 6.27041 25.7477 6.42583 25.5906C6.58125 25.4335 6.66788 25.221 6.66667 25C6.66667 24.7958 6.73667 20 10.8333 20C11.0543 20 11.2663 19.9122 11.4226 19.7559C11.5789 19.5996 11.6667 19.3877 11.6667 19.1667C11.6667 18.9457 11.5789 18.7337 11.4226 18.5774C11.2663 18.4211 11.0543 18.3333 10.8333 18.3333C6.73667 18.3333 6.66667 13.5358 6.66667 13.3333V13.3283C6.666 13.1073 6.57757 12.8956 6.42082 12.7398C6.26407 12.584 6.05185 12.4968 5.83083 12.4975C5.60982 12.4982 5.39812 12.5866 5.24231 12.7433C5.0865 12.9001 4.99934 13.1123 5 13.3333C5 13.5375 4.93 18.3333 0.833333 18.3333C0.61232 18.3333 0.400358 18.4211 0.244078 18.5774C0.0877974 18.7337 0 18.9457 0 19.1667C0 19.3877 0.0877974 19.5996 0.244078 19.7559C0.400358 19.9122 0.61232 20 0.833333 20C4.93 20 5 24.7975 5 25V25.0042ZM3.88 19.1667C4.72398 18.604 5.39916 17.8226 5.83333 16.9058C6.2675 17.8226 6.94268 18.604 7.78667 19.1667C6.94285 19.7295 6.26772 20.5109 5.83333 21.4275C5.39895 20.5109 4.72382 19.7295 3.88 19.1667ZM8.99417 6.83917L10.2442 8.08917C10.4013 8.24096 10.6118 8.32496 10.8303 8.32306C11.0488 8.32116 11.2578 8.23352 11.4123 8.07902C11.5669 7.92451 11.6545 7.7155 11.6564 7.497C11.6583 7.2785 11.5743 7.068 11.4225 6.91083L10.1725 5.66083C10.0956 5.58124 10.0037 5.51776 9.90201 5.47408C9.80033 5.43041 9.69098 5.40742 9.58034 5.40646C9.46969 5.4055 9.35995 5.42658 9.25754 5.46848C9.15513 5.51038 9.06208 5.57226 8.98384 5.6505C8.90559 5.72875 8.84372 5.82179 8.80182 5.92421C8.75992 6.02662 8.73883 6.13635 8.73979 6.247C8.74075 6.35765 8.76374 6.467 8.80742 6.56867C8.85109 6.67034 8.91458 6.76229 8.99417 6.83917ZM6.49417 4.33917C6.65134 4.49096 6.86184 4.57496 7.08033 4.57306C7.29883 4.57116 7.50784 4.48352 7.66235 4.32902C7.81686 4.17451 7.9045 3.9655 7.9064 3.747C7.90829 3.5285 7.8243 3.318 7.6725 3.16083L6.4225 1.91083C6.26533 1.75903 6.05483 1.67504 5.83633 1.67694C5.61784 1.67884 5.40883 1.76648 5.25432 1.92098C5.09981 2.07549 5.01217 2.2845 5.01027 2.503C5.00837 2.7215 5.09237 2.932 5.24417 3.08917L6.49417 4.33917ZM5.24417 8.08917C5.40044 8.24539 5.61236 8.33316 5.83333 8.33316C6.0543 8.33316 6.26623 8.24539 6.4225 8.08917L7.6725 6.83917C7.8243 6.682 7.90829 6.4715 7.9064 6.253C7.9045 6.0345 7.81686 5.82549 7.66235 5.67098C7.50784 5.51648 7.29883 5.42884 7.08033 5.42694C6.86184 5.42504 6.65134 5.50904 6.49417 5.66083L5.24417 6.91083C5.08794 7.06711 5.00018 7.27903 5.00018 7.5C5.00018 7.72097 5.08794 7.93289 5.24417 8.08917ZM9.58333 4.58333C9.80433 4.58329 10.0163 4.49546 10.1725 4.33917L11.4225 3.08917C11.5021 3.01229 11.5656 2.92034 11.6093 2.81867C11.6529 2.717 11.6759 2.60765 11.6769 2.497C11.6778 2.38635 11.6568 2.27662 11.6149 2.17421C11.573 2.07179 11.5111 1.97875 11.4328 1.9005C11.3546 1.82226 11.2615 1.76038 11.1591 1.71848C11.0567 1.67658 10.947 1.6555 10.8363 1.65646C10.7257 1.65742 10.6163 1.68041 10.5147 1.72408C10.413 1.76776 10.321 1.83124 10.2442 1.91083L8.99417 3.16083C8.87766 3.27738 8.79832 3.42585 8.76618 3.58747C8.73404 3.7491 8.75054 3.91663 8.8136 4.06888C8.87666 4.22113 8.98344 4.35126 9.12045 4.44283C9.25746 4.53441 9.41854 4.5833 9.58333 4.58333Z" fill="#3CA200"/>
</g>
</g>
</g>
<defs>
<clipPath id="clip0_11387_4239">
<rect width="50" height="50" fill="white"/>
</clipPath>
</defs>
</svg>
