<svg width="40" height="40" viewBox="0 0 40 40" fill="none" xmlns="http://www.w3.org/2000/svg">
<g clip-path="url(#clip0_21900_3554)">
<path d="M2.66667 30.6667H13.742L12.8533 33.3333H11.3333C10.6261 33.3333 9.94781 33.6143 9.44772 34.1144C8.94762 34.6145 8.66667 35.2928 8.66667 36V36.6667C8.66667 37.0203 8.80714 37.3594 9.05719 37.6095C9.30724 37.8595 9.64638 38 10 38H26.7613C26.9087 38.5708 27.241 39.0766 27.7064 39.4385C28.1717 39.8003 28.7439 39.9978 29.3333 40H37.3333C38.0406 40 38.7189 39.719 39.219 39.219C39.719 38.7189 40 38.0406 40 37.3333V20C40 19.2928 39.719 18.6145 39.219 18.1144C38.7189 17.6143 38.0406 17.3333 37.3333 17.3333V2.66667C37.3333 1.95942 37.0524 1.28115 36.5523 0.781049C36.0522 0.280952 35.3739 0 34.6667 0L2.66667 0C1.95942 0 1.28115 0.280952 0.781049 0.781049C0.280952 1.28115 0 1.95942 0 2.66667L0 28C0 28.7072 0.280952 29.3855 0.781049 29.8856C1.28115 30.3857 1.95942 30.6667 2.66667 30.6667ZM1.33333 28V26H26.6667V29.3333H2.66667C2.31304 29.3333 1.97391 29.1929 1.72386 28.9428C1.47381 28.6928 1.33333 28.3536 1.33333 28ZM24.48 33.3333L23.5913 30.6667H26.6667V33.4287C26.4494 33.3688 26.2254 33.3368 26 33.3333H24.48ZM15.1467 30.6667H22.1867L23.0753 33.3333H14.258L15.1467 30.6667ZM10 36C10 35.6464 10.1405 35.3072 10.3905 35.0572C10.6406 34.8071 10.9797 34.6667 11.3333 34.6667H26C26.2345 34.6673 26.4646 34.7304 26.6667 34.8493V36.6667H10V36ZM38.6667 20V37.3333C38.6667 37.687 38.5262 38.0261 38.2761 38.2761C38.0261 38.5262 37.687 38.6667 37.3333 38.6667H29.3333C28.9797 38.6667 28.6406 38.5262 28.3905 38.2761C28.1405 38.0261 28 37.687 28 37.3333V20C28 19.6464 28.1405 19.3072 28.3905 19.0572C28.6406 18.8071 28.9797 18.6667 29.3333 18.6667H30V19.3333C30 19.8638 30.2107 20.3725 30.5858 20.7475C30.9609 21.1226 31.4696 21.3333 32 21.3333H34.6667C35.1971 21.3333 35.7058 21.1226 36.0809 20.7475C36.456 20.3725 36.6667 19.8638 36.6667 19.3333V18.6667H37.3333C37.687 18.6667 38.0261 18.8071 38.2761 19.0572C38.5262 19.3072 38.6667 19.6464 38.6667 20ZM31.3333 18.6667H35.3333V19.3333C35.3333 19.5101 35.2631 19.6797 35.1381 19.8047C35.0131 19.9298 34.8435 20 34.6667 20H32C31.8232 20 31.6536 19.9298 31.5286 19.8047C31.4036 19.6797 31.3333 19.5101 31.3333 19.3333V18.6667ZM2.66667 1.33333H34.6667C35.0203 1.33333 35.3594 1.47381 35.6095 1.72386C35.8595 1.97391 36 2.31304 36 2.66667V17.3333H29.3333C28.6261 17.3333 27.9478 17.6143 27.4477 18.1144C26.9476 18.6145 26.6667 19.2928 26.6667 20V21.3373L25.996 21.3413C25.8192 21.3419 25.6498 21.4126 25.5252 21.538C25.4005 21.6634 25.3308 21.8332 25.3313 22.01C25.3319 22.1868 25.4026 22.3562 25.528 22.4808C25.6534 22.6055 25.8232 22.6752 26 22.6747H26.004L26.6667 22.6707V24.6667H1.33333V2.66667C1.33333 2.31304 1.47381 1.97391 1.72386 1.72386C1.97391 1.47381 2.31304 1.33333 2.66667 1.33333Z" fill="white"/>
<path d="M35.3337 36H31.3337C31.1568 36 30.9873 36.0702 30.8623 36.1953C30.7372 36.3203 30.667 36.4899 30.667 36.6667C30.667 36.8435 30.7372 37.013 30.8623 37.1381C30.9873 37.2631 31.1568 37.3333 31.3337 37.3333H35.3337C35.5105 37.3333 35.68 37.2631 35.8051 37.1381C35.9301 37.013 36.0003 36.8435 36.0003 36.6667C36.0003 36.4899 35.9301 36.3203 35.8051 36.1953C35.68 36.0702 35.5105 36 35.3337 36Z" fill="white"/>
<path d="M14.2663 9.8665C14.3364 9.91903 14.4161 9.95725 14.5009 9.97898C14.5857 10.0007 14.674 10.0055 14.7606 9.99314C14.8473 9.98076 14.9307 9.95143 15.006 9.90682C15.0813 9.86222 15.1471 9.80321 15.1997 9.73317C15.2522 9.66313 15.2904 9.58343 15.3122 9.49862C15.3339 9.41382 15.3387 9.32556 15.3263 9.23889C15.3139 9.15222 15.2846 9.06884 15.24 8.99351C15.1954 8.91818 15.1364 8.85237 15.0663 8.79984L13.111 7.33317L15.0663 5.8665C15.1364 5.81398 15.1954 5.74817 15.24 5.67283C15.2846 5.5975 15.3139 5.51412 15.3263 5.42745C15.3387 5.34078 15.3339 5.25253 15.3122 5.16772C15.2904 5.08291 15.2522 5.00321 15.1997 4.93317C15.1471 4.86313 15.0813 4.80413 15.006 4.75952C14.9307 4.71492 14.8473 4.68559 14.7606 4.6732C14.674 4.66082 14.5857 4.66563 14.5009 4.68736C14.4161 4.70909 14.3364 4.74731 14.2663 4.79984L11.5997 6.79984C11.5169 6.86194 11.4497 6.94246 11.4034 7.03503C11.3571 7.1276 11.333 7.22967 11.333 7.33317C11.333 7.43667 11.3571 7.53874 11.4034 7.63131C11.4497 7.72388 11.5169 7.80441 11.5997 7.8665L14.2663 9.8665Z" fill="white"/>
<path d="M22.1333 9.73317C22.2394 9.87462 22.3974 9.96814 22.5724 9.99314C22.7474 10.0181 22.9252 9.97259 23.0667 9.86651L25.7333 7.86651C25.8161 7.80441 25.8833 7.72389 25.9296 7.63132C25.9759 7.53875 26 7.43667 26 7.33317C26 7.22968 25.9759 7.1276 25.9296 7.03503C25.8833 6.94246 25.8161 6.86194 25.7333 6.79984L23.0667 4.79984C22.9252 4.69375 22.7474 4.6482 22.5724 4.67321C22.3974 4.69821 22.2394 4.79172 22.1333 4.93317C22.0272 5.07462 21.9817 5.25242 22.0067 5.42745C22.0317 5.60249 22.1252 5.76042 22.2667 5.86651L24.222 7.33317L22.2667 8.79984C22.1966 8.85237 22.1376 8.91818 22.093 8.99351C22.0484 9.06884 22.0191 9.15223 22.0067 9.23889C21.9943 9.32556 21.9991 9.41382 22.0209 9.49863C22.0426 9.58344 22.0808 9.66314 22.1333 9.73317Z" fill="white"/>
<path d="M17.8389 10.6464C17.8916 10.6599 17.9458 10.6666 18.0002 10.6664C18.1487 10.6663 18.2929 10.6166 18.41 10.5251C18.527 10.4337 18.6102 10.3058 18.6462 10.1618L19.9796 4.82845C20.0211 4.65743 19.9934 4.47693 19.9024 4.3263C19.8113 4.17568 19.6645 4.06715 19.4938 4.02438C19.323 3.98161 19.1423 4.00808 18.9911 4.09801C18.8398 4.18795 18.7302 4.33404 18.6862 4.50445L17.3529 9.83778C17.3317 9.92279 17.3274 10.0112 17.3403 10.0978C17.3532 10.1845 17.3831 10.2678 17.4283 10.3429C17.4734 10.418 17.5329 10.4834 17.6034 10.5355C17.6738 10.5876 17.7539 10.6253 17.8389 10.6464Z" fill="white"/>
<path d="M3.99967 14.6668H4.66634C4.84315 14.6668 5.01272 14.5966 5.13775 14.4716C5.26277 14.3465 5.33301 14.177 5.33301 14.0002C5.33301 13.8234 5.26277 13.6538 5.13775 13.5288C5.01272 13.4037 4.84315 13.3335 4.66634 13.3335H3.99967C3.82286 13.3335 3.65329 13.4037 3.52827 13.5288C3.40325 13.6538 3.33301 13.8234 3.33301 14.0002C3.33301 14.177 3.40325 14.3465 3.52827 14.4716C3.65329 14.5966 3.82286 14.6668 3.99967 14.6668Z" fill="white"/>
<path d="M7.33366 14.6668H23.3337C23.5105 14.6668 23.68 14.5966 23.8051 14.4716C23.9301 14.3465 24.0003 14.177 24.0003 14.0002C24.0003 13.8234 23.9301 13.6538 23.8051 13.5288C23.68 13.4037 23.5105 13.3335 23.3337 13.3335H7.33366C7.15685 13.3335 6.98728 13.4037 6.86225 13.5288C6.73723 13.6538 6.66699 13.8234 6.66699 14.0002C6.66699 14.177 6.73723 14.3465 6.86225 14.4716C6.98728 14.5966 7.15685 14.6668 7.33366 14.6668Z" fill="white"/>
<path d="M3.99967 22.6668H4.66634C4.84315 22.6668 5.01272 22.5966 5.13775 22.4716C5.26277 22.3465 5.33301 22.177 5.33301 22.0002C5.33301 21.8234 5.26277 21.6538 5.13775 21.5288C5.01272 21.4037 4.84315 21.3335 4.66634 21.3335H3.99967C3.82286 21.3335 3.65329 21.4037 3.52827 21.5288C3.40325 21.6538 3.33301 21.8234 3.33301 22.0002C3.33301 22.177 3.40325 22.3465 3.52827 22.4716C3.65329 22.5966 3.82286 22.6668 3.99967 22.6668Z" fill="white"/>
<path d="M23.3337 21.3335H7.33366C7.15685 21.3335 6.98728 21.4037 6.86225 21.5288C6.73723 21.6538 6.66699 21.8234 6.66699 22.0002C6.66699 22.177 6.73723 22.3465 6.86225 22.4716C6.98728 22.5966 7.15685 22.6668 7.33366 22.6668H23.3337C23.5105 22.6668 23.68 22.5966 23.8051 22.4716C23.9301 22.3465 24.0003 22.177 24.0003 22.0002C24.0003 21.8234 23.9301 21.6538 23.8051 21.5288C23.68 21.4037 23.5105 21.3335 23.3337 21.3335Z" fill="white"/>
<path d="M4.66699 16.6667C4.66699 16.8435 4.73723 17.013 4.86225 17.1381C4.98728 17.2631 5.15685 17.3333 5.33366 17.3333H6.00033C6.17714 17.3333 6.34671 17.2631 6.47173 17.1381C6.59675 17.013 6.66699 16.8435 6.66699 16.6667C6.66699 16.4899 6.59675 16.3203 6.47173 16.1953C6.34671 16.0702 6.17714 16 6.00033 16H5.33366C5.15685 16 4.98728 16.0702 4.86225 16.1953C4.73723 16.3203 4.66699 16.4899 4.66699 16.6667Z" fill="white"/>
<path d="M14.6667 17.3333H20.6667C20.8435 17.3333 21.013 17.2631 21.1381 17.1381C21.2631 17.013 21.3333 16.8435 21.3333 16.6667C21.3333 16.4899 21.2631 16.3203 21.1381 16.1953C21.013 16.0702 20.8435 16 20.6667 16H14.6667C14.4899 16 14.3203 16.0702 14.1953 16.1953C14.0702 16.3203 14 16.4899 14 16.6667C14 16.8435 14.0702 17.013 14.1953 17.1381C14.3203 17.2631 14.4899 17.3333 14.6667 17.3333Z" fill="white"/>
<path d="M8.66667 17.3333H12C12.1768 17.3333 12.3464 17.2631 12.4714 17.1381C12.5964 17.013 12.6667 16.8435 12.6667 16.6667C12.6667 16.4899 12.5964 16.3203 12.4714 16.1953C12.3464 16.0702 12.1768 16 12 16H8.66667C8.48986 16 8.32029 16.0702 8.19526 16.1953C8.07024 16.3203 8 16.4899 8 16.6667C8 16.8435 8.07024 17.013 8.19526 17.1381C8.32029 17.2631 8.48986 17.3333 8.66667 17.3333Z" fill="white"/>
<path d="M6.00033 18.6665H5.33366C5.15685 18.6665 4.98728 18.7367 4.86225 18.8618C4.73723 18.9868 4.66699 19.1564 4.66699 19.3332C4.66699 19.51 4.73723 19.6796 4.86225 19.8046C4.98728 19.9296 5.15685 19.9998 5.33366 19.9998H6.00033C6.17714 19.9998 6.34671 19.9296 6.47173 19.8046C6.59675 19.6796 6.66699 19.51 6.66699 19.3332C6.66699 19.1564 6.59675 18.9868 6.47173 18.8618C6.34671 18.7367 6.17714 18.6665 6.00033 18.6665Z" fill="white"/>
<path d="M14.6667 19.9998H20.6667C20.8435 19.9998 21.013 19.9296 21.1381 19.8046C21.2631 19.6796 21.3333 19.51 21.3333 19.3332C21.3333 19.1564 21.2631 18.9868 21.1381 18.8618C21.013 18.7367 20.8435 18.6665 20.6667 18.6665H14.6667C14.4899 18.6665 14.3203 18.7367 14.1953 18.8618C14.0702 18.9868 14 19.1564 14 19.3332C14 19.51 14.0702 19.6796 14.1953 19.8046C14.3203 19.9296 14.4899 19.9998 14.6667 19.9998Z" fill="white"/>
<path d="M8.66667 19.9998H12C12.1768 19.9998 12.3464 19.9296 12.4714 19.8046C12.5964 19.6796 12.6667 19.51 12.6667 19.3332C12.6667 19.1564 12.5964 18.9868 12.4714 18.8618C12.3464 18.7367 12.1768 18.6665 12 18.6665H8.66667C8.48986 18.6665 8.32029 18.7367 8.19526 18.8618C8.07024 18.9868 8 19.1564 8 19.3332C8 19.51 8.07024 19.6796 8.19526 19.8046C8.32029 19.9296 8.48986 19.9998 8.66667 19.9998Z" fill="white"/>
<path d="M25.333 14.0002C25.333 14.177 25.4032 14.3465 25.5283 14.4716C25.6533 14.5966 25.8229 14.6668 25.9997 14.6668H31.9997C32.1765 14.6668 32.3461 14.5966 32.4711 14.4716C32.5961 14.3465 32.6663 14.177 32.6663 14.0002C32.6663 13.8234 32.5961 13.6538 32.4711 13.5288C32.3461 13.4037 32.1765 13.3335 31.9997 13.3335H25.9997C25.8229 13.3335 25.6533 13.4037 25.5283 13.5288C25.4032 13.6538 25.333 13.8234 25.333 14.0002Z" fill="white"/>
<path d="M24.667 16H23.3337C23.1568 16 22.9873 16.0702 22.8623 16.1953C22.7372 16.3203 22.667 16.4899 22.667 16.6667C22.667 16.8435 22.7372 17.013 22.8623 17.1381C22.9873 17.2631 23.1568 17.3333 23.3337 17.3333H24.667C24.8438 17.3333 25.0134 17.2631 25.1384 17.1381C25.2634 17.013 25.3337 16.8435 25.3337 16.6667C25.3337 16.4899 25.2634 16.3203 25.1384 16.1953C25.0134 16.0702 24.8438 16 24.667 16Z" fill="white"/>
<path d="M24.667 18.6665H23.3337C23.1568 18.6665 22.9873 18.7367 22.8623 18.8618C22.7372 18.9868 22.667 19.1564 22.667 19.3332C22.667 19.51 22.7372 19.6796 22.8623 19.8046C22.9873 19.9296 23.1568 19.9998 23.3337 19.9998H24.667C24.8438 19.9998 25.0134 19.9296 25.1384 19.8046C25.2634 19.6796 25.3337 19.51 25.3337 19.3332C25.3337 19.1564 25.2634 18.9868 25.1384 18.8618C25.0134 18.7367 24.8438 18.6665 24.667 18.6665Z" fill="white"/>
</g>
<defs>
<clipPath id="clip0_21900_3554">
<rect width="40" height="40" fill="white"/>
</clipPath>
</defs>
</svg>
