<svg width="40" height="40" viewBox="0 0 40 40" fill="none" xmlns="http://www.w3.org/2000/svg">
<g clip-path="url(#clip0_21900_3597)">
<path d="M8.66699 40.0001H31.3337C32.3942 39.999 33.411 39.5773 34.1609 38.8274C34.9108 38.0774 35.3326 37.0606 35.3337 36.0001V6.66676C35.3326 5.60622 34.9108 4.58942 34.1609 3.8395C33.411 3.08959 32.3942 2.66782 31.3337 2.66676H25.815C25.6989 2.46473 25.5317 2.29679 25.3302 2.17978C25.1287 2.06276 24.9 2.0008 24.667 2.0001H23.667C23.2912 1.36871 22.7525 0.849955 22.1075 0.498106C21.4624 0.146257 20.7346 -0.0257465 20.0003 9.51136e-05C19.266 -0.0257465 18.5382 0.146257 17.8932 0.498106C17.2481 0.849955 16.7095 1.36871 16.3337 2.0001H15.3337C15.1007 2.0008 14.8719 2.06276 14.6704 2.17978C14.4689 2.29679 14.3018 2.46473 14.1857 2.66676H8.66699C7.60645 2.66782 6.58965 3.08959 5.83973 3.8395C5.08982 4.58942 4.66805 5.60622 4.66699 6.66676V36.0001C4.66805 37.0606 5.08982 38.0774 5.83973 38.8274C6.58965 39.5773 7.60645 39.999 8.66699 40.0001ZM15.3337 3.33343H16.7737C16.9145 3.33337 17.0518 3.2887 17.1657 3.20582C17.2796 3.12294 17.3643 3.00611 17.4077 2.8721C17.6297 2.38057 17.9976 1.96927 18.4614 1.694C18.9252 1.41874 19.4625 1.29286 20.0003 1.33343C20.5381 1.29286 21.0754 1.41874 21.5392 1.694C22.0031 1.96927 22.371 2.38057 22.593 2.8721C22.6364 3.00611 22.7211 3.12294 22.835 3.20582C22.9489 3.2887 23.0861 3.33337 23.227 3.33343H24.667V6.0001H15.3337V3.33343ZM24.667 7.33343C24.9 7.33273 25.1287 7.27076 25.3302 7.15375C25.5317 7.03673 25.6989 6.86879 25.815 6.66676H31.3337V36.0001H8.66699V6.66676H14.1857C14.3018 6.86879 14.4689 7.03673 14.6704 7.15375C14.8719 7.27076 15.1007 7.33273 15.3337 7.33343H24.667ZM6.00033 6.66676C6.00033 5.95952 6.28128 5.28124 6.78137 4.78114C7.28147 4.28105 7.95975 4.0001 8.66699 4.0001H14.0003V5.33343H8.66699C8.31337 5.33343 7.97423 5.47391 7.72418 5.72395C7.47413 5.974 7.33366 6.31314 7.33366 6.66676V36.0001C7.33366 36.3537 7.47413 36.6929 7.72418 36.9429C7.97423 37.193 8.31337 37.3334 8.66699 37.3334H31.3337C31.6873 37.3334 32.0264 37.193 32.2765 36.9429C32.5265 36.6929 32.667 36.3537 32.667 36.0001V6.66676C32.667 6.31314 32.5265 5.974 32.2765 5.72395C32.0264 5.47391 31.6873 5.33343 31.3337 5.33343H26.0003V4.0001H31.3337C32.0409 4.0001 32.7192 4.28105 33.2193 4.78114C33.7194 5.28124 34.0003 5.95952 34.0003 6.66676V36.0001C34.0003 36.7073 33.7194 37.3856 33.2193 37.8857C32.7192 38.3858 32.0409 38.6668 31.3337 38.6668H8.66699C7.95975 38.6668 7.28147 38.3858 6.78137 37.8857C6.28128 37.3856 6.00033 36.7073 6.00033 36.0001V6.66676Z" fill="white"/>
<path d="M12.571 10.9901C12.4959 10.8652 12.382 10.7684 12.2466 10.7144C12.1113 10.6604 11.9619 10.6523 11.8215 10.6912C11.6811 10.7302 11.5573 10.8141 11.4691 10.93C11.3808 11.046 11.3331 11.1877 11.333 11.3334V16.6668C11.333 16.8436 11.4032 17.0132 11.5283 17.1382C11.6533 17.2632 11.8229 17.3334 11.9997 17.3334C12.1765 17.3334 12.3461 17.2632 12.4711 17.1382C12.5961 17.0132 12.6663 16.8436 12.6663 16.6668V13.7401L13.4283 15.0101C13.4921 15.1028 13.5774 15.1786 13.6769 15.2309C13.7764 15.2833 13.8872 15.3107 13.9997 15.3107C14.1121 15.3107 14.2229 15.2833 14.3225 15.2309C14.422 15.1786 14.5073 15.1028 14.571 15.0101L15.333 13.7401V16.6668C15.333 16.8436 15.4032 17.0132 15.5283 17.1382C15.6533 17.2632 15.8229 17.3334 15.9997 17.3334C16.1765 17.3334 16.3461 17.2632 16.4711 17.1382C16.5961 17.0132 16.6663 16.8436 16.6663 16.6668V11.3334C16.6663 11.1877 16.6185 11.046 16.5303 10.93C16.4421 10.8141 16.3183 10.7302 16.1778 10.6912C16.0374 10.6523 15.8881 10.6604 15.7527 10.7144C15.6174 10.7684 15.5034 10.8652 15.4283 10.9901L13.9997 13.3714L12.571 10.9901Z" fill="white"/>
<path d="M20.0422 16.9005C20.0896 17.0278 20.1749 17.1377 20.2866 17.2152C20.3982 17.2927 20.5309 17.3343 20.6668 17.3343C20.8028 17.3343 20.9354 17.2927 21.0471 17.2152C21.1587 17.1377 21.244 17.0278 21.2915 16.9005L23.2915 11.5671C23.3534 11.4015 23.3469 11.218 23.2735 11.0571C23.2001 10.8962 23.0658 10.771 22.9002 10.7091C22.7345 10.6473 22.551 10.6537 22.3901 10.7271C22.2292 10.8005 22.104 10.9348 22.0422 11.1005L20.6668 14.7671L19.2915 11.1005C19.2296 10.9348 19.1044 10.8005 18.9435 10.7271C18.7826 10.6537 18.5992 10.6473 18.4335 10.7091C18.2678 10.771 18.1335 10.8962 18.0601 11.0571C17.9867 11.218 17.9803 11.4015 18.0422 11.5671L20.0422 16.9005Z" fill="white"/>
<path d="M25.3337 17.3332C25.5105 17.3332 25.68 17.2629 25.8051 17.1379C25.9301 17.0129 26.0003 16.8433 26.0003 16.6665V15.3332H26.3337C26.9525 15.3332 27.546 15.0873 27.9836 14.6498C28.4212 14.2122 28.667 13.6187 28.667 12.9998C28.667 12.381 28.4212 11.7875 27.9836 11.3499C27.546 10.9123 26.9525 10.6665 26.3337 10.6665H25.3337C25.1568 10.6665 24.9873 10.7367 24.8623 10.8618C24.7372 10.9868 24.667 11.1564 24.667 11.3332V16.6665C24.667 16.8433 24.7372 17.0129 24.8623 17.1379C24.9873 17.2629 25.1568 17.3332 25.3337 17.3332ZM26.0003 11.9998H26.3337C26.5989 11.9998 26.8532 12.1052 27.0408 12.2927C27.2283 12.4803 27.3337 12.7346 27.3337 12.9998C27.3337 13.2651 27.2283 13.5194 27.0408 13.7069C26.8532 13.8945 26.5989 13.9998 26.3337 13.9998H26.0003V11.9998Z" fill="white"/>
<path d="M12.1949 23.1382C12.3199 23.2632 12.4895 23.3335 12.6663 23.3335H12.7136C12.809 23.3265 12.9018 23.2991 12.9856 23.2531C13.0695 23.2071 13.1425 23.1435 13.1996 23.0668L15.1996 20.4002C15.2521 20.3301 15.2904 20.2504 15.3121 20.1656C15.3338 20.0808 15.3386 19.9925 15.3262 19.9059C15.3139 19.8192 15.2845 19.7358 15.2399 19.6605C15.1953 19.5852 15.1363 19.5194 15.0663 19.4668C14.9962 19.4143 14.9165 19.3761 14.8317 19.3544C14.7469 19.3326 14.6587 19.3278 14.572 19.3402C14.4853 19.3526 14.4019 19.3819 14.3266 19.4265C14.2513 19.4711 14.1855 19.5301 14.1329 19.6002L12.5949 21.6522L12.4716 21.5288C12.3459 21.4074 12.1775 21.3402 12.0027 21.3417C11.8279 21.3432 11.6607 21.4133 11.5371 21.5369C11.4135 21.6606 11.3433 21.8278 11.3418 22.0026C11.3403 22.1774 11.4075 22.3458 11.5289 22.4715L12.1949 23.1382Z" fill="white"/>
<path d="M12.1964 28.4712C12.3212 28.596 12.4905 28.6663 12.667 28.6665H12.7144C12.8098 28.6595 12.9025 28.6321 12.9864 28.5861C13.0703 28.5401 13.1432 28.4765 13.2004 28.3998L15.2004 25.7332C15.2529 25.6631 15.2911 25.5834 15.3128 25.4986C15.3346 25.4138 15.3394 25.3256 15.327 25.2389C15.3146 25.1522 15.2853 25.0688 15.2407 24.9935C15.1961 24.9182 15.1371 24.8524 15.067 24.7998C14.997 24.7473 14.9173 24.7091 14.8325 24.6874C14.7477 24.6656 14.6594 24.6608 14.5727 24.6732C14.4861 24.6856 14.4027 24.7149 14.3274 24.7595C14.252 24.8041 14.1862 24.8631 14.1337 24.9332L12.5957 26.9852L12.4724 26.8618C12.4109 26.7982 12.3373 26.7474 12.256 26.7124C12.1746 26.6775 12.0871 26.6591 11.9986 26.6583C11.9101 26.6576 11.8223 26.6744 11.7404 26.708C11.6585 26.7415 11.584 26.791 11.5214 26.8536C11.4588 26.9162 11.4093 26.9906 11.3758 27.0725C11.3423 27.1545 11.3254 27.2423 11.3262 27.3308C11.327 27.4193 11.3454 27.5068 11.3803 27.5881C11.4152 27.6694 11.466 27.743 11.5297 27.8045L12.1964 28.4712Z" fill="white"/>
<path d="M14.1337 30.2667L12.5957 32.3187L12.4724 32.1953C12.3448 32.0844 12.1799 32.026 12.011 32.0321C11.842 32.0382 11.6817 32.1082 11.5624 32.2279C11.4432 32.3477 11.3738 32.5083 11.3685 32.6773C11.3632 32.8463 11.4222 33.0109 11.5337 33.138L12.2004 33.8047C12.3242 33.9286 12.4918 33.9987 12.667 34H12.7144C12.8097 33.993 12.9025 33.9656 12.9864 33.9196C13.0702 33.8736 13.1432 33.81 13.2004 33.7333L15.2004 31.0667C15.2529 30.9966 15.2911 30.9169 15.3128 30.8321C15.3346 30.7473 15.3394 30.6591 15.327 30.5724C15.3146 30.4857 15.2853 30.4023 15.2407 30.327C15.1961 30.2517 15.1371 30.1859 15.067 30.1333C14.997 30.0808 14.9173 30.0426 14.8325 30.0209C14.7477 29.9991 14.6594 29.9943 14.5727 30.0067C14.4861 30.0191 14.4027 30.0484 14.3274 30.093C14.252 30.1376 14.1862 30.1966 14.1337 30.2667Z" fill="white"/>
<path d="M17.9997 22.6668H28.6663C28.8432 22.6668 29.0127 22.5966 29.1377 22.4716C29.2628 22.3465 29.333 22.177 29.333 22.0002C29.333 21.8234 29.2628 21.6538 29.1377 21.5288C29.0127 21.4037 28.8432 21.3335 28.6663 21.3335H17.9997C17.8229 21.3335 17.6533 21.4037 17.5283 21.5288C17.4032 21.6538 17.333 21.8234 17.333 22.0002C17.333 22.177 17.4032 22.3465 17.5283 22.4716C17.6533 22.5966 17.8229 22.6668 17.9997 22.6668Z" fill="white"/>
<path d="M17.9997 27.9998H28.6663C28.8432 27.9998 29.0127 27.9296 29.1377 27.8046C29.2628 27.6796 29.333 27.51 29.333 27.3332C29.333 27.1564 29.2628 26.9868 29.1377 26.8618C29.0127 26.7367 28.8432 26.6665 28.6663 26.6665H17.9997C17.8229 26.6665 17.6533 26.7367 17.5283 26.8618C17.4032 26.9868 17.333 27.1564 17.333 27.3332C17.333 27.51 17.4032 27.6796 17.5283 27.8046C17.6533 27.9296 17.8229 27.9998 17.9997 27.9998Z" fill="white"/>
<path d="M17.9997 33.3333H28.6663C28.8432 33.3333 29.0127 33.2631 29.1377 33.1381C29.2628 33.013 29.333 32.8435 29.333 32.6667C29.333 32.4899 29.2628 32.3203 29.1377 32.1953C29.0127 32.0702 28.8432 32 28.6663 32H17.9997C17.8229 32 17.6533 32.0702 17.5283 32.1953C17.4032 32.3203 17.333 32.4899 17.333 32.6667C17.333 32.8435 17.4032 33.013 17.5283 33.1381C17.6533 33.2631 17.8229 33.3333 17.9997 33.3333Z" fill="white"/>
</g>
<defs>
<clipPath id="clip0_21900_3597">
<rect width="40" height="40" fill="white"/>
</clipPath>
</defs>
</svg>
