<svg width="95" height="95" viewBox="0 0 95 95" fill="none" xmlns="http://www.w3.org/2000/svg">
<g id="Icon">
<circle id="Ellipse 1800" cx="47.5" cy="47.5" r="47.5" fill="white"/>
<g id="Icon_2">
<path id="Vector" d="M72.2676 63.211C72.2676 62.402 71.6117 61.7462 70.8027 61.7462H65.4316C64.6227 61.7462 63.9668 62.402 63.9668 63.211C63.9668 64.02 64.6227 64.6758 65.4316 64.6758H70.8027C71.6117 64.6758 72.2676 64.02 72.2676 63.211ZM72.2676 63.211V53.1524M68.1171 64.8081V72.0001M64.3691 72.0001C64.3691 70.7279 65.4005 69.6965 66.6727 69.6965H69.5617C70.8339 69.6965 71.8652 70.7279 71.8652 72.0001M23.7324 63.211C23.7324 62.402 24.3883 61.7462 25.1973 61.7462H30.5684C31.3773 61.7462 32.0332 62.402 32.0332 63.211C32.0332 64.02 31.3773 64.6758 30.5684 64.6758H25.1973C24.3883 64.6758 23.7324 64.02 23.7324 63.211ZM23.7324 63.211V53.1524M27.8829 64.8081V72.0001M31.6309 72.0001C31.6309 70.7279 30.5995 69.6965 29.3273 69.6965H26.4383C25.1661 69.6965 24.1348 70.7279 24.1348 72.0001M59.7188 58.4258V72.0001M36.2812 72.0001V58.4258M36.7695 55.4962H33.3516C32.543 55.4962 31.8867 56.1524 31.8867 56.961C31.8867 57.3653 32.0508 57.7315 32.3164 57.9962C32.5811 58.2618 32.9473 58.4258 33.3516 58.4258H54.1035M38.2344 55.4962H62.6484C63.0527 55.4962 63.4189 55.6602 63.6836 55.9258C63.9492 56.1905 64.1133 56.5567 64.1133 56.961C64.1133 57.7696 63.457 58.4258 62.6484 58.4258H55.5684M46.1145 50.6449C46.1145 42.4567 52.9504 42.6429 52.9504 42.6429C52.9504 42.6429 50.0293 45.742 50.0293 50.6449M72.2676 58.8165C70.6495 58.8165 69.3379 57.5048 69.3379 55.8868V51.4922C69.3379 50.6833 69.9937 50.0274 70.8027 50.0274C71.6117 50.0274 72.2676 50.6833 72.2676 51.4922V58.8165ZM23.7324 58.8165C25.3505 58.8165 26.6621 57.5048 26.6621 55.8868V51.4922C26.6621 50.6833 26.0063 50.0274 25.1973 50.0274C24.3883 50.0274 23.7324 50.6833 23.7324 51.4922V58.8165ZM50.0293 55.4962H46.123C45.3141 55.4962 44.6582 54.8403 44.6582 54.0313V50.645H51.4941V54.0313C51.4941 54.8403 50.8383 55.4962 50.0293 55.4962Z" stroke="#16171A" stroke-width="1.5" stroke-miterlimit="10"/>
<path id="Vector_2" d="M48.5957 44.226C48.1939 41.1406 44.3867 39.5781 44.3867 39.5781C44.3867 39.5781 45.9479 43.875 46.1143 50.6449M63.2229 31.8338L68.0508 23.8641C68.7317 22.7399 70.2279 22.438 71.2916 23.2099C72.3553 23.9818 72.5319 25.4979 71.6743 26.4938L65.5939 33.5545" stroke="#16171A" stroke-width="1.5" stroke-miterlimit="10"/>
<path id="Vector_3" d="M58.9527 33.5612C58.9527 33.5612 54.6151 34.5501 53.9432 35.4761C52.8511 36.9809 54.1982 39.2812 57.7549 41.8623C61.3115 44.4435 63.916 45.0112 65.0082 43.5064C65.6802 42.5805 65.2757 38.15 65.2757 38.15L66.4229 36.5693C67.0564 35.6963 66.8623 34.475 65.9894 33.8414L62.8279 31.547C61.9549 30.9134 60.7336 31.1075 60.1 31.9805L58.9527 33.5612ZM58.9527 33.5612L65.2756 38.15M58.1304 37.6039L59.3158 38.4644M60.5014 39.3247L61.6869 40.1852M32.8633 39.4805C35.0206 39.4805 36.7695 37.7315 36.7695 35.5742C36.7695 37.7315 38.5185 39.4805 40.6758 39.4805C38.5185 39.4805 36.7695 41.2294 36.7695 43.3867C36.7695 41.2294 35.0206 39.4805 32.8633 39.4805ZM23 28.8359C26.7754 28.8359 29.8359 25.7754 29.8359 22C29.8359 25.7754 32.8965 28.8359 36.6719 28.8359C32.8965 28.8359 29.8359 31.8965 29.8359 35.6719C29.8359 31.8965 26.7754 28.8359 23 28.8359ZM39.6992 31.4727C42.3959 31.4727 44.582 29.2865 44.582 26.5898C44.582 29.2865 46.7682 31.4727 49.4648 31.4727C46.7682 31.4727 44.582 33.6588 44.582 36.3555C44.582 33.6588 42.3959 31.4727 39.6992 31.4727Z" stroke="#16171A" stroke-width="1.5" stroke-miterlimit="10"/>
</g>
</g>
</svg>
