<svg width="40" height="40" viewBox="0 0 40 40" fill="none" xmlns="http://www.w3.org/2000/svg">
<path d="M34.8 7.01234C34.1982 6.46933 33.454 6.10919 32.6548 5.97413C31.8555 5.83908 31.0343 5.93472 30.2875 6.24984C29.5249 6.61128 28.8897 7.19536 28.4657 7.92506C28.0418 8.65475 27.8489 9.49581 27.9125 10.3373C28.0691 11.5539 28.4962 12.72 29.1625 13.7498C30.0625 15.5748 31.0875 17.6373 30.75 19.8748L27.0625 29.9998L20.55 11.5748H22.0375L25.5625 21.5748C25.6498 21.8164 25.8095 22.0252 26.0197 22.1729C26.23 22.3205 26.4806 22.3997 26.7375 22.3998C26.9377 22.401 27.1353 22.3541 27.3137 22.263C27.492 22.1719 27.6458 22.0394 27.7622 21.8764C27.8786 21.7135 27.9541 21.5249 27.9825 21.3267C28.0108 21.1285 27.9911 20.9264 27.925 20.7373L24.6875 11.5748H25.675C26.0065 11.5748 26.3245 11.4431 26.5589 11.2087C26.7933 10.9743 26.925 10.6564 26.925 10.3248C26.925 9.99332 26.7933 9.67537 26.5589 9.44095C26.3245 9.20653 26.0065 9.07484 25.675 9.07484H17.4C17.0685 9.07484 16.7505 9.20653 16.5161 9.44095C16.2817 9.67537 16.15 9.99332 16.15 10.3248C16.15 10.6564 16.2817 10.9743 16.5161 11.2087C16.7505 11.4431 17.0685 11.5748 17.4 11.5748H17.9L19.5625 16.2498L14.65 29.9998L8.15 11.5748H9.625L13.1625 21.5748C13.2498 21.8164 13.4095 22.0252 13.6197 22.1729C13.83 22.3205 14.0806 22.3997 14.3375 22.3998C14.4775 22.4023 14.617 22.3811 14.75 22.3373C14.9054 22.2827 15.0484 22.1979 15.1709 22.0878C15.2935 21.9777 15.393 21.8445 15.4639 21.6958C15.5347 21.5472 15.5755 21.3859 15.5838 21.2214C15.5922 21.057 15.5679 20.8924 15.5125 20.7373L12.275 11.5748H13.275C13.6065 11.5748 13.9245 11.4431 14.1589 11.2087C14.3933 10.9743 14.525 10.6564 14.525 10.3248C14.525 9.99332 14.3933 9.67537 14.1589 9.44095C13.9245 9.20653 13.6065 9.07484 13.275 9.07484H5C4.66848 9.07484 4.35054 9.20653 4.11612 9.44095C3.8817 9.67537 3.75 9.99332 3.75 10.3248C3.75 10.6564 3.8817 10.9743 4.11612 11.2087C4.35054 11.4431 4.66848 11.5748 5 11.5748H5.5L13.475 34.1623C13.5603 34.4063 13.719 34.6178 13.9295 34.7677C14.1399 34.9177 14.3916 34.9988 14.65 34.9998C14.9069 34.9997 15.1575 34.9205 15.3678 34.7729C15.578 34.6252 15.7377 34.4164 15.825 34.1748L20.875 19.9998L25.875 34.1498C25.9603 34.3938 26.119 34.6053 26.3295 34.7552C26.5399 34.9052 26.7916 34.9863 27.05 34.9873C27.3069 34.9872 27.5575 34.908 27.7678 34.7604C27.978 34.6127 28.1377 34.4039 28.225 34.1623L33.0625 20.6248C33.0625 20.6248 33.0625 20.6248 33.0625 20.5623L35.1 14.8498L35.8625 12.5623C36.2658 11.638 36.3801 10.6133 36.1905 9.62285C36.0008 8.63237 35.5161 7.72237 34.8 7.01234ZM33.55 11.7748L32.425 14.9998C32.075 14.1248 31.6875 13.3373 31.3375 12.6248C30.9095 11.9119 30.5973 11.1356 30.4125 10.3248C30.3651 9.97611 30.4188 9.62109 30.5672 9.302C30.7157 8.9829 30.9527 8.71316 31.25 8.52484C31.4426 8.43913 31.6517 8.39647 31.8625 8.39984C32.322 8.39454 32.7671 8.55926 33.1125 8.86234C33.4578 9.25491 33.6798 9.74044 33.7509 10.2584C33.8221 10.7763 33.7391 11.3037 33.5125 11.7748H33.55Z" fill="white"/>
</svg>
