<svg width="50" height="50" viewBox="0 0 50 50" fill="none" xmlns="http://www.w3.org/2000/svg">
<g id="Frame" clip-path="url(#clip0_11387_4258)">
<g id="Group">
<path id="Vector" d="M43.5609 47.6562L42.3352 43.3047C45.5016 41.5828 47.6562 38.2258 47.6562 34.375V33.5938C48.518 33.5938 49.2188 32.893 49.2188 32.0312V30.4688C49.2188 29.607 48.518 28.9062 47.6562 28.9062V21.0938C48.518 21.0938 49.2188 20.393 49.2188 19.5312V17.9688C49.2188 17.107 48.518 16.4062 47.6562 16.4062H27.3438C26.482 16.4062 25.7812 17.107 25.7812 17.9688V19.5312C25.7812 20.393 26.482 21.0938 27.3438 21.0938V28.9062C26.482 28.9062 25.7812 29.607 25.7812 30.4688V32.0312C25.7812 32.893 26.482 33.5938 27.3438 33.5938V34.375C27.3438 38.2258 29.4984 41.5828 32.6648 43.3047L31.4391 47.6562H21.0148C20.8335 46.7747 20.3539 45.9825 19.6567 45.4133C18.9596 44.8441 18.0875 44.5326 17.1875 44.5312H16.4062V37.4977C20.0727 35.9641 22.6562 32.3414 22.6562 28.125V22.6562H8.59375V19.5312H11.7188V21.0938H13.2812V19.5312C13.2812 18.6695 12.5805 17.9688 11.7188 17.9688H5.46875C4.60703 17.9688 3.90625 18.6695 3.90625 19.5312V22.6562H2.34375V28.125C2.34375 32.3414 4.92734 35.9641 8.59375 37.4977V44.5312H7.8125C6.91251 44.5327 6.04052 44.8443 5.34339 45.4135C4.64627 45.9827 4.16659 46.7747 3.98516 47.6562H0V49.2188H50V47.6562H43.5609ZM27.343 17.9688H47.6562V19.5312H27.3438L27.343 17.9688ZM28.9062 24.2188H32.0312V22.6562H28.9062V21.0938H46.0938V28.9062H28.9062V24.2188ZM27.343 30.4688H47.6562V32.0312H27.3438L27.343 30.4688ZM28.9062 34.375V33.5938H46.0938V34.375C46.0938 39.1133 42.2383 42.9688 37.5 42.9688C32.7617 42.9688 28.9062 39.1133 28.9062 34.375ZM34.1102 43.9375C35.1727 44.3148 36.3102 44.5312 37.5 44.5312C38.6898 44.5312 39.8273 44.3148 40.8898 43.9375L41.9367 47.6562H33.0633L34.1102 43.9375ZM5.46875 19.5312H7.03125V22.6562H5.46875V19.5312ZM21.0938 24.2188V25.7812H3.90625V24.2188H21.0938ZM3.90625 28.125V27.3438H21.0938V28.125C21.0938 32.8633 17.2383 36.7188 12.5 36.7188C7.76172 36.7188 3.90625 32.8633 3.90625 28.125ZM10.1562 37.9977C10.9102 38.1766 11.6922 38.2812 12.5 38.2812C13.3078 38.2812 14.0898 38.1766 14.8438 37.9977V44.5312H10.1562V37.9977ZM7.8125 46.0938H17.1875C18.2047 46.0938 19.0641 46.7492 19.3875 47.6562H5.6125C5.77311 47.2006 6.07078 46.8058 6.46467 46.5261C6.85857 46.2463 7.32938 46.0953 7.8125 46.0938ZM3.125 16.4062H21.875C23.1672 16.4062 24.2188 15.3547 24.2188 14.0625V3.125C24.2188 1.83281 23.1672 0.78125 21.875 0.78125H3.125C1.83281 0.78125 0.78125 1.83281 0.78125 3.125V14.0625C0.78125 15.3547 1.83281 16.4062 3.125 16.4062ZM2.34375 3.125C2.34375 2.69453 2.69375 2.34375 3.125 2.34375H21.875C22.3062 2.34375 22.6562 2.69453 22.6562 3.125V14.0625C22.6562 14.493 22.3062 14.8438 21.875 14.8438H3.125C2.69375 14.8438 2.34375 14.493 2.34375 14.0625V3.125Z" fill="#3CA200"/>
<path id="Vector_2" d="M3.35352 4.45938L4.4582 3.35469L13.8324 12.7289L12.7277 13.8336L3.35352 4.45938ZM11.1652 4.46094L12.2699 3.35547L21.6441 12.7297L20.5395 13.8344L11.1652 4.46094ZM27.3441 7.03125H28.9066V8.59375H27.3441V7.03125ZM27.3441 10.1562H28.9066V11.7188H27.3441V10.1562ZM28.9066 8.59375H30.4691V10.1562H28.9066V8.59375ZM25.7816 8.59375H27.3441V10.1562H25.7816V8.59375ZM35.1566 2.34375H36.7191V3.90625H35.1566V2.34375ZM35.1566 5.46875H36.7191V7.03125H35.1566V5.46875ZM36.7191 3.90625H38.2816V5.46875H36.7191V3.90625ZM33.5941 3.90625H35.1566V5.46875H33.5941V3.90625ZM42.9691 10.1562H44.5316V11.7188H42.9691V10.1562ZM42.9691 13.2812H44.5316V14.8438H42.9691V13.2812ZM44.5316 11.7188H46.0941V13.2812H44.5316V11.7188ZM41.4066 11.7188H42.9691V13.2812H41.4066V11.7188Z" fill="#3CA200"/>
</g>
</g>
<defs>
<clipPath id="clip0_11387_4258">
<rect width="50" height="50" fill="white"/>
</clipPath>
</defs>
</svg>
