<svg width="41" height="41" viewBox="0 0 41 41" fill="none" xmlns="http://www.w3.org/2000/svg">
<g clip-path="url(#clip0_21565_2286)">
<mask id="mask0_21565_2286" style="mask-type:luminance" maskUnits="userSpaceOnUse" x="0" y="0" width="41" height="41">
<path d="M0.333008 0.333012H40.333V40.333H0.333008V0.333012Z" fill="white"/>
</mask>
<g mask="url(#mask0_21565_2286)">
<path d="M1.11426 12.4678H13.3717H36.7017" stroke="white" stroke-width="1.57625" stroke-miterlimit="10" stroke-linecap="round" stroke-linejoin="round"/>
<path d="M7.63898 9.14355C8.66211 9.14355 9.49695 8.31137 9.49695 7.28879C9.49695 6.26621 8.66211 5.43402 7.63898 5.43402C6.61812 5.43402 5.7832 6.26621 5.7832 7.28879C5.7832 8.31137 6.61812 9.14355 7.63898 9.14355Z" stroke="white" stroke-width="1.57625" stroke-miterlimit="10" stroke-linecap="round" stroke-linejoin="round"/>
<path d="M23.7669 5.43354H30.756C31.7768 5.43354 32.6118 6.26799 32.6118 7.2883C32.6118 8.30869 31.7768 9.14307 30.756 9.14307H23.7669C22.7461 9.14307 21.9111 8.30869 21.9111 7.2883C21.9111 6.26799 22.7461 5.43354 23.7669 5.43354Z" stroke="white" stroke-width="1.57625" stroke-miterlimit="10" stroke-linecap="round" stroke-linejoin="round"/>
<path d="M14.4905 9.14355C15.5137 9.14355 16.3485 8.31137 16.3485 7.28879C16.3485 6.26621 15.5137 5.43402 14.4905 5.43402C13.4697 5.43402 12.6348 6.26621 12.6348 7.28879C12.6348 8.31137 13.4697 9.14355 14.4905 9.14355Z" stroke="white" stroke-width="1.57625" stroke-miterlimit="10" stroke-linecap="round" stroke-linejoin="round"/>
<path d="M13.0225 18.4768L11.459 25.0195" stroke="white" stroke-width="1.57625" stroke-miterlimit="10" stroke-linecap="round" stroke-linejoin="round"/>
<path d="M16.623 24.4287L18.8353 21.9453C18.9327 21.8368 18.9327 21.6598 18.8353 21.5514L16.623 19.0679" stroke="white" stroke-width="1.57625" stroke-miterlimit="10" stroke-linecap="round" stroke-linejoin="round"/>
<path d="M7.85766 24.4287L5.64539 21.9453C5.54789 21.8368 5.54789 21.6598 5.64539 21.5514L7.85766 19.0679" stroke="white" stroke-width="1.57625" stroke-miterlimit="10" stroke-linecap="round" stroke-linejoin="round"/>
<path d="M31.9362 21.9299C32.7909 22.1203 33.5904 22.4567 34.3102 22.9082L34.9502 22.2707C35.3288 21.89 35.9511 21.89 36.332 22.2707L37.3396 23.2779C37.7205 23.6586 37.7205 24.2805 37.3396 24.659L36.7018 25.2986C37.1514 26.0114 37.4835 26.8038 37.6762 27.6493H38.573C39.1112 27.6493 39.5519 28.0897 39.5519 28.6254V30.053C39.5519 30.5886 39.1112 31.029 38.573 31.029H37.6718C37.4791 31.8701 37.147 32.6581 36.7018 33.3664L37.3396 34.0038C37.7205 34.3845 37.7205 35.0064 37.3396 35.385L36.332 36.3943C35.9511 36.775 35.3288 36.775 34.9502 36.3943L34.3102 35.7568C33.5993 36.2039 32.8087 36.5359 31.9627 36.7285V37.6359C31.9627 38.1738 31.522 38.6143 30.9862 38.6143H29.5578C29.0218 38.6143 28.5812 38.1738 28.5812 37.6359V36.7263C27.7396 36.5359 26.9491 36.2017 26.2381 35.7568L25.6004 36.3943C25.2195 36.775 24.5973 36.775 24.2185 36.3943L23.2087 35.385C22.83 35.0064 22.83 34.3845 23.2087 34.0038L23.8487 33.3664C23.4014 32.6581 23.0692 31.8701 22.8766 31.029H21.9708C21.4327 31.029 20.9941 30.5886 20.9941 30.053V28.6254C20.9941 28.0897 21.4327 27.6493 21.9708 27.6493H22.8744C23.0648 26.8126 23.3926 26.0291 23.8332 25.323L23.191 24.6789C22.8102 24.3004 22.8102 23.6785 23.191 23.2978L24.1986 22.2907C24.5795 21.91 25.2018 21.91 25.5805 22.2907L26.216 22.9237C26.9248 22.4744 27.713 22.1401 28.5546 21.9432V21.0424C28.5546 20.5045 28.993 20.064 29.5312 20.064H30.9573C31.4955 20.064 31.9362 20.5045 31.9362 21.0424V21.9299Z" stroke="white" stroke-width="1.57625" stroke-miterlimit="10" stroke-linecap="round" stroke-linejoin="round"/>
<path d="M30.2734 25.3143C32.4968 25.3143 34.2994 27.116 34.2994 29.3404C34.2994 31.5626 32.4968 33.3643 30.2734 33.3643C28.0479 33.3643 26.2451 31.5626 26.2451 29.3404C26.2451 27.116 28.0479 25.3143 30.2734 25.3143Z" stroke="white" stroke-width="1.57625" stroke-miterlimit="10" stroke-linecap="round" stroke-linejoin="round"/>
<path d="M8.64809 31.0293H4.0241C2.42535 31.0293 1.11426 29.4645 1.11426 27.5544V5.52695C1.11426 3.61469 2.42301 2.05203 4.0241 2.05203H7.39465H33.7918C35.3929 2.05203 36.7017 3.61688 36.7017 5.52695V22.6407M21.9707 31.0293H15.6305" stroke="white" stroke-width="1.57625" stroke-miterlimit="10" stroke-linecap="round" stroke-linejoin="round"/>
<path d="M12.1475 31.0288H12.1629" stroke="white" stroke-width="1.57625" stroke-miterlimit="10" stroke-linecap="round" stroke-linejoin="round"/>
</g>
</g>
<defs>
<clipPath id="clip0_21565_2286">
<rect width="40" height="40" fill="white" transform="translate(0.333008 0.333496)"/>
</clipPath>
</defs>
</svg>
