<svg width="40" height="40" viewBox="0 0 40 40" fill="none" xmlns="http://www.w3.org/2000/svg">
<path d="M20 5.625C12.4182 5.625 6.25 11.7932 6.25 19.375V19.3883C6.24997 21.9418 6.96101 24.4449 8.30346 26.617C9.6459 28.7892 11.5667 30.5446 13.8506 31.6866L13.9635 31.743C14.2757 31.8978 14.5383 32.137 14.7215 32.4334C14.9047 32.7298 15.0012 33.0716 15 33.4201V36.875C15.0006 37.3721 15.1983 37.8487 15.5498 38.2002C15.9013 38.5517 16.3779 38.7494 16.875 38.75H23.75C24.2471 38.7494 24.7237 38.5517 25.0752 38.2002C25.4267 37.8487 25.6244 37.3721 25.625 36.875V33.272C25.6261 32.952 25.7086 32.6376 25.8647 32.3582C26.0208 32.0789 26.2453 31.8438 26.5173 31.6751L27.2064 31.2511C27.5957 31.0115 27.9749 30.7494 28.3384 30.4723L28.6205 30.7545C28.9864 31.1203 29.4826 31.3259 30 31.3259C30.5174 31.3259 31.0136 31.1203 31.3795 30.7545C31.7453 30.3886 31.9509 29.8924 31.9509 29.375C31.9509 28.8576 31.7453 28.3614 31.3795 27.9955L31.0742 27.6903C32.8071 25.3259 33.7441 22.4722 33.75 19.5408V19.375C33.75 11.7932 27.5818 5.625 20 5.625ZM24.375 36.875C24.3748 37.0407 24.3089 37.1996 24.1917 37.3167C24.0746 37.4339 23.9157 37.4998 23.75 37.5H16.875C16.7093 37.4998 16.5504 37.4339 16.4333 37.3167C16.3161 37.1996 16.2502 37.0407 16.25 36.875V35.625H24.375V36.875ZM24.375 33.272V34.375H16.25V33.4201C16.2498 33.1083 16.2033 32.7982 16.112 32.5H24.474C24.4086 32.7521 24.3753 33.0115 24.375 33.272ZM30.4955 29.8705C30.364 30.0018 30.1858 30.0755 30 30.0755C29.8142 30.0755 29.636 30.0018 29.5045 29.8705L23.2694 23.6354C23.6509 23.3621 23.997 23.0424 24.2997 22.6837L30.4955 28.8795C30.6268 29.011 30.7005 29.1892 30.7005 29.375C30.7005 29.5608 30.6268 29.739 30.4955 29.8705ZM13.8655 22.7712L11.727 23.3697L11.2694 22.3843L13.1253 21.1909L12.8043 18.485L10.7153 17.7268L10.9289 16.6735L13.1483 16.7898L14.4984 14.423L13.2542 12.6004L14.0596 11.8715L15.7958 13.2563L18.2914 12.1365L18.3636 9.96345L19.4618 9.84215L20.0425 11.9484L22.729 12.4937L24.0845 10.7803L25.0487 11.3203L24.2683 13.3496L26.1301 15.3538L28.2686 14.7553L28.7262 15.7407L26.8703 16.9341L27.1912 19.64L29.2804 20.3983L29.0667 21.4515L26.8475 21.3352L26.0743 22.6904L25.0063 21.6223C25.607 20.4469 25.7754 19.0978 25.4818 17.8108C25.1883 16.5239 24.4515 15.3811 23.4005 14.5826C22.3495 13.784 21.0511 13.3804 19.7326 13.4424C18.4141 13.5045 17.1593 14.0282 16.188 14.922C15.2166 15.8158 14.5904 17.0226 14.419 18.3315C14.2477 19.6403 14.542 20.9677 15.2505 22.0814C15.959 23.1952 17.0366 24.0243 18.2947 24.4237C19.5528 24.8232 20.9113 24.7675 22.1325 24.2665L23.1885 25.3225L21.7042 25.9885L21.6321 28.1615L20.5338 28.2829L19.9531 26.1766L17.2666 25.6315L15.911 27.3447L14.9469 26.8047L15.7273 24.7754L13.8655 22.7712ZM20 23.4375C19.1347 23.4375 18.2888 23.1809 17.5694 22.7002C16.8499 22.2194 16.2892 21.5362 15.958 20.7367C15.6269 19.9373 15.5403 19.0576 15.7091 18.209C15.8779 17.3603 16.2946 16.5808 16.9064 15.9689C17.5183 15.3571 18.2978 14.9404 19.1465 14.7716C19.9951 14.6028 20.8748 14.6894 21.6742 15.0205C22.4737 15.3517 23.1569 15.9124 23.6377 16.6319C24.1184 17.3513 24.375 18.1972 24.375 19.0625C24.3737 20.2224 23.9123 21.3345 23.0922 22.1547C22.272 22.9748 21.1599 23.4362 20 23.4375ZM32.5 19.5408C32.4946 22.1406 31.6837 24.6749 30.1789 26.795L26.9906 23.6067L27.5513 22.6238L30.0774 22.7561L30.7196 19.5908L28.3418 18.7278L28.2036 17.5629L30.3189 16.2028L28.9548 13.2653L26.5271 13.9446L25.7149 13.0704L26.604 10.7586L23.7655 9.16901L22.2251 11.1159L21.0435 10.876L20.3836 8.48274L17.1502 8.83995L17.0679 11.3154L15.9794 11.8038L14.0085 10.2318L11.6073 12.4049L13.0255 14.4823L12.4442 15.5012L9.91814 15.3689L9.27589 18.5342L11.6537 19.3972L11.792 20.5621L9.67652 21.9222L11.0407 24.8597L13.4685 24.1804L14.2806 25.0546L13.3916 27.3664L16.2301 28.956L17.7705 27.0092L18.9521 27.249L19.612 29.6423L22.8455 29.285L22.9276 26.8096L24.1343 26.2682L27.4466 29.5806C27.1573 29.795 26.8573 29.9981 26.5513 30.1865L25.8621 30.6105C25.5826 30.783 25.3323 30.9989 25.1206 31.25H15.3756C15.1287 30.995 14.8403 30.7837 14.5227 30.6251L14.4098 30.5686C12.3335 29.5305 10.5873 27.9346 9.36683 25.9599C8.1464 23.9852 7.49998 21.7097 7.5 19.3883V19.375C7.5 12.4825 13.1075 6.875 20 6.875C26.8925 6.875 32.5 12.4825 32.5 19.375V19.5408Z" fill="white"/>
<path d="M35 17.5H38.75V18.75H35V17.5Z" fill="white"/>
<path d="M19.375 1.25H20.625V4.375H19.375V1.25Z" fill="white"/>
<path d="M27.0547 5.8103L29.5543 3.31067L30.4381 4.19448L27.9385 6.69411L27.0547 5.8103Z" fill="white"/>
<path d="M32.7412 10.7512L35.8667 8.25L36.648 9.22625L33.5225 11.7275L32.7412 10.7512Z" fill="white"/>
<path d="M34.0244 25.5413L34.667 24.4699L37.7902 26.3432L37.1476 27.4145L34.0244 25.5413Z" fill="white"/>
<path d="M1.25 17.5H5V18.75H1.25V17.5Z" fill="white"/>
<path d="M9.55664 4.19287L10.4404 3.30907L12.9401 5.8087L12.0563 6.6925L9.55664 4.19287Z" fill="white"/>
<path d="M3.3623 9.23999L4.14355 8.26374L7.26908 10.765L6.48783 11.7412L3.3623 9.23999Z" fill="white"/>
<path d="M2.19043 26.3254L5.31366 24.4486L5.95745 25.5199L2.83422 27.3968L2.19043 26.3254Z" fill="white"/>
</svg>
