<svg width="60" height="60" viewBox="0 0 60 60" fill="none" xmlns="http://www.w3.org/2000/svg">
<g id="Frame">
<g id="Group">
<g id="Layer 32">
<path id="Vector" d="M5.82281 33.1331L4.875 35.0203C2.90606 38.9737 1.87924 43.3294 1.875 47.7459C1.87557 50.3316 2.05916 52.914 2.42437 55.4738C2.57082 56.468 3.06886 57.3769 3.82811 58.0353C4.58736 58.6938 5.55751 59.0582 6.5625 59.0625H15C15.9946 59.0625 16.9484 58.6674 17.6516 57.9641C18.3549 57.2609 18.75 56.3071 18.75 55.3125H49.2994L51.9975 58.0106C52.3308 58.3439 52.7264 58.6083 53.1619 58.7886C53.5973 58.969 54.064 59.0618 54.5353 59.0618C55.0066 59.0618 55.4733 58.969 55.9088 58.7886C56.3442 58.6083 56.7399 58.3439 57.0731 58.0106C57.4064 57.6774 57.6708 57.2817 57.8511 56.8463C58.0315 56.4108 58.1243 55.9441 58.1243 55.4728C58.1243 55.0015 58.0315 54.5348 57.8511 54.0994C57.6708 53.6639 57.4064 53.2683 57.0731 52.935L54.375 50.2369V1.875C54.375 1.62636 54.2762 1.3879 54.1004 1.21209C53.9246 1.03627 53.6861 0.9375 53.4375 0.9375H10.3125C10.0639 0.9375 9.8254 1.03627 9.64959 1.21209C9.47377 1.3879 9.375 1.62636 9.375 1.875V21.5625H7.61344C7.03471 21.5625 6.46897 21.734 5.98776 22.0555C5.50655 22.377 5.13149 22.834 4.91001 23.3687C4.68854 23.9034 4.63059 24.4917 4.74351 25.0593C4.85643 25.6269 5.13513 26.1483 5.54437 26.5575L7.44281 28.4569L6.97406 31.7512C6.48956 32.1176 6.09569 32.5904 5.82281 33.1331ZM6.55594 35.8594L7.5 33.9712C7.67307 33.6222 7.94046 33.3287 8.27186 33.1239C8.60327 32.919 8.98542 32.8112 9.375 32.8125H12.3563C12.5601 32.8127 12.7554 32.8938 12.8996 33.0379C13.0437 33.182 13.1248 33.3774 13.125 33.5812C13.1252 33.6316 13.1202 33.6819 13.11 33.7313L12.2522 38.0194C12.0991 38.7876 12.2197 39.5852 12.593 40.2739C12.9662 40.9625 13.5687 41.4989 14.2959 41.79L15.7228 42.3619C16.0636 42.4965 16.3559 42.7309 16.5615 43.0343C16.767 43.3377 16.8763 43.696 16.875 44.0625H4.02C4.41756 41.2093 5.27393 38.4392 6.55594 35.8594ZM21.3412 23.4375L22.5 24.0169V24.7331L21.3412 25.3125H20.625V23.4375H21.3412ZM16.9228 27.1875C17.0821 28.9531 17.7132 30.6433 18.75 32.0813C16.8985 31.2683 15.3898 29.8332 14.4853 28.0247L16.1588 27.1875H16.9228ZM13.3762 29.8191C14.1889 31.0951 15.2671 32.1808 16.5375 33.0022C17.8078 33.8236 19.2404 34.3613 20.7375 34.5788L21.4303 34.6781C21.4741 34.6845 21.5183 34.6876 21.5625 34.6875C21.7479 34.6875 21.9291 34.6325 22.0832 34.5294C22.2374 34.4264 22.3575 34.28 22.4284 34.1087C22.4994 33.9375 22.518 33.749 22.4818 33.5672C22.4456 33.3853 22.3564 33.2183 22.2253 33.0872L21.1275 31.9894C19.8315 30.6987 19.0138 29.0051 18.8091 27.1875H21.5625C21.7079 27.1876 21.8514 27.1539 21.9816 27.0891L23.8566 26.1516C24.0124 26.0737 24.1435 25.9539 24.235 25.8057C24.3266 25.6575 24.3751 25.4867 24.375 25.3125V23.4375C24.3751 23.2633 24.3266 23.0925 24.235 22.9443C24.1435 22.7961 24.0124 22.6763 23.8566 22.5984L21.9816 21.6609C21.8514 21.5961 21.7079 21.5624 21.5625 21.5625H15V20.0756L22.2253 12.8503L20.8997 11.5247L15 17.4244V6.5625H25.8619L22.7747 9.64969L24.1003 10.9753L28.5131 6.5625H48.75V13.6744L41.5247 20.8997L42.8503 22.2253L48.75 16.3256V44.6119L42.5756 38.4375L42.8503 38.1628C43.0261 37.987 43.1248 37.7486 43.1248 37.5C43.1248 37.2514 43.0261 37.013 42.8503 36.8372L41.1694 35.1562L45 31.3256C45.6002 30.7254 45.9374 29.9113 45.9374 29.0625C45.9374 28.2137 45.6002 27.3996 45 26.7994L43.7878 25.5872C43.612 25.4114 43.3736 25.3127 43.125 25.3127C42.8764 25.3127 42.638 25.4114 42.4622 25.5872L41.7188 26.3306L40.0378 24.6497C39.862 24.4739 39.6236 24.3752 39.375 24.3752C39.1264 24.3752 38.888 24.4739 38.7122 24.6497L23.7122 39.6497C23.5364 39.8255 23.4377 40.0639 23.4377 40.3125C23.4377 40.5611 23.5364 40.7995 23.7122 40.9753L25.3931 42.6562L24.6497 43.3997C24.4739 43.5755 24.3752 43.8139 24.3752 44.0625C24.3752 44.3111 24.4739 44.5495 24.6497 44.7253L25.8619 45.9375C26.4621 46.5377 27.2762 46.8749 28.125 46.8749C28.9738 46.8749 29.7879 46.5377 30.3881 45.9375L34.2188 42.1069L35.8997 43.7878C36.0755 43.9636 36.3139 44.0623 36.5625 44.0623C36.8111 44.0623 37.0495 43.9636 37.2253 43.7878L37.5 43.5131L43.6744 49.6875H18.75V44.0625C18.7523 43.3212 18.5313 42.5964 18.1157 41.9826C17.7002 41.3687 17.1094 40.8942 16.4203 40.6209L14.9916 40.0491C14.7166 39.9403 14.4809 39.7511 14.3152 39.5062C14.1494 39.2614 14.0614 38.9722 14.0625 38.6766C14.0625 38.5793 14.0719 38.4823 14.0906 38.3869L14.9494 34.0988C14.9831 33.9283 15 33.755 15 33.5812C14.9983 33.1007 14.8652 32.6297 14.6152 32.2192C14.3652 31.8088 14.0078 31.4745 13.5816 31.2525L13.3762 29.8191ZM36.5625 41.7994L35.5444 40.7812L39.8438 36.4819L40.8619 37.5L36.5625 41.7994ZM25.7006 40.3125L39.375 26.6381L40.3931 27.6562L26.7188 41.3306L25.7006 40.3125ZM43.125 27.5756L43.6744 28.125C43.9228 28.3737 44.0624 28.7109 44.0624 29.0625C44.0624 29.4141 43.9228 29.7513 43.6744 30L29.0625 44.6119C28.8081 44.8495 28.4731 44.9816 28.125 44.9816C27.7769 44.9816 27.4419 44.8495 27.1875 44.6119L26.6381 44.0625L43.125 27.5756ZM3.75 47.7459C3.75 47.1422 3.77719 46.5394 3.81937 45.9375H16.875V51.5625H3.88969C3.79732 50.2924 3.75072 49.0194 3.75 47.7459ZM15 57.1875H6.5625C6.00825 57.185 5.47325 56.9839 5.05447 56.6209C4.63568 56.2578 4.36081 55.7567 4.27969 55.2084C4.19656 54.6203 4.12312 54.03 4.05937 53.4375H16.875V55.3125C16.875 55.8098 16.6775 56.2867 16.3258 56.6383C15.9742 56.99 15.4973 57.1875 15 57.1875ZM18.75 53.4375V51.5625H45.5494L47.4244 53.4375H18.75ZM56.25 55.4728C56.2499 55.8119 56.1493 56.1433 55.9608 56.4251C55.7724 56.707 55.5047 56.9267 55.1914 57.0564C54.8782 57.1862 54.5335 57.2201 54.2009 57.154C53.8684 57.0879 53.5629 56.9247 53.3231 56.685L38.8256 42.1875L41.25 39.7631L55.7475 54.2606C55.9073 54.4194 56.034 54.6083 56.1202 54.8164C56.2065 55.0244 56.2506 55.2476 56.25 55.4728ZM11.25 2.8125H52.5V48.3619L50.625 46.4869V5.625C50.625 5.37636 50.5262 5.1379 50.3504 4.96209C50.1746 4.78627 49.9361 4.6875 49.6875 4.6875H14.0625C13.8139 4.6875 13.5754 4.78627 13.3996 4.96209C13.2238 5.1379 13.125 5.37636 13.125 5.625V21.5625H11.25V2.8125ZM6.87 25.2319C6.7229 25.0849 6.6227 24.8976 6.5821 24.6936C6.5415 24.4897 6.56231 24.2783 6.64191 24.0862C6.7215 23.8941 6.8563 23.7299 7.02924 23.6144C7.20218 23.4989 7.40549 23.4374 7.61344 23.4375H18.75V25.3125H15.9375C15.7921 25.3124 15.6486 25.3461 15.5184 25.4109L11.9662 27.1875H8.82562L6.87 25.2319ZM9.25031 29.0625H11.3747L11.6428 30.9375H9.375C9.24244 30.9399 9.11009 30.949 8.97844 30.9647L9.25031 29.0625Z" fill="black"/>
<path id="Vector_2" d="M33.4542 14.9521C34.1679 15.1874 34.8103 15.5998 35.3212 16.1509C35.8321 16.7019 36.1948 17.3736 36.3755 18.1031L36.5939 18.9768C36.6447 19.1795 36.7618 19.3595 36.9265 19.488C37.0913 19.6166 37.2943 19.6864 37.5033 19.6864C37.7123 19.6864 37.9153 19.6166 38.08 19.488C38.2448 19.3595 38.3619 19.1795 38.4127 18.9768L38.6311 18.104C38.8113 17.3747 39.1736 16.703 39.684 16.1518C40.1944 15.6006 40.8362 15.1878 41.5495 14.9521C41.7371 14.8905 41.9004 14.7712 42.0162 14.6113C42.132 14.4513 42.1943 14.2589 42.1943 14.0615C42.1943 13.8641 42.132 13.6717 42.0162 13.5117C41.9004 13.3518 41.7371 13.2325 41.5495 13.1709C40.8355 12.9362 40.1927 12.5242 39.6813 11.9735C39.1699 11.4227 38.8066 10.7512 38.6255 10.0218L38.407 9.14807C38.3562 8.94535 38.2391 8.76543 38.0744 8.63686C37.9096 8.5083 37.7066 8.43848 37.4977 8.43848C37.2887 8.43848 37.0857 8.5083 36.9209 8.63686C36.7562 8.76543 36.6391 8.94535 36.5883 9.14807L36.3698 10.0209C36.1896 10.7502 35.8274 11.4218 35.317 11.9731C34.8066 12.5243 34.1647 12.937 33.4514 13.1728C33.2638 13.2344 33.1005 13.3537 32.9848 13.5136C32.869 13.6735 32.8066 13.8659 32.8066 14.0634C32.8066 14.2608 32.869 14.4532 32.9848 14.6131C33.1005 14.7731 33.2638 14.8924 33.4514 14.954L33.4542 14.9521ZM37.5005 12.1668C37.9382 12.91 38.5241 13.5552 39.2217 14.0624C38.5241 14.5697 37.9382 15.2149 37.5005 15.9581C37.0627 15.2149 36.4768 14.5697 35.7792 14.0624C36.4768 13.5552 37.0627 12.91 37.5005 12.1668ZM26.8917 23.3896C27.6054 23.6248 28.2478 24.0373 28.7587 24.5884C29.2696 25.1394 29.6323 25.8111 29.813 26.5406L30.0314 27.4143C30.0822 27.617 30.1993 27.797 30.364 27.9255C30.5288 28.0541 30.7318 28.1239 30.9408 28.1239C31.1498 28.1239 31.3528 28.0541 31.5175 27.9255C31.6823 27.797 31.7994 27.617 31.8502 27.4143L32.0686 26.5415C32.2488 25.8122 32.6111 25.1405 33.1215 24.5893C33.6319 24.0381 34.2737 23.6253 34.987 23.3896C35.1746 23.328 35.3379 23.2087 35.4537 23.0488C35.5695 22.8888 35.6318 22.6964 35.6318 22.499C35.6318 22.3016 35.5695 22.1092 35.4537 21.9492C35.3379 21.7893 35.1746 21.67 34.987 21.6084C34.273 21.3737 33.6302 20.9617 33.1188 20.411C32.6074 19.8602 32.2441 19.1887 32.063 18.4593L31.8445 17.5856C31.7937 17.3829 31.6766 17.2029 31.5119 17.0744C31.3471 16.9458 31.1441 16.876 30.9352 16.876C30.7262 16.876 30.5232 16.9458 30.3584 17.0744C30.1937 17.2029 30.0766 17.3829 30.0258 17.5856L29.8073 18.4584C29.6271 19.1877 29.2649 19.8593 28.7545 20.4106C28.2441 20.9618 27.6022 21.3745 26.8889 21.6103C26.7013 21.6719 26.538 21.7912 26.4223 21.9511C26.3065 22.111 26.2441 22.3034 26.2441 22.5009C26.2441 22.6983 26.3065 22.8907 26.4223 23.0506C26.538 23.2106 26.7013 23.3299 26.8889 23.3915L26.8917 23.3896ZM30.938 20.6043C31.3757 21.3475 31.9616 21.9927 32.6592 22.4999C31.9616 23.0072 31.3757 23.6524 30.938 24.3956C30.5002 23.6524 29.9143 23.0072 29.2167 22.4999C29.9143 21.9927 30.5002 21.3475 30.938 20.6043Z" fill="black"/>
</g>
</g>
</g>
</svg>
