<svg width="40" height="40" viewBox="0 0 40 40" fill="none" xmlns="http://www.w3.org/2000/svg">
<g clip-path="url(#clip0_21900_3609)">
<path d="M4.267 36C4.92165 36.0018 5.56786 35.8524 6.15521 35.5633C6.74256 35.2742 7.25516 34.8532 7.653 34.3333C7.76167 34.1907 7.87834 34.034 8.00034 33.8667V36.6667C8.0014 37.5504 8.35292 38.3976 8.97782 39.0225C9.60271 39.6474 10.4499 39.9989 11.3337 40H28.667C29.5507 39.9989 30.398 39.6474 31.0229 39.0225C31.6477 38.3976 31.9993 37.5504 32.0003 36.6667V33.862C32.1217 34.0293 32.237 34.1853 32.3457 34.3287C32.72 34.818 33.1959 35.2204 33.7406 35.5083C34.2853 35.7962 34.8858 35.9628 35.501 35.9965C36.1162 36.0302 36.7314 35.9303 37.3042 35.7036C37.8771 35.4769 38.3941 35.1288 38.8197 34.6833C39.2172 34.2723 39.5267 33.7843 39.729 33.2494C39.9314 32.7145 40.0223 32.144 39.9963 31.5727C39.8137 25.392 38.7467 19.2694 36.8277 13.3913C36.4386 12.267 35.8032 11.2437 34.968 10.3963C34.1329 9.54889 33.1189 8.89874 32.0003 8.49333V3.33333C31.9993 2.4496 31.6477 1.60237 31.0229 0.97748C30.398 0.352588 29.5507 0.00105857 28.667 0L11.3337 0C10.4499 0.00105857 9.60271 0.352588 8.97782 0.97748C8.35292 1.60237 8.0014 2.4496 8.00034 3.33333V8.49333C6.8819 8.89877 5.86806 9.54877 5.03281 10.3959C4.19755 11.243 3.56194 12.2659 3.17234 13.39C1.2535 19.2681 0.186667 25.3907 0.00433609 31.5713C-0.0216429 32.1426 0.0693219 32.7132 0.271655 33.2481C0.473988 33.783 0.783426 34.2709 1.181 34.682C1.57864 35.1001 2.05743 35.4327 2.58807 35.6593C3.1187 35.8859 3.69 36.0019 4.267 36ZM30.667 36.6667C30.667 37.1971 30.4563 37.7058 30.0812 38.0809C29.7061 38.456 29.1974 38.6667 28.667 38.6667H11.3337C10.8032 38.6667 10.2945 38.456 9.91946 38.0809C9.54438 37.7058 9.33367 37.1971 9.33367 36.6667V31.8573C10.0667 30.6589 10.7372 29.4232 11.3423 28.1553C11.4626 27.9095 11.6493 27.7022 11.8813 27.5569C12.1133 27.4117 12.3813 27.3342 12.655 27.3333H27.3463C27.6198 27.334 27.8877 27.4113 28.1194 27.5565C28.3512 27.7017 28.5377 27.9089 28.6577 28.1547C29.2634 29.4224 29.9341 30.658 30.667 31.8567V36.6667ZM16.0003 1.33333H24.0003V2C24.0003 2.17681 23.9301 2.34638 23.8051 2.4714C23.68 2.59643 23.5105 2.66667 23.3337 2.66667H16.667C16.4902 2.66667 16.3206 2.59643 16.1956 2.4714C16.0706 2.34638 16.0003 2.17681 16.0003 2V1.33333ZM9.33367 3.33333C9.33367 2.8029 9.54438 2.29419 9.91946 1.91912C10.2945 1.54405 10.8032 1.33333 11.3337 1.33333H14.667V2C14.667 2.53043 14.8777 3.03914 15.2528 3.41421C15.6279 3.78929 16.1366 4 16.667 4H23.3337C23.8641 4 24.3728 3.78929 24.7479 3.41421C25.123 3.03914 25.3337 2.53043 25.3337 2V1.33333H28.667C29.1974 1.33333 29.7061 1.54405 30.0812 1.91912C30.4563 2.29419 30.667 2.8029 30.667 3.33333V8.13333C30.1957 8.04641 29.7176 8.00179 29.2383 8H10.7623C10.2831 8.00179 9.80497 8.04641 9.33367 8.13333V3.33333ZM4.433 13.824C4.88975 12.5101 5.74495 11.3713 6.87945 10.5664C8.01396 9.76145 9.37129 9.33042 10.7623 9.33333H29.2383C30.6293 9.33037 31.9866 9.7613 33.1211 10.5661C34.2556 11.3709 35.1108 12.5095 35.5677 13.8233C37.4456 19.58 38.4893 25.576 38.667 31.6287C38.6849 32.0205 38.6225 32.4119 38.4837 32.7787C38.3449 33.1456 38.1325 33.4802 37.8597 33.762C37.5672 34.0677 37.2122 34.3065 36.8189 34.4623C36.4256 34.618 36.0033 34.687 35.5809 34.6645C35.1584 34.6419 34.7459 34.5284 34.3714 34.3317C33.9969 34.135 33.6693 33.8597 33.411 33.5247C32.0319 31.6664 30.8428 29.6745 29.8617 27.5787C29.6322 27.1065 29.2748 26.7082 28.8301 26.4291C28.3854 26.15 27.8713 26.0013 27.3463 26H12.655C12.1303 26.0016 11.6166 26.1503 11.1722 26.4293C10.7278 26.7082 10.3706 27.1062 10.141 27.578C9.15972 29.6746 7.96995 31.667 6.58967 33.5253C6.33159 33.8603 6.00413 34.1355 5.62974 34.3321C5.25535 34.5287 4.84288 34.6421 4.4206 34.6644C3.99831 34.6866 3.5762 34.6174 3.1832 34.4613C2.79019 34.3052 2.43558 34.066 2.14367 33.76C1.8706 33.4787 1.65789 33.1445 1.5186 32.778C1.37932 32.4115 1.31638 32.0204 1.33367 31.6287C1.51119 25.5762 2.55491 19.5804 4.433 13.824Z" fill="white"/>
<path d="M24.667 36H15.3337C15.1568 36 14.9873 36.0702 14.8623 36.1953C14.7372 36.3203 14.667 36.4899 14.667 36.6667C14.667 36.8435 14.7372 37.013 14.8623 37.1381C14.9873 37.2631 15.1568 37.3333 15.3337 37.3333H24.667C24.8438 37.3333 25.0134 37.2631 25.1384 37.1381C25.2634 37.013 25.3337 36.8435 25.3337 36.6667C25.3337 36.4899 25.2634 36.3203 25.1384 36.1953C25.0134 36.0702 24.8438 36 24.667 36Z" fill="white"/>
<path d="M7.33366 17.3332H10.0003V19.9998C10.0003 20.1766 10.0706 20.3462 10.1956 20.4712C10.3206 20.5963 10.4902 20.6665 10.667 20.6665C10.8438 20.6665 11.0134 20.5963 11.1384 20.4712C11.2634 20.3462 11.3337 20.1766 11.3337 19.9998V17.3332H14.0003C14.1771 17.3332 14.3467 17.2629 14.4717 17.1379C14.5968 17.0129 14.667 16.8433 14.667 16.6665C14.667 16.4897 14.5968 16.3201 14.4717 16.1951C14.3467 16.0701 14.1771 15.9998 14.0003 15.9998H11.3337V13.3332C11.3337 13.1564 11.2634 12.9868 11.1384 12.8618C11.0134 12.7367 10.8438 12.6665 10.667 12.6665C10.4902 12.6665 10.3206 12.7367 10.1956 12.8618C10.0706 12.9868 10.0003 13.1564 10.0003 13.3332V15.9998H7.33366C7.15685 15.9998 6.98728 16.0701 6.86225 16.1951C6.73723 16.3201 6.66699 16.4897 6.66699 16.6665C6.66699 16.8433 6.73723 17.0129 6.86225 17.1379C6.98728 17.2629 7.15685 17.3332 7.33366 17.3332Z" fill="white"/>
<path d="M29.3337 20.6667C29.5105 20.6667 29.68 20.5964 29.8051 20.4714C29.9301 20.3464 30.0003 20.1768 30.0003 20V18.6667C30.0003 18.4899 29.9301 18.3203 29.8051 18.1953C29.68 18.0702 29.5105 18 29.3337 18C29.1568 18 28.9873 18.0702 28.8623 18.1953C28.7372 18.3203 28.667 18.4899 28.667 18.6667V20C28.667 20.1768 28.7372 20.3464 28.8623 20.4714C28.9873 20.5964 29.1568 20.6667 29.3337 20.6667Z" fill="white"/>
<path d="M29.3337 15.3332C29.5105 15.3332 29.68 15.2629 29.8051 15.1379C29.9301 15.0129 30.0003 14.8433 30.0003 14.6665V13.3332C30.0003 13.1564 29.9301 12.9868 29.8051 12.8618C29.68 12.7367 29.5105 12.6665 29.3337 12.6665C29.1568 12.6665 28.9873 12.7367 28.8623 12.8618C28.7372 12.9868 28.667 13.1564 28.667 13.3332V14.6665C28.667 14.8433 28.7372 15.0129 28.8623 15.1379C28.9873 15.2629 29.1568 15.3332 29.3337 15.3332Z" fill="white"/>
<path d="M31.3337 17.3333H32.667C32.8438 17.3333 33.0134 17.2631 33.1384 17.1381C33.2634 17.013 33.3337 16.8435 33.3337 16.6667C33.3337 16.4899 33.2634 16.3203 33.1384 16.1953C33.0134 16.0702 32.8438 16 32.667 16H31.3337C31.1568 16 30.9873 16.0702 30.8623 16.1953C30.7372 16.3203 30.667 16.4899 30.667 16.6667C30.667 16.8435 30.7372 17.013 30.8623 17.1381C30.9873 17.2631 31.1568 17.3333 31.3337 17.3333Z" fill="white"/>
<path d="M25.9997 17.3333H27.333C27.5098 17.3333 27.6794 17.2631 27.8044 17.1381C27.9294 17.013 27.9997 16.8435 27.9997 16.6667C27.9997 16.4899 27.9294 16.3203 27.8044 16.1953C27.6794 16.0702 27.5098 16 27.333 16H25.9997C25.8229 16 25.6533 16.0702 25.5283 16.1953C25.4032 16.3203 25.333 16.4899 25.333 16.6667C25.333 16.8435 25.4032 17.013 25.5283 17.1381C25.6533 17.2631 25.8229 17.3333 25.9997 17.3333Z" fill="white"/>
<path d="M21.9997 23.9998H24.6663C24.8432 23.9998 25.0127 23.9296 25.1377 23.8046C25.2628 23.6796 25.333 23.51 25.333 23.3332C25.333 23.1564 25.2628 22.9868 25.1377 22.8618C25.0127 22.7367 24.8432 22.6665 24.6663 22.6665H21.9997C21.8229 22.6665 21.6533 22.7367 21.5283 22.8618C21.4032 22.9868 21.333 23.1564 21.333 23.3332C21.333 23.51 21.4032 23.6796 21.5283 23.8046C21.6533 23.9296 21.8229 23.9998 21.9997 23.9998Z" fill="white"/>
<path d="M15.3337 23.9998H18.0003C18.1771 23.9998 18.3467 23.9296 18.4717 23.8046C18.5968 23.6796 18.667 23.51 18.667 23.3332C18.667 23.1564 18.5968 22.9868 18.4717 22.8618C18.3467 22.7367 18.1771 22.6665 18.0003 22.6665H15.3337C15.1568 22.6665 14.9873 22.7367 14.8623 22.8618C14.7372 22.9868 14.667 23.1564 14.667 23.3332C14.667 23.51 14.7372 23.6796 14.8623 23.8046C14.9873 23.9296 15.1568 23.9998 15.3337 23.9998Z" fill="white"/>
</g>
<defs>
<clipPath id="clip0_21900_3609">
<rect width="40" height="40" fill="white"/>
</clipPath>
</defs>
</svg>
