<svg width="40" height="40" viewBox="0 0 40 40" fill="none" xmlns="http://www.w3.org/2000/svg">
<path fill-rule="evenodd" clip-rule="evenodd" d="M26.487 25.4721C26.3698 25.3549 26.2108 25.2891 26.0451 25.2891C25.8794 25.2891 25.7204 25.3549 25.6032 25.4721L22.767 28.3083C22.6498 28.4255 22.584 28.5845 22.584 28.7502C22.584 28.9159 22.6498 29.0748 22.767 29.1921L25.6032 32.0283C25.7211 32.1422 25.879 32.2051 26.0429 32.2037C26.2067 32.2023 26.3635 32.1366 26.4794 32.0207C26.5952 31.9048 26.661 31.7481 26.6624 31.5842C26.6638 31.4203 26.6008 31.2624 26.487 31.1446L24.0926 28.7502L26.487 26.3558C26.6041 26.2386 26.67 26.0797 26.67 25.9139C26.67 25.7482 26.6041 25.5893 26.487 25.4721Z" fill="white"/>
<path fill-rule="evenodd" clip-rule="evenodd" d="M34.9967 28.3083L32.1605 25.4721C32.1028 25.4124 32.0339 25.3647 31.9576 25.332C31.8814 25.2992 31.7994 25.282 31.7164 25.2813C31.6334 25.2806 31.5511 25.2964 31.4743 25.3278C31.3975 25.3592 31.3277 25.4056 31.269 25.4643C31.2103 25.523 31.1639 25.5928 31.1325 25.6696C31.1011 25.7464 31.0852 25.8287 31.086 25.9117C31.0867 25.9947 31.1039 26.0767 31.1367 26.1529C31.1694 26.2292 31.217 26.2982 31.2767 26.3558L33.6711 28.7502L31.2767 31.1446C31.217 31.2022 31.1694 31.2712 31.1367 31.3474C31.1039 31.4237 31.0867 31.5057 31.086 31.5887C31.0852 31.6717 31.1011 31.754 31.1325 31.8308C31.1639 31.9076 31.2103 31.9774 31.269 32.0361C31.3277 32.0947 31.3975 32.1411 31.4743 32.1726C31.5511 32.204 31.6334 32.2198 31.7164 32.2191C31.7994 32.2184 31.8814 32.2011 31.9576 32.1684C32.0339 32.1356 32.1028 32.088 32.1605 32.0283L34.9967 29.1921C35.1139 29.0749 35.1797 28.9159 35.1797 28.7502C35.1797 28.5845 35.1139 28.4255 34.9967 28.3083Z" fill="white"/>
<path fill-rule="evenodd" clip-rule="evenodd" d="M29.7456 24.3942C29.585 24.3534 29.4148 24.3782 29.2724 24.4629C29.13 24.5476 29.0271 24.6855 28.9862 24.8461L27.0856 32.3461C27.0448 32.5068 27.0696 32.6771 27.1544 32.8195C27.2392 32.962 27.3771 33.065 27.5378 33.1057C27.6985 33.1465 27.8688 33.1218 28.0113 33.037C28.1538 32.9522 28.2567 32.8143 28.2975 32.6536L30.1981 25.1536C30.2183 25.074 30.2226 24.9912 30.2107 24.91C30.1989 24.8288 30.1712 24.7507 30.1292 24.6801C30.0871 24.6096 30.0316 24.5481 29.9658 24.499C29.9 24.4499 29.8252 24.4143 29.7456 24.3942Z" fill="white"/>
<path fill-rule="evenodd" clip-rule="evenodd" d="M10.625 5.9375H6.5625C6.39674 5.9375 6.23777 6.00335 6.12056 6.12056C6.00335 6.23777 5.9375 6.39674 5.9375 6.5625C5.9375 6.72826 6.00335 6.88723 6.12056 7.00444C6.23777 7.12165 6.39674 7.1875 6.5625 7.1875H10.625C10.7908 7.1875 10.9497 7.12165 11.0669 7.00444C11.1842 6.88723 11.25 6.72826 11.25 6.5625C11.25 6.39674 11.1842 6.23777 11.0669 6.12056C10.9497 6.00335 10.7908 5.9375 10.625 5.9375Z" fill="white"/>
<path fill-rule="evenodd" clip-rule="evenodd" d="M10.625 18.125H6.5625C6.39674 18.125 6.23777 18.1908 6.12056 18.3081C6.00335 18.4253 5.9375 18.5842 5.9375 18.75C5.9375 18.9158 6.00335 19.0747 6.12056 19.1919C6.23777 19.3092 6.39674 19.375 6.5625 19.375H10.625C10.7908 19.375 10.9497 19.3092 11.0669 19.1919C11.1842 19.0747 11.25 18.9158 11.25 18.75C11.25 18.5842 11.1842 18.4253 11.0669 18.3081C10.9497 18.1908 10.7908 18.125 10.625 18.125Z" fill="white"/>
<path fill-rule="evenodd" clip-rule="evenodd" d="M10.625 30.3125H6.5625C6.39674 30.3125 6.23777 30.3783 6.12056 30.4956C6.00335 30.6128 5.9375 30.7717 5.9375 30.9375C5.9375 31.1033 6.00335 31.2622 6.12056 31.3794C6.23777 31.4967 6.39674 31.5625 6.5625 31.5625H10.625C10.7908 31.5625 10.9497 31.4967 11.0669 31.3794C11.1842 31.2622 11.25 31.1033 11.25 30.9375C11.25 30.7717 11.1842 30.6128 11.0669 30.4956C10.9497 30.3783 10.7908 30.3125 10.625 30.3125Z" fill="white"/>
<path fill-rule="evenodd" clip-rule="evenodd" d="M18.75 5.9375H14.6875C14.5217 5.9375 14.3628 6.00335 14.2456 6.12056C14.1283 6.23777 14.0625 6.39674 14.0625 6.5625C14.0625 6.72826 14.1283 6.88723 14.2456 7.00444C14.3628 7.12165 14.5217 7.1875 14.6875 7.1875H18.75C18.9158 7.1875 19.0747 7.12165 19.1919 7.00444C19.3092 6.88723 19.375 6.72826 19.375 6.5625C19.375 6.39674 19.3092 6.23777 19.1919 6.12056C19.0747 6.00335 18.9158 5.9375 18.75 5.9375Z" fill="white"/>
<path fill-rule="evenodd" clip-rule="evenodd" d="M18.75 18.125H14.6875C14.5217 18.125 14.3628 18.1908 14.2456 18.3081C14.1283 18.4253 14.0625 18.5842 14.0625 18.75C14.0625 18.9158 14.1283 19.0747 14.2456 19.1919C14.3628 19.3092 14.5217 19.375 14.6875 19.375H18.75C18.9158 19.375 19.0747 19.3092 19.1919 19.1919C19.3092 19.0747 19.375 18.9158 19.375 18.75C19.375 18.5842 19.3092 18.4253 19.1919 18.3081C19.0747 18.1908 18.9158 18.125 18.75 18.125Z" fill="white"/>
<path fill-rule="evenodd" clip-rule="evenodd" d="M18.75 30.3125H14.6875C14.5217 30.3125 14.3628 30.3783 14.2456 30.4956C14.1283 30.6128 14.0625 30.7717 14.0625 30.9375C14.0625 31.1033 14.1283 31.2622 14.2456 31.3794C14.3628 31.4967 14.5217 31.5625 14.6875 31.5625H18.75C18.9158 31.5625 19.0747 31.4967 19.1919 31.3794C19.3092 31.2622 19.375 31.1033 19.375 30.9375C19.375 30.7717 19.3092 30.6128 19.1919 30.4956C19.0747 30.3783 18.9158 30.3125 18.75 30.3125Z" fill="white"/>
<path fill-rule="evenodd" clip-rule="evenodd" d="M31.5625 19.805V14.6875C31.5625 14.5217 31.4967 14.3628 31.3794 14.2456C31.2622 14.1283 31.1033 14.0625 30.9375 14.0625H28.7188V11.25H30.9375C31.1033 11.25 31.2622 11.1842 31.3794 11.0669C31.4967 10.9497 31.5625 10.7908 31.5625 10.625V2.5C31.5625 2.33424 31.4967 2.17527 31.3794 2.05806C31.2622 1.94085 31.1033 1.875 30.9375 1.875H2.5C2.33424 1.875 2.17527 1.94085 2.05806 2.05806C1.94085 2.17527 1.875 2.33424 1.875 2.5V10.625C1.875 10.7908 1.94085 10.9497 2.05806 11.0669C2.17527 11.1842 2.33424 11.25 2.5 11.25H4.71875V14.0625H2.5C2.33424 14.0625 2.17527 14.1283 2.05806 14.2456C1.94085 14.3628 1.875 14.5217 1.875 14.6875V22.8125C1.875 22.9783 1.94085 23.1372 2.05806 23.2544C2.17527 23.3717 2.33424 23.4375 2.5 23.4375H4.71875V26.25H2.5C2.33424 26.25 2.17527 26.3158 2.05806 26.4331C1.94085 26.5503 1.875 26.7092 1.875 26.875V35C1.875 35.1658 1.94085 35.3247 2.05806 35.4419C2.17527 35.5592 2.33424 35.625 2.5 35.625H22.3787C23.4101 36.5807 24.6431 37.2921 25.9866 37.7067C27.3301 38.1212 28.7497 38.2283 30.1402 38.0199C31.5307 37.8116 32.8565 37.2931 34.0195 36.5029C35.1825 35.7128 36.1528 34.6712 36.8587 33.4552C37.5646 32.2392 37.9879 30.88 38.0974 29.4783C38.2069 28.0765 37.9996 26.6681 37.491 25.3573C36.9824 24.0465 36.1855 22.8669 35.1593 21.9058C34.1331 20.9446 32.9038 20.2267 31.5625 19.805ZM3.125 10V3.125H30.3125V10H3.125ZM27.4688 11.25V14.0625H5.96875V11.25H27.4688ZM3.125 22.1875V15.3125H30.3125V19.505C28.8222 19.2543 27.2934 19.3673 25.8562 19.8343C24.4189 20.3014 23.1158 21.1087 22.0575 22.1875H3.125ZM21.0262 23.4375C20.4349 24.2952 19.9913 25.2458 19.7137 26.25H5.96875V23.4375H21.0262ZM3.125 34.375V27.5H19.4575C19.4025 27.9144 19.3749 28.332 19.375 28.75C19.3718 30.779 20.0301 32.7537 21.25 34.375H3.125ZM28.75 36.875C27.143 36.875 25.5721 36.3985 24.236 35.5057C22.8998 34.6129 21.8584 33.344 21.2435 31.8593C20.6285 30.3747 20.4676 28.741 20.7811 27.1649C21.0946 25.5888 21.8685 24.1411 23.0048 23.0048C24.1411 21.8685 25.5888 21.0946 27.1649 20.7811C28.741 20.4676 30.3747 20.6285 31.8593 21.2435C33.344 21.8584 34.6129 22.8998 35.5057 24.236C36.3985 25.5721 36.875 27.143 36.875 28.75C36.874 30.9046 36.0177 32.9706 34.4941 34.4941C32.9706 36.0177 30.9046 36.874 28.75 36.875Z" fill="white"/>
</svg>
