<svg width="50" height="50" viewBox="0 0 50 50" fill="none" xmlns="http://www.w3.org/2000/svg">
<g id="Frame" clip-path="url(#clip0_11387_7210)">
<g id="Group">
<path id="Vector" d="M25.4474 0.922711C25.3162 0.83095 25.1599 0.781738 24.9998 0.781738C24.8396 0.781738 24.6834 0.83095 24.5521 0.922711L1.11463 17.329C1.02881 17.389 0.955946 17.4657 0.90036 17.5545C0.844773 17.6432 0.807603 17.7423 0.791059 17.8457C0.774514 17.9491 0.778934 18.0548 0.804054 18.1565C0.829175 18.2581 0.874484 18.3537 0.937287 18.4376L3.28104 21.5626C3.40289 21.7252 3.5833 21.8339 3.784 21.8657C3.9847 21.8975 4.18989 21.8499 4.35604 21.7329L6.24979 20.3993V48.4376C6.24979 48.6448 6.3321 48.8435 6.47861 48.99C6.62512 49.1365 6.82384 49.2188 7.03104 49.2188H42.9685C43.1757 49.2188 43.3745 49.1365 43.521 48.99C43.6675 48.8435 43.7498 48.6448 43.7498 48.4376V20.4001L45.6428 21.7329C45.809 21.8501 46.0143 21.8979 46.2152 21.8661C46.4161 21.8343 46.5967 21.7254 46.7185 21.5626L49.0623 18.4376C49.1251 18.3537 49.1704 18.2581 49.1955 18.1565C49.2206 18.0548 49.2251 17.9491 49.2085 17.8457C49.192 17.7423 49.1548 17.6432 49.0992 17.5545C49.0436 17.4657 48.9708 17.389 48.8849 17.329L25.4474 0.922711ZM16.406 32.0313H14.8435V18.7501C14.8435 18.5429 14.9258 18.3441 15.0724 18.1976C15.2189 18.0511 15.4176 17.9688 15.6248 17.9688C15.832 17.9688 16.0307 18.0511 16.1772 18.1976C16.3237 18.3441 16.406 18.5429 16.406 18.7501V32.0313ZM14.0623 33.5938H17.1873C17.3945 33.5938 17.5932 33.6761 17.7397 33.8226C17.8862 33.9691 17.9685 34.1679 17.9685 34.3751V35.1563H13.281V34.3751C13.281 34.1679 13.3633 33.9691 13.5099 33.8226C13.6564 33.6761 13.8551 33.5938 14.0623 33.5938ZM19.531 36.7188C19.7382 36.7188 19.937 36.8011 20.0835 36.9476C20.23 37.0941 20.3123 37.2929 20.3123 37.5001V38.2813H10.9373V37.5001C10.9373 37.2929 11.0196 37.0941 11.1661 36.9476C11.3126 36.8011 11.5113 36.7188 11.7185 36.7188H19.531ZM11.567 39.8438H13.6443L14.3248 40.8649C14.6631 41.3722 14.8436 41.9684 14.8436 42.5782C14.8436 43.188 14.6631 43.7841 14.3248 44.2915L13.4123 45.6602L14.7123 46.5274L15.6248 45.1563C16.1332 44.3926 16.4045 43.4956 16.4045 42.5782C16.4045 41.6607 16.1332 40.7638 15.6248 40.0001L15.5217 39.8438H16.7717L17.4521 40.8649C17.7904 41.3722 17.9709 41.9684 17.9709 42.5782C17.9709 43.188 17.7904 43.7841 17.4521 44.2915L16.5396 45.6602L17.8396 46.5274L18.7498 45.1563C19.2582 44.3926 19.5295 43.4956 19.5295 42.5782C19.5295 41.6607 19.2582 40.7638 18.7498 40.0001L18.6467 39.8438H20.6779L20.7904 40.0133C21.4238 40.9625 21.7948 42.0623 21.8657 43.2011C21.9367 44.34 21.705 45.4773 21.1943 46.4977L20.6107 47.6563H11.4201L11.6545 47.1922C12.2097 46.0767 12.4991 44.8477 12.4998 43.6016C12.5011 42.2915 12.1808 41.0012 11.567 39.8438ZM42.1873 47.6563H22.3576L22.592 47.1922C23.2253 45.9258 23.5124 44.5145 23.4244 43.1013C23.3363 41.6881 22.8761 40.3233 22.0904 39.1454L21.8748 38.8282V37.5001C21.8748 36.8785 21.6279 36.2823 21.1883 35.8428C20.7488 35.4032 20.1526 35.1563 19.531 35.1563V34.3751C19.529 33.892 19.3778 33.4214 19.0982 33.0276C18.8185 32.6338 18.4239 32.3361 17.9685 32.1751V18.7501C17.9685 18.1285 17.7216 17.5323 17.2821 17.0928C16.8425 16.6532 16.2464 16.4063 15.6248 16.4063C15.0032 16.4063 14.407 16.6532 13.9675 17.0928C13.528 17.5323 13.281 18.1285 13.281 18.7501V32.1751C12.8256 32.3361 12.4311 32.6338 12.1514 33.0276C11.8717 33.4214 11.7205 33.892 11.7185 34.3751V35.1563C11.0969 35.1563 10.5008 35.4032 10.0613 35.8428C9.62172 36.2823 9.37479 36.8785 9.37479 37.5001V39.0626H9.37869C9.37717 39.2165 9.4215 39.3675 9.50604 39.4961L9.85057 40.0133C10.5602 41.0754 10.9384 42.3243 10.9373 43.6016C10.9358 44.6049 10.7021 45.5943 10.2545 46.4922L9.67323 47.6563H7.81229V19.2969L24.9998 7.20474L42.1873 19.3008V47.6563ZM45.9224 20.0188L25.4498 5.61021C25.3181 5.51741 25.1609 5.46759 24.9998 5.46759C24.8387 5.46759 24.6815 5.51741 24.5498 5.61021L4.07557 20.0188L2.66932 18.1438L24.9998 2.51646L47.3279 18.1461L45.9224 20.0188Z" fill="#3CA200"/>
<path id="Vector_2" d="M21.0938 14.0625V18.75C21.0938 18.9572 21.1761 19.1559 21.3226 19.3024C21.4691 19.4489 21.6678 19.5313 21.875 19.5313H28.125C28.3322 19.5313 28.5309 19.4489 28.6774 19.3024C28.8239 19.1559 28.9062 18.9572 28.9062 18.75V14.0625C28.9062 13.0265 28.4947 12.0329 27.7621 11.3004C27.0296 10.5678 26.036 10.1563 25 10.1563C23.964 10.1563 22.9704 10.5678 22.2379 11.3004C21.5053 12.0329 21.0938 13.0265 21.0938 14.0625ZM27.3438 14.0625V17.9688H22.6562V14.0625C22.6562 13.4409 22.9032 12.8448 23.3427 12.4052C23.7823 11.9657 24.3784 11.7188 25 11.7188C25.6216 11.7188 26.2177 11.9657 26.6573 12.4052C27.0968 12.8448 27.3438 13.4409 27.3438 14.0625ZM24.943 28.9953C24.7061 28.9361 24.4629 28.9062 24.2188 28.9063C23.8084 28.9127 23.4033 28.9999 23.0266 29.163C22.6499 29.326 22.3091 29.5616 22.0235 29.8563C21.7378 30.1511 21.5131 30.4992 21.362 30.8808C21.2109 31.2625 21.1365 31.6701 21.143 32.0805C21.1494 32.4909 21.2367 32.8959 21.3997 33.2726C21.5627 33.6493 21.7983 33.9902 22.0931 34.2758C22.3878 34.5614 22.7359 34.7861 23.1176 34.9372C23.4992 35.0883 23.9068 35.1627 24.3172 35.1563C24.5067 35.8934 24.9588 36.5361 25.5885 36.9636C26.2183 37.3911 26.9824 37.5741 27.7375 37.4782C28.4925 37.3823 29.1867 37.0141 29.6896 36.4428C30.1924 35.8714 30.4695 35.1361 30.4688 34.375V34.3578C30.9192 34.0197 31.291 33.588 31.5586 33.0924C31.8262 32.5968 31.9832 32.0491 32.0188 31.487C32.0544 30.9249 31.9678 30.3618 31.7648 29.8364C31.5619 29.311 31.2475 28.8358 30.8434 28.4435C30.4392 28.0513 29.9548 27.7513 29.4235 27.5642C28.8923 27.3772 28.3268 27.3074 27.766 27.3599C27.2052 27.4123 26.6625 27.5857 26.1751 27.868C25.6878 28.1503 25.2674 28.5349 24.943 28.9953ZM30.4688 31.25C30.4657 31.6649 30.3526 32.0716 30.1409 32.4284C29.9293 32.7853 29.6267 33.0796 29.2641 33.2812C29.122 33.3601 29.008 33.4812 28.938 33.6278C28.868 33.7744 28.8454 33.9392 28.8734 34.0992C28.8927 34.19 28.9037 34.2823 28.9062 34.375C28.9092 34.7894 28.7473 35.188 28.4563 35.4831C28.1654 35.7781 27.7691 35.9455 27.3547 35.9484C26.9403 35.9513 26.5417 35.7895 26.2466 35.4985C25.9516 35.2076 25.7842 34.8113 25.7812 34.3969C25.7812 34.3773 25.7937 34.2945 25.7945 34.275C25.801 34.1685 25.7857 34.0617 25.7493 33.9614C25.713 33.861 25.6565 33.7692 25.5833 33.6915C25.5101 33.6138 25.4217 33.552 25.3237 33.5098C25.2257 33.4676 25.12 33.4459 25.0133 33.4461C24.9221 33.4458 24.8317 33.4617 24.7461 33.493C24.5776 33.5574 24.3991 33.5915 24.2188 33.5938C23.9828 33.5943 23.7499 33.5412 23.5375 33.4386C23.3251 33.3359 23.1387 33.1863 22.9926 33.0012C22.8464 32.816 22.7442 32.6 22.6936 32.3696C22.6431 32.1392 22.6456 31.9003 22.7009 31.6709C22.7561 31.4416 22.8628 31.2278 23.0128 31.0456C23.1627 30.8635 23.3521 30.7179 23.5666 30.6196C23.7811 30.5214 24.0151 30.4731 24.251 30.4785C24.4868 30.4839 24.7184 30.5428 24.9281 30.6508C25.0221 30.6994 25.1249 30.7284 25.2304 30.7361C25.3359 30.7438 25.4419 30.73 25.5419 30.6956C25.6419 30.6611 25.7339 30.6066 25.8122 30.5356C25.8905 30.4645 25.9536 30.3782 25.9977 30.282C26.2179 29.794 26.5988 29.3963 27.0769 29.1554C27.555 28.9144 28.1014 28.8447 28.6246 28.958C29.1479 29.0713 29.6165 29.3607 29.9521 29.7778C30.2877 30.195 30.4701 30.7146 30.4688 31.25ZM30.4648 41.5391C30.4648 41.4945 30.4688 41.4508 30.4688 41.4063C30.4688 41.0752 30.3988 40.7478 30.2632 40.4458C30.1276 40.1438 29.9296 39.8739 29.6821 39.6539C29.4347 39.434 29.1434 39.2689 28.8276 39.1697C28.5117 39.0704 28.1784 39.0392 27.8496 39.0781C27.5209 39.117 27.204 39.2251 26.9201 39.3953C26.6361 39.5655 26.3914 39.794 26.2021 40.0656C26.0128 40.3372 25.8832 40.6459 25.8219 40.9712C25.7605 41.2966 25.7688 41.6312 25.8461 41.9531C25.3945 42.3278 25.1003 42.8585 25.0218 43.4399C24.9433 44.0214 25.0863 44.6111 25.4224 45.0921C25.7585 45.573 26.2631 45.91 26.8361 46.0363C27.4091 46.1625 28.0086 46.0687 28.5156 45.7734C28.798 45.9403 29.1123 46.0461 29.4381 46.0839C29.7639 46.1217 30.0941 46.0906 30.4071 45.9928C30.7202 45.895 31.0093 45.7325 31.2556 45.5159C31.502 45.2993 31.7001 45.0334 31.8372 44.7355C31.9743 44.4375 32.0474 44.1141 32.0516 43.7861C32.0559 43.4581 31.9912 43.1329 31.8619 42.8314C31.7325 42.53 31.5413 42.2591 31.3007 42.0362C31.06 41.8133 30.7753 41.6434 30.4648 41.5375V41.5391ZM29.6875 44.5313C29.5763 44.5304 29.4666 44.5057 29.3658 44.4588C29.265 44.4119 29.1754 44.3439 29.1031 44.2594C29.0298 44.1762 28.9396 44.1097 28.8386 44.0641C28.7376 44.0185 28.628 43.9949 28.5172 43.9949C28.4063 43.9949 28.2968 44.0185 28.1958 44.0641C28.0947 44.1097 28.0046 44.1762 27.9312 44.2594C27.8533 44.3497 27.7556 44.4208 27.6457 44.4673C27.5358 44.5138 27.4167 44.5343 27.2976 44.5272C27.1785 44.5202 27.0626 44.4858 26.9589 44.4268C26.8553 44.3677 26.7666 44.2856 26.6998 44.1867C26.6331 44.0878 26.5899 43.9749 26.5739 43.8567C26.5578 43.7385 26.5692 43.6181 26.6071 43.505C26.6451 43.3919 26.7086 43.2891 26.7927 43.2045C26.8768 43.1199 26.9793 43.0558 27.0922 43.0172C27.2047 42.9777 27.3067 42.913 27.3903 42.8281C27.474 42.7431 27.5371 42.6401 27.5748 42.527C27.6125 42.4139 27.6238 42.2937 27.6079 42.1755C27.5919 42.0573 27.5491 41.9444 27.4828 41.8453C27.4035 41.7295 27.3569 41.5944 27.3478 41.4543C27.3388 41.3141 27.3677 41.1742 27.4315 41.0491C27.4953 40.924 27.5916 40.8184 27.7103 40.7435C27.829 40.6685 27.9657 40.6269 28.1061 40.623C28.2464 40.6192 28.3852 40.6532 28.5079 40.7216C28.6305 40.79 28.7325 40.8901 28.803 41.0115C28.8735 41.1329 28.91 41.2711 28.9087 41.4115C28.9073 41.5519 28.8682 41.6894 28.7953 41.8094C28.7212 41.9368 28.6846 42.0827 28.6898 42.2301C28.6951 42.3774 28.742 42.5203 28.825 42.6422C28.9096 42.7655 29.0271 42.8627 29.164 42.9229C29.3009 42.9831 29.4519 43.0038 29.6 42.9828C29.7089 42.9632 29.8206 42.9669 29.928 42.9937C30.0353 43.0205 30.1357 43.0698 30.2225 43.1383C30.3093 43.2069 30.3806 43.293 30.4317 43.3912C30.4827 43.4893 30.5124 43.5972 30.5186 43.7076C30.5248 43.818 30.5075 43.9285 30.4679 44.0318C30.4282 44.1351 30.3671 44.2287 30.2885 44.3066C30.21 44.3844 30.1158 44.4447 30.0121 44.4835C29.9085 44.5222 29.7979 44.5385 29.6875 44.5313ZM32.0961 36.4844C31.6445 36.859 31.3503 37.3897 31.2718 37.9712C31.1933 38.5526 31.3363 39.1424 31.6724 39.6233C32.0085 40.1043 32.5131 40.4413 33.0861 40.5675C33.6591 40.6937 34.2586 40.5999 34.7656 40.3047C35.0479 40.4717 35.362 40.5775 35.6877 40.6155C36.0134 40.6535 36.3435 40.6226 36.6565 40.525C36.9696 40.4275 37.2587 40.2652 37.5052 40.0489C37.7516 39.8326 37.9499 39.5669 38.0873 39.2692C38.2246 38.9714 38.2979 38.6481 38.3025 38.3202C38.3071 37.9923 38.2428 37.6671 38.1138 37.3656C37.9849 37.0642 37.794 36.7931 37.5537 36.57C37.3134 36.3468 37.029 36.1766 36.7188 36.0703C36.7188 36.0258 36.7227 35.982 36.7227 35.9375C36.7227 35.6064 36.6527 35.2791 36.5171 34.977C36.3815 34.675 36.1835 34.4051 35.936 34.1852C35.6886 33.9652 35.3973 33.8002 35.0815 33.7009C34.7656 33.6017 34.4323 33.5705 34.1036 33.6094C33.7748 33.6483 33.458 33.7564 33.174 33.9266C32.89 34.0968 32.6453 34.3252 32.456 34.5969C32.2667 34.8685 32.1371 35.1771 32.0758 35.5025C32.0144 35.8278 32.0227 36.1625 32.1 36.4844H32.0961ZM33.3391 37.5469C33.4516 37.5074 33.5536 37.4427 33.6372 37.3578C33.7209 37.2728 33.784 37.1698 33.8217 37.0567C33.8594 36.9436 33.8707 36.8233 33.8547 36.7052C33.8388 36.587 33.796 36.4741 33.7297 36.375C33.6504 36.2591 33.6037 36.1241 33.5947 35.9839C33.5857 35.8438 33.6146 35.7039 33.6784 35.5788C33.7421 35.4537 33.8385 35.3481 33.9572 35.2731C34.0759 35.1982 34.2126 35.1566 34.353 35.1527C34.4933 35.1489 34.6321 35.1829 34.7547 35.2513C34.8774 35.3197 34.9793 35.4198 35.0499 35.5412C35.1204 35.6626 35.1569 35.8008 35.1556 35.9412C35.1542 36.0816 35.115 36.219 35.0422 36.3391C34.968 36.4665 34.9315 36.6124 34.9367 36.7598C34.942 36.9071 34.9888 37.05 35.0719 37.1719C35.1563 37.2954 35.2737 37.3928 35.4107 37.453C35.5477 37.5132 35.6988 37.5338 35.8469 37.5125C35.9813 37.4943 36.1182 37.5114 36.244 37.5621C36.3699 37.6129 36.4803 37.6955 36.5645 37.8019C36.6487 37.9083 36.7037 38.0348 36.7241 38.169C36.7446 38.3031 36.7297 38.4402 36.6811 38.5669C36.6324 38.6935 36.5516 38.8053 36.4466 38.8913C36.3416 38.9772 36.216 39.0343 36.0823 39.057C35.9485 39.0796 35.8111 39.067 35.6837 39.0205C35.5562 38.9739 35.4431 38.895 35.3555 38.7914C35.2822 38.7083 35.192 38.6417 35.091 38.5961C34.9899 38.5505 34.8804 38.5269 34.7695 38.5269C34.6587 38.5269 34.5491 38.5505 34.4481 38.5961C34.3471 38.6417 34.2569 38.7083 34.1836 38.7914C34.1056 38.8817 34.0079 38.9529 33.898 38.9993C33.7881 39.0458 33.669 39.0663 33.5499 39.0593C33.4308 39.0522 33.3149 39.0179 33.2113 38.9588C33.1076 38.8997 33.019 38.8176 32.9522 38.7187C32.8854 38.6199 32.8423 38.5069 32.8262 38.3887C32.8101 38.2705 32.8215 38.1502 32.8595 38.037C32.8974 37.9239 32.9609 37.8211 33.045 37.7365C33.1292 37.6519 33.2316 37.5878 33.3445 37.5492L33.3391 37.5469ZM1.5625 7.03125C2.59812 7.03249 3.59097 7.44444 4.32327 8.17673C5.05556 8.90903 5.46751 9.90188 5.46875 10.9375C5.46875 11.1447 5.55106 11.3434 5.69757 11.4899C5.84409 11.6364 6.0428 11.7188 6.25 11.7188C6.4572 11.7188 6.65591 11.6364 6.80243 11.4899C6.94894 11.3434 7.03125 11.1447 7.03125 10.9375C7.03249 9.90188 7.44444 8.90903 8.17673 8.17673C8.90903 7.44444 9.90188 7.03249 10.9375 7.03125C11.1447 7.03125 11.3434 6.94894 11.4899 6.80243C11.6364 6.65591 11.7188 6.4572 11.7188 6.25C11.7188 6.0428 11.6364 5.84409 11.4899 5.69757C11.3434 5.55106 11.1447 5.46875 10.9375 5.46875C9.9015 5.46875 8.90793 5.0572 8.17536 4.32464C7.4428 3.59207 7.03125 2.5985 7.03125 1.5625C7.03125 1.3553 6.94894 1.15659 6.80243 1.01007C6.65591 0.86356 6.4572 0.78125 6.25 0.78125C6.0428 0.78125 5.84409 0.86356 5.69757 1.01007C5.55106 1.15659 5.46875 1.3553 5.46875 1.5625C5.46759 2.59086 5.06144 3.57739 4.33824 4.30849C3.61503 5.03959 2.63298 5.45643 1.60469 5.46875H1.5625C1.3553 5.46875 1.15659 5.55106 1.01007 5.69757C0.86356 5.84409 0.78125 6.0428 0.78125 6.25C0.78125 6.4572 0.86356 6.65591 1.01007 6.80243C1.15659 6.94894 1.3553 7.03125 1.5625 7.03125ZM5.42969 5.42969C5.7447 5.11425 6.02016 4.76166 6.25 4.37969C6.71383 5.14615 7.35738 5.78809 8.125 6.25C7.35677 6.71316 6.71316 7.35677 6.25 8.125C5.78831 7.35721 5.14632 6.71361 4.37969 6.25C4.76181 6.02038 5.11443 5.7449 5.42969 5.42969ZM39.0625 7.03125C40.0981 7.03249 41.091 7.44444 41.8233 8.17673C42.5556 8.90903 42.9675 9.90188 42.9688 10.9375C42.9688 11.1447 43.0511 11.3434 43.1976 11.4899C43.3441 11.6364 43.5428 11.7188 43.75 11.7188C43.9572 11.7188 44.1559 11.6364 44.3024 11.4899C44.4489 11.3434 44.5312 11.1447 44.5312 10.9375C44.5325 9.90188 44.9444 8.90903 45.6767 8.17673C46.409 7.44444 47.4019 7.03249 48.4375 7.03125C48.6447 7.03125 48.8434 6.94894 48.9899 6.80243C49.1364 6.65591 49.2188 6.4572 49.2188 6.25C49.2188 6.0428 49.1364 5.84409 48.9899 5.69757C48.8434 5.55106 48.6447 5.46875 48.4375 5.46875C47.4015 5.46875 46.4079 5.0572 45.6754 4.32464C44.9428 3.59207 44.5312 2.5985 44.5312 1.5625C44.5312 1.3553 44.4489 1.15659 44.3024 1.01007C44.1559 0.86356 43.9572 0.78125 43.75 0.78125C43.5428 0.78125 43.3441 0.86356 43.1976 1.01007C43.0511 1.15659 42.9688 1.3553 42.9688 1.5625C42.9676 2.59086 42.5614 3.57739 41.8382 4.30849C41.115 5.03959 40.133 5.45643 39.1047 5.46875H39.0625C38.8553 5.46875 38.6566 5.55106 38.5101 5.69757C38.3636 5.84409 38.2812 6.0428 38.2812 6.25C38.2812 6.4572 38.3636 6.65591 38.5101 6.80243C38.6566 6.94894 38.8553 7.03125 39.0625 7.03125ZM42.9297 5.42969C43.2447 5.11425 43.5202 4.76166 43.75 4.37969C44.2138 5.14615 44.8574 5.78809 45.625 6.25C44.8568 6.71316 44.2132 7.35677 43.75 8.125C43.2883 7.35721 42.6463 6.71361 41.8797 6.25C42.2618 6.02038 42.6144 5.7449 42.9297 5.42969Z" fill="#3CA200"/>
</g>
</g>
<defs>
<clipPath id="clip0_11387_7210">
<rect width="50" height="50" fill="white"/>
</clipPath>
</defs>
</svg>
