<svg width="90" height="90" viewBox="0 0 90 90" fill="none" xmlns="http://www.w3.org/2000/svg">
<path d="M44.9806 89.9613C33.4562 89.9613 21.9325 85.5744 13.1595 76.8014C-4.38651 59.2546 -4.38651 30.706 13.1595 13.1592C30.7048 -4.38522 59.2548 -4.38759 76.8016 13.1592C94.3477 30.706 94.3477 59.2546 76.8016 76.8014C68.0286 85.5744 56.5042 89.9613 44.9806 89.9613ZM44.9798 2.35131C33.5938 2.35131 22.8879 6.78566 14.8369 14.8366C-1.78458 31.4581 -1.78458 58.5024 14.8369 75.1231C31.4592 91.7438 58.5019 91.7446 75.1234 75.1231C83.1752 67.0714 87.6087 56.3663 87.6087 44.9803C87.6087 33.5927 83.1744 22.8876 75.1234 14.8366C67.0725 6.78566 56.3674 2.35131 44.9798 2.35131Z" fill="white"/>
<path d="M47.0559 90.0001C39.016 90.0009 30.9571 87.1024 24.5939 81.2358C18.0827 75.2323 14.2984 67.0533 13.9386 58.2036C13.5796 49.3554 16.6884 40.8948 22.6911 34.3844C23.0311 34.0143 23.3791 33.6536 23.7334 33.3025C24.1977 32.8414 24.9498 32.843 25.4108 33.3089C25.8727 33.7731 25.8695 34.5244 25.4045 34.9863C25.0763 35.3129 24.7528 35.6474 24.4349 35.9922C18.8601 42.0391 15.9751 49.8924 16.3088 58.1087C16.6426 66.3249 20.1556 73.9187 26.2009 79.4927C38.6815 90.9981 58.1952 90.2057 69.7006 77.7267C75.2746 71.6806 78.1596 63.8266 77.8259 55.6103C77.4922 47.3949 73.9792 39.801 67.9338 34.2271C62.8731 29.561 56.5826 26.7819 49.7424 26.1903C49.09 26.1342 48.6068 25.5592 48.6629 24.9067C48.7191 24.2535 49.3059 23.7655 49.9465 23.8272C57.3149 24.4639 64.0918 27.4572 69.5416 32.4831C76.0528 38.4858 79.837 46.6649 80.1969 55.5146C80.5559 64.3636 77.4471 72.8234 71.4444 79.3346C64.9198 86.412 55.9997 89.9993 47.0559 90.0001Z" fill="white"/>
<path d="M37.4119 31.7129C36.0738 31.7129 34.8163 31.1917 33.8704 30.2458C31.9186 28.294 31.9178 25.1179 33.8704 23.1645C35.8231 21.2126 38.9992 21.2111 40.9518 23.1645C42.9036 25.1171 42.9036 28.2932 40.9518 30.2458C40.0067 31.1917 38.7485 31.7129 37.4119 31.7129ZM37.4119 24.0708C36.7365 24.0708 36.0619 24.3278 35.5486 24.8419C34.5213 25.87 34.5213 27.5411 35.5486 28.5684C36.5443 29.5641 38.2779 29.5649 39.2752 28.5684C40.3025 27.5411 40.3025 25.87 39.2752 24.8419C38.7611 24.3286 38.0857 24.0708 37.4119 24.0708Z" fill="white"/>
</svg>
