<svg width="40" height="40" viewBox="0 0 40 40" fill="none" xmlns="http://www.w3.org/2000/svg">
<path d="M39.1663 23.3335C39.1663 21.3206 37.9682 19.586 36.2497 18.7941V18.3335C36.2497 9.37313 28.96 2.0835 19.9997 2.0835C11.0393 2.0835 3.74967 9.37313 3.74967 18.3335V18.7941C2.03118 19.586 0.833008 21.3206 0.833008 23.3335C0.833008 26.0905 3.07585 28.3335 5.83301 28.3335H7.49967C7.95988 28.3335 8.33301 27.9604 8.33301 27.5002V19.1668C8.33301 18.7066 7.95988 18.3335 7.49967 18.3335H5.83301C5.69237 18.3335 5.55408 18.3432 5.41634 18.3546V18.3335C5.41634 10.2923 11.9585 3.75016 19.9997 3.75016C28.0409 3.75016 34.583 10.2923 34.583 18.3335V18.3546C34.4453 18.3432 34.307 18.3335 34.1663 18.3335H32.4997C32.0395 18.3335 31.6663 18.7066 31.6663 19.1668V27.5002C31.6663 27.9604 32.0395 28.3335 32.4997 28.3335H34.1663C34.307 28.3335 34.4453 28.3238 34.583 28.3124V29.5835C34.583 32.3405 32.3402 34.5835 29.583 34.5835H23.333C23.333 33.6645 22.5855 32.9168 21.6663 32.9168H17.4997C16.5805 32.9168 15.833 33.6645 15.833 34.5835V36.2502C15.833 37.1691 16.5805 37.9168 17.4997 37.9168H21.6663C22.5855 37.9168 23.333 37.1691 23.333 36.2502H29.583C33.2589 36.2502 36.2497 33.2594 36.2497 29.5835V27.8729C37.9682 27.081 39.1663 25.3464 39.1663 23.3335ZM6.66634 20.0002V26.6668H5.83301C3.99504 26.6668 2.49967 25.1715 2.49967 23.3335C2.49967 21.4955 3.99504 20.0002 5.83301 20.0002H6.66634ZM17.4997 36.2502V34.5835H21.6663L21.667 35.4108C21.6669 35.4129 21.6663 35.4148 21.6663 35.4168C21.6663 35.4189 21.6669 35.4208 21.667 35.4229L21.6676 36.2502H17.4997ZM34.1663 26.6668H33.333V20.0002H34.1663C36.0043 20.0002 37.4997 21.4955 37.4997 23.3335C37.4997 25.1715 36.0043 26.6668 34.1663 26.6668ZM19.9997 28.7502C25.0542 28.7502 29.1663 24.638 29.1663 19.5835C29.1663 14.529 25.0542 10.4168 19.9997 10.4168C14.9451 10.4168 10.833 14.529 10.833 19.5835C10.833 21.2188 11.2712 22.8171 12.1038 24.2277L11.2647 28.5929C11.2065 28.896 11.3205 29.2065 11.5614 29.4C11.7119 29.5208 11.8966 29.5835 12.083 29.5835C12.1949 29.5835 12.3072 29.5611 12.4134 29.5153L16.1549 27.9003C17.3678 28.4645 18.6593 28.7502 19.9997 28.7502ZM13.1987 27.361L13.8014 24.2244C13.8416 24.0146 13.8001 23.7976 13.685 23.6177C12.9094 22.4072 12.4997 21.0121 12.4997 19.5835C12.4997 15.448 15.8643 12.0835 19.9997 12.0835C24.135 12.0835 27.4997 15.448 27.4997 19.5835C27.4997 23.719 24.135 27.0835 19.9997 27.0835C18.7948 27.0835 17.6376 26.8007 16.5601 26.243C16.3384 26.1281 16.0763 26.1185 15.8468 26.218L13.1987 27.361ZM19.9997 22.0835H15.833C15.3728 22.0835 14.9997 21.7104 14.9997 21.2502C14.9997 20.79 15.3728 20.4168 15.833 20.4168H19.9997C20.4599 20.4168 20.833 20.79 20.833 21.2502C20.833 21.7104 20.4599 22.0835 19.9997 22.0835ZM14.9997 17.9168C14.9997 17.4566 15.3728 17.0835 15.833 17.0835H24.1663C24.6265 17.0835 24.9997 17.4566 24.9997 17.9168C24.9997 18.377 24.6265 18.7502 24.1663 18.7502H15.833C15.3728 18.7502 14.9997 18.377 14.9997 17.9168Z" fill="white"/>
</svg>
