<svg width="101" height="80" viewBox="0 0 101 80" fill="none" xmlns="http://www.w3.org/2000/svg">
<path d="M50.5205 80.0001C50.1908 80.0001 49.8746 79.8635 49.6487 79.6232L0.326788 27.2754C-0.0348927 26.8922 -0.102757 26.3157 0.15992 25.8582L12.9233 3.62804C13.1373 3.25598 13.5333 3.02679 13.9621 3.02679H20.6695C21.3306 3.02679 21.8671 3.56333 21.8671 4.22441C21.8671 4.8855 21.3306 5.42203 20.6695 5.42203H14.6551L2.6797 26.2797L50.5173 77.0516L97.9398 26.3157L84.6119 5.42203H37.5056C36.8445 5.42203 36.308 4.8855 36.308 4.22441C36.308 3.56333 36.8445 3.02679 37.5056 3.02679H85.2674C85.677 3.02679 86.057 3.23597 86.2774 3.58009L100.459 25.8103C100.753 26.271 100.697 26.873 100.324 27.2722L51.3956 79.62C51.1696 79.8619 50.8535 79.9993 50.5229 79.9993L50.5205 80.0001Z" fill="white"/>
<path d="M1.19758 27.6528C0.649073 27.6528 0.154852 27.2744 0.0295016 26.7179C-0.115809 26.0736 0.289785 25.4324 0.9357 25.2863L59.9702 12.0007C60.6153 11.8546 61.2557 12.2618 61.4018 12.907C61.5471 13.5521 61.1415 14.1925 60.4956 14.3386L1.46106 27.6242C1.37243 27.6433 1.28381 27.6528 1.19758 27.6528Z" fill="white"/>
<path d="M99.4485 27.6527C99.3144 27.6527 99.1779 27.6304 99.0437 27.5825L37.1006 5.35233C36.4786 5.12878 36.1553 4.44289 36.378 3.82013C36.6008 3.19737 37.2842 2.87399 37.9102 3.09754L99.8533 25.3277C100.475 25.5513 100.799 26.2372 100.576 26.8599C100.401 27.3486 99.9403 27.6527 99.4485 27.6527Z" fill="white"/>
<path d="M29.4189 9.58094C26.7769 9.58094 24.6284 7.43241 24.6284 4.79047C24.6284 2.14852 26.7769 0 29.4189 0C32.0608 0 34.2094 2.14852 34.2094 4.79047C34.2094 7.43241 32.0608 9.58094 29.4189 9.58094ZM29.4189 2.39523C28.0983 2.39523 27.0237 3.4699 27.0237 4.79047C27.0237 6.11104 28.0983 7.1857 29.4189 7.1857C30.7395 7.1857 31.8141 6.11104 31.8141 4.79047C31.8141 3.4699 30.7403 2.39523 29.4189 2.39523Z" fill="white"/>
</svg>
