<svg width="50" height="50" viewBox="0 0 50 50" fill="none" xmlns="http://www.w3.org/2000/svg">
<g id="Frame" clip-path="url(#clip0_11387_7196)">
<g id="Group">
<path id="Vector" d="M48.3871 27.4194H43.5484V16.9355C43.5484 14.7121 41.7395 12.9032 39.5161 12.9032C37.2927 12.9032 35.4839 14.7121 35.4839 16.9355V17.7419H33.871V19.3548H38.7097V17.7419H37.0968V16.9355C37.0968 15.6016 38.1823 14.5161 39.5161 14.5161C40.85 14.5161 41.9355 15.6016 41.9355 16.9355V27.4194H38.7097V25.8065H40.3226V24.1935H35.4839V25.8065H37.0968V27.4194H16.129V29.0323H48.3871V30.6452H16.129V33.871C16.129 34.7605 16.8524 35.4839 17.7419 35.4839H25.8065C26.696 35.4839 27.4194 34.7605 27.4194 33.871V32.2581H29.0323V38.7097H14.4702L11.2903 29.7008V27.4194H12.7726C12.8169 27.4194 12.8589 27.4016 12.9032 27.3976V28.0347C12.9032 29.3387 13.2113 30.6452 13.7944 31.8121L15.2371 31.0903C14.764 30.1414 14.5172 29.0958 14.5161 28.0355V26.925L15.0258 26.7556C15.3472 26.6488 15.6268 26.4435 15.8249 26.1687C16.0229 25.8939 16.1294 25.5637 16.129 25.225V23.1613C16.129 22.4661 15.6855 21.8508 15.0266 21.6323L13.2831 21.0508C13.1185 20.9959 12.9461 20.9679 12.7726 20.9677H3.22581C2.33629 20.9677 1.6129 21.6911 1.6129 22.5806V25.8065C1.6129 26.696 2.33629 27.4194 3.22581 27.4194H4.83871V29.7008L0.251613 42.6984C0.0358377 43.31 -0.0423578 43.9616 0.0226012 44.6069C0.0875601 45.2522 0.294074 45.8752 0.627419 46.4315L1.48548 47.8621C1.87884 48.5126 2.43292 49.0509 3.09447 49.4253C3.75601 49.7997 4.50276 49.9976 5.2629 50H10.8661C11.0089 50 11.1492 49.9855 11.2903 49.9718V50H45.1613C46.0508 50 46.7742 49.2766 46.7742 48.3871V32.2581H48.3871C49.2766 32.2581 50 31.5347 50 30.6452V29.0323C50 28.1427 49.2766 27.4194 48.3871 27.4194ZM25.8065 33.871H17.7419V32.2581H25.8065V33.871ZM33.871 32.2581H41.9355V33.871H33.871V32.2581ZM45.1613 40.3226V41.9355H15.6081L15.0387 40.3226H45.1613ZM14.5161 23.1621V25.2258L12.9032 25.7629V22.625L14.5161 23.1621ZM3.22581 22.5806H11.2903V25.8065H3.22581V22.5806ZM9.67742 27.4194V29.0323H6.45161V27.4194H9.67742ZM6.21532 30.6452H9.9129L14.3565 43.2355C14.3927 43.3379 14.4137 43.4427 14.4379 43.5484H1.69032C1.71452 43.4436 1.73548 43.3379 1.77177 43.2355L6.21532 30.6452ZM5.2629 48.3871C4.78113 48.3856 4.30786 48.2601 3.88865 48.0226C3.46944 47.7852 3.11841 47.4439 2.86935 47.0315L2.01129 45.6008C1.92876 45.4608 1.85886 45.3137 1.80242 45.1613H14.3266C14.2701 45.3135 14.2005 45.4606 14.1185 45.6008L13.2605 47.0315C13.0113 47.4439 12.6601 47.7853 12.2408 48.0227C11.8214 48.2602 11.348 48.3856 10.8661 48.3871H5.2629ZM14.2669 48.3871C14.4053 48.2216 14.5311 48.0461 14.6435 47.8621L15.5016 46.4315C15.9121 45.7468 16.129 44.9637 16.129 44.1653C16.1262 43.9587 16.1086 43.7525 16.0766 43.5484H45.1613V48.3871H14.2669ZM45.1613 38.7097H30.6452V32.2581H32.2581V33.871C32.2581 34.7605 32.9815 35.4839 33.871 35.4839H41.9355C42.825 35.4839 43.5484 34.7605 43.5484 33.871V32.2581H45.1613V38.7097ZM4.83871 14.0927V16.9355C4.83871 18.2694 5.92419 19.3548 7.25806 19.3548C8.59194 19.3548 9.67742 18.2694 9.67742 16.9355V14.0927C12.4919 13.0935 14.5161 10.4113 14.5161 7.25806C14.5161 3.25565 11.2597 0 7.25806 0C3.25645 0 0 3.25565 0 7.25806C0 10.4113 2.02419 13.0935 4.83871 14.0927ZM8.06452 16.9355C8.05523 17.1431 7.9662 17.3392 7.81598 17.4828C7.66576 17.6265 7.46592 17.7067 7.25806 17.7067C7.05021 17.7067 6.85037 17.6265 6.70015 17.4828C6.54992 17.3392 6.4609 17.1431 6.45161 16.9355V14.4685C6.71694 14.4984 6.98548 14.5161 7.25806 14.5161C7.53065 14.5161 7.79919 14.4984 8.06452 14.4685V16.9355ZM7.25806 1.6129C10.371 1.6129 12.9032 4.14597 12.9032 7.25806C12.9032 10.3702 10.371 12.9032 7.25806 12.9032C4.14516 12.9032 1.6129 10.3702 1.6129 7.25806C1.6129 4.14597 4.14516 1.6129 7.25806 1.6129Z" fill="#16171A"/>
<path id="Vector_2" d="M7.25784 11.2903C9.48123 11.2903 11.2901 9.48145 11.2901 7.25806C11.2901 5.03468 9.48123 3.22581 7.25784 3.22581C5.03446 3.22581 3.22559 5.03468 3.22559 7.25806C3.22559 9.48145 5.03446 11.2903 7.25784 11.2903ZM7.25784 4.83871C8.59171 4.83871 9.6772 5.92419 9.6772 7.25806C9.6772 8.59194 8.59171 9.67742 7.25784 9.67742C5.92397 9.67742 4.83849 8.59194 4.83849 7.25806C4.83849 5.92419 5.92397 4.83871 7.25784 4.83871ZM14.5159 15.3226V17.7419C14.5159 18.6315 15.2393 19.3548 16.1288 19.3548H20.9675C21.857 19.3548 22.5804 18.6315 22.5804 17.7419V15.3226C22.5789 14.3936 22.2573 13.4934 21.6697 12.7738C21.0822 12.0542 20.2646 11.5591 19.3546 11.3718V9.52903C19.825 9.36324 20.2325 9.05597 20.5213 8.64937C20.81 8.24277 20.9659 7.75677 20.9675 7.25806V2.41935C20.9675 1.08548 19.882 0 18.5482 0C17.2143 0 16.1288 1.08548 16.1288 2.41935V7.25806C16.1288 8.30806 16.8054 9.19516 17.7417 9.52903V11.3718C16.8318 11.5591 16.0142 12.0542 15.4266 12.7738C14.839 13.4934 14.5174 14.3936 14.5159 15.3226ZM20.9675 15.3226L20.9683 17.7419H16.1288V15.3226C16.1288 13.9887 17.2143 12.9032 18.5482 12.9032C19.882 12.9032 20.9675 13.9887 20.9675 15.3226ZM17.7417 2.41935C17.751 2.21171 17.84 2.01565 17.9902 1.872C18.1405 1.72834 18.3403 1.64817 18.5482 1.64817C18.756 1.64817 18.9559 1.72834 19.1061 1.872C19.2563 2.01565 19.3453 2.21171 19.3546 2.41935V7.25806C19.3453 7.46571 19.2563 7.66177 19.1061 7.80542C18.9559 7.94907 18.756 8.02925 18.5482 8.02925C18.3403 8.02925 18.1405 7.94907 17.9902 7.80542C17.84 7.66177 17.751 7.46571 17.7417 7.25806V2.41935ZM23.3869 15.3226C23.3869 17.546 24.8336 19.3548 26.6127 19.3548C28.3917 19.3548 29.8385 17.546 29.8385 15.3226C29.8385 13.4492 28.8062 11.8847 27.4191 11.4339V9.52903C27.8895 9.36324 28.297 9.05597 28.5858 8.64937C28.8746 8.24277 29.0304 7.75677 29.032 7.25806V2.41935C29.032 1.08548 27.9466 0 26.6127 0C25.2788 0 24.1933 1.08548 24.1933 2.41935V7.25806C24.1933 8.30806 24.8699 9.19516 25.8062 9.52903V11.4339C24.4191 11.8847 23.3869 13.4492 23.3869 15.3226ZM28.2256 15.3226C28.2256 16.6339 27.4869 17.7419 26.6127 17.7419C25.7385 17.7419 24.9998 16.6339 24.9998 15.3226C24.9998 14.0113 25.7385 12.9032 26.6127 12.9032C27.4869 12.9032 28.2256 14.0113 28.2256 15.3226ZM25.8062 2.41935C25.8155 2.21171 25.9045 2.01565 26.0548 1.872C26.205 1.72834 26.4048 1.64817 26.6127 1.64817C26.8205 1.64817 27.0204 1.72834 27.1706 1.872C27.3208 2.01565 27.4098 2.21171 27.4191 2.41935V7.25806C27.4098 7.46571 27.3208 7.66177 27.1706 7.80542C27.0204 7.94907 26.8205 8.02925 26.6127 8.02925C26.4048 8.02925 26.205 7.94907 26.0548 7.80542C25.9045 7.66177 25.8155 7.46571 25.8062 7.25806V2.41935ZM35.4837 1.6129H37.0965V4.83871H35.4837V1.6129ZM32.2578 4.83871H35.4837V6.45161H32.2578V4.83871ZM35.4837 6.45161H37.0965V9.67742H35.4837V6.45161ZM37.0965 4.83871H40.3224V6.45161H37.0965V4.83871ZM45.1611 9.67742C46.4949 9.67742 47.5804 8.59194 47.5804 7.25806C47.5804 5.92419 46.4949 4.83871 45.1611 4.83871C43.8272 4.83871 42.7417 5.92419 42.7417 7.25806C42.7417 8.59194 43.8272 9.67742 45.1611 9.67742ZM45.1611 6.45161C45.3208 6.45145 45.477 6.49868 45.6099 6.58732C45.7427 6.67597 45.8463 6.80203 45.9075 6.94957C45.9687 7.09711 45.9848 7.25949 45.9537 7.41616C45.9225 7.57283 45.8456 7.71674 45.7327 7.82969C45.6197 7.94263 45.4758 8.01953 45.3192 8.05066C45.1625 8.08178 45.0001 8.06572 44.8526 8.00453C44.705 7.94333 44.579 7.83973 44.4903 7.70686C44.4017 7.57398 44.3545 7.41779 44.3546 7.25806C44.3546 6.8129 44.7167 6.45161 45.1611 6.45161ZM46.774 14.5161H48.3869V16.129H46.774V14.5161ZM45.1611 16.129H46.774V17.7419H45.1611V16.129ZM46.774 17.7419H48.3869V19.3548H46.774V17.7419ZM48.3869 16.129H49.9998V17.7419H48.3869V16.129ZM20.9675 20.9677H22.5804V22.5806H20.9675V20.9677ZM19.3546 22.5806H20.9675V24.1935H19.3546V22.5806ZM20.9675 24.1935H22.5804V25.8064H20.9675V24.1935ZM22.5804 22.5806H24.1933V24.1935H22.5804V22.5806ZM27.4191 20.9677H29.032V22.5806H27.4191V20.9677Z" fill="#16171A"/>
</g>
</g>
<defs>
<clipPath id="clip0_11387_7196">
<rect width="50" height="50" fill="white"/>
</clipPath>
</defs>
</svg>
