<svg width="79" height="90" viewBox="0 0 79 90" fill="none" xmlns="http://www.w3.org/2000/svg">
<path d="M1.15047 24.2243C0.7535 24.2243 0.36727 24.0182 0.154225 23.6495C-0.163043 23.0993 0.0247208 22.3965 0.574959 22.0793L38.5506 0.154036C38.9069 -0.0513454 39.3438 -0.0513454 39.7001 0.154036L61.1264 12.5244C61.6766 12.8417 61.8644 13.5444 61.5471 14.0947C61.2291 14.6449 60.5256 14.8327 59.9769 14.5154L39.1253 2.47759L1.72448 24.071C1.54362 24.1745 1.34589 24.2243 1.15047 24.2243Z" fill="white"/>
<path d="M39.1256 90C38.9271 90 38.7287 89.9486 38.5509 89.846L0.575249 67.9207C0.219664 67.7153 0.000488281 67.3359 0.000488281 66.9252V23.0747C0.000488281 22.4401 0.515474 21.9252 1.15001 21.9252C1.78455 21.9252 2.29953 22.4401 2.29953 23.0747V66.2615L39.1256 87.5231L75.9525 66.2615V25.2021L63.0441 33.6534C62.5153 34.0013 61.8018 33.8541 61.4531 33.3208C61.1052 32.7905 61.2539 32.0778 61.7857 31.7298L76.4728 22.1129C76.8246 21.8807 77.2775 21.8615 77.6484 22.0631C78.0201 22.2639 78.2515 22.6524 78.2515 23.0739V66.9244C78.2515 67.3352 78.0323 67.7145 77.6768 67.9199L39.7004 89.8452C39.5218 89.9486 39.3233 90 39.1256 90Z" fill="white"/>
<path d="M1.15047 68.0746C0.7535 68.0746 0.36727 67.8684 0.154225 67.4998C-0.163043 66.9496 0.0247208 66.2469 0.574959 65.9296L44.8492 40.368C45.3994 40.05 46.1022 40.2377 46.4194 40.7887C46.7367 41.339 46.5489 42.0417 45.9987 42.359L1.72448 67.9205C1.54362 68.0248 1.34589 68.0746 1.15047 68.0746Z" fill="white"/>
<path d="M77.101 68.0748H12.9132C12.2787 68.0748 11.7637 67.5598 11.7637 66.9253C11.7637 66.2907 12.2787 65.7758 12.9132 65.7758H77.101C77.7355 65.7758 78.2505 66.2907 78.2505 66.9253C78.2505 67.5598 77.7363 68.0748 77.101 68.0748Z" fill="white"/>
<path d="M54.0553 40.3492C51.6275 40.3492 49.6519 38.3735 49.6519 35.9457C49.6519 33.5179 51.6275 31.5423 54.0553 31.5423C56.4831 31.5423 58.4587 33.5179 58.4587 35.9457C58.4587 38.3735 56.4831 40.3492 54.0553 40.3492ZM54.0553 33.8413C52.8943 33.8413 51.9509 34.7847 51.9509 35.9457C51.9509 37.1067 52.8943 38.0501 54.0553 38.0501C55.2163 38.0501 56.1597 37.106 56.1597 35.9457C56.1597 34.7847 55.2163 33.8413 54.0553 33.8413Z" fill="white"/>
</svg>
