<svg width="80" height="80" viewBox="0 0 80 80" fill="none" xmlns="http://www.w3.org/2000/svg">
<path d="M39.8918 80L32.1536 72.2635L26.749 77.6682L17.8065 68.7257L23.2112 63.3211L15.4747 55.5846L20.8793 50.1799L14.3471 43.646L8.94245 49.0506L0 40.1099L40.1099 0L47.8464 7.73649L53.251 2.33183L62.1935 11.2743L56.7888 16.6789L64.5253 24.4154L59.1207 29.8201L65.6546 36.354L71.0593 30.9494L80 39.8902L39.8918 80ZM33.3579 71.0593L39.8918 77.5915L77.5932 39.8902L71.061 33.3579L33.3579 71.0593ZM20.2167 68.7257L26.749 75.2597L64.4504 37.5583L57.9181 31.0243L20.2167 68.7257ZM17.8832 55.5846L24.4154 62.1168L62.1168 24.4154L55.5846 17.8832L17.8832 55.5846ZM15.5513 42.4417L22.0836 48.9757L59.785 11.2743L53.251 4.74033L15.5513 42.4417ZM2.4085 40.1099L8.94073 46.6421L46.6421 8.94074L40.1099 2.4085L2.4085 40.1099Z" fill="black"/>
</svg>
