<svg width="40" height="40" viewBox="0 0 40 40" fill="none" xmlns="http://www.w3.org/2000/svg">
<path fill-rule="evenodd" clip-rule="evenodd" d="M17.6885 33.9826C17.644 33.9826 17.5996 33.9737 17.5551 33.9648C17.2796 33.8937 17.1196 33.6182 17.1907 33.3426L18.0174 30.1782C18.0885 29.9026 18.364 29.7426 18.6396 29.8137C18.9151 29.8848 19.0751 30.1604 19.004 30.436L18.1774 33.6004C18.124 33.8315 17.9107 33.9826 17.6885 33.9826Z" fill="white"/>
<path fill-rule="evenodd" clip-rule="evenodd" d="M22.355 33.9826C22.1239 33.9826 21.9194 33.8315 21.8572 33.6004L21.0305 30.436C20.9594 30.1604 21.1194 29.8848 21.395 29.8137C21.6705 29.7426 21.9461 29.9026 22.0172 30.1782L22.8439 33.3426C22.915 33.6182 22.755 33.8937 22.4794 33.9648C22.4439 33.9826 22.3994 33.9826 22.355 33.9826Z" fill="white"/>
<path fill-rule="evenodd" clip-rule="evenodd" d="M26.4889 36.4533H13.5556C13.2712 36.4533 13.04 36.2222 13.04 35.9377C13.04 34.2933 14.3734 32.96 16.0178 32.96H24.0267C25.6711 32.96 27.0045 34.2933 27.0045 35.9377C27.0045 36.2222 26.7734 36.4533 26.4889 36.4533ZM14.1334 35.4222H25.9112C25.6889 34.5955 24.9245 33.9822 24.0267 33.9822H16.0178C15.12 33.9822 14.3645 34.5955 14.1334 35.4222Z" fill="white"/>
<path fill-rule="evenodd" clip-rule="evenodd" d="M34.5153 30.8179H5.52865C4.79087 30.8179 4.19531 30.2223 4.19531 29.4846V10.0268C4.19531 9.28902 4.79087 8.69346 5.52865 8.69346H8.74642C9.03087 8.69346 9.25309 8.92457 9.25309 9.20901C9.25309 9.49346 9.03087 9.72457 8.74642 9.72457H5.52865C5.35976 9.72457 5.21753 9.86679 5.21753 10.0357V29.4935C5.21753 29.6623 5.35976 29.8046 5.52865 29.8046H34.5153C34.6842 29.8046 34.8264 29.6623 34.8264 29.4935V10.0268C34.8264 9.8579 34.6842 9.71568 34.5153 9.71568H31.2975C31.0131 9.71568 30.7998 9.48457 30.7998 9.20013C30.7998 8.91568 31.0131 8.68457 31.2975 8.68457H34.5153C35.2531 8.68457 35.8486 9.28013 35.8486 10.0179V29.4757C35.8486 30.2223 35.2531 30.8179 34.5153 30.8179Z" fill="white"/>
<path fill-rule="evenodd" clip-rule="evenodd" d="M35.3419 27.4935H4.70188C4.41744 27.4935 4.2041 27.2624 4.2041 26.978C4.2041 26.6935 4.41744 26.4624 4.70188 26.4624H35.333C35.6174 26.4624 35.8041 26.6935 35.8041 26.978C35.813 27.2624 35.6263 27.4935 35.3419 27.4935Z" fill="white"/>
<path fill-rule="evenodd" clip-rule="evenodd" d="M30.3913 24.4535H9.66246C8.88023 24.4535 8.24023 23.8135 8.24023 23.0313V5.1024C8.24023 4.32018 8.88023 3.68018 9.66246 3.68018H30.3913C31.1736 3.68018 31.8136 4.32018 31.8136 5.1024V23.0313C31.8047 23.8135 31.1736 24.4535 30.3913 24.4535ZM9.66246 4.7024C9.44023 4.7024 9.26246 4.88018 9.26246 5.1024V23.0313C9.26246 23.2535 9.44023 23.4313 9.66246 23.4313H30.3913C30.6136 23.4313 30.7913 23.2535 30.7913 23.0313V5.1024C30.7913 4.88018 30.6136 4.7024 30.3913 4.7024H9.66246Z" fill="white"/>
<path fill-rule="evenodd" clip-rule="evenodd" d="M31.2979 8.33775H8.7468C8.46236 8.33775 8.24902 8.10664 8.24902 7.8222C8.24902 7.53775 8.46236 7.30664 8.7468 7.30664H31.289C31.5735 7.30664 31.7868 7.53775 31.7868 7.8222C31.7868 8.10664 31.5824 8.33775 31.2979 8.33775Z" fill="white"/>
<path fill-rule="evenodd" clip-rule="evenodd" d="M29.244 6.52476H20.204C19.9196 6.52476 19.6885 6.29365 19.6885 6.00921C19.6885 5.72476 19.9196 5.49365 20.204 5.49365H29.244C29.5285 5.49365 29.7596 5.72476 29.7596 6.00921C29.7596 6.29365 29.5285 6.52476 29.244 6.52476Z" fill="white"/>
<path fill-rule="evenodd" clip-rule="evenodd" d="M11.5821 6.0093C11.5821 5.74263 11.3687 5.5293 11.1021 5.5293C10.8354 5.5293 10.6221 5.74263 10.6221 6.0093C10.6221 6.27596 10.8354 6.4893 11.1021 6.4893C11.3687 6.4893 11.5821 6.27596 11.5821 6.0093Z" fill="white"/>
<path fill-rule="evenodd" clip-rule="evenodd" d="M13.5909 6.0093C13.5909 5.74263 13.3775 5.5293 13.1109 5.5293C12.8442 5.5293 12.6309 5.74263 12.6309 6.0093C12.6309 6.27596 12.8442 6.4893 13.1109 6.4893C13.3775 6.4893 13.5909 6.27596 13.5909 6.0093Z" fill="white"/>
<path fill-rule="evenodd" clip-rule="evenodd" d="M15.5909 6.0093C15.5909 5.74263 15.3775 5.5293 15.1109 5.5293C14.8442 5.5293 14.6309 5.74263 14.6309 6.0093C14.6309 6.27596 14.8442 6.4893 15.1109 6.4893C15.3775 6.4893 15.5909 6.27596 15.5909 6.0093Z" fill="white"/>
<path fill-rule="evenodd" clip-rule="evenodd" d="M16.5597 18.4361C16.453 18.4361 16.3464 18.4005 16.2486 18.3294L13.013 15.8583C12.8886 15.7605 12.8086 15.6094 12.8086 15.4494C12.8086 15.2894 12.8797 15.1383 13.013 15.0405L16.2486 12.5694C16.4708 12.4005 16.7908 12.445 16.9686 12.6672C17.1375 12.8894 17.093 13.2094 16.8708 13.3872L14.1686 15.4494L16.8708 17.5116C17.093 17.6805 17.1375 18.0005 16.9686 18.2316C16.8708 18.3738 16.7197 18.4361 16.5597 18.4361Z" fill="white"/>
<path fill-rule="evenodd" clip-rule="evenodd" d="M23.4841 18.4361C23.333 18.4361 23.1819 18.365 23.0753 18.2316C22.9064 18.0094 22.9508 17.6894 23.173 17.5116L25.8753 15.4494L23.173 13.3872C22.9508 13.2183 22.9064 12.8983 23.0753 12.6672C23.2441 12.445 23.5641 12.4005 23.7953 12.5694L27.0308 15.0405C27.1553 15.1383 27.2353 15.2894 27.2353 15.4494C27.2353 15.6094 27.1641 15.7605 27.0308 15.8583L23.7953 18.3294C23.6975 18.4094 23.5908 18.4361 23.4841 18.4361Z" fill="white"/>
<path fill-rule="evenodd" clip-rule="evenodd" d="M18.9686 19.7516C18.9241 19.7516 18.8797 19.7427 18.8264 19.7338C18.5508 19.6538 18.3908 19.3783 18.4708 19.1027L20.5864 11.5383C20.6664 11.2627 20.9419 11.1027 21.2175 11.1827C21.493 11.2627 21.653 11.5383 21.573 11.8138L19.4575 19.3783C19.3953 19.6005 19.1908 19.7516 18.9686 19.7516Z" fill="white"/>
</svg>
