<svg width="70" height="82" viewBox="0 0 70 82" fill="none" xmlns="http://www.w3.org/2000/svg">
<path d="M34.4918 81.1232L34.1353 80.7652L0 60.6204L0.131666 60.1337L0.507432 20.498L0.995626 20.3693L35.5082 0.876953L35.8647 1.23496L70 21.3783L69.8683 21.865L69.4926 61.5006L69.0044 61.6293L34.4918 81.1232ZM12.8751 57.095L34.7655 79.1393L62.9212 63.2389L37.3959 69.9834L15.3323 47.9184L12.8751 57.095ZM1.85515 59.8674L29.7031 76.3004L11.0998 57.5669L19.1758 27.4275L9.99915 29.8862L1.85515 59.8674ZM31.1573 61.4917L37.8752 68.2096L67.9126 60.2727L68.2203 27.9393L61.2983 53.4173L31.1573 61.4917ZM15.8087 46.1431L29.8569 60.1914L49.049 55.049L54.1913 35.857L40.1431 21.8073L20.951 26.9496L15.8087 46.1431ZM40.2984 5.70122L58.9017 24.4332L50.8242 54.5727L60.0009 52.1139L68.1463 22.1327L40.2984 5.70122ZM2.08889 21.7289L1.78118 54.0623L8.70174 28.5843L38.8427 20.5084L32.1248 13.7905L2.08889 21.7289ZM32.6041 12.0182L54.6677 34.0817L57.1264 24.9051L35.236 2.86228L7.08033 18.7627L32.6041 12.0182Z" fill="black"/>
</svg>
