<svg width="40" height="40" viewBox="0 0 40 40" fill="none" xmlns="http://www.w3.org/2000/svg">
<path fill-rule="evenodd" clip-rule="evenodd" d="M32.5 11.25H22.5C22.3342 11.25 22.1753 11.3158 22.0581 11.4331C21.9408 11.5503 21.875 11.7092 21.875 11.875C21.875 12.0408 21.9408 12.1997 22.0581 12.3169C22.1753 12.4342 22.3342 12.5 22.5 12.5H32.5C32.6658 12.5 32.8247 12.4342 32.9419 12.3169C33.0592 12.1997 33.125 12.0408 33.125 11.875C33.125 11.7092 33.0592 11.5503 32.9419 11.4331C32.8247 11.3158 32.6658 11.25 32.5 11.25Z" fill="white"/>
<path fill-rule="evenodd" clip-rule="evenodd" d="M32.5 18.75H22.5C22.3342 18.75 22.1753 18.8158 22.0581 18.9331C21.9408 19.0503 21.875 19.2092 21.875 19.375C21.875 19.5408 21.9408 19.6997 22.0581 19.8169C22.1753 19.9342 22.3342 20 22.5 20H32.5C32.6658 20 32.8247 19.9342 32.9419 19.8169C33.0592 19.6997 33.125 19.5408 33.125 19.375C33.125 19.2092 33.0592 19.0503 32.9419 18.9331C32.8247 18.8158 32.6658 18.75 32.5 18.75Z" fill="white"/>
<path fill-rule="evenodd" clip-rule="evenodd" d="M32.5 13.75H22.5C22.3342 13.75 22.1753 13.8158 22.0581 13.9331C21.9408 14.0503 21.875 14.2092 21.875 14.375C21.875 14.5408 21.9408 14.6997 22.0581 14.8169C22.1753 14.9342 22.3342 15 22.5 15H32.5C32.6658 15 32.8247 14.9342 32.9419 14.8169C33.0592 14.6997 33.125 14.5408 33.125 14.375C33.125 14.2092 33.0592 14.0503 32.9419 13.9331C32.8247 13.8158 32.6658 13.75 32.5 13.75Z" fill="white"/>
<path fill-rule="evenodd" clip-rule="evenodd" d="M32.5 21.25H22.5C22.3342 21.25 22.1753 21.3158 22.0581 21.4331C21.9408 21.5503 21.875 21.7092 21.875 21.875C21.875 22.0408 21.9408 22.1997 22.0581 22.3169C22.1753 22.4342 22.3342 22.5 22.5 22.5H32.5C32.6658 22.5 32.8247 22.4342 32.9419 22.3169C33.0592 22.1997 33.125 22.0408 33.125 21.875C33.125 21.7092 33.0592 21.5503 32.9419 21.4331C32.8247 21.3158 32.6658 21.25 32.5 21.25Z" fill="white"/>
<path fill-rule="evenodd" clip-rule="evenodd" d="M32.5 23.75H22.5C22.3342 23.75 22.1753 23.8158 22.0581 23.9331C21.9408 24.0503 21.875 24.2092 21.875 24.375C21.875 24.5408 21.9408 24.6997 22.0581 24.8169C22.1753 24.9342 22.3342 25 22.5 25H32.5C32.6658 25 32.8247 24.9342 32.9419 24.8169C33.0592 24.6997 33.125 24.5408 33.125 24.375C33.125 24.2092 33.0592 24.0503 32.9419 23.9331C32.8247 23.8158 32.6658 23.75 32.5 23.75Z" fill="white"/>
<path fill-rule="evenodd" clip-rule="evenodd" d="M32.5 16.25H22.5C22.3342 16.25 22.1753 16.3158 22.0581 16.4331C21.9408 16.5503 21.875 16.7092 21.875 16.875C21.875 17.0408 21.9408 17.1997 22.0581 17.3169C22.1753 17.4342 22.3342 17.5 22.5 17.5H32.5C32.6658 17.5 32.8247 17.4342 32.9419 17.3169C33.0592 17.1997 33.125 17.0408 33.125 16.875C33.125 16.7092 33.0592 16.5503 32.9419 16.4331C32.8247 16.3158 32.6658 16.25 32.5 16.25Z" fill="white"/>
<path fill-rule="evenodd" clip-rule="evenodd" d="M13.75 11.25C12.3903 11.25 11.061 11.6532 9.93046 12.4086C8.79987 13.1641 7.91868 14.2378 7.39833 15.4941C6.87798 16.7503 6.74183 18.1326 7.0071 19.4662C7.27238 20.7999 7.92716 22.0249 8.88864 22.9864C9.85013 23.9478 11.0751 24.6026 12.4088 24.8679C13.7424 25.1332 15.1247 24.997 16.381 24.4767C17.6372 23.9563 18.7109 23.0751 19.4664 21.9445C20.2218 20.814 20.625 19.4847 20.625 18.125C20.6242 16.3019 19.8996 14.5537 18.6104 13.2646C17.3213 11.9754 15.5731 11.2508 13.75 11.25ZM8.15938 18.75H10.6375C10.6599 20.3384 11.0106 21.9049 11.6675 23.3512C10.7213 22.9733 9.89531 22.3457 9.27753 21.5355C8.65976 20.7252 8.27332 19.7625 8.15938 18.75ZM10.6375 17.5H8.15938C8.27358 16.4876 8.66012 15.525 9.27786 14.7148C9.89561 13.9046 10.7214 13.277 11.6675 12.8988C11.0109 14.3452 10.6603 15.9117 10.6375 17.5ZM14.6775 22.8694C14.5434 23.1359 14.3611 23.3753 14.14 23.5756C14.0909 23.6305 14.0308 23.6744 13.9636 23.7045C13.8964 23.7346 13.8236 23.7501 13.75 23.7501C13.6764 23.7501 13.6036 23.7346 13.5364 23.7045C13.4692 23.6744 13.4091 23.6305 13.36 23.5756C13.1389 23.3753 12.9566 23.1359 12.8225 22.8694C12.2174 21.5798 11.8984 20.1745 11.8875 18.75H15.6125C15.6016 20.1745 15.2826 21.5798 14.6775 22.8694ZM11.8875 17.5C11.8992 16.0753 12.219 14.67 12.825 13.3806C12.9591 13.1141 13.1413 12.8747 13.3625 12.6744C13.4116 12.6195 13.4717 12.5756 13.5389 12.5455C13.6061 12.5154 13.6789 12.4999 13.7525 12.4999C13.8261 12.4999 13.8989 12.5154 13.9661 12.5455C14.0333 12.5756 14.0934 12.6195 14.1425 12.6744C14.3637 12.8747 14.5459 13.1141 14.68 13.3806C15.2843 14.6704 15.6024 16.0757 15.6125 17.5H11.8875ZM15.8325 23.3512C16.4891 21.9048 16.8397 20.3383 16.8625 18.75H19.3406C19.2264 19.7624 18.8399 20.725 18.2221 21.5352C17.6044 22.3454 16.7786 22.973 15.8325 23.3512ZM16.8625 17.5C16.84 15.9116 16.4894 14.3451 15.8325 12.8988C16.7787 13.2767 17.6047 13.9043 18.2225 14.7145C18.8402 15.5248 19.2267 16.4875 19.3406 17.5H16.8625Z" fill="white"/>
<path fill-rule="evenodd" clip-rule="evenodd" d="M37.5 27.5H35.625V7.5C35.625 7.33424 35.5592 7.17527 35.4419 7.05806C35.3247 6.94085 35.1658 6.875 35 6.875H5C4.83424 6.875 4.67527 6.94085 4.55806 7.05806C4.44085 7.17527 4.375 7.33424 4.375 7.5V27.5H2.5C2.33424 27.5 2.17527 27.5658 2.05806 27.6831C1.94085 27.8003 1.875 27.9592 1.875 28.125C1.875 30.9094 3.86375 33.125 6.25 33.125H33.75C36.1362 33.125 38.125 30.9094 38.125 28.125C38.125 27.9592 38.0592 27.8003 37.9419 27.6831C37.8247 27.5658 37.6658 27.5 37.5 27.5ZM5.625 8.125H34.375V27.5H5.625V8.125ZM33.75 31.875H6.25C4.67875 31.875 3.41437 30.5063 3.16812 28.75H36.8319C36.5856 30.5063 35.3213 31.875 33.75 31.875Z" fill="white"/>
</svg>
