<svg width="40" height="40" viewBox="0 0 40 40" fill="none" xmlns="http://www.w3.org/2000/svg">
<path d="M11.3333 40H28.6667C29.5504 39.9989 30.3976 39.6474 31.0225 39.0225C31.6474 38.3976 31.9989 37.5504 32 36.6667V3.33333C31.9989 2.4496 31.6474 1.60237 31.0225 0.97748C30.3976 0.352588 29.5504 0.00105857 28.6667 0L11.3333 0C10.4496 0.00105857 9.60237 0.352588 8.97748 0.97748C8.35259 1.60237 8.00106 2.4496 8 3.33333V36.6667C8.00106 37.5504 8.35259 38.3976 8.97748 39.0225C9.60237 39.6474 10.4496 39.9989 11.3333 40ZM16 1.33333H24V2C24 2.17681 23.9298 2.34638 23.8047 2.4714C23.6797 2.59643 23.5101 2.66667 23.3333 2.66667H16.6667C16.4899 2.66667 16.3203 2.59643 16.1953 2.4714C16.0702 2.34638 16 2.17681 16 2V1.33333ZM9.33333 3.33333C9.33333 2.8029 9.54405 2.29419 9.91912 1.91912C10.2942 1.54405 10.8029 1.33333 11.3333 1.33333H14.6667V2C14.6667 2.53043 14.8774 3.03914 15.2525 3.41421C15.6275 3.78929 16.1362 4 16.6667 4H23.3333C23.8638 4 24.3725 3.78929 24.7475 3.41421C25.1226 3.03914 25.3333 2.53043 25.3333 2V1.33333H28.6667C29.1971 1.33333 29.7058 1.54405 30.0809 1.91912C30.456 2.29419 30.6667 2.8029 30.6667 3.33333V36.6667C30.6667 37.1971 30.456 37.7058 30.0809 38.0809C29.7058 38.456 29.1971 38.6667 28.6667 38.6667H11.3333C10.8029 38.6667 10.2942 38.456 9.91912 38.0809C9.54405 37.7058 9.33333 37.1971 9.33333 36.6667V3.33333Z" fill="white"/>
<path d="M24.667 36H15.3337C15.1568 36 14.9873 36.0702 14.8623 36.1953C14.7372 36.3203 14.667 36.4899 14.667 36.6667C14.667 36.8435 14.7372 37.013 14.8623 37.1381C14.9873 37.2631 15.1568 37.3333 15.3337 37.3333H24.667C24.8438 37.3333 25.0134 37.2631 25.1384 37.1381C25.2634 37.013 25.3337 36.8435 25.3337 36.6667C25.3337 36.4899 25.2634 36.3203 25.1384 36.1953C25.0134 36.0702 24.8438 36 24.667 36Z" fill="white"/>
<path d="M15.5833 14.5209C15.6517 14.5756 15.7302 14.6163 15.8143 14.6407C15.8984 14.6651 15.9865 14.6726 16.0735 14.663C16.1606 14.6533 16.2449 14.6266 16.3216 14.5844C16.3983 14.5422 16.466 14.4852 16.5207 14.4169C16.5754 14.3485 16.6161 14.27 16.6405 14.1859C16.6649 14.1018 16.6725 14.0137 16.6628 13.9267C16.6531 13.8396 16.6264 13.7553 16.5842 13.6786C16.542 13.6019 16.485 13.5342 16.4167 13.4795L13.7333 11.3335L16.416 9.18753C16.4844 9.13281 16.5413 9.06516 16.5835 8.98844C16.6258 8.91173 16.6525 8.82744 16.6621 8.7404C16.6718 8.65336 16.6642 8.56527 16.6398 8.48116C16.6154 8.39705 16.5747 8.31857 16.52 8.2502C16.4653 8.18182 16.3976 8.12489 16.3209 8.08266C16.2442 8.04043 16.1599 8.01372 16.0729 8.00407C15.9858 7.99441 15.8977 8.00199 15.8136 8.02638C15.7295 8.05076 15.651 8.09148 15.5827 8.1462L12.2493 10.8129C12.1712 10.8753 12.1082 10.9545 12.0649 11.0447C12.0215 11.1348 11.999 11.2335 11.999 11.3335C11.999 11.4335 12.0215 11.5323 12.0649 11.6224C12.1082 11.7125 12.1712 11.7917 12.2493 11.8542L15.5833 14.5209Z" fill="white"/>
<path d="M23.4792 14.4169C23.5339 14.4853 23.6015 14.5422 23.6783 14.5845C23.755 14.6267 23.8393 14.6534 23.9263 14.6631C24.0134 14.6727 24.1015 14.6651 24.1856 14.6407C24.2697 14.6163 24.3482 14.5756 24.4165 14.5209L27.7499 11.8542C27.828 11.7917 27.891 11.7125 27.9344 11.6224C27.9777 11.5323 28.0002 11.4335 28.0002 11.3335C28.0002 11.2335 27.9777 11.1348 27.9344 11.0447C27.891 10.9545 27.828 10.8753 27.7499 10.8129L24.4165 8.1462C24.3482 8.09148 24.2697 8.05076 24.1856 8.02638C24.1015 8.00199 24.0134 7.99441 23.9263 8.00407C23.8393 8.01372 23.755 8.04043 23.6783 8.08266C23.6016 8.12489 23.5339 8.18182 23.4792 8.2502C23.4245 8.31857 23.3838 8.39705 23.3594 8.48116C23.335 8.56527 23.3274 8.65336 23.3371 8.7404C23.3467 8.82744 23.3734 8.91173 23.4157 8.98844C23.4579 9.06516 23.5148 9.13281 23.5832 9.18753L26.2665 11.3335L23.5839 13.4795C23.5154 13.5342 23.4584 13.6018 23.4161 13.6785C23.3738 13.7552 23.347 13.8395 23.3373 13.9265C23.3276 14.0136 23.3351 14.1017 23.3595 14.1858C23.3838 14.2699 23.4245 14.3485 23.4792 14.4169Z" fill="white"/>
<path d="M19.2001 15.3199C19.2439 15.3291 19.2886 15.3335 19.3334 15.3332C19.487 15.3331 19.6358 15.28 19.7547 15.1828C19.8737 15.0856 19.9554 14.9504 19.9861 14.7999L21.3194 8.13324C21.3475 7.96269 21.3082 7.78792 21.2099 7.64578C21.1115 7.50364 20.9618 7.40524 20.7923 7.37135C20.6229 7.33745 20.4468 7.3707 20.3014 7.46409C20.156 7.55747 20.0525 7.70369 20.0128 7.87191L18.6794 14.5386C18.6456 14.7112 18.6814 14.8901 18.7789 15.0364C18.8764 15.1828 19.0278 15.2847 19.2001 15.3199Z" fill="white"/>
<path d="M11.9997 19.9998H12.6663C12.8432 19.9998 13.0127 19.9296 13.1377 19.8046C13.2628 19.6796 13.333 19.51 13.333 19.3332C13.333 19.1564 13.2628 18.9868 13.1377 18.8618C13.0127 18.7367 12.8432 18.6665 12.6663 18.6665H11.9997C11.8229 18.6665 11.6533 18.7367 11.5283 18.8618C11.4032 18.9868 11.333 19.1564 11.333 19.3332C11.333 19.51 11.4032 19.6796 11.5283 19.8046C11.6533 19.9296 11.8229 19.9998 11.9997 19.9998Z" fill="white"/>
<path d="M14.667 19.3332C14.667 19.51 14.7372 19.6796 14.8623 19.8046C14.9873 19.9296 15.1568 19.9998 15.3337 19.9998H28.0003C28.1771 19.9998 28.3467 19.9296 28.4717 19.8046C28.5968 19.6796 28.667 19.51 28.667 19.3332C28.667 19.1564 28.5968 18.9868 28.4717 18.8618C28.3467 18.7367 28.1771 18.6665 28.0003 18.6665H15.3337C15.1568 18.6665 14.9873 18.7367 14.8623 18.8618C14.7372 18.9868 14.667 19.1564 14.667 19.3332Z" fill="white"/>
<path d="M11.9997 27.9998H12.6663C12.8432 27.9998 13.0127 27.9296 13.1377 27.8046C13.2628 27.6796 13.333 27.51 13.333 27.3332C13.333 27.1564 13.2628 26.9868 13.1377 26.8618C13.0127 26.7367 12.8432 26.6665 12.6663 26.6665H11.9997C11.8229 26.6665 11.6533 26.7367 11.5283 26.8618C11.4032 26.9868 11.333 27.1564 11.333 27.3332C11.333 27.51 11.4032 27.6796 11.5283 27.8046C11.6533 27.9296 11.8229 27.9998 11.9997 27.9998Z" fill="white"/>
<path d="M28.0003 26.6665H15.3337C15.1568 26.6665 14.9873 26.7367 14.8623 26.8618C14.7372 26.9868 14.667 27.1564 14.667 27.3332C14.667 27.51 14.7372 27.6796 14.8623 27.8046C14.9873 27.9296 15.1568 27.9998 15.3337 27.9998H28.0003C28.1771 27.9998 28.3467 27.9296 28.4717 27.8046C28.5968 27.6796 28.667 27.51 28.667 27.3332C28.667 27.1564 28.5968 26.9868 28.4717 26.8618C28.3467 26.7367 28.1771 26.6665 28.0003 26.6665Z" fill="white"/>
<path d="M13.3337 22.6668H14.0003C14.1771 22.6668 14.3467 22.5966 14.4717 22.4716C14.5968 22.3465 14.667 22.177 14.667 22.0002C14.667 21.8234 14.5968 21.6538 14.4717 21.5288C14.3467 21.4037 14.1771 21.3335 14.0003 21.3335H13.3337C13.1568 21.3335 12.9873 21.4037 12.8623 21.5288C12.7372 21.6538 12.667 21.8234 12.667 22.0002C12.667 22.177 12.7372 22.3465 12.8623 22.4716C12.9873 22.5966 13.1568 22.6668 13.3337 22.6668Z" fill="white"/>
<path d="M28 21.3335H22.6667C22.4899 21.3335 22.3203 21.4037 22.1953 21.5288C22.0702 21.6538 22 21.8234 22 22.0002C22 22.177 22.0702 22.3465 22.1953 22.4716C22.3203 22.5966 22.4899 22.6668 22.6667 22.6668H28C28.1768 22.6668 28.3464 22.5966 28.4714 22.4716C28.5964 22.3465 28.6667 22.177 28.6667 22.0002C28.6667 21.8234 28.5964 21.6538 28.4714 21.5288C28.3464 21.4037 28.1768 21.3335 28 21.3335Z" fill="white"/>
<path d="M16.6667 22.6668H20C20.1768 22.6668 20.3464 22.5966 20.4714 22.4716C20.5964 22.3465 20.6667 22.177 20.6667 22.0002C20.6667 21.8234 20.5964 21.6538 20.4714 21.5288C20.3464 21.4037 20.1768 21.3335 20 21.3335H16.6667C16.4899 21.3335 16.3203 21.4037 16.1953 21.5288C16.0702 21.6538 16 21.8234 16 22.0002C16 22.177 16.0702 22.3465 16.1953 22.4716C16.3203 22.5966 16.4899 22.6668 16.6667 22.6668Z" fill="white"/>
<path d="M13.3337 25.3333H14.0003C14.1771 25.3333 14.3467 25.2631 14.4717 25.1381C14.5968 25.013 14.667 24.8435 14.667 24.6667C14.667 24.4899 14.5968 24.3203 14.4717 24.1953C14.3467 24.0702 14.1771 24 14.0003 24H13.3337C13.1568 24 12.9873 24.0702 12.8623 24.1953C12.7372 24.3203 12.667 24.4899 12.667 24.6667C12.667 24.8435 12.7372 25.013 12.8623 25.1381C12.9873 25.2631 13.1568 25.3333 13.3337 25.3333Z" fill="white"/>
<path d="M28 24H22.6667C22.4899 24 22.3203 24.0702 22.1953 24.1953C22.0702 24.3203 22 24.4899 22 24.6667C22 24.8435 22.0702 25.013 22.1953 25.1381C22.3203 25.2631 22.4899 25.3333 22.6667 25.3333H28C28.1768 25.3333 28.3464 25.2631 28.4714 25.1381C28.5964 25.013 28.6667 24.8435 28.6667 24.6667C28.6667 24.4899 28.5964 24.3203 28.4714 24.1953C28.3464 24.0702 28.1768 24 28 24Z" fill="white"/>
<path d="M16.6667 25.3333H20C20.1768 25.3333 20.3464 25.2631 20.4714 25.1381C20.5964 25.013 20.6667 24.8435 20.6667 24.6667C20.6667 24.4899 20.5964 24.3203 20.4714 24.1953C20.3464 24.0702 20.1768 24 20 24H16.6667C16.4899 24 16.3203 24.0702 16.1953 24.1953C16.0702 24.3203 16 24.4899 16 24.6667C16 24.8435 16.0702 25.013 16.1953 25.1381C16.3203 25.2631 16.4899 25.3333 16.6667 25.3333Z" fill="white"/>
<path d="M12.667 30.0002C12.667 30.177 12.7372 30.3465 12.8623 30.4716C12.9873 30.5966 13.1568 30.6668 13.3337 30.6668H14.0003C14.1771 30.6668 14.3467 30.5966 14.4717 30.4716C14.5968 30.3465 14.667 30.177 14.667 30.0002C14.667 29.8234 14.5968 29.6538 14.4717 29.5288C14.3467 29.4037 14.1771 29.3335 14.0003 29.3335H13.3337C13.1568 29.3335 12.9873 29.4037 12.8623 29.5288C12.7372 29.6538 12.667 29.8234 12.667 30.0002Z" fill="white"/>
<path d="M28 29.3335H22.6667C22.4899 29.3335 22.3203 29.4037 22.1953 29.5288C22.0702 29.6538 22 29.8234 22 30.0002C22 30.177 22.0702 30.3465 22.1953 30.4716C22.3203 30.5966 22.4899 30.6668 22.6667 30.6668H28C28.1768 30.6668 28.3464 30.5966 28.4714 30.4716C28.5964 30.3465 28.6667 30.177 28.6667 30.0002C28.6667 29.8234 28.5964 29.6538 28.4714 29.5288C28.3464 29.4037 28.1768 29.3335 28 29.3335Z" fill="white"/>
<path d="M16.6667 30.6668H20C20.1768 30.6668 20.3464 30.5966 20.4714 30.4716C20.5964 30.3465 20.6667 30.177 20.6667 30.0002C20.6667 29.8234 20.5964 29.6538 20.4714 29.5288C20.3464 29.4037 20.1768 29.3335 20 29.3335H16.6667C16.4899 29.3335 16.3203 29.4037 16.1953 29.5288C16.0702 29.6538 16 29.8234 16 30.0002C16 30.177 16.0702 30.3465 16.1953 30.4716C16.3203 30.5966 16.4899 30.6668 16.6667 30.6668Z" fill="white"/>
<path d="M14.0003 32H13.3337C13.1568 32 12.9873 32.0702 12.8623 32.1953C12.7372 32.3203 12.667 32.4899 12.667 32.6667C12.667 32.8435 12.7372 33.013 12.8623 33.1381C12.9873 33.2631 13.1568 33.3333 13.3337 33.3333H14.0003C14.1771 33.3333 14.3467 33.2631 14.4717 33.1381C14.5968 33.013 14.667 32.8435 14.667 32.6667C14.667 32.4899 14.5968 32.3203 14.4717 32.1953C14.3467 32.0702 14.1771 32 14.0003 32Z" fill="white"/>
<path d="M28 32H22.6667C22.4899 32 22.3203 32.0702 22.1953 32.1953C22.0702 32.3203 22 32.4899 22 32.6667C22 32.8435 22.0702 33.013 22.1953 33.1381C22.3203 33.2631 22.4899 33.3333 22.6667 33.3333H28C28.1768 33.3333 28.3464 33.2631 28.4714 33.1381C28.5964 33.013 28.6667 32.8435 28.6667 32.6667C28.6667 32.4899 28.5964 32.3203 28.4714 32.1953C28.3464 32.0702 28.1768 32 28 32Z" fill="white"/>
<path d="M16.6667 33.3333H20C20.1768 33.3333 20.3464 33.2631 20.4714 33.1381C20.5964 33.013 20.6667 32.8435 20.6667 32.6667C20.6667 32.4899 20.5964 32.3203 20.4714 32.1953C20.3464 32.0702 20.1768 32 20 32H16.6667C16.4899 32 16.3203 32.0702 16.1953 32.1953C16.0702 32.3203 16 32.4899 16 32.6667C16 32.8435 16.0702 33.013 16.1953 33.1381C16.3203 33.2631 16.4899 33.3333 16.6667 33.3333Z" fill="white"/>
</svg>
