<svg width="90" height="90" viewBox="0 0 90 90" fill="none" xmlns="http://www.w3.org/2000/svg">
<path d="M45.0439 90C44.7808 90 44.5275 89.8953 44.3406 89.709L0.291333 45.6591C-0.097111 45.2706 -0.097111 44.6416 0.291333 44.2531L44.2531 0.291333C44.6415 -0.097111 45.2706 -0.097111 45.659 0.291333L89.7083 44.3406C90.0968 44.7291 90.0968 45.3581 89.7083 45.7466L45.7466 89.709C45.5603 89.8953 45.3071 90 45.0439 90ZM2.40056 44.9558L45.0439 87.5998L87.5997 45.0433L44.9564 2.39995L2.40056 44.9558Z" fill="white"/>
<path d="M44.2301 64.4885C43.9755 64.4885 43.7217 64.391 43.5274 64.1968L28.3934 49.0628C28.0049 48.6743 28.0049 48.0453 28.3934 47.6569L39.596 36.4543C39.9844 36.0658 40.6135 36.0658 41.0019 36.4543C41.3903 36.8427 41.3903 37.4718 41.0019 37.8602L30.5027 48.3595L44.2307 62.0875L75.1412 31.1771C75.5297 30.7887 76.1587 30.7887 76.5472 31.1771C76.9356 31.5655 76.9356 32.1947 76.5472 32.5831L44.9341 64.1962C44.7392 64.391 44.4846 64.4885 44.2301 64.4885Z" fill="white"/>
<path d="M45.6031 35.261C44.7307 35.261 43.8577 34.9282 43.1928 34.2633C41.8645 32.9349 41.8625 30.7754 43.1889 29.4483C44.5166 28.1219 46.6763 28.1245 48.004 29.4522C48.6477 30.0952 49.0023 30.9503 49.0029 31.8591C49.0036 32.7693 48.6503 33.6243 48.0073 34.2667C47.3438 34.9295 46.4741 35.261 45.6031 35.261ZM45.5931 30.4426C45.2312 30.4426 44.87 30.5798 44.5949 30.8542C44.044 31.4057 44.046 32.3046 44.5988 32.8568C45.151 33.4096 46.0492 33.4109 46.6014 32.8601C46.8678 32.5936 47.015 32.2383 47.0143 31.8604C47.0137 31.4819 46.8658 31.126 46.598 30.8575C46.3203 30.5811 45.9564 30.4426 45.5931 30.4426Z" fill="white"/>
</svg>
