<svg width="40" height="40" viewBox="0 0 40 40" fill="none" xmlns="http://www.w3.org/2000/svg">
<path d="M20.625 5H16.875C16.53 5 16.25 4.72 16.25 4.375C16.25 4.03 16.53 3.75 16.875 3.75H20.625C20.97 3.75 21.25 4.03 21.25 4.375C21.25 4.72 20.97 5 20.625 5Z" fill="white"/>
<path d="M25.625 38.75H11.875C10.1513 38.75 8.75 37.3475 8.75 35.625V26.875C8.75 26.53 9.03 26.25 9.375 26.25C9.72 26.25 10 26.53 10 26.875V35.625C10 36.6588 10.8412 37.5 11.875 37.5H25.625C26.6588 37.5 27.5 36.6588 27.5 35.625V14.375C27.5 14.03 27.78 13.75 28.125 13.75C28.47 13.75 28.75 14.03 28.75 14.375V35.625C28.75 37.3475 27.3487 38.75 25.625 38.75Z" fill="white"/>
<path d="M28.125 6.25C27.78 6.25 27.5 5.97 27.5 5.625V4.375C27.5 3.34125 26.6588 2.5 25.625 2.5H11.875C10.8412 2.5 10 3.34125 10 4.375V5.625C10 5.97 9.72 6.25 9.375 6.25C9.03 6.25 8.75 5.97 8.75 5.625V4.375C8.75 2.6525 10.1513 1.25 11.875 1.25H25.625C27.3487 1.25 28.75 2.6525 28.75 4.375V5.625C28.75 5.97 28.47 6.25 28.125 6.25Z" fill="white"/>
<path d="M18.125 31.25H13.125C12.78 31.25 12.5 30.97 12.5 30.625C12.5 30.28 12.78 30 13.125 30H18.125C18.47 30 18.75 30.28 18.75 30.625C18.75 30.97 18.47 31.25 18.125 31.25Z" fill="white"/>
<path d="M21.875 33.75H13.125C12.78 33.75 12.5 33.47 12.5 33.125C12.5 32.78 12.78 32.5 13.125 32.5H21.875C22.22 32.5 22.5 32.78 22.5 33.125C22.5 33.47 22.22 33.75 21.875 33.75Z" fill="white"/>
<path d="M24.375 28.75H13.125C12.78 28.75 12.5 28.47 12.5 28.125C12.5 27.78 12.78 27.5 13.125 27.5H24.375C24.72 27.5 25 27.78 25 28.125C25 28.47 24.72 28.75 24.375 28.75Z" fill="white"/>
<path d="M11.25 17.5C9.52625 17.5 8.125 16.0975 8.125 14.375C8.125 12.6525 9.52625 11.25 11.25 11.25C12.9738 11.25 14.375 12.6525 14.375 14.375C14.375 16.0975 12.9738 17.5 11.25 17.5ZM11.25 12.5C10.2162 12.5 9.375 13.3412 9.375 14.375C9.375 15.4088 10.2162 16.25 11.25 16.25C12.2838 16.25 13.125 15.4088 13.125 14.375C13.125 13.3412 12.2838 12.5 11.25 12.5Z" fill="white"/>
<path d="M11.2497 25C9.0572 25 6.95345 24.1725 5.32595 22.6725C5.15845 22.5175 5.08845 22.2837 5.14345 22.0637C5.62345 20.1125 7.36345 18.75 9.3747 18.75H13.1247C15.136 18.75 16.876 20.1125 17.3572 22.0625C17.4122 22.2837 17.341 22.5175 17.1747 22.6712C15.546 24.1725 13.4422 25 11.2497 25ZM6.46595 22.0088C9.16845 24.26 13.331 24.26 16.0335 22.0088C15.5835 20.81 14.4347 20 13.1247 20H9.3747C8.0647 20 6.91595 20.81 6.46595 22.0088Z" fill="white"/>
<path d="M11.25 25C6.42625 25 2.5 21.075 2.5 16.25C2.5 11.425 6.42625 7.5 11.25 7.5C16.0737 7.5 20 11.425 20 16.25C20 21.075 16.0737 25 11.25 25ZM11.25 8.75C7.11375 8.75 3.75 12.1137 3.75 16.25C3.75 20.3862 7.11375 23.75 11.25 23.75C15.3862 23.75 18.75 20.3862 18.75 16.25C18.75 12.1137 15.3862 8.75 11.25 8.75Z" fill="white"/>
<path d="M5.625 28.6875C5.28 28.6875 5 28.47 5 28.125V28C5 27.655 5.28 27.375 5.625 27.375C5.97 27.375 6.25 27.655 6.25 28C6.25 28.345 5.97 28.6875 5.625 28.6875Z" fill="white"/>
<path d="M5.625 31.1875C5.28 31.1875 5 30.97 5 30.625V30.5C5 30.155 5.28 29.875 5.625 29.875C5.97 29.875 6.25 30.155 6.25 30.5C6.25 30.845 5.97 31.1875 5.625 31.1875Z" fill="white"/>
<path d="M5.625 33.6875C5.28 33.6875 5 33.47 5 33.125V33C5 32.655 5.28 32.375 5.625 32.375C5.97 32.375 6.25 32.655 6.25 33C6.25 33.345 5.97 33.6875 5.625 33.6875Z" fill="white"/>
<path d="M30.425 33.75H29.375C29.03 33.75 28.75 33.47 28.75 33.125C28.75 32.78 29.03 32.5 29.375 32.5H29.9213L30.2275 31.0812C30.2775 30.8462 30.4587 30.6625 30.6912 30.6063C31.2812 30.4638 31.8563 30.2237 32.4 29.8925C32.6013 29.7675 32.86 29.7713 33.0612 29.8988L34.2987 30.69L35.065 29.9175L34.2738 28.69C34.1438 28.4887 34.1413 28.23 34.265 28.0262C34.5963 27.4825 34.8363 26.9075 34.9775 26.3175C35.0338 26.085 35.2163 25.905 35.45 25.8525L36.8738 25.5363V24.465L35.45 24.1488C35.2163 24.0963 35.0338 23.9163 34.9775 23.6838C34.8363 23.0938 34.595 22.5187 34.265 21.975C34.14 21.7712 34.1425 21.5137 34.2725 21.3125L35.065 20.0738L34.3 19.3087L33.0612 20.1012C32.8612 20.23 32.6025 20.2325 32.4 20.1075C31.855 19.7763 31.28 19.5363 30.6912 19.3938C30.4575 19.3375 30.2775 19.1525 30.2275 18.9188L29.9213 17.5H29.375C29.03 17.5 28.75 17.22 28.75 16.875C28.75 16.53 29.03 16.25 29.375 16.25H30.425C30.7188 16.25 30.9737 16.4563 31.035 16.7438L31.3687 18.285C31.8262 18.4238 32.275 18.6113 32.7075 18.845L34.05 17.9862C34.2975 17.83 34.6213 17.8625 34.8288 18.0712L36.305 19.5463C36.5125 19.7538 36.5475 20.0775 36.3888 20.325L35.53 21.6675C35.7637 22.1012 35.9512 22.55 36.09 23.0087L37.6338 23.3512C37.92 23.415 38.1238 23.6688 38.1238 23.9613V26.0363C38.1238 26.3288 37.92 26.5837 37.6338 26.6462L36.09 26.9887C35.9512 27.4475 35.7637 27.8962 35.53 28.3288L36.3875 29.6587C36.5475 29.905 36.5138 30.23 36.3063 30.4375L34.83 31.925C34.6225 32.1338 34.2987 32.17 34.05 32.0112L32.7075 31.1525C32.2738 31.3863 31.8262 31.5738 31.3687 31.7125L31.035 33.2537C30.9737 33.5438 30.7188 33.75 30.425 33.75Z" fill="white"/>
<path d="M30.6912 28.46C30.4562 28.46 30.2312 28.3263 30.125 28.0988C29.98 27.7863 30.115 27.4138 30.4275 27.2688C31.3062 26.8588 31.875 25.9688 31.875 25C31.875 23.6212 30.7537 22.5 29.375 22.5C29.0362 22.5 28.71 22.5662 28.4037 22.6962C28.0875 22.8325 27.72 22.6838 27.585 22.365C27.45 22.0475 27.5987 21.6812 27.9162 21.5462C28.3762 21.35 28.8687 21.25 29.375 21.25C31.4425 21.25 33.125 22.9325 33.125 25C33.125 26.4538 32.2725 27.7888 30.955 28.4013C30.8687 28.4413 30.78 28.46 30.6912 28.46Z" fill="white"/>
<path d="M32.5 12.5H25C23.6212 12.5 22.5 11.3788 22.5 10C22.5 8.62125 23.6212 7.5 25 7.5H32.5C33.8787 7.5 35 8.62125 35 10C35 11.3788 33.8787 12.5 32.5 12.5ZM25 8.75C24.31 8.75 23.75 9.31125 23.75 10C23.75 10.6888 24.31 11.25 25 11.25H32.5C33.19 11.25 33.75 10.6888 33.75 10C33.75 9.31125 33.19 8.75 32.5 8.75H25Z" fill="white"/>
</svg>
