<svg width="80" height="80" viewBox="0 0 80 80" fill="none" xmlns="http://www.w3.org/2000/svg">
<path d="M40 80L25.8581 54.1425L0 40.0008L25.8581 25.8592L40 0L54.1435 25.8592L80 40.0008L54.1419 54.1425L40 80ZM27.473 53.6839L39.9984 76.585L52.5253 53.6839L40 41.1588L27.473 53.6839ZM41.1596 40.0008L53.6866 52.5259L76.5882 40.0008L53.6866 27.4742L41.1596 40.0008ZM3.41343 40.0008L26.315 52.5259L38.842 40.0008L26.315 27.4742L3.41343 40.0008ZM27.473 26.3162L40 38.8428L52.5253 26.3162L39.9984 3.41339L27.473 26.3162Z" fill="black"/>
</svg>
