<svg width="40" height="40" viewBox="0 0 40 40" fill="none" xmlns="http://www.w3.org/2000/svg">
<path d="M11.9997 27.3333H13.333V29.6927C13.332 29.9951 13.4149 30.2919 13.5724 30.55C13.7299 30.8082 13.9559 31.0176 14.2254 31.155C14.4948 31.2924 14.797 31.3524 15.0985 31.3283C15.3999 31.3043 15.6888 31.1971 15.933 31.0187L20.9997 27.3333H27.9997C28.7069 27.3333 29.3852 27.0524 29.8853 26.5523C30.3854 26.0522 30.6663 25.3739 30.6663 24.6667V12.6667C30.6663 11.9594 30.3854 11.2811 29.8853 10.781C29.3852 10.281 28.7069 10 27.9997 10H11.9997C11.2924 10 10.6142 10.281 10.1141 10.781C9.61396 11.2811 9.33301 11.9594 9.33301 12.6667V24.6667C9.33301 25.3739 9.61396 26.0522 10.1141 26.5523C10.6142 27.0524 11.2924 27.3333 11.9997 27.3333ZM10.6663 12.6667C10.6663 12.313 10.8068 11.9739 11.0569 11.7239C11.3069 11.4738 11.6461 11.3333 11.9997 11.3333H27.9997C28.3533 11.3333 28.6924 11.4738 28.9425 11.7239C29.1925 11.9739 29.333 12.313 29.333 12.6667V24.6667C29.333 25.0203 29.1925 25.3594 28.9425 25.6095C28.6924 25.8595 28.3533 26 27.9997 26H20.7797C20.6386 25.9998 20.5011 26.0444 20.387 26.1273L15.147 29.9407C15.1027 29.9745 15.0495 29.9948 14.994 29.9991C14.9384 30.0035 14.8827 29.9918 14.8337 29.9653C14.7828 29.9404 14.7401 29.9015 14.7105 29.8532C14.6809 29.805 14.6656 29.7493 14.6663 29.6927V26.6667C14.6663 26.4899 14.5961 26.3203 14.4711 26.1953C14.3461 26.0702 14.1765 26 13.9997 26H11.9997C11.6461 26 11.3069 25.8595 11.0569 25.6095C10.8068 25.3594 10.6663 25.0203 10.6663 24.6667V12.6667Z" fill="white"/>
<path d="M8 33.7173V36.6667C8.00106 37.5504 8.35259 38.3976 8.97748 39.0225C9.60237 39.6474 10.4496 39.9989 11.3333 40H28.6667C29.5504 39.9989 30.3976 39.6474 31.0225 39.0225C31.6474 38.3976 31.9989 37.5504 32 36.6667V33.7173C32.5938 33.4582 33.0991 33.0317 33.4543 32.4899C33.8095 31.9481 33.9991 31.3145 34 30.6667V9.33333C33.9991 8.68549 33.8095 8.05193 33.4543 7.51014C33.0991 6.96835 32.5938 6.5418 32 6.28267V3.33333C31.9989 2.4496 31.6474 1.60237 31.0225 0.97748C30.3976 0.352588 29.5504 0.00105857 28.6667 0L11.3333 0C10.4496 0.00105857 9.60237 0.352588 8.97748 0.97748C8.35259 1.60237 8.00106 2.4496 8 3.33333V6.28267C7.40624 6.5418 6.90086 6.96835 6.54567 7.51014C6.19047 8.05193 6.00085 8.68549 6 9.33333V30.6667C6.00085 31.3145 6.19047 31.9481 6.54567 32.4899C6.90086 33.0317 7.40624 33.4582 8 33.7173ZM30.6667 36.6667C30.6667 37.1971 30.456 37.7058 30.0809 38.0809C29.7058 38.456 29.1971 38.6667 28.6667 38.6667H11.3333C10.8029 38.6667 10.2942 38.456 9.91912 38.0809C9.54405 37.7058 9.33333 37.1971 9.33333 36.6667V34H30.6667V36.6667ZM16 1.33333H24V2C24 2.17681 23.9298 2.34638 23.8047 2.4714C23.6797 2.59643 23.5101 2.66667 23.3333 2.66667H16.6667C16.4899 2.66667 16.3203 2.59643 16.1953 2.4714C16.0702 2.34638 16 2.17681 16 2V1.33333ZM9.33333 3.33333C9.33333 2.8029 9.54405 2.29419 9.91912 1.91912C10.2942 1.54405 10.8029 1.33333 11.3333 1.33333H14.6667V2C14.6667 2.53043 14.8774 3.03914 15.2525 3.41421C15.6275 3.78929 16.1362 4 16.6667 4H23.3333C23.8638 4 24.3725 3.78929 24.7475 3.41421C25.1226 3.03914 25.3333 2.53043 25.3333 2V1.33333H28.6667C29.1971 1.33333 29.7058 1.54405 30.0809 1.91912C30.456 2.29419 30.6667 2.8029 30.6667 3.33333V6H9.33333V3.33333ZM7.33333 9.33333C7.33333 8.8029 7.54405 8.29419 7.91912 7.91912C8.29419 7.54405 8.8029 7.33333 9.33333 7.33333H30.6667C31.1971 7.33333 31.7058 7.54405 32.0809 7.91912C32.456 8.29419 32.6667 8.8029 32.6667 9.33333V30.6667C32.6667 31.1971 32.456 31.7058 32.0809 32.0809C31.7058 32.456 31.1971 32.6667 30.6667 32.6667H9.33333C8.8029 32.6667 8.29419 32.456 7.91912 32.0809C7.54405 31.7058 7.33333 31.1971 7.33333 30.6667V9.33333Z" fill="white"/>
<path d="M13.9997 15.3333H25.9997C26.1765 15.3333 26.3461 15.2631 26.4711 15.1381C26.5961 15.013 26.6663 14.8435 26.6663 14.6667C26.6663 14.4899 26.5961 14.3203 26.4711 14.1953C26.3461 14.0702 26.1765 14 25.9997 14H13.9997C13.8229 14 13.6533 14.0702 13.5283 14.1953C13.4032 14.3203 13.333 14.4899 13.333 14.6667C13.333 14.8435 13.4032 15.013 13.5283 15.1381C13.6533 15.2631 13.8229 15.3333 13.9997 15.3333Z" fill="white"/>
<path d="M13.9997 19.3333H25.9997C26.1765 19.3333 26.3461 19.2631 26.4711 19.1381C26.5961 19.013 26.6663 18.8435 26.6663 18.6667C26.6663 18.4899 26.5961 18.3203 26.4711 18.1953C26.3461 18.0702 26.1765 18 25.9997 18H13.9997C13.8229 18 13.6533 18.0702 13.5283 18.1953C13.4032 18.3203 13.333 18.4899 13.333 18.6667C13.333 18.8435 13.4032 19.013 13.5283 19.1381C13.6533 19.2631 13.8229 19.3333 13.9997 19.3333Z" fill="white"/>
<path d="M13.9997 23.3333H21.9997C22.1765 23.3333 22.3461 23.2631 22.4711 23.1381C22.5961 23.013 22.6663 22.8435 22.6663 22.6667C22.6663 22.4899 22.5961 22.3203 22.4711 22.1953C22.3461 22.0702 22.1765 22 21.9997 22H13.9997C13.8229 22 13.6533 22.0702 13.5283 22.1953C13.4032 22.3203 13.333 22.4899 13.333 22.6667C13.333 22.8435 13.4032 23.013 13.5283 23.1381C13.6533 23.2631 13.8229 23.3333 13.9997 23.3333Z" fill="white"/>
<path d="M15.3337 37.3333H24.667C24.8438 37.3333 25.0134 37.2631 25.1384 37.1381C25.2634 37.013 25.3337 36.8435 25.3337 36.6667C25.3337 36.4899 25.2634 36.3203 25.1384 36.1953C25.0134 36.0702 24.8438 36 24.667 36H15.3337C15.1568 36 14.9873 36.0702 14.8623 36.1953C14.7372 36.3203 14.667 36.4899 14.667 36.6667C14.667 36.8435 14.7372 37.013 14.8623 37.1381C14.9873 37.2631 15.1568 37.3333 15.3337 37.3333Z" fill="white"/>
</svg>
