<svg width="40" height="40" viewBox="0 0 40 40" fill="none" xmlns="http://www.w3.org/2000/svg">
<path d="M22.3187 31.7375C22.1375 31.55 21.8563 31.5 21.6187 31.6125C20.325 32.2 18.9438 32.5 17.5 32.5C11.9875 32.5 7.5 28.0125 7.5 22.5C7.5 16.9875 11.9875 12.5 17.5 12.5C17.8438 12.5 18.125 12.2188 18.125 11.875V6.875C18.125 6.53125 17.8438 6.25 17.5 6.25C8.5375 6.25 1.25 13.5375 1.25 22.5C1.25 31.4625 8.5375 38.75 17.5 38.75C20.4688 38.75 23.375 37.9438 25.9 36.4188C26.0625 36.3188 26.175 36.15 26.2 35.9625C26.225 35.775 26.1562 35.5812 26.0188 35.4437L22.3187 31.7438V31.7375ZM17.5 37.5C9.23125 37.5 2.5 30.7687 2.5 22.5C2.5 14.2313 8.89375 7.84375 16.875 7.5125V11.2688C10.9625 11.5938 6.25 16.5063 6.25 22.5C6.25 28.4937 11.2937 33.75 17.5 33.75C18.9688 33.75 20.3938 33.475 21.7313 32.925L24.55 35.7437C22.3875 36.8937 19.9688 37.5 17.4937 37.5H17.5Z" fill="white"/>
<path d="M31.2059 5.9124C30.9309 5.6999 30.5371 5.7499 30.3309 6.0249C30.1184 6.2999 30.1684 6.6874 30.4434 6.8999C33.9684 9.63115 36.0559 13.6937 36.2371 18.1249H27.8684C26.7309 15.4249 24.5746 13.2749 21.8746 12.1312V3.7624C23.3621 3.8249 24.8121 4.0999 26.1996 4.5874C26.5246 4.6999 26.8809 4.53115 26.9996 4.20615C27.1121 3.88115 26.9434 3.5249 26.6184 3.40615C24.9059 2.7999 23.0996 2.49365 21.2559 2.49365C20.9121 2.49365 20.6309 2.7749 20.6309 3.11865V12.5499C20.6309 12.8124 20.7934 13.0437 21.0371 13.1374C23.7246 14.1499 25.8496 16.2749 26.8684 18.9687C26.9621 19.2124 27.1934 19.3749 27.4559 19.3749H36.8871C37.2309 19.3749 37.5121 19.0937 37.5121 18.7499C37.5121 13.6874 35.2184 9.00615 31.2184 5.9124H31.2059Z" fill="white"/>
<path d="M33.1248 21.8749H28.1248C27.7811 21.8749 27.4998 22.1562 27.4998 22.4999C27.4998 25.1687 26.4623 27.6812 24.5686 29.5687C24.3248 29.8124 24.3248 30.2062 24.5686 30.4499L28.1061 33.9874C28.2311 34.1124 28.3873 34.1686 28.5498 34.1686C28.7123 34.1686 28.8686 34.1062 28.9936 33.9874C32.0623 30.9187 33.7498 26.8374 33.7498 22.4937C33.7498 22.1499 33.4686 21.8687 33.1248 21.8687V21.8749ZM28.5436 32.6562L25.8873 29.9999C27.5998 28.0874 28.5936 25.6874 28.7373 23.1249H32.4936C32.3498 26.6937 30.9623 30.0374 28.5498 32.6562H28.5436Z" fill="white"/>
<path d="M26.6373 9.95C26.7186 9.98125 26.7998 10 26.8748 10C27.1186 10 27.3498 9.85625 27.4498 9.6125L30.4123 2.5H31.8686C32.2123 2.5 32.4936 2.21875 32.4936 1.875C32.4936 1.53125 32.2123 1.25 31.8686 1.25H29.9936C29.7436 1.25 29.5123 1.4 29.4186 1.6375L26.2936 9.1375C26.1623 9.45625 26.3123 9.825 26.6311 9.95625L26.6373 9.95Z" fill="white"/>
<path d="M34.375 2.5H38.125C38.4688 2.5 38.75 2.21875 38.75 1.875C38.75 1.53125 38.4688 1.25 38.125 1.25H34.375C34.0312 1.25 33.75 1.53125 33.75 1.875C33.75 2.21875 34.0312 2.5 34.375 2.5Z" fill="white"/>
<path d="M38.125 3.75H34.375C34.0312 3.75 33.75 4.03125 33.75 4.375C33.75 4.71875 34.0312 5 34.375 5H38.125C38.4688 5 38.75 4.71875 38.75 4.375C38.75 4.03125 38.4688 3.75 38.125 3.75Z" fill="white"/>
<path d="M10.1125 22.1375C9.9625 22.35 9.9625 22.6438 10.1125 22.8563C10.2437 23.0438 13.425 27.4938 17.5 27.4938C21.575 27.4938 24.75 23.0438 24.8875 22.8563C25.0375 22.6438 25.0375 22.35 24.8875 22.1375C24.7562 21.95 21.575 17.5 17.5 17.5C13.425 17.5 10.25 21.95 10.1125 22.1375ZM23.5875 22.5C22.7813 23.5 20.3188 26.25 17.5 26.25C14.6812 26.25 12.2188 23.5 11.4125 22.5C12.2188 21.5 14.6812 18.75 17.5 18.75C20.3188 18.75 22.7813 21.5 23.5875 22.5Z" fill="white"/>
<path d="M15 22.5C15 23.8812 16.1187 25 17.5 25C18.8812 25 20 23.8812 20 22.5C20 21.1187 18.8812 20 17.5 20C16.1187 20 15 21.1187 15 22.5ZM18.75 22.5C18.75 23.1875 18.1875 23.75 17.5 23.75C16.8125 23.75 16.25 23.1875 16.25 22.5C16.25 21.8125 16.8125 21.25 17.5 21.25C18.1875 21.25 18.75 21.8125 18.75 22.5Z" fill="white"/>
</svg>
