<svg width="40" height="40" viewBox="0 0 40 40" fill="none" xmlns="http://www.w3.org/2000/svg">
<path fill-rule="evenodd" clip-rule="evenodd" d="M37.5 1.875H2.5C2.33424 1.875 2.17527 1.94085 2.05806 2.05806C1.94085 2.17527 1.875 2.33424 1.875 2.5V37.5C1.875 37.6658 1.94085 37.8247 2.05806 37.9419C2.17527 38.0592 2.33424 38.125 2.5 38.125H37.5C37.6658 38.125 37.8247 38.0592 37.9419 37.9419C38.0592 37.8247 38.125 37.6658 38.125 37.5V2.5C38.125 2.33424 38.0592 2.17527 37.9419 2.05806C37.8247 1.94085 37.6658 1.875 37.5 1.875ZM36.875 36.875H3.125V8.125H36.875V36.875ZM36.875 6.875H3.125V3.125H36.875V6.875Z" fill="white"/>
<path fill-rule="evenodd" clip-rule="evenodd" d="M5 5.625H7.5C7.66576 5.625 7.82473 5.55915 7.94194 5.44194C8.05915 5.32473 8.125 5.16576 8.125 5C8.125 4.83424 8.05915 4.67527 7.94194 4.55806C7.82473 4.44085 7.66576 4.375 7.5 4.375H5C4.83424 4.375 4.67527 4.44085 4.55806 4.55806C4.44085 4.67527 4.375 4.83424 4.375 5C4.375 5.16576 4.44085 5.32473 4.55806 5.44194C4.67527 5.55915 4.83424 5.625 5 5.625Z" fill="white"/>
<path fill-rule="evenodd" clip-rule="evenodd" d="M10 5.625H12.5C12.6658 5.625 12.8247 5.55915 12.9419 5.44194C13.0592 5.32473 13.125 5.16576 13.125 5C13.125 4.83424 13.0592 4.67527 12.9419 4.55806C12.8247 4.44085 12.6658 4.375 12.5 4.375H10C9.83424 4.375 9.67527 4.44085 9.55806 4.55806C9.44085 4.67527 9.375 4.83424 9.375 5C9.375 5.16576 9.44085 5.32473 9.55806 5.44194C9.67527 5.55915 9.83424 5.625 10 5.625Z" fill="white"/>
<path fill-rule="evenodd" clip-rule="evenodd" d="M15 5.625H17.5C17.6658 5.625 17.8247 5.55915 17.9419 5.44194C18.0592 5.32473 18.125 5.16576 18.125 5C18.125 4.83424 18.0592 4.67527 17.9419 4.55806C17.8247 4.44085 17.6658 4.375 17.5 4.375H15C14.8342 4.375 14.6753 4.44085 14.5581 4.55806C14.4408 4.67527 14.375 4.83424 14.375 5C14.375 5.16576 14.4408 5.32473 14.5581 5.44194C14.6753 5.55915 14.8342 5.625 15 5.625Z" fill="white"/>
<path fill-rule="evenodd" clip-rule="evenodd" d="M13.75 28.125C15.6042 28.125 17.4168 27.5752 18.9585 26.545C20.5002 25.5149 21.7018 24.0507 22.4114 22.3377C23.1209 20.6246 23.3066 18.7396 22.9449 16.921C22.5831 15.1025 21.6902 13.432 20.3791 12.1209C19.068 10.8098 17.3975 9.91688 15.579 9.55514C13.7604 9.19341 11.8754 9.37906 10.1623 10.0886C8.44929 10.7982 6.98511 11.9998 5.95497 13.5415C4.92483 15.0832 4.375 16.8958 4.375 18.75C4.37616 21.2361 5.36425 23.6199 7.12215 25.3778C8.88006 27.1358 11.264 28.1238 13.75 28.125ZM14.375 10.6488C16.3078 10.7991 18.1233 11.635 19.4941 13.0059C20.865 14.3767 21.7009 16.1922 21.8512 18.125H14.375V10.6488ZM13.125 10.6488V18.75C13.125 18.9158 13.1908 19.0747 13.3081 19.1919C13.4253 19.3092 13.5842 19.375 13.75 19.375H21.8512C21.7317 20.9241 21.1704 22.4064 20.2341 23.6463C19.2977 24.8861 18.0255 25.8315 16.5683 26.3703C15.111 26.9092 13.5298 27.0189 12.0121 26.6865C10.4943 26.3541 9.10374 25.5935 8.00511 24.4949C6.90648 23.3963 6.14588 22.0057 5.81348 20.4879C5.48107 18.9702 5.5908 17.389 6.12965 15.9317C6.66851 14.4745 7.61389 13.2023 8.85374 12.2659C10.0936 11.3296 11.5759 10.7683 13.125 10.6488Z" fill="white"/>
<path fill-rule="evenodd" clip-rule="evenodd" d="M25 16.875H35C35.1658 16.875 35.3247 16.8092 35.4419 16.6919C35.5592 16.5747 35.625 16.4158 35.625 16.25C35.625 16.0842 35.5592 15.9253 35.4419 15.8081C35.3247 15.6908 35.1658 15.625 35 15.625H25C24.8342 15.625 24.6753 15.6908 24.5581 15.8081C24.4408 15.9253 24.375 16.0842 24.375 16.25C24.375 16.4158 24.4408 16.5747 24.5581 16.6919C24.6753 16.8092 24.8342 16.875 25 16.875Z" fill="white"/>
<path fill-rule="evenodd" clip-rule="evenodd" d="M25 24.375H35C35.1658 24.375 35.3247 24.3092 35.4419 24.1919C35.5592 24.0747 35.625 23.9158 35.625 23.75C35.625 23.5842 35.5592 23.4253 35.4419 23.3081C35.3247 23.1908 35.1658 23.125 35 23.125H25C24.8342 23.125 24.6753 23.1908 24.5581 23.3081C24.4408 23.4253 24.375 23.5842 24.375 23.75C24.375 23.9158 24.4408 24.0747 24.5581 24.1919C24.6753 24.3092 24.8342 24.375 25 24.375Z" fill="white"/>
<path fill-rule="evenodd" clip-rule="evenodd" d="M25 34.375H35C35.1658 34.375 35.3247 34.3092 35.4419 34.1919C35.5592 34.0747 35.625 33.9158 35.625 33.75C35.625 33.5842 35.5592 33.4253 35.4419 33.3081C35.3247 33.1908 35.1658 33.125 35 33.125H25C24.8342 33.125 24.6753 33.1908 24.5581 33.3081C24.4408 33.4253 24.375 33.5842 24.375 33.75C24.375 33.9158 24.4408 34.0747 24.5581 34.1919C24.6753 34.3092 24.8342 34.375 25 34.375Z" fill="white"/>
<path fill-rule="evenodd" clip-rule="evenodd" d="M25 19.375H35C35.1658 19.375 35.3247 19.3092 35.4419 19.1919C35.5592 19.0747 35.625 18.9158 35.625 18.75C35.625 18.5842 35.5592 18.4253 35.4419 18.3081C35.3247 18.1908 35.1658 18.125 35 18.125H25C24.8342 18.125 24.6753 18.1908 24.5581 18.3081C24.4408 18.4253 24.375 18.5842 24.375 18.75C24.375 18.9158 24.4408 19.0747 24.5581 19.1919C24.6753 19.3092 24.8342 19.375 25 19.375Z" fill="white"/>
<path fill-rule="evenodd" clip-rule="evenodd" d="M25 14.375H35C35.1658 14.375 35.3247 14.3092 35.4419 14.1919C35.5592 14.0747 35.625 13.9158 35.625 13.75C35.625 13.5842 35.5592 13.4253 35.4419 13.3081C35.3247 13.1908 35.1658 13.125 35 13.125H25C24.8342 13.125 24.6753 13.1908 24.5581 13.3081C24.4408 13.4253 24.375 13.5842 24.375 13.75C24.375 13.9158 24.4408 14.0747 24.5581 14.1919C24.6753 14.3092 24.8342 14.375 25 14.375Z" fill="white"/>
<path fill-rule="evenodd" clip-rule="evenodd" d="M25 21.875H35C35.1658 21.875 35.3247 21.8092 35.4419 21.6919C35.5592 21.5747 35.625 21.4158 35.625 21.25C35.625 21.0842 35.5592 20.9253 35.4419 20.8081C35.3247 20.6908 35.1658 20.625 35 20.625H25C24.8342 20.625 24.6753 20.6908 24.5581 20.8081C24.4408 20.9253 24.375 21.0842 24.375 21.25C24.375 21.4158 24.4408 21.5747 24.5581 21.6919C24.6753 21.8092 24.8342 21.875 25 21.875Z" fill="white"/>
<path fill-rule="evenodd" clip-rule="evenodd" d="M25 31.875H35C35.1658 31.875 35.3247 31.8092 35.4419 31.6919C35.5592 31.5747 35.625 31.4158 35.625 31.25C35.625 31.0842 35.5592 30.9253 35.4419 30.8081C35.3247 30.6908 35.1658 30.625 35 30.625H25C24.8342 30.625 24.6753 30.6908 24.5581 30.8081C24.4408 30.9253 24.375 31.0842 24.375 31.25C24.375 31.4158 24.4408 31.5747 24.5581 31.6919C24.6753 31.8092 24.8342 31.875 25 31.875Z" fill="white"/>
<path fill-rule="evenodd" clip-rule="evenodd" d="M5 35.625H22.5C22.6658 35.625 22.8247 35.5592 22.9419 35.4419C23.0592 35.3247 23.125 35.1658 23.125 35V30C23.125 29.8342 23.0592 29.6753 22.9419 29.5581C22.8247 29.4408 22.6658 29.375 22.5 29.375H5C4.83424 29.375 4.67527 29.4408 4.55806 29.5581C4.44085 29.6753 4.375 29.8342 4.375 30V35C4.375 35.1658 4.44085 35.3247 4.55806 35.4419C4.67527 35.5592 4.83424 35.625 5 35.625ZM5.625 30.625H21.875V34.375H5.625V30.625Z" fill="white"/>
</svg>
