<svg width="71" height="90" viewBox="0 0 71 90" fill="none" xmlns="http://www.w3.org/2000/svg">
<path d="M69.7197 72.1434H1.17051C0.52439 72.1434 0 71.619 0 70.9729V46.9914C0 46.3453 0.52439 45.8209 1.17051 45.8209H18.6377C19.2838 45.8209 19.8082 46.3453 19.8082 46.9914C19.8082 47.6376 19.2838 48.1619 18.6377 48.1619H2.34103V69.8024H68.5491V2.34103H2.34103V22.0283C2.34103 22.6744 1.81664 23.1988 1.17051 23.1988C0.52439 23.1988 0 22.6744 0 22.0283V1.17051C0 0.52439 0.52439 0 1.17051 0H69.7197C70.3658 0 70.8902 0.52439 70.8902 1.17051V70.9729C70.8902 71.619 70.3658 72.1434 69.7197 72.1434Z" fill="white"/>
<path d="M35.4444 90C34.7983 90 34.2739 89.4756 34.2739 88.8295V18.7454C34.2739 18.0992 34.7983 17.5749 35.4444 17.5749C36.0906 17.5749 36.615 18.0992 36.615 18.7454V88.8295C36.615 89.4756 36.0906 90 35.4444 90Z" fill="white"/>
<path d="M51.5729 35.7881C48.8862 35.7881 46.6997 33.5711 46.6997 30.8469C46.6997 28.122 48.8862 25.905 51.5729 25.905C54.2604 25.905 56.447 28.122 56.447 30.8469C56.447 33.5711 54.2604 35.7881 51.5729 35.7881ZM51.5729 28.2461C50.1769 28.2461 49.0407 29.4127 49.0407 30.8469C49.0407 32.2804 50.1769 33.447 51.5729 33.447C52.9698 33.447 54.106 32.2804 54.106 30.8469C54.106 29.4127 52.9698 28.2461 51.5729 28.2461Z" fill="white"/>
</svg>
