<svg width="40" height="40" viewBox="0 0 40 40" fill="none" xmlns="http://www.w3.org/2000/svg">
<path d="M37.9212 5.60392V34.3963C37.9212 36.4341 36.2758 38.0794 34.2456 38.0794H31.9814C34.0117 38.0794 35.657 36.4341 35.657 34.3963V5.60392C35.657 3.56618 34.0117 1.9209 31.9814 1.9209H34.2456C36.2758 1.9209 37.9212 3.56618 37.9212 5.60392Z" fill="white"/>
<path d="M34.245 38.4568H31.9809C31.7723 38.4568 31.6035 38.288 31.6035 38.0794C31.6035 37.8708 31.7723 37.7021 31.9809 37.7021C33.7999 37.7021 35.2791 36.2192 35.2791 34.3965V5.60375C35.2791 3.78108 33.7999 2.29817 31.9809 2.29817C31.7723 2.29817 31.6035 2.12939 31.6035 1.92082C31.6035 1.71224 31.7723 1.54346 31.9809 1.54346H34.245C36.4797 1.54346 38.2979 3.36465 38.2979 5.60375V34.3965C38.2979 36.6356 36.4797 38.4568 34.245 38.4568ZM34.3335 2.29965C35.3624 3.03668 36.0338 4.24319 36.0338 5.60375V34.3965C36.0338 35.757 35.3624 36.9636 34.3335 37.7006C36.1112 37.6534 37.5432 36.1897 37.5432 34.3965V5.60375C37.5432 3.81056 36.1112 2.34682 34.3335 2.29965Z" fill="white"/>
<path d="M31.9807 38.4568H5.76244C3.52335 38.4568 1.70215 36.6356 1.70215 34.3965V5.60375C1.70215 3.36465 3.52335 1.54346 5.76244 1.54346H31.9807C34.2154 1.54346 36.0337 3.36465 36.0337 5.60375V34.3965C36.0337 36.6356 34.2154 38.4568 31.9807 38.4568ZM5.76244 2.29817C3.93977 2.29817 2.45687 3.78108 2.45687 5.60375V34.3965C2.45687 36.2192 3.93977 37.7021 5.76244 37.7021H31.9807C33.7997 37.7021 35.2789 36.2192 35.2789 34.3965V5.60375C35.2789 3.78108 33.7997 2.29817 31.9807 2.29817H5.76244Z" fill="white"/>
<path d="M35.659 8.58893H2.08146C1.87288 8.58893 1.7041 8.42015 1.7041 8.21157V5.60765C1.7041 3.36856 3.5253 1.54736 5.76439 1.54736H31.9834C34.2181 1.54736 36.0364 3.36856 36.0364 5.60765V8.21157C36.0364 8.42015 35.8676 8.58893 35.659 8.58893ZM2.45882 7.83421H35.2816V5.60765C35.2816 3.78498 33.8024 2.30208 31.9834 2.30208H5.76439C3.94172 2.30208 2.45882 3.78498 2.45882 5.60765V7.83421Z" fill="white"/>
<path d="M5.91396 5.9495C6.40039 5.9495 6.79471 5.55517 6.79471 5.06874C6.79471 4.58232 6.40039 4.18799 5.91396 4.18799C5.42753 4.18799 5.0332 4.58232 5.0332 5.06874C5.0332 5.55517 5.42753 5.9495 5.91396 5.9495Z" fill="white"/>
<path d="M8.96474 5.9495C9.45117 5.9495 9.84549 5.55517 9.84549 5.06874C9.84549 4.58232 9.45117 4.18799 8.96474 4.18799C8.47831 4.18799 8.08398 4.58232 8.08398 5.06874C8.08398 5.55517 8.47831 5.9495 8.96474 5.9495Z" fill="white"/>
<path d="M12.0145 5.9495C12.501 5.9495 12.8953 5.55517 12.8953 5.06874C12.8953 4.58232 12.501 4.18799 12.0145 4.18799C11.5281 4.18799 11.1338 4.58232 11.1338 5.06874C11.1338 5.55517 11.5281 5.9495 12.0145 5.9495Z" fill="white"/>
<path d="M21.1182 5.44612H19.2631C19.0545 5.44612 18.8857 5.27734 18.8857 5.06876C18.8857 4.86019 19.0545 4.69141 19.2631 4.69141H21.1182C21.3268 4.69141 21.4956 4.86019 21.4956 5.06876C21.4956 5.27734 21.3268 5.44612 21.1182 5.44612Z" fill="white"/>
<path d="M32.7071 5.44612H23.226C23.0174 5.44612 22.8486 5.27734 22.8486 5.06876C22.8486 4.86019 23.0174 4.69141 23.226 4.69141H32.7071C32.9157 4.69141 33.0845 4.86019 33.0845 5.06876C33.0845 5.27734 32.9157 5.44612 32.7071 5.44612Z" fill="white"/>
<path d="M9.62965 33.5936C9.40043 33.5936 9.17269 33.5022 9.00538 33.3356L8.53663 32.8669C8.34058 32.6568 8.25583 32.3893 8.29415 32.124L8.41502 31.2572C8.43861 31.0236 8.56833 30.7973 8.76953 30.6506L9.32304 30.2313C9.68492 29.9578 10.0144 29.6704 10.3328 29.352L16.3934 23.2995C16.5408 23.1521 16.7796 23.1521 16.927 23.2995C17.0744 23.4469 17.0744 23.6857 16.927 23.8331L10.8664 29.8856C10.5237 30.2291 10.1677 30.5393 9.77779 30.8334L9.21986 31.2557C9.18596 31.2808 9.16753 31.3125 9.16384 31.3479L9.0415 32.2301C9.0356 32.2721 9.04887 32.3097 9.07982 32.3436L9.53826 32.8013C9.567 32.83 9.60385 32.8426 9.64807 32.8374L10.5296 32.7239C10.5546 32.721 10.5981 32.7003 10.6372 32.6509L11.03 32.1254C11.3337 31.7171 11.6631 31.3353 12.0088 30.9897L18.0465 24.9519C18.1939 24.8045 18.4327 24.8045 18.5801 24.9519C18.7275 25.0993 18.7275 25.3381 18.5801 25.4855L12.5424 31.5233C12.2225 31.8432 11.9174 32.1977 11.6351 32.5765L11.2342 33.1123C11.0698 33.3194 10.8487 33.4469 10.6202 33.4735L9.74978 33.5855C9.70998 33.5914 9.67018 33.5936 9.62965 33.5936Z" fill="white"/>
<path d="M22.2907 24.0419C22.1942 24.0419 22.0976 24.005 22.0239 23.9313C21.8765 23.7839 21.8765 23.5451 22.0239 23.3977L27.971 17.4425C28.4434 16.9701 28.7036 16.3429 28.7036 15.6759C28.7036 15.0089 28.4434 14.3809 27.971 13.9085C27.0261 12.9636 25.3818 12.9636 24.4369 13.9085L18.4899 19.8629C18.3425 20.0103 18.1037 20.0103 17.9563 19.8629C17.8089 19.7155 17.8089 19.4767 17.9563 19.3293L23.9033 13.3749C24.5188 12.7594 25.3354 12.4204 26.2043 12.4204C27.0726 12.4204 27.8899 12.7594 28.5046 13.3749C29.12 13.9903 29.4583 14.8069 29.4583 15.6759C29.4583 16.5441 29.12 17.3614 28.5046 17.9761L22.5575 23.9313C22.4838 24.005 22.3873 24.0419 22.2907 24.0419Z" fill="white"/>
<path d="M20.2319 20.6285C20.1353 20.6285 20.0387 20.5916 19.965 20.5179C19.8176 20.3705 19.8176 20.1317 19.965 19.9843L25.237 14.7116C25.3844 14.5642 25.6232 14.5642 25.7706 14.7116C25.918 14.859 25.918 15.0978 25.7706 15.2452L20.4987 20.5179C20.425 20.5916 20.3284 20.6285 20.2319 20.6285Z" fill="white"/>
<path d="M21.6313 22.0281C21.5347 22.0281 21.4382 21.9913 21.3645 21.9176C21.2171 21.7702 21.2171 21.5314 21.3645 21.384L26.6372 16.112C26.7846 15.9646 27.0234 15.9646 27.1708 16.112C27.3182 16.2594 27.3182 16.4982 27.1708 16.6456L21.8981 21.9176C21.8244 21.9913 21.7278 22.0281 21.6313 22.0281Z" fill="white"/>
<path d="M22.887 30.1704C22.7904 30.1704 22.6939 30.1335 22.6202 30.0598L11.8205 19.2594C11.6731 19.112 11.6731 18.8732 11.8205 18.7258C11.9679 18.5784 12.2067 18.5784 12.3541 18.7258L23.1538 29.5262C23.3012 29.6736 23.3012 29.9124 23.1538 30.0598C23.0801 30.1335 22.9835 30.1704 22.887 30.1704Z" fill="white"/>
<path d="M25.6565 27.4003C25.56 27.4003 25.4634 27.3634 25.3897 27.2897L14.59 16.4967C14.4426 16.3493 14.4426 16.1105 14.59 15.9631C14.7375 15.8157 14.9762 15.8157 15.1237 15.9631L25.9233 26.7561C26.0707 26.9035 26.0707 27.1423 25.9233 27.2897C25.8496 27.3634 25.7531 27.4003 25.6565 27.4003Z" fill="white"/>
<path d="M11.0745 19.5098C10.2203 19.5098 9.36612 19.2548 8.63867 18.7455C7.6798 18.0792 7.04227 17.0857 6.84401 15.9499C6.78873 15.6212 6.94498 15.3117 7.24126 15.1591C7.53608 15.008 7.88985 15.0626 8.12201 15.2947L8.80745 15.9802L11.2035 15.3375L11.8344 12.9429L11.1446 12.2545C10.9117 12.0216 10.8579 11.6671 11.0112 11.3715C11.1615 11.0797 11.4674 10.9271 11.7858 10.9809C12.6702 11.1268 13.4736 11.5388 14.1067 12.1727C15.0118 13.0777 15.4643 14.3285 15.3478 15.6028C15.2321 16.8756 14.5518 18.0276 13.4824 18.7646C12.7616 19.2614 11.9177 19.5098 11.0745 19.5098ZM7.58767 15.8283C7.75055 16.7562 8.27753 17.5758 9.07057 18.1271C9.07131 18.1271 9.07131 18.1271 9.07204 18.1279C10.2594 18.9592 11.861 18.9651 13.0542 18.1426C13.9386 17.5338 14.5003 16.583 14.5961 15.5342C14.6926 14.4832 14.3197 13.4529 13.5731 12.7063C13.052 12.1845 12.3909 11.8454 11.6612 11.7253L12.3725 12.4151C12.5604 12.6016 12.6334 12.8787 12.5633 13.1389L11.9258 15.5313C11.8676 15.7856 11.6642 15.9964 11.3981 16.0671L8.99539 16.7061C8.73375 16.7754 8.45884 16.7002 8.2731 16.513L7.58767 15.8283Z" fill="white"/>
<path d="M26.0868 35.0491C26.0447 35.0491 26.002 35.0454 25.9592 35.038C25.0697 34.8869 24.2656 34.4742 23.6347 33.8426C22.7303 32.9382 22.2785 31.6875 22.395 30.4117C22.5107 29.1388 23.1902 27.9861 24.2582 27.2498C25.7094 26.2504 27.6566 26.2578 29.1049 27.2727C30.0682 27.9412 30.7042 28.9339 30.8973 30.066C30.9548 30.3903 30.8015 30.7006 30.5067 30.8539C30.2097 31.0094 29.8537 30.9534 29.6193 30.7198L28.9383 30.0388L26.5422 30.6814L25.9062 33.0724L26.596 33.76C26.8312 33.9951 26.8864 34.3518 26.7331 34.6481C26.6027 34.9002 26.3572 35.0491 26.0868 35.0491ZM26.6624 27.2697C25.9659 27.2697 25.2694 27.4702 24.6871 27.8712C23.8034 28.4799 23.2418 29.4307 23.146 30.4802C23.0502 31.5327 23.4224 32.5631 24.1683 33.3089C24.6879 33.8286 25.3512 34.1691 26.0853 34.2936L25.3726 33.6038C25.1832 33.4143 25.108 33.1365 25.1765 32.8778L25.8155 30.4839C25.8841 30.2267 26.0868 30.0225 26.3454 29.9525L28.7445 29.3091C29.0017 29.2413 29.2796 29.3135 29.4712 29.5044L30.1529 30.1862C29.9945 29.2619 29.4697 28.4446 28.6745 27.8918C28.6737 27.8918 28.6737 27.8918 28.673 27.8911C28.0819 27.4768 27.3721 27.2697 26.6624 27.2697Z" fill="white"/>
</svg>
