<svg width="24" height="24" viewBox="0 0 24 24" fill="none" xmlns="http://www.w3.org/2000/svg">
<g clip-path="url(#clip0_21607_394)">
<path d="M13.9751 6.40617C11.0658 5.79628 8.79188 3.52233 8.18208 0.612984C8.10718 0.255844 7.79218 0 7.42716 0C7.06214 0 6.74714 0.255844 6.67229 0.613031C6.06244 3.52233 3.78849 5.79623 0.879191 6.40603C0.522004 6.48089 0.266113 6.79594 0.266113 7.16091C0.266113 7.52588 0.521957 7.84092 0.879191 7.91578C3.78844 8.52567 6.0623 10.7996 6.67214 13.7089C6.747 14.0661 7.062 14.322 7.42702 14.322C7.79199 14.322 8.10704 14.0661 8.18189 13.7089C8.79179 10.7996 11.0658 8.52567 13.9751 7.91592C14.3323 7.84106 14.5882 7.52606 14.5882 7.16105C14.5881 6.79608 14.3323 6.48103 13.9751 6.40617Z" fill="black"/>
<path d="M12.7003 19.1477C11.3295 18.8604 10.2582 17.7891 9.97077 16.4183C9.89591 16.0611 9.58091 15.8052 9.21589 15.8052C8.85092 15.8052 8.53588 16.061 8.46102 16.4182C8.17363 17.789 7.10221 18.8603 5.73149 19.1477C5.3743 19.2226 5.11841 19.5376 5.11841 19.9026C5.11841 20.2675 5.37425 20.5826 5.73149 20.6574C7.10216 20.9448 8.17358 22.0162 8.46092 23.387C8.53578 23.7442 8.85078 24.0001 9.2158 24.0001C9.58077 24.0001 9.89581 23.7443 9.97067 23.387C10.2581 22.0162 11.3295 20.9448 12.7003 20.6575C13.0574 20.5826 13.3133 20.2676 13.3133 19.9026C13.3133 19.5376 13.0575 19.2226 12.7003 19.1477Z" fill="black"/>
<path d="M23.1208 12.0065C21.268 11.6181 19.8199 10.1699 19.4315 8.31718C19.3567 7.95999 19.0417 7.7041 18.6766 7.7041C18.3117 7.7041 17.9966 7.9599 17.9218 8.31713C17.5334 10.1699 16.0852 11.618 14.2325 12.0064C13.8753 12.0812 13.6194 12.3963 13.6194 12.7613C13.6194 13.1262 13.8752 13.4412 14.2325 13.5161C16.0852 13.9045 17.5333 15.3526 17.9217 17.2054C17.9965 17.5626 18.3115 17.8185 18.6765 17.8185C19.0415 17.8185 19.3566 17.5627 19.4314 17.2054C19.8199 15.3526 21.268 13.9045 23.1207 13.5162C23.4779 13.4413 23.7338 13.1263 23.7338 12.7614C23.7338 12.3964 23.4779 12.0813 23.1208 12.0065Z" fill="black"/>
</g>
<defs>
<clipPath id="clip0_21607_394">
<rect width="24" height="24" fill="white"/>
</clipPath>
</defs>
</svg>
