<svg width="98" height="98" viewBox="0 0 98 98" fill="none" xmlns="http://www.w3.org/2000/svg">
<path d="M98 36.1169L95.9631 30.391L56.8083 42.7236L81.2517 10.1303L76.0462 6.60674L51.1501 39.8607V0H44.8129V38.9798L21.5012 7.70786L16.2956 11.2315L39.8337 42.7236L2.03695 30.8315L0 36.5573L38.0231 48.6697L0.226328 60.5618L2.26328 66.5079L40.2864 54.3955L16.7483 85.8876L21.9538 89.4112L44.8129 58.8V98H51.1501V57.9191L75.5935 90.5124L80.5727 86.9888L56.3557 54.3955L95.7367 66.9483L97.7737 61.0022L58.6189 48.6697L98 36.1169Z" fill="url(#paint0_linear_21540_1571)"/>
<defs>
<linearGradient id="paint0_linear_21540_1571" x1="151.9" y1="49" x2="0.00129713" y2="49.4452" gradientUnits="userSpaceOnUse">
<stop stop-color="#9708CC"/>
<stop offset="1" stop-color="#43CBFF"/>
</linearGradient>
</defs>
</svg>
