<svg width="98" height="16" viewBox="0 0 98 16" fill="none" xmlns="http://www.w3.org/2000/svg">
<g id="Rating">
<path id="&#239;&#129;&#188;" d="M10.4806 5.3909L14.6701 6.00563C15.0216 6.06418 15.3146 6.29836 15.4318 6.64964C15.549 6.97164 15.4611 7.35218 15.1974 7.58637L12.1505 10.6015L12.883 14.8753C12.9416 15.2266 12.7951 15.5779 12.5021 15.7828C12.2091 16.0169 11.8283 16.0169 11.506 15.8706L7.75601 13.8508L3.97671 15.8706C3.68374 16.0169 3.27358 16.0169 3.00991 15.7828C2.71694 15.5779 2.57046 15.2266 2.62905 14.8753L3.33218 10.6015L0.285303 7.58637C0.0216314 7.35218 -0.0662592 6.97164 0.0509283 6.64964C0.168116 6.29836 0.461085 6.06418 0.812647 6.00563L5.0314 5.3909L6.9064 1.49761C7.05288 1.17561 7.37515 0.970703 7.75601 0.970703C8.10757 0.970703 8.42983 1.17561 8.57632 1.49761L10.4806 5.3909Z" fill="#FFC131"/>
<path id="&#239;&#129;&#188;_2" d="M30.9635 5.3909L35.153 6.00563C35.5045 6.06418 35.7975 6.29836 35.9147 6.64964C36.0319 6.97164 35.944 7.35218 35.6803 7.58637L32.6334 10.6015L33.3659 14.8753C33.4245 15.2266 33.278 15.5779 32.985 15.7828C32.692 16.0169 32.3112 16.0169 31.9889 15.8706L28.2389 13.8508L24.4596 15.8706C24.1667 16.0169 23.7565 16.0169 23.4928 15.7828C23.1999 15.5779 23.0534 15.2266 23.112 14.8753L23.8151 10.6015L20.7682 7.58637C20.5045 7.35218 20.4167 6.97164 20.5338 6.64964C20.651 6.29836 20.944 6.06418 21.2956 6.00563L25.5143 5.3909L27.3893 1.49761C27.5358 1.17561 27.8581 0.970703 28.2389 0.970703C28.5905 0.970703 28.9127 1.17561 29.0592 1.49761L30.9635 5.3909Z" fill="#FFC131"/>
<path id="&#239;&#129;&#188;_3" d="M51.4459 5.3909L55.6354 6.00563C55.987 6.06418 56.2799 6.29836 56.3971 6.64964C56.5143 6.97164 56.4264 7.35218 56.1627 7.58637L53.1159 10.6015L53.8483 14.8753C53.9069 15.2266 53.7604 15.5779 53.4674 15.7828C53.1745 16.0169 52.7936 16.0169 52.4713 15.8706L48.7213 13.8508L44.942 15.8706C44.6491 16.0169 44.2389 16.0169 43.9752 15.7828C43.6823 15.5779 43.5358 15.2266 43.5944 14.8753L44.2975 10.6015L41.2506 7.58637C40.987 7.35218 40.8991 6.97164 41.0163 6.64964C41.1334 6.29836 41.4264 6.06418 41.778 6.00563L45.9967 5.3909L47.8717 1.49761C48.0182 1.17561 48.3405 0.970703 48.7213 0.970703C49.0729 0.970703 49.3952 1.17561 49.5417 1.49761L51.4459 5.3909Z" fill="#FFC131"/>
<path id="&#239;&#129;&#188;_4" d="M71.9289 5.3909L76.1183 6.00563C76.4699 6.06418 76.7628 6.29836 76.88 6.64964C76.9972 6.97164 76.9093 7.35218 76.6457 7.58637L73.5988 10.6015L74.3312 14.8753C74.3898 15.2266 74.2433 15.5779 73.9503 15.7828C73.6574 16.0169 73.2765 16.0169 72.9542 15.8706L69.2042 13.8508L65.425 15.8706C65.132 16.0169 64.7218 16.0169 64.4582 15.7828C64.1652 15.5779 64.0187 15.2266 64.0773 14.8753L64.7804 10.6015L61.7335 7.58637C61.4699 7.35218 61.382 6.97164 61.4992 6.64964C61.6164 6.29836 61.9093 6.06418 62.2609 6.00563L66.4796 5.3909L68.3546 1.49761C68.5011 1.17561 68.8234 0.970703 69.2042 0.970703C69.5558 0.970703 69.8781 1.17561 70.0246 1.49761L71.9289 5.3909Z" fill="#FFC131"/>
<path id="&#239;&#129;&#188;_5" d="M94.8136 14.8753C94.8722 15.2266 94.7257 15.5779 94.4328 15.7828C94.1398 16.0169 93.7589 16.0169 93.4367 15.8706L89.6867 13.8508L85.9074 15.8706C85.6144 16.0169 85.2042 16.0169 84.9406 15.7828C84.6476 15.5779 84.5011 15.2266 84.5597 14.8753L85.2628 10.6015L82.216 7.58637C81.9523 7.35218 81.8644 6.97164 81.9816 6.64964C82.0988 6.29836 82.3917 6.06418 82.7433 6.00563L86.9621 5.3909L88.8371 1.49761C88.9835 1.17561 89.3058 0.970703 89.6867 0.970703C90.0382 0.970703 90.3605 1.17561 90.507 1.49761L92.4113 5.3909L96.6007 6.00563C96.9523 6.06418 97.2453 6.29836 97.3625 6.64964C97.4796 6.97164 97.3917 7.35218 97.1281 7.58637L94.0812 10.6015L94.8136 14.8753ZM89.6867 12.0066L92.9386 13.7337L92.3234 10.0453L94.9894 7.41073L91.298 6.88382L89.6867 3.51744V3.54671V12.0066Z" fill="#FFC131"/>
</g>
</svg>
