<svg width="60" height="60" viewBox="0 0 60 60" fill="none" xmlns="http://www.w3.org/2000/svg">
<circle cx="30" cy="30" r="29.5" stroke="url(#paint0_linear_21893_61)" stroke-dasharray="5 5"/>
<path d="M29.9594 45L27.0576 42.0988L25.0309 44.1256L21.6775 40.7721L23.7042 38.7454L20.803 35.8442L22.8298 33.8175L20.3802 31.3672L18.3534 33.394L15 30.0412L30.0412 15L32.9424 17.9012L34.9691 15.8744L38.3225 19.2279L36.2958 21.2546L39.197 24.1558L37.1702 26.1825L39.6205 28.6328L41.6472 26.606L45 29.9588L29.9594 45ZM27.5092 41.6472L29.9594 44.0968L44.0975 29.9588L41.6479 27.5092L27.5092 41.6472ZM22.5813 40.7721L25.0309 43.2224L39.1689 29.0844L36.7193 26.6341L22.5813 40.7721ZM21.7062 35.8442L24.1558 38.2938L38.2938 24.1558L35.8442 21.7062L21.7062 35.8442ZM20.8317 30.9156L23.2813 33.3659L37.4194 19.2279L34.9691 16.7776L20.8317 30.9156ZM15.9032 30.0412L18.3528 32.4908L32.4908 18.3528L30.0412 15.9032L15.9032 30.0412Z" fill="black"/>
<defs>
<linearGradient id="paint0_linear_21893_61" x1="4.47035e-08" y1="30" x2="75.375" y2="30" gradientUnits="userSpaceOnUse">
<stop stop-color="#E5087B"/>
<stop offset="1" stop-color="#FDD819"/>
</linearGradient>
</defs>
</svg>
