<svg width="36" height="35" viewBox="0 0 36 35" fill="none" xmlns="http://www.w3.org/2000/svg">
<path d="M20.3798 20.8928C22.2944 17.8872 22.0537 18.2622 22.1089 18.1838C22.8059 17.2002 23.1744 16.0426 23.1744 14.8359C23.1744 11.636 20.5788 9 17.376 9C14.1837 9 11.5777 11.6308 11.5777 14.8359C11.5777 16.0418 11.9539 17.2298 12.6738 18.2266L14.3722 20.8929C12.5563 21.172 9.46924 22.004 9.46924 23.8359C9.46924 24.5037 9.90492 25.4554 11.9805 26.197C13.4298 26.7148 15.346 27 17.376 27C21.1722 27 25.2828 25.9287 25.2828 23.8359C25.2828 22.0037 22.1994 21.1726 20.3798 20.8928ZM13.5544 17.6465C13.5486 17.6374 13.5425 17.6286 13.5362 17.6199C12.9372 16.7954 12.632 15.8182 12.632 14.8359C12.632 12.1986 14.7547 10.0547 17.376 10.0547C19.9919 10.0547 22.1201 12.1995 22.1201 14.8359C22.1201 15.8198 21.8207 16.7638 21.254 17.5666C21.2032 17.6336 21.4682 17.2218 17.376 23.6457L13.5544 17.6465ZM17.376 25.9453C13.2296 25.9453 10.5235 24.726 10.5235 23.8359C10.5235 23.2377 11.9139 22.2541 14.9951 21.8707L16.9315 24.9104C17.0283 25.0623 17.1959 25.1543 17.376 25.1543C17.5561 25.1543 17.7238 25.0623 17.8205 24.9104L19.7568 21.8707C22.8381 22.2541 24.2286 23.2377 24.2286 23.8359C24.2286 24.7184 21.5469 25.9453 17.376 25.9453Z" fill="white"/>
<path d="M17.3758 12.1992C15.9226 12.1992 14.7402 13.3821 14.7402 14.8359C14.7402 16.2898 15.9226 17.4727 17.3758 17.4727C18.8291 17.4727 20.0114 16.2898 20.0114 14.8359C20.0114 13.3821 18.8291 12.1992 17.3758 12.1992ZM17.3758 16.418C16.5039 16.418 15.7945 15.7083 15.7945 14.8359C15.7945 13.9636 16.5039 13.2539 17.3758 13.2539C18.2478 13.2539 18.9572 13.9636 18.9572 14.8359C18.9572 15.7083 18.2478 16.418 17.3758 16.418Z" fill="white"/>
<path d="M34.8684 17.5C34.8684 26.889 27.2604 34.5 17.8759 34.5C8.49133 34.5 0.883301 26.889 0.883301 17.5C0.883301 8.11096 8.49133 0.5 17.8759 0.5C27.2604 0.5 34.8684 8.11096 34.8684 17.5Z" stroke="white"/>
</svg>
