<svg width="12" height="14" viewBox="0 0 12 14" fill="none" xmlns="http://www.w3.org/2000/svg">
<path id="&#239;&#128;&#135; " d="M6 7C5.03571 6.98177 4.22321 6.64453 3.5625 5.98828C2.91964 5.3138 2.58929 4.48438 2.57143 3.5C2.58929 2.51562 2.91964 1.6862 3.5625 1.01172C4.22321 0.355469 5.03571 0.0182292 6 0C6.96429 0.0182292 7.77679 0.355469 8.4375 1.01172C9.08036 1.6862 9.41071 2.51562 9.42857 3.5C9.41071 4.48438 9.08036 5.3138 8.4375 5.98828C7.77679 6.64453 6.96429 6.98177 6 7ZM6 0.875C5.26786 0.893229 4.66071 1.14844 4.17857 1.64062C3.69643 2.13281 3.44643 2.7526 3.42857 3.5C3.44643 4.2474 3.69643 4.86719 4.17857 5.35938C4.66071 5.85156 5.26786 6.10677 6 6.125C6.73214 6.10677 7.33929 5.85156 7.82143 5.35938C8.30357 4.86719 8.55357 4.2474 8.57143 3.5C8.55357 2.7526 8.30357 2.13281 7.82143 1.64062C7.33929 1.14844 6.73214 0.893229 6 0.875ZM7.36607 8.3125C8.66964 8.34896 9.75893 8.8138 10.6339 9.70703C11.5089 10.6003 11.9643 11.7122 12 13.043C12 13.3164 11.9107 13.5443 11.7321 13.7266C11.5536 13.9089 11.3304 14 11.0625 14H0.9375C0.669643 14 0.446429 13.9089 0.267857 13.7266C0.0892857 13.5443 0 13.3164 0 13.043C0.0357143 11.7122 0.491071 10.6003 1.36607 9.70703C2.24107 8.8138 3.33036 8.34896 4.63393 8.3125H7.36607ZM11.0625 13.125C11.1161 13.125 11.1429 13.0977 11.1429 13.043C11.1071 11.9492 10.7411 11.0378 10.0446 10.3086C9.33036 9.59766 8.4375 9.22396 7.36607 9.1875H4.63393C3.5625 9.22396 2.66964 9.59766 1.95536 10.3086C1.25893 11.0378 0.892857 11.9492 0.857143 13.043C0.857143 13.0977 0.883929 13.125 0.9375 13.125H11.0625Z" fill="#3CA200"/>
</svg>
