<svg width="53" height="75" viewBox="0 0 53 75" fill="none" xmlns="http://www.w3.org/2000/svg">
<path d="M26.2513 14.794C23.7184 14.794 21.2422 15.5451 19.1361 16.9524C17.03 18.3596 15.3885 20.3598 14.4192 22.7C13.4499 25.0401 13.1963 27.6152 13.6904 30.0995C14.1846 32.5838 15.4043 34.8658 17.1954 36.6569C18.9865 38.448 21.2685 39.6678 23.7528 40.1619C26.2371 40.6561 28.8122 40.4025 31.1524 39.4331C33.4925 38.4638 35.4927 36.8223 36.9 34.7162C38.3072 32.6101 39.0583 30.134 39.0583 27.601C39.0544 24.2056 37.7038 20.9504 35.3029 18.5495C32.9019 16.1486 29.6467 14.798 26.2513 14.794Z" fill="white"/>
<path d="M23.3743 58.524L23.3053 58.461L21.6733 56.984L17.8333 53.51L13.6583 53.959L11.1033 54.233L10.4973 54.299L8.54634 54.508L2.40234 67.564L11.9163 67.69L18.0743 74.94L25.0743 60.064L23.3743 58.524Z" fill="white"/>
<path d="M43.9557 54.506L42.0047 54.297L41.3987 54.233L38.8437 53.958L34.6687 53.509L30.8287 56.983L29.1967 58.4601L29.1277 58.523L27.4277 60.063L34.4277 74.9391L40.5857 67.6891L50.0997 67.563L43.9557 54.506Z" fill="white"/>
<path d="M48.68 27.6L52.501 19.071L44.401 14.417L42.479 5.27L33.186 6.27L26.253 0L19.32 6.27L10.027 5.27L8.105 14.417L0.00499725 19.071L3.821 27.6L0 36.13L8.1 40.784L10.022 49.931L10.73 49.855L13.287 49.58L15.842 49.306L16.527 49.233L19.313 48.933L21.413 50.833L23.624 52.833L24.313 53.457L25.326 54.373L26.248 55.207L27.17 54.373L28.183 53.457L28.872 52.833L30.592 51.279L33.178 48.939L37.694 49.423L38.154 49.473L39.205 49.586L41.76 49.861L42.468 49.937L44.39 40.79L52.49 36.136L48.68 27.6ZM26.253 44.8C22.8512 44.8 19.5257 43.7912 16.6972 41.9013C13.8687 40.0113 11.6641 37.325 10.3623 34.1822C9.06044 31.0393 8.71983 27.5809 9.38349 24.2444C10.0472 20.908 11.6853 17.8432 14.0908 15.4378C16.4962 13.0323 19.561 11.3942 22.8974 10.7305C26.2339 10.0668 29.6923 10.4074 32.8352 11.7093C35.978 13.0111 38.6643 15.2157 40.5543 18.0442C42.4442 20.8727 43.453 24.1982 43.453 27.6C43.4485 32.1603 41.6349 36.5326 38.4103 39.7573C35.1856 42.9819 30.8133 44.7955 26.253 44.8Z" fill="white"/>
</svg>
