<svg width="30" height="30" viewBox="0 0 30 30" fill="none" xmlns="http://www.w3.org/2000/svg">
<path d="M16.3805 2.68476C17.1225 2.68476 17.7209 2.08635 17.7209 1.34433C17.7209 0.60231 17.1225 0.00390625 16.3805 0.00390625C15.6384 0.00390625 15.04 0.60231 15.04 1.34433C15.04 2.08635 15.6384 2.68476 16.3805 2.68476Z" fill="#87E64B"/>
<path d="M24.0798 22.1968L16.532 23.0026C16.3963 23.0186 16.3245 22.843 16.4362 22.7553L23.8245 17.0026C24.3032 16.6117 24.6064 15.9973 24.4788 15.343C24.3511 14.3377 23.5213 13.6835 22.4761 13.8191L14.4495 14.992C14.3059 15.0159 14.2341 14.8324 14.3458 14.7446L22.3006 8.66485C23.8724 7.44411 24 5.04251 22.5639 3.64623C21.2554 2.33772 19.1649 2.37762 17.8564 3.68613L5.01866 16.7473C4.53994 17.2739 4.32451 17.968 4.45217 18.7101C4.6676 19.8909 5.84845 20.6728 7.0293 20.4574L13.9389 19.0452C14.0905 19.0133 14.1703 19.2127 14.0426 19.3005L6.37505 24.2074C5.4176 24.8218 4.97877 25.9069 5.28196 27C5.58515 28.4361 7.0293 29.2659 8.42558 28.9228L19.891 26.0984C20.0187 26.0664 20.1144 26.218 20.0346 26.3218L18.2474 28.5319C17.7687 29.1462 18.5506 29.968 19.2048 29.4893L25.0931 24.6462C26.1383 23.7766 25.4442 22.0691 24.0878 22.2047L24.0798 22.1968Z" fill="#87E64B"/>
</svg>
