<svg width="59" height="59" viewBox="0 0 59 59" fill="none" xmlns="http://www.w3.org/2000/svg">
<g id="credit-card 1">
<g id="Group">
<path id="Vector" d="M22.125 53.4688H14.75C14.5055 53.4688 14.271 53.5659 14.0981 53.7389C13.9253 53.9119 13.8281 54.1465 13.8281 54.3911C13.8281 54.6357 13.9253 54.8703 14.0981 55.0433C14.271 55.2162 14.5055 55.3134 14.75 55.3134H22.125C22.3695 55.3134 22.604 55.2162 22.7769 55.0433C22.9497 54.8703 23.0469 54.6357 23.0469 54.3911C23.0469 54.1465 22.9497 53.9119 22.7769 53.7389C22.604 53.5659 22.3695 53.4688 22.125 53.4688Z" fill="#3CA200"/>
<path id="Vector_2" d="M53.9297 18.4375H35.0312V4.14844C35.0303 3.29299 34.6901 2.47285 34.0852 1.86796C33.4803 1.26306 32.6601 0.922821 31.8047 0.921875H5.07031C4.21486 0.922821 3.39473 1.26306 2.78983 1.86796C2.18494 2.47285 1.8447 3.29299 1.84375 4.14844V54.8516C1.8447 55.707 2.18494 56.5271 2.78983 57.132C3.39473 57.7369 4.21486 58.0772 5.07031 58.0781H31.8047C32.6601 58.0772 33.4803 57.7369 34.0852 57.132C34.6901 56.5271 35.0303 55.707 35.0312 54.8516V41.4844H53.9297C54.7851 41.4834 55.6053 41.1432 56.2102 40.5383C56.8151 39.9334 57.1553 39.1133 57.1562 38.2578V21.6641C57.1553 20.8086 56.8151 19.9885 56.2102 19.3836C55.6053 18.7787 54.7851 18.4384 53.9297 18.4375ZM22.7876 2.76562L22.3267 4.60938H14.5483L14.0874 2.76562H22.7876ZM33.1875 54.8516C33.1872 55.2182 33.0414 55.5698 32.7821 55.829C32.5229 56.0883 32.1713 56.2341 31.8047 56.2344H5.07031C4.70366 56.2341 4.35211 56.0883 4.09285 55.829C3.83359 55.5698 3.68781 55.2182 3.6875 54.8516V4.14844C3.68781 3.78179 3.83359 3.43024 4.09285 3.17098C4.35211 2.91172 4.70366 2.76593 5.07031 2.76562H12.186L12.9339 5.7548C12.9838 5.95424 13.0988 6.1313 13.2609 6.25782C13.4229 6.38435 13.6226 6.45309 13.8281 6.45312H23.0469C23.2524 6.45309 23.4521 6.38435 23.6141 6.25782C23.7762 6.1313 23.8912 5.95424 23.9411 5.7548L24.689 2.76562H31.8047C32.1713 2.76593 32.5229 2.91172 32.7821 3.17098C33.0414 3.43024 33.1872 3.78179 33.1875 4.14844V54.8516ZM35.0312 32.2656H37.7969V35.9531H35.0312V32.2656ZM55.3125 38.2578C55.3122 38.6245 55.1664 38.976 54.9071 39.2353C54.6479 39.4945 54.2963 39.6403 53.9297 39.6406H35.0312V37.7969H38.7187C38.9632 37.7969 39.1977 37.6997 39.3706 37.5269C39.5435 37.354 39.6406 37.1195 39.6406 36.875V31.3438C39.6406 31.0993 39.5435 30.8648 39.3706 30.6919C39.1977 30.519 38.9632 30.4219 38.7187 30.4219H35.0312V27.6562H55.3125V38.2578ZM55.3125 25.8125H35.0312V23.9688H55.3125V25.8125ZM55.3125 22.125H35.0312V20.2812H53.9297C54.2963 20.2816 54.6479 20.4273 54.9071 20.6866C55.1664 20.9459 55.3122 21.2974 55.3125 21.6641V22.125Z" fill="#3CA200"/>
<path id="Vector_3" d="M52.5469 30.4219H44.25C44.0055 30.4219 43.771 30.519 43.5981 30.692C43.4253 30.865 43.3281 31.0996 43.3281 31.3442C43.3281 31.5888 43.4253 31.8234 43.5981 31.9964C43.771 32.1693 44.0055 32.2665 44.25 32.2665H52.5469C52.7914 32.2665 53.0259 32.1693 53.1987 31.9964C53.3716 31.8234 53.4688 31.5888 53.4688 31.3442C53.4688 31.0996 53.3716 30.865 53.1987 30.692C53.0259 30.519 52.7914 30.4219 52.5469 30.4219Z" fill="#3CA200"/>
<path id="Vector_4" d="M52.5469 33.1875H44.25C44.0055 33.1875 43.771 33.2847 43.5981 33.4576C43.4253 33.6306 43.3281 33.8652 43.3281 34.1098C43.3281 34.3544 43.4253 34.589 43.5981 34.762C43.771 34.935 44.0055 35.0321 44.25 35.0321H52.5469C52.7914 35.0321 53.0259 34.935 53.1987 34.762C53.3716 34.589 53.4688 34.3544 53.4688 34.1098C53.4688 33.8652 53.3716 33.6306 53.1987 33.4576C53.0259 33.2847 52.7914 33.1875 52.5469 33.1875Z" fill="#3CA200"/>
<path id="Vector_5" d="M52.5469 35.9531H48.8594C48.6149 35.9531 48.3804 36.0503 48.2075 36.2233C48.0346 36.3962 47.9375 36.6308 47.9375 36.8754C47.9375 37.1201 48.0346 37.3547 48.2075 37.5276C48.3804 37.7006 48.6149 37.7978 48.8594 37.7978H52.5469C52.7914 37.7978 53.0259 37.7006 53.1987 37.5276C53.3716 37.3547 53.4688 37.1201 53.4688 36.8754C53.4688 36.6308 53.3716 36.3962 53.1987 36.2233C53.0259 36.0503 52.7914 35.9531 52.5469 35.9531Z" fill="#3CA200"/>
<path id="Vector_6" d="M18.4375 18.4375C16.2495 18.4375 14.1107 19.0863 12.2915 20.3019C10.4723 21.5174 9.05438 23.2452 8.21709 25.2666C7.37979 27.288 7.16072 29.5123 7.58757 31.6582C8.01442 33.8041 9.06802 35.7753 10.6151 37.3224C12.1623 38.8695 14.1334 39.9231 16.2793 40.3499C18.4252 40.7768 20.6495 40.5577 22.6709 39.7204C24.6923 38.8831 26.4201 37.4652 27.6356 35.646C28.8512 33.8268 29.5 31.688 29.5 29.5C29.4967 26.5671 28.3301 23.7552 26.2562 21.6813C24.1823 19.6074 21.3705 18.4408 18.4375 18.4375ZM18.4375 38.7188C16.6142 38.7188 14.8319 38.1781 13.3158 37.1651C11.7998 36.1521 10.6182 34.7124 9.92049 33.0279C9.22275 31.3434 9.04018 29.4898 9.39589 27.7015C9.7516 25.9132 10.6296 24.2706 11.9189 22.9814C13.2081 21.6921 14.8508 20.8141 16.639 20.4584C18.4273 20.1027 20.2809 20.2852 21.9654 20.983C23.6499 21.6807 25.0896 22.8623 26.1026 24.3783C27.1156 25.8944 27.6563 27.6767 27.6563 29.5C27.6535 31.9441 26.6813 34.2873 24.9531 36.0156C23.2248 37.7438 20.8816 38.716 18.4375 38.7188Z" fill="#3CA200"/>
<path id="Vector_7" d="M23.3169 26.0825L17.4291 31.9703L14.3813 29.6844C14.1857 29.5377 13.9398 29.4747 13.6978 29.5093C13.4557 29.5438 13.2373 29.6731 13.0906 29.8687C12.9439 30.0643 12.8809 30.3102 12.9155 30.5522C12.9501 30.7943 13.0794 31.0127 13.275 31.1594L16.9625 33.925C17.14 34.0581 17.3596 34.1228 17.581 34.1071C17.8023 34.0913 18.0106 33.9963 18.1675 33.8394L24.6206 27.3862C24.7935 27.2134 24.8907 26.9789 24.8907 26.7344C24.8907 26.4899 24.7935 26.2554 24.6206 26.0825C24.4477 25.9096 24.2133 25.8125 23.9688 25.8125C23.7243 25.8125 23.4898 25.9096 23.3169 26.0825Z" fill="#3CA200"/>
</g>
</g>
</svg>
