<svg width="60" height="60" viewBox="0 0 60 60" fill="none" xmlns="http://www.w3.org/2000/svg">
<g id="Frame" clip-path="url(#clip0_11387_5736)">
<g id="Group">
<path id="Vector" d="M40.3125 0C36.4187 0 32.6123 1.15465 29.3747 3.31794C26.1371 5.48123 23.6137 8.556 22.1236 12.1534C20.6335 15.7508 20.2437 19.7093 21.0033 23.5283C21.7629 27.3473 23.638 30.8553 26.3913 33.6087C29.1447 36.362 32.6527 38.2371 36.4717 38.9967C40.2907 39.7564 44.2492 39.3665 47.8466 37.8764C51.444 36.3863 54.5188 33.8629 56.6821 30.6253C58.8454 27.3877 60 23.5813 60 19.6875C59.9941 14.4679 57.9179 9.46374 54.2271 5.77291C50.5363 2.08208 45.5321 0.00595508 40.3125 0ZM56.0156 20.7422H58.0913C57.8568 24.8017 56.2351 28.6574 53.4975 31.6641L52.0795 30.2456C51.9925 30.1586 51.8892 30.0895 51.7754 30.0423C51.6617 29.9952 51.5398 29.9709 51.4167 29.9709C51.2935 29.9709 51.1716 29.9951 51.0579 30.0422C50.9441 30.0893 50.8407 30.1583 50.7537 30.2454C50.6666 30.3324 50.5975 30.4358 50.5504 30.5495C50.5033 30.6632 50.479 30.7852 50.479 30.9083C50.4789 31.0314 50.5032 31.1533 50.5503 31.2671C50.5974 31.3808 50.6664 31.4842 50.7534 31.5712L52.1634 32.9812C49.1453 35.6811 45.2942 37.2669 41.25 37.4752V35.5078C41.25 35.2592 41.1512 35.0207 40.9754 34.8449C40.7996 34.6691 40.5611 34.5703 40.3125 34.5703C40.0639 34.5703 39.8254 34.6691 39.6496 34.8449C39.4738 35.0207 39.375 35.2592 39.375 35.5078V37.4752C35.3309 37.2669 31.4797 35.6811 28.4616 32.9812L29.8716 31.5712C30.0423 31.3944 30.1368 31.1576 30.1347 30.9118C30.1326 30.666 30.034 30.4309 29.8602 30.257C29.6863 30.0832 29.4512 29.9846 29.2054 29.9825C28.9596 29.9804 28.7228 30.0749 28.5459 30.2456L27.1275 31.6641C24.3899 28.6574 22.7682 24.8017 22.5338 20.7422H24.6094C24.858 20.7422 25.0965 20.6434 25.2723 20.4676C25.4481 20.2918 25.5469 20.0533 25.5469 19.8047C25.5469 19.556 25.4481 19.3176 25.2723 19.1418C25.0965 18.966 24.858 18.8672 24.6094 18.8672H22.5206C22.7035 14.7817 24.2926 10.8849 27.0188 7.83656L28.5459 9.36375C28.7228 9.53452 28.9596 9.62902 29.2054 9.62688C29.4512 9.62475 29.6863 9.52615 29.8602 9.35233C30.034 9.17851 30.1326 8.94337 30.1347 8.69756C30.1368 8.45175 30.0423 8.21494 29.8716 8.03813L28.3359 6.5025C31.372 3.73672 35.2735 2.10985 39.375 1.89937V4.10156C39.375 4.3502 39.4738 4.58866 39.6496 4.76447C39.8254 4.94029 40.0639 5.03906 40.3125 5.03906C40.5611 5.03906 40.7996 4.94029 40.9754 4.76447C41.1512 4.58866 41.25 4.3502 41.25 4.10156V1.89984C45.3515 2.11023 49.253 3.73692 52.2891 6.5025L50.7534 8.03813C50.5777 8.21398 50.4789 8.45246 50.479 8.7011C50.479 8.94975 50.5778 9.1882 50.7537 9.36398C50.9295 9.53977 51.168 9.6385 51.4167 9.63846C51.6653 9.63842 51.9037 9.5396 52.0795 9.36375L53.6067 7.83656C56.3327 10.885 57.9216 14.7818 58.1044 18.8672H56.0156C55.767 18.8672 55.5285 18.966 55.3527 19.1418C55.1769 19.3176 55.0781 19.556 55.0781 19.8047C55.0781 20.0533 55.1769 20.2918 55.3527 20.4676C55.5285 20.6434 55.767 20.7422 56.0156 20.7422Z" fill="#3CA200"/>
<path id="Vector_2" d="M49.2188 18.6914H43.9069C43.7504 18.1971 43.4787 17.7471 43.1142 17.3784C42.7497 17.0097 42.3029 16.7328 41.8105 16.5706C41.3181 16.4084 40.7942 16.3655 40.2819 16.4454C39.7696 16.5253 39.2837 16.7257 38.8641 17.0302L33.7392 11.9053C33.5634 11.7295 33.3249 11.6307 33.0762 11.6307C32.8275 11.6307 32.589 11.7295 32.4131 11.9053C32.2373 12.0812 32.1385 12.3197 32.1385 12.5684C32.1385 12.817 32.2373 13.0556 32.4131 13.2314L37.7142 18.532C37.5573 18.9465 37.4861 19.3885 37.5048 19.8312C37.5236 20.274 37.6319 20.7084 37.8233 21.1081C38.0146 21.5078 38.2851 21.8646 38.6182 22.1568C38.9514 22.4491 39.3404 22.6707 39.7616 22.8084C40.1828 22.9461 40.6276 22.9969 41.0691 22.9578C41.5105 22.9187 41.9394 22.7905 42.3299 22.5809C42.7204 22.3713 43.0644 22.0848 43.341 21.7385C43.6176 21.3923 43.8211 20.9935 43.9392 20.5664H49.2188C49.4674 20.5664 49.7058 20.4676 49.8817 20.2918C50.0575 20.116 50.1562 19.8775 50.1562 19.6289C50.1562 19.3803 50.0575 19.1418 49.8817 18.966C49.7058 18.7902 49.4674 18.6914 49.2188 18.6914ZM40.7812 21.0937C40.5031 21.0937 40.2312 21.0113 40 20.8568C39.7687 20.7022 39.5885 20.4826 39.482 20.2256C39.3756 19.9687 39.3478 19.6859 39.402 19.4132C39.4563 19.1404 39.5902 18.8898 39.7869 18.6931C39.9835 18.4965 40.2341 18.3625 40.5069 18.3083C40.7797 18.254 41.0624 18.2819 41.3194 18.3883C41.5764 18.4947 41.796 18.675 41.9505 18.9062C42.105 19.1375 42.1875 19.4094 42.1875 19.6875C42.1875 20.0605 42.0393 20.4181 41.7756 20.6819C41.5119 20.9456 41.1542 21.0937 40.7812 21.0937ZM25.4077 47.9156C25.0434 47.5266 24.5817 47.242 24.0704 47.0915C23.5592 46.941 23.0169 46.93 22.5 47.0597L20.7141 47.4206C20.4642 47.4705 20.2272 47.5709 20.0174 47.7154C19.8076 47.86 19.6295 48.0458 19.4939 48.2616C19.3603 48.475 19.2728 48.7141 19.2371 48.9634C19.2015 49.2127 19.2183 49.4667 19.2867 49.7091L21.8109 58.6528C21.9246 59.0432 22.1625 59.3858 22.4883 59.6289C22.8142 59.872 23.2105 60.0023 23.617 60C23.7449 59.9999 23.8724 59.987 23.9977 59.9616L25.8352 59.5898C25.882 59.5805 25.9281 59.5694 25.9734 59.5566C26.7209 59.3504 27.356 58.856 27.7391 58.1818C28.1222 57.5076 28.2218 56.7089 28.0163 55.9612L27.9141 55.5994L34.3983 53.7009C34.6707 53.6214 34.9216 53.4813 35.1323 53.2912L40.0931 48.8109L45.4688 50.7052L48.0155 55.4381C47.9427 55.6196 47.889 55.8081 47.8552 56.0006C47.7886 56.374 47.7994 56.757 47.8868 57.126C47.9742 57.4951 48.1364 57.8422 48.3633 58.1461L49.1442 59.2252C49.4347 59.6203 49.8667 59.8878 50.3499 59.9718C50.8331 60.0559 51.33 59.9499 51.7369 59.6761L59.1886 54.6511C59.3921 54.5147 59.5662 54.339 59.7006 54.1343C59.8351 53.9296 59.9271 53.7 59.9714 53.4591C60.0147 53.2191 60.009 52.9728 59.9546 52.7351C59.9002 52.4973 59.7983 52.2731 59.655 52.0758L58.8642 50.9831C58.4037 50.3657 57.7234 49.949 56.9641 49.8195C56.2049 49.6899 55.4248 49.8573 54.7856 50.287L54.4683 50.5008L51.787 45.4219C51.6565 45.1751 51.4717 44.9612 51.2466 44.7961L47.8125 42.2737V40.3125C47.2003 40.5356 46.5753 40.7309 45.9375 40.8984V43.192L50.1211 46.2656L53.7792 53.1947L55.8483 51.7997C56.0296 51.6777 56.2433 51.6127 56.4619 51.6131C56.6309 51.612 56.7978 51.6504 56.9492 51.7255C57.1006 51.8006 57.2323 51.9101 57.3337 52.0453L58.125 53.1375L50.6733 58.1625L49.8825 57.0698C49.8021 56.9611 49.7448 56.8371 49.7141 56.7054C49.6834 56.5736 49.68 56.437 49.704 56.304C49.7281 56.1709 49.7791 56.0441 49.854 55.9315C49.9289 55.8189 50.026 55.7228 50.1394 55.6491L50.2191 55.5951L46.7878 49.2178L39.6581 46.7053L33.8616 51.9403L25.6172 54.3544L26.2087 56.4502C26.2475 56.5876 26.2588 56.7313 26.2419 56.8731C26.2251 57.0149 26.1805 57.152 26.1106 57.2765C26.0407 57.401 25.9469 57.5105 25.8347 57.5988C25.7224 57.687 25.5939 57.7523 25.4564 57.7908L23.6184 58.1625L21.0938 49.2192L22.9312 48.847C23.0688 48.8082 23.2127 48.7968 23.3546 48.8135C23.4966 48.8302 23.6338 48.8747 23.7586 48.9445C23.8833 49.0143 23.9931 49.1079 24.0817 49.2201C24.1702 49.3323 24.2358 49.4609 24.2747 49.5984L24.4261 50.1342L31.8539 47.8917L35.1562 43.192L34.8169 40.935C34.1409 40.76 33.4784 40.5547 32.8294 40.3191L33.1941 42.7453L30.6792 46.3242L25.4077 47.9156ZM9.375 18.2812C9.375 18.5299 9.47377 18.7683 9.64959 18.9442C9.8254 19.12 10.0639 19.2187 10.3125 19.2187H18.7617C18.7758 18.5869 18.8128 17.9611 18.8798 17.3437H10.3125C10.0639 17.3437 9.8254 17.4425 9.64959 17.6183C9.47377 17.7942 9.375 18.0326 9.375 18.2812ZM4.6875 26.7187C4.43886 26.7187 4.2004 26.8175 4.02459 26.9933C3.84877 27.1692 3.75 27.4076 3.75 27.6562C3.75 27.9049 3.84877 28.1433 4.02459 28.3192C4.2004 28.495 4.43886 28.5937 4.6875 28.5937H20.6831C20.405 27.9831 20.155 27.3581 19.9331 26.7187H4.6875ZM7.5 9.84375H21.1378C21.4691 9.20089 21.8325 8.5751 22.2267 7.96875H7.5C7.25136 7.96875 7.0129 8.06752 6.83709 8.24334C6.66127 8.41915 6.5625 8.65761 6.5625 8.90625C6.5625 9.15489 6.66127 9.39335 6.83709 9.56916C7.0129 9.74498 7.25136 9.84375 7.5 9.84375ZM0.9375 23.9062H19.1672C19.0444 23.2903 18.9486 22.6653 18.8798 22.0312H0.9375C0.68886 22.0312 0.450403 22.13 0.274587 22.3058C0.0987721 22.4817 0 22.7201 0 22.9687C0 23.2174 0.0987721 23.4558 0.274587 23.6317C0.450403 23.8075 0.68886 23.9062 0.9375 23.9062ZM2.8125 14.5312H19.3781C19.5347 13.8944 19.7198 13.2694 19.9336 12.6562H2.8125C2.56386 12.6562 2.3254 12.755 2.14959 12.9308C1.97377 13.1067 1.875 13.3451 1.875 13.5937C1.875 13.8424 1.97377 14.0808 2.14959 14.2567C2.3254 14.4325 2.56386 14.5312 2.8125 14.5312Z" fill="#3CA200"/>
</g>
</g>
<defs>
<clipPath id="clip0_11387_5736">
<rect width="60" height="60" fill="white"/>
</clipPath>
</defs>
</svg>
