<svg width="60" height="56" viewBox="0 0 60 56" fill="none" xmlns="http://www.w3.org/2000/svg">
<g id="Icon">
<path id="Vector" d="M33.2019 43.8402C34.9838 42.7607 36.178 40.7975 36.178 38.559C36.178 35.1607 33.4264 32.3962 30.0441 32.3962C26.6619 32.3962 23.9103 35.1609 23.9103 38.559C23.9103 40.7976 25.1047 42.7607 26.8865 43.8402C21.8653 45.2331 18.167 49.8629 18.167 55.3447C18.167 55.5185 18.2357 55.6852 18.358 55.8081C18.4803 55.931 18.6462 56 18.8191 56H41.2694C41.4424 56 41.6083 55.931 41.7306 55.8081C41.8529 55.6852 41.9216 55.5185 41.9216 55.3447C41.9216 49.8629 38.2233 45.2331 33.2019 43.8402ZM25.2147 38.559C25.2147 35.8835 27.3813 33.7067 30.0442 33.7067C32.7072 33.7067 34.8738 35.8835 34.8738 38.559C34.8738 41.2345 32.7073 43.4113 30.0442 43.4113C27.3811 43.4113 25.2147 41.2345 25.2147 38.559ZM19.4913 54.6895C19.829 49.1357 24.4332 44.7218 30.0443 44.7218C35.6555 44.7218 40.2597 49.1357 40.5974 54.6895H19.4913ZM29.3922 29.4054V23.0792L27.9407 24.5375C27.8804 24.5996 27.8085 24.6491 27.729 24.6831C27.6496 24.717 27.5642 24.7348 27.4779 24.7353C27.3915 24.7359 27.306 24.7192 27.2261 24.6863C27.1462 24.6534 27.0736 24.6048 27.0126 24.5435C26.9515 24.4821 26.9032 24.4092 26.8704 24.329C26.8376 24.2487 26.821 24.1627 26.8215 24.076C26.8221 23.9893 26.8398 23.9035 26.8736 23.8237C26.9073 23.7438 26.9566 23.6715 27.0184 23.611L29.5829 21.0344C29.6434 20.9733 29.7153 20.9249 29.7945 20.8918C29.8738 20.8588 29.9587 20.8419 30.0445 20.842C30.1302 20.842 30.2153 20.8589 30.2944 20.892C30.3736 20.925 30.4455 20.9734 30.506 21.0344L33.0704 23.611C33.131 23.6718 33.179 23.744 33.2118 23.8235C33.2446 23.903 33.2614 23.9882 33.2614 24.0742C33.2614 24.1603 33.2446 24.2455 33.2118 24.325C33.179 24.4044 33.131 24.4767 33.0704 24.5375C33.0099 24.5984 32.938 24.6467 32.8589 24.6796C32.7798 24.7126 32.6949 24.7295 32.6093 24.7295C32.5236 24.7295 32.4388 24.7126 32.3597 24.6796C32.2806 24.6467 32.2087 24.5984 32.1481 24.5375L30.6967 23.0792V29.4054C30.6967 29.5792 30.6279 29.7459 30.5056 29.8688C30.3833 29.9916 30.2174 30.0607 30.0444 30.0607C29.8714 30.0607 29.7055 29.9916 29.5832 29.8688C29.4609 29.7459 29.3922 29.5792 29.3922 29.4054ZM46.5759 30.626C46.587 30.7104 46.5815 30.7962 46.5599 30.8785L46.5592 30.8815L45.6205 34.4014C45.5983 34.4846 45.5601 34.5625 45.508 34.6308C45.4559 34.6991 45.3908 34.7564 45.3167 34.7994C45.2425 34.8424 45.1606 34.8703 45.0756 34.8815C44.9907 34.8927 44.9044 34.887 44.8217 34.8647C44.6546 34.8197 44.5122 34.7099 44.4257 34.5594C44.3392 34.409 44.3157 34.2301 44.3605 34.0623L44.8917 32.0702L39.4388 35.2333C39.3646 35.2764 39.2828 35.3044 39.1978 35.3157C39.1129 35.327 39.0266 35.3213 38.9438 35.299C38.8611 35.2768 38.7835 35.2383 38.7156 35.1859C38.6477 35.1335 38.5907 35.0681 38.5479 34.9935C38.4614 34.843 38.438 34.6642 38.4828 34.4963C38.5275 34.3284 38.6368 34.1853 38.7866 34.0984L44.2397 30.9353L42.2568 30.4014C42.173 30.3801 42.0943 30.3423 42.0252 30.2901C41.9561 30.238 41.898 30.1726 41.8542 30.0977C41.8105 30.0228 41.782 29.9399 41.7704 29.8539C41.7589 29.7678 41.7644 29.6803 41.7868 29.5964C41.8092 29.5126 41.8479 29.434 41.9008 29.3653C41.9536 29.2966 42.0196 29.2392 42.0947 29.1963C42.1699 29.1534 42.2528 29.126 42.3386 29.1156C42.4244 29.1052 42.5114 29.112 42.5945 29.1357L46.0964 30.0784L46.1131 30.0832C46.2718 30.1299 46.4071 30.2357 46.4909 30.379C46.4906 30.379 46.491 30.379 46.4909 30.379L46.4967 30.3892C46.5393 30.4644 46.5652 30.5449 46.5759 30.626ZM15.7282 34.0623C15.7504 34.1454 15.756 34.2321 15.7449 34.3174C15.7337 34.4027 15.7059 34.4849 15.663 34.5595C15.6202 34.634 15.5632 34.6993 15.4952 34.7517C15.4273 34.804 15.3497 34.8424 15.267 34.8647C15.1843 34.887 15.098 34.8927 15.0131 34.8815C14.9282 34.8702 14.8463 34.8423 14.7721 34.7993C14.6979 34.7563 14.6329 34.699 14.5808 34.6307C14.5286 34.5625 14.4904 34.4845 14.4682 34.4014L13.5296 30.8819C13.5291 30.88 13.5286 30.8782 13.528 30.8763C13.4855 30.712 13.5083 30.5372 13.5916 30.3894L13.5978 30.3787C13.6392 30.3078 13.6936 30.2455 13.7581 30.195C13.8271 30.141 13.9061 30.1015 13.9906 30.0788L17.4942 29.1357C17.5769 29.1134 17.6632 29.1076 17.7481 29.1189C17.833 29.1301 17.9149 29.158 17.9891 29.201C18.0633 29.244 18.1283 29.3013 18.1804 29.3696C18.2326 29.4379 18.2708 29.5158 18.293 29.5989C18.3151 29.6821 18.3208 29.7687 18.3096 29.854C18.2984 29.9394 18.2706 30.0216 18.2278 30.0961C18.185 30.1707 18.1279 30.236 18.06 30.2883C17.992 30.3407 17.9145 30.3791 17.8317 30.4014L15.849 30.9351L21.3021 34.0983C21.4507 34.1858 21.5587 34.3288 21.6028 34.4961C21.6468 34.6634 21.6232 34.8414 21.537 34.9912C21.4509 35.1411 21.3093 35.2506 21.1431 35.2959C20.9769 35.3413 20.7996 35.3187 20.6499 35.2332L15.1968 32.07L15.7282 34.0623ZM21.8052 12.9525C22.1114 12.946 22.4139 13.0208 22.6821 13.1693C22.9504 13.3178 23.1749 13.5348 23.3331 13.7983C23.4906 14.0621 23.5763 14.3629 23.5815 14.6705C23.5868 14.9781 23.5115 15.2817 23.3632 15.5508C22.9141 16.3639 23.1235 17.3616 23.8608 17.9232C24.6463 18.5215 25.514 19.0022 26.4367 19.3505C26.6533 19.4324 26.8753 19.4716 27.0935 19.4716C27.7458 19.4716 28.3637 19.121 28.6977 18.5122C28.8458 18.2431 29.0616 18.0179 29.3235 17.859C29.5855 17.7001 29.8844 17.6131 30.1903 17.6068C30.2011 17.6065 30.2118 17.6065 30.2225 17.6065C30.8313 17.6065 31.4011 17.9299 31.7157 18.4562C32.1923 19.2538 33.1576 19.5696 34.0102 19.2085C34.9166 18.824 35.7637 18.3112 36.5257 17.6858C37.2423 17.0971 37.4148 16.0921 36.936 15.2961C36.778 15.0327 36.6916 14.7323 36.6855 14.4248C36.6794 14.1174 36.7539 13.8137 36.9014 13.5443C37.05 13.2755 37.2662 13.0506 37.5285 12.8922C37.7908 12.7338 38.0899 12.6474 38.3958 12.6416C39.3192 12.6254 40.0739 11.9455 40.1903 11.0251C40.3151 10.0427 40.2976 9.04731 40.1383 8.06994C39.9887 7.15258 39.2032 6.50165 38.2834 6.51935C37.6594 6.53153 37.076 6.2081 36.7555 5.67355C36.435 5.13899 36.4234 4.46749 36.7253 3.92101C37.1744 3.1081 36.9652 2.11041 36.2279 1.54846C35.4423 0.950316 34.5746 0.469573 33.6519 0.121192C32.7874 -0.20578 31.8367 0.14714 31.391 0.959654C31.2429 1.22871 31.0271 1.45396 30.7652 1.61286C30.5032 1.77177 30.2043 1.85874 29.8984 1.86508C29.2736 1.88081 28.693 1.55109 28.373 1.01561C27.8965 0.218169 26.9313 -0.0976624 26.0785 0.263382C25.6259 0.45551 25.1876 0.679736 24.7667 0.934361C24.3458 1.18922 23.9436 1.47384 23.5629 1.78606C22.8463 2.37474 22.6739 3.37977 23.1526 4.17577C23.3106 4.4391 23.397 4.73955 23.4031 5.047C23.4091 5.35445 23.3347 5.6581 23.1871 5.92752C23.0386 6.19633 22.8223 6.42121 22.5601 6.57964C22.2978 6.73806 21.9987 6.82446 21.6927 6.8302C20.7694 6.84645 20.0147 7.52634 19.8982 8.44671C19.7735 9.42913 19.7911 10.4245 19.9503 11.4019C20.0999 12.3193 20.8812 12.9704 21.8052 12.9525ZM21.192 8.61209C21.2075 8.48307 21.2692 8.36412 21.3655 8.27736C21.4618 8.1906 21.5862 8.14195 21.7156 8.14044C22.802 8.12131 23.8032 7.51625 24.3286 6.56154C24.854 5.60645 24.8311 4.4325 24.2688 3.49784C24.2011 3.38687 24.1758 3.2549 24.1978 3.1266C24.2199 2.99829 24.2876 2.88243 24.3884 2.80065C25.0539 2.25445 25.7936 1.80662 26.5852 1.47075C26.7043 1.41936 26.8379 1.4133 26.9611 1.4537C27.0843 1.4941 27.1886 1.57819 27.2546 1.69026C27.8143 2.62662 28.8383 3.19931 29.9225 3.17533C31.008 3.15501 32.0083 2.54838 32.5329 1.59237C32.5947 1.47824 32.6956 1.39052 32.817 1.34552C32.9383 1.30052 33.0717 1.30129 33.1925 1.34769C33.9974 1.65155 34.7543 2.07089 35.4397 2.59268C35.5434 2.67063 35.6153 2.78386 35.6421 2.91122C35.6688 3.03859 35.6484 3.17136 35.5848 3.28475C35.0571 4.24011 35.0774 5.41446 35.6382 6.34964C36.1989 7.28468 37.2235 7.8499 38.3099 7.82946C38.5827 7.81976 38.8073 8.01424 38.851 8.28172C38.9899 9.13432 39.0051 10.0026 38.8963 10.8596C38.8808 10.9886 38.8191 11.1076 38.7228 11.1944C38.6265 11.2811 38.5021 11.3298 38.3727 11.3313C37.2862 11.3504 36.285 11.9555 35.7597 12.9102C35.2343 13.8653 35.2572 15.0392 35.8195 15.9739C35.8872 16.0848 35.9124 16.2168 35.8904 16.3451C35.8684 16.4734 35.8007 16.5893 35.6999 16.6711C35.0344 17.2172 34.2946 17.6651 33.503 18.001C33.3839 18.0524 33.2503 18.0584 33.1271 18.018C33.0039 17.9776 32.8995 17.8935 32.8336 17.7814C32.2739 16.845 31.2484 16.2715 30.1656 16.2964C29.0802 16.3167 28.0799 16.9233 27.5553 17.8793C27.4935 17.9935 27.3925 18.0813 27.2712 18.1263C27.1498 18.1713 27.0163 18.1704 26.8955 18.1239C26.0906 17.82 25.3338 17.4007 24.6485 16.8789C24.5448 16.8009 24.4729 16.6877 24.4462 16.5603C24.4195 16.433 24.4398 16.3002 24.5033 16.1868C25.0311 15.2316 25.0106 14.0572 24.45 13.1221C23.8998 12.2047 22.9042 11.6416 21.8403 11.6416C21.8197 11.6416 21.7989 11.6419 21.7783 11.6422L21.767 11.6424C21.6394 11.6431 21.5158 11.5979 21.4186 11.5149C21.3213 11.4319 21.257 11.3166 21.2371 11.19C21.0984 10.3374 21.0832 9.46908 21.192 8.61209ZM30.0507 13.6646C30.7599 13.6649 31.4557 13.4703 32.0627 13.1018C32.9576 12.5601 33.5889 11.7008 33.8404 10.682C34.0919 9.66325 33.9335 8.60698 33.3944 7.70797C32.2814 5.8519 29.8731 5.25196 28.026 6.36995C27.1311 6.91171 26.4998 7.77101 26.2482 8.7898C25.9967 9.80859 26.155 10.8649 26.6941 11.7639C27.4276 12.987 28.7234 13.6646 30.0507 13.6646ZM27.514 9.10537C27.5956 8.77115 27.7423 8.45651 27.9457 8.17964C28.1491 7.90277 28.4051 7.66918 28.6989 7.4924C29.1035 7.24685 29.5672 7.11715 30.0399 7.11733C30.9244 7.11733 31.7883 7.56906 32.277 8.3842C32.4545 8.67845 32.5722 9.00516 32.6232 9.34542C32.6743 9.68567 32.6576 10.0327 32.5743 10.3665C32.4927 10.7007 32.346 11.0153 32.1426 11.2922C31.9392 11.5691 31.6832 11.8027 31.3894 11.9794C30.1582 12.7247 28.553 12.3248 27.8112 11.0876C27.6337 10.7934 27.5161 10.4666 27.4651 10.1264C27.4141 9.78615 27.4307 9.43911 27.514 9.10537ZM16.7255 24.8262V14.8441L16.9447 14.6239C17.4391 14.1272 17.7115 13.4646 17.7115 12.7584C17.7115 12.0522 17.4391 11.3897 16.9448 10.893C16.4503 10.3962 15.791 10.1226 15.088 10.1226C14.3851 10.1226 13.7257 10.3962 13.2312 10.893L13.0722 11.0528H3.0167C1.35326 11.0525 0 12.4122 0 14.0835V24.8262C0 26.4975 1.35326 27.8571 3.0167 27.8571H13.7088C15.3723 27.8571 16.7255 26.4975 16.7255 24.8262ZM15.0879 11.433C15.4424 11.433 15.7743 11.5702 16.0225 11.8194C16.2706 12.0687 16.4071 12.4021 16.4071 12.7583C16.4071 13.1146 16.2706 13.448 16.0225 13.6973L14.954 14.7708L13.085 12.893L14.1535 11.8194C14.4016 11.57 14.7334 11.433 15.0879 11.433ZM12.1627 13.8197L14.0317 15.6975L9.0733 20.6794L6.67983 21.2063L7.2043 18.8014L12.1627 13.8197ZM1.30435 24.8262V14.0835C1.30435 13.1348 2.07248 12.363 3.0167 12.363H11.7677L6.14687 18.0104C6.05869 18.0989 5.99766 18.2111 5.97104 18.3334L5.18778 21.9249C5.16431 22.0322 5.1681 22.1438 5.19882 22.2493C5.22953 22.3548 5.28618 22.4508 5.36354 22.5286C5.4409 22.6063 5.53648 22.6632 5.64149 22.6941C5.74649 22.7249 5.85754 22.7287 5.96439 22.7051L9.53896 21.9182C9.66076 21.8914 9.77235 21.83 9.86048 21.7414L15.421 16.1544V24.8261C15.421 25.7747 14.6529 26.5465 13.7087 26.5465H3.0167C2.07248 26.5466 1.30435 25.7749 1.30435 24.8262ZM51.0064 10.5587C46.0474 10.5587 42.0129 14.6122 42.0129 19.5947C42.0129 24.5771 46.0474 28.6306 51.0064 28.6306C55.9655 28.6306 60 24.5771 60 19.5947C60 14.6122 55.9655 10.5587 51.0064 10.5587ZM51.0064 27.3201C46.7666 27.3201 43.3173 23.8545 43.3173 19.5947C43.3173 15.3349 46.7666 11.8692 51.0064 11.8692C55.2462 11.8692 58.6956 15.3349 58.6956 19.5947C58.6956 23.8545 55.2463 27.3201 51.0064 27.3201ZM53.5998 17.8619H52.5308V14.2593C52.5308 13.8515 52.2301 13.5005 51.8157 13.4248C51.4256 13.354 51.0446 13.5353 50.8668 13.8765L47.6279 20.0955C47.5545 20.2349 47.5227 20.3925 47.5362 20.5495C47.5497 20.7065 47.608 20.8563 47.704 20.9809C47.871 21.2011 48.1294 21.3274 48.4131 21.3274H49.4821V24.9301C49.4821 25.3385 49.7833 25.6894 50.1972 25.7644C50.2527 25.7746 50.309 25.7797 50.3654 25.7797C50.6933 25.7797 50.9943 25.6046 51.1461 25.3128L54.3852 19.0937C54.5348 18.8061 54.5053 18.4666 54.3087 18.2079C54.1415 17.9881 53.8833 17.8619 53.5998 17.8619ZM50.7865 23.1768V20.8661C50.7865 20.3979 50.3922 20.0169 49.9075 20.0169H49.141L51.2264 16.0127V18.3232C51.2264 18.7915 51.6207 19.1724 52.1054 19.1724H52.872L50.7865 23.1768Z" fill="#3CA200"/>
</g>
</svg>
