<svg width="60" height="42" viewBox="0 0 60 42" fill="none" xmlns="http://www.w3.org/2000/svg">
<g id="Icon">
<path id="Vector" d="M19.1816 34.4103C17.265 34.4423 17.265 37.2782 19.1816 37.3102C21.0993 37.2782 21.0983 34.4433 19.1816 34.4103ZM48.666 34.4103C46.7483 34.4423 46.7493 37.2782 48.666 37.3102C50.5827 37.2782 50.5827 34.4433 48.666 34.4103Z" fill="#3CA200"/>
<path id="Vector_2" d="M59.0515 25.8809C59.0413 25.6772 58.9813 25.479 58.8765 25.3034L51.9015 14.4752C51.5566 13.9425 51.0816 13.5044 50.5206 13.2012C49.9595 12.8981 49.3303 12.7397 48.6911 12.7407H41.3786V9.02406C41.3775 8.33462 41.1004 7.67372 40.6079 7.18621C40.1155 6.6987 39.4479 6.42434 38.7515 6.42325H18.5109C17.2776 2.85203 13.8734 0.274933 9.86612 0.274933C-0.152634 0.43787 -2.74222 13.8472 6.34528 17.7422L6.34424 35.8572C6.34424 36.1307 6.45399 36.393 6.64934 36.5864C6.84469 36.7798 7.10964 36.8884 7.38591 36.8884H13.1724C13.6661 39.7429 16.1692 41.923 19.1828 41.923C22.1963 41.923 24.6984 39.7429 25.1922 36.8884H42.6557C43.889 43.541 53.438 43.5524 54.6765 36.8884H58.0099C58.2861 36.8884 58.5511 36.7798 58.7464 36.5864C58.9418 36.393 59.0515 36.1307 59.0515 35.8572C59.0557 35.8345 59.0442 25.8994 59.0515 25.8798V25.8809ZM56.1015 24.8269H45.6005C45.5255 24.8261 45.4539 24.7959 45.4014 24.743C45.3489 24.69 45.3197 24.6186 45.3203 24.5444V18.5796C45.3203 18.4229 45.4453 18.296 45.6005 18.296H51.8922L56.1015 24.8269ZM24.3099 32.5819H39.2953V34.827H25.1911C25.0528 34.0276 24.7531 33.264 24.3099 32.5819ZM38.7515 8.48678C39.0515 8.48678 39.2963 8.72809 39.2963 9.02509V10.7318H18.8953C19.013 10.0037 19.0453 9.22618 18.9661 8.48678H38.7515ZM2.8057 9.36025C2.8057 5.4879 5.97237 2.33743 9.86612 2.33743C19.2203 2.69012 19.2172 16.0324 9.86612 16.3831C5.97341 16.3831 2.8057 13.2326 2.8057 9.36025ZM9.86612 18.4456C13.6859 18.4456 16.9609 16.1057 18.3276 12.7943H39.2963V30.5194H22.0692C21.2088 30.0585 20.2255 29.7965 19.1817 29.7965C18.138 29.7965 17.1557 30.0585 16.2953 30.5184H8.42757V18.3239C8.89737 18.3981 9.37549 18.4476 9.86612 18.4476V18.4456ZM8.42757 32.5819H14.0547C13.6115 33.264 13.3117 34.0276 13.1734 34.827H8.42757V32.5819ZM19.1817 39.8626C13.8682 39.6945 13.8713 32.0251 19.1817 31.859C24.4942 32.0261 24.4963 39.6955 19.1817 39.8626ZM48.6661 39.8626C43.3515 39.6945 43.3557 32.0251 48.6661 31.859C53.9786 32.0261 53.9797 39.6955 48.6661 39.8626ZM54.6755 34.827C53.4297 28.1692 43.8984 28.1775 42.6567 34.827H41.3797V14.8032H48.6911C49.5974 14.7588 50.1713 15.5312 50.564 16.2335H45.6005C44.9731 16.2352 44.3719 16.4831 43.9288 16.9229C43.4858 17.3627 43.2369 17.9585 43.2369 18.5796V24.5444C43.2372 25.1653 43.4862 25.7609 43.9292 26.2005C44.3722 26.64 44.9732 26.8878 45.6005 26.8894H56.9682V29.7965H55.439C54.0682 29.8172 54.0724 31.8384 55.439 31.859H56.9682V34.827H54.6755Z" fill="#3CA200"/>
<path id="Vector_3" d="M11.4955 11.727C12.4736 11.7631 12.932 10.3874 12.0924 9.85008L10.6038 8.82296V4.59689C10.583 3.24389 8.54342 3.23977 8.52051 4.59689V9.36127C8.52055 9.52735 8.56111 9.69095 8.63873 9.83818C8.71635 9.98541 8.82874 10.1119 8.96634 10.2069C9.41842 10.4544 11.0372 11.8218 11.4955 11.727Z" fill="#3CA200"/>
</g>
</svg>
