<svg width="116" height="100" viewBox="0 0 116 100" fill="none" xmlns="http://www.w3.org/2000/svg">
<path d="M77.4837 56.8281C77.3113 56.4862 68.9082 61.8106 57.957 68.9939L58.69 70.0452L59.7566 71.5801C70.2251 63.7008 77.7428 57.1062 77.4837 56.8281Z" fill="#6E6E6E"/>
<path d="M49.7433 74.3188L49.74 74.3087C49.651 74.3679 48.4498 75.16 46.9149 74.8092C45.8994 74.4852 44.677 74.6506 43.616 75.3522C42.7984 75.894 42.2045 76.6793 41.9453 77.563C41.7563 78.2098 41.7663 78.85 41.9565 79.4309C41.922 79.4611 41.8853 79.48 41.8542 79.5158C41.6061 79.8219 41.3192 80.0677 41.0244 80.2889C40.872 80.3984 40.7241 80.5067 40.5639 80.5983C40.4004 80.681 40.2225 80.7402 40.0011 80.7179C39.7653 80.6966 39.5307 80.8184 39.4217 81.043C39.276 81.3368 39.395 81.6898 39.6841 81.835C39.9767 81.9825 40.327 81.8607 40.4727 81.5703C40.5728 81.3703 40.7141 81.2507 40.872 81.1536C41.0311 81.0631 41.2046 80.9949 41.3759 80.9245C41.7207 80.7871 42.0755 80.6732 42.4681 80.6229C42.5293 80.6129 42.5893 80.5883 42.6505 80.5626C43.7439 81.6619 45.6236 81.7747 47.1607 80.7558C47.9815 80.2151 48.5744 79.4287 48.8324 78.545C48.9025 78.3059 48.9459 78.0635 48.9614 77.8255C49.3407 76.0403 50.4585 75.3376 50.4585 75.3376L50.4541 75.3354C52.6552 73.749 55.9853 71.4354 56.4647 71.6164C57.9595 72.1738 59.7569 71.5862 59.7569 71.5862L57.9573 69L49.7433 74.3188ZM46.6769 80.0196C45.3989 80.8676 43.7706 80.7112 43.0476 79.6744L43.0142 79.6264C42.6783 79.1147 42.5982 78.4713 42.7907 77.8133C42.9909 77.1307 43.4558 76.5207 44.1031 76.0917C45.3822 75.2438 47.0105 75.4013 47.7346 76.438L47.7669 76.4861C48.1005 76.9988 48.1817 77.6423 47.9893 78.2981C47.7913 78.9818 47.322 79.5929 46.6769 80.0196Z" fill="#6E6E6E"/>
<path d="M78.2289 78.5857C77.9709 78.6282 77.7963 78.8695 77.8352 79.1287C77.8474 79.1845 77.8196 79.2985 77.7963 79.3856C77.7651 79.4772 77.7284 79.5722 77.6806 79.6537C77.5849 79.8258 77.4526 79.9732 77.298 80.0917C77.1411 80.2034 76.9621 80.2894 76.7652 80.3285C76.6695 80.3497 76.565 80.362 76.4727 80.3676C76.4271 80.3698 76.3592 80.3687 76.3059 80.3687L76.1557 80.3542C75.7353 80.3162 75.3171 80.1777 74.9222 79.9934C74.5329 79.809 74.1381 79.5644 73.84 79.2828C73.8166 79.2594 73.781 79.2504 73.7544 79.2314C73.8845 78.7008 73.8711 78.1322 73.7032 77.5557C73.4474 76.6732 72.8512 75.8878 72.0337 75.3449C70.9737 74.6433 69.7503 74.4779 68.737 74.8019C67.201 75.1516 65.9975 74.3606 65.9074 74.3014L65.9041 74.3137L57.6901 68.9961C46.7412 61.8105 38.337 56.4872 38.1668 56.828C37.9043 57.1073 45.422 63.7007 55.8916 71.58C55.8916 71.58 57.6901 72.1677 59.1861 71.6102C59.6666 71.4292 62.9956 73.7429 65.1934 75.3292L65.1911 75.3315C65.1911 75.3315 66.309 76.0341 66.6871 77.8182C66.7038 78.0573 66.7438 78.2997 66.815 78.5388C67.0742 79.4236 67.6659 80.209 68.4867 80.7497C70.1039 81.821 72.0993 81.6423 73.1615 80.3799C73.1704 80.381 73.1749 80.3877 73.1804 80.3899L73.2005 80.3955C73.7121 80.5631 74.167 80.6916 74.6542 80.8011C75.1369 80.9061 75.624 80.9831 76.1301 80.9854C76.1968 80.9865 76.2458 80.982 76.327 80.9798C76.3882 80.9742 76.4382 80.972 76.5072 80.9642C76.6462 80.9496 76.7697 80.9318 76.9009 80.8982C77.1523 80.8301 77.4047 80.7351 77.6305 80.5854C77.8597 80.4424 78.0632 80.2603 78.2367 80.0537C78.3224 79.9487 78.4047 79.8414 78.4803 79.7263C78.5537 79.6046 78.6193 79.504 78.6905 79.3376L78.7339 79.2314C78.7661 79.1555 78.7817 79.065 78.7639 78.9756C78.7261 78.7209 78.4847 78.5444 78.2289 78.5857ZM68.9728 80.0123C68.3277 79.5867 67.8605 78.9756 67.6626 78.2908C67.469 77.635 67.5491 76.9915 67.885 76.4788L67.9162 76.4307C68.6391 75.3951 70.2697 75.2376 71.5465 76.0844C72.1939 76.5134 72.661 77.1234 72.859 77.806C73.0525 78.464 72.9735 79.1074 72.6354 79.6202L72.6054 79.6671C71.8802 80.7039 70.2519 80.8603 68.9728 80.0123Z" fill="#6E6E6E"/>
<path d="M56.435 68.9267L54.3651 67.6319L52.3074 66.317L48.2132 63.656L44.1457 60.9536L42.1203 59.5895L40.1094 58.2031L42.1815 59.4979L44.2369 60.8128L48.3322 63.4705L52.3986 66.1752L54.424 67.5426L56.435 68.9267Z" fill="white"/>
<path d="M58.6777 70.3334C58.6777 70.806 58.2951 71.1881 57.8246 71.1881C57.353 71.1881 56.9727 70.806 56.9727 70.3334C56.9727 69.8586 57.353 69.4766 57.8246 69.4766C58.2951 69.4766 58.6777 69.8586 58.6777 70.3334Z" fill="#6E6E6E"/>
<path d="M58.3896 70.3309C58.3896 70.6392 58.1382 70.894 57.8301 70.894C57.5198 70.894 57.2695 70.6392 57.2695 70.3309C57.2695 70.0181 57.5198 69.7656 57.8301 69.7656C58.1393 69.7656 58.3896 70.0181 58.3896 70.3309Z" fill="white"/>
<path d="M59.207 68.9278L61.2191 67.5426L63.2412 66.1752L67.3109 63.4716L71.4062 60.8128L73.4616 59.499L75.5337 58.2031L73.5217 59.5906L71.4974 60.9547L67.4288 63.6571L63.3346 66.317L61.2769 67.6331L59.207 68.9278Z" fill="white"/>
<path d="M47.773 28.2818C47.773 28.2818 41.4777 24.8231 45.1003 18.7838C45.1003 18.7838 46.0501 21.6794 49.9274 19.8909C54.4343 17.8129 62.9541 15.9797 68.9513 20.2807L58.6986 25.8531L47.773 28.2818Z" fill="#6E6E6E"/>
<path d="M58.7867 63.7192C58.6321 63.7192 58.5019 63.5985 58.493 63.4387C58.493 63.4387 58.3674 62.402 56.1673 60.2414C54.5301 58.6327 54.2331 57.1715 54.0351 56.2051C53.9528 55.7963 53.8861 55.4712 53.7515 55.3371C53.5647 55.174 52.369 55.3137 51.4936 55.4176C50.0199 55.5929 48.1825 55.813 46.9512 55.4108C46.2127 55.1673 45.7044 54.7227 45.4375 54.0803C44.9814 52.9911 45.3774 51.6661 45.6499 51.1176C45.9135 50.5892 45.7956 50.4674 45.0415 49.8184C44.4008 49.2654 44.5376 48.5504 44.7723 48.0957C44.0293 47.4422 44.2941 46.7719 44.4565 46.3574C44.5009 46.2457 44.5421 46.1407 44.5499 46.0737C44.5577 46.0133 44.5677 45.9608 44.5766 45.915C44.4209 45.8524 44.0649 45.7541 43.6045 45.6257L43.3676 45.5598C42.7024 45.3732 42.3054 45.0704 42.1519 44.6348C41.8827 43.8617 42.46 42.8372 43.4766 41.4307C44.7923 39.6154 45.1004 37.8145 44.2841 36.7342C43.5989 35.826 43.8569 34.9121 44.1328 33.9447C44.2918 33.3749 44.4742 32.7326 44.4932 32.0064C44.5454 30.0804 45.3752 27.6752 46.3439 26.6396C46.4096 26.5692 46.503 26.5357 46.5975 26.5502C46.6921 26.5636 46.7744 26.6228 46.82 26.7077C46.8255 26.7222 47.593 28.1991 48.4161 28.6561C48.7976 28.8661 49.2836 28.9219 49.7997 28.9823C50.4704 29.0593 51.1633 29.1398 51.7228 29.571C52.3456 30.048 52.3935 30.0436 53.1609 29.9899C53.3945 29.9721 53.6826 29.9542 54.0574 29.9408C54.7425 29.9196 55.0862 30.01 55.2531 30.2536C55.4421 30.5329 55.3076 30.8479 55.1685 31.1842C55.084 31.383 54.9861 31.6098 54.9483 31.8478C54.8604 32.3695 55.0617 32.5516 55.3943 32.8566C55.5445 32.9951 55.7135 33.1515 55.8603 33.3537C55.976 33.5135 56.1328 33.6464 56.3019 33.786C56.6867 34.1067 57.1639 34.5066 56.9214 35.2819C56.7412 35.8673 57.6244 36.4035 58.0515 36.6616L58.1449 36.7197C58.5053 36.9398 59.0403 37.466 58.582 38.4937C58.4341 38.8188 58.9101 39.3674 59.2538 39.7673C59.4396 39.9784 59.5964 40.1628 59.6898 40.3315C59.8611 40.6398 60.0635 41.2777 60.2003 41.7525C60.5485 41.3347 60.9411 40.9727 61.1435 40.794C60.9066 39.5841 61.2303 38.782 61.5528 38.3139C61.9154 37.7955 62.4538 37.4492 62.9921 37.3833C63.5427 37.3185 64.6905 36.341 65.2867 35.7388C65.3234 35.7008 65.3723 35.6718 65.4257 35.6595C66.0474 35.5087 66.6291 35.6327 67.113 36.0159C67.866 36.6113 68.2019 37.6804 68.2019 38.4792C68.2019 39.8097 67.7937 40.5605 67.2965 41.3347C66.9072 41.9435 67.2598 42.7077 67.2642 42.7177C67.3076 42.8138 67.2987 42.9255 67.2398 43.0138C66.6992 43.7857 67.1564 45.352 67.3766 45.8904C67.3999 45.9485 67.4055 46.0111 67.391 46.0714C67.2464 46.6736 68.1218 47.7349 68.4399 48.06C68.5011 48.1214 68.5311 48.2074 68.5244 48.2934C68.4421 49.2162 70.1294 49.4396 70.1472 49.443C70.2295 49.4519 70.3062 49.5 70.3541 49.5681C70.4019 49.6396 70.4186 49.7267 70.3952 49.8105C70.056 51.1254 71.2383 53.028 71.2516 53.0481C71.3384 53.1866 71.2972 53.3676 71.1604 53.4558C71.0236 53.543 70.8401 53.5016 70.7545 53.3642C70.7044 53.2838 69.5855 51.4829 69.7679 49.9736C69.1751 49.8441 67.9405 49.443 67.9338 48.3806C67.6135 48.0343 66.6703 46.9283 66.8026 46.0312C66.648 45.6268 66.0552 43.9041 66.6703 42.8127C66.5557 42.482 66.36 41.7022 66.8026 41.0118C67.2631 40.2935 67.6146 39.6511 67.6146 38.4781C67.6146 37.8458 67.3432 36.9476 66.7504 36.4795C66.4278 36.2248 66.0574 36.1354 65.6426 36.217C65.3033 36.5543 63.9253 37.8692 63.0644 37.9709C62.773 38.0044 62.3537 38.1999 62.0378 38.6513C61.7686 39.0411 61.5006 39.736 61.7586 40.8331C61.7842 40.9448 61.7453 41.0587 61.6607 41.1302C61.6507 41.138 60.7765 41.8653 60.3271 42.5702C60.2615 42.6708 60.1447 42.7211 60.0313 42.7043C59.9167 42.682 59.8222 42.5993 59.7921 42.4853C59.6898 42.0899 59.3817 40.985 59.1748 40.6141C59.1137 40.5024 58.9669 40.3326 58.8123 40.1538C58.3618 39.631 57.7456 38.9205 58.047 38.2491C58.3229 37.6279 58.0949 37.3822 57.8379 37.2213L57.7478 37.1677C57.2373 36.8582 56.0428 36.1309 56.3631 35.1032C56.481 34.7222 56.3141 34.5625 55.9271 34.2385C55.748 34.091 55.5433 33.9201 55.3843 33.7C55.2753 33.5436 55.1396 33.423 54.9972 33.2923C54.638 32.9627 54.2298 32.5884 54.3688 31.7483C54.4211 31.4445 54.5345 31.1708 54.6246 30.9518C54.6836 30.8155 54.7637 30.629 54.7592 30.5664C54.7548 30.5764 54.6569 30.5284 54.2531 30.5284C54.1998 30.5284 54.1419 30.5284 54.0774 30.5306C53.7126 30.544 53.4301 30.5619 53.2043 30.5787C52.3312 30.6412 52.1421 30.6323 51.3669 30.0402C50.9364 29.7084 50.3525 29.6414 49.733 29.5688C49.1835 29.504 48.6152 29.4381 48.1324 29.1722C47.4417 28.7879 46.83 27.8863 46.5163 27.3669C45.819 28.3522 45.1316 30.2826 45.0849 32.022C45.0626 32.8219 44.8724 33.5045 44.7011 34.1055C44.4387 35.0339 44.2485 35.7053 44.7568 36.3756C45.7355 37.6726 45.4286 39.7427 43.9548 41.7771C43.194 42.8283 42.5167 43.8784 42.7113 44.4381C42.7948 44.6794 43.0628 44.8604 43.5277 44.99L43.7635 45.0559C45.0471 45.4123 45.2773 45.4771 45.1605 46.0122C45.1516 46.0491 45.1405 46.0904 45.136 46.1429C45.1194 46.2859 45.066 46.4244 45.007 46.5741C44.8379 47.0042 44.7034 47.3427 45.3329 47.7818C45.3996 47.8276 45.4441 47.898 45.4564 47.9784C45.4675 48.06 45.4475 48.1404 45.3974 48.2052C45.3429 48.2756 44.8936 48.9079 45.4108 49.3547C46.1682 50.0027 46.6554 50.425 46.1804 51.3801C45.9936 51.7544 45.5954 52.9285 45.9802 53.8513C46.1782 54.3272 46.5664 54.6612 47.1336 54.8456C48.2448 55.2109 50.0088 54.9997 51.4236 54.8299C52.9863 54.6445 53.816 54.564 54.1697 54.9171C54.4289 55.1774 54.5123 55.5784 54.6124 56.0856C54.7959 56.9805 55.0695 58.3356 56.58 59.8191C58.9546 62.1507 59.0759 63.2868 59.0814 63.4097C59.0903 63.5739 58.9646 63.7124 58.8045 63.7192C58.7978 63.7192 58.7922 63.7192 58.7867 63.7192Z" fill="#6E6E6E"/>
<path d="M74.0117 30.9381C74.1196 29.3205 73.3154 26.465 72.3478 25.387C72.3478 25.387 72.5369 21.4289 66.9311 19.2996C61.7836 17.3468 53.5207 17.0887 47.7815 21.6702C46.5781 22.6309 45.6894 25.0295 46.4602 26.9532C46.488 26.9175 46.5191 26.8739 46.5469 26.8426C46.5469 26.8426 47.2376 28.1832 48.064 28.7831C48.1619 28.8446 48.262 28.9027 48.3688 28.9563C49.3142 29.4065 50.6545 29.1283 51.5343 29.8031C52.4485 30.5047 52.3929 30.2891 54.0568 30.2366C55.7185 30.1807 54.8087 30.8287 54.6463 31.7995C54.4862 32.768 55.1813 32.9311 55.6118 33.5266C56.0422 34.1254 56.8998 34.3309 56.6306 35.1934C56.3637 36.0547 57.5426 36.7015 57.9786 36.9719C58.4169 37.24 58.6137 37.6712 58.3023 38.3717C57.9864 39.0722 59.1532 39.9871 59.4201 40.4742C59.6871 40.959 60.063 42.4125 60.063 42.4125C60.5457 41.6573 61.4578 40.9021 61.4578 40.9021C60.975 38.8543 62.1562 37.7796 63.0149 37.6768C63.8724 37.574 65.483 35.9464 65.483 35.9464C67.0379 35.5688 67.8955 37.2389 67.8955 38.4789C67.8955 39.7156 67.5206 40.4172 67.0379 41.1735C66.5519 41.9276 66.9834 42.8414 66.9834 42.8414C66.2315 43.9195 67.0902 46.003 67.0902 46.003C66.8778 46.9012 68.218 48.2686 68.218 48.2686C68.1079 49.4874 70.0966 49.7354 70.0966 49.7354C70.0154 50.0583 70.0154 50.408 70.0599 50.7543L70.3613 50.1164C70.3613 50.1164 71.22 48.4462 71.5414 47.0978C71.8629 45.7516 71.9718 45.5896 72.5625 44.5674C73.1531 43.543 73.5268 43.2213 73.7425 41.3355C73.9572 39.4486 74.9226 40.7423 74.8704 36.4591C74.817 32.1771 73.9049 32.5524 74.0117 30.9381Z" fill="#6E6E6E"/>
<path d="M44.5886 45.906C45.6641 44.79 47.119 45.6279 47.9153 45.9798C48.9219 46.4222 51.2688 46.8936 51.6158 44.9788C51.866 43.6058 49.6048 44.075 50.3311 45.0347C50.3311 45.0347 49.6059 44.256 50.4112 43.589C51.2143 42.9232 52.609 43.9141 52.5801 45.1397C52.5567 46.3049 51.7759 47.937 48.8407 48.3403C45.9044 48.7425 44.8177 48.0331 44.4162 47.2321C44.1059 46.6154 44.3839 46.1172 44.5886 45.906Z" fill="#6E6E6E"/>
<path d="M3.17578 52.5451V46.8822C3.17578 46.5839 3.40602 46.3516 3.70187 46.3516H3.71077C3.71077 46.3516 3.71078 46.3516 3.72857 46.3516H6.82619C7.10425 46.3516 7.35339 46.5839 7.35339 46.8822C7.35339 47.1783 7.10425 47.4173 6.82619 47.4173H4.23687V49.1757H6.46359C6.75055 49.1757 6.98857 49.4237 6.98857 49.7019C6.98857 50.0002 6.75055 50.2382 6.46359 50.2382H4.23687V52.0044H6.82619C7.10425 52.0044 7.35339 52.2446 7.35339 52.544C7.35339 52.8311 7.10425 53.0713 6.82619 53.0713H3.72857C3.71078 53.0713 3.71077 53.059 3.71077 53.059L3.70187 53.0713C3.40713 53.0724 3.17578 52.8322 3.17578 52.5451Z" fill="#6E6E6E"/>
<path d="M8.51014 51.6986C8.68365 51.4674 9.01844 51.4395 9.22865 51.6204C9.4778 51.8327 9.90601 52.055 10.2808 52.045C10.5367 52.045 10.7758 51.9589 10.9282 51.8618C11.0628 51.7467 11.1017 51.6506 11.1017 51.5758C11.1017 51.5255 11.0917 51.5065 11.0728 51.4786C11.0627 51.4484 11.0238 51.4115 10.9482 51.3624C10.8147 51.2652 10.5289 51.1602 10.1852 51.0943H10.1741C9.8782 51.0362 9.59125 50.9624 9.34433 50.844C9.08517 50.7211 8.85605 50.5469 8.68365 50.2877C8.57687 50.1145 8.52126 49.9011 8.52126 49.6811C8.52126 49.2409 8.76929 48.8666 9.08517 48.6287C9.41884 48.3974 9.82037 48.2734 10.2597 48.2734C10.9204 48.2734 11.3898 48.5885 11.6934 48.8007C11.9247 48.9549 11.9915 49.2722 11.8469 49.5112C11.6934 49.7403 11.3797 49.8107 11.1395 49.6431C10.8359 49.4442 10.5667 49.2901 10.2597 49.2901C10.0217 49.2901 9.81036 49.3683 9.68801 49.4643C9.56344 49.5492 9.53563 49.6364 9.53563 49.6822C9.53563 49.7235 9.53563 49.7291 9.55343 49.7615C9.56344 49.7794 9.59124 49.8162 9.65909 49.8564C9.78255 49.9425 10.0317 50.0296 10.3576 50.0877L10.3687 50.0955H10.3754C10.6913 50.1536 10.9882 50.2396 11.2641 50.3748C11.5232 50.491 11.7813 50.672 11.9437 50.9423C12.0571 51.1322 12.1238 51.3546 12.1238 51.5758C12.1238 52.045 11.868 52.4393 11.5232 52.6884C11.1784 52.9286 10.7469 53.0728 10.282 53.0728C9.53674 53.0605 8.96171 52.7175 8.5791 52.4092C8.36666 52.2349 8.33885 51.9109 8.51014 51.6986Z" fill="#6E6E6E"/>
<path d="M15.7404 48.8004C15.7404 49.0886 15.4924 49.3299 15.2065 49.3299H14.9674V52.0066C15.2632 52.0066 15.4935 52.2468 15.4935 52.5462C15.4935 52.8423 15.2632 53.0735 14.9674 53.0735C14.3857 53.0735 13.9074 52.592 13.9074 52.0066V49.3299H13.6316C13.3335 49.3299 13.1055 49.0886 13.1055 48.8004C13.1055 48.5032 13.3335 48.2731 13.6316 48.2731H13.9074V46.8822C13.9074 46.5839 14.1499 46.3516 14.4402 46.3516C14.7371 46.3516 14.9674 46.5839 14.9674 46.8822V48.2731H15.2065C15.4935 48.2731 15.7404 48.5032 15.7404 48.8004Z" fill="#6E6E6E"/>
<path d="M21.599 52.5518C21.599 52.8322 21.3699 53.0724 21.0807 53.0724C20.8249 53.0724 20.6235 52.8892 20.5757 52.6602C20.2131 52.9082 19.756 53.0724 19.2766 53.0724C17.9864 53.0724 16.9531 51.9753 16.9531 50.6817C16.9531 49.3668 17.9864 48.2731 19.2766 48.2731C19.7449 48.2731 20.2031 48.4261 20.5557 48.6741V46.8722C20.5557 46.5929 20.7859 46.3516 21.0807 46.3516C21.3699 46.3516 21.599 46.5929 21.599 46.8722V50.6705C21.599 50.6705 21.599 50.6705 21.599 50.6817V52.5518ZM19.2766 49.3199C18.9329 49.3199 18.6159 49.464 18.379 49.7153C18.1377 49.9522 17.9953 50.2985 17.9953 50.6828C17.9953 51.0481 18.1377 51.3933 18.379 51.6335C18.6159 51.8837 18.9329 52.0278 19.2766 52.0278C19.6303 52.0278 19.9351 51.8837 20.1731 51.6335C20.4144 51.3933 20.5568 51.0492 20.5568 50.6828C20.5568 50.2985 20.4144 49.9522 20.1731 49.7153C19.9351 49.4628 19.6303 49.3199 19.2766 49.3199Z" fill="#6E6E6E"/>
<path d="M24.1761 51.7109C24.5688 51.7109 24.8947 52.0371 24.8947 52.4293C24.8947 52.8247 24.5688 53.1431 24.1761 53.1431C23.7835 53.1431 23.4688 52.8259 23.4688 52.4293C23.4699 52.0371 23.7846 51.7109 24.1761 51.7109Z" fill="#6E6E6E"/>
<path d="M96.163 46.9213V52.5841C96.163 52.8802 95.9128 53.1137 95.6269 53.1137C95.3355 53.1137 95.0997 52.8802 95.0997 52.5841V47.8608L94.7204 48.0809C94.6359 48.139 94.5391 48.1557 94.4535 48.1557C94.2711 48.1557 94.0976 48.0619 94.0041 47.8887C93.8429 47.6497 93.9285 47.3134 94.1754 47.1693L95.3511 46.4666C95.3589 46.4576 95.3789 46.4576 95.39 46.4498C95.4122 46.4498 95.4223 46.4286 95.4378 46.4208C95.4556 46.4208 95.4768 46.4096 95.4979 46.4096C95.5035 46.4007 95.5224 46.4007 95.5335 46.4007C95.5535 46.3906 95.5813 46.3906 95.5991 46.3906C95.6091 46.3906 95.6202 46.3906 95.6269 46.3906H95.6391C95.6647 46.3906 95.6859 46.3906 95.7059 46.3906C95.7159 46.4007 95.7359 46.4007 95.7437 46.4007C95.7715 46.4007 95.7815 46.4096 95.8038 46.4208C95.8149 46.4208 95.8293 46.4208 95.8382 46.4297C95.8683 46.4509 95.8794 46.4577 95.8983 46.4577C95.9061 46.4666 95.915 46.4755 95.9339 46.4867C95.9472 46.4968 95.9662 46.5057 95.9728 46.5135C95.9928 46.5247 96.0017 46.5426 96.0106 46.5537C96.0218 46.5638 96.0318 46.5716 96.0396 46.5917C96.0507 46.6018 96.0674 46.6185 96.0763 46.6286L96.0874 46.6476C96.0874 46.6576 96.0963 46.6677 96.0963 46.6755C96.1074 46.6967 96.1163 46.7045 96.1163 46.7235C96.1263 46.7448 96.1263 46.7626 96.1363 46.7727C96.1363 46.7917 96.1452 46.8107 96.1452 46.8196C96.1452 46.8475 96.1452 46.8677 96.1652 46.8878C96.163 46.9023 96.163 46.9123 96.163 46.9213Z" fill="#6E6E6E"/>
<path d="M97.3867 48.711C97.3867 47.4262 98.43 46.3906 99.7113 46.3906C100.915 46.3906 101.9 47.3033 102.014 48.473C102.014 48.4831 102.014 48.4831 102.021 48.492C102.033 48.6741 102.04 48.8573 102.04 49.0394C102.04 49.6829 101.947 50.3733 101.708 51.0067C101.469 51.6401 101.078 52.2456 100.477 52.6478C100.075 52.9159 99.5879 53.079 99.0429 53.098C98.747 53.1114 98.509 52.888 98.4867 52.5897C98.4778 52.3037 98.707 52.0624 99.0061 52.0334C99.3665 52.0244 99.6535 51.9183 99.9037 51.763C100.142 51.6022 100.344 51.3821 100.505 51.0916C100.552 51.0168 100.59 50.9296 100.629 50.8425C100.351 50.9687 100.038 51.038 99.7124 51.038C98.43 51.038 97.3867 49.999 97.3867 48.711ZM98.4511 48.711C98.4511 49.4036 99.0128 49.9789 99.7113 49.9789C100.409 49.9789 100.96 49.4036 100.96 48.711C100.96 48.0116 100.409 47.4553 99.7113 47.4553C99.0117 47.4553 98.4511 48.0116 98.4511 48.711Z" fill="#6E6E6E"/>
<path d="M107.562 47.1201L105.171 52.7908C105.094 52.993 104.905 53.1103 104.685 53.1103C104.624 53.1103 104.549 53.0969 104.483 53.0701C104.216 52.9439 104.091 52.6378 104.194 52.3775L106.259 47.4553H103.793C103.513 47.4553 103.27 47.2061 103.27 46.919C103.27 46.6196 103.513 46.3906 103.793 46.3906H107.071C107.101 46.3906 107.128 46.3906 107.167 46.4007C107.235 46.4096 107.301 46.4498 107.367 46.4744C107.378 46.4867 107.389 46.4968 107.395 46.5046C107.417 46.5135 107.425 46.5247 107.436 46.5426C107.443 46.5638 107.462 46.5705 107.475 46.5805C107.482 46.6018 107.491 46.6107 107.501 46.6185C107.514 46.6286 107.523 46.6576 107.523 46.6677C107.525 46.6867 107.538 46.6967 107.559 46.7146C107.559 46.7247 107.568 46.7548 107.568 46.7638C107.577 46.7827 107.577 46.7917 107.588 46.8118C107.597 46.8788 107.597 46.9559 107.588 47.0241C107.58 47.0609 107.571 47.09 107.562 47.1201Z" fill="#6E6E6E"/>
<path d="M112.181 49.0383C112.651 49.5008 112.879 50.1141 112.879 50.7285C112.879 51.3329 112.642 51.9485 112.181 52.4088C111.721 52.8768 111.112 53.1103 110.511 53.1103C110.493 53.1103 110.493 53.1103 110.493 53.1103C109.898 53.1103 109.276 52.8768 108.827 52.4088C108.61 52.2054 108.61 51.8613 108.827 51.6401C109.029 51.4301 109.383 51.4301 109.592 51.6401C109.84 51.8982 110.166 52.0244 110.511 52.0244C110.832 52.0244 111.169 51.8993 111.416 51.6401C111.669 51.391 111.794 51.0548 111.794 50.7297C111.794 50.3845 111.679 50.0582 111.416 49.8114C111.168 49.5499 110.842 49.4326 110.511 49.4326C110.185 49.4326 109.839 49.5488 109.592 49.8114C109.383 50.0191 109.038 50.0191 108.827 49.8114C108.79 49.7745 108.761 49.7242 108.722 49.684C108.722 49.6628 108.722 49.6527 108.711 49.6527C108.711 49.6371 108.704 49.6147 108.693 49.608C108.693 49.5768 108.682 49.5589 108.682 49.5399C108.682 49.5287 108.675 49.5287 108.675 49.5198C108.664 49.4617 108.664 49.4047 108.675 49.3589L108.96 46.8699C108.988 46.7068 109.076 46.5716 109.202 46.4867C109.217 46.4744 109.229 46.4744 109.236 46.4666C109.247 46.4577 109.258 46.4577 109.268 46.4498C109.342 46.4096 109.416 46.3906 109.512 46.3906H112.334C112.64 46.3906 112.876 46.6297 112.876 46.9347C112.876 47.2263 112.64 47.4743 112.334 47.4743H109.981L109.87 48.425C110.079 48.3658 110.296 48.3389 110.508 48.3389C111.112 48.3378 111.721 48.5668 112.181 49.0383Z" fill="#6E6E6E"/>
<path d="M11.9609 30.8667L13.4992 31.4945L13.7772 30.8209L18.8157 32.9636L18.571 33.5579L20.1093 34.1835C20.5653 33.0574 21.0691 31.9515 21.6219 30.8667L20.1438 30.1059L19.8201 30.7561L18.115 29.9126C18.4587 29.2189 18.8113 28.5285 19.1917 27.8526L20.8489 28.7821L20.5186 29.3898L21.9812 30.1774C22.554 29.0994 23.178 28.0515 23.8453 27.0281L22.4572 26.1154L22.0902 26.6863L17.4688 23.7459L17.8837 23.1013L16.4945 22.1875C15.6881 23.4264 14.9284 24.6978 14.2355 26.0037L15.697 26.7924L16.0707 26.1087L17.728 27.0371C17.3342 27.7387 16.9694 28.4559 16.6135 29.1742L14.9095 28.333L15.2754 27.6012L13.7961 26.8405C13.1277 28.1542 12.5148 29.4982 11.9609 30.8667Z" fill="#6E6E6E"/>
<path d="M20.9664 23.5837C21.0198 23.0452 21.141 22.3247 21.5915 21.7326C21.9997 21.1897 22.4357 20.8746 22.875 21.231L23.2176 21.5069C23.123 21.508 22.5625 21.6153 22.1231 22.2007C21.27 23.3245 21.3679 24.8148 22.5524 25.5979C23.7715 26.4045 24.9327 25.8147 25.57 24.9723C25.8113 24.6506 26.1039 24.0049 25.8714 23.2709L26.482 23.4206C26.9903 22.7984 27.5164 22.1884 28.0614 21.5985L26.878 20.5037L26.4075 21.0243L24.5779 19.3832C23.0797 18.0102 21.3412 19.1151 20.3902 20.3764C19.6573 21.336 19.4971 22.5984 19.4648 23.1927L20.9664 23.5837ZM24.7213 22.7123C24.8025 22.9179 24.797 23.2832 24.5845 23.5603C24.3754 23.8384 24.0206 23.9055 23.7392 23.6954C23.4267 23.4619 23.3355 23.1223 23.6247 22.7414C23.9339 22.3437 24.2753 22.4018 24.3465 22.4152L24.7213 22.7123Z" fill="#6E6E6E"/>
<path d="M30.6087 19.0671L29.4987 17.8416L29.0883 18.2237L25.9173 14.8186C25.1865 15.5034 24.4758 16.2128 23.794 16.9434L24.9819 18.0706L25.3422 17.6885L27.5056 19.7843L27.1663 20.1407L28.3653 21.2768C29.0872 20.5127 29.8357 19.7743 30.6087 19.0671ZM22.7173 15.404C23.1544 15.8218 24.042 15.8553 24.6271 15.2788C25.2855 14.6242 25.2744 13.8589 24.8006 13.3417C24.4124 12.9183 23.5148 12.7764 22.8341 13.45C22.1456 14.1349 22.2958 15.0062 22.7173 15.404Z" fill="#6E6E6E"/>
<path d="M33.4845 16.6632L32.4879 15.3438L32.0241 15.7024L31.2277 14.6758C30.5437 13.8033 30.8585 13.1743 31.7661 12.5174L30.4436 10.6719C29.3547 11.4662 29.4114 12.0963 29.5249 12.7744L28.7207 12.38C28.0912 12.8905 27.4672 13.4123 26.8633 13.953L27.9477 15.1841L28.3515 14.8277L30.3179 17.1101L29.9331 17.4508L31.0253 18.6875C31.8195 17.9826 32.6414 17.3056 33.4845 16.6632Z" fill="#6E6E6E"/>
<path d="M37.6954 9.88862L36.3752 7.35938C35.9225 7.59286 35.4776 7.84199 35.0338 8.09335L35.1428 8.7279C34.8325 8.61395 34.1473 8.46759 33.3943 8.93568C31.9673 9.816 31.3 11.5331 32.6102 13.3373C33.9338 15.156 35.7389 15.2286 37.1293 14.3841C38.1559 13.7596 38.7309 12.7184 38.9244 11.8928C38.4261 11.6694 37.9212 11.4515 37.4107 11.2471C37.285 11.8325 37.0681 12.2749 36.5309 12.5821C35.8835 12.9474 35.1539 12.648 34.7112 11.9509C34.273 11.2616 34.1529 10.3891 34.7891 10.0048C35.2829 9.70764 35.8068 10.2405 36.1282 10.7533C36.6432 10.4539 37.1671 10.1646 37.6954 9.88862Z" fill="#6E6E6E"/>
<path d="M36.8242 7.12992L37.5794 8.61351L38.0466 8.38002L38.8196 9.93957C39.7572 11.822 40.6837 12.4264 42.222 11.7538C43.0895 11.3796 43.2185 10.6322 43.342 10.2457L43.9104 10.878C44.571 10.63 45.2384 10.3954 45.9113 10.1809L45.4052 8.58L44.8624 8.75762L43.4021 4.35938C42.3421 4.71351 41.2966 5.10452 40.2644 5.53351L40.8995 7.07518L41.6625 6.76685L42.3932 8.63697C42.599 9.16538 42.4377 9.648 42.0618 9.80552C41.6202 9.98538 41.2843 9.58879 40.8539 8.59005L39.6571 5.79157C38.6984 6.20827 37.7518 6.65066 36.8242 7.12992Z" fill="#6E6E6E"/>
<path d="M44.3711 4.03831L44.8538 5.6068L45.4989 5.40906L46.1284 7.56965C46.6167 9.12138 46.9604 10.0665 48.5721 9.65426C48.8212 9.58835 49.5386 9.33364 49.8389 9.11579L49.5052 7.5339C49.3084 7.67913 48.9814 7.87016 48.8357 7.90256C48.3941 8.0031 48.3396 7.42665 48.2395 7.00436L47.7178 4.81809L48.8757 4.55555L48.5354 2.94908L47.3375 3.22279L46.897 1.36719C46.1507 1.79953 45.4244 2.25533 44.7137 2.72007L45.0396 3.83499L44.3711 4.03831Z" fill="#6E6E6E"/>
<path d="M50.1768 9.0682C50.6351 8.97101 51.0944 8.88945 51.5538 8.80902L51.5304 8.03371C51.8808 8.46382 52.576 8.79561 53.3746 8.69842C54.4412 8.56548 55.3833 7.78794 55.3076 6.60598C55.2175 5.2788 54.1643 4.99504 53.1999 4.77496C52.3891 4.58951 51.6461 4.55042 51.5916 4.19963C51.5449 3.88794 51.7484 3.71702 52.012 3.67903C52.636 3.59189 53.3323 3.94268 53.3868 4.47221C53.9196 4.413 54.4512 4.36497 54.9829 4.3214L54.8116 2.05469C54.2844 2.09826 53.7572 2.14406 53.2277 2.20327L53.2166 3.04337C52.8963 2.53171 52.0677 2.18539 51.1934 2.3161C50.2758 2.45463 49.0412 3.25005 49.3059 4.51467C49.5451 5.67539 50.4193 6.03847 51.2668 6.20939C52.1633 6.37473 53.0498 6.33228 53.0954 6.70988C53.1388 7.06179 52.8696 7.17015 52.6416 7.20031C52.2957 7.24612 51.3992 7.2059 51.288 6.55013C50.7641 6.63615 50.2436 6.73111 49.7275 6.84059L50.1768 9.0682Z" fill="#6E6E6E"/>
<path d="M64.45 4.12105C64.3254 5.08627 64.3065 5.3879 63.9172 5.90068C63.7337 5.63368 63.4467 5.11867 63.043 4.20148C64.3454 3.56693 64.9816 2.61959 64.9405 1.75491C64.9038 0.895813 64.1641 0.124975 62.8328 0.00879065C61.2133 -0.130854 59.7262 1.41082 60.9041 3.38149C60.328 3.71328 59.1101 4.37799 59.0978 6.11294C59.0845 7.53284 59.8764 8.22548 60.7895 8.48802C61.706 8.74608 62.7771 8.59526 63.3844 8.20314C64.5045 9.41637 65.56 8.25006 65.6746 7.67807C65.1718 7.88922 64.8504 7.52838 64.5923 7.0223C64.8281 6.76536 64.9883 6.48048 65.1106 6.15539C65.461 6.23359 65.7613 6.24476 66.0438 6.2928L66.4787 4.43497C65.8047 4.31208 65.1284 4.21042 64.45 4.12105ZM62.6548 7.04353C62.0542 7.48369 61.2712 7.36639 60.8707 6.92734C60.477 6.49724 60.4525 5.70518 61.547 4.84943C61.8006 5.44488 62.2099 6.36765 62.6548 7.04353ZM62.9128 1.07791C63.8126 1.16951 63.6024 2.17943 62.4212 2.69555C62.0531 2.23305 61.9363 0.995237 62.9128 1.07791Z" fill="#6E6E6E"/>
<path d="M69.293 9.65896C70.6633 10.0354 72.0169 10.4734 73.3427 10.9884C75.3458 11.7782 76.4647 11.4944 77.2378 9.87904C77.765 8.77417 77.3812 7.84804 76.6494 7.25595C77.6571 7.28388 78.142 6.94092 78.5858 5.97904C79.1664 4.74235 78.5346 3.54029 76.4158 2.71582C74.8353 2.1025 73.2214 1.58191 71.5898 1.13281L71.1638 2.708L71.9001 2.91468L70.3707 8.25469L69.7212 8.07148L69.293 9.65896ZM74.4872 3.78383L75.2669 4.06423C75.7362 4.23963 75.9553 4.69319 75.7451 5.2339C75.5238 5.79918 75.2168 6.06841 74.5895 5.83381L73.8643 5.57239L74.4872 3.78383ZM72.6731 8.99201L73.3938 6.91857L74.2814 7.23919C74.9143 7.48162 75.0711 8.0469 74.8309 8.64681C74.5761 9.27577 74.0045 9.4858 73.5484 9.31152L72.6731 8.99201Z" fill="#6E6E6E"/>
<path d="M81.715 12.9041C80.8741 13.0415 80.3447 12.7689 79.9999 12.5678C79.1579 12.0785 79.3525 11.4015 79.4515 11.0664C80.5504 11.6663 81.6204 12.3176 82.6637 13.0102C83.2688 12.5499 83.7014 11.6696 83.816 11.2149C84.1052 10.1347 83.5301 8.82981 82.1821 8.05451C80.4626 7.06694 78.5417 7.52274 77.6719 9.40068C76.6564 11.5959 77.6263 13.1733 78.8109 13.8615C79.8197 14.4402 80.715 14.667 81.8673 14.467C81.8273 13.9497 81.775 13.4258 81.715 12.9041ZM80.0788 9.98607C80.2523 9.72131 80.7373 9.19512 81.4035 9.57384C82.0965 9.98049 81.9207 10.4921 81.6838 10.9111C81.1555 10.5938 80.6194 10.2821 80.0788 9.98607Z" fill="#6E6E6E"/>
<path d="M84.735 12.2492C85.2699 12.3051 85.984 12.4313 86.5735 12.886C87.1118 13.2982 87.4244 13.7384 87.0673 14.1752L86.7915 14.5204C86.7893 14.4243 86.6847 13.8624 86.1052 13.4167C84.9897 12.5553 83.5059 12.6447 82.7207 13.83C81.9098 15.0511 82.4927 16.2207 83.3268 16.8642C83.6472 17.1089 84.2878 17.406 85.0208 17.177L84.8662 17.7892C85.4846 18.3031 86.0897 18.8338 86.6736 19.3845L87.7714 18.1992L87.2542 17.7255L88.8981 15.8956C90.2717 14.3998 89.1795 12.6458 87.9282 11.6873C86.9784 10.9455 85.7226 10.7779 85.1309 10.7422L84.735 12.2492ZM85.5814 16.0241C85.3789 16.1057 85.0141 16.0967 84.7383 15.8856C84.4625 15.6711 84.3968 15.3158 84.6082 15.0343C84.844 14.7215 85.1799 14.631 85.5591 14.9237C85.9529 15.2365 85.8928 15.5784 85.8817 15.6499L85.5814 16.0241Z" fill="#6E6E6E"/>
<path d="M89.2156 21.9776L90.4413 20.8694L90.0476 20.4371L90.9974 19.5523C91.8071 18.7949 92.4545 19.0607 93.1852 19.9098L94.9048 18.4307C94.025 17.4118 93.4032 17.5191 92.7414 17.6889L93.064 16.8532C92.5045 16.2656 91.9362 15.6836 91.3467 15.125L90.2188 16.3125L90.6059 16.6879L88.5071 18.8496L88.1356 18.4932L87 19.6897C87.7663 20.4237 88.5071 21.1867 89.2156 21.9776Z" fill="#6E6E6E"/>
<path d="M98.9317 21.7238L97.4024 22.7862C97.3868 22.4968 97.389 21.9226 96.8418 21.1786C95.8808 19.8793 94.0089 19.6056 92.5241 20.8937C91.1994 22.0433 90.6722 23.8363 91.602 25.0909C92.0614 25.712 92.692 25.8751 92.9011 25.912L92.6275 26.3343C93.1213 27.0604 93.5918 27.8011 94.0412 28.5574L95.4471 27.7162L95.1579 27.2358L101.804 23.1392C101.206 22.1617 100.576 21.2032 99.9127 20.2659L98.5814 21.2166L98.9317 21.7238ZM94.1457 22.9348C94.9098 22.3561 95.6217 22.2745 95.9298 22.708C96.2134 23.0956 95.9131 23.8251 95.209 24.3089C94.4171 24.9155 93.6741 24.9166 93.4072 24.5502C93.1091 24.1324 93.5429 23.3928 94.1457 22.9348Z" fill="#6E6E6E"/>
<path d="M94.2109 28.8432C94.4456 29.2509 94.6759 29.6576 94.8972 30.0721L95.6213 29.7961C95.3287 30.2709 95.2398 31.0384 95.5901 31.7634C96.0617 32.7354 97.0917 33.3811 98.1861 32.9264C99.4029 32.4159 99.3373 31.3199 99.2294 30.3357C99.146 29.5045 98.9391 28.7829 99.2528 28.6209C99.533 28.4745 99.7611 28.6131 99.8767 28.8499C100.166 29.4152 100.052 30.1949 99.5764 30.415C99.8022 30.9021 100.021 31.3914 100.233 31.8841L102.314 30.9892C102.105 30.4999 101.888 30.0151 101.664 29.5314L100.867 29.7905C101.244 29.3213 101.308 28.4198 100.899 27.6322C100.475 26.8021 99.324 25.8872 98.2206 26.5452C97.2018 27.1485 97.1406 28.098 97.2563 28.9538C97.382 29.8632 97.7156 30.6887 97.3731 30.8552C97.0583 31.0071 96.8681 30.7882 96.7624 30.5826C96.6123 30.2687 96.3542 29.4029 96.9404 29.0845C96.6879 28.6164 96.431 28.1517 96.1652 27.6936L94.2109 28.8432Z" fill="#6E6E6E"/>
<path d="M13.1078 69.1763C13.0277 69.2087 12.9921 69.3182 13.0322 69.4098C13.0711 69.5048 13.1667 69.5416 13.2468 69.5092L16.6447 68.0949C16.9695 68.8881 17.3199 69.6712 17.6914 70.4432C18.3131 71.7402 19.8169 72.2418 20.9747 71.5805C22.1337 70.9202 22.5597 69.4847 22.0169 68.3474C21.6688 67.6213 21.3395 66.885 21.0359 66.1388L21.0281 66.1176C20.9959 66.0416 20.898 66.0025 20.819 66.0349L13.1078 69.1763ZM16.9417 67.9698L20.7979 66.3689C21.0882 67.0817 21.4041 67.7866 21.74 68.4815C22.2171 69.4769 21.83 70.7281 20.8179 71.2945C19.8024 71.862 18.5178 71.4207 17.9806 70.3024C17.6124 69.5349 17.2643 68.7596 16.9417 67.9698Z" fill="#6E6E6E"/>
<path d="M16.831 76.5339C16.7454 76.5853 16.7409 76.6914 16.7865 76.7662C16.8477 76.8634 16.93 76.8802 17.0145 76.8266L19.4081 75.3162L19.8474 75.2301C20.2623 75.1732 20.9575 75.1073 21.6192 75.2123C22.2354 75.3173 22.8761 75.6033 23.3354 76.2456C23.3966 76.3272 23.4934 76.3339 23.5623 76.2836C23.6324 76.2322 23.6569 76.1373 23.5957 76.0557C22.9017 75.0961 21.8172 74.8637 20.9508 74.8224C20.6516 74.8134 20.3724 74.8324 20.1288 74.8615L21.8639 73.7667C21.9373 73.7209 21.9729 73.6382 21.9207 73.5544C21.8795 73.4874 21.7772 73.4617 21.7027 73.5075L19.2991 75.0022C19.2602 75.0101 19.2502 75.0179 19.2357 75.0402L16.831 76.5339Z" fill="#6E6E6E"/>
<path d="M21.7679 83.4675C22.552 84.3556 23.6988 84.7243 24.6809 84.5679C24.7721 84.5556 24.821 84.464 24.7988 84.3902C24.7565 84.293 24.6876 84.2249 24.5964 84.2372C23.7043 84.3936 22.7033 84.0584 21.997 83.2608C20.8714 81.9761 21.0082 80.1339 22.1817 79.2323L22.2117 79.2089C23.4196 80.7628 24.7309 82.2308 26.1246 83.6183C26.1835 83.6752 26.2847 83.6708 26.3437 83.625L26.3526 83.616L26.3715 83.5982L26.3782 83.5881C27.377 82.3693 27.3214 80.6053 26.287 79.43C25.1981 78.2056 23.334 77.9688 21.9748 78.9631C20.6735 79.9842 20.5188 82.0207 21.7679 83.4675ZM26.049 79.6457C26.941 80.6623 27.03 82.1894 26.2091 83.2831C24.8778 81.9459 23.6187 80.5293 22.4553 79.0357C23.6287 78.3498 25.1347 78.6156 26.049 79.6457Z" fill="#6E6E6E"/>
<path d="M34.5956 93.6262C34.5544 93.7021 34.6056 93.8161 34.6812 93.8597C34.7691 93.9077 34.8681 93.8764 34.9103 93.8004L36.5698 90.7696C37.2071 89.5798 36.7722 88.0873 35.6277 87.3656C34.7235 86.7947 33.6112 86.8171 32.7748 87.3612C33.004 86.3881 32.6536 85.329 31.8261 84.6699C31.0964 84.089 30.1655 83.9628 29.3369 84.2365L30.0598 83.4064C30.1254 83.3316 30.1099 83.2344 30.0509 83.1841C29.9753 83.1171 29.8974 83.1305 29.8318 83.2042L28.5138 84.6978C28.4382 84.7638 28.3625 84.8297 28.2969 84.9034L26.0101 87.4907C25.9512 87.5567 25.9667 87.6505 26.0224 87.7164L26.0557 87.7455C26.0769 87.7656 26.1169 87.7834 26.1558 87.7834C26.1647 87.7935 26.1747 87.7834 26.1847 87.7935C26.1925 87.7846 26.1925 87.7846 26.2114 87.7834C26.237 87.7745 26.2648 87.7656 26.2893 87.7365L28.6139 85.0665C29.3958 84.2432 30.7227 84.1918 31.6337 84.9123C32.5724 85.6564 32.8227 87.0025 32.1442 87.9789L30.1488 90.7986C30.0976 90.869 30.1154 90.9696 30.1977 91.0288C30.2456 91.0601 30.2856 91.0768 30.3434 91.0701C30.3501 91.0601 30.3501 91.0601 30.369 91.0589C30.3757 91.0466 30.3946 91.0467 30.4035 91.0355C30.4213 91.0355 30.4269 91.0243 30.4424 91.0042L32.4167 88.1711L32.4667 88.0996C33.1597 87.1936 34.4699 87.0037 35.4631 87.6281C36.4541 88.2549 36.8479 89.5608 36.2762 90.6087L34.5956 93.6262Z" fill="#6E6E6E"/>
<path d="M40.5419 88.3782C40.5096 88.4474 40.5319 88.5413 40.6209 88.5826C40.6876 88.615 40.7844 88.5804 40.8155 88.5111L40.9412 88.2419C40.9835 88.1525 40.9445 88.0665 40.8789 88.0341C40.7922 87.9928 40.711 88.0218 40.6687 88.1112L40.5419 88.3782ZM37.3509 95.0644C37.313 95.1437 37.3475 95.242 37.4498 95.2912C37.5277 95.328 37.6389 95.299 37.6756 95.2196L40.117 90.0025C40.1593 89.9143 40.1126 89.8372 40.0436 89.8037C39.9535 89.7579 39.8757 89.7769 39.8334 89.8662L37.3509 95.0644Z" fill="#6E6E6E"/>
<path d="M41.7321 94.4658C41.2316 95.7349 42.0224 97.2162 43.5162 97.6989C45.0233 98.1882 46.5415 97.433 46.8629 96.1125L47.7183 92.7599C47.7405 92.6772 47.686 92.5856 47.6004 92.5622C47.5281 92.541 47.4235 92.5912 47.4001 92.6761L46.5192 96.0209C46.2278 97.1727 44.9165 97.824 43.6107 97.4028C42.3183 96.9906 41.6253 95.6969 42.0525 94.5876L43.2659 91.3501C43.2937 91.2707 43.2515 91.1747 43.1803 91.1445C43.0868 91.1099 43.0012 91.1557 42.9712 91.2361L41.7321 94.4658Z" fill="#6E6E6E"/>
<path d="M60.0125 99.8359C60.0158 99.9252 60.1181 99.9956 60.2049 99.9934C60.3061 99.99 60.3739 99.9152 60.3717 99.8269L60.2394 96.3693C60.1737 95.0175 59.0337 93.9685 57.6823 93.9417C56.6134 93.9205 55.6725 94.5182 55.2353 95.4175C54.9328 94.4646 54.0853 93.7384 53.0375 93.6055C52.1144 93.4915 51.2535 93.8602 50.684 94.5271L50.8764 93.4401C50.8942 93.3418 50.8297 93.2692 50.7574 93.2536C50.6562 93.2357 50.5962 93.286 50.5784 93.3854L50.2169 95.3482C50.1868 95.4432 50.1557 95.5393 50.1368 95.6342L49.5106 99.0382C49.4939 99.1231 49.554 99.1968 49.6363 99.2237L49.6797 99.2326C49.7075 99.2382 49.7508 99.2337 49.7842 99.2147C49.7976 99.2181 49.802 99.2047 49.8142 99.2069C49.8165 99.1946 49.8165 99.1946 49.8343 99.1845C49.8532 99.1622 49.8699 99.1399 49.8776 99.1041L50.4927 95.613C50.7408 94.4981 51.8508 93.7663 52.9997 93.9127C54.1876 94.0635 55.0941 95.0846 55.0162 96.2732L54.7582 99.7208C54.7515 99.809 54.8171 99.8872 54.9195 99.8939C54.9762 99.8984 55.0196 99.8895 55.0663 99.8548C55.0663 99.8437 55.0663 99.8437 55.0819 99.8314C55.083 99.8202 55.0985 99.8079 55.0997 99.7945C55.1152 99.7833 55.1152 99.7722 55.1175 99.7476L55.351 96.2956L55.3577 96.2096C55.4834 95.0723 56.5089 94.23 57.6823 94.2501C58.8557 94.2746 59.8634 95.1896 59.9101 96.3805L60.0125 99.8359Z" fill="#6E6E6E"/>
<path d="M77.5649 97.1147C77.4882 97.0801 77.3592 97.1192 77.3102 97.1907C76.8186 97.9291 76.2347 98.3358 75.6352 98.5547C74.8666 98.8352 74.0102 98.8162 73.156 98.6788C72.5865 98.5704 72.0526 98.6486 71.6033 98.7726C72.1983 98.319 72.7812 97.861 73.3451 97.3862C74.8333 96.2031 75.3605 94.2704 74.6931 92.5925C73.7755 90.3403 71.412 89.1639 69.3354 89.7381C67.2955 90.3168 65.8841 92.5545 66.2489 94.9631C66.4591 96.1484 67.151 97.1483 68.1397 97.7515C69.1274 98.3559 70.4176 98.5648 71.6878 98.2073L71.8113 98.1716C71.2285 98.6296 70.6256 99.0675 70.0117 99.4999C69.8059 99.6618 70.0617 99.9087 70.2664 99.7568C70.5144 99.5837 71.0483 99.244 71.6823 99.0709C72.0927 98.9569 72.562 98.9011 73.067 98.9927C73.9412 99.1413 74.8388 99.1725 75.7375 98.8463C76.4416 98.5961 77.0945 98.1112 77.6239 97.3437C77.6806 97.2421 77.6606 97.1572 77.5649 97.1147ZM66.597 94.8983C66.2233 92.6517 67.5469 90.5928 69.4255 90.0621C71.3675 89.5225 73.5464 90.5939 74.3895 92.7098C75.2248 94.8067 74.0124 97.2343 71.6066 97.909C69.2687 98.5648 66.9652 97.1292 66.597 94.8983Z" fill="#6E6E6E"/>
<path d="M77.8043 93.3745C78.3548 94.6212 79.9632 95.0938 81.3512 94.3609C82.7505 93.6147 83.281 92.0104 82.5658 90.8475L80.7851 87.8892C80.7395 87.8144 80.6372 87.7898 80.5627 87.8356C80.4959 87.8747 80.4592 87.9842 80.5026 88.059L82.2622 91.0318C82.8772 92.0462 82.419 93.4448 81.2067 94.085C80.0099 94.7206 78.6029 94.3118 78.1135 93.2281L76.662 90.0923C76.6253 90.0129 76.5274 89.9783 76.4585 90.0107C76.3661 90.0543 76.3383 90.1459 76.375 90.2263L77.8043 93.3745Z" fill="#6E6E6E"/>
<path d="M87.061 83.0428C86.9854 83.111 86.9954 83.2171 87.0454 83.2718L88.042 84.408C87.0176 84.0069 85.832 84.122 84.9388 84.8202C83.6831 85.81 83.365 87.6701 84.277 89.0587C85.1857 90.444 87.1922 90.7613 88.6593 89.6095C89.687 88.8074 90.0974 87.5427 89.8372 86.4524L90.8338 87.5874C90.9005 87.6634 90.9961 87.6578 91.0807 87.583C91.1563 87.5148 91.1696 87.4221 91.1029 87.3484L87.2812 83.0618C87.2323 83.006 87.1266 82.9836 87.061 83.0428ZM88.4691 89.3648C87.1834 90.3725 85.3948 90.1223 84.5562 88.8666C83.7231 87.6209 84.0168 85.953 85.1368 85.0749C86.258 84.1991 87.9386 84.3142 88.9407 85.4291C89.9484 86.5541 89.7582 88.3571 88.4691 89.3648Z" fill="#6E6E6E"/>
<path d="M93.4948 85.0396C93.5571 85.0988 93.6605 85.0988 93.7395 85.0161C93.8107 84.9446 93.8073 84.8407 93.745 84.7793L87.7478 78.9868C87.6844 78.9265 87.5887 78.9187 87.532 78.979C87.4664 79.0461 87.4786 79.1421 87.542 79.2013L93.4948 85.0396Z" fill="#6E6E6E"/>
<path d="M90.2044 77.6616C90.2611 77.7096 90.3568 77.7107 90.419 77.6359C90.4669 77.5789 90.4569 77.4761 90.3979 77.4269L90.171 77.237C90.0954 77.1734 90.0019 77.1879 89.9563 77.2449C89.8929 77.3186 89.9018 77.4068 89.9764 77.4705L90.2044 77.6616ZM95.8368 82.4519C95.9035 82.5078 96.0081 82.5 96.0826 82.4117C96.1382 82.3447 96.1349 82.233 96.0693 82.1771L91.6603 78.4838C91.5847 78.4201 91.4979 78.4458 91.449 78.505C91.3834 78.5832 91.3811 78.6636 91.4579 78.7273L95.8368 82.4519Z" fill="#6E6E6E"/>
<path d="M94.5897 74.2477L94.0302 75.0957L92.0337 73.7227C91.9625 73.6746 91.8602 73.6914 91.8124 73.7607C91.7657 73.8277 91.7924 73.9182 91.8636 73.9685L93.8511 75.3549L93.2338 76.2218C93.1827 76.2921 93.1982 76.3994 93.2672 76.4508C93.3373 76.5033 93.4296 76.4765 93.483 76.405L94.1036 75.5325L98.0588 78.2907C98.4837 78.5901 99.1076 78.4259 99.4413 77.9198C99.4991 77.8349 99.4847 77.7221 99.4135 77.6741C99.3423 77.626 99.2422 77.664 99.1866 77.7467C98.9619 78.0818 98.5437 78.1935 98.2601 77.9992L94.286 75.2711L94.8477 74.4176C94.8978 74.3438 94.8867 74.2455 94.8144 74.1997C94.7409 74.1517 94.6364 74.174 94.5897 74.2477Z" fill="#6E6E6E"/>
<path d="M99.0883 73.7768C100.243 74.4504 101.816 73.884 102.52 72.4574C102.98 71.5079 102.911 70.4555 102.403 69.7472L103.241 70.1103C104.527 70.6521 105.038 72.3736 104.258 73.9231C104.037 74.37 103.743 74.713 103.396 74.999C103.337 75.0548 103.303 75.171 103.353 75.2347C103.398 75.3285 103.489 75.3442 103.572 75.2682C103.95 74.9599 104.29 74.551 104.536 74.065C105.42 72.3122 104.821 70.3717 103.385 69.783L98.2808 67.6134C98.2463 67.6 98.2063 67.5967 98.174 67.6101C98.174 67.6101 98.1629 67.6056 98.1562 67.619L98.1062 67.638C98.1006 67.6503 98.085 67.6559 98.0806 67.6671L98.0695 67.6905C98.055 67.7252 98.0561 67.7542 98.0572 67.7844L98.0784 67.8324C98.0717 67.8458 98.0828 67.8503 98.0828 67.8503C98.1006 67.8704 98.1173 67.8916 98.1284 67.895L98.1518 67.9061L101.393 69.3138C102.405 69.8031 102.82 71.1425 102.24 72.3223C101.635 73.559 100.263 74.055 99.2551 73.4785L96.2443 71.795C96.1709 71.7525 96.0685 71.7849 96.0318 71.8519C95.9818 71.9391 96.014 72.0296 96.0908 72.0731L99.0883 73.7768Z" fill="#6E6E6E"/>
<path d="M116.003 40.9141H91.7852V41.8558H116.003V40.9141Z" fill="#6E6E6E"/>
<path d="M116.003 57.7188H91.7852V58.6583H116.003V57.7188Z" fill="#6E6E6E"/>
<path d="M25.1546 40.9141H0V41.8558H25.1546V40.9141Z" fill="#6E6E6E"/>
<path d="M25.1546 57.7188H0V58.6583H25.1546V57.7188Z" fill="#6E6E6E"/>
<path d="M80.6858 64.9416L79.8071 67.6261L81.51 69.8783L78.696 69.8671L77.0921 72.1886L76.2313 69.4973L73.5352 68.6829L75.8208 67.0295L75.7563 64.2031L78.0286 65.8744L80.6858 64.9416Z" fill="#6E6E6E"/>
<path d="M84.933 55.4453L85.2389 57.1858L86.8394 57.9209L85.2867 58.7499L85.0854 60.5038L83.8196 59.2772L82.0934 59.6291L82.8664 58.0416L82 56.501L83.7451 56.7479L84.933 55.4453Z" fill="#6E6E6E"/>
<path d="M85.0914 46.3438L85.761 47.4106L87.0167 47.462L86.2137 48.4306L86.5529 49.645L85.3873 49.178L84.3407 49.8796L84.4252 48.6205L83.4375 47.8374L84.6554 47.5279L85.0914 46.3438Z" fill="#6E6E6E"/>
<path d="M35.3175 64.9416L36.1973 67.6261L34.4922 69.8783L37.3073 69.8671L38.9123 72.1886L39.772 69.4973L42.4692 68.6829L40.1836 67.0295L40.247 64.2031L37.9746 65.8744L35.3175 64.9416Z" fill="#6E6E6E"/>
<path d="M31.0666 55.4453L30.7607 57.1858L29.1602 57.9209L30.714 58.7499L30.9142 60.5038L32.181 59.2772L33.905 59.6291L33.132 58.0416L33.9984 56.501L32.2555 56.7479L31.0666 55.4453Z" fill="#6E6E6E"/>
<path d="M30.9097 46.3438L30.239 47.4106L28.9844 47.462L29.7874 48.4306L29.4482 49.645L30.6127 49.178L31.6593 49.8796L31.5759 48.6205L32.5636 47.8374L31.3457 47.5279L30.9097 46.3438Z" fill="#6E6E6E"/>
</svg>
