<svg width="111" height="100" viewBox="0 0 111 100" fill="none" xmlns="http://www.w3.org/2000/svg">
<path d="M49.7219 36.0262L48.0058 32.3281L45.1133 33.6812L47.9264 39.7454L48.3586 39.5461C47.8119 38.1977 48.3983 36.6465 49.7219 36.0262Z" fill="#6E6E6E"/>
<path d="M51.4115 33.6872C51.7363 34.3836 51.4337 35.222 50.7398 35.5468L47.7667 36.9373C47.0704 37.2645 46.2398 36.9573 45.9162 36.262L34.4909 11.6685C34.1638 10.9721 34.4687 10.1337 35.1638 9.80893L38.1323 8.42069C38.8285 8.09356 39.6626 8.39724 39.9851 9.0984L51.4115 33.6872Z" fill="#6E6E6E"/>
<path d="M53.9812 59.1415C54.6705 58.4298 54.6728 57.3488 54.4859 56.3087C54.2931 55.2582 53.9181 54.2158 53.5104 53.1922C52.6786 51.1427 51.681 49.1248 50.7464 47.0893L44.9964 34.9315L39.3082 22.7421L33.7066 10.5081C33.5687 10.2056 33.7031 9.84798 34.0033 9.7108C34.2989 9.57596 34.6447 9.69906 34.7895 9.99219L34.7919 9.99688C36.7428 14.0338 38.6423 18.0966 40.5688 22.1476L46.2358 34.3535L51.7803 46.6168C52.6716 48.678 53.6097 50.7088 54.4134 52.8416C54.8036 53.9063 55.1751 54.9943 55.3609 56.1622C55.445 56.7461 55.4929 57.3488 55.3959 57.969C55.3434 58.2786 55.2663 58.5916 55.1249 58.8895C54.9999 59.1662 54.7557 59.5015 54.5805 59.6727L54.5466 59.7067C54.3901 59.8626 54.1389 59.858 53.9824 59.6997C53.8317 59.5472 53.8317 59.2975 53.9812 59.1415Z" fill="#6E6E6E"/>
<path d="M39.1328 9.59375C40.1714 11.5765 41.162 13.5826 42.1398 15.5935C43.1235 17.6044 44.0604 19.6351 45.023 21.653C45.9483 23.6885 46.891 25.7158 47.7964 27.7607C48.6995 29.8055 49.5967 31.8598 50.4401 33.9351C49.4016 31.95 48.4156 29.9439 47.4319 27.9354C46.4494 25.9245 45.5114 23.8937 44.5499 21.8758C43.6282 19.8356 42.6819 17.8107 41.7812 15.7635C40.8735 13.7163 39.9786 11.6668 39.1328 9.59375Z" fill="white"/>
<path d="M54.3212 57.1327C61.2932 51.7051 84.3997 15.376 76.7828 10.3589C70.4498 6.18588 68.7699 16.7889 67.2477 21.5821C65.5444 26.9229 62.2979 35.8973 58.4778 44.8213C57.3353 47.4935 55.2196 52.1683 53.1063 54.7736C50.6518 57.7987 52.556 58.5069 54.3212 57.1327Z" fill="#6E6E6E"/>
<path d="M54.1045 55.6008C55.7411 53.5853 57.6126 50.1322 59.6629 45.3414C63.6244 36.0914 66.8837 26.9775 68.4749 21.9826C68.6992 21.2767 68.9211 20.4618 69.1594 19.5988C70.1922 15.848 71.7506 10.1847 74.5496 10.7593C75.0076 10.8554 75.524 11.0888 76.0742 11.4511C76.649 11.8286 76.9656 12.6142 77.0065 13.7867C77.392 23.5971 60.0449 50.2718 54.0273 55.6993C54.0507 55.6665 54.0788 55.6372 54.1045 55.6008Z" fill="#6E6E6E"/>
<path d="M75.4138 13.8343C75.1486 14.3702 74.5037 14.5859 73.9745 14.3174C73.4418 14.0489 73.2268 13.404 73.4932 12.8682C73.7584 12.337 74.4033 12.1213 74.9371 12.3875C75.4652 12.6548 75.6813 13.3032 75.4138 13.8343Z" fill="white"/>
<path d="M55.201 54.3973C55.1741 54.7409 54.868 54.9953 54.5269 54.9648C54.1834 54.9379 53.9311 54.6307 53.9638 54.2871C53.9895 53.9436 54.2932 53.6868 54.6355 53.722C54.979 53.7489 55.2313 54.0514 55.201 54.3973Z" fill="#F9F3F0"/>
<path d="M77.2726 100H33.7256C29.8062 100 25.2022 97.3325 23.2431 93.9264L1.46847 56.0742C-0.489489 52.6692 -0.489489 47.3331 1.46847 43.9258L23.2431 6.07596C25.2022 2.67099 29.8062 0 33.7256 0H77.2726C81.1908 0 85.796 2.66982 87.7563 6.07596L109.53 43.9258C111.49 47.3331 111.49 52.6692 109.53 56.0742L87.7563 93.9264C85.7937 97.3314 81.1908 100 77.2726 100ZM33.7256 2.20665C30.624 2.20665 26.6964 4.48251 25.1462 7.17577L3.37269 45.028C1.82245 47.7236 1.82245 52.2764 3.37269 54.9709L25.1462 92.8207C26.6964 95.5163 30.6228 97.7922 33.7256 97.7922H77.2726C80.3719 97.7922 84.303 95.5152 85.8533 92.8207L107.627 54.9709C109.177 52.2753 109.177 47.7224 107.627 45.028L85.8533 7.17577C84.303 4.48251 80.3731 2.20665 77.2726 2.20665H33.7256Z" fill="#6E6E6E"/>
<path d="M4.92578 50C4.92578 51.3402 5.19213 52.6815 5.72602 53.609L27.4995 91.4589C28.5661 93.3161 31.5942 95.0679 33.7297 95.0679H77.2766C79.4121 95.0679 82.4379 93.3161 83.5068 91.4589L105.281 53.609C105.812 52.6815 106.082 51.339 106.082 50H4.92578Z" fill="#6E6E6E"/>
<path d="M24.8803 43.5166C23.4293 44.6633 20.9352 45.4453 18.5158 45.4453C12.6033 45.4453 12.8802 40.1456 17.6805 38.7011C18.1758 38.5568 18.6898 38.4654 19.1594 38.4537C18.337 38.1558 17.3253 37.4781 17.4001 36.6105C17.6221 34.0778 21.9211 32.5618 24.2518 32.8268C27.67 33.2254 26.9025 35.8319 23.9422 36.4956C23.1081 36.6832 23.2377 36.3033 23.9001 36.227C25.2494 36.0781 26.8791 33.4588 24.1945 33.1809C21.9048 32.9581 18.8557 34.3604 18.5181 36.2423C18.1209 38.5557 21.8172 37.8181 21.5964 38.8593C21.4211 39.4479 19.6034 38.7902 17.7401 39.3154C14.6734 40.169 13.5297 45.1182 18.5742 45.1182C20.8359 45.1182 23.0228 44.1063 24.2845 43.1167C25.3686 42.2608 25.8966 41.2349 25.0894 41.0402C24.4142 40.8819 24.9153 40.6146 25.399 40.8526C26.4656 41.3955 26.1735 42.5 24.8803 43.5166Z" fill="#6E6E6E"/>
<path d="M27.48 44.5486C27.2651 44.6354 27.0642 44.6952 26.8749 44.6952C25.0957 44.6952 25.4356 42.648 26.1413 42.6198C26.535 41.8659 27.0163 40.9115 27.4006 40.0732C27.6658 39.501 28.1039 38.8772 28.6191 38.8092C28.8387 38.7775 29.0163 38.8092 29.1635 38.8784C29.4263 39.0132 29.3679 39.2653 29.1027 39.1304C28.9567 39.066 28.7838 39.0437 28.6343 39.114C27.9614 39.4341 28.105 40.4542 28.3282 40.9854C28.5618 41.5458 28.8819 42.0758 28.8551 42.7254C28.8282 43.2929 28.3866 43.9729 27.8177 44.3575L27.917 44.3716C28.417 44.4431 28.8679 44.1359 29.2359 43.6915C29.5747 43.2811 30.0268 42.3678 30.3352 41.7651C30.4088 41.6185 30.6284 41.7053 30.5525 41.8519C30.0128 43.076 29.1343 45.0481 27.48 44.5486ZM26.4754 43.2823C26.0069 43.7537 26.1962 44.4431 26.7698 44.4431C26.8737 44.4431 26.9765 44.429 27.063 44.3856C26.7569 44.1957 26.5104 43.8428 26.4754 43.2823ZM27.7674 39.9231C27.3667 40.7227 26.7441 42.0019 26.3901 42.648C26.3901 42.648 26.7125 42.6339 26.695 43.1193C26.6705 43.681 26.9777 44.0902 27.3142 44.2508C27.6343 44.0034 27.917 43.5016 27.9602 42.7254C28.0022 41.7932 27.6494 40.5867 27.7674 39.9231Z" fill="#6E6E6E"/>
<path d="M33.8983 39.3653H33.049C32.5501 40.2177 31.9602 40.9962 31.098 41.79C30.966 42.1746 30.7604 43.2897 30.7604 43.2897C30.5373 44.284 31.216 44.4118 31.6997 44.0588C32.3714 43.557 32.8562 42.6295 33.2569 41.8346C33.3714 41.5684 33.591 41.6259 33.445 41.9213C32.799 43.2768 32.5501 43.6754 32.0069 44.2206C31.2148 44.9816 29.7627 44.7342 29.9835 43.115C30.1132 42.1148 30.6576 40.5108 31.1272 39.3641H30.362C30.2008 39.3641 30.2312 39.0393 30.3936 39.0393H31.2732C31.6109 38.3042 31.9777 37.5807 32.3433 36.9464C33.3562 35.1665 34.9427 35.4139 33.855 37.7707C33.6518 38.2151 33.445 38.6254 33.2219 39.0393H33.9263C34.0747 39.0405 34.0466 39.3653 33.8983 39.3653ZM32.0186 39.3653C31.7102 40.0864 31.4356 40.8063 31.2265 41.321C31.7861 40.7465 32.2826 40.0711 32.709 39.3653H32.0186ZM33.2043 36.8877C32.8562 37.3919 32.5349 38.2021 32.1658 39.0405H32.9018C33.1798 38.541 33.4275 38.0239 33.6319 37.5362C33.9123 36.9171 34.1202 35.6097 33.2043 36.8877Z" fill="#6E6E6E"/>
<path d="M36.648 42.6714C36.5009 43.0102 36.0476 44.2449 36.7357 44.2449C37.4681 44.2449 38.3233 42.4216 38.6294 41.8037C38.7474 41.5399 38.9833 41.5973 38.8466 41.8928C38.4997 42.7194 37.6469 44.6295 36.4728 44.6295C36.238 44.6295 36.0055 44.5122 35.8151 44.2332C35.6504 43.9834 35.5359 43.5391 35.6784 42.9376C35.2415 43.6563 34.5499 44.8358 33.5394 44.5732C32.1609 44.191 32.9658 41.8178 34.0382 40.5245C34.8571 39.5654 36.1364 39.0565 37.1924 39.6662C37.8945 38.3307 38.5453 36.9777 38.8957 36.178C39.1691 35.5179 39.4156 35.369 39.8911 35.4135C40.0815 35.4299 40.3034 35.505 40.5219 35.4757C40.0815 35.8861 37.4997 40.6429 36.648 42.6714ZM33.9494 42.2575C32.9786 44.0854 33.8607 44.9988 35.1095 43.233C35.6504 42.4662 36.3875 41.1999 37.0768 39.9054C36.3408 39.1797 34.7275 40.8188 33.9494 42.2575Z" fill="#6E6E6E"/>
<path d="M39.8209 44.8405C39.4845 44.8405 39.266 44.5767 39.3209 44.2378C39.3677 43.899 39.6866 43.6328 40.0242 43.6328C40.3502 43.6328 40.5815 43.899 40.5242 44.2378C40.467 44.5767 40.155 44.8405 39.8209 44.8405Z" fill="#6E6E6E"/>
<path d="M76.9315 37.4446L72.5437 45.508C72.3965 45.6018 71.9607 45.6018 71.7808 45.6135C71.7574 45.6135 71.6839 45.5865 71.6535 45.5865L71.6406 45.4998C72.9701 43.1278 74.2785 40.757 75.6009 38.4026C74.8509 39.0779 74.0729 39.6806 73.206 40.2141H73.1488L73.0881 40.0921L73.1161 40.0077C74.0998 39.2538 74.9666 38.6218 75.8042 37.7377C75.9642 37.5642 76.2154 37.2817 76.4642 37.25L76.9163 37.209C76.9432 37.1949 76.9794 37.2089 77.0063 37.223V37.2969L76.9315 37.4446Z" fill="#6E6E6E"/>
<path d="M77.3147 45.9111H77.2259L77.1523 45.7809L77.2131 45.6918C79.3977 44.1464 81.0285 42.1309 81.7026 39.481C81.789 39.1398 81.8475 38.7728 81.8475 38.4163C81.8475 37.8735 81.657 37.4021 81.039 37.4021C79.6477 37.4021 78.2236 39.5525 78.2236 40.8481C78.2236 41.3171 78.4456 41.6724 78.9584 41.6724C79.9865 41.6724 80.6325 40.4354 80.969 39.6229L81.0297 39.5842L81.1897 39.5983L81.2061 39.6697C80.7925 40.7297 79.7213 42.5284 78.4315 42.5284C77.7575 42.5284 77.393 42.0289 77.393 41.3805C77.393 39.7155 79.608 37.0938 81.2925 37.0938C82.3042 37.0938 82.7283 37.9778 82.7283 38.8724C82.7271 41.6126 79.4129 44.5275 77.3147 45.9111Z" fill="#6E6E6E"/>
<path d="M91.1487 37.4099C90.2363 38.4593 89.2386 39.4571 88.2725 40.4736C87.1124 41.6919 86.0248 42.9899 84.9874 44.316C84.8788 44.4332 84.0867 45.4791 84.0015 45.5049C83.7515 45.628 83.2386 45.628 82.9466 45.6562L82.8578 45.6104L82.8438 45.553C82.9874 44.9808 89.2994 38.9717 90.0155 38.2951C89.2386 38.2787 88.4629 38.233 87.6849 38.233C86.394 38.233 86.38 39.266 85.9384 39.2929L85.8952 39.266V39.1769C86.6861 37.6174 86.9933 37.2645 88.741 37.2645C89.4291 37.2645 90.1347 37.2785 90.8263 37.3653C90.8835 37.3219 91.0436 37.2188 91.1148 37.2188L91.1779 37.3079L91.1487 37.4099Z" fill="#6E6E6E"/>
<path d="M93.6575 38.2823L92.0407 41.0928C92.5851 40.7258 93.3456 40.4327 94.0068 40.4327C94.8129 40.4327 95.4729 40.829 95.4729 41.7131C95.4729 43.7462 92.5851 45.7781 90.7252 45.7781C90.4437 45.7781 89.9145 45.7617 89.6797 45.6023V45.4991L89.7661 45.3912L89.8222 45.3642C90.1014 45.4651 90.4425 45.4991 90.7323 45.4991C92.3771 45.4991 94.4893 43.4062 94.4893 41.7611C94.4893 41.1538 94.1376 40.8149 93.536 40.8149C92.8187 40.8149 92.2183 41.3261 91.6003 41.6415L91.5138 41.6099V41.5231C91.6412 41.1221 93.6692 37.5928 93.8643 37.4287C94.7533 37.0605 96.3526 37.7511 97.2346 37.0781L97.2965 37.1074C96.7662 38.532 94.8865 38.355 93.6575 38.2823Z" fill="#6E6E6E"/>
<path d="M60.9571 73.7176C60.9571 76.9737 58.3298 79.6095 55.0879 79.6095C51.8473 79.6095 49.2188 76.9737 49.2188 73.7176C49.2188 70.4639 51.8473 67.8281 55.0879 67.8281C58.3286 67.827 60.9571 70.4627 60.9571 73.7176Z" fill="white"/>
<path d="M27.2441 54.8125V56.9652H26.2383V59.4228H29.3224V56.9652H28.3645V54.8125H33.639V56.9652H32.6974V64.0507H33.639V66.1988H28.3645V64.0507H29.3224V61.5908H26.2383V64.0507H27.2441V66.1988H21.9883V64.0507H22.8796V56.9652H21.9883V54.8125H27.2441Z" fill="white"/>
<path d="M34.638 58.742C35.2864 58.3504 36.6812 57.5859 38.1754 57.5859C40.1228 57.5859 42.5738 58.3188 42.5738 60.9428V64.1168H43.5493V66.2004H40.0738L39.6859 65.4676C39.0831 66.2989 38.0773 66.5123 37.4955 66.5123C35.9511 66.5123 34.2969 65.681 34.2969 63.792C34.2969 61.9512 35.8389 60.7939 37.6731 60.7939C38.631 60.7939 39.1988 61.2653 39.2817 61.3638V60.7939C39.2817 60.0611 38.6147 59.8829 37.7408 59.8829C36.7805 59.8829 35.9394 60.2909 35.3203 60.6345L34.638 58.742ZM39.2817 63.2375C39.2326 63.1577 39.0049 62.7661 38.3238 62.7661C37.6731 62.7661 37.381 63.1237 37.381 63.6291C37.381 64.0828 37.756 64.3935 38.2432 64.3935C38.7291 64.3935 39.1345 64.1004 39.2817 63.8554V63.2375Z" fill="white"/>
<path d="M44.1914 66.1992V64.0652H44.8748V60.1748H44.1914V58.0561H47.9566V64.0652H48.737V66.1992H44.1914ZM46.397 54.0156C47.5209 54.0156 48.1832 54.929 48.1832 55.6759C48.1832 56.5741 47.5512 57.3244 46.397 57.3244C45.376 57.3244 44.647 56.4615 44.647 55.6759C44.6482 54.929 45.2638 54.0156 46.397 54.0156Z" fill="white"/>
<path d="M49.5586 66.1984V64.0644H50.2712V60.174H49.5738V58.0553H52.6264L53.1147 59.0977C53.5353 58.3168 53.9582 57.6484 55.6299 57.6484V60.5821C54.1708 60.5821 53.3425 60.9549 53.3425 62.3889V64.0656H54.1544V66.1996H49.5586V66.1984Z" fill="white"/>
<path d="M61.7178 61.7357C61.6851 60.9524 61.4386 60.0273 60.6944 60.0273C59.7364 60.0273 59.2657 61.0486 59.2657 62.1085C59.2657 63.1661 59.8988 64.0139 60.9374 64.0326C61.7972 64.049 62.3638 63.6891 62.9012 63.1052L64.3299 64.7631C63.5682 65.5991 62.1068 66.4257 60.3556 66.4257C57.9666 66.4257 55.8906 64.9765 55.8906 62.0769C55.8906 59.196 57.8065 57.9062 59.8836 57.9062C60.9888 57.9062 61.6372 58.5089 61.9117 58.8361L62.1862 58.0528H64.1033V61.7357H61.7178Z" fill="white"/>
<path d="M68.6725 58.0547V61.9826C68.6725 63.3814 68.884 64.0345 69.5464 64.0345C70.1165 64.0345 70.5697 63.5303 70.5697 62.7928V60.2051H69.4985V58.0547H73.7017V64.0345H74.5008V66.1989H71.4307L70.9926 65.173C70.6351 65.581 70.0674 66.4276 68.6889 66.4276C66.2368 66.4276 65.426 65.1589 65.426 62.4516V60.2051H64.7461V58.0547H68.6725Z" fill="white"/>
<path d="M75.8594 58.0525V56.5552L78.8477 55.5938V58.0537H80.3886V60.1724H78.8477V63.0744C78.8477 63.6266 78.7344 64.3747 79.3676 64.3747C79.5779 64.3747 80.0802 64.2282 80.3886 64.098V66.1815C79.9003 66.3809 78.7975 66.4934 78.4236 66.4934C75.9891 66.4934 75.9096 65.1579 75.8594 63.0744V60.1724H74.9844V58.0537H75.8594V58.0525Z" fill="white"/>
<path d="M80.8812 63.267H83.0577C83.0577 64.13 84.2913 64.3575 84.7785 64.3575C85.0997 64.3575 85.4911 64.2613 85.4911 63.8075C85.4911 63.3174 84.2726 63.2354 83.1067 62.8297C82.0039 62.438 80.9455 61.7533 80.9455 60.2232C80.9455 58.5606 82.6511 57.8594 83.8018 57.8594C84.9046 57.8594 85.8778 58.4292 86.2189 59.1304L86.3486 58.054H88.3462V60.9876H86.2353C86.2353 60.3029 85.3918 59.7483 84.581 59.7483C84.2387 59.7483 83.9478 59.9289 83.9478 60.3369C83.9478 60.7907 84.9035 60.9877 85.9444 61.3441C87.1757 61.7697 88.5565 62.2399 88.5565 63.9506C88.5565 65.4831 87.1102 66.3941 85.539 66.3941C84.3684 66.3941 83.4432 65.8243 83.0553 65.2052L82.9093 66.1971H80.8789V63.267H80.8812Z" fill="white"/>
<path d="M59.2359 72.8349L59.1273 74.6921C58.8329 74.6921 58.5268 74.7285 58.1588 74.7062C58.0852 75.0357 57.966 75.3288 57.7581 75.6149C58.1004 76.0687 58.5011 76.3641 58.9917 76.0792C58.9917 76.642 58.0244 77.9482 56.6413 76.9035C55.4415 77.7993 51.9648 77.9107 51.9648 75.1447C51.9648 73.4622 53.1529 72.788 53.6903 72.4315C52.4824 70.5649 53.8398 69.0312 55.2814 69.0312C57.6938 69.0312 58.292 71.585 55.8445 73.0705C56.3317 73.9183 56.688 74.3849 56.9135 74.6159C57.2382 74.0777 57.2172 73.7822 57.2172 72.8337H59.2359V72.8349ZM54.4146 73.8198C52.3223 75.6219 54.5606 76.8308 55.737 75.8576C55.1985 75.2467 54.7102 74.3849 54.4146 73.8198ZM55.1121 71.6694C56.202 71.0691 56.2733 70.0595 55.4415 70.0595C54.5385 70.0595 54.7207 71.252 55.1121 71.6694Z" fill="#6E6E6E"/>
<path d="M31.6144 87.1776H32.4626V80.7217H31.6144V78.8281H37.0677C39.4953 78.8281 40.6484 79.7368 40.6484 81.3385C40.6484 82.5708 40.3119 83.1723 39.2161 83.612C40.2687 83.9051 41.146 84.6836 41.146 86.1035C41.146 88.1765 39.9907 89.0852 37.1706 89.0852H31.6133L31.6144 87.1776ZM35.4895 82.9683H36.3797C37.1542 82.9683 37.375 82.5403 37.375 81.8368C37.375 81.1614 36.9638 80.7651 36.4077 80.7651H35.4883L35.4895 82.9683ZM36.6577 87.1776C37.2733 87.1776 37.8446 86.7109 37.8446 85.9136C37.8446 85.1667 37.4194 84.6238 36.6156 84.6238H35.4906V87.1776H36.6577Z" fill="white"/>
<path d="M49.0082 88.0688C47.9253 89.0103 46.7559 89.3468 45.236 89.3468C43.4229 89.3468 41.375 88.186 41.375 85.3685C41.375 82.9637 43.1005 81.5391 45.3084 81.5391C47.0479 81.5391 48.3785 82.4348 48.8014 83.6648C48.9767 84.1807 49.1391 85.3134 48.833 86.147H44.2255C44.3143 86.5433 44.5059 87.3488 45.7325 87.3488C46.2313 87.3488 46.9883 87.3055 47.7792 86.6453L49.0082 88.0688ZM46.479 84.6954C46.4638 84.1362 46.3318 83.5206 45.3972 83.5206C44.507 83.5206 44.3014 84.3273 44.2722 84.6954H46.479Z" fill="white"/>
<path d="M49.7487 82.3549C50.3351 82.0019 51.591 81.3125 52.9368 81.3125C54.6926 81.3125 56.9017 81.9738 56.9017 84.3352V87.1974H57.7802V89.0757H54.647L54.2977 88.4156C53.7557 89.1625 52.8503 89.3548 52.3246 89.3548C50.9344 89.3548 49.4414 88.6079 49.4414 86.9042C49.4414 85.2439 50.8316 84.2039 52.4858 84.2039C53.3456 84.2039 53.8573 84.6296 53.9309 84.7175V84.2039C53.9309 83.5414 53.3304 83.382 52.5419 83.382C51.6809 83.382 50.9204 83.749 50.3631 84.0574L49.7487 82.3549ZM53.9309 86.4059C53.8877 86.3321 53.6844 85.9803 53.0688 85.9803C52.4858 85.9803 52.2206 86.3051 52.2206 86.7612C52.2206 87.1692 52.5571 87.4459 52.9963 87.4459C53.4344 87.4459 53.7989 87.1821 53.9309 86.9628V86.4059Z" fill="white"/>
<path d="M58.3711 89.0784V87.1567H59.016V83.6485H58.3851V81.7408H61.1351L61.5755 82.68C61.9517 81.9765 62.3337 81.375 63.8396 81.375V84.0155C62.5242 84.0155 61.7777 84.3543 61.7777 85.6488V87.1578H62.509V89.0796H58.3711V89.0784Z" fill="white"/>
<path d="M68.7678 79.9835V78.0781H72.4092V87.1745H73.109V89.0821H69.6907L69.4442 88.5416C69.2503 88.7151 68.6043 89.2146 67.5996 89.2146C65.5377 89.2146 64.207 87.3797 64.207 85.3395C64.207 83.0519 65.8005 81.598 67.5996 81.598C68.6358 81.598 69.1627 81.9802 69.4442 82.1573V79.9846L68.7678 79.9835ZM68.4033 87.1452C68.9723 87.1452 69.4979 86.4264 69.4442 85.2668C69.4442 84.2701 68.9431 83.5057 68.3858 83.5057C67.7737 83.5057 67.3472 84.2268 67.3472 85.3395C67.3472 86.22 67.7596 87.1452 68.4033 87.1452Z" fill="white"/>
<path d="M73.5508 86.4355H75.5111C75.5111 87.214 76.6221 87.418 77.0601 87.418C77.3534 87.418 77.7038 87.3313 77.7038 86.9185C77.7038 86.4788 76.6069 86.405 75.5543 86.0415C74.5601 85.6862 73.6092 85.0683 73.6092 83.6918C73.6092 82.1945 75.1431 81.5625 76.1828 81.5625C77.1781 81.5625 78.0555 82.0796 78.3581 82.708L78.4772 81.7396H80.2763V84.3824H78.3744C78.3744 83.7668 77.6139 83.2673 76.8837 83.2673C76.5777 83.2673 76.3125 83.4303 76.3125 83.7961C76.3125 84.2065 77.177 84.3824 78.1115 84.7025C79.2225 85.0871 80.4679 85.5104 80.4679 87.0522C80.4679 88.4311 79.1653 89.253 77.7471 89.253C76.6945 89.253 75.8615 88.7394 75.5111 88.1813L75.3814 89.0771H73.5519L73.5508 86.4355Z" fill="white"/>
<path d="M62.6535 72.4012C62.6535 72.4012 63.3147 70.7456 66.0226 71.6016C68.7318 72.454 73.5741 71.4937 74.5893 68.7734C74.5893 68.7734 74.8533 74.5785 67.8439 75.3899C61.2037 76.1544 62.6535 72.4012 62.6535 72.4012Z" fill="white"/>
<path d="M47.6648 72.4012C47.6648 72.4012 47.0001 70.7456 44.2945 71.6016C41.5877 72.454 36.7442 71.4937 35.7278 68.7734C35.7278 68.7734 35.465 74.5785 42.4755 75.3899C49.1123 76.1544 47.6648 72.4012 47.6648 72.4012Z" fill="white"/>
</svg>
