<svg width="60" height="60" viewBox="0 0 60 60" fill="none" xmlns="http://www.w3.org/2000/svg">
<path d="M31.4192 17.7008H28.7995C28.6591 17.7008 28.5331 17.6154 28.4781 17.4866C28.4246 17.3563 28.4535 17.2072 28.5534 17.1088L30.406 15.2562C32.6031 13.0591 33.5324 9.92841 32.8941 6.8846C32.8724 6.78328 32.8984 6.67617 32.9635 6.59512C33.0301 6.51407 33.1285 6.46631 33.2327 6.46631H39.3392C39.5303 6.46631 39.6866 6.62117 39.6866 6.81367V13.1155C39.6866 13.1835 39.6663 13.2516 39.6287 13.308C37.792 16.058 34.7221 17.7008 31.4192 17.7008ZM29.6375 17.0075H31.4192C34.4558 17.0075 37.2796 15.5138 38.9947 13.0084V7.16105H33.6525C34.1735 10.3018 33.1604 13.4846 30.8981 15.7483L29.6375 17.0075Z" fill="black"/>
<path d="M39.3427 28.2418H33.0408C32.9728 28.2418 32.9048 28.2215 32.8483 28.1839C30.0969 26.3471 28.4541 23.2773 28.4541 19.9729V17.3532C28.4541 17.2128 28.538 17.0854 28.6683 17.0333C28.7971 16.9798 28.9476 17.0087 29.0461 17.1086L30.8987 18.9612C32.6298 20.6923 34.9311 21.6446 37.3771 21.6446C38.0125 21.6446 38.6494 21.5781 39.2703 21.4478C39.373 21.4261 39.4787 21.4521 39.5612 21.5173C39.6423 21.5838 39.69 21.6823 39.69 21.7865V27.8929C39.69 28.0869 39.5337 28.2418 39.3427 28.2418ZM33.1479 27.5485H38.9967V22.2062C38.4627 22.2945 37.9199 22.3394 37.38 22.3394C34.7473 22.3394 32.2723 21.3146 30.411 19.4519L29.1503 18.1912V19.9729C29.1474 23.011 30.6411 25.8348 33.1479 27.5485Z" fill="black"/>
<path d="M24.3654 28.2418H18.259C18.0679 28.2418 17.9116 28.0869 17.9116 27.8944V21.5926C17.9116 21.5245 17.9319 21.4565 17.9695 21.4001C19.8062 18.6486 22.8761 17.0059 26.1804 17.0059H28.8002C28.9406 17.0059 29.0665 17.0898 29.1201 17.2201C29.1736 17.3503 29.1447 17.4994 29.0448 17.5978L27.1922 19.4505C24.9951 21.6476 24.0659 24.7768 24.7041 27.8221C24.7259 27.9248 24.6998 28.0305 24.6347 28.1115C24.5681 28.1955 24.4697 28.2418 24.3654 28.2418ZM18.6049 27.5485H23.9472C23.4247 24.4063 24.4393 21.2249 26.7015 18.9613L27.9622 17.7006H26.1804C23.1439 17.7006 20.32 19.1943 18.6064 21.6997L18.6049 27.5485Z" fill="black"/>
<path d="M28.8002 17.7008C28.7105 17.7008 28.6207 17.6661 28.5541 17.5995L26.7015 15.7468C24.9704 14.0158 22.6706 13.0634 20.2231 13.0634C19.5877 13.0634 18.9508 13.13 18.3299 13.2603C18.2271 13.2834 18.1215 13.2559 18.0404 13.1893C17.9594 13.1242 17.9116 13.0243 17.9116 12.9201V6.81367C17.9116 6.62262 18.0665 6.46631 18.259 6.46631H24.5609C24.6289 6.46631 24.6969 6.48657 24.7533 6.5242C27.5048 8.36091 29.1476 11.4308 29.1476 14.7351V17.3549C29.1476 17.4953 29.0636 17.6226 28.9334 17.6762C28.8899 17.6921 28.8451 17.7008 28.8002 17.7008ZM20.2231 12.3687C22.8558 12.3687 25.3308 13.3934 27.1922 15.2562L28.4528 16.5168V14.7351C28.4528 11.6985 26.9591 8.87473 24.4537 7.1596H18.6049V12.5018C19.139 12.4135 19.6818 12.3687 20.2231 12.3687Z" fill="black"/>
<path d="M28.801 17.7006C28.7561 17.7006 28.7113 17.6919 28.6678 17.6746C28.5376 17.621 28.4536 17.4936 28.4536 17.3532V14.7335C28.4536 11.6622 26.9267 8.80797 24.3677 7.10008C24.2476 7.02047 24.1897 6.87573 24.2215 6.73534C24.6311 4.92178 25.5444 3.26889 26.8615 1.95468L28.7141 0.10204C28.8502 -0.0340132 29.0688 -0.0340132 29.2048 0.10204L30.8982 1.79547C32.2617 3.15599 33.1865 4.86678 33.5744 6.74113C34.2619 10.0151 33.2618 13.3817 30.8982 15.7452L29.0456 17.5979C28.979 17.6659 28.8907 17.7006 28.801 17.7006ZM24.9539 6.66008C27.5852 8.50982 29.1484 11.5102 29.1484 14.7335V16.5152L30.409 15.2546C32.6061 13.0574 33.5353 9.92679 32.897 6.88297C32.5366 5.13889 31.6769 3.55113 30.4105 2.28612L28.9617 0.837308L27.3536 2.44534C26.1827 3.61192 25.3577 5.06507 24.9539 6.66008Z" fill="black"/>
<path d="M18.2579 21.9416C18.2318 21.9416 18.2072 21.9387 18.1811 21.9329C16.3676 21.5233 14.7147 20.61 13.4005 19.2929L11.5478 17.4402C11.4118 17.3042 11.4118 17.0856 11.5478 16.9496L13.2413 15.2562C14.6018 13.8927 16.3126 12.9664 18.1884 12.58C18.8542 12.4396 19.5402 12.3687 20.2234 12.3687C22.8561 12.3687 25.3312 13.3934 27.1925 15.2562L29.0451 17.1088C29.145 17.2087 29.1739 17.3577 29.1204 17.4865C29.0668 17.6168 28.9409 17.7008 28.8005 17.7008H26.1808C23.1094 17.7008 20.2552 19.2277 18.5473 21.7867C18.4822 21.8851 18.3722 21.9416 18.2579 21.9416ZM12.2846 17.1942L13.8926 18.8022C15.0592 19.9717 16.5123 20.7981 18.1073 21.2019C19.9571 18.5706 22.9575 17.0075 26.1808 17.0075H27.9625L26.7018 15.7468C24.9708 14.0158 22.6709 13.0634 20.2234 13.0634C19.588 13.0634 18.9511 13.13 18.3302 13.2602C16.5876 13.6206 14.9984 14.4804 13.7334 15.7468L12.2846 17.1942Z" fill="black"/>
<path d="M28.6406 34.7072C28.5523 34.7072 28.4625 34.6739 28.3945 34.6059L26.7011 32.9124C25.3377 31.5519 24.4128 29.8411 24.0249 27.9668C23.3374 24.6928 24.3375 21.3262 26.7011 18.9627L28.5537 17.11C28.6536 17.0102 28.8027 16.9812 28.9315 17.0348C29.0617 17.0883 29.1457 17.2157 29.1457 17.3547V19.9744C29.1457 23.0457 30.6727 25.8999 33.2316 27.6078C33.3518 27.6874 33.4096 27.8336 33.3778 27.9726C32.9682 29.7861 32.0549 31.439 30.7378 32.7532L28.8852 34.6059C28.8171 34.6724 28.7289 34.7072 28.6406 34.7072ZM28.4524 18.1912L27.1917 19.4519C24.9946 21.649 24.0654 24.7782 24.7037 27.8235C25.0641 29.5676 25.9238 31.1553 27.1903 32.4203L28.6391 33.8691L30.2471 32.2611C31.4166 31.0945 32.2431 29.6414 32.6469 28.0464C30.0156 26.1952 28.4524 23.1962 28.4524 19.9729V18.1912Z" fill="black"/>
<path d="M37.3776 22.3393C34.7448 22.3393 32.2698 21.3146 30.4085 19.4518L28.5558 17.5992C28.456 17.4993 28.427 17.3503 28.4806 17.2214C28.5341 17.0912 28.6615 17.0072 28.8019 17.0072H31.4216C34.493 17.0072 37.3472 15.4803 39.0551 12.9213C39.1347 12.8026 39.2809 12.7433 39.4198 12.7751C41.2334 13.1847 42.8863 14.098 44.2005 15.4151L46.0531 17.2678C46.1182 17.3329 46.1544 17.4212 46.1544 17.5124C46.1544 17.605 46.1182 17.6933 46.0531 17.7584L44.3597 19.4518C42.9992 20.8153 41.2884 21.7416 39.414 22.128C38.7453 22.2684 38.0607 22.3393 37.3776 22.3393ZM29.6385 17.7005L30.8991 18.9612C32.6302 20.6922 34.9315 21.6446 37.3776 21.6446C38.013 21.6446 38.6498 21.578 39.2707 21.4478C41.0148 21.0874 42.6026 20.2276 43.8676 18.9612L45.3164 17.5124L43.7084 15.9043C42.5418 14.7349 41.0886 13.9084 39.4936 13.5046C37.6424 16.1359 34.6435 17.6991 31.4202 17.6991L29.6385 17.7005Z" fill="black"/>
<path d="M10.9016 40.6529L10.5267 42.3883H7.10368L5.20473 51.2028H1.83236L5.20473 35.5422C4.7821 35.5582 4.38407 35.6436 4.0092 35.7999C3.63433 35.9562 3.31012 36.2095 3.03657 36.5612C2.76302 36.9129 2.54736 37.3818 2.39104 37.968C2.23473 38.5542 2.15657 39.2938 2.15657 40.184C2.15657 40.4966 2.16815 40.7557 2.19131 40.9583C2.21591 41.1624 2.24198 41.3303 2.27382 41.462C2.30421 41.5951 2.33895 41.7008 2.37947 41.779C2.41855 41.8571 2.45329 41.928 2.48513 41.9903C1.6471 41.9903 1.02472 41.818 0.615115 41.475C0.204061 41.132 0 40.514 0 39.6224C0 38.8712 0.150521 38.1374 0.451574 37.4195C0.754075 36.7001 1.21869 36.0604 1.84685 35.4959C2.475 34.9329 3.27105 34.4799 4.2321 34.1368C5.19316 33.7938 6.33078 33.6216 7.64355 33.6216C8.05026 33.6216 8.42079 33.6375 8.75803 33.6694C9.09527 33.7012 9.42672 33.7316 9.75382 33.762C10.0824 33.7938 10.4138 33.8242 10.7496 33.8561C11.0854 33.8879 11.4487 33.9038 11.8409 33.9038C12.2317 33.9038 12.6022 33.8836 12.954 33.8459C13.3057 33.8068 13.6458 33.7316 13.9744 33.623C13.834 34.2483 13.6689 34.7447 13.4822 35.1124C13.2941 35.48 13.0915 35.7608 12.8729 35.9562C12.6544 36.1516 12.4155 36.2804 12.1579 36.3441C11.9003 36.4063 11.6383 36.4367 11.372 36.4367C10.9349 36.4367 10.4703 36.3947 9.97671 36.3079C9.4846 36.2225 8.97947 36.1241 8.46421 36.0141L7.47855 40.6558H10.9016V40.6529Z" fill="black"/>
<path d="M18.0032 34.7925L15.3067 47.4526C15.2445 47.7189 15.2127 47.9679 15.2127 48.2038C15.2127 48.5324 15.2908 48.7582 15.4471 48.8841C15.6034 49.0085 15.8452 49.0708 16.1737 49.0708C16.6267 49.0708 17.0494 48.8754 17.4402 48.4846C17.8309 48.0938 18.1117 47.6017 18.284 47.0068H19.2696C18.9411 47.9607 18.5575 48.722 18.1204 49.2922C17.6833 49.864 17.2375 50.3011 16.7845 50.605C16.3315 50.9104 15.89 51.1087 15.4602 51.2028C15.0303 51.2968 14.6583 51.3432 14.3457 51.3432C13.6423 51.3432 13.0488 51.1203 12.564 50.6759C12.0791 50.2301 11.8374 49.5151 11.8374 48.5309C11.8374 48.1083 11.8996 47.6017 12.0255 47.0068L14.5338 35.2614L18.0032 34.7925Z" fill="black"/>
<path d="M24.3815 39.3633C26.3513 39.3633 27.3515 40.5906 27.3833 43.0439C27.4455 43.0599 27.5324 43.0685 27.6409 43.0685C27.9058 43.0685 28.1996 43.0295 28.5209 42.9513C28.8408 42.8731 29.1607 42.7675 29.482 42.6343C29.8019 42.5012 30.1159 42.3492 30.4199 42.177C30.7238 42.0047 31.0017 41.8339 31.2521 41.6617L31.4634 42.2957C31.009 42.7805 30.4199 43.1901 29.6933 43.5259C28.9667 43.8617 28.1823 44.1005 27.337 44.2409C27.2444 45.3351 27.033 46.3208 26.7045 47.195C26.3759 48.0707 25.962 48.8175 25.4612 49.4341C24.9604 50.0521 24.3901 50.5254 23.7504 50.8525C23.1092 51.1811 22.429 51.3446 21.7111 51.3446C21.164 51.3446 20.6588 51.278 20.1986 51.1449C19.7369 51.0117 19.3432 50.7975 19.0146 50.5008C18.6861 50.2041 18.4284 49.8205 18.2403 49.3516C18.0521 48.8826 17.9595 48.3124 17.9595 47.6408C17.9595 47.1878 18.0058 46.6711 18.0999 46.0936C18.1939 45.5161 18.3459 44.9168 18.5573 44.3003C18.7686 43.6837 19.0378 43.0816 19.3663 42.4954C19.6949 41.9092 20.0972 41.3809 20.5734 40.9134C21.0496 40.4445 21.6011 40.0696 22.2263 39.7874C22.8501 39.5037 23.5695 39.3633 24.3815 39.3633ZM22.6475 49.1403C22.9283 49.1403 23.2134 49.0201 23.5029 48.777C23.7924 48.5353 24.0573 48.1995 24.3004 47.7696C24.5421 47.3397 24.7578 46.8288 24.9459 46.2339C25.1327 45.6405 25.2745 44.9993 25.3686 44.3118C25.1182 44.2496 24.9503 44.128 24.8649 43.9485C24.778 43.7691 24.7361 43.5607 24.7361 43.3262C24.7361 42.9991 24.8026 42.7284 24.9358 42.5171C25.069 42.3058 25.2441 42.161 25.4626 42.0829C25.4323 41.5995 25.3498 41.2593 25.2166 41.0625C25.0834 40.8671 24.8692 40.7701 24.5725 40.7701C24.1499 40.7701 23.7519 41.0003 23.377 41.462C23.0021 41.9237 22.6736 42.4867 22.3928 43.151C22.112 43.8154 21.8847 44.5188 21.7125 45.2599C21.5403 46.0024 21.4549 46.6638 21.4549 47.2413C21.4549 47.6321 21.4737 47.9476 21.5128 48.1908C21.5518 48.4325 21.6184 48.625 21.7125 48.7654C21.8051 48.9058 21.9311 49.0042 22.0874 49.0592C22.2408 49.1128 22.4289 49.1403 22.6475 49.1403Z" fill="black"/>
<path d="M33.5484 39.4805L33.2198 40.9583C33.6728 40.5212 34.1461 40.1449 34.6382 39.8337C35.1303 39.5211 35.6109 39.3647 36.0798 39.3647C36.611 39.3647 37.0134 39.5457 37.2869 39.9046C37.5605 40.2636 37.698 40.6703 37.698 41.1233C37.698 41.3274 37.6632 41.53 37.5923 41.7326C37.5214 41.9353 37.4157 42.1191 37.2754 42.2826C37.135 42.4462 36.9584 42.5808 36.7471 42.6807C36.5357 42.782 36.2897 42.8326 36.0089 42.8326C35.6803 42.8326 35.4589 42.7545 35.3417 42.5982C35.2244 42.4419 35.1419 42.274 35.0956 42.0945C35.0479 41.915 35.0044 41.7471 34.9668 41.5908C34.9277 41.4345 34.822 41.3563 34.6498 41.3563C34.3531 41.3563 34.0723 41.4432 33.806 41.614C33.5397 41.7862 33.2517 42.012 32.939 42.2942L31.0632 51.2028H27.6865L30.1717 39.4805H33.5484Z" fill="black"/>
<path d="M42.3644 39.4807L40.6754 47.4514C40.6117 47.7177 40.5813 47.9667 40.5813 48.2026C40.5813 48.5311 40.6595 48.7569 40.8158 48.8828C40.9721 49.0073 41.2138 49.0696 41.5423 49.0696C41.9954 49.0696 42.4166 48.8742 42.8073 48.4834C43.1981 48.0926 43.4789 47.6005 43.6512 47.0056H44.6368C44.3083 47.9594 43.9247 48.7207 43.4876 49.291C43.0505 49.8627 42.6047 50.2998 42.1517 50.6038C41.6972 50.9092 41.2572 51.1075 40.8273 51.2015C40.3975 51.2956 40.0255 51.3419 39.7129 51.3419C39.0094 51.3419 38.416 51.119 37.9312 50.6747C37.4463 50.2289 37.2046 49.5139 37.2046 48.5297C37.2046 48.1071 37.2668 47.6005 37.3927 47.0056L38.9877 39.4793L42.3644 39.4807ZM39.4567 36.3631C39.4567 35.8464 39.6362 35.4049 39.9965 35.0373C40.3569 34.6711 40.7941 34.4873 41.3093 34.4873C41.8246 34.4873 42.266 34.6711 42.6337 35.0373C43.0013 35.4049 43.1851 35.8464 43.1851 36.3631C43.1851 36.8784 43.0013 37.3169 42.6337 37.6759C42.266 38.0363 41.8246 38.2157 41.3093 38.2157C40.7941 38.2157 40.3555 38.0363 39.9965 37.6759C39.6362 37.3169 39.4567 36.8798 39.4567 36.3631Z" fill="black"/>
<path d="M53.5926 47.0068C52.9833 47.7102 52.3696 48.2964 51.753 48.7654C51.135 49.2343 50.5531 49.6251 50.006 49.9377C49.7556 50.2041 49.4821 50.4212 49.1854 50.5934C48.8887 50.7656 48.576 50.9104 48.2475 51.0276C47.9189 51.1448 47.5904 51.2273 47.2633 51.2737C46.9347 51.32 46.6221 51.3431 46.3254 51.3431C45.7305 51.3431 45.2196 51.2534 44.7897 51.0739C44.3598 50.8944 44.0052 50.6629 43.723 50.3821C43.4422 50.1013 43.2352 49.78 43.1021 49.421C42.9689 49.0606 42.9023 48.7017 42.9023 48.3427C42.9023 47.7956 43.0268 47.3339 43.2772 46.9591C43.5276 46.5842 43.8156 46.3193 44.1456 46.163C44.8027 44.9906 45.3571 43.8298 45.8101 42.6806C46.2631 41.5329 46.6698 40.3793 47.0288 39.2229L50.4981 38.7539C50.5604 40.2693 50.6226 41.4967 50.6849 42.4346C50.7485 43.3725 50.8021 44.1338 50.8498 44.72C50.8962 45.3062 50.9352 45.7838 50.9671 46.15C50.9975 46.5176 51.0134 46.8968 51.0134 47.2876C51.0134 47.6321 50.9816 47.9288 50.9193 48.1792C51.5909 47.7884 52.1539 47.3976 52.6084 47.0068H53.5926ZM45.8101 47.0068C45.8101 47.2876 45.7175 47.551 45.5293 47.7927C45.3426 48.0344 45.0922 48.156 44.7796 48.156C44.6537 48.156 44.5335 48.1372 44.4148 48.0967C44.2976 48.0576 44.2079 47.9766 44.1456 47.8506C44.1456 48.3977 44.2542 48.8088 44.4742 49.0823C44.6927 49.3559 45.0604 49.492 45.5756 49.492C45.826 49.492 46.0764 49.4572 46.3268 49.3863C46.5772 49.3154 46.7958 49.1952 46.9839 49.023C47.1706 48.8508 47.3241 48.625 47.4413 48.3427C47.5585 48.0619 47.6179 47.7175 47.6179 47.3108C47.6179 47.0141 47.6063 46.7246 47.5831 46.4438C47.56 46.163 47.5281 45.8258 47.489 45.435C47.45 45.0456 47.4022 44.5608 47.3487 43.9818C47.2937 43.4043 47.2343 42.6618 47.1721 41.7543C46.9376 42.52 46.6597 43.2625 46.3398 43.9818C46.0185 44.7012 45.6639 45.435 45.2731 46.1862C45.4295 46.2643 45.5583 46.37 45.661 46.5031C45.758 46.6363 45.8101 46.8042 45.8101 47.0068Z" fill="black"/>
<path d="M55.9844 47.4528C55.9062 47.7655 55.8672 48.039 55.8672 48.2735C55.8672 48.5239 55.925 48.7265 56.0437 48.8828C56.161 49.0391 56.3752 49.1173 56.6893 49.1173C56.7674 49.1173 56.8644 49.113 56.9816 49.1057C57.0989 49.0985 57.2045 49.0782 57.2986 49.0478C57.1264 49.5486 56.9382 49.9495 56.7356 50.2549C56.5315 50.5603 56.3216 50.7948 56.1016 50.9584C55.8831 51.1219 55.6645 51.2276 55.4445 51.2753C55.226 51.3216 55.0146 51.3448 54.812 51.3448C53.9827 51.3448 53.3849 51.0915 53.0187 50.5835C52.6511 50.0755 52.4673 49.4459 52.4673 48.6961C52.4673 48.2909 52.515 47.8755 52.6077 47.4543L54.1086 40.4215H53.3357L53.5224 39.4836H54.2967L55.0002 36.2487L58.4695 35.7798C58.3914 36.0924 58.3132 36.4456 58.2351 36.8349C58.1569 37.1635 58.0715 37.5543 57.9774 38.0073C57.8833 38.4603 57.782 38.9524 57.6735 39.4851H59.0803L58.8936 40.4229H57.4867L55.9844 47.4528Z" fill="black"/>
<path d="M10.6694 57.3395C10.4726 57.6579 10.1991 57.9068 9.85024 58.0834C9.50142 58.2614 9.10773 58.3497 8.66917 58.3497H7.19287V54.1538H8.66917C9.11207 54.1538 9.50721 54.2406 9.85313 54.4172C10.2005 54.5938 10.4726 54.8399 10.6694 55.1583C10.8663 55.4767 10.9647 55.8414 10.9647 56.2525C10.9647 56.6578 10.8663 57.0196 10.6694 57.3395ZM9.59116 57.2135C9.81405 56.9747 9.92694 56.6534 9.92694 56.251C9.92694 55.8487 9.8155 55.5274 9.59116 55.2885C9.36826 55.0497 9.06142 54.9296 8.67063 54.9296H8.21616V57.571H8.67063C9.05997 57.571 9.36682 57.4524 9.59116 57.2135Z" fill="black"/>
<path d="M14.7072 57.0169H12.4117C12.4319 57.1645 12.4971 57.2846 12.6085 57.3773C12.72 57.4713 12.8589 57.5177 13.0268 57.5177C13.1542 57.5177 13.2497 57.4988 13.3134 57.4612C13.3771 57.4236 13.4451 57.3613 13.516 57.2731H14.6218C14.5263 57.6074 14.3352 57.8781 14.0487 58.0836C13.7621 58.2891 13.4205 58.3904 13.0268 58.3904C12.7084 58.3904 12.4218 58.321 12.1685 58.1806C11.9152 58.0416 11.7184 57.8404 11.5765 57.5799C11.4347 57.3194 11.3638 57.0169 11.3638 56.6753C11.3638 56.3323 11.4347 56.0327 11.5765 55.775C11.7184 55.5174 11.9138 55.3206 12.1656 55.1831C12.416 55.0456 12.7012 54.9761 13.0196 54.9761C13.3423 54.9761 13.6333 55.0427 13.8923 55.1773C14.1514 55.3104 14.3555 55.5073 14.5046 55.7663C14.6551 56.0254 14.7289 56.3337 14.7289 56.6927C14.7304 56.8085 14.7231 56.917 14.7072 57.0169ZM13.6665 56.3771C13.6506 56.2223 13.5826 56.0949 13.4625 55.9979C13.3423 55.8995 13.1947 55.8503 13.0196 55.8503C12.8691 55.8503 12.7373 55.8995 12.6259 55.9979C12.5144 56.0949 12.445 56.2223 12.416 56.3771H13.6665Z" fill="black"/>
<path d="M17.5951 55.2714C17.8585 55.4668 17.9974 55.7332 18.0134 56.0718H16.9669C16.9553 55.9561 16.9148 55.8779 16.8468 55.8359C16.7788 55.7939 16.6774 55.7722 16.5414 55.7722C16.414 55.7722 16.3156 55.7939 16.2447 55.8359C16.1752 55.8779 16.1405 55.9387 16.1405 56.0183C16.1405 56.1095 16.1911 56.1761 16.2924 56.2195C16.3937 56.2614 16.5602 56.3078 16.7918 56.3599C17.0436 56.412 17.2506 56.467 17.417 56.5249C17.582 56.5828 17.7253 56.6754 17.8455 56.8057C17.9656 56.9359 18.0249 57.1125 18.0249 57.3354C18.0249 57.5424 17.9641 57.7262 17.8426 57.8854C17.721 58.0446 17.5531 58.1691 17.3403 58.2588C17.1275 58.3486 16.8902 58.3934 16.6268 58.3934C16.2114 58.3934 15.8698 58.3008 15.5991 58.1155C15.327 57.9303 15.1809 57.6567 15.1562 57.2934H16.2027C16.2186 57.4005 16.262 57.4787 16.3344 57.5264C16.4068 57.5742 16.5052 57.5974 16.634 57.5974C16.7541 57.5974 16.8526 57.5699 16.9307 57.5134C17.0089 57.457 17.0465 57.3889 17.0465 57.3093C17.0465 57.2138 16.993 57.1429 16.8844 57.098C16.7773 57.0517 16.6079 57.0054 16.3764 56.9576C16.126 56.9055 15.919 56.852 15.7584 56.797C15.5963 56.7405 15.4573 56.6508 15.3401 56.5249C15.2228 56.3989 15.1635 56.2311 15.1635 56.0197C15.1635 55.8287 15.2185 55.6536 15.3285 55.4972C15.4385 55.3395 15.602 55.215 15.8177 55.1209C16.0348 55.0268 16.2968 54.9805 16.6051 54.9805C17.0016 54.9776 17.3316 55.0761 17.5951 55.2714Z" fill="black"/>
<path d="M18.7899 53.7821C18.9057 53.6663 19.0461 53.6084 19.214 53.6084C19.3819 53.6084 19.5223 53.6663 19.6381 53.7821C19.7539 53.8979 19.8117 54.0412 19.8117 54.212C19.8117 54.3798 19.7539 54.5203 19.6381 54.636C19.5223 54.7518 19.3804 54.8097 19.214 54.8097C19.0461 54.8097 18.9057 54.7518 18.7899 54.636C18.6741 54.5203 18.6162 54.3798 18.6162 54.212C18.6162 54.0412 18.6741 53.8979 18.7899 53.7821ZM19.7278 55.0138V58.35H18.7059V55.0138H19.7278Z" fill="black"/>
<path d="M22.88 55.4508V55.0137H23.9018V58.3325C23.9018 58.8218 23.7658 59.2227 23.4922 59.5339C23.2201 59.845 22.7975 59.9999 22.2272 59.9999C21.7177 59.9999 21.3125 59.8957 21.0143 59.6887C20.7162 59.4803 20.5454 59.1648 20.5063 58.7378H21.5108C21.6063 58.9882 21.8451 59.1141 22.2287 59.1141C22.4154 59.1141 22.5717 59.0519 22.6947 58.926C22.8177 58.8015 22.88 58.6018 22.88 58.3311V57.865C22.6325 58.2153 22.3068 58.3904 21.9001 58.3904C21.6251 58.3904 21.3704 58.3195 21.1373 58.1762C20.9043 58.0329 20.7205 57.8318 20.5845 57.5712C20.4484 57.3122 20.3804 57.0183 20.3804 56.6869C20.3804 56.3554 20.4484 56.0602 20.5845 55.8026C20.7205 55.5435 20.9043 55.3408 21.1373 55.1961C21.3704 55.0514 21.6251 54.9775 21.9001 54.9775C22.3256 54.9775 22.6527 55.1353 22.88 55.4508ZM21.8002 55.9545C21.6874 56.0168 21.5947 56.1094 21.5252 56.2324C21.4558 56.3554 21.421 56.5074 21.421 56.6869C21.421 56.8664 21.4558 57.0169 21.5252 57.1385C21.5947 57.26 21.6859 57.3512 21.7974 57.4135C21.9088 57.4757 22.026 57.5061 22.1505 57.5061C22.2706 57.5061 22.3864 57.4757 22.5008 57.4135C22.6151 57.3512 22.7063 57.26 22.7758 57.1356C22.8452 57.0125 22.88 56.8606 22.88 56.6811C22.88 56.5016 22.8452 56.3511 22.7758 56.2295C22.7063 56.1094 22.6151 56.0168 22.5037 55.9545C22.3922 55.8937 22.275 55.8619 22.1505 55.8619C22.0304 55.8619 21.9146 55.8937 21.8002 55.9545Z" fill="black"/>
<path d="M27.4967 55.1483C27.6907 55.2627 27.8412 55.4262 27.9512 55.6419C28.0612 55.8576 28.1162 56.1108 28.1162 56.4018V58.3499H27.1002V56.5378C27.1002 56.3236 27.0423 56.1557 26.9294 56.0385C26.815 55.9212 26.6587 55.8619 26.4604 55.8619C26.2607 55.8619 26.1044 55.9212 25.9915 56.0385C25.8771 56.1557 25.8207 56.3222 25.8207 56.5378V58.3499H24.7988V55.0137H25.8207V55.5044C25.9191 55.3408 26.0566 55.212 26.2303 55.1179C26.404 55.0239 26.6037 54.9775 26.8309 54.9775C27.0813 54.9775 27.3042 55.0354 27.4967 55.1483Z" fill="black"/>
<path d="M33.6425 57.7421C33.5137 57.9404 33.3299 58.0967 33.0925 58.2154C32.8566 58.3326 32.5874 58.392 32.2892 58.392C31.7986 58.392 31.4092 58.2776 31.1198 58.0518C30.8303 57.8246 30.687 57.5018 30.687 57.0835H31.774C31.8029 57.4179 31.9737 57.5858 32.2878 57.5858C32.4354 57.5858 32.5512 57.5467 32.6337 57.4685C32.7177 57.3904 32.7596 57.2891 32.7596 57.1617C32.7596 57.0503 32.7235 56.9576 32.6525 56.8867C32.5802 56.8143 32.4933 56.7593 32.3891 56.7188C32.2863 56.6797 32.1358 56.6305 31.9404 56.5755C31.677 56.5031 31.4613 56.4293 31.2949 56.3541C31.127 56.2788 30.9837 56.163 30.865 56.0067C30.7449 55.8518 30.6855 55.6449 30.6855 55.3858C30.6855 55.1267 30.7536 54.8995 30.8882 54.7041C31.0242 54.5087 31.2081 54.3581 31.4411 54.2525C31.6741 54.1468 31.9317 54.0947 32.2154 54.0947C32.6815 54.0947 33.0549 54.1975 33.3328 54.4016C33.6121 54.6071 33.7569 54.9313 33.7685 55.3727H32.6569C32.6409 55.2208 32.5917 55.105 32.5107 55.0225C32.4282 54.94 32.3269 54.8995 32.2024 54.8995C32.0707 54.8995 31.9636 54.9328 31.8825 55.0008C31.8 55.0688 31.7595 55.173 31.7595 55.312C31.7595 55.4277 31.7957 55.5233 31.8681 55.5956C31.939 55.6695 32.0302 55.7274 32.1402 55.7693C32.2502 55.8113 32.3978 55.8562 32.5859 55.9039C32.8523 55.9806 33.0679 56.0545 33.2344 56.1254C33.3994 56.1978 33.5412 56.3121 33.6584 56.4699C33.7757 56.6276 33.835 56.8375 33.835 57.1009C33.8365 57.331 33.7728 57.5453 33.6425 57.7421Z" fill="black"/>
<path d="M36.425 57.4829V58.3498H35.9054C35.5305 58.3498 35.241 58.2673 35.0355 58.1023C34.83 57.9373 34.7287 57.6522 34.7287 57.2513V55.8647H34.4175V55.0165H34.7287V54.2031H35.7505V55.0165H36.4192V55.8647H35.7505V57.2513C35.7505 57.3309 35.7751 57.3902 35.8214 57.4279C35.8692 57.4655 35.9488 57.4858 36.0617 57.4858H36.425V57.4829Z" fill="black"/>
<path d="M40.4116 55.0137V58.3499H39.3898V57.8592C39.2899 58.0228 39.1538 58.1516 38.9802 58.2457C38.8065 58.3397 38.6067 58.386 38.3795 58.386C38.1291 58.386 37.9062 58.3296 37.7123 58.2153C37.5198 58.1009 37.3678 57.9374 37.2578 57.7217C37.1478 57.506 37.0942 57.2528 37.0942 56.9633V55.0137H38.1103V56.8258C38.1103 57.0414 38.1667 57.2079 38.2811 57.3251C38.3954 57.4438 38.5503 57.5017 38.75 57.5017C38.9498 57.5017 39.1061 57.4438 39.219 57.3251C39.3333 57.2079 39.3898 57.0414 39.3898 56.8258V55.0137H40.4116Z" fill="black"/>
<path d="M43.5631 55.4508V53.9268H44.5849V58.3499H43.5631V57.8651C43.3156 58.2153 42.9899 58.3904 42.5832 58.3904C42.3082 58.3904 42.0535 58.3195 41.8204 58.1762C41.5874 58.033 41.4036 57.8318 41.2675 57.5712C41.1315 57.3122 41.0635 57.0183 41.0635 56.6869C41.0635 56.3555 41.1315 56.0602 41.2675 55.8026C41.4036 55.5435 41.5874 55.3408 41.8204 55.1961C42.0535 55.0499 42.3082 54.9775 42.5832 54.9775C43.0087 54.9775 43.3358 55.1353 43.5631 55.4508ZM42.4833 55.9545C42.3704 56.0168 42.2778 56.1094 42.2083 56.2324C42.1389 56.3554 42.1041 56.5074 42.1041 56.6869C42.1041 56.8664 42.1389 57.0169 42.2083 57.1385C42.2778 57.2601 42.369 57.3512 42.4804 57.4135C42.5919 57.4757 42.7091 57.5061 42.8336 57.5061C42.9523 57.5061 43.0695 57.4757 43.1839 57.4135C43.2982 57.3512 43.3894 57.2601 43.4589 57.1356C43.5283 57.0126 43.5631 56.8606 43.5631 56.6811C43.5631 56.5016 43.5283 56.3511 43.4589 56.2295C43.3894 56.1094 43.2982 56.0168 43.1868 55.9545C43.0753 55.8937 42.9581 55.8619 42.8336 55.8619C42.7135 55.8619 42.5977 55.8937 42.4833 55.9545Z" fill="black"/>
<path d="M45.5633 53.7821C45.6791 53.6663 45.8195 53.6084 45.9874 53.6084C46.1553 53.6084 46.2957 53.6663 46.4115 53.7821C46.5273 53.8979 46.5852 54.0412 46.5852 54.212C46.5852 54.3798 46.5273 54.5203 46.4115 54.636C46.2957 54.7518 46.1539 54.8097 45.9874 54.8097C45.8195 54.8097 45.6791 54.7518 45.5633 54.636C45.4475 54.5203 45.3896 54.3798 45.3896 54.212C45.3896 54.0412 45.4475 53.8979 45.5633 53.7821ZM46.5027 55.0138V58.35H45.4794V55.0138H46.5027Z" fill="black"/>
<path d="M49.7818 55.1831C50.0467 55.3206 50.2566 55.5174 50.4129 55.775C50.5678 56.0312 50.6459 56.3323 50.6459 56.6753C50.6459 57.0183 50.5692 57.3179 50.4158 57.5785C50.2624 57.8375 50.054 58.0373 49.792 58.1791C49.5286 58.321 49.2362 58.3904 48.9134 58.3904C48.5907 58.3904 48.2954 58.3195 48.0291 58.1791C47.7613 58.0373 47.5515 57.8375 47.3952 57.5785C47.2403 57.3194 47.1621 57.0183 47.1621 56.6753C47.1621 56.3323 47.2403 56.0327 47.3952 55.775C47.55 55.5174 47.7599 55.3206 48.0262 55.1831C48.2911 55.0456 48.5849 54.9761 48.9077 54.9761C49.2246 54.9775 49.517 55.047 49.7818 55.1831ZM48.4068 56.063C48.2693 56.2049 48.2013 56.4104 48.2013 56.6811C48.2013 56.9532 48.2722 57.1602 48.4126 57.3034C48.5545 57.4467 48.7195 57.5177 48.912 57.5177C49.1045 57.5177 49.2666 57.4467 49.4026 57.3034C49.5372 57.1602 49.6053 56.9532 49.6053 56.6811C49.6053 56.4104 49.5358 56.2034 49.3954 56.063C49.2565 55.9212 49.0929 55.8503 48.9062 55.8503C48.7108 55.8503 48.5443 55.9212 48.4068 56.063Z" fill="black"/>
</svg>
