<svg width="264" height="60" viewBox="0 0 264 60" fill="none" xmlns="http://www.w3.org/2000/svg">
<path d="M12.981 25.2479V1.30176H20.3488C22.4552 1.30176 24.3359 1.77668 25.9957 2.72644C27.6554 3.6762 28.9532 5.02561 29.8841 6.76997C30.8151 8.51903 31.2806 10.5078 31.2806 12.7318V13.832C31.2806 16.0607 30.8245 18.0401 29.9076 19.7704C28.9908 21.5053 27.7025 22.8453 26.0333 23.7998C24.3688 24.7542 22.4881 25.2338 20.3911 25.2479H12.981ZM17.9179 5.29356V21.2796H20.3017C22.2295 21.2796 23.7059 20.6496 24.7262 19.3895C25.7465 18.1294 26.2684 16.3239 26.2872 13.9777V12.7083C26.2872 10.2728 25.7841 8.42969 24.7732 7.17431C23.7623 5.91894 22.2906 5.29356 20.3488 5.29356H17.9179Z" fill="black"/>
<path d="M49.2847 14.8662H39.8104V21.2794H50.9303V25.243H34.8782V1.29688H50.8974V5.29334H39.8104V11.0013H49.2847V14.8662Z" fill="black"/>
<path d="M66.2372 18.9624C66.2372 18.0315 65.908 17.3168 65.2498 16.8184C64.5915 16.3201 63.4066 15.7935 61.6952 15.2387C59.9837 14.6838 58.6295 14.1384 57.6328 13.6024C54.9151 12.1307 53.5515 10.156 53.5515 7.66406C53.5515 6.37107 53.9183 5.21447 54.6471 4.20359C55.3759 3.188 56.4244 2.39812 57.7879 1.82451C59.1515 1.25559 60.6843 0.96875 62.3863 0.96875C64.0978 0.96875 65.6212 1.27906 66.9565 1.89969C68.2919 2.52033 69.331 3.39485 70.0739 4.52328C70.8121 5.6517 71.1835 6.93529 71.1835 8.37403H66.2513C66.2513 7.27852 65.908 6.42284 65.2168 5.81631C64.5257 5.20978 63.5571 4.90416 62.3064 4.90416C61.098 4.90416 60.1624 5.15803 59.4947 5.67053C58.827 6.17832 58.4932 6.85067 58.4932 7.68759C58.4932 8.46338 58.8835 9.11693 59.6687 9.64353C60.4539 10.1701 61.6058 10.6638 63.1292 11.1246C65.9362 11.9709 67.9815 13.0147 69.2651 14.2654C70.5487 15.5161 71.1882 17.0724 71.1882 18.939C71.1882 21.0124 70.403 22.6393 68.8373 23.8147C67.2716 24.9949 65.1604 25.5825 62.5039 25.5825C60.6607 25.5825 58.9869 25.244 57.4729 24.5717C55.9589 23.8946 54.8069 22.9731 54.0123 21.8023C53.2177 20.6316 52.8228 19.2681 52.8228 17.7212H57.7738C57.7738 20.3636 59.3536 21.6848 62.5086 21.6848C63.684 21.6848 64.5962 21.4497 65.2545 20.9701C65.908 20.4858 66.2372 19.8181 66.2372 18.9624Z" fill="black"/>
<path d="M79.7765 25.2479H74.8442V1.30176H79.7765V25.2479Z" fill="black"/>
<path d="M103.293 22.2208C102.404 23.2834 101.149 24.1109 99.5267 24.6939C97.9045 25.2769 96.1084 25.5731 94.1336 25.5731C92.0601 25.5731 90.2452 25.1218 88.6795 24.2143C87.1185 23.3116 85.9101 21.9951 85.0591 20.2743C84.208 18.5534 83.7755 16.5317 83.752 14.209V12.5821C83.752 10.1936 84.1563 8.12016 84.9603 6.3711C85.7643 4.62204 86.9304 3.28672 88.4491 2.35576C89.9678 1.42952 91.7451 0.96875 93.7857 0.96875C96.6256 0.96875 98.8449 1.64584 100.448 2.99995C102.047 4.35406 102.997 6.32405 103.293 8.91003H98.4923C98.2713 7.54181 97.787 6.53563 97.0394 5.90089C96.2871 5.26615 95.2527 4.94649 93.9362 4.94649C92.2576 4.94649 90.9834 5.57649 90.1042 6.83657C89.2249 8.10135 88.7829 9.97268 88.7735 12.4646V13.9927C88.7735 16.5034 89.2484 18.4029 90.2029 19.6818C91.1574 20.9654 92.5538 21.6049 94.397 21.6049C96.2495 21.6049 97.5707 21.2099 98.3606 20.42V16.2918H93.8703V12.6574H103.293V22.2208Z" fill="black"/>
<path d="M126.763 25.2479H121.831L112.225 9.49227V25.2479H107.293V1.30176H112.225L121.845 17.0903V1.30176H126.763V25.2479Z" fill="black"/>
<path d="M151.876 18.9624C151.876 18.0315 151.547 17.3168 150.889 16.8184C150.23 16.3201 149.046 15.7935 147.334 15.2387C145.623 14.6838 144.269 14.1384 143.272 13.6024C140.554 12.1307 139.191 10.156 139.191 7.66406C139.191 6.37107 139.557 5.21447 140.286 4.20359C141.015 3.188 142.063 2.39812 143.427 1.82451C144.79 1.25559 146.323 0.96875 148.025 0.96875C149.737 0.96875 151.26 1.27906 152.596 1.89969C153.931 2.52033 154.97 3.39485 155.713 4.52328C156.456 5.6517 156.822 6.93529 156.822 8.37403H151.89C151.89 7.27852 151.547 6.42284 150.856 5.81631C150.165 5.20978 149.196 4.90416 147.945 4.90416C146.737 4.90416 145.801 5.15803 145.134 5.67053C144.466 6.17832 144.132 6.85067 144.132 7.68759C144.132 8.46338 144.522 9.11693 145.308 9.64353C146.093 10.1701 147.245 10.6638 148.768 11.1246C151.575 11.9709 153.621 13.0147 154.904 14.2654C156.188 15.5161 156.827 17.0724 156.827 18.939C156.827 21.0124 156.042 22.6393 154.476 23.8147C152.911 24.9949 150.795 25.5825 148.143 25.5825C146.3 25.5825 144.621 25.244 143.107 24.5717C141.593 23.8946 140.441 22.9731 139.647 21.8023C138.852 20.6316 138.457 19.2681 138.457 17.7212H143.408C143.408 20.3636 144.988 21.6848 148.148 21.6848C149.323 21.6848 150.235 21.4497 150.893 20.9701C151.547 20.4858 151.876 19.8181 151.876 18.9624Z" fill="black"/>
<path d="M178.196 5.29383H170.861V25.2435H165.924V5.29383H158.688V1.29736H178.196V5.29383Z" fill="black"/>
<path d="M199.13 1.29736V17.0718C199.13 19.6954 198.312 21.7689 196.671 23.2876C195.03 24.8109 192.792 25.5726 189.952 25.5726C187.154 25.5726 184.935 24.8344 183.289 23.3534C181.644 21.8723 180.807 19.8411 180.774 17.2504V1.29736H185.706V17.1047C185.706 18.6751 186.082 19.8176 186.835 20.537C187.587 21.2517 188.626 21.6137 189.952 21.6137C192.726 21.6137 194.137 20.1562 194.179 17.2364V1.29736H199.13Z" fill="black"/>
<path d="M203.181 25.2479V1.30176H210.549C212.655 1.30176 214.536 1.77668 216.196 2.72644C217.856 3.6762 219.153 5.02561 220.084 6.76997C221.015 8.51903 221.481 10.5078 221.481 12.7318V13.832C221.481 16.0607 221.025 18.0401 220.108 19.7704C219.196 21.5053 217.903 22.8453 216.234 23.7998C214.564 24.7542 212.688 25.2338 210.591 25.2479H203.181ZM208.113 5.29356V21.2796H210.497C212.425 21.2796 213.901 20.6496 214.922 19.3895C215.942 18.1294 216.464 16.3239 216.483 13.9777V12.7083C216.483 10.2728 215.98 8.42969 214.969 7.17431C213.958 5.91894 212.486 5.29356 210.544 5.29356H208.113Z" fill="black"/>
<path d="M230.314 25.2479H225.382V1.30176H230.314V25.2479Z" fill="black"/>
<path d="M254.562 13.8142C254.562 16.1698 254.144 18.2385 253.311 20.0158C252.479 21.793 251.285 23.1613 249.733 24.1252C248.182 25.089 246.404 25.5733 244.397 25.5733C242.413 25.5733 240.64 25.0984 239.084 24.144C237.527 23.1895 236.319 21.826 235.463 20.0581C234.608 18.2902 234.175 16.2497 234.166 13.9458V12.7657C234.166 10.4101 234.589 8.33187 235.44 6.54049C236.291 4.74911 237.49 3.37154 239.041 2.41237C240.593 1.45321 242.366 0.973633 244.364 0.973633C246.357 0.973633 248.135 1.45321 249.686 2.41237C251.238 3.37154 252.437 4.74911 253.288 6.54049C254.139 8.33187 254.562 10.4007 254.562 12.7469V13.8142ZM249.559 12.7281C249.559 10.2173 249.108 8.31305 248.21 7.00596C247.312 5.70357 246.028 5.05002 244.364 5.05002C242.709 5.05002 241.43 5.69421 240.532 6.9825C239.634 8.27079 239.178 10.1609 239.168 12.6481V13.8189C239.168 16.2638 239.62 18.1586 240.518 19.508C241.416 20.8574 242.709 21.5298 244.397 21.5298C246.052 21.5298 247.326 20.881 248.215 19.5786C249.103 18.2809 249.555 16.386 249.564 13.8988L249.559 12.7281Z" fill="black"/>
<path d="M22.5899 51.794H15.1187V57.9017H23.7936V59.7588H12.8477V42.5269H23.676V44.3841H15.1187V49.9369H22.5852L22.5899 51.794Z" fill="black"/>
<path d="M32.2444 49.1326L36.3727 42.5312H39.048L33.6033 51.0744L39.175 59.7586H36.4808L32.2444 53.0351L27.9846 59.7586H25.2998L30.8856 51.0744L25.4315 42.5312H28.0927L32.2444 49.1326Z" fill="black"/>
<path d="M54.1936 54.2917C53.982 56.1113 53.3097 57.5171 52.1765 58.5092C51.0434 59.4966 49.5388 59.9949 47.6627 59.9949C45.6268 59.9949 43.9953 59.2661 42.7681 57.8039C41.5409 56.3463 40.9297 54.3904 40.9297 51.9455V50.2858C40.9297 48.6871 41.2165 47.2766 41.7854 46.0636C42.3544 44.8505 43.1678 43.9149 44.2163 43.266C45.2648 42.6172 46.4826 42.2881 47.8602 42.2881C49.6892 42.2881 51.1562 42.7958 52.2612 43.8208C53.3661 44.8411 54.0103 46.2564 54.1889 48.0619H51.9038C51.7063 46.6889 51.2785 45.6874 50.6202 45.0715C49.962 44.4556 49.0404 44.1452 47.8555 44.1452C46.4026 44.1452 45.2648 44.6812 44.442 45.758C43.6191 46.8347 43.2054 48.3581 43.2054 50.3422V52.0113C43.2054 53.8826 43.5956 55.3684 44.3761 56.478C45.1567 57.5829 46.2475 58.1377 47.6533 58.1377C48.9134 58.1377 49.882 57.8509 50.5591 57.2773C51.2315 56.7037 51.6828 55.7116 51.9038 54.2917H54.1936Z" fill="black"/>
<path d="M59.58 57.9017H67.7424V59.7588H57.2949V42.5269H59.58V57.9017Z" fill="black"/>
<path d="M81.8266 42.527V54.2438C81.8172 55.8706 81.3094 57.1965 80.2938 58.2309C79.2782 59.2653 77.9052 59.8436 76.1702 59.9705L75.5684 59.9941C73.6829 59.9941 72.1783 59.4863 71.0593 58.466C69.9403 57.4504 69.3713 56.0493 69.3525 54.2626V42.5222H71.6V54.1874C71.6 55.4333 71.9433 56.4019 72.6297 57.093C73.3162 57.7842 74.2942 58.1274 75.5637 58.1274C76.8473 58.1274 77.8347 57.7842 78.5165 57.0978C79.1982 56.4113 79.5415 55.4474 79.5415 54.1968V42.5176H81.8266V42.527Z" fill="black"/>
<path d="M90.4888 52.0817C88.5375 51.5222 87.1223 50.8311 86.2336 50.0177C85.345 49.2043 84.903 48.1934 84.903 46.9944C84.903 45.6356 85.4437 44.5166 86.5299 43.6279C87.616 42.7393 89.0265 42.2974 90.7615 42.2974C91.9464 42.2974 92.9996 42.5277 93.9259 42.9838C94.8521 43.4399 95.5715 44.0746 96.0793 44.8786C96.5871 45.6826 96.841 46.5619 96.841 47.5163H94.5559C94.5559 46.4725 94.2268 45.6497 93.5638 45.0526C92.9009 44.4508 91.9652 44.1545 90.7568 44.1545C89.6378 44.1545 88.7632 44.4037 88.1379 44.8974C87.5078 45.3911 87.1975 46.0776 87.1975 46.9568C87.1975 47.6574 87.4937 48.2545 88.0909 48.7388C88.688 49.2278 89.6989 49.6697 91.133 50.0741C92.5623 50.4737 93.6861 50.9204 94.4948 51.4047C95.3035 51.8937 95.9007 52.4578 96.2956 53.102C96.6859 53.7508 96.8833 54.5079 96.8833 55.3871C96.8833 56.7835 96.3379 57.9025 95.2518 58.7394C94.1657 59.5811 92.7081 59.9995 90.8838 59.9995C89.6989 59.9995 88.594 59.7738 87.569 59.3178C86.544 58.8617 85.7541 58.2411 85.1945 57.4559C84.6397 56.666 84.3623 55.7726 84.3623 54.7712H86.6474C86.6474 55.8103 87.033 56.633 87.8041 57.2348C88.5705 57.8367 89.6002 58.1423 90.8885 58.1423C92.0875 58.1423 93.0043 57.8978 93.6438 57.4088C94.2832 56.9198 94.6029 56.2522 94.6029 55.4105C94.6029 54.5689 94.3067 53.9154 93.7143 53.4499C93.1172 52.9845 92.0451 52.5284 90.4888 52.0817Z" fill="black"/>
<path d="M102.231 59.7588H99.96V42.5269H102.231V59.7588Z" fill="black"/>
<path d="M112.09 56.7403L117.013 42.5269H119.496L113.106 59.7588H111.093L104.718 42.5269H107.191L112.09 56.7403Z" fill="black"/>
<path d="M131.54 51.794H124.074V57.9017H132.749V59.7588H121.803V42.5269H132.631V44.3841H124.074V49.9369H131.54V51.794Z" fill="black"/>
<path d="M141.579 59.7588V42.5269H146.441C147.941 42.5269 149.267 42.856 150.419 43.5189C151.571 44.1819 152.459 45.1223 153.089 46.3494C153.715 47.5719 154.034 48.9777 154.044 50.5622V51.6624C154.044 53.2892 153.729 54.7092 153.103 55.9363C152.478 57.1588 151.58 58.0992 150.419 58.7527C149.257 59.4062 147.898 59.74 146.356 59.7588H141.579ZM143.85 44.3841V57.8969H146.239C147.992 57.8969 149.351 57.3516 150.329 56.2608C151.303 55.17 151.792 53.6183 151.792 51.606V50.5998C151.792 48.6438 151.331 47.1205 150.414 46.0344C149.497 44.9483 148.19 44.3981 146.502 44.3793H143.85V44.3841Z" fill="black"/>
<path d="M167.208 51.794H159.742V57.9017H168.417V59.7588H157.471V42.5269H168.299V44.3841H159.742V49.9369H167.208V51.794Z" fill="black"/>
<path d="M176.321 52.0817C174.37 51.5222 172.955 50.8311 172.066 50.0177C171.177 49.2043 170.735 48.1934 170.735 46.9944C170.735 45.6356 171.276 44.5166 172.362 43.6279C173.448 42.7393 174.859 42.2974 176.594 42.2974C177.779 42.2974 178.832 42.5277 179.758 42.9838C180.684 43.4399 181.404 44.0746 181.912 44.8786C182.419 45.6826 182.673 46.5619 182.673 47.5163H180.388C180.388 46.4725 180.059 45.6497 179.396 45.0526C178.733 44.4508 177.797 44.1545 176.594 44.1545C175.475 44.1545 174.6 44.4037 173.975 44.8974C173.345 45.3911 173.034 46.0776 173.034 46.9568C173.034 47.6574 173.331 48.2545 173.928 48.7388C174.525 49.2278 175.536 49.6697 176.97 50.0741C178.399 50.4737 179.523 50.9204 180.332 51.4047C181.14 51.8937 181.738 52.4578 182.133 53.102C182.523 53.7508 182.72 54.5079 182.72 55.3871C182.72 56.7835 182.175 57.9025 181.089 58.7394C179.998 59.5811 178.545 59.9995 176.721 59.9995C175.536 59.9995 174.431 59.7738 173.406 59.3178C172.381 58.8617 171.586 58.2411 171.031 57.4559C170.477 56.666 170.199 55.7726 170.199 54.7712H172.484C172.484 55.8103 172.87 56.633 173.641 57.2348C174.412 57.8367 175.437 58.1423 176.725 58.1423C177.924 58.1423 178.841 57.8978 179.481 57.4088C180.12 56.9198 180.44 56.2522 180.44 55.4105C180.44 54.5689 180.144 53.9154 179.551 53.4499C178.949 52.9845 177.877 52.5284 176.321 52.0817Z" fill="black"/>
<path d="M188.063 59.7588H185.792V42.5269H188.063V59.7588Z" fill="black"/>
<path d="M204.938 57.4983C204.355 58.3352 203.537 58.9605 202.493 59.3743C201.449 59.788 200.232 59.9949 198.84 59.9949C197.434 59.9949 196.188 59.6658 195.102 59.0076C194.011 58.3493 193.169 57.4137 192.577 56.1959C191.98 54.9828 191.674 53.5723 191.66 51.969V50.4691C191.66 47.8737 192.267 45.8614 193.475 44.4321C194.683 43.0027 196.39 42.2881 198.581 42.2881C200.382 42.2881 201.826 42.7489 202.926 43.6657C204.021 44.5873 204.694 45.8896 204.938 47.5776H202.667C202.239 45.2878 200.885 44.1452 198.595 44.1452C197.072 44.1452 195.92 44.6813 195.135 45.7486C194.35 46.8159 193.955 48.3674 193.945 50.3986V51.8092C193.945 53.7463 194.387 55.2791 195.271 56.4216C196.155 57.5641 197.349 58.133 198.859 58.133C199.71 58.133 200.457 58.039 201.097 57.8462C201.736 57.6581 202.263 57.3384 202.681 56.8917V53.0316H198.694V51.1744H204.943L204.938 57.4983Z" fill="black"/>
<path d="M221.968 59.7588H219.683L211.008 46.4811V59.7588H208.723V42.5269H211.008L219.706 55.8611V42.5269H221.968V59.7588Z" fill="black"/>
<path d="M263.439 32.5747H10.8455V34.62H263.439V32.5747Z" fill="black"/>
<path d="M3.06561 0H0V59.7595H3.06561V0Z" fill="black"/>
</svg>
