<svg width="232" height="60" viewBox="0 0 232 60" fill="none" xmlns="http://www.w3.org/2000/svg">
<g opacity="0.3">
<path d="M34.2395 4.8983C34.2395 5.24558 34.2022 5.60406 34.1313 5.95508L29.9117 27.6282L25.6922 5.95508C25.4122 4.47261 25.7407 2.93413 26.6107 1.70558C28.2276 -0.568528 31.6032 -0.568528 33.2127 1.70558C33.8811 2.64286 34.2395 3.75564 34.2395 4.8983Z" fill="black"/>
<path d="M25.5947 54.9355C25.5947 54.5882 25.632 54.2297 25.703 53.8787L29.9226 32.2056L34.1421 53.8787C34.4222 55.3612 34.0936 56.8997 33.2235 58.1282C31.6067 60.4023 28.231 60.4023 26.6216 58.1282C25.9532 57.1909 25.5947 56.0781 25.5947 54.9355Z" fill="black"/>
<path d="M54.9401 34.237C54.5928 34.237 54.2342 34.1996 53.8832 34.1324L32.2104 29.9128L53.8832 25.6932C55.3657 25.4131 56.9041 25.7417 58.1327 26.6118C60.4067 28.2287 60.4067 31.6044 58.1327 33.2138C57.1954 33.8822 56.0827 34.237 54.9401 34.237Z" fill="black"/>
<path d="M4.90192 25.5977C5.24919 25.5977 5.60772 25.635 5.95499 25.7022L27.6278 29.9218L5.95499 34.1414C4.47254 34.4215 2.93409 34.0929 1.70556 33.2228C-0.56852 31.6059 -0.56852 28.2302 1.70556 26.6208C2.64656 25.9524 3.75928 25.5977 4.90192 25.5977Z" fill="black"/>
<path d="M50.6661 15.2822C50.4196 15.5287 50.1396 15.7565 49.8446 15.9544L31.5361 28.2958L43.8775 9.98718C44.7251 8.73996 46.047 7.88484 47.5332 7.63091C50.2853 7.16414 52.6714 9.55401 52.2009 12.2986C52.0067 13.4338 51.4727 14.4757 50.6661 15.2822Z" fill="black"/>
<path d="M9.1728 44.5517C9.41925 44.3052 9.69931 44.0774 9.99431 43.8795L28.3026 31.5381L15.9614 49.8467C15.1138 51.094 13.7919 51.9491 12.3057 52.203C9.55364 52.6698 7.1638 50.2799 7.63803 47.5353C7.82847 46.4001 8.36249 45.3583 9.1728 44.5517Z" fill="black"/>
<path d="M44.553 50.6643C44.3066 50.4179 44.0824 50.1378 43.8808 49.8428L31.5396 31.5342L49.848 43.8756C51.0915 44.7233 51.9503 46.0452 52.2005 47.5314C52.6673 50.2835 50.2774 52.6696 47.5329 52.1991C46.4014 52.0049 45.3596 51.4709 44.553 50.6643Z" fill="black"/>
<path d="M15.2872 9.17002C15.5336 9.41647 15.7577 9.69654 15.9593 9.99153L28.3007 28.3002L9.99221 15.9587C8.74502 15.1111 7.88989 13.7892 7.6397 12.303C7.17293 9.55091 9.56277 7.16477 12.3073 7.63528C13.4388 7.82945 14.4769 8.36344 15.2872 9.17002Z" fill="black"/>
<path d="M82.0827 30.9405C81.3769 32.0122 80.3799 32.8711 79.0917 33.5096C77.8034 34.1482 76.3434 34.4693 74.7191 34.4693C72.0529 34.4693 69.9355 33.8495 68.3635 32.6134C66.7914 31.3774 66.0073 29.6224 66.0073 27.3445H71.9259C72.0752 29.1668 73.0087 30.0742 74.7227 30.0742C75.5255 30.0742 76.1529 29.8614 76.6085 29.4394C77.064 29.0174 77.2918 28.461 77.2918 27.7665C77.2918 27.1578 77.0976 26.6612 76.7055 26.2728C76.3135 25.8845 75.8392 25.5783 75.2754 25.3617C74.7115 25.1451 73.8976 24.8874 72.8371 24.5812C71.4069 24.1929 70.2344 23.7896 69.3232 23.3788C68.4121 22.9681 67.6316 22.3407 66.9819 21.4931C66.3321 20.6454 66.0073 19.5214 66.0073 18.1099C66.0073 16.7021 66.377 15.4661 67.1126 14.4019C67.8482 13.3414 68.8527 12.5199 70.1185 11.9485C71.3844 11.3772 72.7922 11.0859 74.3307 11.0859C76.8662 11.0859 78.8938 11.6423 80.4098 12.7588C81.9259 13.8754 82.7174 15.6379 82.7847 18.0427H76.7354C76.6495 17.2212 76.3845 16.5864 75.9401 16.142C75.4957 15.6976 74.9394 15.4773 74.2672 15.4773C73.5503 15.4773 72.9715 15.6603 72.5271 16.03C72.0827 16.3997 71.8586 16.9635 71.8586 17.7216C71.8586 18.3489 72.0529 18.8642 72.4449 19.2675C72.8333 19.6671 73.3262 19.9845 73.9236 20.2123C74.5211 20.44 75.3276 20.6828 76.347 20.9442C77.7996 21.3549 78.9759 21.7582 79.8758 22.1466C80.7757 22.5349 81.545 23.1585 82.1835 24.0136C82.8221 24.8688 83.1432 26.0152 83.1432 27.4453C83.1394 28.7 82.7884 29.8651 82.0827 30.9405Z" fill="black"/>
<path d="M92.9909 11.4102V25.0362C92.9909 26.4029 93.327 27.4522 93.9991 28.1915C94.6713 28.9272 95.6571 29.2968 96.9603 29.2968C98.2598 29.2968 99.2568 28.9272 99.9513 28.1915C100.642 27.4559 100.993 26.4029 100.993 25.0362V11.4102H106.553V25.0362C106.553 27.0526 106.098 28.7703 105.187 30.1893C104.275 31.6083 103.084 32.6763 101.609 33.3895C100.134 34.1065 98.551 34.4649 96.8632 34.4649C95.1716 34.4649 93.6071 34.1065 92.1657 33.3895C90.7243 32.6763 89.5742 31.6046 88.7191 30.1893C87.864 28.7703 87.4346 27.0526 87.4346 25.0362V11.4102H92.9909Z" fill="black"/>
<path d="M131.72 34.2372H126.16L116.858 19.8307V34.2372H111.298V11.3467H116.858L126.16 25.7494V11.3467H131.72V34.2372Z" fill="black"/>
<path d="M152.192 30.94C151.487 32.0118 150.49 32.8706 149.201 33.5092C147.909 34.1477 146.453 34.4688 144.829 34.4688C142.163 34.4688 140.042 33.849 138.47 32.613C136.897 31.3769 136.113 29.6219 136.113 27.344H142.032C142.181 29.1663 143.115 30.0737 144.829 30.0737C145.632 30.0737 146.259 29.8609 146.715 29.4389C147.17 29.0169 147.398 28.4606 147.398 27.766C147.398 27.1573 147.204 26.6607 146.812 26.2723C146.42 25.884 145.945 25.5778 145.381 25.3612C144.817 25.1446 144.004 24.8869 142.943 24.5807C141.513 24.1924 140.34 23.7891 139.429 23.3783C138.518 22.9676 137.738 22.3402 137.088 21.4926C136.438 20.6449 136.113 19.5209 136.113 18.1094C136.113 16.7016 136.483 15.4656 137.219 14.4014C137.954 13.3409 138.959 12.5194 140.225 11.948C141.494 11.373 142.898 11.0854 144.437 11.0854C146.972 11.0854 149 11.6418 150.516 12.7584C152.032 13.8749 152.824 15.6374 152.891 18.0422H146.841C146.756 17.2207 146.487 16.5859 146.046 16.1415C145.602 15.6972 145.042 15.4768 144.369 15.4768C143.656 15.4768 143.074 15.6598 142.629 16.0295C142.185 16.3992 141.961 16.963 141.961 17.7211C141.961 18.3484 142.159 18.8637 142.547 19.267C142.936 19.6666 143.428 19.984 144.026 20.2118C144.623 20.4395 145.43 20.6823 146.449 20.9437C147.902 21.3544 149.078 21.7577 149.978 22.1461C150.878 22.5344 151.647 23.158 152.286 24.0132C152.924 24.8683 153.245 26.0147 153.245 27.4449C153.249 28.6995 152.894 29.8646 152.192 30.94Z" fill="black"/>
<path d="M177.569 11.4102V34.2372H172.008V24.7748H163.196V34.2372H157.636V11.4102H163.196V20.5477H172.008V11.4102H177.569Z" fill="black"/>
<path d="M188.007 11.4102V34.2372H182.447V11.4102H188.007Z" fill="black"/>
<path d="M213.302 34.2372H207.742L198.44 19.8307V34.2372H192.88V11.3467H198.44L207.742 25.7494V11.3467H213.302V34.2372Z" fill="black"/>
<path d="M223.744 15.5738V20.4842H231.026V24.7113H223.744V30.0101H232V34.2372H218.18V11.3467H232V15.5738H223.744Z" fill="black"/>
<path d="M69.514 40.0786V50.1833H67.0532V40.0786H69.514Z" fill="black"/>
<path d="M80.7098 50.184H78.2491L74.1341 43.8061V50.184H71.6733V40.0532H74.1341L78.2491 46.4312V40.0532H80.7098V50.184Z" fill="black"/>
<path d="M91.2407 47.7523C90.7665 48.5216 90.1093 49.119 89.2692 49.5447C88.429 49.9704 87.4842 50.1833 86.4274 50.1833H82.8726V40.0786H86.4274C87.4916 40.0786 88.4439 40.2915 89.2766 40.7134C90.1093 41.1354 90.7665 41.7291 91.2407 42.4984C91.7149 43.2676 91.954 44.1451 91.954 45.1347C91.9502 46.1093 91.7149 46.9831 91.2407 47.7523ZM88.6418 47.4499C89.1795 46.8748 89.4484 46.1018 89.4484 45.1347C89.4484 44.1638 89.1795 43.3946 88.6418 42.8158C88.1041 42.2407 87.3648 41.9532 86.4238 41.9532H85.3296V48.3162H86.4238C87.3648 48.3125 88.1041 48.0249 88.6418 47.4499Z" fill="black"/>
<path d="M95.9232 40.0786V46.1093C95.9232 46.7142 96.0726 47.181 96.3676 47.5059C96.6663 47.8308 97.1032 47.9951 97.6782 47.9951C98.2533 47.9951 98.6939 47.8308 99.0039 47.5059C99.3101 47.181 99.4631 46.7142 99.4631 46.1093V40.0786H101.924V46.1093C101.924 47.0018 101.722 47.7635 101.319 48.3909C100.916 49.0182 100.389 49.4925 99.7357 49.8099C99.0822 50.1235 98.384 50.2841 97.6334 50.2841C96.8866 50.2841 96.192 50.1273 95.5535 49.8099C94.915 49.4925 94.4072 49.022 94.03 48.3909C93.6491 47.7635 93.4624 47.0018 93.4624 46.1093V40.0786H95.9232Z" fill="black"/>
<path d="M110.921 48.7233C110.611 49.1976 110.167 49.5785 109.599 49.8585C109.028 50.1423 108.382 50.2842 107.665 50.2842C106.485 50.2842 105.547 50.0116 104.853 49.4627C104.158 48.9175 103.807 48.1408 103.807 47.1326H106.425C106.492 47.9392 106.903 48.3425 107.661 48.3425C108.016 48.3425 108.292 48.2491 108.494 48.0624C108.695 47.8757 108.796 47.6292 108.796 47.3193C108.796 47.0504 108.71 46.8301 108.538 46.6584C108.367 46.4866 108.154 46.3522 107.904 46.2551C107.654 46.1617 107.295 46.046 106.825 45.9115C106.194 45.7398 105.674 45.5605 105.271 45.3775C104.868 45.1946 104.524 44.9145 104.237 44.5411C103.949 44.1677 103.804 43.6673 103.804 43.0437C103.804 42.4201 103.968 41.8749 104.293 41.4006C104.618 40.9339 105.062 40.5679 105.622 40.314C106.182 40.0601 106.806 39.9331 107.486 39.9331C108.609 39.9331 109.506 40.1796 110.178 40.6762C110.85 41.1691 111.201 41.9496 111.227 43.0138H108.55C108.512 42.6479 108.393 42.3715 108.199 42.1736C108.001 41.9757 107.754 41.8786 107.456 41.8786C107.138 41.8786 106.881 41.9608 106.686 42.1213C106.488 42.2856 106.391 42.5321 106.391 42.8682C106.391 43.1482 106.477 43.376 106.649 43.5515C106.821 43.7308 107.037 43.8689 107.303 43.9698C107.568 44.0706 107.922 44.1789 108.374 44.2946C109.017 44.4776 109.536 44.6531 109.935 44.8286C110.331 45.0004 110.674 45.2767 110.958 45.6576C111.242 46.0385 111.384 46.5426 111.384 47.1737C111.391 47.7338 111.235 48.2454 110.921 48.7233Z" fill="black"/>
<path d="M120.616 40.0786V41.9494H117.853V50.1833H115.392V41.9494H112.644V40.0786H120.616Z" fill="black"/>
<path d="M127.106 50.1833L124.832 46.2549H124.545V50.1833H122.084V40.0786H126.068C126.856 40.0786 127.528 40.2242 128.092 40.5118C128.652 40.7993 129.074 41.1802 129.358 41.6507C129.642 42.1175 129.78 42.629 129.78 43.1742C129.78 43.7605 129.605 44.3318 129.246 44.8845C128.891 45.4446 128.309 45.833 127.506 46.0645L129.982 50.1796L127.106 50.1833ZM124.545 44.3841H126.072C126.445 44.3841 126.74 44.2758 126.957 44.0555C127.174 43.8352 127.282 43.5402 127.282 43.178C127.282 42.8232 127.17 42.532 126.953 42.3004C126.729 42.0689 126.438 41.9532 126.076 41.9532H124.549V44.3841H124.545Z" fill="black"/>
<path d="M140.287 40.0786L136.792 46.9308V50.1833H134.331V46.9308L130.836 40.0786H133.629L135.571 44.6418L137.501 40.0786H140.287Z" fill="black"/>
<path d="M153.487 40.8293C154.361 41.423 154.969 42.2483 155.313 43.3051H152.378C152.176 42.913 151.922 42.6292 151.616 42.4574C151.306 42.2856 150.933 42.196 150.492 42.196C149.678 42.196 149.025 42.4611 148.543 42.9877C148.058 43.5142 147.815 44.2199 147.815 45.1012C147.815 45.9825 148.058 46.6882 148.543 47.2147C149.025 47.745 149.678 48.0064 150.492 48.0064C150.933 48.0064 151.306 47.9205 151.616 47.7487C151.922 47.577 152.176 47.2932 152.378 46.8973H155.313C154.969 47.9541 154.361 48.7794 153.487 49.3731C152.613 49.9668 151.616 50.2656 150.492 50.2656C149.544 50.2656 148.674 50.0452 147.878 49.6046C147.087 49.164 146.463 48.5516 146 47.7637C145.541 46.9795 145.313 46.0908 145.313 45.1012C145.313 44.1116 145.541 43.2267 146 42.4387C146.463 41.6508 147.087 41.0384 147.878 40.5941C148.67 40.1534 149.54 39.9331 150.492 39.9331C151.616 39.9368 152.613 40.2318 153.487 40.8293Z" fill="black"/>
<path d="M164.1 40.5975C164.892 41.0381 165.516 41.6542 165.971 42.4422C166.427 43.2263 166.655 44.1151 166.655 45.1046C166.655 46.0942 166.423 46.9829 165.964 47.7745C165.501 48.5662 164.881 49.1823 164.093 49.623C163.305 50.0636 162.439 50.2839 161.487 50.2839C160.534 50.2839 159.668 50.0636 158.873 49.623C158.081 49.1823 157.458 48.5662 156.995 47.7745C156.535 46.9829 156.304 46.0942 156.304 45.1046C156.304 44.1151 156.531 43.2301 156.995 42.4422C157.458 41.6542 158.081 41.0418 158.873 40.5975C159.664 40.1568 160.534 39.9365 161.487 39.9365C162.439 39.9365 163.305 40.1568 164.1 40.5975ZM159.537 42.9873C159.052 43.5139 158.809 44.2196 158.809 45.1009C158.809 45.9821 159.052 46.6879 159.537 47.2144C160.019 47.7447 160.673 48.0061 161.487 48.0061C162.293 48.0061 162.939 47.7447 163.425 47.2144C163.906 46.6879 164.149 45.9821 164.149 45.1009C164.149 44.2196 163.906 43.5139 163.425 42.9873C162.939 42.4571 162.293 42.1957 161.487 42.1957C160.673 42.1957 160.023 42.4608 159.537 42.9873Z" fill="black"/>
<path d="M168.051 47.8791C168.309 47.6214 168.626 47.4907 169 47.4907C169.385 47.4907 169.706 47.6214 169.963 47.8791C170.221 48.1367 170.352 48.4616 170.352 48.8425C170.352 49.2159 170.221 49.5333 169.963 49.791C169.706 50.0486 169.385 50.1793 169 50.1793C168.623 50.1793 168.309 50.0486 168.051 49.791C167.794 49.5333 167.663 49.2159 167.663 48.8425C167.663 48.4616 167.794 48.1405 168.051 47.8791Z" fill="black"/>
</g>
</svg>
