<svg width="100" height="100" viewBox="0 0 100 100" fill="none" xmlns="http://www.w3.org/2000/svg">
<path d="M22.4192 49.9271C21.198 50.8798 19.0982 51.5284 17.0602 51.5284C12.0822 51.5284 12.317 47.1291 16.3544 45.9302C16.7739 45.8088 17.2074 45.736 17.6024 45.7232C16.9106 45.4793 16.0599 44.9174 16.1207 44.1959C16.3053 42.0952 19.9232 40.8373 21.8863 41.0558C24.7645 41.3864 24.1229 43.5485 21.6281 44.0988C20.9223 44.2584 21.0344 43.9404 21.5918 43.8803C22.7265 43.7566 24.0984 41.5818 21.8384 41.3506C19.9126 41.1679 17.3418 42.3299 17.059 43.893C16.726 45.81 19.8367 45.2007 19.652 46.0678C19.5036 46.5557 17.9717 46.0053 16.4046 46.4458C13.8233 47.1534 12.8604 51.2613 17.1081 51.2613C19.0117 51.2613 20.851 50.4173 21.912 49.5987C22.8246 48.8877 23.2699 48.0333 22.5921 47.8761C22.0242 47.7408 22.4437 47.5188 22.8504 47.7176C23.7525 48.1662 23.5059 49.0831 22.4192 49.9271Z" fill="#6E6E6E"/>
<path d="M24.5996 50.7828C24.4267 50.8568 24.2526 50.9066 24.0925 50.9066C22.5979 50.9066 22.883 49.2058 23.4743 49.1839C23.8073 48.5607 24.2163 47.7652 24.5377 47.0692C24.7597 46.5929 25.129 46.0784 25.5625 46.0171C25.7471 45.9928 25.8955 46.0171 26.0194 46.0795C26.2414 46.1894 26.1923 46.3975 25.9692 46.2876C25.8465 46.2391 25.698 46.2136 25.5742 46.2738C25.0063 46.542 25.129 47.386 25.3159 47.8265C25.5123 48.2913 25.7834 48.7295 25.7588 49.2694C25.7331 49.7434 25.3639 50.3077 24.8824 50.6245L24.9689 50.6383C25.3884 50.6973 25.7693 50.4418 26.0802 50.0741C26.363 49.733 26.7462 48.9746 27.0068 48.4751C27.0688 48.3537 27.2534 48.4254 27.1914 48.548C26.7357 49.5608 25.9937 51.2002 24.5996 50.7828ZM23.7594 49.7319C23.3645 50.1227 23.5246 50.6961 24.006 50.6961C24.0925 50.6961 24.1789 50.6846 24.2526 50.6487C23.992 50.4915 23.784 50.1978 23.7594 49.7319ZM24.845 46.9467C24.512 47.608 23.9803 48.6717 23.6835 49.207C23.6835 49.207 23.9546 49.1954 23.9441 49.6001C23.9183 50.0625 24.1789 50.4059 24.4617 50.5401C24.7328 50.3319 24.9689 49.9169 25.0051 49.2706C25.0413 48.4994 24.748 47.4947 24.845 46.9467Z" fill="#6E6E6E"/>
<path d="M30.0144 46.4871H29.2981C28.8809 47.1947 28.3855 47.841 27.6575 48.5035C27.5453 48.8191 27.3724 49.7475 27.3724 49.7475C27.1877 50.5695 27.7556 50.6782 28.1646 50.3846C28.7325 49.9695 29.1392 49.1995 29.4722 48.5393C29.5704 48.3208 29.7574 48.3682 29.6323 48.6121C29.0889 49.7371 28.8809 50.0666 28.4229 50.5175C27.7568 51.1523 26.5333 50.9465 26.718 49.603C26.8302 48.7717 27.2882 47.4398 27.6832 46.4871H27.0393C26.9049 46.4871 26.9295 46.2177 27.065 46.2177H27.807C28.0898 45.6072 28.4007 45.0083 28.708 44.4823C29.5599 43.0047 30.892 43.2116 29.9794 45.1679C29.8064 45.5344 29.6323 45.8755 29.4477 46.2177H30.0413C30.1629 46.2177 30.1383 46.4871 30.0144 46.4871ZM28.4334 46.4871C28.1751 47.086 27.9403 47.6837 27.7697 48.1104C28.2371 47.6363 28.6577 47.0733 29.0153 46.4871H28.4334ZM29.4348 44.4337C29.138 44.8499 28.8669 45.5217 28.5584 46.2177H29.1743C29.4091 45.8038 29.6195 45.3748 29.7924 44.9713C30.0285 44.458 30.2002 43.3712 29.4348 44.4337Z" fill="#6E6E6E"/>
<path d="M32.3161 49.2329C32.1934 49.515 31.8089 50.5405 32.3897 50.5405C33.0078 50.5405 33.7253 49.0271 33.9824 48.5126C34.0806 48.294 34.2792 48.3415 34.1671 48.5866C33.8702 49.271 33.1562 50.8585 32.1676 50.8585C31.969 50.8585 31.7727 50.7613 31.6102 50.5289C31.4759 50.3208 31.3777 49.9555 31.5004 49.4537C31.1288 50.0526 30.5492 51.0296 29.6973 50.8087C28.5358 50.4931 29.2159 48.523 30.1169 47.4512C30.8063 46.6557 31.8814 46.228 32.7718 46.7402C33.3654 45.6291 33.9088 44.5053 34.2056 43.8439C34.4405 43.2947 34.6485 43.1722 35.0435 43.2092C35.2059 43.2219 35.3905 43.2832 35.5751 43.2589C35.2059 43.6011 33.0324 47.5483 32.3161 49.2329ZM30.0432 48.8895C29.2287 50.4075 29.9696 51.1637 31.0201 49.6977C31.477 49.0606 32.0929 48.0108 32.6748 46.9367C32.0555 46.3367 30.6976 47.6952 30.0432 48.8895Z" fill="#6E6E6E"/>
<path d="M34.988 51.027C34.7029 51.027 34.5182 50.8062 34.5661 50.5252C34.6047 50.2454 34.877 50.0234 35.1598 50.0234C35.432 50.0234 35.6295 50.2443 35.5793 50.5252C35.529 50.805 35.2708 51.027 34.988 51.027Z" fill="#6E6E6E"/>
<path d="M68.4463 44.7319L64.7537 51.4262C64.631 51.5002 64.2606 51.5002 64.1098 51.5118C64.0864 51.5118 64.0257 51.4886 64 51.4886L63.9883 51.4146C65.1113 49.448 66.2086 47.4813 67.321 45.5262C66.6912 46.0881 66.0356 46.5888 65.3076 47.0304H65.2597L65.2094 46.931L65.234 46.8581C66.0601 46.2338 66.7881 45.7089 67.4939 44.9759C67.6283 44.8291 67.8387 44.599 68.049 44.5724L68.4323 44.5365C68.4568 44.5238 68.4825 44.5366 68.5071 44.5481V44.6105L68.4463 44.7319Z" fill="#6E6E6E"/>
<path d="M68.7695 51.7584H68.6948L68.6328 51.6474L68.6831 51.5746C70.5224 50.2901 71.8919 48.6159 72.4598 46.418C72.5334 46.1371 72.586 45.8307 72.586 45.537C72.586 45.0838 72.4236 44.693 71.9059 44.693C70.7327 44.693 69.5349 46.477 69.5349 47.5534C69.5349 47.9419 69.7196 48.2355 70.1508 48.2355C71.0155 48.2355 71.5589 47.21 71.844 46.5383L71.8919 46.5036L72.0286 46.5151L72.0403 46.5753C71.6956 47.4551 70.7946 48.9477 69.7079 48.9477C69.14 48.9477 68.8291 48.5304 68.8291 47.995C68.8291 46.6123 70.6965 44.4375 72.1163 44.4375C72.9682 44.4375 73.3234 45.1705 73.3234 45.9151C73.3234 48.1904 70.5341 50.608 68.7695 51.7584Z" fill="#6E6E6E"/>
<path d="M80.4032 44.7076C79.6389 45.5759 78.7988 46.406 77.9843 47.2477C77.0097 48.2628 76.0947 49.3369 75.2183 50.4364C75.1318 50.5359 74.4646 51.403 74.3921 51.425C74.1795 51.5244 73.7483 51.5244 73.5017 51.5487L73.4281 51.5105L73.4141 51.4631C73.5368 50.9868 78.8478 46.0013 79.4531 45.4394C78.7987 45.4256 78.1432 45.3897 77.4876 45.3897C76.4009 45.3897 76.3892 46.2453 76.0176 46.2696L75.9837 46.2453V46.1725C76.6498 44.8775 76.908 44.5839 78.3781 44.5839C78.96 44.5839 79.5513 44.5977 80.1309 44.6683C80.1811 44.6324 80.3155 44.5469 80.3798 44.5469L80.4277 44.6209L80.4032 44.7076Z" fill="#6E6E6E"/>
<path d="M82.5214 45.4231L81.1635 47.7586C81.6204 47.4511 82.2608 47.2071 82.8182 47.2071C83.4959 47.2071 84.0533 47.5378 84.0533 48.2708C84.0533 49.9577 81.6204 51.6422 80.0522 51.6422C79.8173 51.6422 79.3721 51.6306 79.1758 51.4954V51.4098L79.2494 51.3242L79.2997 51.3C79.5345 51.3855 79.8173 51.411 80.0639 51.411C81.4475 51.411 83.2272 49.6767 83.2272 48.3078C83.2272 47.806 82.9304 47.5239 82.4244 47.5239C81.8191 47.5239 81.3131 47.9528 80.7942 48.2084L80.7195 48.1852V48.1112C80.8316 47.7817 82.5342 44.8508 82.6955 44.7144C83.4492 44.4092 84.7954 44.9826 85.5351 44.4219L85.5853 44.4462C85.1389 45.6324 83.5602 45.4856 82.5214 45.4231Z" fill="#6E6E6E"/>
<path d="M50.0012 100L49.6635 99.8832C49.1516 99.7098 37.0326 95.4343 24.7569 82.1313C13.4641 69.8943 0 47.3847 0 9.63905V8.99853L0.584276 8.71989C0.768907 8.63318 19.2718 0 48.9542 0L50.0082 0.00462217L51.0494 0C80.7271 0 99.2346 8.63318 99.4157 8.71989L100 8.99853V9.63905C100 47.3847 86.5406 69.8943 75.2478 82.1313C62.9709 95.4343 50.8507 99.7087 50.3401 99.8832L50.0012 100ZM2.06016 10.2981C2.21558 46.9939 15.2928 68.8584 26.2761 80.7566C37.0852 92.4698 47.9632 97.0471 50.0012 97.8322C52.0426 97.0402 62.9931 92.4213 73.8069 80.6699C84.7528 68.774 97.7845 46.9292 97.9399 10.2981C94.6072 8.86903 77.3056 2.03719 51.0482 2.03719L50.007 2.04182L48.953 2.03719C22.6933 2.03835 5.39053 8.86903 2.06016 10.2981Z" fill="#6E6E6E"/>
<path d="M49.9994 21.7737C78.3356 21.5818 96.0965 28.4321 97.5805 29.8184C98.4686 23.6213 98.9688 16.9143 98.9688 9.63499C98.9688 9.63499 80.4133 0.813371 50.0006 1.01917C19.589 0.813371 1.03125 9.63499 1.03125 9.63499C1.03125 16.9143 1.53138 23.6213 2.42065 29.8184C3.90355 28.4321 21.6597 21.5818 49.9994 21.7737Z" fill="#6E6E6E"/>
<path d="M17.6183 8.74709C17.7503 9.36795 17.8812 9.98998 18.0133 10.6108C17.6978 10.6733 17.3857 10.738 17.0702 10.8039C17.2233 11.5127 17.3787 12.2249 17.533 12.9336C18.4807 12.7382 19.4319 12.5497 20.3842 12.3694C20.2429 11.6572 20.1038 10.945 19.9624 10.2293C19.6633 10.2871 19.3641 10.3449 19.0626 10.4027C18.9376 9.7807 18.809 9.15868 18.6817 8.53665C20.3527 8.21293 22.0296 7.91233 23.7123 7.64062C23.8174 8.26727 23.925 8.89391 24.0313 9.52056C23.7345 9.56796 23.4377 9.61536 23.1432 9.66508C23.5066 11.7265 23.8642 13.788 24.2229 15.8529C24.5081 15.8032 24.7909 15.7581 25.076 15.7107C25.1812 16.3374 25.284 16.964 25.3892 17.5918C23.814 17.8473 22.2446 18.1237 20.6811 18.4301C20.556 17.8046 20.4322 17.1837 20.3071 16.5605C20.5946 16.5039 20.882 16.4495 21.1695 16.3952C21.0328 15.683 20.8938 14.9685 20.7547 14.2551C19.8117 14.4332 18.8745 14.6181 17.9385 14.8112C18.0916 15.5211 18.2423 16.2322 18.3954 16.9444C18.6969 16.8796 18.9984 16.8183 19.2987 16.7582C19.4284 17.3814 19.5569 18.0023 19.6866 18.6266C18.1278 18.9399 16.5736 19.2764 15.0288 19.6371C14.8804 19.0185 14.732 18.4023 14.5836 17.7826C14.8512 17.7202 15.1152 17.6589 15.3828 17.5988C14.9037 15.5616 14.42 13.5244 13.9339 11.4872C13.6557 11.5497 13.3788 11.6144 13.103 11.678C12.9499 11.0617 12.7992 10.4455 12.6484 9.82694C14.2973 9.44194 15.9543 9.08122 17.6183 8.74709Z" fill="white"/>
<path d="M31.6805 16.7049C31.6034 16.0794 31.5251 15.4539 31.4503 14.8284C31.9177 14.7729 32.3887 14.7197 32.8584 14.6666C32.717 14.3544 32.5757 14.0399 32.4319 13.7266C31.4141 13.8411 30.3963 13.9659 29.3785 14.0977C29.3166 14.4376 29.2593 14.7764 29.2009 15.1129C29.5865 15.0608 29.9698 15.0134 30.3554 14.9637C30.4372 15.588 30.5178 16.2124 30.5996 16.8367C29.0525 17.0333 27.5053 17.2529 25.964 17.4957C25.8635 16.8737 25.7607 16.2528 25.6602 15.6308C25.9932 15.5776 26.3262 15.5279 26.6616 15.4759C26.997 13.2884 27.3604 11.1021 27.7507 8.91574C27.538 8.94349 27.3312 8.97471 27.1185 9.00362C27.0273 8.39085 26.9339 7.77691 26.8427 7.16183C28.8351 6.87972 30.8368 6.63114 32.8386 6.42188C34.0644 9.03946 35.2399 11.6732 36.3629 14.3174C36.71 14.2873 37.057 14.2573 37.4041 14.2284C37.4567 14.8573 37.5093 15.484 37.5619 16.1129C35.5952 16.2736 33.6367 16.469 31.6805 16.7049ZM31.6735 12.0698C31.2143 11.0766 30.7515 10.0846 30.2794 9.09726C30.0808 10.169 29.8868 11.2408 29.6975 12.3114C30.3577 12.2282 31.0145 12.1449 31.6735 12.0698Z" fill="white"/>
<path d="M42.5496 5.6875C42.5788 6.32108 42.6092 6.95582 42.6408 7.58825C42.3194 7.60328 41.9992 7.61831 41.6779 7.63565C41.7901 9.72024 41.901 11.8037 42.0132 13.8871C42.3194 13.8721 42.6291 13.857 42.9376 13.8443C42.9668 14.4837 42.9972 15.1219 43.0264 15.7601C41.3962 15.8341 39.7673 15.9335 38.1418 16.0595C38.0916 15.4213 38.039 14.7843 37.9887 14.1461C38.3019 14.123 38.6139 14.0998 38.9271 14.0767C38.774 11.9944 38.6186 9.91101 38.4644 7.8322C38.1383 7.85533 37.8111 7.87961 37.4874 7.90273C37.4349 7.27031 37.3823 6.63787 37.332 6.00544C39.0697 5.87132 40.8085 5.76728 42.5496 5.6875Z" fill="white"/>
<path d="M48.4531 5.53146C52.1153 5.5118 52.793 6.8865 52.7603 8.52018C52.7369 9.64745 51.7764 10.4198 50.5132 10.5886C51.5661 10.7366 52.4951 11.6187 52.4776 12.6581C52.4659 13.2767 52.5512 13.6397 52.8176 13.6455C53.0431 13.649 53.167 13.4767 53.174 13.1888C53.1763 13.0304 53.181 12.872 53.1833 12.7125C53.5187 12.7206 53.8541 12.7275 54.1895 12.7368C54.1825 13.0015 54.1731 13.2663 54.1661 13.5299C54.1322 14.7288 53.5841 15.8191 51.954 15.7949C50.0294 15.774 49.0958 14.7936 49.0817 13.1044C49.0747 11.791 48.9065 11.4707 47.5568 11.4904C47.5685 12.235 47.5813 12.9796 47.5907 13.7253C47.8968 13.7195 48.1995 13.716 48.5033 13.7126C48.508 14.3485 48.515 14.9844 48.522 15.618C46.9339 15.6341 45.347 15.6723 43.7613 15.7382C43.7368 15.1023 43.7087 14.4676 43.6842 13.8351C43.9623 13.8236 44.2416 13.8132 44.5197 13.8039C44.4426 11.7078 44.3643 9.61392 44.2872 7.51777C43.9974 7.52818 43.7075 7.53744 43.4177 7.549C43.3909 6.92119 43.3628 6.29107 43.3359 5.66095C45.0409 5.59042 46.7458 5.54996 48.4531 5.53146ZM47.5311 9.87291C47.7613 9.86944 47.9891 9.86712 48.2205 9.8625C49.1086 9.85325 49.6905 9.44975 49.6882 8.68552C49.6882 7.83342 49.174 7.39985 48.2684 7.41141C48.0102 7.41257 47.7531 7.41487 47.4925 7.42065C47.5053 8.23807 47.517 9.05549 47.5311 9.87291Z" fill="white"/>
<path d="M64.2967 14.4552C63.183 15.4403 61.5809 16.2589 59.6586 16.1375C56.5596 15.9455 54.5439 13.9419 54.6234 10.7219C54.7028 7.40138 57.4992 5.496 59.5733 5.62317C61.1509 5.71683 61.7936 6.57933 61.9198 6.7597C62.0612 6.50071 62.2002 6.24174 62.344 5.9816C63.1631 6.04288 63.9846 6.10993 64.8061 6.18509C64.6764 7.54475 64.5455 8.90442 64.4205 10.2652C63.5079 10.1832 62.594 10.108 61.6837 10.0421C61.7095 9.10443 61.2818 8.18759 60.1798 8.11706C59.0615 8.04769 58.2646 9.29405 58.1828 10.8653C58.1126 12.292 58.8056 13.6089 60.2207 13.7014C61.4687 13.7823 62.5602 12.5984 62.7109 12.4654C63.2461 13.1256 63.7755 13.7893 64.2967 14.4552Z" fill="white"/>
<path d="M70.5244 6.81134C70.4403 7.42758 70.3596 8.04151 70.2778 8.65775C69.9997 8.62307 69.7204 8.58722 69.4423 8.55485C69.3149 9.58732 69.1841 10.6163 69.052 11.6476C68.7669 13.9554 69.2413 14.5034 70.189 14.6259C71.0923 14.745 71.7292 14.486 72.0902 12.0292C72.2387 11.0175 72.3894 10.0093 72.5378 8.99999C72.2597 8.96183 71.9804 8.92367 71.7046 8.88668C71.7934 8.25771 71.8846 7.62876 71.9722 7.00096C73.5124 7.20907 75.0467 7.43568 76.5775 7.68657C76.47 8.29819 76.3672 8.91096 76.262 9.52258C75.9862 9.47748 75.7069 9.43239 75.4311 9.38961C75.2372 10.5435 75.0478 11.6962 74.8585 12.8489C74.293 16.2272 72.6103 17.5048 69.8805 17.1464C66.9568 16.6839 65.5253 15.0237 65.8549 11.7609C65.9776 10.5805 66.1038 9.39655 66.2288 8.21609C65.939 8.18719 65.6492 8.15829 65.3594 8.13286C65.4236 7.50968 65.4844 6.8888 65.5463 6.26562C67.2092 6.42171 68.8686 6.60438 70.5244 6.81134Z" fill="white"/>
<path d="M86.4826 13.4728C85.7523 13.3017 85.0196 13.134 84.2869 12.9745C84.4213 12.3733 84.5627 11.7732 84.6994 11.1732C84.2752 11.0795 83.8499 10.9882 83.4234 10.898C82.9735 12.9398 82.5259 14.9793 82.0842 17.0211C82.4886 17.1055 82.8894 17.1922 83.2913 17.2801C83.1523 17.9056 83.0132 18.5299 82.8718 19.1543C81.0921 18.7646 79.3019 18.4074 77.5058 18.0813C77.6227 17.4512 77.7407 16.8222 77.8576 16.1921C78.2596 16.265 78.6592 16.339 79.06 16.4141C79.462 14.3665 79.8651 12.3155 80.2741 10.269C79.8359 10.187 79.4001 10.1049 78.9619 10.0239C78.845 10.6309 78.7316 11.2356 78.6171 11.8414C77.8751 11.705 77.1377 11.5767 76.3945 11.4541C76.6095 10.2228 76.8234 8.98914 77.0408 7.75781C80.5102 8.3359 83.9586 9.02614 87.3778 9.8239C87.0786 11.039 86.7794 12.2565 86.4826 13.4728Z" fill="white"/>
<path d="M92.0105 15.4062L91.8843 17.1868L93.2959 18.2955L91.5466 18.7268L90.9121 20.3952L89.9586 18.8829L88.1602 18.8042L89.3194 17.4399L88.8379 15.7207L90.5089 16.389L92.0105 15.4062Z" fill="white"/>
<path d="M7.98073 15.4062L8.10576 17.1868L6.69531 18.2955L8.44582 18.7268L9.07799 20.3952L10.0327 18.8829L11.8334 18.8042L10.6742 17.4399L11.1557 15.7207L9.48467 16.389L7.98073 15.4062Z" fill="white"/>
<path d="M47.719 43.5307L53.7826 50.1764C53.9194 50.3279 54.1367 50.3568 54.2641 50.2446C54.3891 50.1313 54.3809 49.9174 54.243 49.7683L48.1783 43.1214C48.0392 42.97 47.8242 42.9399 47.6992 43.052C47.573 43.1665 47.58 43.3781 47.719 43.5307Z" fill="#6E6E6E"/>
<path d="M46.8079 44.3443L52.8727 50.9888C53.0094 51.138 53.2244 51.1692 53.3518 51.057C53.4791 50.9437 53.4686 50.7298 53.3331 50.5807L47.2683 43.9338C47.1292 43.7835 46.9142 43.7511 46.7892 43.8656C46.6618 43.9766 46.6712 44.1917 46.8079 44.3443Z" fill="#6E6E6E"/>
<path d="M45.9063 45.1571L51.9687 51.8028C52.1078 51.9543 52.3228 51.9832 52.4502 51.871C52.5752 51.7554 52.5694 51.5415 52.4268 51.3924L46.3644 44.7467C46.2276 44.5952 46.0126 44.5651 45.8853 44.6761C45.7602 44.7917 45.7684 45.0045 45.9063 45.1571Z" fill="#6E6E6E"/>
<path d="M45.0153 45.9619L51.0789 52.6064C51.2168 52.7579 51.4318 52.7868 51.5568 52.6746C51.6842 52.559 51.676 52.3474 51.5358 52.196L45.4733 45.5526C45.3366 45.4011 45.1216 45.3687 44.9942 45.4809C44.8692 45.5954 44.8785 45.8104 45.0153 45.9619Z" fill="#6E6E6E"/>
<path d="M44.1088 46.7787L50.1748 53.4256C50.3115 53.577 50.5265 53.6083 50.6539 53.4938C50.7789 53.3782 50.7708 53.1666 50.6329 53.0151L44.5704 46.3718C44.429 46.2191 44.214 46.1902 44.089 46.3024C43.9628 46.4122 43.9721 46.6273 44.1088 46.7787Z" fill="#6E6E6E"/>
<path d="M43.1954 47.5796L49.2602 54.223C49.3993 54.3767 49.6143 54.4056 49.7416 54.2935C49.8667 54.1802 49.8585 53.9663 49.7183 53.8125L43.6558 47.1691C43.5168 47.0165 43.3018 46.9864 43.1767 47.0998C43.0494 47.2154 43.0564 47.4293 43.1954 47.5796Z" fill="#6E6E6E"/>
<path d="M42.2778 48.3936L48.3414 55.037C48.4781 55.1885 48.6955 55.2174 48.8228 55.1076C48.9479 54.9919 48.9397 54.778 48.8018 54.6266L42.7359 47.9832C42.5992 47.8294 42.3841 47.7982 42.2568 47.9127C42.1317 48.0271 42.1387 48.2422 42.2778 48.3936Z" fill="#6E6E6E"/>
<path d="M41.3678 49.2035L47.4314 55.8469C47.5682 55.9983 47.7832 56.0295 47.9105 55.9151C48.0356 55.8018 48.0274 55.5879 47.8895 55.4364L41.8247 48.793C41.688 48.6416 41.473 48.6127 41.3456 48.7225C41.2217 48.837 41.2288 49.0497 41.3678 49.2035Z" fill="#6E6E6E"/>
<path d="M40.4788 50.0165L46.5448 56.6622C46.6815 56.8136 46.8989 56.8425 47.0239 56.7281C47.1513 56.6171 47.1407 56.4032 47.0052 56.2494L40.9393 49.606C40.8025 49.4546 40.5875 49.4234 40.4601 49.5378C40.3351 49.6511 40.3421 49.865 40.4788 50.0165Z" fill="#6E6E6E"/>
<path d="M39.5756 50.8202L45.6392 57.4636C45.7759 57.615 45.9909 57.6462 46.116 57.5341C46.2433 57.4208 46.2352 57.2046 46.0973 57.0531L40.0313 50.4097C39.8946 50.2583 39.6796 50.2294 39.5546 50.3415C39.4272 50.4548 39.4365 50.6687 39.5756 50.8202Z" fill="#6E6E6E"/>
<path d="M38.6579 51.632L44.7203 58.2777C44.8594 58.4292 45.0744 58.4581 45.1994 58.3459C45.3268 58.2326 45.3186 58.0187 45.1807 57.8673L39.1148 51.2216C38.9781 51.0724 38.763 51.0412 38.638 51.1533C38.5095 51.2666 38.5176 51.4829 38.6579 51.632Z" fill="#6E6E6E"/>
<path d="M37.7549 52.4351L43.8185 59.0831C43.9553 59.2345 44.1726 59.2634 44.2977 59.1536C44.425 59.038 44.4168 58.8218 44.2766 58.6726L38.213 52.0269C38.0739 51.8755 37.8613 51.8466 37.7362 51.9587C37.6065 52.0709 37.6159 52.2859 37.7549 52.4351Z" fill="#6E6E6E"/>
<path d="M36.8306 53.2495L42.8965 59.8929C43.0333 60.0444 43.2483 60.0756 43.3756 59.9634C43.5007 59.8501 43.4925 59.6339 43.3546 59.4825L37.2898 52.8414C37.1508 52.6899 36.9381 52.6587 36.8107 52.7686C36.6868 52.883 36.6938 53.0981 36.8306 53.2495Z" fill="#6E6E6E"/>
<path d="M35.9409 54.0617L42.0068 60.7097C42.1435 60.8589 42.3586 60.8878 42.4836 60.7757C42.611 60.6624 42.604 60.4485 42.4649 60.2993L36.4001 53.6536C36.2611 53.4998 36.046 53.4709 35.921 53.5854C35.7948 53.6964 35.8041 53.9126 35.9409 54.0617Z" fill="#6E6E6E"/>
<path d="M35.0354 54.8726L41.0979 61.5183C41.237 61.6697 41.452 61.7009 41.577 61.5888C41.7067 61.4755 41.6985 61.2593 41.5583 61.1101L35.4947 54.4644C35.358 54.313 35.1429 54.2841 35.0156 54.3962C34.8894 54.5095 34.8964 54.7211 35.0354 54.8726Z" fill="#6E6E6E"/>
<path d="M34.1333 55.6882L40.1969 62.3339C40.3359 62.483 40.5486 62.5143 40.676 62.3998C40.8022 62.2865 40.7929 62.0749 40.6561 61.9235L34.5913 55.2801C34.4546 55.1263 34.2396 55.0951 34.1122 55.2096C33.9872 55.3205 33.9942 55.5368 34.1333 55.6882Z" fill="#6E6E6E"/>
<path d="M33.2143 56.493L39.2803 63.1364C39.417 63.2879 39.6343 63.3168 39.7594 63.2047C39.8867 63.0937 39.8774 62.8775 39.7383 62.726L33.6735 56.0826C33.5368 55.9312 33.3218 55.8999 33.1944 56.0144C33.0682 56.1277 33.0776 56.3427 33.2143 56.493Z" fill="#6E6E6E"/>
<path d="M32.31 57.3039L38.3736 63.9496C38.5103 64.0987 38.7253 64.1299 38.8503 64.0178C38.9777 63.9022 38.9695 63.6906 38.8317 63.5391L32.7657 56.8934C32.629 56.7443 32.414 56.7131 32.2889 56.8252C32.1616 56.9374 32.1709 57.1501 32.31 57.3039Z" fill="#6E6E6E"/>
<path d="M31.4068 58.1092L37.4716 64.7549C37.6106 64.9064 37.8233 64.9353 37.953 64.8209C38.078 64.7076 38.0699 64.496 37.9296 64.3445L31.8672 57.6988C31.7281 57.5473 31.5131 57.5184 31.3881 57.6306C31.2607 57.7427 31.2666 57.9578 31.4068 58.1092Z" fill="#6E6E6E"/>
<path d="M30.5114 58.9232L36.5761 65.5643C36.7152 65.7181 36.9279 65.7493 37.0553 65.6348C37.1826 65.5215 37.1744 65.3076 37.0342 65.1562L30.9717 58.5128C30.8303 58.3613 30.6177 58.3301 30.4903 58.4422C30.3653 58.5579 30.3746 58.7718 30.5114 58.9232Z" fill="#6E6E6E"/>
<path d="M29.5939 59.7359L35.6563 66.3793C35.7954 66.5307 36.0104 66.5619 36.1377 66.4498C36.2639 66.3342 36.2569 66.1203 36.1179 65.9688L30.0543 59.3231C29.9175 59.174 29.7025 59.1428 29.5752 59.2549C29.4478 59.3705 29.4548 59.5844 29.5939 59.7359Z" fill="#6E6E6E"/>
<path d="M28.6926 60.5489L34.7574 67.19C34.8941 67.3438 35.1091 67.375 35.2365 67.2605C35.3627 67.1449 35.3533 66.9333 35.2166 66.7819L29.1518 60.1385C29.0128 59.9847 28.8001 59.9558 28.6727 60.0679C28.5442 60.1812 28.5536 60.3986 28.6926 60.5489Z" fill="#6E6E6E"/>
<path d="M27.7811 61.3423L33.8447 67.988C33.9837 68.1394 34.1987 68.1707 34.3238 68.0585C34.4512 67.9452 34.443 67.729 34.3027 67.5799L28.2403 60.9342C28.1013 60.7827 27.8862 60.7515 27.7588 60.866C27.635 60.9781 27.6443 61.1908 27.7811 61.3423Z" fill="#6E6E6E"/>
<path d="M26.8564 62.1628L32.92 68.8085C33.0591 68.9576 33.2741 68.9888 33.3992 68.879C33.5265 68.7657 33.5183 68.5495 33.3781 68.398L27.3145 61.7523C27.1778 61.6032 26.9628 61.572 26.8354 61.6864C26.708 61.7986 26.7185 62.0113 26.8564 62.1628Z" fill="#6E6E6E"/>
<path d="M66.6751 26.6019L72.7375 33.2476C72.8789 33.3968 73.0916 33.4291 73.2213 33.3147C73.3463 33.2002 73.3381 32.9875 73.1979 32.836L67.1355 26.1915C66.9964 26.04 66.7837 26.01 66.6564 26.1233C66.529 26.2366 66.5383 26.4505 66.6751 26.6019Z" fill="#6E6E6E"/>
<path d="M65.7699 27.4222L71.8335 34.0656C71.9726 34.2171 72.1876 34.2495 72.315 34.135C72.44 34.0217 72.4318 33.8066 72.2916 33.6563L66.2292 27.0118C66.0901 26.8603 65.8751 26.8303 65.75 26.9436C65.6215 27.0569 65.6332 27.2708 65.7699 27.4222Z" fill="#6E6E6E"/>
<path d="M64.8543 28.2261L70.9203 34.8718C71.057 35.0221 71.2744 35.0533 71.3994 34.94C71.5268 34.8255 71.5186 34.6116 71.3784 34.4602L65.3148 27.8157C65.1757 27.6653 64.963 27.6353 64.8357 27.7474C64.7083 27.8607 64.7188 28.0746 64.8543 28.2261Z" fill="#6E6E6E"/>
<path d="M63.9405 29.0295L70.0029 35.6763C70.142 35.8266 70.357 35.8579 70.4843 35.7457C70.6117 35.6313 70.6012 35.4185 70.4633 35.2659L64.3997 28.6202C64.263 28.4687 64.0456 28.4398 63.9206 28.5543C63.7897 28.6653 63.7991 28.878 63.9405 29.0295Z" fill="#6E6E6E"/>
<path d="M63.0266 29.8449L69.0926 36.4894C69.2269 36.6409 69.4443 36.6698 69.5717 36.5599C69.6967 36.4443 69.6885 36.2304 69.5495 36.079L63.4847 29.4321C63.348 29.2818 63.133 29.2529 63.0079 29.365C62.8806 29.4807 62.8899 29.6934 63.0266 29.8449Z" fill="#6E6E6E"/>
<path d="M62.141 30.6579L68.2046 37.3001C68.3414 37.4515 68.5587 37.4839 68.6861 37.3706C68.8111 37.2573 68.8029 37.0423 68.665 36.8908L62.5991 30.2463C62.46 30.0936 62.245 30.0659 62.1176 30.1769C61.9949 30.2925 62.0031 30.5041 62.141 30.6579Z" fill="#6E6E6E"/>
<path d="M61.2342 31.46L67.2978 38.1069C67.4345 38.256 67.6519 38.2872 67.7769 38.1751C67.9019 38.0606 67.8961 37.8479 67.7559 37.6976L61.6911 31.053C61.5544 30.8992 61.337 30.8692 61.212 30.9825C61.0881 31.0958 61.0975 31.312 61.2342 31.46Z" fill="#6E6E6E"/>
<path d="M60.3297 32.2824L66.3921 38.9258C66.5312 39.0772 66.7462 39.1084 66.8736 38.9963C66.9986 38.883 66.9904 38.6656 66.8525 38.5165L60.7889 31.8708C60.6499 31.7182 60.4349 31.6904 60.3075 31.8037C60.1813 31.917 60.1906 32.1321 60.3297 32.2824Z" fill="#6E6E6E"/>
<path d="M59.4041 33.0883L65.4677 39.7305C65.6044 39.882 65.8194 39.9132 65.9468 39.7999C66.0718 39.6866 66.0637 39.4739 65.9258 39.3224L59.8622 32.6767C59.7231 32.5241 59.5081 32.494 59.3807 32.6085C59.2557 32.7195 59.265 32.9368 59.4041 33.0883Z" fill="#6E6E6E"/>
<path d="M58.5044 33.8914L64.568 40.5348C64.707 40.6863 64.9221 40.7152 65.0471 40.6053C65.1745 40.4897 65.1663 40.2758 65.0284 40.1244L58.9624 33.4798C58.8234 33.3284 58.6084 33.2994 58.4833 33.4128C58.3583 33.5261 58.3653 33.74 58.5044 33.8914Z" fill="#6E6E6E"/>
<path d="M57.6025 34.7027L63.6673 41.3484C63.804 41.4987 64.0214 41.5299 64.1464 41.4189C64.2714 41.3033 64.2632 41.0894 64.1254 40.9379L58.0629 34.2922C57.9239 34.1419 57.7089 34.1118 57.5815 34.224C57.4541 34.3373 57.4646 34.55 57.6025 34.7027Z" fill="#6E6E6E"/>
<path d="M56.7029 35.5161L62.7689 42.1629C62.908 42.3121 63.1206 42.341 63.248 42.23C63.3754 42.1167 63.3649 41.9028 63.227 41.7513L57.1645 35.1056C57.0231 34.953 56.8081 34.9253 56.6807 35.0363C56.5569 35.1496 56.5662 35.3646 56.7029 35.5161Z" fill="#6E6E6E"/>
<path d="M55.7947 36.3285L61.8583 42.973C61.9951 43.1245 62.2124 43.1546 62.3374 43.0413C62.4648 42.9303 62.4543 42.714 62.3187 42.5637L56.2551 35.918C56.1137 35.7666 55.8987 35.7365 55.7713 35.8498C55.6463 35.9643 55.6556 36.177 55.7947 36.3285Z" fill="#6E6E6E"/>
<path d="M54.8875 37.1261L60.9523 43.7706C61.0913 43.9221 61.3063 43.9522 61.4337 43.8389C61.5587 43.7256 61.5505 43.5117 61.4103 43.3602L55.3467 36.7157C55.21 36.5642 54.995 36.533 54.8676 36.6463C54.7402 36.7607 54.7484 36.9735 54.8875 37.1261Z" fill="#6E6E6E"/>
<path d="M53.9623 37.939L60.0259 44.5824C60.1627 44.7339 60.3777 44.7662 60.5074 44.6506C60.6301 44.5373 60.6219 44.3234 60.4863 44.172L54.4204 37.5274C54.2813 37.376 54.0687 37.3459 53.9413 37.4592C53.8139 37.5725 53.8233 37.7876 53.9623 37.939Z" fill="#6E6E6E"/>
<path d="M53.0649 38.7495L59.1286 45.3941C59.2699 45.5467 59.4826 45.5779 59.6077 45.4635C59.7374 45.3501 59.7269 45.1362 59.589 44.9836L53.5242 38.3391C53.3851 38.1888 53.1701 38.1587 53.0451 38.2709C52.9212 38.3853 52.9282 38.5981 53.0649 38.7495Z" fill="#6E6E6E"/>
<path d="M52.1624 39.5618L58.2261 46.2075C58.3605 46.3589 58.5778 46.3878 58.7028 46.2769C58.8302 46.1624 58.8232 45.9485 58.6842 45.797L52.6182 39.1513C52.4815 39.001 52.2665 38.971 52.1414 39.0843C52.0117 39.1976 52.0234 39.4103 52.1624 39.5618Z" fill="#6E6E6E"/>
<path d="M51.2544 40.376L57.318 47.0194C57.4571 47.1697 57.6697 47.2009 57.7995 47.0888C57.9245 46.9755 57.9163 46.7604 57.7761 46.6101L51.7125 39.9644C51.5758 39.813 51.3607 39.7841 51.2334 39.8962C51.1072 40.0095 51.1165 40.2223 51.2544 40.376Z" fill="#6E6E6E"/>
<path d="M50.3532 41.1898L56.4168 47.8343C56.5535 47.9835 56.7685 48.0124 56.8959 47.9025C57.0233 47.7892 57.0128 47.5753 56.8749 47.4215L50.8124 40.7782C50.6734 40.6267 50.4607 40.5955 50.3333 40.7088C50.2048 40.8221 50.213 41.0383 50.3532 41.1898Z" fill="#6E6E6E"/>
<path d="M49.4361 42.0002L55.4986 48.6447C55.6353 48.7962 55.8527 48.8274 55.9777 48.713C56.1027 48.5997 56.0969 48.3858 55.9567 48.2343L49.8919 41.5909C49.7552 41.4394 49.5401 41.4082 49.4128 41.5204C49.2877 41.6348 49.2947 41.8499 49.4361 42.0002Z" fill="#6E6E6E"/>
<path d="M48.5276 42.8051L54.5924 49.4497C54.7291 49.6011 54.9418 49.6323 55.0692 49.5179C55.1965 49.4046 55.1884 49.1907 55.0505 49.0369L48.9845 42.3959C48.8478 42.2444 48.6328 42.212 48.5078 42.3265C48.3816 42.4363 48.3886 42.6537 48.5276 42.8051Z" fill="#6E6E6E"/>
<path d="M34.3686 65.269C32.9582 66.527 32.34 68.1283 32.9874 68.8347C33.6383 69.5457 35.3081 69.1006 36.7162 67.8438L73.6436 34.8535C75.0564 33.5921 75.6722 31.9931 75.0225 31.2821C74.3763 30.5745 72.7053 31.0173 71.2948 32.2787L34.3686 65.269Z" fill="#6E6E6E"/>
<path d="M67.5923 25.779L73.6559 32.4247C73.8616 32.649 74.3313 32.5634 74.7018 32.2328C75.0734 31.9033 75.2066 31.4501 74.9986 31.2246L68.9349 24.5789C68.7293 24.3546 68.2619 24.4378 67.8891 24.7685C67.5198 25.1015 67.3878 25.5536 67.5923 25.779Z" fill="#6E6E6E"/>
<path d="M26.8774 62.1554L32.9398 68.7988C33.1478 69.0242 33.6153 68.9387 33.988 68.6068C34.3596 68.275 34.4928 67.8229 34.2848 67.5952L28.2212 60.9541C28.0156 60.7286 27.5482 60.8142 27.1754 61.1437C26.805 61.4755 26.6729 61.9276 26.8774 62.1554Z" fill="#6E6E6E"/>
<path d="M70.4922 32.9745C70.4922 32.9745 72.7148 31.3211 71.7157 30.2286L72.3596 29.6562L74.1264 31.594L71.4329 34L70.4922 32.9745Z" fill="#6E6E6E"/>
<path d="M35.179 64.5312C35.179 64.5312 33.2918 66.5476 32.2939 65.4527L31.6523 66.0262L33.4192 67.9662L36.115 65.5591L35.179 64.5312Z" fill="#6E6E6E"/>
<path d="M75.0469 31.2656C75.6977 31.9767 75.0808 33.5757 73.668 34.8371L36.7405 67.8274C35.3324 69.0853 33.6614 69.5304 33.0117 68.8182L75.0469 31.2656Z" fill="#6E6E6E"/>
<path d="M24.9638 30.6235C24.5501 30.9033 36.2181 39.0485 52.4832 51.2254L51.9655 50.1571L54.2068 47.928C54.2068 47.928 25.2805 30.235 24.9638 30.6235Z" fill="#6E6E6E"/>
<path d="M57.3982 59.6547L57.3865 59.6617C57.4823 59.7704 58.7269 61.1798 58.5481 63.2297C58.3132 64.6032 58.7514 66.1513 59.851 67.3965C60.7064 68.3608 61.8364 68.9886 63.033 69.162C63.9094 69.2903 64.7426 69.1666 65.4636 68.8163C65.5068 68.8568 65.5383 68.9019 65.5909 68.9366C66.0361 69.2048 66.4031 69.5262 66.7478 69.8719C66.9173 70.0476 67.0855 70.2176 67.2339 70.4095C67.3706 70.6084 67.4805 70.8269 67.4922 71.1159C67.5062 71.4258 67.7095 71.7079 68.0192 71.8096C68.4282 71.9472 68.8687 71.7287 69.0054 71.3264C69.1375 70.924 68.9236 70.4904 68.517 70.3529C68.2365 70.2604 68.0542 70.0997 67.8988 69.9124C67.7551 69.7227 67.6336 69.51 67.5109 69.3054C67.2713 68.8833 67.0586 68.4429 66.9219 67.9457C66.9009 67.8624 66.8553 67.7896 66.8097 67.7202C68.0425 66.1062 67.8486 63.6551 66.2488 61.8492C65.3935 60.8826 64.2634 60.2571 63.0668 60.0814C62.7408 60.034 62.4183 60.0224 62.1063 60.0432C59.7166 59.8698 58.5983 58.5529 58.5983 58.5529L58.596 58.5575C56.1338 55.9966 54.2548 53.4021 54.4032 52.7478C54.8578 50.7152 54.2069 47.9219 54.2069 47.9219L50.7305 51.2864L57.3982 59.6547ZM65.3747 62.6065C66.7057 64.1084 66.7992 66.2461 65.5804 67.3641L65.5255 67.4139C64.9178 67.9422 64.0964 68.1596 63.2071 68.0255C62.2804 67.8902 61.4017 67.3953 60.7286 66.6392C59.3953 65.1327 59.3018 62.9996 60.5182 61.8792L60.5755 61.8295C61.1832 61.3035 62.007 61.0861 62.8962 61.2179C63.8206 61.3555 64.7017 61.848 65.3747 62.6065Z" fill="#6E6E6E"/>
<path d="M78.9082 56.9105C78.5798 57.0077 78.3929 57.351 78.4934 57.6759C78.5167 57.7465 78.505 57.8991 78.4863 58.017C78.4641 58.1407 78.4314 58.2679 78.3858 58.3823C78.2923 58.6217 78.1463 58.8344 77.9663 59.0148C77.777 59.1859 77.5597 59.3304 77.3084 59.4148C77.1869 59.4576 77.0548 59.4934 76.9345 59.5189C76.8749 59.5304 76.7908 59.5397 76.7183 59.5478L76.5197 59.5593C75.9646 59.5836 75.3897 59.483 74.8428 59.3131C74.3018 59.1454 73.7385 58.9038 73.298 58.5928C73.2641 58.5685 73.2162 58.5639 73.1765 58.5431C73.2559 57.8413 73.1332 57.1048 72.8107 56.396C72.3129 55.3034 71.3956 54.3993 70.227 53.849C68.7137 53.1356 67.0883 53.1402 65.818 53.7403C63.8759 54.4629 62.164 53.664 62.0343 53.6004L62.032 53.6166L52.4533 49.7122L51.8971 50.7874C40.2104 41.4235 25.1338 30.152 24.9713 30.6237C24.6768 31.0284 49.7505 53.7634 49.7505 53.7634C49.7505 53.7634 52.6461 53.6281 54.496 52.6385C55.0919 52.3205 58.1267 53.4038 61.2864 55.0525L61.2817 55.0549C61.2817 55.0549 62.8698 55.7613 63.6855 57.9904C63.7521 58.2956 63.8502 58.5974 63.9869 58.8957C64.4824 59.9883 65.3997 60.8924 66.5683 61.4427C68.8762 62.5307 71.4505 61.9445 72.6144 60.1259C72.6237 60.1259 72.6307 60.1328 72.6436 60.1374L72.667 60.142C73.3658 60.2658 73.9839 60.3479 74.6395 60.4045C75.2903 60.4519 75.9424 60.4658 76.6026 60.3756C76.6891 60.3687 76.7557 60.3513 76.8586 60.3351C76.9357 60.3189 77.0046 60.3062 77.0888 60.2831C77.2687 60.2403 77.4288 60.1929 77.5936 60.127C77.9103 59.9941 78.2234 59.8241 78.4899 59.5917C78.7633 59.3709 78.997 59.0969 79.1863 58.8032C79.2821 58.6494 79.3709 58.498 79.4469 58.3361C79.524 58.1673 79.5906 58.0262 79.6549 57.8008L79.6935 57.6563C79.7227 57.5499 79.7227 57.4331 79.6864 57.3198C79.5836 56.9915 79.2389 56.8088 78.9082 56.9105ZM67.0672 60.4033C66.1429 59.9721 65.4266 59.268 65.0433 58.4228C64.674 57.61 64.66 56.7672 65.0094 56.0469L65.0433 55.9787C65.7982 54.5149 67.9004 54.0236 69.7245 54.8838C70.6465 55.3196 71.3652 56.0214 71.7508 56.8689C72.1177 57.6771 72.1294 58.5222 71.7847 59.2425L71.7508 59.3084C70.9936 60.7733 68.8913 61.2658 67.0672 60.4033Z" fill="#6E6E6E"/>
<path d="M53.1557 50.3496C53.6512 50.7219 53.7493 51.4202 53.3754 51.9128C53.0015 52.403 52.2957 52.4978 51.8002 52.1255C51.3024 51.7555 51.2042 51.0572 51.5794 50.567C51.9533 50.0768 52.6603 49.9796 53.1557 50.3496Z" fill="#6E6E6E"/>
<path d="M52.9347 50.6493C53.2584 50.8933 53.3226 51.3511 53.076 51.6749C52.8295 51.9974 52.3668 52.0587 52.0419 51.8171C51.7135 51.5731 51.6493 51.1153 51.8958 50.7916C52.1424 50.4655 52.6075 50.4054 52.9347 50.6493Z" fill="white"/>
<path d="M50.1076 75.8754C51.6945 74.2544 53.8399 75.4707 55.0202 75.9817C56.5042 76.628 59.9655 77.3113 60.482 74.5273C60.8513 72.5282 57.5127 73.215 58.5831 74.6105C58.5831 74.6105 57.5127 73.4728 58.7023 72.5063C59.8872 71.5397 61.945 72.9757 61.9065 74.762C61.8702 76.4535 60.7192 79.6873 56.385 80.2723C52.0485 80.8596 50.4476 78.967 49.854 77.8039C49.3948 76.9078 49.8061 76.1852 50.1076 75.8754Z" fill="#6E6E6E"/>
<path d="M50.4741 75.8754C48.8883 74.2544 46.7405 75.4707 45.5626 75.9817C44.0786 76.628 40.615 77.3113 40.1008 74.5273C39.7316 72.5282 43.0678 73.215 41.9974 74.6105C41.9974 74.6105 43.0678 73.4728 41.8782 72.5063C40.6933 71.5397 38.6355 72.9757 38.6764 74.762C38.7103 76.4535 39.8636 79.6873 44.1954 80.2723C48.5319 80.8596 50.134 78.967 50.7276 77.8039C51.1857 76.9078 50.7755 76.1852 50.4741 75.8754Z" fill="#6E6E6E"/>
<path d="M50.2474 82.1328C47.3097 82.1328 47.3693 85.5262 50.2474 89.648C53.1291 85.5262 53.1852 82.1328 50.2474 82.1328Z" fill="#6E6E6E"/>
</svg>
