<svg width="110" height="100" viewBox="0 0 110 100" fill="none" xmlns="http://www.w3.org/2000/svg">
<path d="M49.7738 43.9519L58.5594 51.9525C58.7602 52.1334 59.0441 52.1473 59.1953 51.9815C59.3465 51.8134 59.3061 51.5283 59.1053 51.3474L50.3197 43.3468C50.1189 43.166 49.835 43.1544 49.6861 43.3202C49.5349 43.4883 49.573 43.7711 49.7738 43.9519Z" fill="#6E6E6E"/>
<path d="M48.6967 45.1411L57.4822 53.1394C57.6807 53.3226 57.9669 53.3342 58.1181 53.1661C58.267 52.9992 58.2266 52.7175 58.0281 52.5344L49.2426 44.536C49.0394 44.3529 48.7579 44.3413 48.609 44.5094C48.4555 44.674 48.4958 44.958 48.6967 45.1411Z" fill="#6E6E6E"/>
<path d="M47.6265 46.3276L56.412 54.3282C56.6129 54.5091 56.8968 54.5206 57.048 54.3549C57.1992 54.1868 57.1588 53.9039 56.958 53.7254L48.1724 45.7248C47.9716 45.5417 47.6877 45.5277 47.5365 45.6958C47.3853 45.8639 47.4268 46.1444 47.6265 46.3276Z" fill="#6E6E6E"/>
<path d="M46.5438 47.5321L55.3305 55.5304C55.5313 55.7112 55.8153 55.7251 55.9642 55.5594C56.1154 55.3913 56.0749 55.1085 55.8764 54.9277L47.0874 46.927C46.8889 46.7439 46.605 46.7323 46.4538 46.898C46.3049 47.0661 46.343 47.349 46.5438 47.5321Z" fill="#6E6E6E"/>
<path d="M45.4713 48.7248L54.2579 56.7254C54.4565 56.9062 54.7427 56.9201 54.8916 56.7521C55.0428 56.5863 55.0024 56.3034 54.8016 56.1203L46.0172 48.122C45.8141 47.9389 45.5325 47.9272 45.3813 48.0953C45.2301 48.2622 45.2681 48.5428 45.4713 48.7248Z" fill="#6E6E6E"/>
<path d="M44.395 49.9149L53.184 57.9155C53.3825 58.0964 53.6665 58.108 53.8177 57.9422C53.9689 57.7741 53.9262 57.4913 53.7276 57.3104L44.9433 49.3099C44.7425 49.1267 44.4585 49.1151 44.305 49.2808C44.1561 49.4489 44.1954 49.7318 44.395 49.9149Z" fill="#6E6E6E"/>
<path d="M43.319 51.108L52.108 59.1063C52.3065 59.2894 52.5928 59.301 52.7416 59.133C52.8928 58.9672 52.8524 58.6867 52.6516 58.5012L43.8649 50.5029C43.6664 50.3221 43.3802 50.3105 43.2313 50.4774C43.0824 50.642 43.1205 50.9248 43.319 51.108Z" fill="#6E6E6E"/>
<path d="M42.2476 52.2951L51.032 60.2957C51.2328 60.4765 51.5167 60.4904 51.6679 60.3235C51.8168 60.1578 51.7764 59.8749 51.5779 59.6918L42.7935 51.6912C42.5927 51.5103 42.3065 51.4964 42.1576 51.6668C42.0087 51.8279 42.0445 52.1119 42.2476 52.2951Z" fill="#6E6E6E"/>
<path d="M41.1761 53.4864L49.9652 61.4847C50.1637 61.6655 50.4476 61.6794 50.5988 61.5114C50.75 61.3433 50.7096 61.0604 50.5111 60.8796L41.7244 52.879C41.5213 52.6982 41.2396 52.6842 41.0884 52.8523C40.9372 53.0204 40.9753 53.3032 41.1761 53.4864Z" fill="#6E6E6E"/>
<path d="M40.0917 54.6781L48.8784 62.6764C49.0746 62.8573 49.3608 62.8712 49.512 62.7054C49.6632 62.5362 49.6228 62.2545 49.422 62.0713L40.6353 54.073C40.4345 53.8922 40.1529 53.8806 40.0017 54.0487C39.8505 54.2122 39.8909 54.4973 40.0917 54.6781Z" fill="#6E6E6E"/>
<path d="M39.0214 55.8594L47.8058 63.8577C48.0066 64.0386 48.2905 64.0525 48.4417 63.8867C48.5929 63.7186 48.5525 63.4335 48.3517 63.2527L39.565 55.2543C39.3665 55.0735 39.0825 55.0596 38.9313 55.2254C38.7801 55.3946 38.8205 55.6763 39.0214 55.8594Z" fill="#6E6E6E"/>
<path d="M37.9457 57.0599L46.7324 65.0628C46.9332 65.2437 47.2171 65.2576 47.3683 65.0895C47.5195 64.9237 47.4791 64.6386 47.2783 64.4578L38.4916 56.4571C38.2908 56.2763 38.0092 56.2624 37.858 56.4304C37.7068 56.5985 37.7449 56.879 37.9457 57.0599Z" fill="#6E6E6E"/>
<path d="M36.8752 58.2462L45.6619 66.2492C45.8627 66.43 46.1466 66.4416 46.2978 66.2758C46.4467 66.1078 46.4063 65.8273 46.2078 65.6441L37.4211 57.6458C37.2203 57.4626 36.9386 57.451 36.7851 57.6168C36.6363 57.7826 36.6767 58.0654 36.8752 58.2462Z" fill="#6E6E6E"/>
<path d="M35.7974 59.4537L44.5841 67.452C44.7849 67.6328 45.0688 67.6467 45.22 67.4809C45.3712 67.3128 45.3308 67.0277 45.13 66.8469L36.3433 58.8486C36.1425 58.6654 35.8586 58.6538 35.7074 58.8219C35.5585 58.9865 35.5977 59.2693 35.7974 59.4537Z" fill="#6E6E6E"/>
<path d="M34.7206 60.6394L43.505 68.6401C43.7058 68.8209 43.992 68.8348 44.1409 68.669C44.2921 68.5009 44.2517 68.2158 44.0509 68.035L35.2642 60.0343C35.0634 59.8535 34.7818 59.8419 34.6306 60.0077C34.4794 60.1757 34.5198 60.4586 34.7206 60.6394Z" fill="#6E6E6E"/>
<path d="M33.641 61.8276L42.4277 69.8282C42.6285 70.009 42.9124 70.0206 43.0636 69.8525C43.2125 69.6868 43.1722 69.4039 42.9736 69.2231L34.1869 61.2248C33.9861 61.0417 33.7022 61.0278 33.5533 61.1958C33.4021 61.3616 33.4402 61.6421 33.641 61.8276Z" fill="#6E6E6E"/>
<path d="M32.5619 63.0151L41.3485 71.0134C41.5493 71.1966 41.8333 71.2081 41.9822 71.0424C42.1357 70.8766 42.0953 70.5915 41.8945 70.4106L33.1078 62.4123C32.9069 62.2292 32.6253 62.2153 32.4741 62.3833C32.3229 62.5503 32.3645 62.832 32.5619 63.0151Z" fill="#6E6E6E"/>
<path d="M31.493 64.2016L40.2797 72.2022C40.4805 72.383 40.7645 72.3969 40.9134 72.2289C41.0645 72.0608 41.0242 71.7802 40.8256 71.5971L32.039 63.5965C31.8381 63.4157 31.5542 63.404 31.403 63.5721C31.2541 63.7379 31.2922 64.0207 31.493 64.2016Z" fill="#6E6E6E"/>
<path d="M30.4198 65.399L39.2065 73.3973C39.405 73.5804 39.6912 73.592 39.8401 73.4239C39.9913 73.2559 39.9532 72.9753 39.7524 72.7922L30.9657 64.7939C30.7649 64.6107 30.481 64.5991 30.3298 64.7672C30.1786 64.933 30.219 65.2158 30.4198 65.399Z" fill="#6E6E6E"/>
<path d="M29.3358 66.5868L38.1225 74.5851C38.3233 74.7682 38.6072 74.7775 38.7584 74.6141C38.9073 74.4449 38.8669 74.1632 38.6684 73.98L29.8817 65.9817C29.6809 65.7986 29.3992 65.787 29.2457 65.9527C29.0969 66.1197 29.1384 66.4037 29.3358 66.5868Z" fill="#6E6E6E"/>
<path d="M28.2626 67.7774L37.0493 75.7803C37.2478 75.9612 37.534 75.975 37.6829 75.807C37.8341 75.6389 37.796 75.3561 37.5952 75.1752L28.8062 67.1746C28.6077 66.9938 28.3237 66.9822 28.1725 67.1503C28.0237 67.316 28.0617 67.5965 28.2626 67.7774Z" fill="#6E6E6E"/>
<path d="M27.1879 68.9685L35.9746 76.9668C36.1731 77.1499 36.4593 77.1638 36.6082 76.9957C36.7594 76.8277 36.719 76.5471 36.5205 76.3663L27.7338 68.3634C27.533 68.1825 27.2491 68.1686 27.1002 68.3367C26.949 68.5071 26.987 68.7853 27.1879 68.9685Z" fill="#6E6E6E"/>
<path d="M26.1141 70.1693L34.9008 78.1699C35.0993 78.3507 35.3833 78.3646 35.5345 78.1966C35.6857 78.0308 35.6453 77.748 35.4467 77.5671L26.6578 69.5665C26.4569 69.3857 26.1753 69.3717 26.0241 69.5398C25.8752 69.7044 25.9133 69.9849 26.1141 70.1693Z" fill="#6E6E6E"/>
<path d="M25.0399 71.3599L33.8243 79.3582C34.0251 79.539 34.3113 79.5529 34.4602 79.3872C34.6137 79.2191 34.571 78.9339 34.3725 78.7531L25.5835 70.7548C25.385 70.5717 25.1011 70.5601 24.9499 70.7281C24.801 70.8939 24.8391 71.1767 25.0399 71.3599Z" fill="#6E6E6E"/>
<path d="M72.232 19.0782L81.0164 27.0788C81.2172 27.2596 81.5011 27.2712 81.6523 27.1054C81.8035 26.9374 81.7631 26.6545 81.5623 26.4737L72.7756 18.4731C72.5771 18.2922 72.2931 18.2783 72.1419 18.4441C71.9907 18.611 72.0323 18.8939 72.232 19.0782Z" fill="#6E6E6E"/>
<path d="M71.1615 20.2662L79.9482 28.2645C80.1467 28.4476 80.433 28.4592 80.5819 28.2934C80.7331 28.1277 80.6926 27.8425 80.4941 27.6594L71.7051 19.6611C71.5043 19.4779 71.2227 19.4663 71.0738 19.6344C70.9203 19.8002 70.9607 20.083 71.1615 20.2662Z" fill="#6E6E6E"/>
<path d="M70.0883 21.4522L78.8726 29.4529C79.0735 29.6337 79.3574 29.6476 79.5086 29.4795C79.6598 29.3138 79.6171 29.0286 79.4186 28.8501L70.6319 20.8495C70.431 20.6663 70.1471 20.6524 69.9959 20.8228C69.847 20.9909 69.8874 21.2714 70.0883 21.4522Z" fill="#6E6E6E"/>
<path d="M69.0036 22.6536L77.7903 30.6542C77.9911 30.8351 78.275 30.849 78.4262 30.6821C78.5751 30.5163 78.5347 30.2335 78.3362 30.0527L69.5495 22.052C69.351 21.8689 69.0648 21.8573 68.9159 22.023C68.7647 22.1888 68.8051 22.4717 69.0036 22.6536Z" fill="#6E6E6E"/>
<path d="M67.9294 23.8435L76.7161 31.8418C76.9169 32.025 77.2008 32.0343 77.352 31.8685C77.5009 31.7027 77.4628 31.4199 77.262 31.2367L68.4753 23.2384C68.2745 23.0553 67.9906 23.046 67.8417 23.2106C67.6905 23.3775 67.7309 23.6604 67.9294 23.8435Z" fill="#6E6E6E"/>
<path d="M66.8595 25.031L75.6462 33.0293C75.847 33.2101 76.1309 33.2263 76.2821 33.0582C76.4333 32.8902 76.3907 32.605 76.1922 32.4242L67.4055 24.4259C67.2046 24.245 66.9207 24.2311 66.7695 24.3992C66.6206 24.5673 66.661 24.8501 66.8595 25.031Z" fill="#6E6E6E"/>
<path d="M65.7821 26.2332L74.5688 34.2338C74.7673 34.4146 75.0535 34.4285 75.2047 34.2605C75.3536 34.0924 75.3155 33.8095 75.1147 33.6287L66.328 25.6281C66.1272 25.4472 65.8433 25.4357 65.6921 25.6014C65.5432 25.7683 65.5813 26.0512 65.7821 26.2332Z" fill="#6E6E6E"/>
<path d="M64.705 27.4219L73.4917 35.4225C73.6925 35.6034 73.9764 35.615 74.1253 35.4492C74.2765 35.2811 74.2361 34.9983 74.0352 34.8174L65.2509 26.8168C65.0501 26.636 64.7661 26.6221 64.6149 26.7878C64.4637 26.9559 64.5041 27.2411 64.705 27.4219Z" fill="#6E6E6E"/>
<path d="M63.6289 28.61L72.4179 36.6083C72.6164 36.7891 72.9004 36.803 73.0516 36.635C73.2005 36.4692 73.1624 36.1841 72.9639 36.0032L64.1748 28.0049C63.974 27.8241 63.6901 27.8079 63.5412 27.9783C63.39 28.144 63.4293 28.4245 63.6289 28.61Z" fill="#6E6E6E"/>
<path d="M62.5565 29.7951L71.3432 37.7957C71.5417 37.9789 71.828 37.9904 71.9792 37.8247C72.1281 37.6566 72.0877 37.3738 71.8891 37.1929L63.1024 29.1923C62.9016 29.0092 62.6177 28.9976 62.4665 29.1656C62.3153 29.3326 62.3557 29.6131 62.5565 29.7951Z" fill="#6E6E6E"/>
<path d="M61.4813 30.9838L70.268 38.9844C70.4688 39.1652 70.7505 39.1768 70.904 39.0099C71.0552 38.8441 71.0124 38.5613 70.8139 38.3804L62.0272 30.3798C61.8264 30.1966 61.5425 30.1851 61.3913 30.3532C61.2424 30.5201 61.2805 30.8006 61.4813 30.9838Z" fill="#6E6E6E"/>
<path d="M60.4068 32.1796L69.1912 40.1779C69.3943 40.3588 69.6782 40.3727 69.8271 40.2046C69.9783 40.0388 69.9379 39.7537 69.7371 39.5728L60.9527 31.5745C60.7519 31.3914 60.4679 31.3821 60.3167 31.5456C60.1678 31.7136 60.2071 31.9965 60.4068 32.1796Z" fill="#6E6E6E"/>
<path d="M59.3322 33.3736L68.1189 41.3719C68.3174 41.555 68.6013 41.5689 68.7548 41.4008C68.906 41.2351 68.8633 40.9499 68.6671 40.7691L59.8781 32.7708C59.6773 32.5876 59.3934 32.576 59.2422 32.7418C59.0933 32.9087 59.1337 33.1893 59.3322 33.3736Z" fill="#6E6E6E"/>
<path d="M58.2518 34.5632L67.0385 42.5638C67.237 42.7446 67.521 42.7562 67.6722 42.5882C67.8233 42.4224 67.783 42.1396 67.5844 41.9587L58.7954 33.9581C58.5969 33.7749 58.3107 33.7634 58.1618 33.9303C58.0106 34.0972 58.051 34.3824 58.2518 34.5632Z" fill="#6E6E6E"/>
<path d="M57.1771 35.7574L65.9615 43.7557C66.1623 43.9389 66.4486 43.9505 66.5974 43.7847C66.7486 43.6166 66.7083 43.3338 66.5097 43.1506L57.723 35.1523C57.5222 34.9692 57.2383 34.9599 57.0871 35.1257C56.9371 35.2914 56.9763 35.5743 57.1771 35.7574Z" fill="#6E6E6E"/>
<path d="M56.1012 36.9517L64.8891 44.9524C65.0876 45.1332 65.3715 45.1471 65.5227 44.9791C65.6739 44.8133 65.6335 44.5281 65.435 44.345L56.646 36.3467C56.4475 36.1658 56.1636 36.1542 56.0135 36.3212C55.8623 36.4892 55.9027 36.7698 56.1012 36.9517Z" fill="#6E6E6E"/>
<path d="M55.027 38.1403L63.8149 46.1433C64.0134 46.3218 64.2996 46.3357 64.4485 46.1699C64.5997 46.0007 64.5593 45.719 64.3608 45.5382L55.573 37.5352C55.3721 37.3544 55.0905 37.3405 54.9393 37.5086C54.7881 37.679 54.8285 37.9595 55.027 38.1403Z" fill="#6E6E6E"/>
<path d="M53.9557 39.3267L62.7412 47.3273C62.942 47.5081 63.2236 47.522 63.3748 47.354C63.526 47.1882 63.4856 46.9054 63.2848 46.7245L54.4993 38.7239C54.3008 38.5407 54.0145 38.5292 53.8656 38.6949C53.7144 38.863 53.7525 39.1435 53.9557 39.3267Z" fill="#6E6E6E"/>
<path d="M52.8796 40.5236L61.6651 48.5219C61.866 48.7028 62.1522 48.719 62.3011 48.5486C62.4523 48.3828 62.4119 48.1023 62.2111 47.9168L53.4278 39.9185C53.2247 39.7354 52.9431 39.7238 52.7919 39.8942C52.6384 40.0565 52.6811 40.3393 52.8796 40.5236Z" fill="#6E6E6E"/>
<path d="M51.7934 41.7107L60.5812 49.7112C60.782 49.8921 61.0636 49.906 61.2148 49.7379C61.366 49.5698 61.3256 49.287 61.1248 49.1062L52.3393 41.1056C52.1384 40.9247 51.8545 40.9108 51.7056 41.0789C51.5544 41.247 51.5925 41.5298 51.7934 41.7107Z" fill="#6E6E6E"/>
<path d="M50.7252 42.9082L59.5107 50.9065C59.7092 51.0873 59.9932 51.1012 60.1444 50.9308C60.2956 50.7651 60.2552 50.4845 60.0567 50.3014L51.2688 42.3008C51.068 42.1176 50.784 42.1084 50.6352 42.2741C50.484 42.4422 50.522 42.725 50.7252 42.9082Z" fill="#6E6E6E"/>
<path d="M35.2383 74.477C33.5659 76.3293 32.9704 78.5248 33.911 79.3826C34.8493 80.2358 36.9696 79.4278 38.6431 77.5755L82.4415 29.0513C84.1116 27.1989 84.7071 24.9988 83.7688 24.1456C82.8293 23.2902 80.7103 24.1004 79.0367 25.9505L35.2383 74.477Z" fill="#6E6E6E"/>
<path d="M73.3389 17.847L82.1256 25.8476C82.4257 26.1188 83.0247 25.945 83.4621 25.4558C83.9042 24.9689 84.0161 24.3534 83.7195 24.081L74.9328 16.0827C74.6327 15.8091 74.0337 15.983 73.594 16.4699C73.1508 16.959 73.0411 17.5757 73.3389 17.847Z" fill="#6E6E6E"/>
<path d="M25.056 71.3566L33.8427 79.3572C34.1427 79.6284 34.7418 79.4522 35.1815 78.9677C35.6212 78.4785 35.7355 77.863 35.4366 77.5906L26.6499 69.59C26.3521 69.3164 25.7531 69.4926 25.3134 69.9794C24.8736 70.4674 24.7582 71.0853 25.056 71.3566Z" fill="#6E6E6E"/>
<path d="M78.082 27.014C78.082 27.014 80.7551 24.5345 79.3101 23.2177L80.0718 22.375L82.6329 24.7073L79.4382 28.2462L78.082 27.014Z" fill="#6E6E6E"/>
<path d="M36.181 73.4375C36.181 73.4375 33.988 76.3563 32.5407 75.0383L31.7812 75.881L34.3423 78.2133L37.5359 74.672L36.181 73.4375Z" fill="#6E6E6E"/>
<path d="M83.7719 24.1484C84.7102 25.0016 84.1146 27.2029 82.4446 29.0541L38.6462 77.5783C36.9738 79.4307 34.8524 80.2386 33.9141 79.3854L83.7719 24.1484Z" fill="#6E6E6E"/>
<path d="M29.0069 19.8805C28.4068 20.1842 42.3526 33.284 61.6422 52.6561L61.1528 51.1237L64.5345 48.5399C64.5345 48.5399 29.4986 19.4179 29.0069 19.8805Z" fill="#6E6E6E"/>
<path d="M66.5875 64.9144L66.569 64.9214C66.6729 65.0825 68.0637 67.2084 67.4485 69.9313C66.8807 71.7315 67.1738 73.898 68.4019 75.777C69.3575 77.2283 70.7344 78.2786 72.2902 78.7364C73.4213 79.0714 74.5513 79.0552 75.5704 78.7202C75.62 78.7793 75.6558 78.8489 75.7193 78.901C76.2583 79.3404 76.6888 79.8446 77.0766 80.3732C77.2705 80.6398 77.4644 80.9006 77.6225 81.1858C77.7668 81.4779 77.8707 81.792 77.8326 82.1838C77.7968 82.6 78.0103 83.0173 78.405 83.2143C78.9186 83.4705 79.5431 83.2618 79.7981 82.746C80.0532 82.2302 79.8408 81.6054 79.3318 81.3469C78.9798 81.173 78.7663 80.9192 78.5989 80.641C78.4408 80.3581 78.3219 80.0521 78.195 79.7484C77.9561 79.1398 77.7552 78.5081 77.6675 77.8126C77.6514 77.699 77.6064 77.5935 77.559 77.4892C79.4888 75.5487 79.6896 72.2161 77.9018 69.4932C76.9485 68.0372 75.5715 66.987 74.0157 66.5292C73.5945 66.4051 73.1686 66.3321 72.7508 66.3031C69.6172 65.6285 68.3799 63.6475 68.3799 63.6475L68.3753 63.6567C65.5891 59.7584 63.5832 55.9227 63.8983 55.0719C64.8816 52.4232 64.5342 48.5469 64.5342 48.5469L59.3047 52.4301L66.5875 64.9144ZM76.6022 70.3498C78.0876 72.616 77.8176 75.5046 75.994 76.7867L75.9155 76.8435C75.0118 77.4393 73.8819 77.5819 72.7254 77.2399C71.5262 76.8864 70.4528 76.0599 69.7003 74.9169C68.2149 72.6484 68.4849 69.7621 70.3085 68.4801L70.3917 68.4232C71.2908 67.8274 72.423 67.6872 73.5795 68.0245C74.7786 68.3827 75.852 69.2068 76.6022 70.3498Z" fill="#6E6E6E"/>
<path d="M95.5927 65.1597C95.1391 65.2327 94.8286 65.6628 94.9025 66.1172C94.9186 66.2146 94.8736 66.4186 94.8274 66.5727C94.7732 66.7362 94.7097 66.9008 94.6266 67.048C94.4593 67.3517 94.225 67.609 93.9549 67.82C93.6756 68.0147 93.3547 68.1712 93.0108 68.2362C92.8411 68.2721 92.6611 68.2976 92.4972 68.3045C92.4164 68.3115 92.2987 68.3045 92.2017 68.3045L91.9363 68.2837C91.1964 68.2141 90.4555 67.973 89.7583 67.645C89.0728 67.3192 88.3745 66.8892 87.847 66.3907C87.8043 66.3525 87.7431 66.334 87.6958 66.3027C87.9278 65.3695 87.9036 64.3576 87.6081 63.3456C87.1522 61.7854 86.1042 60.4001 84.6592 59.4473C82.7906 58.2093 80.6358 57.9149 78.8388 58.4875C76.1311 59.103 74.012 57.7085 73.8504 57.6019L73.8458 57.6181L61.8828 50.6109L60.9434 51.9509C47.2007 37.205 29.3157 19.2703 29.0133 19.8742C28.5516 20.368 57.5489 55.5571 57.5489 55.5571C57.5489 55.5571 61.4108 55.906 64.0457 54.9207C64.8952 54.6019 68.7121 56.6166 72.5935 59.4148L72.5866 59.4195C72.5866 59.4195 74.5591 60.6598 75.2262 63.8069C75.2551 64.2277 75.3301 64.6531 75.4536 65.082C75.9118 66.6423 76.9574 68.0252 78.4025 68.9803C81.259 70.8686 84.7793 70.5557 86.6548 68.3254C86.6686 68.3277 86.6778 68.3416 86.6905 68.3439L86.7217 68.3555C87.6231 68.6523 88.4287 68.876 89.2851 69.0708C90.1369 69.2562 90.9979 69.3942 91.8889 69.3965C92.0078 69.3988 92.099 69.3895 92.2386 69.3872C92.3448 69.378 92.4349 69.3733 92.5537 69.3582C92.7996 69.3327 93.02 69.2991 93.2485 69.2446C93.6975 69.1252 94.1407 68.9525 94.5401 68.6905C94.944 68.4413 95.2995 68.1179 95.6065 67.7528C95.7623 67.5673 95.9089 67.3795 96.0347 67.1755C96.1697 66.9622 96.2875 66.7884 96.4087 66.4939L96.4895 66.3061C96.5483 66.1682 96.5702 66.0117 96.546 65.8506C96.471 65.3985 96.0474 65.0878 95.5927 65.1597ZM79.2577 67.6821C78.1174 66.9286 77.2968 65.8482 76.9447 64.6415C76.6043 63.4847 76.7439 62.3475 77.3395 61.4399L77.396 61.3588C78.6691 59.5296 81.5464 59.2537 83.8028 60.7502C84.9455 61.5037 85.7638 62.5817 86.1204 63.7884C86.4586 64.9453 86.3166 66.0812 85.7234 66.99L85.6645 67.0712C84.3892 68.9004 81.5141 69.1739 79.2577 67.6821Z" fill="#6E6E6E"/>
<path d="M62.7123 51.5814C63.3009 52.1703 63.3032 53.1301 62.7123 53.7189C62.126 54.3101 61.1749 54.3101 60.5863 53.7166C59.9977 53.1277 59.9977 52.1703 60.584 51.5814C61.1726 50.9937 62.126 50.9937 62.7123 51.5814Z" fill="#6E6E6E"/>
<path d="M62.3337 51.9463C62.7191 52.3358 62.7192 52.9652 62.3314 53.3524C61.9459 53.7396 61.3215 53.7396 60.936 53.3524C60.5482 52.9629 60.5482 52.3358 60.9313 51.9486C61.3191 51.5592 61.9482 51.5592 62.3337 51.9463Z" fill="white"/>
<path d="M3.78613 43.2812C6.48688 43.2812 7.01201 44.357 7.01201 45.69C7.01201 46.6 6.29067 47.2433 5.32348 47.3836C6.12563 47.5018 6.84928 48.2031 6.84928 49.0458C6.84928 49.5489 6.91967 49.8398 7.12627 49.8398C7.3017 49.8398 7.39403 49.6996 7.39403 49.4666V49.0794H8.17424V49.7251C8.17424 50.6918 7.76799 51.5948 6.47416 51.5948C4.95066 51.5948 4.21545 50.7869 4.21545 49.4191C4.21545 48.3549 4.08965 48.0965 3.05206 48.0965V49.9106H3.76186V51.4546H0.00390625V49.9106H0.656014V44.8125H0.00390625V43.2824H3.78613V43.2812ZM3.05322 46.7889H3.57606C4.2524 46.7889 4.69444 46.4609 4.69444 45.843C4.69444 45.1545 4.31126 44.8021 3.63492 44.8021H3.05322V46.7889Z" fill="#6E6E6E"/>
<path d="M15.6056 43.2812V45.8651H13.5927V44.8264H11.7288V46.4388H13.9401V47.9945H11.7288V49.9013H13.5927V48.814H15.6056V51.4558H8.58594V49.9001H9.31885V44.8264H8.58594V43.2824H15.6056V43.2812Z" fill="#6E6E6E"/>
<path d="M23.8856 46.3194H22.1751V44.8253H21.1964V49.899H22.1636V51.4546H17.8309V49.899H18.7865V44.8253H17.7859V46.3194H16.0742V43.2812H23.8856V46.3194Z" fill="#6E6E6E"/>
<path d="M28.1423 43.2812C30.8431 43.2812 31.3659 44.357 31.3659 45.69C31.3659 46.6 30.6445 47.2433 29.6797 47.3836C30.4818 47.5018 31.2031 48.2031 31.2031 49.0458C31.2031 49.5489 31.2735 49.8398 31.4824 49.8398C31.6556 49.8398 31.7479 49.6996 31.7479 49.4666V49.0794H32.5281V49.7251C32.5281 50.6918 32.1219 51.5948 30.8303 51.5948C29.3045 51.5948 28.5716 50.7869 28.5716 49.4191C28.5716 48.3549 28.4435 48.0965 27.4059 48.0965V49.9106H28.1181V51.4546H24.3555V49.9106H25.0064V44.8125H24.3555V43.2824H28.1423V43.2812ZM27.4082 46.7889H27.9334C28.6074 46.7889 29.0495 46.4609 29.0495 45.843C29.0495 45.1545 28.6663 44.8021 27.9899 44.8021H27.4082V46.7889Z" fill="#6E6E6E"/>
<path d="M32.8281 47.3306C32.8281 44.8059 34.5028 43.0625 36.915 43.0625C39.767 43.0625 41.0943 44.7804 41.0943 47.4117C41.0943 50.0558 39.6262 51.6682 36.9958 51.6682C34.5617 51.6682 32.8281 50.2528 32.8281 47.3306ZM38.1823 47.4117C38.1823 45.9987 37.7991 44.865 36.9023 44.865C36.1925 44.8511 35.7055 45.8816 35.7055 47.3306C35.7055 48.863 36.2514 49.8321 36.997 49.8321C37.7287 49.8321 38.1823 48.863 38.1823 47.4117Z" fill="#6E6E6E"/>
<path d="M71.6523 48.5135H73.8164C73.8164 49.4965 74.7951 49.6611 75.2845 49.6843C75.6919 49.6843 76.2737 49.5915 76.2737 49.0977C76.2737 48.1878 71.8036 48.5726 71.8036 45.5912C71.8036 43.8617 73.4332 43.0781 74.5736 43.0781C75.5523 43.0781 76.5414 43.3923 77.0077 44.2686L77.1231 43.2879H79.1245V46.2218H77.0193C77.0193 45.3548 76.3429 44.8656 75.5269 44.8656C75.1911 44.8656 74.7248 45.0765 74.7248 45.4834C74.7248 46.6878 79.3345 46.4073 79.3345 49.1557C79.3345 50.9779 77.6344 51.6351 76.2483 51.6351C75.071 51.6351 74.2573 51.0845 73.8164 50.5594L73.6906 51.4601H71.6523V48.5135Z" fill="#6E6E6E"/>
<path d="M87.611 46.3194H85.9006V44.8253H84.9241V49.899H85.889V51.4546H81.5586V49.899H82.5119V44.8253H81.5113V46.3194H79.8008V43.2812H87.6122V46.3194H87.611Z" fill="#6E6E6E"/>
<path d="M92.1382 46.9651C92.1856 46.7298 92.4406 46.2406 92.5687 45.9601L93.2116 44.7766H92.5687V43.2824H95.7023V44.7766H95.0733L92.9185 48.5775V49.9337H93.5706V51.4558H89.8461V49.9337H90.5086V48.5543L88.2499 44.7754H87.6797V43.2812H91.6604V44.7754H91.0568L91.7331 46.0158C91.8024 46.2395 92.0459 46.7657 92.0944 46.9639H92.1382V46.9651Z" fill="#6E6E6E"/>
<path d="M99.5611 43.2812V44.8253H98.9437V49.899H100.448V48.4141H102.402V51.4546H95.8828V49.899H96.5234V44.8253H95.8828V43.2812H99.5611Z" fill="#6E6E6E"/>
<path d="M110.006 43.2812V45.8651H107.993V44.8264H106.132V46.4388H108.341V47.9945H106.132V49.9013H107.993V48.814H110.006V51.4558H102.984V49.9001H103.722V44.8264H102.984V43.2824H110.006V43.2812Z" fill="#6E6E6E"/>
<path d="M10.7101 76.8501C10.9375 77.1781 11.3772 77.2593 11.6969 77.0263L14.1968 75.2307C14.797 76.0734 15.4214 76.8976 16.0701 77.7033L13.6855 79.646C13.3762 79.8999 13.3358 80.3346 13.5886 80.6417C13.846 80.9501 14.2892 80.9907 14.5892 80.7322L20.3243 75.7918C20.6267 75.531 20.6821 75.1287 20.4709 74.8725C20.2608 74.614 19.8557 74.6117 19.5487 74.8609L17.1653 76.8084C16.534 76.0294 15.9258 75.2284 15.3418 74.4112L17.8417 72.6133C18.166 72.3803 18.2584 71.9816 18.0691 71.7127C17.8821 71.4368 17.4828 71.3985 17.1538 71.6199L10.8913 75.8671C10.5635 76.092 10.485 76.5197 10.7101 76.8501Z" fill="#6E6E6E"/>
<path d="M23.5773 82.6761C23.8278 82.3817 23.8232 81.9702 23.575 81.7569C23.3569 81.5598 23.0245 81.5888 22.759 81.7812C22.669 81.2306 22.4451 80.724 22.0353 80.3299C21.4837 79.7932 20.7531 79.5822 19.9844 79.6321C19.2249 79.6727 18.4447 79.9926 17.7949 80.5965C17.1567 81.1923 16.7781 81.962 16.7308 82.763C16.6881 83.5582 16.9697 84.3569 17.5987 84.9655C18.0604 85.4117 18.6271 85.6563 19.2146 85.7212C19.0657 86.0017 19.0934 86.3576 19.3427 86.579C19.6243 86.8259 20.0571 86.7935 20.2983 86.5106L21.9326 84.598L23.5773 82.6761ZM19.7339 84.4056C19.2965 84.4415 18.8637 84.2792 18.5486 83.9755C18.2243 83.6591 18.0431 83.2325 18.0731 82.8001C18.0996 82.3515 18.3097 81.9075 18.6836 81.5389C19.0714 81.1633 19.5181 80.957 19.944 80.9327C20.3768 80.8828 20.7865 81.03 21.0866 81.3245C21.3821 81.605 21.5448 82.0107 21.5194 82.457C21.5102 82.8847 21.3348 83.3496 20.9735 83.7495C20.6227 84.1401 20.176 84.3627 19.7339 84.4056Z" fill="#6E6E6E"/>
<path d="M27.8423 82.7941C28.0697 82.4823 28.0547 82.0858 27.7904 81.8865C27.5376 81.6894 27.144 81.7775 26.9063 82.0812L26.7389 82.2922C26.5023 82.5982 26.5185 83.0143 26.7816 83.2207C27.0586 83.427 27.4534 83.3203 27.6808 83.0097L27.8423 82.7941ZM26.2346 83.9463C25.9656 83.7377 25.5698 83.8061 25.3147 84.1272L22.2446 88.0822C22.008 88.3883 22.0622 88.8206 22.3704 89.0559C22.6878 89.2982 23.1079 89.2252 23.3353 88.9157L26.3038 84.8818C26.5485 84.5514 26.5139 84.1573 26.2346 83.9463Z" fill="#6E6E6E"/>
<path d="M30.7512 86.9962C30.271 86.6948 29.7366 86.638 29.268 86.6704C29.1642 86.6844 29.0337 86.7203 28.9275 86.7586L28.9749 86.6855C29.1757 86.3702 29.0949 85.9657 28.8121 85.7779C28.5374 85.6017 28.152 85.6875 27.9396 85.997L25.1107 90.1943C24.9029 90.5004 24.9849 90.935 25.2977 91.1367C25.6174 91.3523 26.0548 91.2654 26.2556 90.9513L27.568 88.8937C27.7145 88.7732 28.0977 88.4405 28.5547 88.2458C28.8052 88.1125 29.0707 88.0197 29.3396 88.0035C29.597 87.9676 29.8359 88.0197 30.0656 88.1554C30.3657 88.3385 30.7604 88.189 30.9358 87.8795C31.1216 87.556 31.0397 87.1712 30.7512 86.9962Z" fill="#6E6E6E"/>
<path d="M31.782 94.8139C32.478 95.1489 33.2535 95.1825 33.9103 95.0318C34.2819 94.9101 34.4851 94.5519 34.4112 94.2123C34.3004 93.8321 33.9518 93.6188 33.6137 93.7092C33.2189 93.795 32.7734 93.7788 32.3671 93.5829C31.4426 93.1435 31.0918 91.9983 31.5511 91.1242C32.0105 90.2456 33.0977 89.8492 33.9426 90.2502C34.3304 90.438 34.6005 90.7394 34.7771 91.0929C34.9329 91.4094 35.2976 91.5207 35.6357 91.3259C35.9174 91.1381 36.0432 90.7174 35.8908 90.3998C35.6023 89.8132 35.1429 89.2997 34.5312 89.0076C33.1312 88.3596 31.2984 88.9601 30.4212 90.518C29.5568 92.0481 30.1615 94.0442 31.782 94.8139Z" fill="#6E6E6E"/>
<path d="M41.6372 95.6063L42.422 92.6354C42.5143 92.2864 42.3112 91.9039 42.01 91.8158C41.6834 91.7254 41.3544 91.963 41.2528 92.3096L40.3918 95.2574C40.1772 95.9587 39.4604 96.3528 38.7668 96.1268C38.0835 95.9089 37.743 95.1739 37.9866 94.4831L38.9918 91.5805C39.1107 91.2385 38.9687 90.8514 38.6513 90.7343C38.3443 90.6207 37.9773 90.8294 37.8492 91.1644L36.7689 94.0391C36.2415 95.4046 36.9444 96.9753 38.3513 97.4262C39.7709 97.8841 41.2736 97.0286 41.6372 95.6063Z" fill="#6E6E6E"/>
<path d="M46.7234 92.8844L46.4441 92.8369L46.7707 91.0007C46.8388 90.6089 46.6403 90.2565 46.3125 90.1974C45.9905 90.1337 45.6662 90.3829 45.5842 90.7724L45.2126 92.5992L44.8906 92.5332C44.5501 92.4567 44.2165 92.7012 44.1288 93.0884C44.0434 93.4663 44.2466 93.8373 44.5974 93.9172L44.9287 93.9868L44.2096 97.5002C44.0492 98.2653 44.5501 99.028 45.3257 99.1671C45.7181 99.2367 46.0713 98.9816 46.1371 98.5898C46.1983 98.1934 45.9547 97.8294 45.5739 97.761L46.1982 94.229L46.4845 94.2789C46.8319 94.338 47.1793 94.0702 47.237 93.6854C47.2982 93.2947 47.057 92.9412 46.7234 92.8844Z" fill="#6E6E6E"/>
<path d="M58.2679 94.661C58.1686 94.2785 57.8097 94.0629 57.4715 94.1718C57.1333 94.2785 56.9302 94.6633 57.041 95.0435C57.0571 95.1316 57.0595 95.1977 57.0618 95.2336L57.0664 95.3264C57.0548 95.3379 57.0548 95.3379 57.0329 95.3507C56.9856 95.3669 56.9498 95.3692 56.9048 95.3692L56.8575 95.3716C56.7294 95.3646 56.5978 95.3692 56.4674 95.3739C55.6479 95.4005 55.042 95.637 54.6357 96.0601C54.2271 96.4681 54.1244 97.0199 54.1302 97.3549C54.1279 97.6493 54.1729 97.858 54.1983 97.8939C54.2814 98.2173 54.5434 98.4144 54.8538 98.4121C54.915 98.4121 54.9889 98.3982 55.0408 98.3866C55.4124 98.2672 55.6041 97.8661 55.5002 97.494C55.5002 97.4824 55.4863 97.4279 55.4863 97.3537C55.484 97.2355 55.4956 97.159 55.5787 97.0686C55.6375 96.9898 55.8649 96.8309 56.4927 96.802L56.4951 96.8785C56.5308 97.8023 55.8314 98.5651 54.9277 98.5674C54.024 98.5697 53.3315 97.8139 53.3615 96.8877C53.38 96.2317 53.7539 95.6671 54.2606 95.4005L54.3194 95.3646C54.3425 95.3484 54.3426 95.3484 54.3529 95.3379C54.3668 95.3379 54.3772 95.3264 54.3887 95.3113C54.436 95.2614 54.4833 95.2232 54.5191 95.171C54.5191 95.1478 54.5307 95.1328 54.5307 95.1212H54.5422C54.7199 94.8024 54.6368 94.4013 54.3737 94.1683C54.159 93.9979 54.0148 93.7151 54.0194 93.3801C54.0286 92.8387 54.4141 92.4203 54.8619 92.4203C55.3259 92.418 55.6987 92.8364 55.7114 93.3755C55.7183 93.7719 56.023 94.0768 56.3635 94.0663C56.7201 94.0501 56.9787 93.7336 56.9613 93.3372C56.8886 92.0076 55.9526 90.9922 54.8596 90.9922C53.7759 90.9991 52.8329 92.0204 52.7671 93.3441C52.7486 93.8055 52.8444 94.2367 53.0395 94.6169C52.4647 95.149 52.0654 95.9395 52.0181 96.8379C51.9096 98.543 53.208 100.001 54.93 99.9967C56.6532 99.9943 57.954 98.521 57.8351 96.8159C57.8281 96.7162 57.8235 96.6119 57.8062 96.5099C57.8397 96.4832 57.8743 96.4554 57.932 96.4264C58.2298 96.1482 58.4052 95.6451 58.3579 95.1583C58.3475 94.989 58.3267 94.8233 58.2679 94.661Z" fill="#6E6E6E"/>
<path d="M64.8589 97.7126C65.6656 98.145 66.9595 98.5843 68.3098 98.24C69.1939 98.014 69.9257 97.5155 70.3816 96.8884C70.8502 96.259 71.051 95.4418 70.7913 94.6605C70.6678 94.2826 70.4416 93.9522 70.1784 93.7146C69.7699 93.3506 69.2655 93.1559 68.7357 93.0492C68.2175 92.9472 67.6496 92.9403 67.0472 92.9634L67.0241 92.9704C66.3882 93.004 65.8365 92.9252 65.496 92.7641C65.3275 92.6852 65.2028 92.5948 65.1243 92.5079C65.0482 92.4221 65.0032 92.3224 64.9708 92.1752C64.912 91.9098 64.9708 91.6072 65.2028 91.2873C65.4371 90.972 65.8203 90.6938 66.2958 90.5674C66.941 90.4017 67.5562 90.6219 68.2279 90.8781C68.543 90.9963 68.8592 90.8039 68.9239 90.4596C69.0023 90.1223 68.8004 89.7583 68.5003 89.6354C67.8401 89.4025 66.9491 89.0419 65.9669 89.3004C65.2974 89.4743 64.725 89.8592 64.321 90.3936C63.9309 90.9256 63.6897 91.6524 63.8363 92.4105C63.9113 92.7884 64.066 93.1234 64.2956 93.3935C64.6338 93.7853 65.0759 94.0229 65.5606 94.147C66.0477 94.2756 66.589 94.3058 67.1591 94.2756L67.1799 94.271C67.8944 94.2328 68.5118 94.2826 68.9158 94.4159C69.1259 94.4855 69.2655 94.5816 69.3717 94.6825C69.4802 94.7868 69.5471 94.8819 69.5968 95.0453C69.6891 95.3537 69.6302 95.7061 69.3532 96.0828C69.0762 96.4607 68.5845 96.8027 67.9763 96.9591C67.1176 97.1991 66.0696 96.8884 65.4452 96.543C65.1313 96.3749 64.7481 96.4908 64.5842 96.8096C64.4307 97.1284 64.5461 97.541 64.8589 97.7126Z" fill="#6E6E6E"/>
<path d="M72.8836 89.9386L72.6216 90.0475L71.921 88.325C71.7698 87.9587 71.4154 87.7663 71.1073 87.888C70.8003 88.0144 70.656 88.3934 70.7957 88.7667L71.4558 90.5124L71.1488 90.6283C70.8199 90.7488 70.6664 91.1314 70.7991 91.5069C70.9272 91.8721 71.2977 92.0796 71.6359 91.9579L71.951 91.8362L73.2183 95.1931C73.4907 95.9269 74.3205 96.3001 75.0488 96.0011C75.4158 95.8469 75.5808 95.4458 75.425 95.0772C75.2692 94.7132 74.8664 94.5313 74.5098 94.6785L73.1548 91.3597L73.4248 91.2462C73.7492 91.1152 73.8981 90.6932 73.7422 90.3431C73.5876 89.9745 73.1975 89.8122 72.8836 89.9386Z" fill="#6E6E6E"/>
<path d="M78.4955 87.1376C78.2023 87.3092 78.1308 87.6906 78.32 88.0256L79.8078 90.6673C80.1771 91.3153 79.9543 92.0919 79.323 92.4327C78.6917 92.7677 77.9138 92.5301 77.5825 91.8601L76.2252 89.15C76.0521 88.8034 75.6978 88.6538 75.3827 88.8057C75.1103 88.9413 74.9787 89.3285 75.1415 89.6797L76.4307 92.4234C77.0458 93.7681 78.6605 94.3593 79.9739 93.6568C80.3479 93.4505 80.6838 93.1537 80.8915 92.799C81.0473 93.4806 80.7115 94.2294 80.0351 94.6015C79.8031 94.7232 79.5527 94.78 79.2803 94.787C78.9283 94.7824 78.5947 95.1012 78.5774 95.4547C78.5936 95.8488 78.8821 96.1502 79.2849 96.1224C79.727 96.1154 80.229 96.0088 80.6538 95.7827C82.2454 94.947 82.759 93.0459 81.8622 91.5761L80.9261 90.0089L79.368 87.4077C79.1695 87.0808 78.7771 86.9753 78.4955 87.1376Z" fill="#6E6E6E"/>
<path d="M79.7915 84.1339L83.9684 90.4573C84.1807 90.7783 84.6263 90.8711 84.9448 90.6497C85.2738 90.4213 85.3522 89.9773 85.1295 89.6609L80.7875 83.4535C80.5647 83.1382 80.1608 83.0304 79.8884 83.2159C79.6241 83.3956 79.5768 83.8117 79.7915 84.1339Z" fill="#6E6E6E"/>
<path d="M82.8737 81.8779C82.6348 81.5742 82.247 81.4838 81.9873 81.6878C81.7322 81.8872 81.7103 82.2859 81.9423 82.5954L82.1027 82.8099C82.3324 83.1182 82.7386 83.2156 83.0041 83.0093C83.2741 82.8006 83.2788 82.3891 83.0376 82.0877L82.8737 81.8779ZM83.5581 83.7349C83.2903 83.9436 83.2488 84.3412 83.4946 84.6727L86.4931 88.6846C86.7228 88.9929 87.1556 89.0555 87.4603 88.8179C87.7754 88.5733 87.8181 88.1479 87.5792 87.8442L84.4768 83.9111C84.2229 83.5923 83.8351 83.5193 83.5581 83.7349Z" fill="#6E6E6E"/>
<path d="M87.2752 80.5045C86.9555 80.8105 86.7547 81.2081 86.6623 81.6184C86.4234 81.5072 86.1614 81.5396 85.9837 81.6973C85.7286 81.921 85.7332 82.3267 85.9745 82.6072L87.2683 84.1176L89.265 86.4475C89.5062 86.7327 89.9321 86.771 90.2206 86.516C90.4734 86.2957 90.5161 85.9178 90.358 85.6489C90.3418 85.5944 90.3176 85.5654 90.2899 85.5376L88.2343 83.2598C87.7565 82.7254 87.7496 81.9511 88.2182 81.5025C88.6983 81.0446 89.4878 81.0632 89.9991 81.5721L92.1631 83.7455C92.4274 84.011 92.8683 83.9994 93.1211 83.7409C93.3831 83.4743 93.36 83.0431 93.0922 82.7904L90.8739 80.6691C89.8178 79.678 88.217 79.605 87.2752 80.5045Z" fill="#6E6E6E"/>
<path d="M96.1929 75.017L94.0992 73.5564C93.7945 73.3455 93.3917 73.3849 93.1978 73.6584C93.027 73.8984 93.0651 74.2357 93.2786 74.4664C92.7673 74.602 92.2918 74.8965 91.9306 75.3613C91.4689 75.9478 91.3223 76.7221 91.4342 77.471C91.5716 78.2453 91.9525 79.0103 92.6173 79.5992C93.289 80.195 94.105 80.4732 94.8875 80.4257C95.6989 80.4025 96.4837 80.0293 97.0089 79.3592C97.3967 78.8585 97.6021 78.2685 97.6148 77.7063C98.1492 78.3021 98.2104 79.2167 97.6852 79.8913C97.5167 80.1093 97.309 80.26 97.0816 80.362C96.7365 80.5497 96.5761 80.9392 96.7365 81.2951C96.8831 81.6591 97.3067 81.8132 97.6472 81.6417C98.0684 81.4539 98.4678 81.1374 98.7748 80.7479C99.8862 79.3233 99.5458 77.3365 98.1596 76.3895L96.2033 75.0239L96.1929 75.017ZM96.2229 77.238C96.3083 77.7063 96.216 78.1259 95.9228 78.5015C95.6504 78.8457 95.2534 79.0602 94.794 79.0672C94.3797 79.1147 93.8811 78.9512 93.469 78.6058C93.0766 78.2754 92.8239 77.8152 92.7662 77.3968C92.6692 76.9528 92.7569 76.5297 93.0097 76.2109C93.2798 75.8597 93.6526 75.6905 94.1235 75.658C94.5251 75.6371 95.0295 75.7693 95.4427 76.0718C95.8755 76.3941 96.1525 76.8392 96.2229 77.238Z" fill="#6E6E6E"/>
<path d="M19.1978 27.3248L19.1932 27.3109C19.1932 27.3109 19.2024 27.3155 19.214 27.2993C19.8095 26.4345 20.4408 25.5941 21.0987 24.7723C21.2718 24.5532 21.2118 24.1695 20.9406 23.9481C20.6659 23.7174 20.2735 23.7279 20.0934 23.9574C19.5256 24.6633 18.9797 25.3855 18.4568 26.1239L16.7117 24.8766C17.1826 24.2136 17.6697 23.5586 18.1752 22.9199C18.3714 22.673 18.3102 22.2859 18.0286 22.0552C17.7666 21.8396 17.3661 21.8604 17.163 22.1143C16.6471 22.7704 16.1439 23.4416 15.6614 24.1243L13.9256 22.884C14.5119 22.0552 15.1247 21.2426 15.7584 20.4497C15.9615 20.1935 15.9257 19.7867 15.6453 19.5537C15.3706 19.323 14.9597 19.3728 14.7531 19.6348C13.9752 20.6085 13.2273 21.6043 12.5186 22.6301L12.5071 22.6498L12.5002 22.6591C12.297 22.9535 12.3744 23.3384 12.671 23.5424L18.3633 27.4048C18.6554 27.6007 19.027 27.5717 19.1978 27.3248Z" fill="#6E6E6E"/>
<path d="M21.4542 22.5185C22.2229 22.435 23.2778 22.2032 24.0223 21.466C24.5024 20.9722 24.7863 20.3613 24.8544 19.7202C24.9271 19.0769 24.769 18.3547 24.2704 17.7983C24.0292 17.5317 23.7268 17.33 23.4232 17.228C22.957 17.0738 22.4676 17.1075 21.9921 17.2443C21.5304 17.3776 21.0607 17.6222 20.5921 17.9351L20.5759 17.949C20.0819 18.284 19.6133 18.5078 19.2659 18.5738C19.0951 18.6074 18.9509 18.6074 18.8447 18.5831C18.7385 18.5599 18.6554 18.5147 18.5515 18.4173C18.3715 18.2516 18.2653 17.9896 18.3034 17.6094C18.3368 17.2222 18.5331 16.7829 18.8897 16.4189C19.3744 15.9251 20.0173 15.7872 20.6994 15.6852C21.0191 15.6353 21.2246 15.3386 21.1588 15.0152C21.1092 14.6964 20.8022 14.4738 20.4824 14.5121C19.7992 14.6187 18.8251 14.788 18.0437 15.5808C17.5162 16.1199 17.1919 16.7899 17.1238 17.4529C17.0626 18.1136 17.2658 18.8045 17.7909 19.2658C18.0529 19.4988 18.3564 19.6461 18.6727 19.7121C19.1344 19.8049 19.5857 19.7388 20.0138 19.5858C20.442 19.4316 20.8633 19.187 21.2857 18.9065L21.2996 18.8926C21.827 18.5367 22.3349 18.32 22.7065 18.2724C22.9004 18.2481 23.047 18.2701 23.1728 18.3107C23.294 18.3513 23.3909 18.4081 23.4948 18.5194C23.6956 18.7303 23.7972 19.0352 23.7568 19.4316C23.7164 19.828 23.5156 20.2651 23.1682 20.6221C22.6811 21.1333 21.804 21.3512 21.1934 21.4057C20.8887 21.4312 20.6879 21.7094 20.7629 22.0166C20.8402 22.3145 21.1518 22.5463 21.4542 22.5185Z" fill="#6E6E6E"/>
<path d="M26.4652 9.6744C26.2644 9.37533 25.8662 9.30345 25.5834 9.50283C24.24 10.4418 22.9392 11.4433 21.6927 12.5051C21.418 12.7358 21.395 13.1322 21.6293 13.4058C21.8589 13.6689 22.2583 13.7188 22.526 13.4962C22.975 13.1113 23.4344 12.7404 23.8972 12.3706L27.7452 17.2739C27.9679 17.5591 28.3315 17.6275 28.5612 17.4501C28.7978 17.267 28.8186 16.9018 28.6016 16.612L24.8748 11.616C25.3503 11.2578 25.8327 10.9101 26.3221 10.5681C26.5968 10.3722 26.6614 9.96883 26.4652 9.6744Z" fill="#6E6E6E"/>
<path d="M34.4373 13.1551C34.6265 13.3475 34.877 13.3788 35.0663 13.286C35.1274 13.2547 35.1817 13.2119 35.2151 13.1678C35.4044 12.9232 35.3617 12.5268 35.1228 12.2695C33.4435 10.5516 31.6719 8.89857 29.8114 7.31746C29.5944 7.1459 29.3058 7.1227 29.0807 7.26528C28.858 7.38467 28.723 7.65479 28.7657 7.92835C29.2216 10.3325 29.7802 12.6937 30.4427 15.0074C30.5489 15.3447 30.8709 15.5801 31.1756 15.5325C31.2367 15.5186 31.2933 15.4989 31.3487 15.4595C31.5265 15.3412 31.6188 15.1059 31.5541 14.8417L31.164 13.2907C31.86 12.8583 32.5687 12.4422 33.2877 12.0504L34.4373 13.1551ZM30.8432 11.982C30.6493 11.1172 30.4715 10.2525 30.3065 9.37615C30.9828 9.95342 31.6453 10.5353 32.2974 11.1312C31.8081 11.4047 31.3233 11.6875 30.8432 11.982Z" fill="#6E6E6E"/>
<path d="M37.8991 11.8152L38.0053 11.8465L38.0145 11.8418C38.0145 11.8418 38.0237 11.8372 38.0283 11.8511C38.0468 11.8395 38.0872 11.8372 38.1091 11.8395L38.1253 11.8326C38.1588 11.8326 38.1934 11.8163 38.2222 11.8059C38.2465 11.7943 38.2742 11.7827 38.3054 11.7584L38.3238 11.7491C38.3469 11.7282 38.3596 11.7085 38.3873 11.6969C38.3919 11.683 38.3919 11.683 38.4011 11.6784C38.4242 11.6575 38.4369 11.6146 38.4485 11.5949L38.4646 11.5764L38.4958 11.4999C38.5004 11.486 38.5004 11.486 38.5004 11.4616C38.5004 11.4373 38.5189 11.4048 38.5189 11.3782C38.5281 11.3759 38.5281 11.3758 38.5235 11.3642C38.5327 11.3353 38.5235 11.2878 38.5235 11.2622C38.4127 8.84885 38.4265 6.40762 38.5662 3.95133C38.5823 3.61401 38.318 3.29641 37.9706 3.28366C37.6302 3.25236 37.3255 3.53053 37.3105 3.88408C37.2401 5.83613 37.2493 7.7708 37.3347 9.69619C36.027 8.28779 34.6524 6.92925 33.2143 5.61591C32.9523 5.38059 32.5518 5.40146 32.3348 5.66575C32.0936 5.92888 32.1363 6.3404 32.3983 6.5618C34.2381 8.18117 35.9785 9.87819 37.6151 11.6471C37.6417 11.661 37.6786 11.6946 37.6959 11.7132C37.7006 11.7248 37.7098 11.7224 37.7098 11.7224C37.7283 11.7387 37.7548 11.7514 37.7825 11.7653C37.7918 11.7862 37.8033 11.7815 37.8068 11.7943C37.8402 11.8036 37.8633 11.8059 37.8898 11.8198L37.8991 11.8152Z" fill="#6E6E6E"/>
<path d="M43.2017 10.0388L43.2132 10.0364L43.2294 10.0295C44.237 9.74202 45.2538 9.49045 46.2799 9.28064C46.5545 9.22384 46.7461 8.88652 46.6792 8.54225C46.6134 8.18638 46.303 7.95109 46.019 8.01021C45.1349 8.19104 44.2589 8.40431 43.3887 8.6373L41.7659 2.61075C41.6736 2.27111 41.3192 2.06478 40.9764 2.16679C40.6314 2.25952 40.4513 2.62465 40.5506 2.95965L42.5092 9.57043C42.6096 9.90775 42.9132 10.1187 43.2017 10.0388Z" fill="#6E6E6E"/>
<path d="M48.0217 8.31551C48.0805 8.67138 48.3552 8.91131 48.6507 8.86842C48.9369 8.8209 49.1493 8.51023 49.102 8.15321L48.1659 1.31872C48.1186 0.960536 47.785 0.720577 47.4423 0.77274C47.0879 0.827221 46.8606 1.14834 46.9194 1.50653L48.0217 8.31551Z" fill="#6E6E6E"/>
<path d="M50.7374 7.41325C51.3595 7.88155 52.2863 8.43446 53.332 8.39968C54.0199 8.36839 54.6443 8.11915 55.1267 7.69374C55.6184 7.27759 55.9923 6.6366 56.0062 5.88893C56.0131 5.52611 55.9254 5.17601 55.7719 4.89549C55.5376 4.45848 55.1567 4.14784 54.717 3.92412C54.2865 3.70503 53.7763 3.56129 53.2223 3.46856H53.2016C52.6129 3.37582 52.1178 3.21934 51.82 3.02923C51.6711 2.93418 51.5649 2.83449 51.5049 2.74871C51.4438 2.65597 51.4149 2.56557 51.4033 2.42531C51.3849 2.18072 51.4865 1.91641 51.7727 1.66255C52.0589 1.40869 52.501 1.21629 53.0077 1.19658C53.6955 1.16761 54.2588 1.50722 54.8289 1.89786C55.0967 2.08101 55.451 2.00221 55.6184 1.72633C55.8007 1.4574 55.7269 1.08299 55.4672 0.892888C54.8947 0.503406 54.0672 -0.0425716 52.958 0.00263616C52.2078 0.0339339 51.5153 0.306313 51.0133 0.743322C50.5216 1.18729 50.2019 1.82601 50.2711 2.52499C50.3046 2.87391 50.4246 3.18804 50.6116 3.45349C50.8863 3.84297 51.2637 4.09914 51.6804 4.28229C52.0993 4.46081 52.5702 4.57441 53.0711 4.65787L53.0919 4.65554C53.7186 4.75523 54.2369 4.94765 54.5416 5.16558C54.6997 5.27917 54.7943 5.39626 54.8555 5.51218C54.9189 5.63042 54.9501 5.73357 54.9501 5.88543C54.9547 6.17754 54.822 6.47197 54.5219 6.73047C54.2242 6.99476 53.7798 7.17674 53.2824 7.19877C52.5795 7.23934 51.79 6.80003 51.3076 6.42214C51.0664 6.23435 50.7305 6.29579 50.577 6.57167C50.4281 6.84523 50.4985 7.22546 50.7374 7.41325Z" fill="#6E6E6E"/>
<path d="M57.9972 8.46548C58.295 8.48866 58.5581 8.22319 58.5858 7.86268L58.7959 5.06443C59.6973 5.13282 60.5952 5.2279 61.4897 5.34729L61.1227 8.12701C61.0754 8.48983 61.2693 8.79003 61.5671 8.83755C61.8648 8.88276 62.1464 8.64051 62.203 8.2858L63.2787 1.47102C63.3353 1.11399 63.094 0.794049 62.742 0.739568C62.3877 0.685087 62.0772 0.931998 62.0299 1.29018L61.6605 4.07219C60.7407 3.94816 59.8185 3.85081 58.8952 3.7801L59.1052 0.981852C59.1318 0.621349 58.8686 0.321092 58.512 0.297908C58.153 0.278202 57.8645 0.542506 57.8472 0.904169L57.4975 7.79313C57.4767 8.15596 57.6948 8.45041 57.9972 8.46548Z" fill="#6E6E6E"/>
<path d="M64.7941 9.43359L64.808 9.42432C64.808 9.42432 64.8057 9.43359 64.8241 9.43822C65.8456 9.6689 66.8578 9.93668 67.8608 10.2392C68.1285 10.3204 68.4563 10.1187 68.5613 9.78366C68.6721 9.43707 68.5117 9.08005 68.2324 8.99543C67.3714 8.73462 66.4989 8.49697 65.6217 8.28948L66.118 6.19718C66.9074 6.38497 67.6911 6.59362 68.4713 6.82198C68.7714 6.91008 69.1073 6.70605 69.2135 6.36061C69.315 6.0372 69.143 5.66973 68.8349 5.57932C68.0327 5.34169 67.2248 5.12611 66.4134 4.93368L66.9051 2.85062C67.8919 3.08593 68.8707 3.34907 69.8425 3.64582C70.1541 3.73855 70.5165 3.55078 70.6273 3.20419C70.7358 2.85992 70.535 2.50056 70.2153 2.40319C69.0253 2.04037 67.8215 1.72622 66.6085 1.45266L66.5854 1.44802L66.5739 1.44573C66.2265 1.3669 65.8975 1.58596 65.826 1.94183L64.4075 8.69057C64.3348 9.03252 64.5033 9.36867 64.7941 9.43359Z" fill="#6E6E6E"/>
<path d="M70.3087 11.0626L71.3774 11.4764C73.0856 12.1534 75.2439 11.1913 76.2665 9.1697C77.281 7.17012 76.4835 4.70687 74.3886 3.87226L73.1191 3.38309C72.7832 3.26138 72.4312 3.43062 72.3123 3.77258L70.0201 10.2767C69.9047 10.6059 70.0247 10.9641 70.3087 11.0626ZM73.2633 4.82393L73.9108 5.08011C75.3016 5.63304 75.8568 7.27906 75.2046 8.66196C74.5445 10.0704 73.0694 10.7404 71.8529 10.2721L71.2759 10.0483L73.2633 4.82393Z" fill="#6E6E6E"/>
<path d="M82.3038 16.1687C81.7382 15.741 81.1612 15.3248 80.5771 14.9238C81.4693 14.729 82.3788 14.5633 83.3021 14.4207C84.0616 14.3048 84.7633 13.8747 85.225 13.2754C85.6312 12.748 85.8782 12.0664 85.8159 11.3605C85.7571 10.5549 85.3219 9.84543 84.7067 9.41769C84.17 9.04212 83.4695 8.8613 82.777 8.99924L82.3061 9.08736C81.9564 9.15575 81.7382 9.48842 81.7856 9.83501C81.8398 10.1839 82.1376 10.4099 82.4861 10.3427L82.9501 10.2616C83.3241 10.2002 83.6853 10.2882 83.9715 10.4876C84.2959 10.709 84.5255 11.0672 84.5648 11.5089C84.5913 11.8914 84.4817 12.2449 84.2601 12.5463C84.0119 12.8859 83.6645 13.1236 83.2387 13.1873C81.7775 13.4203 80.3532 13.7194 78.9717 14.0834C78.6566 14.1715 78.4327 14.5018 78.4638 14.8392C78.4731 15.0107 78.5677 15.1498 78.6889 15.2286L78.6981 15.2333L78.7051 15.2402C79.67 15.8604 80.6117 16.5153 81.5247 17.2097C81.7659 17.3859 82.1202 17.307 82.3407 17.0242C82.5634 16.7344 82.5519 16.3542 82.3038 16.1687Z" fill="#6E6E6E"/>
<path d="M84.3397 17.8103C84.1885 18.646 84.2946 19.4806 84.8556 19.9999C85.4061 20.5076 86.2463 20.554 87.0646 20.3303C87.8945 20.1066 88.7682 19.6035 89.5311 18.8616C90.2998 18.114 90.8134 17.2515 90.998 16.3798C91.1919 15.5174 91.0315 14.5843 90.3783 13.9827C89.7065 13.3648 88.7797 13.2837 87.9395 13.5503C87.0808 13.7995 86.274 14.3953 85.5861 15.2172C84.9213 16.0437 84.4885 16.9536 84.3397 17.8103ZM86.9077 19.1619C86.3514 19.3207 85.9589 19.2569 85.7304 19.0459C85.503 18.835 85.4015 18.4432 85.5053 17.8636C85.6161 17.3072 85.9474 16.6024 86.4887 15.9753C87.0346 15.3389 87.6787 14.9251 88.2407 14.7524C88.8155 14.6028 89.2553 14.6886 89.5034 14.9332C89.7666 15.1616 89.8797 15.587 89.7712 16.1666C89.65 16.7438 89.2887 17.4231 88.7001 18.0236C88.1218 18.6159 87.4525 19.0054 86.9077 19.1619Z" fill="#6E6E6E"/>
<path d="M95.0918 19.9127C95.0941 19.8791 95.1126 19.8652 95.1392 19.842C95.1484 19.8374 95.1588 19.813 95.1772 19.7991C95.1796 19.7806 95.1969 19.7655 95.2084 19.7423C95.2269 19.7261 95.2292 19.7087 95.2396 19.6878C95.2488 19.6809 95.2488 19.6635 95.258 19.6589L95.2696 19.6334L95.2765 19.5673C95.288 19.5441 95.2904 19.5267 95.2927 19.5105C95.295 19.4943 95.3042 19.4699 95.2973 19.4444V19.3876C95.2904 19.3621 95.2927 19.3447 95.295 19.3285C95.2811 19.3123 95.2811 19.2949 95.2765 19.2531C95.2788 19.2369 95.2627 19.2195 95.258 19.2103C95.2511 19.1836 95.2511 19.1697 95.2315 19.1419C95.2246 19.1326 95.2084 19.1152 95.2119 19.0967L95.16 19.0352L95.153 19.026L95.1299 19.0005C95.1161 18.9796 95.0942 18.9552 95.0688 18.9437C95.0618 18.9344 95.048 18.917 95.033 18.917L94.9787 18.8718C94.9533 18.8625 94.9291 18.8672 94.9129 18.8509C94.8968 18.8486 94.8818 18.8277 94.8656 18.8277C94.3474 18.6492 93.8269 18.4835 93.3075 18.3247C92.9809 18.2203 92.6104 18.4197 92.5227 18.757C92.4396 18.9808 92.4846 19.2056 92.6219 19.3656C92.6877 19.4386 92.7778 19.5059 92.8966 19.5372L93.3883 19.6983L89.0267 23.4297C88.7543 23.665 88.6931 24.0232 88.8847 24.2562C89.0694 24.4799 89.4457 24.4984 89.7273 24.2724L95.0607 19.9278L95.0918 19.9127Z" fill="#6E6E6E"/>
<path d="M97.3798 22.9748C97.3867 22.9435 97.4064 22.9273 97.4364 22.9064C97.4433 22.8995 97.4571 22.8797 97.4768 22.8658C97.4791 22.8473 97.4987 22.8368 97.5103 22.8137C97.5287 22.7997 97.5333 22.7847 97.5437 22.7615C97.5529 22.7546 97.5576 22.7383 97.5668 22.7325L97.5807 22.7082L97.5922 22.6444C97.6037 22.6236 97.6083 22.6062 97.6106 22.5899C97.6129 22.5737 97.6268 22.5517 97.6222 22.5262L97.6245 22.4671C97.6222 22.4404 97.6245 22.4265 97.6268 22.4103C97.613 22.3906 97.6176 22.3743 97.6153 22.3315C97.6176 22.3175 97.6037 22.2978 97.5968 22.2885C97.5945 22.2619 97.5968 22.2457 97.576 22.2155C97.5691 22.2086 97.5564 22.1889 97.5599 22.1727L97.5125 22.1066L97.5056 22.0973L97.4849 22.0683C97.4733 22.0498 97.4514 22.0231 97.4283 22.0115C97.4237 21.9999 97.4098 21.9825 97.3948 21.9802L97.3429 21.9281C97.3198 21.9188 97.2956 21.9234 97.2794 21.9049C97.2632 21.9002 97.2505 21.8817 97.2344 21.8794C96.7323 21.6614 96.2245 21.4586 95.719 21.2592C95.3993 21.1352 95.0161 21.3067 94.9007 21.6325C94.8037 21.8527 94.8326 22.0788 94.9595 22.248C95.0184 22.3268 95.1038 22.4022 95.2192 22.4381L95.697 22.6375L91.0735 26.0339C90.7826 26.2483 90.6972 26.6019 90.8703 26.8488C91.0376 27.0864 91.4116 27.1339 91.7094 26.9276L97.3521 22.9899L97.3798 22.9748Z" fill="#6E6E6E"/>
</svg>
