<svg width="95" height="100" viewBox="0 0 95 100" fill="none" xmlns="http://www.w3.org/2000/svg">
<path d="M18.75 68.3281H21.4733V69.131H19.6472V70.1994H21.3103V70.9992H19.6472V72.1219H21.5062V72.9238H18.75V68.3281Z" fill="#6E6E6E"/>
<path d="M23.5172 72.018C23.5172 71.9298 23.4792 71.8601 23.4054 71.8068C23.3295 71.7534 23.2393 71.7053 23.1286 71.6622C23.0189 71.6181 22.8989 71.573 22.7677 71.5289C22.6354 71.4817 22.5154 71.4192 22.4047 71.3361C22.296 71.2572 22.2047 71.1516 22.1278 71.0275C22.055 70.9034 22.0171 70.7435 22.0171 70.5445C22.0171 70.2226 22.1145 69.9734 22.3062 69.8022C22.499 69.633 22.7769 69.5469 23.1398 69.5469C23.388 69.5469 23.6146 69.5746 23.8166 69.6248C24.0165 69.6781 24.1755 69.7366 24.2883 69.8022L24.0986 70.4205C23.9971 70.3805 23.8709 70.3405 23.7171 70.2964C23.5633 70.2523 23.4085 70.2287 23.2516 70.2287C22.9973 70.2287 22.8722 70.3313 22.8722 70.5271C22.8722 70.604 22.9071 70.6676 22.9809 70.7168C23.0568 70.765 23.1481 70.8101 23.2578 70.8522C23.3675 70.8942 23.4875 70.9383 23.6187 70.9865C23.752 71.0347 23.872 71.0982 23.9817 71.1731C24.0914 71.251 24.1816 71.3495 24.2565 71.4735C24.3323 71.5955 24.3682 71.7514 24.3682 71.9462C24.3682 72.2764 24.2616 72.5368 24.0483 72.7296C23.8371 72.9213 23.5182 73.0157 23.0937 73.0157C22.861 73.0157 22.6436 72.9859 22.4416 72.9265C22.2375 72.867 22.0714 72.7973 21.9453 72.7204L22.1811 72.0826C22.2816 72.141 22.4159 72.1964 22.581 72.2507C22.7471 72.3051 22.9184 72.3328 23.0937 72.3328C23.2209 72.3328 23.3234 72.3092 23.4003 72.26C23.4772 72.2118 23.5172 72.1298 23.5172 72.018Z" fill="#6E6E6E"/>
<path d="M24.5859 69.6395H25.0391V69.0222L25.8922 68.7812V69.6405H26.6941V70.3613H25.8922V71.6225C25.8922 71.8491 25.9158 72.0132 25.9609 72.1116C26.0061 72.21 26.0922 72.2593 26.2193 72.2593C26.3065 72.2593 26.3834 72.2521 26.447 72.2326C26.5105 72.2162 26.5823 72.1885 26.6602 72.1547L26.8099 72.8119C26.6941 72.8683 26.5546 72.9165 26.3988 72.9565C26.2398 72.9944 26.0799 73.017 25.9179 73.017C25.6164 73.017 25.3939 72.9391 25.2514 72.7822C25.1099 72.6274 25.0391 72.372 25.0391 72.0193V70.3634H24.5859V69.6395Z" fill="#6E6E6E"/>
<path d="M30.0094 71.7672C30.0094 71.9507 30.0114 72.1363 30.0155 72.3198C30.0217 72.5034 30.0412 72.7064 30.076 72.9299H29.4659L29.348 72.5034H29.3203C29.2322 72.6572 29.1071 72.7802 28.944 72.8735C28.779 72.9668 28.5852 73.0161 28.3637 73.0161C27.9505 73.0161 27.6316 72.8807 27.404 72.61C27.1763 72.3373 27.0625 71.9128 27.0625 71.3365C27.0625 70.7757 27.1886 70.3409 27.4429 70.0312C27.6972 69.7195 28.0684 69.5637 28.5595 69.5637C28.6938 69.5637 28.8056 69.5729 28.8938 69.5852C28.9809 69.6016 29.0691 69.6262 29.1563 69.6621V68.3281H30.0094V71.7672ZM28.5595 72.2922C28.7256 72.2922 28.8559 72.2522 28.9533 72.1722C29.0497 72.0902 29.1183 71.9743 29.1563 71.8205V70.4281C29.0937 70.3799 29.0271 70.344 28.9533 70.3194C28.8805 70.2978 28.7831 70.2845 28.6651 70.2845C28.4232 70.2845 28.2437 70.3655 28.1237 70.5285C28.0038 70.6905 27.9433 70.9664 27.9433 71.3611C27.9433 71.6411 27.9915 71.8666 28.0899 72.0368C28.1873 72.2081 28.3442 72.2922 28.5595 72.2922Z" fill="#6E6E6E"/>
<path d="M30.6602 72.4926C30.6602 72.3388 30.7063 72.2178 30.8037 72.1275C30.9001 72.0383 31.0272 71.9922 31.1841 71.9922C31.3502 71.9922 31.4804 72.0383 31.5789 72.1275C31.6732 72.2188 31.7235 72.3388 31.7235 72.4926C31.7235 72.6433 31.6732 72.7663 31.5789 72.8566C31.4804 72.9509 31.3502 72.995 31.1841 72.995C31.0272 72.995 30.9001 72.9509 30.8037 72.8566C30.7063 72.7653 30.6602 72.6433 30.6602 72.4926Z" fill="#6E6E6E"/>
<path d="M59.9942 72.2408H60.9058V69.6487L61.0063 69.2037L60.6915 69.5882L60.107 69.9912L59.7461 69.4969L61.2421 68.2891H61.7209V72.2408H62.614V72.9647H59.9942V72.2408Z" fill="#6E6E6E"/>
<path d="M63.3516 69.8121C63.3516 69.5896 63.3854 69.3835 63.4521 69.1928C63.5197 69.0082 63.6182 68.8452 63.7484 68.7099C63.8786 68.5786 64.0365 68.474 64.2231 68.3961C64.4077 68.3202 64.622 68.2812 64.8619 68.2812C65.3561 68.2812 65.7447 68.4299 66.0277 68.7252C66.3097 69.0205 66.4481 69.4512 66.4481 70.0162C66.4481 70.5237 66.3856 70.9626 66.2574 71.3317C66.1252 71.7008 65.9549 72.0084 65.7386 72.2566C65.5202 72.5047 65.27 72.6934 64.986 72.8246C64.702 72.9559 64.4036 73.0338 64.0868 73.0615L63.9022 72.3909C64.1442 72.3611 64.3585 72.3007 64.5451 72.2145C64.7358 72.1263 64.8958 72.0187 65.0321 71.8874C65.1685 71.7613 65.2782 71.6137 65.3644 71.4496C65.4484 71.2845 65.5089 71.1092 65.5448 70.9195C65.4402 71.0343 65.3264 71.1123 65.2044 71.1543C65.0865 71.2004 64.9245 71.221 64.7235 71.221C64.5574 71.221 64.3913 71.1922 64.2272 71.1358C64.0652 71.0795 63.9186 70.9913 63.7884 70.8775C63.6602 70.7606 63.5536 70.615 63.4715 70.4366C63.3916 70.2622 63.3516 70.0531 63.3516 69.8121ZM64.178 69.766C64.178 70.0172 64.2477 70.2048 64.3882 70.332C64.5287 70.4591 64.705 70.5217 64.9152 70.5217C65.0957 70.5217 65.2392 70.495 65.352 70.4366C65.4659 70.3802 65.554 70.3104 65.6166 70.2274C65.6309 70.1361 65.6371 70.0469 65.6371 69.9649C65.6371 69.8418 65.6207 69.7219 65.5909 69.604C65.5612 69.484 65.513 69.3804 65.4484 69.2882C65.3838 69.1938 65.3038 69.1241 65.2044 69.0677C65.106 69.0113 64.9901 68.9857 64.8558 68.9857C64.6415 68.9857 64.4733 69.0554 64.3574 69.1918C64.2385 69.3302 64.178 69.5209 64.178 69.766Z" fill="#6E6E6E"/>
<path d="M67.4571 72.9686L68.9613 69.4301L69.2494 69.1081L68.8547 69.1738H67.168V68.375H70.1282V68.6231L68.2897 72.9686H67.4571Z" fill="#6E6E6E"/>
<path d="M71.943 72.3042C72.2311 72.3042 72.4516 72.2344 72.6054 72.094C72.7592 71.9535 72.834 71.7628 72.834 71.5177C72.834 71.2542 72.7458 71.0625 72.5654 70.9404C72.3849 70.8184 72.1286 70.7559 71.7964 70.7559L71.2796 70.7764V68.375H73.5384V69.1738H72.0148V70.0586L72.2834 70.033C72.4977 70.0443 72.6894 70.0822 72.8638 70.153C73.036 70.2206 73.1847 70.318 73.3067 70.4442C73.4308 70.5672 73.5251 70.721 73.5907 70.8953C73.6553 71.0737 73.6871 71.2696 73.6871 71.49C73.6871 71.7484 73.6451 71.9771 73.5589 72.1709C73.4708 72.3688 73.3488 72.5349 73.1929 72.6651C73.037 72.7953 72.8545 72.8958 72.6443 72.9583C72.4341 73.025 72.2055 73.0599 71.9553 73.0599C71.7594 73.0599 71.5708 73.0424 71.3944 73.0096C71.216 72.9758 71.0684 72.9317 70.9453 72.8732L71.174 72.1668C71.2745 72.2088 71.3862 72.2437 71.5062 72.2673C71.6241 72.2939 71.7707 72.3042 71.943 72.3042Z" fill="#6E6E6E"/>
<path d="M13.7656 29.5147L14.7428 30.3473L15.0689 29.9689L18.2526 32.7507L17.9593 33.0891L18.9355 33.9217C19.4861 33.2788 20.0644 32.6451 20.6683 32.0278L19.7496 31.1317L19.3948 31.4988L18.3326 30.4867C18.7038 30.0971 19.0831 29.7126 19.4676 29.3373L20.495 30.3852L20.1485 30.7267L21.0559 31.6331C21.6691 31.0199 22.3038 30.4221 22.9549 29.8418L22.1008 28.8841L21.7429 29.205L18.8975 26.0808L19.2861 25.7301L18.432 24.7734C17.6876 25.4368 16.9617 26.1208 16.2532 26.8303L17.1596 27.7377L17.5379 27.3645L18.5653 28.4114C18.1685 28.8 17.7778 29.1937 17.3964 29.5947L16.3341 28.5826L16.7217 28.1797L15.803 27.2835C15.1048 28.0002 14.426 28.7416 13.7656 29.5147Z" fill="#6E6E6E"/>
<path d="M21.4096 26.7764C21.5255 26.4073 21.7131 25.9284 22.11 25.6034C22.4729 25.304 22.8195 25.1676 23.0922 25.5101L23.3024 25.7767C23.2348 25.7592 22.8205 25.7223 22.4278 26.0463C21.6711 26.6656 21.5163 27.7289 22.2463 28.5462C22.9959 29.389 23.9351 29.2188 24.5247 28.7379C24.7492 28.5523 25.0558 28.1422 24.9851 27.5659L25.4096 27.7915C25.8628 27.4367 26.3231 27.0871 26.7897 26.7487L26.0576 25.7418L25.6567 26.0371L24.5267 24.5155C23.6008 23.2533 22.2556 23.7085 21.426 24.3904C20.7883 24.9092 20.5042 25.7572 20.3945 26.1632L21.4096 26.7764ZM24.2283 26.9404C24.2591 27.1025 24.2078 27.366 24.0151 27.5218C23.8244 27.6787 23.5598 27.6572 23.3876 27.447C23.1948 27.2163 23.1743 26.9558 23.4357 26.7415C23.7126 26.52 23.9484 26.6287 23.9987 26.6513L24.2283 26.9404Z" fill="#6E6E6E"/>
<path d="M28.9191 25.2821L28.225 24.2157L27.8927 24.4331L25.9158 21.4401C25.3427 21.8185 24.7787 22.2091 24.222 22.607L24.9582 23.6344L25.2555 23.4231L26.5957 25.3211L26.3127 25.5231L27.055 26.5566C27.6651 26.1168 28.2885 25.6923 28.9191 25.2821ZM23.6026 21.3058C23.8754 21.6862 24.4998 21.8718 24.9633 21.555C25.4872 21.1971 25.5344 20.6332 25.2412 20.1851C24.9981 19.8118 24.3809 19.5647 23.8518 19.9277C23.3135 20.2938 23.3422 20.9428 23.6026 21.3058Z" fill="#6E6E6E"/>
<path d="M31.2088 23.8919L30.5793 22.7856L30.2204 22.9917L29.7169 22.1252C29.2842 21.388 29.5498 20.9697 30.2307 20.5964L29.3899 19.0625C28.5829 19.5096 28.5849 19.9761 28.6229 20.4929L28.0794 20.0909C27.6006 20.376 27.1238 20.6651 26.6562 20.9656L27.335 22.0309L27.6488 21.831L28.8833 23.8007L28.5757 23.9955L29.2596 25.0701C29.8995 24.6599 30.5516 24.2672 31.2088 23.8919Z" fill="#6E6E6E"/>
<path d="M34.5475 19.2533L33.6821 17.2344L32.7203 17.6589L32.7777 18.1459C32.5634 18.0342 32.0856 17.8527 31.5401 18.1213C30.5045 18.6217 29.9498 19.808 30.7834 21.3122C31.6242 22.8246 32.9315 23.0881 33.9794 22.5867C34.7505 22.2145 35.2048 21.4783 35.3657 20.8693L34.3055 20.251C34.1979 20.6826 34.0256 20.9933 33.6277 21.1728C33.1489 21.3881 32.6373 21.0795 32.3543 20.5145C32.0702 19.9495 32.0241 19.2902 32.4865 19.0657C32.8485 18.8955 33.2002 19.3425 33.4104 19.7598L34.5475 19.2533Z" fill="#6E6E6E"/>
<path d="M34.0039 17.1009L34.5002 18.2831L34.8344 18.1437L35.3441 19.3843C35.9613 20.8803 36.6124 21.4166 37.726 21.0065C38.3545 20.7788 38.457 20.2159 38.5503 19.9288L38.9451 20.4435C39.4198 20.2928 39.8946 20.1452 40.3724 20.0139L40.0258 18.7702L39.6413 18.8788L38.6447 15.4531C37.9033 15.6674 37.1682 15.9033 36.4432 16.1586L36.8688 17.3705L37.4081 17.1829L37.9003 18.6492C38.0397 19.0614 37.9187 19.4223 37.649 19.5176C37.3312 19.6263 37.1015 19.3003 36.8134 18.5138L36.0136 16.3134C35.3359 16.5605 34.6673 16.823 34.0039 17.1009Z" fill="#6E6E6E"/>
<path d="M39.3281 15.264L39.6593 16.4831L40.1115 16.3632L40.5442 18.0386C40.8815 19.2414 41.1215 19.9847 42.2576 19.7264C42.4329 19.6843 42.9374 19.511 43.1466 19.3531L42.9118 18.1309C42.7754 18.2375 42.5477 18.3729 42.4442 18.3954C42.1345 18.457 42.0956 18.0109 42.0269 17.6879L41.6639 15.9971L42.4698 15.8341L42.2319 14.5934L41.3973 14.7626L41.0887 13.3281C40.5719 13.6388 40.0664 13.9505 39.5711 14.2786L39.7947 15.144L39.3281 15.264Z" fill="#6E6E6E"/>
<path d="M43.386 19.312C43.7069 19.2494 44.0268 19.1992 44.3488 19.1479L44.3283 18.5512C44.5733 18.8875 45.0604 19.1582 45.613 19.0946C46.3564 19.0064 47.0075 18.422 46.9491 17.5094C46.8835 16.4892 46.1503 16.2564 45.4797 16.078C44.9168 15.9222 44.398 15.8811 44.359 15.6104C44.3272 15.3685 44.4687 15.2434 44.6502 15.2188C45.0829 15.1583 45.57 15.4454 45.61 15.8494C45.977 15.8124 46.3472 15.7766 46.7173 15.7519L46.5922 14.0078C46.2231 14.0304 45.8571 14.0673 45.491 14.1032L45.4859 14.7491C45.2593 14.3513 44.6851 14.0714 44.076 14.1575C43.4383 14.2447 42.58 14.8219 42.7687 15.7981C42.9369 16.6953 43.549 16.9978 44.1375 17.1464C44.763 17.2941 45.3793 17.2736 45.4131 17.5627C45.4428 17.8334 45.2583 17.9124 45.0973 17.9339C44.8573 17.9606 44.2319 17.9165 44.1529 17.4079C43.7889 17.4633 43.426 17.5217 43.065 17.5925L43.386 19.312Z" fill="#6E6E6E"/>
<path d="M53.2874 15.5405C53.2054 16.2849 53.191 16.5156 52.9244 16.9175C52.7942 16.7217 52.5922 16.3249 52.3072 15.6307C53.2105 15.118 53.6453 14.3726 53.6125 13.7112C53.5827 13.0519 53.0659 12.4777 52.1421 12.41C51.0224 12.3301 49.995 13.5236 50.8184 15.0309C50.4195 15.2923 49.5746 15.8122 49.5664 17.1462C49.5726 19.3148 51.7248 19.3035 52.5625 18.6996C53.3479 19.6091 54.0769 18.6781 54.1528 18.2382C53.8062 18.4156 53.5776 18.15 53.3961 17.7634C53.5602 17.5584 53.6709 17.3389 53.7529 17.0847C53.999 17.138 54.2092 17.1339 54.404 17.1646L54.6983 15.725C54.2287 15.6522 53.7581 15.5928 53.2874 15.5405ZM52.0519 17.8229C51.6356 18.1715 51.0891 18.0915 50.8081 17.7593C50.5313 17.4292 50.5118 16.8283 51.2705 16.1516C51.451 16.612 51.7371 17.3092 52.0519 17.8229ZM52.2067 13.2334C52.8291 13.2826 52.6896 14.0711 51.8704 14.4843C51.611 14.1388 51.5269 13.1832 52.2067 13.2334Z" fill="#6E6E6E"/>
<path d="M56.6914 19.6261C57.6511 19.8568 58.5975 20.1213 59.5347 20.4382C60.9487 20.9232 61.7433 20.6258 62.2724 19.3554C62.6333 18.4828 62.3524 17.8102 61.8336 17.4093C62.5421 17.3652 62.8794 17.076 63.185 16.3173C63.5818 15.3432 63.1265 14.4809 61.6347 13.9795C60.5211 13.6042 59.3881 13.2873 58.2417 13.0156L57.9557 14.2368L58.4725 14.3609L57.4327 18.5074L56.9785 18.3987L56.6914 19.6261ZM60.2894 14.8951L60.8359 15.0674C61.1681 15.174 61.325 15.5072 61.1804 15.9297C61.0287 16.3726 60.8164 16.5931 60.3735 16.4506L59.8628 16.2906L60.2894 14.8951ZM59.0497 18.9565L59.5419 17.3396L60.1643 17.5354C60.6134 17.6841 60.7272 18.1045 60.5611 18.5731C60.3888 19.0652 59.9879 19.259 59.666 19.1503L59.0497 18.9565Z" fill="#6E6E6E"/>
<path d="M65.5159 21.269C64.9171 21.4464 64.5305 21.2854 64.2824 21.1614C63.6672 20.8619 63.7954 20.3349 63.862 20.0765C64.6515 20.4446 65.4318 20.8404 66.1988 21.2618C66.6192 20.8609 66.9022 20.1647 66.9719 19.814C67.1503 18.9804 66.7156 18.0648 65.7528 17.5962C64.5234 16.9974 63.175 17.4701 62.5783 18.9486C61.8831 20.6764 62.5906 21.8043 63.457 22.2277C64.1901 22.5856 64.8453 22.6799 65.6697 22.4256L65.5159 21.269ZM64.2906 19.2163C64.4085 19.0009 64.7469 18.5672 65.2257 18.7989C65.7241 19.046 65.6082 19.4459 65.4482 19.7792C65.0658 19.5854 64.6813 19.3967 64.2906 19.2163Z" fill="#6E6E6E"/>
<path d="M67.6529 20.5003C68.0374 20.488 68.5522 20.5075 68.991 20.7772C69.3919 21.0212 69.6339 21.3062 69.3991 21.6733L69.2145 21.9594C69.2104 21.8897 69.11 21.4867 68.6762 21.2211C67.8416 20.7095 66.7896 20.9176 66.2615 21.8774C65.715 22.8658 66.1774 23.6902 66.8224 24.0849C67.0664 24.2347 67.5535 24.3885 68.0744 24.1352L68.0005 24.6079C68.4835 24.9216 68.9654 25.2436 69.4401 25.5768L70.1507 24.5546L69.7406 24.2726L70.808 22.7058C71.6969 21.42 70.8315 20.2973 69.9128 19.7354C69.2115 19.3017 68.3143 19.3088 67.8939 19.3416L67.6529 20.5003ZM68.4179 23.2144C68.2753 23.2975 68.0098 23.3334 67.8006 23.2042C67.5904 23.075 67.5237 22.8176 67.6663 22.5849C67.8221 22.3285 68.0631 22.2239 68.3471 22.4003C68.6475 22.589 68.6219 22.8494 68.6178 22.9017L68.4179 23.2144Z" fill="#6E6E6E"/>
<path d="M71.5804 27.1369L72.3494 26.1239L72.0151 25.8706L72.6139 25.0698C73.1266 24.3859 73.6157 24.469 74.2319 24.9457L75.3034 23.5636C74.5846 23.0078 74.1561 23.1914 73.6957 23.4262L73.8556 22.771C73.4127 22.4408 72.9666 22.1158 72.5114 21.7969L71.7844 22.8304L72.0869 23.0458L70.7406 24.9375L70.4381 24.7243L69.707 25.766C70.3366 26.208 70.96 26.6663 71.5804 27.1369Z" fill="#6E6E6E"/>
<path d="M78.518 24.9699L77.5983 26.0773C77.546 25.8815 77.466 25.4847 76.981 25.0909C76.1423 24.405 74.7939 24.5731 73.8649 25.7728C73.0375 26.8422 72.8857 28.2593 73.7932 29.0006C74.2402 29.3636 74.7344 29.3462 74.8944 29.3267L74.7744 29.6938L76.2868 30.9703L77.1082 30.0106L76.7975 29.743L80.7051 25.1576L79.0092 23.7344L78.2063 24.7085L78.518 24.9699ZM75.3035 26.9202C75.768 26.3449 76.2653 26.1358 76.5452 26.3654C76.8016 26.5767 76.7052 27.1529 76.2827 27.6615C75.8162 28.2716 75.2758 28.4438 75.0215 28.2336C74.7324 27.9978 74.9354 27.3713 75.3035 26.9202Z" fill="#6E6E6E"/>
<path d="M76.4844 31.142L77.2913 31.8372L77.7384 31.4383C77.6523 31.8536 77.7948 32.4298 78.2634 32.8359C78.8919 33.3845 79.8311 33.4849 80.432 32.7959C81.1026 32.0279 80.7345 31.3307 80.4064 30.7083C80.1316 30.1833 79.8219 29.7619 80.0003 29.5558C80.1582 29.3712 80.3489 29.3938 80.4832 29.5127C80.8093 29.7967 80.9324 30.3432 80.6637 30.6498L81.5127 31.3901L82.6621 30.0726L81.8614 29.3712L81.3866 29.809C81.525 29.3743 81.3568 28.7755 80.9118 28.3879C80.4453 27.9829 79.4794 27.7029 78.8335 28.4576C78.2388 29.1497 78.3987 29.8244 78.6868 30.3843C78.9975 30.9718 79.4517 31.4342 79.26 31.6547C79.0816 31.8597 78.8878 31.7664 78.7596 31.6547C78.5638 31.4845 78.1608 30.9523 78.4971 30.5647L77.6256 29.8131L76.4844 31.142Z" fill="#6E6E6E"/>
<path d="M47.9293 99.2443C46.382 99.2443 44.9209 98.8813 43.8094 98.2231L11.6942 79.1391C9.39634 77.7743 7.59375 74.608 7.59375 71.9339V27.3104C7.59375 24.6363 9.39634 21.472 11.6942 20.1042L43.8094 1.02228C44.9209 0.362974 46.382 0 47.9293 0C49.4734 0 50.9376 0.362974 52.0491 1.02228L84.1633 20.1042C86.4622 21.472 88.2627 24.6363 88.2627 27.3104V71.9339C88.2627 74.608 86.4622 77.7723 84.1633 79.1391L52.0491 98.2231C50.9366 98.8813 49.4734 99.2443 47.9293 99.2443ZM47.9293 1.71029C46.704 1.71029 45.5217 1.99534 44.684 2.49264L12.5688 21.5756C10.8 22.6266 9.30713 25.2525 9.30713 27.3094V71.9329C9.30713 73.9908 10.8 76.6157 12.5688 77.6657L44.684 96.7506C46.3574 97.7442 49.4991 97.7442 51.1735 96.7506L83.2876 77.6657C85.0564 76.6167 86.5503 73.9908 86.5503 71.9329V27.3094C86.5503 25.2525 85.0564 22.6276 83.2876 21.5756L51.1735 2.49264C50.3358 1.99637 49.1525 1.71029 47.9293 1.71029Z" fill="#6E6E6E"/>
<path d="M57.4671 40.5781H0V57.1233H57.4671V40.5781Z" fill="#6E6E6E"/>
<path d="M3.44531 52.1454V45.5595C3.44531 45.214 3.72523 44.9453 4.0595 44.9453C4.07078 44.9453 4.07078 44.9453 4.09231 44.9453C4.09231 44.9453 4.09231 44.9453 4.10359 44.9453H5.64367C6.81771 44.9453 7.76514 45.8948 7.76514 47.0658C7.76514 47.5466 7.60929 47.9804 7.34167 48.3382C8.0102 48.7627 8.46957 49.5112 8.46957 50.3592C8.46957 51.6881 7.39601 52.7585 6.07945 52.7585H4.10359C4.09231 52.7585 4.09231 52.7473 4.09231 52.7473C4.07078 52.7473 4.07078 52.7585 4.0595 52.7585C3.72523 52.7596 3.44531 52.4807 3.44531 52.1454ZM4.68395 47.9711H5.64367C6.13585 47.9711 6.52548 47.5589 6.52548 47.0668C6.52548 46.5746 6.13585 46.186 5.64367 46.186H4.68395V47.9711ZM4.68395 51.522H6.07844C6.71416 51.5096 7.22888 51.0072 7.22888 50.3602C7.22888 49.7235 6.71416 49.221 6.07844 49.2108H4.68395V51.522Z" fill="white"/>
<path d="M13.8429 50.9151H11.1298L10.5843 52.365C10.4818 52.6111 10.249 52.7556 10.0029 52.7556C9.925 52.7556 9.85939 52.7444 9.78966 52.7238C9.4677 52.5998 9.31082 52.243 9.42258 51.921L11.8896 45.3433C11.9911 45.0993 12.2351 44.9424 12.4822 44.9537C12.7376 44.9424 12.9713 45.0993 13.0739 45.3433L15.5399 51.921C15.6506 52.243 15.4937 52.5998 15.1718 52.7238C15.1154 52.7454 15.0364 52.7556 14.9585 52.7556C14.7145 52.7556 14.4796 52.6111 14.3904 52.365L13.8429 50.9151ZM13.3835 49.6847L12.4812 47.2843L11.5748 49.6847H13.3835Z" fill="white"/>
<path d="M22.2398 51.8337C22.3536 52.1587 22.1731 52.5032 21.8501 52.616C21.806 52.6283 21.7148 52.6488 21.6051 52.6488C21.6051 52.6488 21.6051 52.6488 21.5928 52.6488C21.481 52.6488 21.3128 52.6273 21.156 52.5258C21.0114 52.4376 20.8883 52.291 20.7991 52.1351C20.6443 51.8132 20.5653 51.4102 20.5653 50.797C20.5541 50.5827 20.5079 50.4381 20.43 50.3161C20.3654 50.1931 20.2301 50.0803 20.0968 49.9911C19.8609 49.8363 19.5697 49.7471 19.4713 49.7235H18.1537V52.1454C18.1537 52.4807 17.8748 52.7596 17.5293 52.7596C17.1837 52.7596 16.9141 52.4817 16.9141 52.1454V45.5595C16.9141 45.214 17.1837 44.9453 17.5293 44.9453C17.5293 44.9453 17.5293 44.9453 17.5395 44.9453H19.5267C20.8555 44.9453 21.9168 46.0158 21.9168 47.3457C21.9168 48.0829 21.5825 48.7299 21.0452 49.1759C21.1908 49.2877 21.3251 49.42 21.4369 49.5892C21.6604 49.9142 21.806 50.3254 21.806 50.796C21.7927 51.1282 21.8265 51.3425 21.8501 51.4533C22.0296 51.5107 22.1731 51.645 22.2398 51.8337ZM20.6781 47.3467C20.6781 46.6997 20.1634 46.186 19.5267 46.186H18.1547V48.4859H19.5267C20.1634 48.4869 20.6781 47.9722 20.6781 47.3467Z" fill="white"/>
<path d="M24.0586 52.1454V45.5595C24.0586 45.214 24.3385 44.9453 24.6738 44.9453C24.6851 44.9453 24.6851 44.9453 24.7056 44.9453C24.7056 44.9453 24.7056 44.9453 24.7189 44.9453H26.258C27.43 44.9453 28.3784 45.8948 28.3784 47.0658C28.3784 47.5466 28.2226 47.9804 27.955 48.3382C28.6245 48.7627 29.0828 49.5112 29.0828 50.3592C29.0828 51.6881 28.0113 52.7585 26.6948 52.7585H24.7189C24.7056 52.7585 24.7056 52.7473 24.7056 52.7473C24.6851 52.7473 24.6851 52.7585 24.6738 52.7585C24.3385 52.7596 24.0586 52.4807 24.0586 52.1454ZM25.2982 47.9711H26.258C26.7491 47.9711 27.1398 47.5589 27.1398 47.0668C27.1398 46.5746 26.7481 46.186 26.258 46.186H25.2982V47.9711ZM25.2982 51.522H26.6938C27.3274 51.5096 27.8422 51.0072 27.8422 50.3602C27.8422 49.7235 27.3274 49.221 26.6938 49.2108H25.2982V51.522Z" fill="white"/>
<path d="M30.6914 52.1454V45.5595C30.6914 45.214 30.96 44.9453 31.3056 44.9453H31.3158C31.3158 44.9453 31.3158 44.9453 31.3384 44.9453H34.9538C35.2778 44.9453 35.5701 45.214 35.5701 45.5595C35.5701 45.905 35.2789 46.185 34.9538 46.185H31.93V48.2254H34.5293C34.8656 48.2254 35.1466 48.5166 35.1466 48.8417C35.1466 49.1872 34.8667 49.4661 34.5293 49.4661H31.93V51.5209H34.9538C35.2778 51.5209 35.5701 51.7988 35.5701 52.1443C35.5701 52.4796 35.2789 52.7585 34.9538 52.7585H31.3384C31.3158 52.7585 31.3158 52.7473 31.3158 52.7473L31.3056 52.7585C30.959 52.7596 30.6914 52.4807 30.6914 52.1454Z" fill="white"/>
<path d="M42.7075 51.8337C42.8192 52.1587 42.6398 52.5032 42.3148 52.616C42.2727 52.6283 42.1825 52.6488 42.0707 52.6488C42.0707 52.6488 42.0707 52.6488 42.0595 52.6488C41.9487 52.6488 41.7806 52.6273 41.6237 52.5258C41.4781 52.4376 41.355 52.291 41.2648 52.1351C41.112 51.8132 41.032 51.4102 41.032 50.797C41.0208 50.5827 40.9746 50.4381 40.8967 50.3161C40.8321 50.1931 40.6957 50.0803 40.5635 49.9911C40.3276 49.8363 40.0364 49.7471 39.938 49.7235H38.6214V52.1454C38.6214 52.4807 38.3415 52.7596 37.997 52.7596C37.6494 52.7596 37.3828 52.4817 37.3828 52.1454V45.5595C37.3828 45.214 37.6494 44.9453 37.997 44.9453C37.997 44.9453 37.997 44.9453 38.0083 44.9453H39.9944C41.3243 44.9453 42.3855 46.0158 42.3855 47.3457C42.3855 48.0829 42.0482 48.7299 41.5119 49.1759C41.6575 49.2877 41.7918 49.42 41.9046 49.5892C42.1271 49.9142 42.2727 50.3254 42.2727 50.796C42.2604 51.1282 42.2943 51.3425 42.3148 51.4533C42.4963 51.5107 42.6398 51.645 42.7075 51.8337ZM41.1459 47.3467C41.1459 46.6997 40.6311 46.186 39.9944 46.186H38.6225V48.4859H39.9944C40.6311 48.4869 41.1459 47.9722 41.1459 47.3467Z" fill="white"/>
<path d="M94.9985 47.6094H50.1914V64.1535H94.9985V47.6094Z" fill="#6E6E6E"/>
<path d="M63.056 57.9629C63.256 57.7189 63.6251 57.6851 63.8712 57.885C64.3603 58.288 65.2093 58.7576 66.0019 58.7463C66.5586 58.7463 67.0631 58.5781 67.3994 58.3341C67.7296 58.088 67.8762 57.8071 67.8762 57.5292C67.8762 57.3826 67.8424 57.2852 67.7778 57.1724C67.7122 57.0606 67.6096 56.9478 67.4435 56.8361C67.1195 56.6259 66.5699 56.4352 65.9137 56.3121H65.8922C65.3651 56.2106 64.875 56.0773 64.4505 55.8763C64.0281 55.6754 63.6579 55.3965 63.4108 55.0068C63.2447 54.7382 63.1565 54.4265 63.1565 54.0891C63.1565 53.4186 63.5369 52.8392 64.0476 52.4588C64.5725 52.0805 65.2554 51.8672 65.9803 51.8672C67.0518 51.8672 67.8424 52.3922 68.4135 52.7613C68.6699 52.9397 68.7498 53.2976 68.5714 53.5529C68.4033 53.8205 68.0444 53.8984 67.7788 53.72C67.2077 53.3396 66.6612 53.0064 65.9803 53.0064C65.4779 53.0064 65.0309 53.1612 64.7284 53.3857C64.428 53.6103 64.3039 53.8543 64.3039 54.0881C64.3039 54.2224 64.3275 54.3106 64.3839 54.4008C64.4403 54.4911 64.5397 54.5905 64.6864 54.692C64.9745 54.891 65.4769 55.0704 66.0798 55.1822H66.1013C66.6704 55.2939 67.1964 55.4406 67.6414 55.6528C68.1018 55.8753 68.5027 56.1675 68.7591 56.5777C68.9252 56.8463 69.0277 57.1806 69.0277 57.5272C69.0277 58.2418 68.6248 58.855 68.068 59.258C67.5215 59.6609 66.7945 59.8937 66.0009 59.8937C64.795 59.8844 63.7799 59.2815 63.1452 58.7771C62.8992 58.5781 62.8653 58.209 63.056 57.9629Z" fill="white"/>
<path d="M70.75 59.2938V52.7069C70.75 52.3624 71.0186 52.0938 71.3652 52.0938C71.7097 52.0938 71.9897 52.3624 71.9897 52.7069V55.3862H74.8791V52.7069C74.8791 52.3624 75.1478 52.0938 75.4923 52.0938C75.8388 52.0938 76.1167 52.3624 76.1167 52.7069V59.2938C76.1167 59.6393 75.8388 59.907 75.4923 59.907C75.1478 59.907 74.8791 59.6393 74.8791 59.2938V56.6145H71.9897V59.2938C71.9897 59.6393 71.7097 59.907 71.3652 59.907C71.0176 59.9059 70.75 59.6393 70.75 59.2938Z" fill="white"/>
<path d="M84.4913 53.0617C85.1844 53.801 85.6192 54.7802 85.6192 55.8876C85.6192 56.9919 85.1844 57.9865 84.4913 58.7115C83.834 59.4354 82.8507 59.905 81.8233 59.905C80.7539 59.905 79.7685 59.4354 79.0897 58.7115C78.3966 57.9865 77.9844 56.9919 77.9844 55.8876C77.9844 54.7802 78.3966 53.801 79.0897 53.0617C79.7685 52.3266 80.7539 51.8672 81.8233 51.8672C82.8507 51.8662 83.834 52.3266 84.4913 53.0617ZM84.3488 55.8866C84.3488 55.1268 84.0463 54.4244 83.5879 53.9323C83.1194 53.4298 82.4949 53.1397 81.8233 53.1397C81.1127 53.1397 80.4852 53.4298 80.0166 53.9323C79.546 54.4244 79.2558 55.1268 79.2558 55.8866C79.2558 56.6433 79.546 57.3498 80.0166 57.8307C80.4852 58.3321 81.1117 58.6325 81.8233 58.6325C82.4939 58.6325 83.1194 58.3321 83.5879 57.8307C84.0463 57.3498 84.3488 56.6443 84.3488 55.8866Z" fill="white"/>
<path d="M90.4438 56.8709H89.0678V59.2938C89.0678 59.6281 88.7878 59.907 88.4433 59.907C88.109 59.907 87.8281 59.6291 87.8281 59.2938V52.7069C87.8281 52.3624 88.108 52.0938 88.4433 52.0938H88.4536H90.4438C91.7696 52.0938 92.8452 53.1632 92.8452 54.4931C92.8441 55.7984 91.7686 56.8709 90.4438 56.8709ZM89.0678 55.6323H90.4438C91.0888 55.6323 91.5932 55.1196 91.6055 54.4931C91.5932 53.8461 91.0888 53.3314 90.4438 53.3314H89.0678V55.6323Z" fill="white"/>
<path d="M71.6514 30.1137C71.5571 30.0235 71.4535 29.9414 71.3366 29.8768L61.6378 24.4588C61.3312 24.2856 60.9785 24.224 60.6206 24.2753C60.068 24.3573 59.5676 24.7142 59.2784 25.2279C59.0764 25.5888 59.0016 26 59.0477 26.3947C58.8837 26.5003 58.7494 26.6388 58.655 26.809C58.5586 26.9822 58.5207 27.1699 58.5166 27.3585C58.3505 27.4652 58.21 27.6057 58.1105 27.783C58.0142 27.9563 57.9783 28.1419 57.9742 28.3285C57.806 28.4352 57.6676 28.5756 57.5712 28.7479C57.4748 28.9202 57.4307 29.1078 57.4246 29.3016C57.2626 29.4072 57.1221 29.5487 57.0257 29.722C56.9293 29.8973 56.8935 30.0819 56.8894 30.2685C56.7212 30.3752 56.5828 30.5146 56.4884 30.6858C56.39 30.856 56.3562 31.0447 56.3521 31.2375C56.1819 31.3431 56.0393 31.4856 55.9419 31.663C55.8455 31.8383 55.8076 32.0239 55.8035 32.2105C55.6374 32.3161 55.499 32.4566 55.4026 32.6289C55.3062 32.7991 55.2744 32.9857 55.2683 33.1775C55.098 33.2841 54.9535 33.4266 54.854 33.604C54.7576 33.7773 54.7197 33.9639 54.7197 34.1495C54.5536 34.2561 54.4131 34.3966 54.3167 34.5678C54.2203 34.738 54.1885 34.9257 54.1824 35.1184C54.0142 35.2241 53.8697 35.3656 53.7723 35.5429C53.6759 35.7162 53.6379 35.9039 53.6338 36.0905C53.4698 36.1971 53.3293 36.3366 53.2329 36.5078C53.1365 36.678 53.1007 36.8667 53.0966 37.0584C52.9284 37.1651 52.7838 37.3066 52.6885 37.4839C52.5921 37.6583 52.5521 37.8439 52.55 38.0315C52.3839 38.1381 52.2455 38.2786 52.1471 38.4509C52.0486 38.6262 52.0127 38.8128 52.0086 39.0015C51.8425 39.1071 51.7 39.2496 51.5985 39.428C51.5062 39.6003 51.4662 39.7859 51.4662 39.9704C51.2981 40.0771 51.1576 40.2176 51.0612 40.3908C50.9628 40.5652 50.9269 40.7538 50.9187 40.9425C50.7546 41.0471 50.6142 41.1886 50.5157 41.3649C50.4214 41.5382 50.3834 41.7258 50.3793 41.9125C50.2132 42.0181 50.0748 42.1575 49.9764 42.3298C49.8821 42.5 49.8482 42.6887 49.8421 42.8804C49.6719 42.986 49.5293 43.1285 49.4319 43.3059C49.3355 43.4792 49.2997 43.6648 49.2956 43.8514C49.1294 43.9581 48.989 44.0985 48.8926 44.2708C48.7941 44.4441 48.7501 44.6317 48.746 44.8255C48.5799 44.9301 48.4455 45.0685 48.3491 45.2387C48.2548 45.4089 48.2169 45.5986 48.2128 45.7904C48.0446 45.896 47.9021 46.0385 47.8067 46.2118C47.7227 46.3625 47.6806 46.5276 47.6663 46.6978C47.5258 46.7983 47.4079 46.9244 47.3238 47.0751C47.2274 47.2443 47.1813 47.4361 47.1772 47.6288C47.0152 47.7344 46.8788 47.8729 46.7834 48.041C46.687 48.2112 46.6522 48.3999 46.646 48.5937C46.4779 48.7003 46.3354 48.8418 46.24 49.0151C46.1426 49.1863 46.0985 49.375 46.0934 49.5698C45.9293 49.6734 45.7919 49.8139 45.6955 49.9851C45.6012 50.1553 45.5663 50.344 45.5612 50.5347C45.393 50.6413 45.2495 50.7839 45.1511 50.9623C45.0557 51.1356 45.0167 51.3211 45.0116 51.5088C44.8455 51.6134 44.7071 51.7528 44.6127 51.921C44.5184 52.0922 44.4825 52.2819 44.4764 52.4747C44.3092 52.5793 44.1657 52.7197 44.0703 52.894C43.975 53.0643 43.9391 53.2529 43.934 53.4447C43.7668 53.5513 43.6243 53.6918 43.5269 53.8671C43.4315 54.0353 43.3977 54.2239 43.3916 54.4167C43.2244 54.5203 43.0829 54.6618 42.9845 54.8381C42.8871 55.0135 42.8481 55.2001 42.845 55.3887C42.6789 55.4943 42.5395 55.6348 42.4421 55.8071C42.3467 55.9763 42.3129 56.1639 42.3067 56.3556C42.1396 56.4613 41.9971 56.6017 41.9007 56.775C41.8043 56.9463 41.7602 57.138 41.7551 57.3287C41.59 57.4353 41.4536 57.5768 41.3572 57.7491C41.2619 57.9193 41.2168 58.108 41.2127 58.3007C41.0486 58.4064 40.9112 58.5479 40.8158 58.716C40.7205 58.8862 40.6846 59.0749 40.6795 59.2666C40.5123 59.3733 40.3698 59.5137 40.2745 59.687C40.1791 59.8562 40.1432 60.0459 40.1381 60.2356C39.971 60.3412 39.8295 60.4837 39.73 60.657C39.6346 60.8262 39.5998 61.0159 39.5947 61.2066C39.4275 61.3132 39.284 61.4547 39.1855 61.6311C39.0892 61.8054 39.0512 61.992 39.0461 62.1807C38.882 62.2863 38.7426 62.4258 38.6462 62.597C38.5508 62.7662 38.516 62.9548 38.5108 63.1486C38.3417 63.2512 38.2022 63.3927 38.1058 63.5649C38.0095 63.7351 37.9756 63.9238 37.9695 64.1186C37.8003 64.2232 37.6588 64.3657 37.5583 64.5421C37.466 64.7123 37.4312 64.8979 37.425 65.0866C37.2579 65.1942 37.1164 65.3357 37.0189 65.5111C36.9236 65.6802 36.8887 65.8679 36.8836 66.0586C36.7155 66.1642 36.575 66.3057 36.4776 66.48C36.3822 66.6482 36.3463 66.8368 36.3422 67.0286C36.1741 67.1332 36.0346 67.2726 35.9413 67.4428C35.8429 67.611 35.808 67.7986 35.7998 67.9914C35.4379 68.1555 35.1251 68.4343 34.9211 68.7984C34.674 69.2413 34.6063 69.7653 34.7375 70.2339C34.7427 70.2523 34.7529 70.2677 34.758 70.2861C34.7806 70.3702 34.8134 70.4482 34.8534 70.5281C34.8595 70.5435 34.8698 70.5538 34.876 70.5681C34.9518 70.7147 35.0492 70.8429 35.1743 70.9619C35.24 71.0265 35.3148 71.0849 35.3927 71.1372C35.4307 71.1628 35.4563 71.1997 35.4983 71.2223L45.1941 76.6382C45.2628 76.6782 45.3418 76.6905 45.4156 76.7203C45.8791 76.9417 46.4051 77.0238 46.9495 76.9458C48.1369 76.7705 49.3212 75.8651 50.0359 74.5824L72.121 35.0539C73.1895 33.1693 72.9557 31.0796 71.6514 30.1137Z" fill="white"/>
<path d="M48.4656 48.0462L58.1624 53.4631C58.3829 53.5872 58.6248 53.5749 58.7007 53.4416C58.7745 53.3052 58.6587 53.095 58.4341 52.972L48.7394 47.556C48.5169 47.4309 48.277 47.4422 48.2031 47.5776C48.1272 47.7119 48.2411 47.9241 48.4656 48.0462Z" fill="#6E6E6E"/>
<path d="M47.9199 49.0129L57.6228 54.4308C57.8392 54.5559 58.0812 54.5447 58.156 54.4083C58.2319 54.274 58.114 54.0617 57.8956 53.9397L48.1967 48.5227C47.9763 48.4007 47.7364 48.411 47.6605 48.5453C47.5836 48.6806 47.6994 48.8908 47.9199 49.0129Z" fill="#6E6E6E"/>
<path d="M47.383 49.9836L57.0818 55.3995C57.3023 55.5236 57.5422 55.5134 57.6181 55.378C57.694 55.2437 57.576 55.0335 57.3556 54.9084L47.6567 49.4925C47.4342 49.3684 47.1964 49.3797 47.1205 49.5171C47.0456 49.6504 47.1605 49.8595 47.383 49.9836Z" fill="#6E6E6E"/>
<path d="M46.8417 50.9534L56.5416 56.3694C56.76 56.4924 57.002 56.4822 57.0758 56.3478C57.1496 56.2125 57.0317 56.0023 56.8133 55.8782L47.1145 50.4623C46.894 50.3372 46.6531 50.3485 46.5772 50.4838C46.5023 50.6202 46.6202 50.8294 46.8417 50.9534Z" fill="#6E6E6E"/>
<path d="M46.2978 51.9223L55.9957 57.3372C56.2182 57.4623 56.4561 57.451 56.5319 57.3167C56.6058 57.1783 56.492 56.9701 56.2715 56.845L46.5716 51.4291C46.3501 51.3071 46.1112 51.3173 46.0343 51.4506C45.9595 51.588 46.0764 51.7992 46.2978 51.9223Z" fill="#6E6E6E"/>
<path d="M45.7573 52.8895L55.4551 58.3075C55.6776 58.4306 55.9196 58.4213 55.9913 58.285C56.0672 58.1476 55.9513 57.9394 55.7309 57.8143L46.032 52.3984C45.8116 52.2754 45.5717 52.2856 45.4958 52.422C45.4199 52.5573 45.5368 52.7675 45.7573 52.8895Z" fill="#6E6E6E"/>
<path d="M45.2138 53.8662L54.9137 59.2841C55.1341 59.4082 55.3761 59.3959 55.4499 59.2626C55.5258 59.1262 55.4079 58.915 55.1854 58.793L45.4896 53.375C45.2692 53.2509 45.0292 53.2633 44.9533 53.3986C44.8764 53.5329 44.9933 53.7431 45.2138 53.8662Z" fill="#6E6E6E"/>
<path d="M44.6724 54.845L54.3692 60.261C54.5896 60.3861 54.8336 60.3738 54.9054 60.2394C54.9813 60.101 54.8654 59.8929 54.645 59.7688L44.9482 54.3508C44.7246 54.2278 44.4868 54.2401 44.4088 54.3744C44.335 54.5087 44.4519 54.721 44.6724 54.845Z" fill="#6E6E6E"/>
<path d="M44.1225 55.8132L53.8213 61.2292C54.0397 61.3532 54.2796 61.343 54.3555 61.2076C54.4293 61.0723 54.3155 60.86 54.0951 60.737L44.3962 55.3221C44.1758 55.1959 43.9358 55.2083 43.8589 55.3436C43.7831 55.48 43.901 55.6881 44.1225 55.8132Z" fill="#6E6E6E"/>
<path d="M43.5792 56.7805L53.276 62.1985C53.4964 62.3215 53.7384 62.3113 53.8122 62.1759C53.8902 62.0385 53.7702 61.8304 53.5518 61.7073L43.8509 56.2904C43.6315 56.1663 43.3926 56.1755 43.3167 56.3119C43.2398 56.4452 43.3557 56.6554 43.5792 56.7805Z" fill="#6E6E6E"/>
<path d="M43.0438 57.751L52.7417 63.167C52.9601 63.291 53.202 63.2808 53.2759 63.1454C53.3517 63.0091 53.2359 62.7978 53.0154 62.6758L43.3176 57.2578C43.0961 57.1338 42.8562 57.1461 42.7813 57.2814C42.7044 57.4157 42.8223 57.6259 43.0438 57.751Z" fill="#6E6E6E"/>
<path d="M42.4967 58.7185L52.1945 64.1355C52.4129 64.2575 52.6569 64.2493 52.7328 64.1129C52.8066 63.9766 52.6908 63.7674 52.4683 63.6454L42.7704 58.2294C42.5489 58.1023 42.31 58.1136 42.2342 58.251C42.1583 58.3853 42.2741 58.5934 42.4967 58.7185Z" fill="#6E6E6E"/>
<path d="M41.9556 59.6874L51.6554 65.1054C51.8759 65.2254 52.1158 65.2171 52.1917 65.0818C52.2676 64.9454 52.1517 64.7352 51.9313 64.6132L42.2314 59.1963C42.0099 59.0722 41.771 59.0824 41.6951 59.2178C41.6192 59.3531 41.7351 59.5654 41.9556 59.6874Z" fill="#6E6E6E"/>
<path d="M41.413 60.6624L51.1108 66.0804C51.3333 66.2035 51.5733 66.1942 51.6491 66.0579C51.725 65.9205 51.6071 65.7113 51.3887 65.5893L41.6878 60.1703C41.4673 60.0482 41.2264 60.0605 41.1526 60.1949C41.0757 60.3292 41.1925 60.5394 41.413 60.6624Z" fill="#6E6E6E"/>
<path d="M40.8711 61.6323L50.569 67.0503C50.7894 67.1733 51.0294 67.161 51.1052 67.0267C51.1811 66.8924 51.0653 66.6812 50.8428 66.5571L41.1449 61.1412C40.9234 61.0181 40.6845 61.0273 40.6087 61.1627C40.5338 61.2991 40.6497 61.5103 40.8711 61.6323Z" fill="#6E6E6E"/>
<path d="M40.3296 62.602L50.0274 68.019C50.2499 68.141 50.4878 68.1308 50.5637 67.9964C50.6396 67.8601 50.5196 67.6509 50.3012 67.5268L40.6034 62.1099C40.3819 61.9858 40.142 61.9971 40.0661 62.1324C39.9902 62.2678 40.1071 62.478 40.3296 62.602Z" fill="#6E6E6E"/>
<path d="M39.7901 63.5706L49.4869 68.9855C49.7074 69.1096 49.9473 69.0993 50.0232 68.965C50.0991 68.8286 49.9812 68.6195 49.7607 68.4964L40.0629 63.0795C39.8424 62.9544 39.6035 62.9657 39.5266 63.101C39.4518 63.2374 39.5676 63.4455 39.7901 63.5706Z" fill="#6E6E6E"/>
<path d="M39.2422 64.5473L48.942 69.9633C49.1625 70.0863 49.4024 70.0771 49.4762 69.9417C49.5521 69.8064 49.4362 69.5941 49.2158 69.4742L39.5159 64.0552C39.2955 63.9311 39.0566 63.9424 38.9796 64.0777C38.9048 64.2131 39.0217 64.4212 39.2422 64.5473Z" fill="#6E6E6E"/>
<path d="M38.7037 65.5139L48.3995 70.9319C48.6199 71.0559 48.8619 71.0457 48.9378 70.9103C49.0137 70.774 48.8957 70.5648 48.6732 70.4407L38.9764 65.0248C38.756 64.8997 38.5181 64.911 38.4402 65.0463C38.3664 65.1827 38.4822 65.3939 38.7037 65.5139Z" fill="#6E6E6E"/>
<path d="M38.1617 66.4838L47.8575 71.9017C48.078 72.0248 48.3199 72.0125 48.3938 71.8802C48.4696 71.7418 48.3538 71.5326 48.1333 71.4085L38.4355 65.9926C38.2151 65.8696 37.9751 65.8788 37.8982 66.0152C37.8223 66.1495 37.9382 66.3587 38.1617 66.4838Z" fill="#6E6E6E"/>
<path d="M37.6204 67.4516L47.3193 72.8686C47.5397 72.9906 47.7797 72.9824 47.8555 72.847C47.9314 72.7106 47.8135 72.5005 47.5931 72.3784L37.8952 66.9615C37.6738 66.8384 37.4338 66.8477 37.359 66.983C37.2831 67.1184 37.401 67.3306 37.6204 67.4516Z" fill="#6E6E6E"/>
<path d="M37.0776 68.4284L46.7744 73.8463C46.9948 73.9684 47.2358 73.9571 47.3117 73.8238C47.3875 73.6874 47.2696 73.4772 47.0492 73.3531L37.3524 67.9382C37.1309 67.8142 36.891 67.8244 36.8161 67.9618C36.7402 68.0941 36.8571 68.3053 37.0776 68.4284Z" fill="#6E6E6E"/>
<path d="M36.5402 69.3976L46.236 74.8136C46.4575 74.9376 46.6964 74.9284 46.7733 74.792C46.8482 74.6577 46.7313 74.4475 46.5118 74.3245L36.813 68.9065C36.5925 68.7824 36.3516 68.7947 36.2767 68.928C36.2019 69.0664 36.3167 69.2725 36.5402 69.3976Z" fill="#6E6E6E"/>
<path d="M35.9928 70.3691L45.6906 75.784C45.911 75.9081 46.151 75.8958 46.2268 75.7635C46.3037 75.6251 46.1858 75.417 45.9644 75.2929L36.2665 69.8759C36.0461 69.7519 35.8051 69.7621 35.7292 69.8975C35.6554 70.0328 35.7713 70.244 35.9928 70.3691Z" fill="#6E6E6E"/>
<path d="M59.7944 27.7729L69.4891 33.1899C69.7096 33.3129 69.9515 33.3027 70.0254 33.1684C70.1033 33.031 69.9854 32.8228 69.7649 32.6977L60.0681 27.2818C59.8456 27.1587 59.6057 27.168 59.5298 27.3033C59.456 27.4387 59.5739 27.6478 59.7944 27.7729Z" fill="#6E6E6E"/>
<path d="M59.2514 28.7429L68.9523 34.1588C69.1728 34.2829 69.4148 34.2716 69.4886 34.1363C69.5665 34.0009 69.4445 33.7907 69.2261 33.6687L59.5272 28.2497C59.3088 28.1267 59.0669 28.1379 58.991 28.2723C58.9172 28.4097 59.033 28.6199 59.2514 28.7429Z" fill="#6E6E6E"/>
<path d="M58.7083 29.7091L68.4051 35.1281C68.6296 35.2512 68.8655 35.2409 68.9414 35.1055C69.0193 34.9692 68.9014 34.761 68.6809 34.6359L58.9821 29.219C58.7596 29.0949 58.5217 29.1072 58.4458 29.2405C58.3679 29.3789 58.4868 29.5871 58.7083 29.7091Z" fill="#6E6E6E"/>
<path d="M58.1685 30.6878L67.8653 36.1047C68.0858 36.2278 68.3257 36.2165 68.4036 36.0822C68.4775 35.9468 68.3616 35.7356 68.1411 35.6125L58.4423 30.1966C58.2218 30.0725 57.984 30.0818 57.906 30.2181C57.8302 30.3535 57.946 30.5637 58.1685 30.6878Z" fill="#6E6E6E"/>
<path d="M57.6274 31.6552L67.3242 37.0732C67.5446 37.1962 67.7866 37.186 67.8605 37.0506C67.9363 36.9153 67.8184 36.704 67.6 36.582L57.9012 31.1651C57.6807 31.04 57.4387 31.0523 57.3628 31.1866C57.287 31.3219 57.4049 31.5332 57.6274 31.6552Z" fill="#6E6E6E"/>
<path d="M57.0818 32.6255L66.7806 38.0414C67.0031 38.1665 67.241 38.1542 67.3169 38.0199C67.3907 37.8855 67.2748 37.6753 67.0544 37.5513L57.3576 32.1333C57.1392 32.0092 56.8972 32.0205 56.8213 32.1558C56.7424 32.2932 56.8613 32.5024 57.0818 32.6255Z" fill="#6E6E6E"/>
<path d="M56.5409 33.593L66.2377 39.011C66.4561 39.133 66.698 39.1228 66.7719 38.9885C66.8477 38.8531 66.7319 38.6409 66.5094 38.5188L56.8126 33.1029C56.5921 32.9778 56.3501 32.9891 56.2763 33.1244C56.2025 33.2608 56.3163 33.469 56.5409 33.593Z" fill="#6E6E6E"/>
<path d="M56.0033 34.5625L65.698 39.9815C65.9205 40.1035 66.1604 40.0912 66.2363 39.9579C66.3142 39.8205 66.1943 39.6114 65.9759 39.4883L56.2791 34.0703C56.0586 33.9483 55.8187 33.9565 55.7408 34.0929C55.6669 34.2293 55.7849 34.4395 56.0033 34.5625Z" fill="#6E6E6E"/>
<path d="M55.458 35.5389L65.1548 40.9559C65.3732 41.0799 65.6152 41.0676 65.689 40.9343C65.7669 40.798 65.649 40.5867 65.4286 40.4647L55.7338 35.0478C55.5093 34.9227 55.2714 34.935 55.1955 35.0703C55.1186 35.2046 55.2355 35.4159 55.458 35.5389Z" fill="#6E6E6E"/>
<path d="M54.9146 36.5155L64.6114 41.9315C64.8319 42.0566 65.0739 42.0453 65.1497 41.9099C65.2236 41.7736 65.1077 41.5644 64.8852 41.4424L55.1884 36.0244C54.9659 35.9003 54.726 35.9106 54.6521 36.0459C54.5763 36.1823 54.6921 36.3904 54.9146 36.5155Z" fill="#6E6E6E"/>
<path d="M54.3714 37.4755L64.0682 42.8946C64.2907 43.0176 64.5286 43.0063 64.6045 42.872C64.6824 42.7336 64.5625 42.5244 64.3441 42.4014L54.6452 36.9844C54.4227 36.8624 54.1848 36.8706 54.109 37.007C54.0331 37.1433 54.151 37.3535 54.3714 37.4755Z" fill="#6E6E6E"/>
<path d="M53.8279 38.4462L63.5247 43.8621C63.7452 43.9872 63.9871 43.9759 64.063 43.8406C64.1368 43.7042 64.021 43.494 63.8005 43.371L54.1037 37.954C53.8812 37.8289 53.6392 37.8412 53.5654 37.9766C53.4916 38.1119 53.6054 38.3231 53.8279 38.4462Z" fill="#6E6E6E"/>
<path d="M53.2869 39.4214L62.9837 44.8384C63.2021 44.9614 63.4399 44.9501 63.5199 44.8158C63.5958 44.6805 63.4779 44.4693 63.2554 44.3472L53.5565 38.9303C53.3381 38.8062 53.0982 38.8175 53.0223 38.9518C52.9485 39.0892 53.0633 39.2974 53.2869 39.4214Z" fill="#6E6E6E"/>
<path d="M52.7456 40.3896L62.4424 45.8066C62.6609 45.9286 62.9049 45.9194 62.9808 45.784C63.0525 45.6487 62.9367 45.4385 62.7183 45.3144L53.0215 39.8974C52.7969 39.7744 52.557 39.7877 52.4832 39.92C52.4093 40.0564 52.5252 40.2666 52.7456 40.3896Z" fill="#6E6E6E"/>
<path d="M52.1996 41.3589L61.8984 46.7748C62.1168 46.8999 62.3568 46.8887 62.4347 46.7533C62.5106 46.6169 62.3906 46.4067 62.1722 46.2847L52.4734 40.8678C52.2529 40.7437 52.013 40.755 51.9371 40.8893C51.8612 41.0267 51.9791 41.2348 52.1996 41.3589Z" fill="#6E6E6E"/>
<path d="M51.6598 42.3283L61.3587 47.7443C61.5791 47.8694 61.8191 47.8591 61.8949 47.7227C61.9688 47.5864 61.8508 47.3762 61.6304 47.2521L51.9356 41.8351C51.7152 41.7131 51.4732 41.7234 51.3973 41.8587C51.3235 41.9951 51.4383 42.2043 51.6598 42.3283Z" fill="#6E6E6E"/>
<path d="M51.1155 43.2959L60.8144 48.7129C61.0348 48.8349 61.2768 48.8267 61.3506 48.6893C61.4244 48.553 61.3086 48.3438 61.0881 48.2197L51.3913 42.8048C51.1688 42.6807 50.9309 42.693 50.8551 42.8274C50.7792 42.9617 50.8971 43.1729 51.1155 43.2959Z" fill="#6E6E6E"/>
<path d="M50.5787 44.2661L60.2755 49.6831C60.498 49.8061 60.7379 49.7938 60.8138 49.6595C60.8876 49.5231 60.7677 49.315 60.5493 49.1909L50.8525 43.774C50.6299 43.6509 50.3921 43.6602 50.3162 43.7955C50.2403 43.9319 50.3562 44.1421 50.5787 44.2661Z" fill="#6E6E6E"/>
<path d="M50.0338 45.2415L59.7306 50.6584C59.9531 50.7804 60.193 50.7723 60.2689 50.6349C60.3427 50.5005 60.2248 50.2903 60.0064 50.1673L50.3076 44.7513C50.0871 44.6263 49.8472 44.6375 49.7734 44.7729C49.6975 44.9062 49.8123 45.1184 50.0338 45.2415Z" fill="#6E6E6E"/>
<path d="M49.4946 46.2097L59.1914 51.6277C59.4098 51.7507 59.6518 51.7415 59.7256 51.6051C59.8035 51.4698 59.6856 51.2586 59.4651 51.1366L49.7683 45.7196C49.5479 45.5955 49.3059 45.6058 49.23 45.7421C49.1542 45.8775 49.2721 46.0877 49.4946 46.2097Z" fill="#6E6E6E"/>
<path d="M48.9498 47.1778L58.6466 52.5958C58.867 52.7178 59.107 52.7086 59.1829 52.5743C59.2587 52.4379 59.1387 52.2277 58.9203 52.1047L49.2235 46.6867C49.001 46.5647 48.7611 46.5749 48.6873 46.7103C48.6114 46.8456 48.7273 47.0548 48.9498 47.1778Z" fill="#6E6E6E"/>
<path d="M45.4103 72.0174C44.5664 73.5267 44.7233 75.2216 45.7599 75.802C46.7966 76.3792 48.3234 75.6246 49.1672 74.1152L71.2503 34.5877C72.0932 33.0764 71.9373 31.3835 70.8997 30.8042C69.862 30.2259 68.3383 30.9785 67.4955 32.4888L45.4103 72.0174Z" fill="#6E6E6E"/>
<path d="M60.3459 26.7785L70.0427 32.1934C70.3729 32.378 70.822 32.2067 71.0445 31.8099C71.267 31.4111 71.1788 30.9414 70.8466 30.7558L61.1498 25.3409C60.8196 25.1543 60.3726 25.3266 60.1521 25.7244C59.9255 26.1223 60.0178 26.5929 60.3459 26.7785Z" fill="#6E6E6E"/>
<path d="M36.0013 70.3558L45.6981 75.7727C46.0293 75.9583 46.4774 75.785 46.6989 75.3882C46.9204 74.9894 46.8332 74.5177 46.503 74.3352L36.8042 68.9172C36.475 68.7336 36.028 68.9059 35.8065 69.3027C35.584 69.6985 35.6722 70.1732 36.0013 70.3558Z" fill="#6E6E6E"/>
<path d="M67.0168 33.3386C67.0168 33.3386 68.5107 31.29 66.9102 30.3989L67.2947 29.7109L70.1226 31.29L68.5128 34.1753L67.0168 33.3386Z" fill="#6E6E6E"/>
<path d="M45.891 71.1562C45.891 71.1562 44.9292 73.5002 43.3327 72.6092L42.9492 73.2972L45.7761 74.8762L47.387 71.9909L45.891 71.1562Z" fill="#6E6E6E"/>
<path d="M70.9014 30.7969C71.9391 31.3762 72.0949 33.0701 71.2521 34.5804L49.169 74.108C48.3262 75.6173 46.7984 76.3709 45.7617 75.7947L70.9014 30.7969Z" fill="#6E6E6E"/>
<path d="M38.8032 82.6464C39.3128 82.8064 40.092 83.1622 40.2633 83.7405C40.6806 85.1544 38.7416 86.0506 37.3513 85.8794C36.371 85.7573 35.7753 85.5625 35.2985 85.3472C34.7028 85.7871 34.0312 85.9809 33.3278 85.8865C31.7518 85.6938 32.285 83.8717 34.0229 84.4828C34.308 84.5895 34.6576 84.813 35.1426 85.0529C36.169 84.0655 36.7258 81.9963 38.0475 80.5291L38.4874 80.0256C37.6302 79.879 36.572 79.8872 35.5292 80.1117C33.3903 80.567 32.6879 82.4208 33.8302 82.7756C34.7427 83.0617 35.2667 82.1563 35.2277 81.9348C35.2277 81.8877 35.3887 81.8272 35.3887 81.9974V82.0035C35.2739 82.7695 34.431 83.2032 33.7523 82.9633C32.1783 82.4167 32.9115 80.1753 35.6287 79.7898C36.7022 79.6349 37.7747 79.6647 38.6709 79.8585C38.8032 79.7426 38.9652 79.6401 39.0954 79.596C39.3435 79.4955 39.3599 79.596 39.1723 79.7098C39.0728 79.7795 38.9652 79.88 38.9488 79.92C40.2776 80.2604 41.0651 80.9464 40.5411 81.8405C40.2079 82.4055 39.3825 82.6218 38.8032 82.6464ZM33.8292 84.6838C32.6479 84.2737 32.5177 85.6189 33.5205 85.6712C34.0834 85.6938 34.5643 85.5092 34.9724 85.2006C34.6187 85.0304 34.2865 84.8448 33.8292 84.6838ZM38.8575 80.1117C37.8239 81.5339 36.7883 83.8184 35.7599 84.9309L35.4666 85.2078C35.9465 85.4098 36.5484 85.5953 37.3441 85.6712C39.3599 85.8578 40.5709 83.8184 39.0728 83.0996C38.4699 82.8064 37.7132 82.7069 37.6363 82.5367C37.6363 82.2742 38.1541 82.428 38.757 82.428C39.7147 82.4147 41.0046 81.0171 39.5835 80.3517C39.3733 80.2502 39.1272 80.1743 38.8575 80.1117Z" fill="#6E6E6E"/>
<path d="M41.3303 85.6389C40.9458 85.6389 40.5972 85.3867 40.59 84.8996C40.5818 84.4351 40.8453 83.8558 41.1847 83.4559C41.5785 82.9914 42.165 82.6992 42.5054 82.9535C42.7976 83.1781 42.5741 83.702 42.0799 84.0814C41.8399 84.2598 41.3375 84.4218 41.1294 84.4218C41.0135 84.6987 40.8833 85.479 41.3929 85.479C42.0717 85.479 42.489 84.5664 42.6664 84.1573C42.7289 84.0188 42.8827 84.0035 42.8058 84.1665C42.5197 84.7838 42.1886 85.6389 41.3303 85.6389ZM41.6482 83.5626C41.4472 83.8097 41.2534 84.1511 41.1847 84.2885C41.3242 84.2885 41.7251 84.1819 42.003 83.9512C42.6366 83.418 42.5967 82.4152 41.6482 83.5626Z" fill="#6E6E6E"/>
<path d="M43.1707 85.5632C43.062 85.6093 42.9544 85.6391 42.8539 85.6391C41.9188 85.6391 42.0972 84.5666 42.4673 84.5522C42.6755 84.1574 42.9308 83.6571 43.1307 83.2162C43.2702 82.9157 43.5009 82.5917 43.7716 82.5528C43.8874 82.5374 43.9797 82.5528 44.0577 82.5917C44.1971 82.6614 44.1653 82.7927 44.0269 82.7219C43.95 82.6912 43.8567 82.6758 43.7798 82.7158C43.425 82.885 43.5019 83.4182 43.6178 83.694C43.7419 83.9883 43.911 84.2661 43.8957 84.6065C43.8792 84.909 43.6485 85.2638 43.3481 85.4637L43.4004 85.472C43.6649 85.5099 43.9018 85.3489 44.0966 85.1172C44.275 84.9008 44.5129 84.422 44.676 84.1062C44.7139 84.0282 44.8298 84.0744 44.7908 84.1523C44.5057 84.7911 44.0423 85.8277 43.1707 85.5632ZM42.6447 84.8998C42.3976 85.1469 42.4991 85.5089 42.7995 85.5089C42.8539 85.5089 42.9072 85.5027 42.9534 85.4791C42.7914 85.3786 42.6611 85.1931 42.6447 84.8998ZM43.3256 83.1382C43.1164 83.5566 42.7842 84.2282 42.5986 84.5676C42.5986 84.5676 42.7688 84.5604 42.7606 84.8147C42.7452 85.109 42.9082 85.3253 43.0846 85.4104C43.2538 85.2792 43.4004 85.0167 43.425 84.6065C43.4476 84.1195 43.263 83.4869 43.3256 83.1382Z" fill="#6E6E6E"/>
<path d="M46.5504 82.8431H46.1023C45.8398 83.2922 45.5312 83.7013 45.0759 84.1176C45.0072 84.3196 44.8965 84.9071 44.8965 84.9071C44.7806 85.4249 45.1364 85.4926 45.3917 85.3081C45.7465 85.0456 46.0018 84.5595 46.2099 84.1422C46.2725 84.0017 46.3894 84.0325 46.3115 84.1884C45.97 84.8989 45.8398 85.1071 45.5547 85.3942C45.1374 85.7951 44.3725 85.6628 44.4884 84.8138C44.5571 84.2878 44.8442 83.4481 45.0913 82.8441H44.6883C44.6053 82.8441 44.6196 82.6749 44.7058 82.6749H45.1682C45.3466 82.2874 45.5383 81.911 45.7321 81.5799C46.2663 80.6458 47.0989 80.777 46.5268 82.0115C46.4191 82.2433 46.3115 82.4606 46.1956 82.6749H46.5657C46.6437 82.6739 46.6293 82.8431 46.5504 82.8431ZM45.5619 82.8431C45.4009 83.2225 45.2543 83.6008 45.1477 83.8715C45.4399 83.5701 45.7014 83.2143 45.9269 82.8431H45.5619ZM46.1884 81.547C46.0028 81.8106 45.8336 82.234 45.6398 82.6749H46.0264C46.173 82.4145 46.3043 82.1418 46.4119 81.8864C46.5586 81.5624 46.6673 80.8765 46.1884 81.547Z" fill="#6E6E6E"/>
<path d="M54.2041 81.0543C53.9959 81.1066 53.9877 80.9313 54.242 80.9005C55.2089 80.7847 54.769 78.8683 52.2795 79.7552C51.3618 80.0884 50.8235 80.9528 51.8652 81.5937C52.3359 81.8777 53.1172 82.1494 53.6852 82.5062C55.2633 83.4783 54.2277 84.9312 52.9224 85.7115C51.1782 86.7553 47.8879 86.5359 47.7556 84.3601C47.7177 83.6249 48.3206 82.576 49.0773 82.2212C49.185 82.173 49.4095 82.1433 49.1532 82.3371C48.945 82.4991 48.7584 82.6908 48.62 82.9154C48.3421 83.3481 48.1955 83.8648 48.1873 84.3591C48.1729 86.2734 50.9445 86.4744 52.4907 85.6705C53.7868 84.9917 54.3353 83.6618 53.4002 82.9072C52.9214 82.5206 51.8878 82.2417 51.3074 81.8572C50.158 81.0923 50.8604 79.949 51.9883 79.546C52.7594 79.2774 53.9108 79.2292 54.4655 79.5071C55.0141 79.7788 55.2007 80.4135 54.7219 80.8062C54.5988 80.9067 54.4286 80.9908 54.2041 81.0543Z" fill="#6E6E6E"/>
<path d="M57.0582 82.8431H56.6081C56.3456 83.2922 56.037 83.7013 55.5827 84.1176C55.5109 84.3196 55.4022 84.9071 55.4022 84.9071C55.2905 85.4249 55.6422 85.4926 55.8985 85.3081C56.2533 85.0456 56.5076 84.5595 56.7157 84.1422C56.7803 84.0017 56.8962 84.0325 56.8183 84.1884C56.4779 84.8989 56.3456 85.1071 56.0616 85.3942C55.6432 85.7951 54.8803 85.6628 54.9962 84.8138C55.0639 84.2878 55.351 83.4481 55.5991 82.8441H55.1962C55.11 82.8441 55.1264 82.6749 55.2126 82.6749H55.675C55.8534 82.2874 56.0451 81.911 56.2379 81.5799C56.7721 80.6458 57.6058 80.777 57.0346 82.0115C56.927 82.2433 56.8183 82.4606 56.7024 82.6749H57.0726C57.1484 82.6739 57.1341 82.8431 57.0582 82.8431ZM56.0667 82.8431C55.9047 83.2225 55.7581 83.6008 55.6504 83.8715C55.9447 83.5701 56.2051 83.2143 56.4317 82.8431H56.0667ZM56.6942 81.547C56.5076 81.8106 56.3374 82.234 56.1456 82.6749H56.5322C56.6788 82.4145 56.8101 82.1418 56.9188 81.8864C57.0644 81.5624 57.172 80.8765 56.6942 81.547Z" fill="#6E6E6E"/>
<path d="M58.0628 85.9943C57.5778 86.869 56.8129 88.0502 55.6696 88.0502C54.8985 88.0502 54.8206 87.5406 55.0523 87.1079C55.199 86.8218 55.4768 86.6136 55.7773 86.4732C56.2961 86.2271 57.0292 86.0969 57.6537 85.9185C57.9459 85.4089 58.1961 84.5804 58.3181 84.1805C58.0556 84.646 57.5532 85.6006 56.9585 85.6006C56.8047 85.6006 56.534 85.5473 56.4714 85.253C56.4037 84.9218 56.5955 84.6378 56.736 84.3589C56.6878 84.3589 56.6201 84.3374 56.6662 84.2369L56.8047 83.9641C56.9585 83.6698 57.1215 83.3551 57.2374 83.1151C57.2999 82.9911 57.3912 82.9531 57.5398 82.9531H58.0084C57.9408 83.0157 57.8177 83.068 57.7224 83.231C57.4619 83.6801 57.2435 84.1333 57.0292 84.5968C56.6591 85.3996 56.9831 85.7103 57.4855 85.131C57.9161 84.6286 58.4032 83.7252 58.6975 83.1151C58.76 82.9911 58.8492 82.9531 58.9979 82.9531H59.4162C59.122 83.1551 59.0061 83.4638 58.8113 83.9805C58.6206 84.4973 58.4186 85.1382 58.1961 85.7493C58.5344 85.6478 59.0051 85.4191 59.3075 84.9864C59.5454 84.6378 59.7156 84.281 59.7926 84.1343C59.8623 83.9969 59.9792 84.0513 59.9023 84.203C59.3763 85.2694 59.1763 85.5934 58.0628 85.9943ZM55.9095 86.6434C55.12 86.9838 54.8278 87.8943 55.4932 87.8943C56.17 87.8943 56.9892 86.9377 57.346 86.4506L57.5163 86.1666C57.0128 86.2948 56.3484 86.4496 55.9095 86.6434Z" fill="#6E6E6E"/>
<path d="M60.2234 84.114C60.1854 84.2463 60.1095 84.4309 60.0614 84.6236C59.8286 85.5495 60.4459 85.6818 60.856 85.1117C61.1103 84.7477 61.3246 84.3324 61.4271 84.1294C61.4969 83.9982 61.6138 84.0146 61.5451 84.1684C61.3492 84.5765 60.9483 85.6203 60.167 85.6203C59.3036 85.6203 59.6748 84.5621 59.804 84.1007C60.0439 83.2353 60.5289 82.1228 60.9791 81.3732C61.5256 80.4545 62.3612 80.5632 61.8045 81.7977C61.4507 82.5914 60.9801 83.427 60.2234 84.114ZM61.5051 81.3343C61.1247 81.8675 60.5238 83.2486 60.2839 83.8679C60.8324 83.3112 61.3892 82.3996 61.6896 81.6829C61.8434 81.3261 61.9214 80.7396 61.5051 81.3343Z" fill="#6E6E6E"/>
<path d="M61.9799 85.6389C61.5913 85.6389 61.2447 85.3867 61.2345 84.8996C61.2283 84.4351 61.4908 83.8558 61.8312 83.4559C62.226 82.9914 62.8104 82.6992 63.1509 82.9535C63.4431 83.1781 63.2206 83.702 62.7264 84.0814C62.4885 84.2598 61.985 84.4218 61.7769 84.4218C61.661 84.6987 61.5287 85.479 62.0394 85.479C62.7182 85.479 63.1365 84.5664 63.3129 84.1573C63.3754 84.0188 63.5292 84.0035 63.4513 84.1665C63.1673 84.7838 62.8351 85.6389 61.9799 85.6389ZM62.2957 83.5626C62.0937 83.8097 61.9009 84.1511 61.8312 84.2885C61.9696 84.2885 62.3716 84.1819 62.6484 83.9512C63.2831 83.418 63.2452 82.4152 62.2957 83.5626Z" fill="#6E6E6E"/>
<path d="M44.3945 29.8242L46.7621 28.9076L47.3496 26.4375L48.9543 28.4062L51.4839 28.2021L50.1078 30.3339L51.0829 32.6799L48.6292 32.0267L46.7026 33.6837L46.5642 31.1459L44.3945 29.8242Z" fill="#6E6E6E"/>
<path d="M35.3672 32.2702L36.4028 31.0644L35.9957 29.5294L37.461 30.1415L38.7929 29.2812L38.6647 30.8624L39.8982 31.8652L38.352 32.2322L37.7798 33.7139L36.9524 32.3573L35.3672 32.2702Z" fill="#6E6E6E"/>
<path d="M71.7617 39.9859L72.6866 38.696L72.1483 37.2021L73.6617 37.684L74.9137 36.7109L74.9239 38.2972L76.2395 39.1892L74.7312 39.6896L74.2913 41.2153L73.35 39.9347L71.7617 39.9859Z" fill="#6E6E6E"/>
<path d="M28.9607 37.3461L29.3196 36.2694L28.6367 35.3651L29.7677 35.3722L30.4157 34.4453L30.7592 35.525L31.8451 35.8531L30.9233 36.5135L30.9468 37.6475L30.0322 36.9728L28.9607 37.3461Z" fill="#6E6E6E"/>
<path d="M77.8333 45.3916L78.0957 44.2883L77.3359 43.4475L78.4679 43.3563L79.0309 42.375L79.4666 43.4198L80.5771 43.6546L79.7158 44.3908L79.8378 45.5187L78.8688 44.9281L77.8333 45.3916Z" fill="#6E6E6E"/>
</svg>
