<svg width="146" height="60" viewBox="0 0 146 60" fill="none" xmlns="http://www.w3.org/2000/svg">
<path d="M77.8092 25.3548C77.1158 26.5421 76.1374 27.4492 74.8669 28.0809C73.5964 28.7126 72.1193 29.026 70.4309 29.026H65.2539V13.1748H70.4309C72.1193 13.1748 73.5964 13.4977 74.8669 14.1437C76.1374 14.7896 77.1158 15.7181 77.8092 16.9268C78.5003 18.1356 78.847 19.5462 78.847 21.1586C78.847 22.7711 78.5003 24.1698 77.8092 25.3548ZM74.6841 25.4687C75.6791 24.4215 76.1778 22.9824 76.1778 21.1586C76.1778 19.3182 75.6791 17.8791 74.6841 16.8366C73.689 15.7941 72.2689 15.2741 70.4309 15.2741H67.8543V27.0432H70.4309C72.2713 27.0432 73.689 26.5184 74.6841 25.4687Z" fill="black"/>
<path d="M84.0232 15.1841V19.9977H89.497V22.0044H84.0232V26.9984H90.1809V29.0288H81.4229V13.1538H90.1809V15.1841H84.0232Z" fill="black"/>
<path d="M103.424 26.7915C102.989 27.5063 102.355 28.0834 101.519 28.5251C100.683 28.9668 99.7025 29.1876 98.5768 29.1876C96.9501 29.1876 95.6203 28.7982 94.5849 28.024C93.5495 27.2475 93.0342 26.1765 93.0342 24.8087H95.8174C95.8768 25.5068 96.138 26.0626 96.5916 26.4734C97.0475 26.8842 97.7101 27.0884 98.5768 27.0884C99.4745 27.0884 100.177 26.8604 100.688 26.4045C101.196 25.9485 101.453 25.362 101.453 24.6472C101.453 24.0844 101.296 23.6403 100.985 23.3126C100.674 22.9849 100.282 22.7332 99.8094 22.5598C99.3368 22.3841 98.6932 22.1988 97.8716 22.0017C96.8385 21.7571 96.0026 21.5031 95.3638 21.2371C94.725 20.9711 94.1788 20.5437 93.7229 19.9595C93.2669 19.3753 93.0389 18.5798 93.0389 17.5777C93.0389 16.6658 93.2669 15.8584 93.7229 15.1602C94.1788 14.462 94.8176 13.9206 95.6393 13.5406C96.4609 13.1607 97.4037 12.9707 98.4676 12.9707C100.018 12.9707 101.27 13.3364 102.22 14.0654C103.17 14.7969 103.699 15.8536 103.806 17.2357H100.933C100.871 16.6278 100.612 16.1172 100.156 15.7063C99.7001 15.2955 99.0922 15.0913 98.3323 15.0913C97.5415 15.0913 96.9027 15.2884 96.4158 15.685C95.929 16.0815 95.6868 16.6658 95.6868 17.4423C95.6868 18.0051 95.8435 18.4563 96.1546 18.7982C96.4657 19.1402 96.8575 19.399 97.3301 19.5747C97.8027 19.7505 98.4558 19.9357 99.2917 20.1328C100.31 20.3751 101.139 20.6291 101.778 20.8975C102.417 21.1635 102.961 21.5814 103.409 22.1514C103.858 22.7213 104.082 23.5097 104.082 24.5118C104.072 25.3192 103.856 26.0791 103.424 26.7915Z" fill="black"/>
<path d="M109.751 13.1748V29.026H107.151V13.1748H109.751Z" fill="black"/>
<path d="M124.908 14.2147C126.224 15.0434 127.179 16.219 127.77 17.7388H124.645C124.234 16.9504 123.664 16.3519 122.935 15.9482C122.206 15.5469 121.361 15.3451 120.404 15.3451C119.354 15.3451 118.421 15.5802 117.599 16.0527C116.777 16.5229 116.136 17.1925 115.673 18.0593C115.21 18.9261 114.977 19.9306 114.977 21.0705C114.977 22.2103 115.21 23.2196 115.673 24.0911C116.136 24.9674 116.78 25.6395 117.599 26.1097C118.421 26.5822 119.356 26.8173 120.404 26.8173C121.817 26.8173 122.971 26.4184 123.859 25.6205C124.749 24.8226 125.284 23.7397 125.467 22.3694H119.513V20.3415H128.247V22.3694C128.079 23.6019 127.644 24.7347 126.936 25.7677C126.229 26.8031 125.31 27.6271 124.177 28.2422C123.044 28.8572 121.786 29.1659 120.401 29.1659C118.912 29.1659 117.551 28.8192 116.319 28.1282C115.087 27.4348 114.11 26.4754 113.389 25.2429C112.667 24.0104 112.306 22.6189 112.306 21.0682C112.306 19.5175 112.667 18.1258 113.389 16.8957C114.11 15.6632 115.091 14.7015 116.331 14.0104C117.571 13.3194 118.926 12.9727 120.401 12.9727C122.092 12.9703 123.593 13.3859 124.908 14.2147Z" fill="black"/>
<path d="M143.826 29.0288H141.226L133.403 17.1908V29.0288H130.803V13.1538H133.403L141.226 24.9681V13.1538H143.826V29.0288Z" fill="black"/>
<path d="M75.2021 45.4707C74.7343 46.1807 74.0741 46.7482 73.2216 47.1709C72.3667 47.5936 71.4025 47.8074 70.3244 47.8074C68.5599 47.8074 67.1541 47.3989 66.1139 46.5797C65.0738 45.7628 64.5537 44.5992 64.5537 43.0912H68.4721C68.5718 44.2976 69.1892 44.9007 70.3244 44.9007C70.8563 44.9007 71.2719 44.7606 71.5735 44.4804C71.8751 44.2002 72.0247 43.8321 72.0247 43.3714C72.0247 42.9701 71.8964 42.64 71.6376 42.3811C71.3787 42.1223 71.0629 41.9228 70.6901 41.778C70.3172 41.6355 69.7782 41.4622 69.0752 41.2603C68.1277 41.0038 67.3535 40.7379 66.7504 40.4648C66.1472 40.1917 65.6319 39.7761 65.1997 39.2157C64.7698 38.6552 64.5537 37.9095 64.5537 36.9763C64.5537 36.043 64.7983 35.2261 65.2851 34.5208C65.7743 33.8179 66.4369 33.2765 67.2776 32.8941C68.1182 32.5142 69.0467 32.3242 70.0655 32.3242C71.7444 32.3242 73.0886 32.6923 74.0931 33.4332C75.0976 34.1742 75.6224 35.3378 75.6652 36.9336H71.659C71.602 36.3874 71.4262 35.9671 71.1318 35.6726C70.8373 35.3781 70.4669 35.2309 70.0228 35.2309C69.5478 35.2309 69.1655 35.352 68.871 35.5966C68.5766 35.8412 68.4293 36.214 68.4293 36.7175C68.4293 37.133 68.5599 37.475 68.8164 37.741C69.0752 38.0069 69.4006 38.2159 69.7972 38.3655C70.1914 38.5175 70.7257 38.6766 71.4001 38.8499C72.3619 39.123 73.1408 39.389 73.7369 39.6478C74.3329 39.9043 74.8435 40.3199 75.2662 40.8851C75.6889 41.4527 75.9003 42.2101 75.9003 43.1577C75.9003 43.9888 75.6676 44.7607 75.2021 45.4707Z" fill="black"/>
<path d="M89.7052 32.54V35.3398H85.5707V47.6575H81.8875V35.3398H77.7744V32.54H89.7052Z" fill="black"/>
<path d="M95.5188 32.54V41.5616C95.5188 42.4663 95.742 43.1621 96.1861 43.6513C96.6302 44.1405 97.2832 44.3828 98.1452 44.3828C99.0049 44.3828 99.6675 44.1381 100.126 43.6513C100.584 43.1621 100.814 42.4663 100.814 41.5616V32.54H104.498V41.5616C104.498 42.8985 104.196 44.0361 103.593 44.9765C102.99 45.9168 102.201 46.6245 101.225 47.0971C100.249 47.572 99.202 47.8071 98.0811 47.8071C96.9626 47.8071 95.9248 47.5697 94.9702 47.0971C94.0155 46.6245 93.2556 45.9168 92.6881 44.9765C92.1205 44.0361 91.8379 42.8985 91.8379 41.5616V32.54H95.5188Z" fill="black"/>
<path d="M120.162 44.017C119.452 45.164 118.469 46.0593 117.21 46.6981C115.954 47.3369 114.536 47.6551 112.957 47.6551H107.638V32.5376H112.957C114.551 32.5376 115.971 32.8534 117.22 33.4851C118.469 34.1168 119.45 35.0073 120.16 36.1566C120.87 37.306 121.226 38.6192 121.226 40.0987C121.228 41.5615 120.872 42.8677 120.162 44.017ZM116.275 43.5658C117.08 42.7038 117.481 41.5473 117.481 40.0987C117.481 38.6477 117.08 37.4936 116.275 36.6316C115.47 35.7696 114.365 35.3398 112.96 35.3398H111.323V44.8576H112.96C114.365 44.8576 115.47 44.4255 116.275 43.5658Z" fill="black"/>
<path d="M127.237 32.54V47.6575H123.554V32.54H127.237Z" fill="black"/>
<path d="M141.244 33.3164C142.429 33.9766 143.362 34.8956 144.043 36.0735C144.725 37.2514 145.067 38.5788 145.067 40.0558C145.067 41.5353 144.723 42.8675 144.034 44.0501C143.345 45.2351 142.412 46.1565 141.234 46.8167C140.056 47.4769 138.757 47.807 137.337 47.807C135.915 47.807 134.613 47.4769 133.428 46.8167C132.243 46.1565 131.308 45.2328 130.619 44.0501C129.93 42.8652 129.586 41.5353 129.586 40.0558C129.586 38.5764 129.93 37.249 130.619 36.0735C131.308 34.8956 132.246 33.9766 133.428 33.3164C134.613 32.6563 135.915 32.3262 137.337 32.3262C138.757 32.3238 140.059 32.6539 141.244 33.3164ZM134.419 36.8904C133.694 37.6812 133.331 38.7355 133.331 40.0558C133.331 41.3786 133.694 42.433 134.419 43.2214C135.143 44.0098 136.117 44.4063 137.337 44.4063C138.544 44.4063 139.508 44.0098 140.234 43.2214C140.959 42.433 141.322 41.3786 141.322 40.0558C141.322 38.7355 140.959 37.6812 140.234 36.8904C139.51 36.0996 138.544 35.7054 137.337 35.7054C136.117 35.7054 135.143 36.0996 134.419 36.8904Z" fill="black"/>
<path d="M28.9641 35.6824C28.0261 37.1998 26.7271 38.3777 25.0695 39.2231C23.4096 40.0661 21.5383 40.4888 19.4532 40.4888H12.4287V20.5269H19.4532C21.5573 20.5269 23.4333 20.9448 25.0838 21.7784C26.7342 22.6143 28.0261 23.7874 28.9641 25.3049C29.9021 26.8223 30.3723 28.5558 30.3723 30.5078C30.3723 32.4385 29.9021 34.1649 28.9641 35.6824ZM23.8299 35.0839C24.8914 33.9464 25.4233 32.4195 25.4233 30.5055C25.4233 28.5915 24.8914 27.0645 23.8299 25.927C22.7684 24.7895 21.3079 24.2219 19.4508 24.2219H17.2899V36.7913H19.4508C21.3103 36.789 22.7684 36.2214 23.8299 35.0839Z" fill="black"/>
<path d="M47.0765 37.601C46.4615 38.539 45.5875 39.2871 44.4595 39.8475C43.3315 40.4079 42.0563 40.6858 40.6362 40.6858C38.3042 40.6858 36.4519 40.1443 35.0769 39.0638C33.7019 37.9833 33.0156 36.4469 33.0156 34.4569H38.1902C38.3232 36.048 39.1377 36.8458 40.6362 36.8458C41.3367 36.8458 41.8877 36.6606 42.2843 36.2925C42.6832 35.922 42.8803 35.4352 42.8803 34.8273C42.8803 34.2977 42.7093 33.8608 42.3698 33.5188C42.0278 33.1792 41.6098 32.9133 41.1183 32.7233C40.6243 32.5333 39.9143 32.3077 38.9857 32.0417C37.7342 31.6998 36.7107 31.3483 35.9152 30.9897C35.1196 30.6312 34.4357 30.0802 33.8681 29.3417C33.2982 28.6031 33.0156 27.6177 33.0156 26.3852C33.0156 25.1527 33.3362 24.0722 33.9821 23.1437C34.6257 22.2152 35.5044 21.5004 36.6134 20.997C37.7224 20.4959 38.9501 20.2441 40.2942 20.2441C42.5123 20.2441 44.2838 20.7333 45.6113 21.7094C46.9388 22.6854 47.6298 24.2265 47.6868 26.3305H42.3983C42.3223 25.611 42.0896 25.0553 41.7025 24.6659C41.313 24.2764 40.8262 24.0817 40.2372 24.0817C39.6103 24.0817 39.1045 24.2432 38.715 24.5662C38.3279 24.8891 38.1332 25.3806 38.1332 26.0456C38.1332 26.5941 38.3042 27.0454 38.6462 27.3945C38.9857 27.7459 39.4179 28.0214 39.9404 28.2209C40.4628 28.418 41.1681 28.6316 42.0587 28.8596C43.3292 29.2206 44.3574 29.5697 45.1435 29.9117C45.9295 30.2536 46.6039 30.7974 47.162 31.5455C47.7201 32.2935 48.0003 33.2932 48.0003 34.5447C48.0003 35.6418 47.6916 36.6629 47.0765 37.601Z" fill="black"/>
<path d="M27.6563 57.6553C12.4057 57.6553 0 45.2497 0 29.9993C0 14.7488 12.4081 2.34326 27.6563 2.34326C42.907 2.34326 55.3126 14.7488 55.3126 29.9993C55.3126 45.2497 42.9046 57.6553 27.6563 57.6553ZM27.6563 3.18863C12.8711 3.18863 0.845381 15.2166 0.845381 29.9993C0.845381 44.7819 12.8735 56.8099 27.6563 56.8099C42.4391 56.8099 54.4672 44.7819 54.4672 29.9993C54.4672 15.2166 42.4391 3.18863 27.6563 3.18863Z" fill="black"/>
<path d="M32.3438 57.6558C17.0932 57.6558 4.6875 45.2502 4.6875 29.9998C4.6875 14.7493 17.0956 2.34375 32.3438 2.34375C47.5945 2.34375 60.0001 14.7493 60.0001 29.9998C60.0001 45.2502 47.5921 57.6558 32.3438 57.6558ZM32.3438 3.18912C17.5586 3.18912 5.53288 15.2171 5.53288 29.9998C5.53288 44.7824 17.561 56.8104 32.3438 56.8104C47.129 56.8104 59.1547 44.7824 59.1547 29.9998C59.1547 15.2171 47.1266 3.18912 32.3438 3.18912Z" fill="black"/>
<path d="M30.0008 55.312C14.7502 55.312 2.34448 42.9065 2.34448 27.656C2.34448 12.4055 14.7525 0 30.0008 0C45.2514 0 57.6571 12.4055 57.6571 27.656C57.6571 42.9065 45.2491 55.312 30.0008 55.312ZM30.0008 0.845372C15.2156 0.845372 3.18986 12.8734 3.18986 27.6584C3.18986 42.4434 15.218 54.469 30.0008 54.469C44.786 54.469 56.8117 42.441 56.8117 27.6584C56.8117 12.8734 44.7836 0.845372 30.0008 0.845372Z" fill="black"/>
<path d="M30.0008 60C14.7502 60 2.34448 47.5945 2.34448 32.344C2.34448 17.0935 14.7525 4.68799 30.0008 4.68799C45.2514 4.68799 57.6571 17.0935 57.6571 32.344C57.6571 47.5945 45.2491 60 30.0008 60ZM30.0008 5.53104C15.2156 5.53104 3.18986 17.559 3.18986 32.3416C3.18986 47.1266 15.218 59.1546 30.0008 59.1546C44.786 59.1546 56.8117 47.1266 56.8117 32.3416C56.8117 17.559 44.7836 5.53104 30.0008 5.53104Z" fill="black"/>
</svg>
