<svg width="105" height="60" viewBox="0 0 105 60" fill="none" xmlns="http://www.w3.org/2000/svg">
<g opacity="0.3">
<path d="M11.2435 47.0165C12.445 47.8342 13.2815 48.969 13.7571 50.4209H9.71863C9.44119 49.8785 9.09073 49.4905 8.66936 49.2527C8.24591 49.0149 7.73277 48.896 7.12575 48.896C6.00349 48.896 5.11066 49.259 4.44314 49.9849C3.77562 50.7108 3.44397 51.6808 3.44397 52.8948C3.44397 54.1089 3.77771 55.0789 4.44314 55.8048C5.11066 56.5307 6.00349 56.8937 7.12575 56.8937C7.73277 56.8937 8.24799 56.7748 8.66936 56.537C9.09073 56.2992 9.44119 55.9112 9.71863 55.3688H13.7571C13.2815 56.8207 12.4429 57.9555 11.2435 58.7732C10.042 59.5909 8.66938 59.9997 7.12575 59.9997C5.81992 59.9997 4.62046 59.6952 3.53157 59.0882C2.44268 58.4811 1.58119 57.6363 0.94913 56.5537C0.317075 55.4711 0 54.2507 0 52.8907C0 51.5327 0.317075 50.3103 0.94913 49.2277C1.58327 48.145 2.44268 47.3023 3.53157 46.6953C4.62046 46.0882 5.81783 45.7837 7.12575 45.7837C8.66938 45.7899 10.042 46.1988 11.2435 47.0165Z" fill="black"/>
<path d="M28.0709 45.9883V59.8852H24.6853V54.1236H19.3201V59.8852H15.9346V45.9883H19.3201V51.5516H24.6853V45.9883H28.0709Z" fill="black"/>
<path d="M34.4245 48.5204V51.5096H38.8593V54.0816H34.4245V57.3087H39.4538V59.8828H31.041V45.9463H39.4538V48.5204H34.4245Z" fill="black"/>
<path d="M58.1004 45.9883V59.8852H54.7148V52.046L51.4878 59.8852H48.9742L45.7471 52.046V59.8852H42.3616V45.9883H46.2415L50.2404 55.5692L54.2204 45.9883H58.1004Z" fill="black"/>
<path d="M64.4559 45.9883V59.8852H61.0703V45.9883H64.4559Z" fill="black"/>
<path d="M77.8567 47.0165C79.0582 47.8342 79.8947 48.969 80.3703 50.4209H76.3318C76.0544 49.8785 75.7039 49.4905 75.2825 49.2527C74.8591 49.0149 74.3459 48.896 73.7389 48.896C72.6166 48.896 71.7218 49.259 71.0563 49.9849C70.3888 50.7108 70.0571 51.6808 70.0571 52.8948C70.0571 54.1089 70.3909 55.0789 71.0563 55.8048C71.7238 56.5307 72.6166 56.8937 73.7389 56.8937C74.3459 56.8937 74.8612 56.7748 75.2825 56.537C75.7039 56.2992 76.0544 55.9112 76.3318 55.3688H80.3703C79.8947 56.8207 79.0561 57.9555 77.8567 58.7732C76.6551 59.5909 75.2825 59.9997 73.7389 59.9997C72.431 59.9997 71.2336 59.6952 70.1448 59.0882C69.0559 58.4811 68.1944 57.6363 67.5602 56.5537C66.9282 55.4711 66.6111 54.2507 66.6111 52.8907C66.6111 51.5327 66.9282 50.3103 67.5602 49.2277C68.1944 48.145 69.0559 47.3023 70.1448 46.6953C71.2336 46.0882 72.431 45.7837 73.7389 45.7837C75.2825 45.7899 76.6551 46.1988 77.8567 47.0165Z" fill="black"/>
<path d="M90.608 57.5484H85.6204L84.8486 59.8848H81.2461L86.0772 45.9482H90.195L95.0053 59.8848H91.3819L90.608 57.5484ZM89.7569 54.9743L88.1132 50.0243L86.4694 54.9743H89.7569Z" fill="black"/>
<path d="M100.05 57.311H104.265V59.8852H96.6641V45.9883H100.05V57.311Z" fill="black"/>
<path d="M73.2819 6.15222C72.919 8.25907 71.2335 9.96539 69.1287 10.3576C67.8354 10.5995 66.59 10.3576 65.5658 9.77142C65.0506 9.47938 64.4018 9.56697 63.9554 9.95705L56.6712 16.2943C56.012 16.868 55.8201 17.7962 56.1664 18.5973C56.5439 19.4755 56.7525 20.4433 56.7525 21.4592C56.7525 22.8777 56.3478 24.2023 55.6428 25.3183C55.1776 26.0568 55.2277 27.0059 55.7888 27.6713L59.4685 32.0164C59.8502 32.4712 60.4823 32.6568 61.0372 32.4399C61.7109 32.1812 62.4556 32.0581 63.2337 32.104C65.7098 32.2501 67.802 34.2067 68.0982 36.6682C68.5071 40.0809 65.6367 42.9387 62.2157 42.5006C62.0342 42.4735 61.9383 42.4589 61.9383 42.4589C59.8043 42.0772 58.1021 40.3291 57.7559 38.191C57.5431 36.8726 57.8247 35.6169 58.4568 34.5968C58.7759 34.0816 58.6987 33.414 58.3108 32.953L55.7805 29.9721C55.7805 29.9721 55.7805 29.9721 55.7763 29.968C55.7721 29.9638 55.7679 29.9597 55.7638 29.9576L55.7492 29.9346L54.6749 28.6705C54.1012 27.9926 53.1604 27.7965 52.349 28.1469C51.4666 28.5286 50.5008 28.7393 49.4745 28.7393C47.7536 28.7393 46.1703 28.1427 44.9291 27.1415C44.2366 26.5824 43.2728 26.5136 42.5365 27.0142L37.5718 30.381C37.1484 30.671 36.8793 31.1674 36.9439 31.6743C36.9627 31.8016 36.9711 31.933 36.9711 32.0644C36.9857 33.5851 36.0032 34.868 34.52 35.1913C33.233 35.4729 32.0439 34.9764 31.3263 34.0857H31.3222C31.318 34.0774 31.3138 34.0711 31.3097 34.0628C31.3013 34.0586 31.2992 34.0544 31.2992 34.0544C31.2951 34.0461 31.2951 34.0461 31.2951 34.0461C30.736 33.3327 30.4795 32.3773 30.7047 31.3656C30.9446 30.3059 31.7456 29.4215 32.7761 29.0856C33.6731 28.7957 34.5638 28.9125 35.2835 29.2942C35.7257 29.5299 36.2743 29.459 36.6853 29.1795L41.7209 25.7585C42.4343 25.2766 42.7492 24.388 42.5031 23.5598C42.3028 22.8965 42.1944 22.1914 42.1944 21.4613C42.1944 19.5776 42.9141 17.8588 44.0926 16.5655C44.6788 15.9272 44.7852 14.9864 44.3555 14.2354L41.725 9.68172C41.4559 9.21237 40.947 8.9224 40.4067 8.96829C40.2982 8.97663 40.1918 8.98083 40.0792 8.98083C38.5272 8.98083 37.1901 8.03796 36.6248 6.6925C36.6206 6.68415 36.6164 6.67369 36.6143 6.65701C36.3327 5.9874 36.2493 5.21976 36.4141 4.42291C36.7103 3.00444 37.8555 1.86132 39.2719 1.56511C41.6917 1.05613 43.8298 2.89388 43.8298 5.23228C43.8298 6.06459 43.5607 6.83017 43.1018 7.45596C42.7701 7.89819 42.7618 8.50314 43.0392 8.98083L45.6237 13.449C46.0702 14.2188 46.9671 14.5692 47.8349 14.3689C48.3626 14.25 48.9092 14.1833 49.4724 14.1833C50.3631 14.1833 51.2142 14.3418 51.9985 14.6339C52.0131 14.6422 52.0257 14.6464 52.034 14.6485C52.0465 14.6526 52.0528 14.6568 52.0528 14.6568C52.5075 14.8258 52.9352 15.0427 53.3398 15.2972C54.0908 15.7707 55.0545 15.7207 55.7241 15.1387L62.927 8.87025C63.3818 8.47809 63.5591 7.83145 63.3234 7.27657C62.9771 6.45886 62.8311 5.52851 62.95 4.55644C63.24 2.20344 65.1695 0.301013 67.5267 0.0340064C70.1342 -0.258033 72.4079 1.36278 73.1234 3.66988C73.1276 3.6824 73.1317 3.69283 73.1338 3.70534C73.1463 3.73663 73.1568 3.78668 73.1734 3.84717C73.3737 4.56476 73.4217 5.34703 73.2819 6.15222Z" fill="black"/>
<path d="M54.1098 8.97637C54.1098 10.52 52.8561 11.7716 51.3104 11.7716C49.7647 11.7716 48.511 10.52 48.511 8.97637C48.511 7.43274 49.7647 6.18115 51.3104 6.18115C52.8561 6.18115 54.1098 7.43274 54.1098 8.97637Z" fill="black"/>
<path d="M54.1088 31.5322C54.1088 32.4875 53.3328 33.2635 52.3753 33.2635C51.4178 33.2635 50.6418 32.4875 50.6418 31.5322C50.6418 30.5768 51.4178 29.8008 52.3753 29.8008C53.3328 29.8008 54.1088 30.5747 54.1088 31.5322Z" fill="black"/>
<path d="M40.8095 15.9044C40.8095 17.325 39.658 18.4744 38.2374 18.4744C36.8169 18.4744 35.6633 17.3229 35.6633 15.9044C35.6633 14.486 36.8148 13.3345 38.2374 13.3345C39.6559 13.3345 40.8095 14.486 40.8095 15.9044Z" fill="black"/>
<path d="M51.6697 26.3278C53.4105 26.3278 54.8217 24.9166 54.8217 23.1759C54.8217 21.4351 53.4105 20.0239 51.6697 20.0239C49.929 20.0239 48.5178 21.4351 48.5178 23.1759C48.5178 24.9166 49.929 26.3278 51.6697 26.3278Z" fill="white"/>
</g>
</svg>
