<svg width="230" height="60" viewBox="0 0 230 60" fill="none" xmlns="http://www.w3.org/2000/svg">
<path d="M68.5582 57.2498C68.224 57.6524 67.7489 57.9624 67.1369 58.1798C66.5248 58.4013 65.8483 58.5141 65.1034 58.5141C64.3223 58.5141 63.6377 58.3449 63.0458 58.0026C62.458 57.6604 62.003 57.1652 61.6808 56.5169C61.3587 55.8686 61.1936 55.1036 61.1855 54.2298V53.6137C61.1855 52.7118 61.3386 51.9306 61.6406 51.2743C61.9426 50.6139 62.3815 50.1106 62.9532 49.7603C63.525 49.41 64.1974 49.2368 64.9665 49.2368C66.0376 49.2368 66.8751 49.4905 67.4791 50.0019C68.0831 50.5132 68.4415 51.2542 68.5502 52.2327H66.7382C66.6577 51.7173 66.4725 51.3387 66.1906 51.0971C65.9087 50.8555 65.5182 50.7388 65.0229 50.7388C64.3907 50.7388 63.9075 50.9764 63.5773 51.4515C63.2472 51.9266 63.078 52.6352 63.074 53.5734V54.1533C63.074 55.0995 63.2552 55.8162 63.6136 56.2994C63.972 56.7826 64.4994 57.0243 65.196 57.0243C65.8926 57.0243 66.3919 56.8752 66.6899 56.5772V55.019H64.9987V53.65H68.5502V57.2498H68.5582Z" fill="black"/>
<path d="M75.5002 54.4805H71.9287V56.9005H76.1203V58.3944H70.0684V49.3628H76.1083V50.8728H71.9287V53.0229H75.5002V54.4805Z" fill="black"/>
<path d="M84.5573 58.3881H82.697L79.0771 52.4448V58.3881H77.2168V49.3564H79.0771L82.705 55.3117V49.3564H84.5613L84.5573 58.3881Z" fill="black"/>
<path d="M93.0096 49.3605V55.3077C93.0096 56.2982 92.6996 57.0753 92.0835 57.6511C91.4634 58.2269 90.6218 58.5129 89.5508 58.5129C88.4958 58.5129 87.6583 58.235 87.0382 57.6754C86.4181 57.1157 86.1 56.3506 86.0879 55.3761V49.3605H87.9482V55.3199C87.9482 55.9118 88.0891 56.3425 88.371 56.6123C88.6528 56.8821 89.0474 57.019 89.5467 57.019C90.5937 57.019 91.1252 56.4674 91.1413 55.3681V49.3564H93.0096V49.3605Z" fill="black"/>
<path d="M96.5126 58.3881H94.6523V49.3564H96.5126V58.3881Z" fill="black"/>
<path d="M105.584 58.3881H103.723L100.104 52.4448V58.3881H98.2393V49.3564H100.1L103.728 55.3117V49.3564H105.58V58.3881H105.584Z" fill="black"/>
<path d="M112.64 54.4805H109.069V56.9005H113.26V58.3944H107.208V49.3628H113.248V50.8728H109.069V53.0229H112.64V54.4805Z" fill="black"/>
<path d="M124.918 54.0809C124.918 54.9265 124.781 55.6593 124.508 56.2794C124.234 56.8995 123.855 57.3988 123.372 57.7773L124.874 58.953L123.69 60L121.77 58.4578C121.552 58.4941 121.323 58.5142 121.089 58.5142C120.34 58.5142 119.672 58.337 119.084 57.9747C118.496 57.6163 118.041 57.1009 117.719 56.4325C117.397 55.7641 117.232 54.999 117.228 54.1292V53.6823C117.228 52.7924 117.389 52.0112 117.707 51.3348C118.029 50.6583 118.48 50.1389 119.064 49.7765C119.648 49.4141 120.32 49.2329 121.069 49.2329C121.822 49.2329 122.49 49.4141 123.074 49.7765C123.658 50.1389 124.113 50.6583 124.431 51.3348C124.753 52.0112 124.91 52.7924 124.91 53.6782V54.0809H124.918ZM123.034 53.6703C123.034 52.724 122.865 52.0032 122.527 51.512C122.188 51.0207 121.705 50.7752 121.077 50.7752C120.453 50.7752 119.97 51.0168 119.631 51.504C119.293 51.9912 119.12 52.7038 119.116 53.642V54.0809C119.116 55.003 119.285 55.7197 119.623 56.227C119.962 56.7344 120.449 56.9882 121.089 56.9882C121.713 56.9882 122.192 56.7425 122.527 56.2512C122.861 55.76 123.03 55.0473 123.034 54.1091V53.6703Z" fill="black"/>
<path d="M133.115 49.3605V55.3077C133.115 56.2982 132.805 57.0753 132.189 57.6511C131.573 58.2269 130.727 58.5129 129.656 58.5129C128.601 58.5129 127.764 58.235 127.144 57.6754C126.524 57.1157 126.205 56.3506 126.193 55.3761V49.3605H128.054V55.3199C128.054 55.9118 128.195 56.3425 128.48 56.6123C128.762 56.8821 129.157 57.019 129.656 57.019C130.703 57.019 131.235 56.4674 131.251 55.3681V49.3564H133.115V49.3605Z" fill="black"/>
<path d="M139.602 56.5278H136.34L135.72 58.3881H133.743L137.105 49.3564H138.829L142.207 58.3881H140.23L139.602 56.5278ZM136.844 55.0219H139.103L137.967 51.6435L136.844 55.0219Z" fill="black"/>
<path d="M144.915 56.8942H148.865V58.3881H143.055V49.3564H144.915V56.8942Z" fill="black"/>
<path d="M151.91 58.3886H150.05V49.3569H151.91V58.3886Z" fill="black"/>
<path d="M160.249 50.8669H157.483V58.3886H155.623V50.8669H152.893V49.3569H160.249V50.8669Z" fill="black"/>
<path d="M164.525 53.4274L166.401 49.3564H168.435L165.471 55.1144V58.3881H163.579V55.1144L160.615 49.3564H162.657L164.525 53.4274Z" fill="black"/>
<path d="M21.2869 39.8952H16.8496V18.3652H21.2869V39.8952Z" fill="black"/>
<path d="M42.9019 39.8952H38.4646L29.8276 25.7298V39.8952H25.3943V18.3652H29.8316L38.4807 32.5588V18.3652H42.9019V39.8952Z" fill="black"/>
<path d="M46.7773 39.8952V18.3652H53.4011C55.2936 18.3652 56.9848 18.792 58.4786 19.6457C59.9725 20.4953 61.1362 21.7113 61.9778 23.2817C62.8153 24.8521 63.2341 26.6398 63.2341 28.641V29.6316C63.2341 31.6328 62.8233 33.4125 61.9979 34.9707C61.1765 36.529 60.0128 37.733 58.5149 38.5907C57.017 39.4483 55.3258 39.8832 53.4414 39.8912L46.7773 39.8952ZM51.2106 21.961V36.3318H53.3528C55.0882 36.3318 56.413 35.764 57.3311 34.6326C58.2451 33.4971 58.7162 31.8784 58.7363 29.7685V28.629C58.7363 26.4426 58.2813 24.7835 57.3754 23.6561C56.4694 22.5287 55.1406 21.965 53.3971 21.965H51.2106V21.961Z" fill="black"/>
<path d="M82.7512 18.3634V32.5409C82.7512 34.8965 82.0144 36.7608 80.5406 38.1298C79.0669 39.4988 77.0536 40.1834 74.5007 40.1834C71.9881 40.1834 69.991 39.519 68.5132 38.1862C67.0354 36.8534 66.2825 35.0253 66.2502 32.702V18.3594H70.6835V32.5691C70.6835 33.9784 71.0218 35.0052 71.6982 35.6535C72.3747 36.3018 73.3089 36.6239 74.5007 36.6239C76.9932 36.6239 78.2616 35.3113 78.3019 32.69V18.3594H82.7512V18.3634Z" fill="black"/>
<path d="M97.5539 34.2451C97.5539 33.4076 97.26 32.7634 96.6681 32.3164C96.0762 31.8695 95.0131 31.3943 93.475 30.895C91.9368 30.3957 90.7208 29.9045 89.8229 29.4213C87.3787 28.1006 86.1546 26.3208 86.1546 24.0861C86.1546 22.9224 86.4808 21.8836 87.1371 20.9736C87.7935 20.0596 88.7316 19.3509 89.9598 18.8355C91.1879 18.3241 92.565 18.0664 94.091 18.0664C95.6292 18.0664 96.9983 18.3443 98.2022 18.904C99.4062 19.4596 100.34 20.2448 101.005 21.2595C101.669 22.2742 102.003 23.4298 102.003 24.7183H97.566C97.566 23.7318 97.256 22.9667 96.6359 22.4191C96.0158 21.8715 95.142 21.5978 94.0186 21.5978C92.9314 21.5978 92.0898 21.8272 91.4899 22.2863C90.8899 22.7453 90.5879 23.3493 90.5879 24.0983C90.5879 24.7989 90.9382 25.3827 91.6469 25.8578C92.3516 26.3329 93.3904 26.7758 94.7595 27.1906C97.2801 27.9475 99.1203 28.8898 100.276 30.0132C101.428 31.1367 102.007 32.5379 102.007 34.2129C102.007 36.0772 101.303 37.5388 99.8934 38.5978C98.4841 39.6568 96.5875 40.1884 94.1998 40.1884C92.5448 40.1884 91.0349 39.8863 89.6739 39.2783C88.3129 38.6744 87.278 37.8409 86.5613 36.7859C85.8486 35.731 85.4902 34.5109 85.4902 33.1177H89.9396C89.9396 35.4934 91.361 36.6813 94.1998 36.6813C95.2547 36.6813 96.0762 36.4678 96.6681 36.037C97.256 35.6142 97.5539 35.0142 97.5539 34.2451Z" fill="black"/>
<path d="M121.209 21.961H114.613V39.8952H110.176V21.961H103.669V18.3652H121.205L121.209 21.961Z" fill="black"/>
<path d="M131.708 32.0152H128.177V39.8952H123.739V18.3652H131.74C134.285 18.3652 136.246 18.933 137.623 20.0644C139.004 21.1999 139.693 22.7984 139.693 24.8681C139.693 26.3378 139.375 27.5618 138.738 28.5443C138.102 29.5268 137.14 30.3079 135.847 30.8878L140.506 39.6859V39.8912H135.747L131.708 32.0152ZM128.177 28.4196H131.756C132.872 28.4196 133.733 28.1377 134.341 27.57C134.953 27.0022 135.259 26.2211 135.259 25.2265C135.259 24.2078 134.969 23.4105 134.394 22.8307C133.818 22.2509 132.932 21.961 131.74 21.961H128.177V28.4196Z" fill="black"/>
<path d="M149.781 28.0652L154.258 18.3652H159.11L152.044 32.0877V39.8952H147.534V32.0877L140.467 18.3652H145.331L149.781 28.0652Z" fill="black"/>
<path d="M185.517 32.723C185.348 35.0383 184.494 36.8623 182.952 38.1911C181.41 39.5239 179.376 40.1882 176.852 40.1882C174.093 40.1882 171.919 39.2621 170.341 37.4018C168.758 35.5456 167.969 32.9927 167.969 29.7514V28.4347C167.969 26.365 168.331 24.541 169.064 22.9626C169.793 21.3842 170.836 20.1762 172.193 19.3346C173.546 18.4891 175.12 18.0703 176.916 18.0703C179.401 18.0703 181.402 18.7347 182.92 20.0675C184.438 21.4003 185.316 23.2646 185.553 25.6725H181.116C181.007 24.2833 180.621 23.2766 179.956 22.6485C179.292 22.0244 178.277 21.7103 176.916 21.7103C175.438 21.7103 174.331 22.2378 173.598 23.3009C172.865 24.3598 172.487 26.0026 172.467 28.2333V29.8601C172.467 32.1875 172.817 33.8867 173.526 34.9618C174.23 36.0368 175.342 36.5724 176.86 36.5724C178.229 36.5724 179.252 36.2583 179.928 35.6342C180.604 35.01 180.991 34.0396 181.088 32.731H185.517V32.723Z" fill="black"/>
<path d="M206.113 29.6145C206.113 31.7324 205.738 33.5927 204.989 35.1872C204.24 36.7858 203.169 38.0179 201.772 38.8836C200.375 39.7493 198.776 40.1842 196.972 40.1842C195.189 40.1842 193.598 39.7533 192.197 38.8997C190.796 38.0421 189.712 36.818 188.943 35.2235C188.174 33.633 187.784 31.8009 187.776 29.7312V28.6682C187.776 26.5502 188.158 24.6819 188.919 23.0713C189.684 21.4607 190.763 20.2245 192.157 19.3628C193.55 18.5011 195.144 18.0703 196.94 18.0703C198.732 18.0703 200.327 18.5011 201.724 19.3628C203.117 20.2245 204.196 21.4647 204.961 23.0713C205.726 24.6819 206.105 26.5462 206.105 28.6521V29.6145H206.113ZM201.619 28.64C201.619 26.3852 201.216 24.6658 200.407 23.494C199.598 22.3223 198.446 21.7345 196.948 21.7345C195.458 21.7345 194.311 22.3103 193.501 23.4699C192.692 24.6296 192.285 26.3287 192.273 28.5635V29.6145C192.273 31.813 192.676 33.5202 193.485 34.7322C194.295 35.9442 195.458 36.5522 196.976 36.5522C198.466 36.5522 199.61 35.9684 200.407 34.8007C201.204 33.633 201.611 31.9297 201.619 29.6909V28.64Z" fill="black"/>
<path d="M207.472 37.7931C207.472 37.1126 207.701 36.5609 208.16 36.1381C208.619 35.7153 209.191 35.502 209.884 35.502C210.584 35.502 211.164 35.7153 211.619 36.1381C212.078 36.5609 212.308 37.1126 212.308 37.7931C212.308 38.4655 212.082 39.009 211.627 39.4277C211.172 39.8465 210.592 40.0559 209.884 40.0559C209.183 40.0559 208.607 39.8465 208.152 39.4277C207.701 39.009 207.472 38.4655 207.472 37.7931Z" fill="black"/>
<path d="M64.2141 5.24372H60.6425V7.66373H64.8342V9.15759H58.7822V0.125977H64.8221V1.63594H60.6425V3.7861H64.2141V5.24372Z" fill="black"/>
<path d="M69.1603 3.24233L70.8515 0.129883H72.9896L70.3602 4.60741L73.0581 9.15744H70.8958L69.1603 5.99253L67.4249 9.15744H65.2585L67.9564 4.60741L65.327 0.129883H67.4651L69.1603 3.24233Z" fill="black"/>
<path d="M80.9279 6.14844C80.8554 7.11884 80.497 7.88391 79.8528 8.44361C79.2045 9.0033 78.3509 9.28104 77.2959 9.28104C76.1362 9.28104 75.2262 8.89055 74.5659 8.11343C73.9015 7.33227 73.5713 6.26122 73.5713 4.90427V4.35254C73.5713 3.48683 73.7243 2.72187 74.0303 2.05749C74.3363 1.39713 74.7752 0.889703 75.343 0.535366C75.9107 0.181029 76.5711 0.00390625 77.3241 0.00390625C78.367 0.00390625 79.2045 0.28177 79.8407 0.841462C80.4769 1.40115 80.8474 2.18224 80.944 3.19291H79.0837C79.0394 2.60906 78.8743 2.18626 78.5965 1.92453C78.3187 1.66281 77.8918 1.52996 77.3201 1.52996C76.7 1.52996 76.2369 1.75136 75.9269 2.19831C75.6208 2.64123 75.4598 3.33383 75.4517 4.26799V4.94851C75.4517 5.92696 75.6007 6.63566 75.8946 7.08663C76.1886 7.53761 76.6557 7.76309 77.2919 7.76309C77.8677 7.76309 78.2945 7.63427 78.5804 7.36852C78.8622 7.1068 79.0273 6.70008 79.0676 6.14844H80.9279Z" fill="black"/>
<path d="M84.0077 7.66373H87.9578V9.15759H82.1475V0.125977H84.0077V7.66373Z" fill="black"/>
<path d="M95.7108 0.125977V6.07316C95.7108 7.0637 95.4007 7.84085 94.7847 8.42068C94.1646 8.99648 93.323 9.28232 92.2519 9.28232C91.197 9.28232 90.3594 9.00458 89.7393 8.44488C89.1192 7.88519 88.8011 7.12009 88.7891 6.14566V0.130032H90.6494V6.08926C90.6494 6.67714 90.7903 7.11206 91.0762 7.38184C91.358 7.65162 91.7526 7.78846 92.2519 7.78846C93.2988 7.78846 93.8304 7.23693 93.8465 6.13767V0.125977H95.7108Z" fill="black"/>
<path d="M101.92 6.7885C101.92 6.43819 101.795 6.16845 101.546 5.97921C101.296 5.79398 100.853 5.59264 100.205 5.38729C99.5605 5.17791 99.0491 4.97249 98.6746 4.77116C97.6479 4.2155 97.1365 3.47059 97.1365 2.5324C97.1365 2.04519 97.2734 1.6103 97.5472 1.22777C97.821 0.84525 98.2156 0.547317 98.731 0.329883C99.2464 0.116476 99.8222 0.0078125 100.462 0.0078125C101.107 0.0078125 101.683 0.124482 102.186 0.358023C102.689 0.591563 103.084 0.92175 103.362 1.34856C103.639 1.77135 103.78 2.25863 103.78 2.79819H101.92C101.92 2.38345 101.791 2.06137 101.529 1.83186C101.268 1.60234 100.901 1.48951 100.43 1.48951C99.9752 1.48951 99.6209 1.58623 99.3712 1.77951C99.1176 1.97278 98.9927 2.22641 98.9927 2.53645C98.9927 2.83039 99.1417 3.07597 99.4357 3.2773C99.7296 3.4746 100.164 3.65986 100.74 3.83702C101.799 4.15512 102.568 4.54975 103.052 5.02086C103.535 5.49197 103.776 6.0798 103.776 6.78444C103.776 7.5656 103.478 8.17761 102.89 8.62053C102.299 9.06345 101.505 9.28495 100.503 9.28495C99.8061 9.28495 99.1739 9.15609 98.6062 8.90242C98.0344 8.64874 97.5995 8.30245 97.3016 7.85953C96.9996 7.41661 96.8506 6.90528 96.8506 6.32143H98.7189C98.7189 7.32001 99.3149 7.81935 100.507 7.81935C100.95 7.81935 101.292 7.72667 101.542 7.5495C101.795 7.36025 101.92 7.11062 101.92 6.7885Z" fill="black"/>
<path d="M107.023 9.15759H105.163V0.125977H107.023V9.15759Z" fill="black"/>
<path d="M112.081 6.91883L114.127 0.125977H116.197L113.052 9.15759H111.111L107.978 0.125977H110.044L112.081 6.91883Z" fill="black"/>
<path d="M122.482 5.24372H118.91V7.66373H123.102V9.15759H117.05V0.125977H123.09V1.63594H118.91V3.7861H122.482V5.24372Z" fill="black"/>
<path d="M127.36 9.15759V0.125977H130.139C130.932 0.125977 131.645 0.303127 132.269 0.661491C132.893 1.01985 133.384 1.52719 133.734 2.18755C134.085 2.8479 134.262 3.59681 134.262 4.43836V4.8532C134.262 5.69073 134.089 6.43966 133.747 7.09197C133.4 7.74427 132.913 8.25155 132.285 8.60991C131.657 8.96828 130.948 9.15357 130.159 9.15759H127.36ZM129.221 1.63594V7.66373H130.119C130.847 7.66373 131.403 7.42616 131.786 6.95102C132.172 6.47589 132.365 5.79532 132.373 4.90948V4.43037C132.373 3.51231 132.184 2.81972 131.802 2.34459C131.419 1.86946 130.863 1.63594 130.135 1.63594H129.221Z" fill="black"/>
<path d="M141.046 5.24372H137.475V7.66373H141.666V9.15759H135.614V0.125977H141.654V1.63594H137.475V3.7861H141.046V5.24372Z" fill="black"/>
<path d="M147.438 6.7885C147.438 6.43819 147.313 6.16845 147.068 5.97921C146.818 5.79398 146.375 5.59264 145.727 5.38729C145.083 5.17791 144.571 4.97249 144.197 4.77116C143.17 4.2155 142.659 3.47059 142.659 2.5324C142.659 2.04519 142.796 1.6103 143.073 1.22777C143.347 0.84525 143.742 0.547317 144.257 0.329883C144.773 0.116476 145.348 0.0078125 145.989 0.0078125C146.633 0.0078125 147.209 0.124482 147.712 0.358023C148.215 0.591563 148.606 0.92175 148.888 1.34856C149.166 1.77135 149.307 2.25863 149.307 2.79819H147.446C147.446 2.38345 147.317 2.06137 147.056 1.83186C146.794 1.60234 146.428 1.48951 145.956 1.48951C145.501 1.48951 145.147 1.58623 144.897 1.77951C144.644 1.97278 144.519 2.22641 144.519 2.53645C144.519 2.83039 144.668 3.07597 144.962 3.2773C145.256 3.4746 145.691 3.65986 146.267 3.83702C147.326 4.15512 148.095 4.54975 148.582 5.02086C149.065 5.49197 149.307 6.0798 149.307 6.78444C149.307 7.5656 149.013 8.17761 148.421 8.62053C147.829 9.06345 147.032 9.28495 146.033 9.28495C145.336 9.28495 144.704 9.15609 144.136 8.90242C143.565 8.64874 143.13 8.30245 142.832 7.85953C142.53 7.41661 142.381 6.90528 142.381 6.32143H144.249C144.249 7.32001 144.845 7.81935 146.037 7.81935C146.48 7.81935 146.826 7.72667 147.072 7.5495C147.313 7.36025 147.438 7.11062 147.438 6.7885Z" fill="black"/>
<path d="M152.543 9.15759H150.683V0.125977H152.543V9.15759Z" fill="black"/>
<path d="M161.413 8.01687C161.079 8.41952 160.603 8.72964 159.991 8.94707C159.379 9.16854 158.703 9.27726 157.958 9.27726C157.177 9.27726 156.492 9.10808 155.9 8.76583C155.312 8.42357 154.857 7.93238 154.535 7.28007C154.213 6.6318 154.048 5.86666 154.04 4.99289V4.37689C154.04 3.47494 154.193 2.69784 154.495 2.03749C154.797 1.37713 155.236 0.873783 155.808 0.523472C156.379 0.173162 157.052 0 157.821 0C158.892 0 159.73 0.257738 160.334 0.769111C160.938 1.28048 161.296 2.02131 161.405 2.99977H159.593C159.508 2.48034 159.327 2.10594 159.045 1.86435C158.763 1.62275 158.373 1.5059 157.877 1.5059C157.245 1.5059 156.762 1.74348 156.432 2.21861C156.102 2.69375 155.933 3.40245 155.929 4.34064V4.91646C155.929 5.8627 156.11 6.57939 156.468 7.06257C156.826 7.54576 157.354 7.78733 158.051 7.78733C158.747 7.78733 159.246 7.63837 159.544 7.34041V5.78216H157.853V4.41314H161.405V8.01687H161.413Z" fill="black"/>
<path d="M170.259 9.15759H168.399L164.779 3.21434V9.15759H162.919V0.125977H164.779L168.407 6.08127V0.125977H170.259V9.15759Z" fill="black"/>
<path d="M2.49246 29.5503H0V2.95898H39.9157V5.45543H2.49246V29.5503Z" fill="black"/>
<path d="M229.06 54.8658H189.141V52.3733H226.564V29.5508H229.06V54.8658Z" fill="black"/>
</svg>
